<?xml version="1.0" encoding="UTF-8" standalone="no"?>
<!DOCTYPE svg PUBLIC "-//W3C//DTD SVG 1.1//EN"
 "http://www.w3.org/Graphics/SVG/1.1/DTD/svg11.dtd">
<!-- Generated by graphviz version 2.38.0 (20140413.2041)
 -->
<!-- Title: %3 Pages: 1 -->
<svg width="182pt" height="200pt"
 viewBox="0.00 0.00 181.50 199.82" xmlns="http://www.w3.org/2000/svg" xmlns:xlink="http://www.w3.org/1999/xlink">
<g id="graph0" class="graph" transform="scale(1 1) rotate(0) translate(4 195.823)">
<title>%3</title>
<polygon fill="white" stroke="none" points="-4,4 -4,-195.823 177.5,-195.823 177.5,4 -4,4"/>
<!-- x -->
<g id="node1" class="node"><title>x</title>
<polygon fill="lightgray" stroke="black" points="20,-191.823 0,-191.823 0,-173.823 20,-173.823 20,-191.823"/>
<text text-anchor="middle" x="10" y="-180.623" font-family="Times New Roman,serif" font-size="9.00">x</text>
</g>
<!-- control -->
<g id="node5" class="node"><title>control</title>
<ellipse fill="lightblue" stroke="black" cx="75" cy="-108.125" rx="29.8983" ry="29.8983"/>
<text text-anchor="middle" x="75" y="-105.925" font-family="Times New Roman,serif" font-size="9.00">control</text>
</g>
<!-- x&#45;&gt;control -->
<g id="edge1" class="edge"><title>x&#45;&gt;control</title>
<path fill="none" stroke="green" stroke-width="0.238891" d="M17.2045,-173.766C24.8141,-165.255 37.2656,-151.328 48.6663,-138.578"/>
<polygon fill="green" stroke="green" stroke-width="0.238891" points="51.5201,-140.637 55.5763,-130.849 46.3017,-135.971 51.5201,-140.637"/>
</g>
<!-- dx -->
<g id="node2" class="node"><title>dx</title>
<polygon fill="lightgray" stroke="black" points="63.5,-191.823 38.5,-191.823 38.5,-173.823 63.5,-173.823 63.5,-191.823"/>
<text text-anchor="middle" x="51" y="-180.623" font-family="Times New Roman,serif" font-size="9.00">dx</text>
</g>
<!-- dx&#45;&gt;control -->
<g id="edge5" class="edge"><title>dx&#45;&gt;control</title>
<path fill="none" stroke="green" stroke-width="0.162728" d="M53.6601,-173.766C55.9214,-166.916 59.3406,-156.559 62.7836,-146.13"/>
<polygon fill="green" stroke="green" stroke-width="0.162728" points="66.1083,-147.223 65.9197,-136.63 59.4611,-145.029 66.1083,-147.223"/>
</g>
<!-- theta -->
<g id="node3" class="node"><title>theta</title>
<polygon fill="lightgray" stroke="black" points="116.5,-191.823 81.5,-191.823 81.5,-173.823 116.5,-173.823 116.5,-191.823"/>
<text text-anchor="middle" x="99" y="-180.623" font-family="Times New Roman,serif" font-size="9.00">theta</text>
</g>
<!-- theta&#45;&gt;control -->
<g id="edge3" class="edge"><title>theta&#45;&gt;control</title>
<path fill="none" stroke="green" stroke-width="0.356831" d="M96.3399,-173.766C94.0786,-166.916 90.6594,-156.559 87.2164,-146.13"/>
<polygon fill="green" stroke="green" stroke-width="0.356831" points="90.5389,-145.029 84.0803,-136.63 83.8917,-147.223 90.5389,-145.029"/>
</g>
<!-- dtheta -->
<g id="node4" class="node"><title>dtheta</title>
<polygon fill="lightgray" stroke="black" points="173.5,-191.823 134.5,-191.823 134.5,-173.823 173.5,-173.823 173.5,-191.823"/>
<text text-anchor="middle" x="154" y="-180.623" font-family="Times New Roman,serif" font-size="9.00">dtheta</text>
</g>
<!-- dtheta&#45;&gt;control -->
<g id="edge2" class="edge"><title>dtheta&#45;&gt;control</title>
<path fill="none" stroke="green" stroke-width="0.215842" d="M145.244,-173.766C135.323,-164.636 118.631,-149.275 104.007,-135.818"/>
<polygon fill="green" stroke="green" stroke-width="0.215842" points="106.324,-133.194 96.5953,-128.998 101.584,-138.345 106.324,-133.194"/>
</g>
<!-- 374 -->
<g id="node6" class="node"><title>374</title>
<ellipse fill="none" stroke="black" cx="75" cy="-21.2132" rx="21.4286" ry="21.4286"/>
<text text-anchor="middle" x="75" y="-19.0132" font-family="Times New Roman,serif" font-size="9.00">374</text>
</g>
<!-- control&#45;&gt;374 -->
<g id="edge4" class="edge"><title>control&#45;&gt;374</title>
<path fill="none" stroke="red" stroke-width="0.189167" d="M75,-78.3777C75,-70.1234 75,-61.0947 75,-52.7373"/>
<polygon fill="red" stroke="red" stroke-width="0.189167" points="78.5001,-52.6191 75,-42.6192 71.5001,-52.6192 78.5001,-52.6191"/>
</g>
</g>
</svg>
