<?xml version="1.0" encoding="UTF-8" standalone="no"?>
<!DOCTYPE svg PUBLIC "-//W3C//DTD SVG 1.1//EN"
 "http://www.w3.org/Graphics/SVG/1.1/DTD/svg11.dtd">
<!-- Generated by graphviz version 2.38.0 (20140413.2041)
 -->
<!-- Title: %3 Pages: 1 -->
<svg width="170pt" height="222pt"
 viewBox="0.00 0.00 170.25 222.45" xmlns="http://www.w3.org/2000/svg" xmlns:xlink="http://www.w3.org/1999/xlink">
<g id="graph0" class="graph" transform="scale(1 1) rotate(0) translate(4 218.451)">
<title>%3</title>
<polygon fill="white" stroke="none" points="-4,4 -4,-218.451 166.249,-218.451 166.249,4 -4,4"/>
<!-- A -->
<g id="node1" class="node"><title>A</title>
<polygon fill="lightgray" stroke="black" points="23,-214.451 0,-214.451 0,-196.451 23,-196.451 23,-214.451"/>
<text text-anchor="middle" x="11.5" y="-203.251" font-family="Times New Roman,serif" font-size="9.00">A</text>
</g>
<!-- A XOR B -->
<g id="node3" class="node"><title>A XOR B</title>
<ellipse fill="lightblue" stroke="black" cx="59.5" cy="-37.4767" rx="37.4533" ry="37.4533"/>
<text text-anchor="middle" x="59.5" y="-35.2767" font-family="Times New Roman,serif" font-size="9.00">A XOR B</text>
</g>
<!-- A&#45;&gt;A XOR B -->
<g id="edge4" class="edge"><title>A&#45;&gt;A XOR B</title>
<path fill="none" stroke="red" stroke-width="0.379907" d="M9.01223,-196.437C4.31382,-179.944 -4.53365,-141.214 5.5,-110.953 10.07,-97.1707 18.3922,-83.8819 27.1567,-72.531"/>
<polygon fill="red" stroke="red" stroke-width="0.379907" points="29.9857,-74.5992 33.5694,-64.6289 24.5503,-70.1882 29.9857,-74.5992"/>
</g>
<!-- 157 -->
<g id="node4" class="node"><title>157</title>
<ellipse fill="white" stroke="black" cx="35.5" cy="-135.702" rx="21.4286" ry="21.4286"/>
<text text-anchor="middle" x="35.5" y="-133.502" font-family="Times New Roman,serif" font-size="9.00">157</text>
</g>
<!-- A&#45;&gt;157 -->
<g id="edge3" class="edge"><title>A&#45;&gt;157</title>
<path fill="none" stroke="green" stroke-width="0.343962" d="M14.3474,-196.413C17.0556,-188.768 21.295,-176.801 25.2696,-165.581"/>
<polygon fill="green" stroke="green" stroke-width="0.343962" points="28.609,-166.636 28.6492,-156.041 22.0108,-164.298 28.609,-166.636"/>
</g>
<!-- B -->
<g id="node2" class="node"><title>B</title>
<polygon fill="lightgray" stroke="black" points="96,-214.451 73,-214.451 73,-196.451 96,-196.451 96,-214.451"/>
<text text-anchor="middle" x="84.5" y="-203.251" font-family="Times New Roman,serif" font-size="9.00">B</text>
</g>
<!-- B&#45;&gt;A XOR B -->
<g id="edge5" class="edge"><title>B&#45;&gt;A XOR B</title>
<path fill="none" stroke="green" stroke-width="0.351238" d="M83.2942,-196.446C80.3037,-176.592 72.3623,-123.869 66.4718,-84.7622"/>
<polygon fill="green" stroke="green" stroke-width="0.351238" points="69.8973,-84.0048 64.9468,-74.6377 62.9754,-85.0475 69.8973,-84.0048"/>
</g>
<!-- B&#45;&gt;157 -->
<g id="edge1" class="edge"><title>B&#45;&gt;157</title>
<path fill="none" stroke="red" stroke-width="0.702149" d="M78.6866,-196.413C72.4662,-187.813 62.289,-173.741 53.3762,-161.418"/>
<polygon fill="red" stroke="red" stroke-width="0.702149" points="56.1685,-159.307 47.4721,-153.255 50.4965,-163.409 56.1685,-159.307"/>
</g>
<!-- 1375 -->
<g id="node5" class="node"><title>1375</title>
<ellipse fill="white" stroke="black" cx="137.5" cy="-135.702" rx="25" ry="25"/>
<text text-anchor="middle" x="137.5" y="-133.502" font-family="Times New Roman,serif" font-size="9.00">1375</text>
</g>
<!-- B&#45;&gt;1375 -->
<g id="edge6" class="edge"><title>B&#45;&gt;1375</title>
<path fill="none" stroke="green" stroke-width="0.124904" d="M90.7879,-196.413C97.1151,-188.325 107.227,-175.399 116.427,-163.639"/>
<polygon fill="green" stroke="green" stroke-width="0.124904" points="119.188,-165.79 122.593,-155.757 113.675,-161.477 119.188,-165.79"/>
</g>
<!-- 157&#45;&gt;A XOR B -->
<g id="edge2" class="edge"><title>157&#45;&gt;A XOR B</title>
<path fill="none" stroke="green" stroke-width="0.986745" d="M40.4728,-114.764C42.7224,-105.745 45.4807,-94.6856 48.1917,-83.816"/>
<polygon fill="green" stroke="green" stroke-width="0.986745" points="51.6281,-84.5006 50.6522,-73.9508 44.8362,-82.8066 51.6281,-84.5006"/>
</g>
<!-- 1375&#45;&gt;A XOR B -->
<g id="edge7" class="edge"><title>1375&#45;&gt;A XOR B</title>
<path fill="none" stroke="green" stroke-width="0.129563" d="M122.09,-115.691C112.737,-104.153 100.485,-89.0385 89.3031,-75.2435"/>
<polygon fill="green" stroke="green" stroke-width="0.129563" points="91.8888,-72.8752 82.8728,-67.3108 86.451,-77.2831 91.8888,-72.8752"/>
</g>
</g>
</svg>
