<?xml version="1.0" encoding="UTF-8" standalone="no"?>
<!DOCTYPE svg PUBLIC "-//W3C//DTD SVG 1.1//EN"
 "http://www.w3.org/Graphics/SVG/1.1/DTD/svg11.dtd">
<!-- Generated by graphviz version 2.38.0 (20140413.2041)
 -->
<!-- Title: %3 Pages: 1 -->
<svg width="309pt" height="153pt"
 viewBox="0.00 0.00 309.21 152.89" xmlns="http://www.w3.org/2000/svg" xmlns:xlink="http://www.w3.org/1999/xlink">
<g id="graph0" class="graph" transform="scale(1 1) rotate(0) translate(4 148.894)">
<title>%3</title>
<polygon fill="white" stroke="none" points="-4,4 -4,-148.894 305.213,-148.894 305.213,4 -4,4"/>
<!-- x -->
<g id="node1" class="node"><title>x</title>
<polygon fill="lightgray" stroke="black" points="20,-129.146 0,-129.146 0,-111.146 20,-111.146 20,-129.146"/>
<text text-anchor="middle" x="10" y="-117.946" font-family="Times New Roman,serif" font-size="9.00">x</text>
</g>
<!-- dx -->
<g id="node2" class="node"><title>dx</title>
<polygon fill="lightgray" stroke="black" points="63.5,-129.146 38.5,-129.146 38.5,-111.146 63.5,-111.146 63.5,-129.146"/>
<text text-anchor="middle" x="51" y="-117.946" font-family="Times New Roman,serif" font-size="9.00">dx</text>
</g>
<!-- control -->
<g id="node5" class="node"><title>control</title>
<ellipse fill="lightblue" stroke="black" cx="99" cy="-29.6985" rx="29.8983" ry="29.8983"/>
<text text-anchor="middle" x="99" y="-27.4985" font-family="Times New Roman,serif" font-size="9.00">control</text>
</g>
<!-- dx&#45;&gt;control -->
<g id="edge2" class="edge"><title>dx&#45;&gt;control</title>
<path fill="none" stroke="green" stroke-width="0.593398" d="M55.4297,-110.983C61.0694,-100.591 71.1702,-81.9791 80.2271,-65.2903"/>
<polygon fill="green" stroke="green" stroke-width="0.593398" points="83.4227,-66.7397 85.1164,-56.2811 77.2703,-63.4008 83.4227,-66.7397"/>
</g>
<!-- theta -->
<g id="node3" class="node"><title>theta</title>
<polygon fill="lightgray" stroke="black" points="116.5,-129.146 81.5,-129.146 81.5,-111.146 116.5,-111.146 116.5,-129.146"/>
<text text-anchor="middle" x="99" y="-117.946" font-family="Times New Roman,serif" font-size="9.00">theta</text>
</g>
<!-- theta&#45;&gt;control -->
<g id="edge3" class="edge"><title>theta&#45;&gt;control</title>
<path fill="none" stroke="green" stroke-width="0.342463" d="M99,-110.983C99,-101.441 99,-84.9687 99,-69.4183"/>
<polygon fill="green" stroke="green" stroke-width="0.342463" points="102.5,-69.4147 99,-59.4148 95.5001,-69.4148 102.5,-69.4147"/>
</g>
<!-- dtheta -->
<g id="node4" class="node"><title>dtheta</title>
<polygon fill="lightgray" stroke="black" points="173.5,-129.146 134.5,-129.146 134.5,-111.146 173.5,-111.146 173.5,-129.146"/>
<text text-anchor="middle" x="154" y="-117.946" font-family="Times New Roman,serif" font-size="9.00">dtheta</text>
</g>
<!-- dtheta&#45;&gt;control -->
<g id="edge1" class="edge"><title>dtheta&#45;&gt;control</title>
<path fill="none" stroke="green" stroke-width="1.37298" d="M148.924,-110.983C142.312,-100.349 130.347,-81.1082 119.788,-64.1282"/>
<polygon fill="green" stroke="green" stroke-width="1.37298" points="122.683,-62.1562 114.43,-55.5124 116.739,-65.8527 122.683,-62.1562"/>
</g>
<!-- 1270 -->
<g id="node6" class="node"><title>1270</title>
<ellipse fill="white" stroke="black" cx="216" cy="-120.146" rx="25" ry="25"/>
<text text-anchor="middle" x="216" y="-117.946" font-family="Times New Roman,serif" font-size="9.00">1270</text>
</g>
<!-- 975 -->
<g id="node7" class="node"><title>975</title>
<ellipse fill="white" stroke="black" cx="280" cy="-120.146" rx="21.4286" ry="21.4286"/>
<text text-anchor="middle" x="280" y="-117.946" font-family="Times New Roman,serif" font-size="9.00">975</text>
</g>
</g>
</svg>
