<?xml version="1.0" encoding="UTF-8" standalone="no"?>
<!DOCTYPE svg PUBLIC "-//W3C//DTD SVG 1.1//EN"
 "http://www.w3.org/Graphics/SVG/1.1/DTD/svg11.dtd">
<!-- Generated by graphviz version 2.38.0 (20140413.2041)
 -->
<!-- Title: %3 Pages: 1 -->
<svg width="182pt" height="200pt"
 viewBox="0.00 0.00 181.50 199.82" xmlns="http://www.w3.org/2000/svg" xmlns:xlink="http://www.w3.org/1999/xlink">
<g id="graph0" class="graph" transform="scale(1 1) rotate(0) translate(4 195.823)">
<title>%3</title>
<polygon fill="white" stroke="none" points="-4,4 -4,-195.823 177.5,-195.823 177.5,4 -4,4"/>
<!-- x -->
<g id="node1" class="node"><title>x</title>
<polygon fill="lightgray" stroke="black" points="20,-191.823 0,-191.823 0,-173.823 20,-173.823 20,-191.823"/>
<text text-anchor="middle" x="10" y="-180.623" font-family="Times New Roman,serif" font-size="9.00">x</text>
</g>
<!-- dx -->
<g id="node2" class="node"><title>dx</title>
<polygon fill="lightgray" stroke="black" points="63.5,-191.823 38.5,-191.823 38.5,-173.823 63.5,-173.823 63.5,-191.823"/>
<text text-anchor="middle" x="51" y="-180.623" font-family="Times New Roman,serif" font-size="9.00">dx</text>
</g>
<!-- 237 -->
<g id="node6" class="node"><title>237</title>
<ellipse fill="white" stroke="black" cx="99" cy="-116.61" rx="21.4286" ry="21.4286"/>
<text text-anchor="middle" x="99" y="-114.41" font-family="Times New Roman,serif" font-size="9.00">237</text>
</g>
<!-- dx&#45;&gt;237 -->
<g id="edge4" class="edge"><title>dx&#45;&gt;237</title>
<path fill="none" stroke="green" stroke-width="0.313352" d="M57.0792,-173.691C62.9894,-165.784 72.2682,-153.371 80.5953,-142.232"/>
<polygon fill="green" stroke="green" stroke-width="0.313352" points="83.5221,-144.162 86.706,-134.057 77.9154,-139.971 83.5221,-144.162"/>
</g>
<!-- theta -->
<g id="node3" class="node"><title>theta</title>
<polygon fill="lightgray" stroke="black" points="116.5,-191.823 81.5,-191.823 81.5,-173.823 116.5,-173.823 116.5,-191.823"/>
<text text-anchor="middle" x="99" y="-180.623" font-family="Times New Roman,serif" font-size="9.00">theta</text>
</g>
<!-- theta&#45;&gt;237 -->
<g id="edge3" class="edge"><title>theta&#45;&gt;237</title>
<path fill="none" stroke="green" stroke-width="0.837453" d="M99,-173.691C99,-167.148 99,-157.519 99,-148.079"/>
<polygon fill="green" stroke="green" stroke-width="0.837453" points="102.5,-148.065 99,-138.066 95.5001,-148.066 102.5,-148.065"/>
</g>
<!-- dtheta -->
<g id="node4" class="node"><title>dtheta</title>
<polygon fill="lightgray" stroke="black" points="173.5,-191.823 134.5,-191.823 134.5,-173.823 173.5,-173.823 173.5,-191.823"/>
<text text-anchor="middle" x="154" y="-180.623" font-family="Times New Roman,serif" font-size="9.00">dtheta</text>
</g>
<!-- dtheta&#45;&gt;237 -->
<g id="edge1" class="edge"><title>dtheta&#45;&gt;237</title>
<path fill="none" stroke="green" stroke-width="1.23885" d="M147.034,-173.691C139.988,-165.465 128.764,-152.361 118.938,-140.887"/>
<polygon fill="green" stroke="green" stroke-width="1.23885" points="121.589,-138.603 112.426,-133.285 116.273,-143.157 121.589,-138.603"/>
</g>
<!-- control -->
<g id="node5" class="node"><title>control</title>
<ellipse fill="lightblue" stroke="black" cx="99" cy="-29.6985" rx="29.8983" ry="29.8983"/>
<text text-anchor="middle" x="99" y="-27.4985" font-family="Times New Roman,serif" font-size="9.00">control</text>
</g>
<!-- control&#45;&gt;237 -->
<g id="edge5" class="edge"><title>control&#45;&gt;237</title>
<path fill="none" stroke="green" stroke-width="0.204115" d="M105.404,-58.9728C105.84,-67.5855 105.864,-77.0777 105.477,-85.7892"/>
<polygon fill="green" stroke="green" stroke-width="0.204115" points="101.975,-85.7053 104.801,-95.9163 108.959,-86.1717 101.975,-85.7053"/>
</g>
<!-- 237&#45;&gt;control -->
<g id="edge2" class="edge"><title>237&#45;&gt;control</title>
<path fill="none" stroke="green" stroke-width="0.494845" d="M93.1992,-95.9163C92.4617,-87.9429 92.1539,-78.4488 92.276,-69.2064"/>
<polygon fill="green" stroke="green" stroke-width="0.494845" points="95.7817,-69.0775 92.5965,-58.9728 88.7851,-68.8584 95.7817,-69.0775"/>
</g>
</g>
</svg>
