<?xml version="1.0" encoding="utf-8" standalone="no"?>
<!DOCTYPE svg PUBLIC "-//W3C//DTD SVG 1.1//EN"
  "http://www.w3.org/Graphics/SVG/1.1/DTD/svg11.dtd">
<!-- Created with matplotlib (https://matplotlib.org/) -->
<svg height="345.6pt" version="1.1" viewBox="0 0 460.8 345.6" width="460.8pt" xmlns="http://www.w3.org/2000/svg" xmlns:xlink="http://www.w3.org/1999/xlink">
 <defs>
  <style type="text/css">
*{stroke-linecap:butt;stroke-linejoin:round;}
  </style>
 </defs>
 <g id="figure_1">
  <g id="patch_1">
   <path d="M 0 345.6 
L 460.8 345.6 
L 460.8 0 
L 0 0 
z
" style="fill:#ffffff;"/>
  </g>
  <g id="axes_1">
   <g id="patch_2">
    <path d="M 57.6 307.584 
L 414.72 307.584 
L 414.72 41.472 
L 57.6 41.472 
z
" style="fill:#ffffff;"/>
   </g>
   <g id="PolyCollection_1">
    <path clip-path="url(#pee5fcc8502)" d="M 73.832727 258.304 
L 73.832727 307.584 
L 80.596364 307.584 
L 87.36 307.584 
L 94.123636 307.584 
L 100.887273 307.584 
L 107.650909 307.584 
L 114.414545 307.584 
L 121.178182 307.584 
L 127.941818 307.584 
L 134.705455 307.584 
L 141.469091 307.584 
L 148.232727 307.584 
L 154.996364 307.584 
L 161.76 307.584 
L 168.523636 307.584 
L 175.287273 307.584 
L 182.050909 307.584 
L 188.814545 307.584 
L 195.578182 307.584 
L 202.341818 307.584 
L 209.105455 307.584 
L 215.869091 307.584 
L 222.632727 307.584 
L 229.396364 307.584 
L 236.16 307.584 
L 242.923636 307.584 
L 249.687273 307.584 
L 256.450909 307.584 
L 263.214545 307.584 
L 269.978182 307.584 
L 276.741818 307.584 
L 283.505455 307.584 
L 290.269091 307.584 
L 297.032727 307.584 
L 303.796364 307.584 
L 310.56 307.584 
L 317.323636 307.584 
L 324.087273 307.584 
L 330.850909 307.584 
L 337.614545 307.584 
L 344.378182 307.584 
L 351.141818 307.584 
L 357.905455 307.584 
L 364.669091 307.584 
L 371.432727 307.584 
L 378.196364 307.584 
L 384.96 307.584 
L 391.723636 307.584 
L 398.487273 307.584 
L 398.487273 307.584 
L 398.487273 307.584 
L 391.723636 307.584 
L 384.96 307.584 
L 378.196364 307.584 
L 371.432727 307.584 
L 364.669091 307.584 
L 357.905455 307.584 
L 351.141818 307.584 
L 344.378182 307.584 
L 337.614545 307.584 
L 330.850909 275.401143 
L 324.087273 276.406857 
L 317.323636 264.338286 
L 310.56 258.304 
L 303.796364 255.286857 
L 297.032727 265.344 
L 290.269091 278.418286 
L 283.505455 295.515429 
L 276.741818 282.441143 
L 269.978182 279.424 
L 263.214545 261.321143 
L 256.450909 269.366857 
L 249.687273 274.395429 
L 242.923636 262.326857 
L 236.16 262.326857 
L 229.396364 261.321143 
L 222.632727 274.395429 
L 215.869091 277.412571 
L 209.105455 276.406857 
L 202.341818 281.435429 
L 195.578182 264.338286 
L 188.814545 269.366857 
L 182.050909 278.418286 
L 175.287273 271.378286 
L 168.523636 280.429714 
L 161.76 287.469714 
L 154.996364 259.309714 
L 148.232727 259.309714 
L 141.469091 281.435429 
L 134.705455 284.452571 
L 127.941818 270.372571 
L 121.178182 302.555429 
L 114.414545 248.246857 
L 107.650909 277.412571 
L 100.887273 248.246857 
L 94.123636 253.275429 
L 87.36 271.378286 
L 80.596364 286.464 
L 73.832727 258.304 
z
" style="fill:#1f77b4;"/>
   </g>
   <g id="PolyCollection_2">
    <path clip-path="url(#pee5fcc8502)" d="M 73.832727 186.898286 
L 73.832727 258.304 
L 80.596364 286.464 
L 87.36 271.378286 
L 94.123636 253.275429 
L 100.887273 248.246857 
L 107.650909 277.412571 
L 114.414545 248.246857 
L 121.178182 302.555429 
L 127.941818 270.372571 
L 134.705455 284.452571 
L 141.469091 281.435429 
L 148.232727 259.309714 
L 154.996364 259.309714 
L 161.76 287.469714 
L 168.523636 280.429714 
L 175.287273 271.378286 
L 182.050909 278.418286 
L 188.814545 269.366857 
L 195.578182 264.338286 
L 202.341818 281.435429 
L 209.105455 276.406857 
L 215.869091 277.412571 
L 222.632727 274.395429 
L 229.396364 261.321143 
L 236.16 262.326857 
L 242.923636 262.326857 
L 249.687273 274.395429 
L 256.450909 269.366857 
L 263.214545 261.321143 
L 269.978182 279.424 
L 276.741818 282.441143 
L 283.505455 295.515429 
L 290.269091 278.418286 
L 297.032727 265.344 
L 303.796364 255.286857 
L 310.56 258.304 
L 317.323636 264.338286 
L 324.087273 276.406857 
L 330.850909 275.401143 
L 337.614545 307.584 
L 344.378182 307.584 
L 351.141818 307.584 
L 357.905455 307.584 
L 364.669091 307.584 
L 371.432727 307.584 
L 378.196364 307.584 
L 384.96 307.584 
L 391.723636 307.584 
L 398.487273 307.584 
L 398.487273 234.166857 
L 398.487273 234.166857 
L 391.723636 214.052571 
L 384.96 215.058286 
L 378.196364 231.149714 
L 371.432727 268.361143 
L 364.669091 266.349714 
L 357.905455 275.401143 
L 351.141818 249.252571 
L 344.378182 260.315429 
L 337.614545 257.298286 
L 330.850909 243.218286 
L 324.087273 237.184 
L 317.323636 240.201143 
L 310.56 240.201143 
L 303.796364 232.155429 
L 297.032727 246.235429 
L 290.269091 246.235429 
L 283.505455 275.401143 
L 276.741818 256.292571 
L 269.978182 244.224 
L 263.214545 224.109714 
L 256.450909 234.166857 
L 249.687273 262.326857 
L 242.923636 247.241143 
L 236.16 254.281143 
L 229.396364 230.144 
L 222.632727 254.281143 
L 215.869091 258.304 
L 209.105455 267.355429 
L 202.341818 268.361143 
L 195.578182 258.304 
L 188.814545 215.058286 
L 182.050909 252.269714 
L 175.287273 248.246857 
L 168.523636 248.246857 
L 161.76 273.389714 
L 154.996364 248.246857 
L 148.232727 247.241143 
L 141.469091 272.384 
L 134.705455 274.395429 
L 127.941818 259.309714 
L 121.178182 292.498286 
L 114.414545 239.195429 
L 107.650909 267.355429 
L 100.887273 236.178286 
L 94.123636 243.218286 
L 87.36 259.309714 
L 80.596364 280.429714 
L 73.832727 186.898286 
z
" style="fill:#ff7f0e;"/>
   </g>
   <g id="PolyCollection_3">
    <path clip-path="url(#pee5fcc8502)" d="M 73.832727 133.595429 
L 73.832727 186.898286 
L 80.596364 280.429714 
L 87.36 259.309714 
L 94.123636 243.218286 
L 100.887273 236.178286 
L 107.650909 267.355429 
L 114.414545 239.195429 
L 121.178182 292.498286 
L 127.941818 259.309714 
L 134.705455 274.395429 
L 141.469091 272.384 
L 148.232727 247.241143 
L 154.996364 248.246857 
L 161.76 273.389714 
L 168.523636 248.246857 
L 175.287273 248.246857 
L 182.050909 252.269714 
L 188.814545 215.058286 
L 195.578182 258.304 
L 202.341818 268.361143 
L 209.105455 267.355429 
L 215.869091 258.304 
L 222.632727 254.281143 
L 229.396364 230.144 
L 236.16 254.281143 
L 242.923636 247.241143 
L 249.687273 262.326857 
L 256.450909 234.166857 
L 263.214545 224.109714 
L 269.978182 244.224 
L 276.741818 256.292571 
L 283.505455 275.401143 
L 290.269091 246.235429 
L 297.032727 246.235429 
L 303.796364 232.155429 
L 310.56 240.201143 
L 317.323636 240.201143 
L 324.087273 237.184 
L 330.850909 243.218286 
L 337.614545 257.298286 
L 344.378182 260.315429 
L 351.141818 249.252571 
L 357.905455 275.401143 
L 364.669091 266.349714 
L 371.432727 268.361143 
L 378.196364 231.149714 
L 384.96 215.058286 
L 391.723636 214.052571 
L 398.487273 234.166857 
L 398.487273 234.166857 
L 398.487273 234.166857 
L 391.723636 214.052571 
L 384.96 215.058286 
L 378.196364 231.149714 
L 371.432727 268.361143 
L 364.669091 266.349714 
L 357.905455 275.401143 
L 351.141818 249.252571 
L 344.378182 260.315429 
L 337.614545 257.298286 
L 330.850909 243.218286 
L 324.087273 237.184 
L 317.323636 240.201143 
L 310.56 240.201143 
L 303.796364 232.155429 
L 297.032727 212.041143 
L 290.269091 215.058286 
L 283.505455 256.292571 
L 276.741818 226.121143 
L 269.978182 225.115429 
L 263.214545 194.944 
L 256.450909 210.029714 
L 249.687273 221.092571 
L 242.923636 217.069714 
L 236.16 220.086857 
L 229.396364 217.069714 
L 222.632727 216.064 
L 215.869091 220.086857 
L 209.105455 252.269714 
L 202.341818 234.166857 
L 195.578182 202.989714 
L 188.814545 156.726857 
L 182.050909 230.144 
L 175.287273 196.955429 
L 168.523636 176.841143 
L 161.76 246.235429 
L 154.996364 206.006857 
L 148.232727 187.904 
L 141.469091 216.064 
L 134.705455 208.018286 
L 127.941818 199.972571 
L 121.178182 221.092571 
L 114.414545 184.886857 
L 107.650909 226.121143 
L 100.887273 218.075429 
L 94.123636 235.172571 
L 87.36 252.269714 
L 80.596364 279.424 
L 73.832727 133.595429 
z
" style="fill:#2ca02c;"/>
   </g>
   <g id="PolyCollection_4">
    <path clip-path="url(#pee5fcc8502)" d="M 73.832727 129.572571 
L 73.832727 133.595429 
L 80.596364 279.424 
L 87.36 252.269714 
L 94.123636 235.172571 
L 100.887273 218.075429 
L 107.650909 226.121143 
L 114.414545 184.886857 
L 121.178182 221.092571 
L 127.941818 199.972571 
L 134.705455 208.018286 
L 141.469091 216.064 
L 148.232727 187.904 
L 154.996364 206.006857 
L 161.76 246.235429 
L 168.523636 176.841143 
L 175.287273 196.955429 
L 182.050909 230.144 
L 188.814545 156.726857 
L 195.578182 202.989714 
L 202.341818 234.166857 
L 209.105455 252.269714 
L 215.869091 220.086857 
L 222.632727 216.064 
L 229.396364 217.069714 
L 236.16 220.086857 
L 242.923636 217.069714 
L 249.687273 221.092571 
L 256.450909 210.029714 
L 263.214545 194.944 
L 269.978182 225.115429 
L 276.741818 226.121143 
L 283.505455 256.292571 
L 290.269091 215.058286 
L 297.032727 212.041143 
L 303.796364 232.155429 
L 310.56 240.201143 
L 317.323636 240.201143 
L 324.087273 237.184 
L 330.850909 243.218286 
L 337.614545 257.298286 
L 344.378182 260.315429 
L 351.141818 249.252571 
L 357.905455 275.401143 
L 364.669091 266.349714 
L 371.432727 268.361143 
L 378.196364 231.149714 
L 384.96 215.058286 
L 391.723636 214.052571 
L 398.487273 234.166857 
L 398.487273 205.001143 
L 398.487273 205.001143 
L 391.723636 191.926857 
L 384.96 196.955429 
L 378.196364 189.915429 
L 371.432727 244.224 
L 364.669091 239.195429 
L 357.905455 248.246857 
L 351.141818 236.178286 
L 344.378182 241.206857 
L 337.614545 243.218286 
L 330.850909 228.132571 
L 324.087273 226.121143 
L 317.323636 227.126857 
L 310.56 223.104 
L 303.796364 216.064 
L 297.032727 195.949714 
L 290.269091 202.989714 
L 283.505455 239.195429 
L 276.741818 212.041143 
L 269.978182 209.024 
L 263.214545 180.864 
L 256.450909 195.949714 
L 249.687273 205.001143 
L 242.923636 201.984 
L 236.16 209.024 
L 229.396364 205.001143 
L 222.632727 202.989714 
L 215.869091 212.041143 
L 209.105455 242.212571 
L 202.341818 220.086857 
L 195.578182 190.921143 
L 188.814545 146.669714 
L 182.050909 217.069714 
L 175.287273 186.898286 
L 168.523636 164.772571 
L 161.76 237.184 
L 154.996364 199.972571 
L 148.232727 183.881143 
L 141.469091 212.041143 
L 134.705455 205.001143 
L 127.941818 194.944 
L 121.178182 217.069714 
L 114.414545 179.858286 
L 107.650909 219.081143 
L 100.887273 212.041143 
L 94.123636 228.132571 
L 87.36 246.235429 
L 80.596364 277.412571 
L 73.832727 129.572571 
z
" style="fill:#d62728;"/>
   </g>
   <g id="PolyCollection_5">
    <path clip-path="url(#pee5fcc8502)" d="M 73.832727 112.475429 
L 73.832727 129.572571 
L 80.596364 277.412571 
L 87.36 246.235429 
L 94.123636 228.132571 
L 100.887273 212.041143 
L 107.650909 219.081143 
L 114.414545 179.858286 
L 121.178182 217.069714 
L 127.941818 194.944 
L 134.705455 205.001143 
L 141.469091 212.041143 
L 148.232727 183.881143 
L 154.996364 199.972571 
L 161.76 237.184 
L 168.523636 164.772571 
L 175.287273 186.898286 
L 182.050909 217.069714 
L 188.814545 146.669714 
L 195.578182 190.921143 
L 202.341818 220.086857 
L 209.105455 242.212571 
L 215.869091 212.041143 
L 222.632727 202.989714 
L 229.396364 205.001143 
L 236.16 209.024 
L 242.923636 201.984 
L 249.687273 205.001143 
L 256.450909 195.949714 
L 263.214545 180.864 
L 269.978182 209.024 
L 276.741818 212.041143 
L 283.505455 239.195429 
L 290.269091 202.989714 
L 297.032727 195.949714 
L 303.796364 216.064 
L 310.56 223.104 
L 317.323636 227.126857 
L 324.087273 226.121143 
L 330.850909 228.132571 
L 337.614545 243.218286 
L 344.378182 241.206857 
L 351.141818 236.178286 
L 357.905455 248.246857 
L 364.669091 239.195429 
L 371.432727 244.224 
L 378.196364 189.915429 
L 384.96 196.955429 
L 391.723636 191.926857 
L 398.487273 205.001143 
L 398.487273 167.789714 
L 398.487273 167.789714 
L 391.723636 161.755429 
L 384.96 167.789714 
L 378.196364 177.846857 
L 371.432727 206.006857 
L 364.669091 196.955429 
L 357.905455 214.052571 
L 351.141818 192.932571 
L 344.378182 213.046857 
L 337.614545 207.012571 
L 330.850909 213.046857 
L 324.087273 195.949714 
L 317.323636 198.966857 
L 310.56 168.795429 
L 303.796364 148.681143 
L 297.032727 173.824 
L 290.269091 172.818286 
L 283.505455 173.824 
L 276.741818 166.784 
L 269.978182 171.812571 
L 263.214545 147.675429 
L 256.450909 150.692571 
L 249.687273 173.824 
L 242.923636 167.789714 
L 236.16 172.818286 
L 229.396364 164.772571 
L 222.632727 172.818286 
L 215.869091 190.921143 
L 209.105455 215.058286 
L 202.341818 183.881143 
L 195.578182 168.795429 
L 188.814545 121.526857 
L 182.050909 186.898286 
L 175.287273 159.744 
L 168.523636 140.635429 
L 161.76 182.875429 
L 154.996364 156.726857 
L 148.232727 145.664 
L 141.469091 160.749714 
L 134.705455 183.881143 
L 127.941818 142.646857 
L 121.178182 161.755429 
L 114.414545 153.709714 
L 107.650909 164.772571 
L 100.887273 157.732571 
L 94.123636 164.772571 
L 87.36 177.846857 
L 80.596364 269.366857 
L 73.832727 112.475429 
z
" style="fill:#9467bd;"/>
   </g>
   <g id="PolyCollection_6">
    <path clip-path="url(#pee5fcc8502)" d="M 73.832727 72.246857 
L 73.832727 112.475429 
L 80.596364 269.366857 
L 87.36 177.846857 
L 94.123636 164.772571 
L 100.887273 157.732571 
L 107.650909 164.772571 
L 114.414545 153.709714 
L 121.178182 161.755429 
L 127.941818 142.646857 
L 134.705455 183.881143 
L 141.469091 160.749714 
L 148.232727 145.664 
L 154.996364 156.726857 
L 161.76 182.875429 
L 168.523636 140.635429 
L 175.287273 159.744 
L 182.050909 186.898286 
L 188.814545 121.526857 
L 195.578182 168.795429 
L 202.341818 183.881143 
L 209.105455 215.058286 
L 215.869091 190.921143 
L 222.632727 172.818286 
L 229.396364 164.772571 
L 236.16 172.818286 
L 242.923636 167.789714 
L 249.687273 173.824 
L 256.450909 150.692571 
L 263.214545 147.675429 
L 269.978182 171.812571 
L 276.741818 166.784 
L 283.505455 173.824 
L 290.269091 172.818286 
L 297.032727 173.824 
L 303.796364 148.681143 
L 310.56 168.795429 
L 317.323636 198.966857 
L 324.087273 195.949714 
L 330.850909 213.046857 
L 337.614545 207.012571 
L 344.378182 213.046857 
L 351.141818 192.932571 
L 357.905455 214.052571 
L 364.669091 196.955429 
L 371.432727 206.006857 
L 378.196364 177.846857 
L 384.96 167.789714 
L 391.723636 161.755429 
L 398.487273 167.789714 
L 398.487273 144.658286 
L 398.487273 144.658286 
L 391.723636 144.658286 
L 384.96 134.601143 
L 378.196364 135.606857 
L 371.432727 148.681143 
L 364.669091 148.681143 
L 357.905455 133.595429 
L 351.141818 129.572571 
L 344.378182 149.686857 
L 337.614545 166.784 
L 330.850909 190.921143 
L 324.087273 172.818286 
L 317.323636 154.715429 
L 310.56 140.635429 
L 303.796364 123.538286 
L 297.032727 148.681143 
L 290.269091 149.686857 
L 283.505455 134.601143 
L 276.741818 128.566857 
L 269.978182 136.612571 
L 263.214545 118.509714 
L 256.450909 113.481143 
L 249.687273 125.549714 
L 242.923636 108.452571 
L 236.16 152.704 
L 229.396364 138.624 
L 222.632727 122.532571 
L 215.869091 111.469714 
L 209.105455 146.669714 
L 202.341818 111.469714 
L 195.578182 84.315429 
L 188.814545 112.475429 
L 182.050909 134.601143 
L 175.287273 146.669714 
L 168.523636 130.578286 
L 161.76 169.801143 
L 154.996364 142.646857 
L 148.232727 134.601143 
L 141.469091 135.606857 
L 134.705455 157.732571 
L 127.941818 119.515429 
L 121.178182 147.675429 
L 114.414545 140.635429 
L 107.650909 157.732571 
L 100.887273 142.646857 
L 94.123636 140.635429 
L 87.36 163.766857 
L 80.596364 150.692571 
L 73.832727 72.246857 
z
" style="fill:#8c564b;"/>
   </g>
   <g id="PolyCollection_7">
    <path clip-path="url(#pee5fcc8502)" d="M 73.832727 59.172571 
L 73.832727 72.246857 
L 80.596364 150.692571 
L 87.36 163.766857 
L 94.123636 140.635429 
L 100.887273 142.646857 
L 107.650909 157.732571 
L 114.414545 140.635429 
L 121.178182 147.675429 
L 127.941818 119.515429 
L 134.705455 157.732571 
L 141.469091 135.606857 
L 148.232727 134.601143 
L 154.996364 142.646857 
L 161.76 169.801143 
L 168.523636 130.578286 
L 175.287273 146.669714 
L 182.050909 134.601143 
L 188.814545 112.475429 
L 195.578182 84.315429 
L 202.341818 111.469714 
L 209.105455 146.669714 
L 215.869091 111.469714 
L 222.632727 122.532571 
L 229.396364 138.624 
L 236.16 152.704 
L 242.923636 108.452571 
L 249.687273 125.549714 
L 256.450909 113.481143 
L 263.214545 118.509714 
L 269.978182 136.612571 
L 276.741818 128.566857 
L 283.505455 134.601143 
L 290.269091 149.686857 
L 297.032727 148.681143 
L 303.796364 123.538286 
L 310.56 140.635429 
L 317.323636 154.715429 
L 324.087273 172.818286 
L 330.850909 190.921143 
L 337.614545 166.784 
L 344.378182 149.686857 
L 351.141818 129.572571 
L 357.905455 133.595429 
L 364.669091 148.681143 
L 371.432727 148.681143 
L 378.196364 135.606857 
L 384.96 134.601143 
L 391.723636 144.658286 
L 398.487273 144.658286 
L 398.487273 144.658286 
L 398.487273 144.658286 
L 391.723636 144.658286 
L 384.96 134.601143 
L 378.196364 135.606857 
L 371.432727 148.681143 
L 364.669091 148.681143 
L 357.905455 133.595429 
L 351.141818 129.572571 
L 344.378182 113.481143 
L 337.614545 106.441143 
L 330.850909 156.726857 
L 324.087273 138.624 
L 317.323636 133.595429 
L 310.56 112.475429 
L 303.796364 111.469714 
L 297.032727 135.606857 
L 290.269091 125.549714 
L 283.505455 107.446857 
L 276.741818 99.401143 
L 269.978182 116.498286 
L 263.214545 98.395429 
L 256.450909 105.435429 
L 249.687273 105.435429 
L 242.923636 100.406857 
L 236.16 113.481143 
L 229.396364 96.384 
L 222.632727 107.446857 
L 215.869091 94.372571 
L 209.105455 92.361143 
L 202.341818 97.389714 
L 195.578182 82.304 
L 188.814545 75.264 
L 182.050909 85.321143 
L 175.287273 118.509714 
L 168.523636 104.429714 
L 161.76 149.686857 
L 154.996364 110.464 
L 148.232727 108.452571 
L 141.469091 120.521143 
L 134.705455 135.606857 
L 127.941818 93.366857 
L 121.178182 131.584 
L 114.414545 101.412571 
L 107.650909 123.538286 
L 100.887273 116.498286 
L 94.123636 107.446857 
L 87.36 85.321143 
L 80.596364 89.344 
L 73.832727 59.172571 
z
" style="fill:#e377c2;"/>
   </g>
   <g id="PolyCollection_8">
    <path clip-path="url(#pee5fcc8502)" d="M 73.832727 58.166857 
L 73.832727 59.172571 
L 80.596364 89.344 
L 87.36 85.321143 
L 94.123636 107.446857 
L 100.887273 116.498286 
L 107.650909 123.538286 
L 114.414545 101.412571 
L 121.178182 131.584 
L 127.941818 93.366857 
L 134.705455 135.606857 
L 141.469091 120.521143 
L 148.232727 108.452571 
L 154.996364 110.464 
L 161.76 149.686857 
L 168.523636 104.429714 
L 175.287273 118.509714 
L 182.050909 85.321143 
L 188.814545 75.264 
L 195.578182 82.304 
L 202.341818 97.389714 
L 209.105455 92.361143 
L 215.869091 94.372571 
L 222.632727 107.446857 
L 229.396364 96.384 
L 236.16 113.481143 
L 242.923636 100.406857 
L 249.687273 105.435429 
L 256.450909 105.435429 
L 263.214545 98.395429 
L 269.978182 116.498286 
L 276.741818 99.401143 
L 283.505455 107.446857 
L 290.269091 125.549714 
L 297.032727 135.606857 
L 303.796364 111.469714 
L 310.56 112.475429 
L 317.323636 133.595429 
L 324.087273 138.624 
L 330.850909 156.726857 
L 337.614545 106.441143 
L 344.378182 113.481143 
L 351.141818 129.572571 
L 357.905455 133.595429 
L 364.669091 148.681143 
L 371.432727 148.681143 
L 378.196364 135.606857 
L 384.96 134.601143 
L 391.723636 144.658286 
L 398.487273 144.658286 
L 398.487273 144.658286 
L 398.487273 144.658286 
L 391.723636 144.658286 
L 384.96 134.601143 
L 378.196364 135.606857 
L 371.432727 148.681143 
L 364.669091 148.681143 
L 357.905455 133.595429 
L 351.141818 129.572571 
L 344.378182 113.481143 
L 337.614545 106.441143 
L 330.850909 105.435429 
L 324.087273 116.498286 
L 317.323636 97.389714 
L 310.56 74.258286 
L 303.796364 72.246857 
L 297.032727 109.458286 
L 290.269091 103.424 
L 283.505455 90.349714 
L 276.741818 72.246857 
L 269.978182 88.338286 
L 263.214545 95.378286 
L 256.450909 85.321143 
L 249.687273 94.372571 
L 242.923636 91.355429 
L 236.16 91.355429 
L 229.396364 76.269714 
L 222.632727 85.321143 
L 215.869091 76.269714 
L 209.105455 72.246857 
L 202.341818 73.252571 
L 195.578182 73.252571 
L 188.814545 63.195429 
L 182.050909 74.258286 
L 175.287273 73.252571 
L 168.523636 92.361143 
L 161.76 114.486857 
L 154.996364 91.355429 
L 148.232727 82.304 
L 141.469091 88.338286 
L 134.705455 85.321143 
L 127.941818 80.292571 
L 121.178182 87.332571 
L 114.414545 83.309714 
L 107.650909 83.309714 
L 100.887273 80.292571 
L 94.123636 74.258286 
L 87.36 76.269714 
L 80.596364 85.321143 
L 73.832727 58.166857 
z
" style="fill:#7f7f7f;"/>
   </g>
   <g id="PolyCollection_9">
    <path clip-path="url(#pee5fcc8502)" d="M 73.832727 56.155429 
L 73.832727 58.166857 
L 80.596364 85.321143 
L 87.36 76.269714 
L 94.123636 74.258286 
L 100.887273 80.292571 
L 107.650909 83.309714 
L 114.414545 83.309714 
L 121.178182 87.332571 
L 127.941818 80.292571 
L 134.705455 85.321143 
L 141.469091 88.338286 
L 148.232727 82.304 
L 154.996364 91.355429 
L 161.76 114.486857 
L 168.523636 92.361143 
L 175.287273 73.252571 
L 182.050909 74.258286 
L 188.814545 63.195429 
L 195.578182 73.252571 
L 202.341818 73.252571 
L 209.105455 72.246857 
L 215.869091 76.269714 
L 222.632727 85.321143 
L 229.396364 76.269714 
L 236.16 91.355429 
L 242.923636 91.355429 
L 249.687273 94.372571 
L 256.450909 85.321143 
L 263.214545 95.378286 
L 269.978182 88.338286 
L 276.741818 72.246857 
L 283.505455 90.349714 
L 290.269091 103.424 
L 297.032727 109.458286 
L 303.796364 72.246857 
L 310.56 74.258286 
L 317.323636 97.389714 
L 324.087273 116.498286 
L 330.850909 105.435429 
L 337.614545 106.441143 
L 344.378182 113.481143 
L 351.141818 129.572571 
L 357.905455 133.595429 
L 364.669091 148.681143 
L 371.432727 148.681143 
L 378.196364 135.606857 
L 384.96 134.601143 
L 391.723636 144.658286 
L 398.487273 144.658286 
L 398.487273 115.492571 
L 398.487273 115.492571 
L 391.723636 91.355429 
L 384.96 75.264 
L 378.196364 86.326857 
L 371.432727 83.309714 
L 364.669091 98.395429 
L 357.905455 75.264 
L 351.141818 63.195429 
L 344.378182 57.161143 
L 337.614545 57.161143 
L 330.850909 55.149714 
L 324.087273 55.149714 
L 317.323636 55.149714 
L 310.56 57.161143 
L 303.796364 56.155429 
L 297.032727 54.144 
L 290.269091 54.144 
L 283.505455 55.149714 
L 276.741818 55.149714 
L 269.978182 57.161143 
L 263.214545 56.155429 
L 256.450909 56.155429 
L 249.687273 56.155429 
L 242.923636 57.161143 
L 236.16 56.155429 
L 229.396364 56.155429 
L 222.632727 57.161143 
L 215.869091 56.155429 
L 209.105455 56.155429 
L 202.341818 56.155429 
L 195.578182 56.155429 
L 188.814545 56.155429 
L 182.050909 55.149714 
L 175.287273 55.149714 
L 168.523636 55.149714 
L 161.76 55.149714 
L 154.996364 55.149714 
L 148.232727 55.149714 
L 141.469091 55.149714 
L 134.705455 56.155429 
L 127.941818 56.155429 
L 121.178182 56.155429 
L 114.414545 55.149714 
L 107.650909 58.166857 
L 100.887273 56.155429 
L 94.123636 57.161143 
L 87.36 56.155429 
L 80.596364 57.161143 
L 73.832727 56.155429 
z
" style="fill:#bcbd22;"/>
   </g>
   <g id="PolyCollection_10">
    <path clip-path="url(#pee5fcc8502)" d="M 73.832727 56.155429 
L 73.832727 56.155429 
L 80.596364 57.161143 
L 87.36 56.155429 
L 94.123636 57.161143 
L 100.887273 56.155429 
L 107.650909 58.166857 
L 114.414545 55.149714 
L 121.178182 56.155429 
L 127.941818 56.155429 
L 134.705455 56.155429 
L 141.469091 55.149714 
L 148.232727 55.149714 
L 154.996364 55.149714 
L 161.76 55.149714 
L 168.523636 55.149714 
L 175.287273 55.149714 
L 182.050909 55.149714 
L 188.814545 56.155429 
L 195.578182 56.155429 
L 202.341818 56.155429 
L 209.105455 56.155429 
L 215.869091 56.155429 
L 222.632727 57.161143 
L 229.396364 56.155429 
L 236.16 56.155429 
L 242.923636 57.161143 
L 249.687273 56.155429 
L 256.450909 56.155429 
L 263.214545 56.155429 
L 269.978182 57.161143 
L 276.741818 55.149714 
L 283.505455 55.149714 
L 290.269091 54.144 
L 297.032727 54.144 
L 303.796364 56.155429 
L 310.56 57.161143 
L 317.323636 55.149714 
L 324.087273 55.149714 
L 330.850909 55.149714 
L 337.614545 57.161143 
L 344.378182 57.161143 
L 351.141818 63.195429 
L 357.905455 75.264 
L 364.669091 98.395429 
L 371.432727 83.309714 
L 378.196364 86.326857 
L 384.96 75.264 
L 391.723636 91.355429 
L 398.487273 115.492571 
L 398.487273 59.172571 
L 398.487273 59.172571 
L 391.723636 57.161143 
L 384.96 56.155429 
L 378.196364 56.155429 
L 371.432727 56.155429 
L 364.669091 56.155429 
L 357.905455 55.149714 
L 351.141818 57.161143 
L 344.378182 56.155429 
L 337.614545 57.161143 
L 330.850909 55.149714 
L 324.087273 55.149714 
L 317.323636 55.149714 
L 310.56 57.161143 
L 303.796364 56.155429 
L 297.032727 54.144 
L 290.269091 54.144 
L 283.505455 55.149714 
L 276.741818 55.149714 
L 269.978182 57.161143 
L 263.214545 56.155429 
L 256.450909 56.155429 
L 249.687273 56.155429 
L 242.923636 57.161143 
L 236.16 56.155429 
L 229.396364 56.155429 
L 222.632727 57.161143 
L 215.869091 56.155429 
L 209.105455 56.155429 
L 202.341818 56.155429 
L 195.578182 56.155429 
L 188.814545 56.155429 
L 182.050909 55.149714 
L 175.287273 55.149714 
L 168.523636 55.149714 
L 161.76 55.149714 
L 154.996364 55.149714 
L 148.232727 55.149714 
L 141.469091 55.149714 
L 134.705455 56.155429 
L 127.941818 56.155429 
L 121.178182 56.155429 
L 114.414545 55.149714 
L 107.650909 58.166857 
L 100.887273 56.155429 
L 94.123636 57.161143 
L 87.36 56.155429 
L 80.596364 57.161143 
L 73.832727 56.155429 
z
" style="fill:#17becf;"/>
   </g>
   <g id="PolyCollection_11">
    <path clip-path="url(#pee5fcc8502)" d="M 73.832727 56.155429 
L 73.832727 56.155429 
L 80.596364 57.161143 
L 87.36 56.155429 
L 94.123636 57.161143 
L 100.887273 56.155429 
L 107.650909 58.166857 
L 114.414545 55.149714 
L 121.178182 56.155429 
L 127.941818 56.155429 
L 134.705455 56.155429 
L 141.469091 55.149714 
L 148.232727 55.149714 
L 154.996364 55.149714 
L 161.76 55.149714 
L 168.523636 55.149714 
L 175.287273 55.149714 
L 182.050909 55.149714 
L 188.814545 56.155429 
L 195.578182 56.155429 
L 202.341818 56.155429 
L 209.105455 56.155429 
L 215.869091 56.155429 
L 222.632727 57.161143 
L 229.396364 56.155429 
L 236.16 56.155429 
L 242.923636 57.161143 
L 249.687273 56.155429 
L 256.450909 56.155429 
L 263.214545 56.155429 
L 269.978182 57.161143 
L 276.741818 55.149714 
L 283.505455 55.149714 
L 290.269091 54.144 
L 297.032727 54.144 
L 303.796364 56.155429 
L 310.56 57.161143 
L 317.323636 55.149714 
L 324.087273 55.149714 
L 330.850909 55.149714 
L 337.614545 57.161143 
L 344.378182 56.155429 
L 351.141818 57.161143 
L 357.905455 55.149714 
L 364.669091 56.155429 
L 371.432727 56.155429 
L 378.196364 56.155429 
L 384.96 56.155429 
L 391.723636 57.161143 
L 398.487273 59.172571 
L 398.487273 56.155429 
L 398.487273 56.155429 
L 391.723636 57.161143 
L 384.96 56.155429 
L 378.196364 56.155429 
L 371.432727 56.155429 
L 364.669091 56.155429 
L 357.905455 55.149714 
L 351.141818 57.161143 
L 344.378182 56.155429 
L 337.614545 57.161143 
L 330.850909 55.149714 
L 324.087273 55.149714 
L 317.323636 55.149714 
L 310.56 57.161143 
L 303.796364 56.155429 
L 297.032727 54.144 
L 290.269091 54.144 
L 283.505455 55.149714 
L 276.741818 55.149714 
L 269.978182 57.161143 
L 263.214545 56.155429 
L 256.450909 56.155429 
L 249.687273 56.155429 
L 242.923636 57.161143 
L 236.16 56.155429 
L 229.396364 56.155429 
L 222.632727 57.161143 
L 215.869091 56.155429 
L 209.105455 56.155429 
L 202.341818 56.155429 
L 195.578182 56.155429 
L 188.814545 56.155429 
L 182.050909 55.149714 
L 175.287273 55.149714 
L 168.523636 55.149714 
L 161.76 55.149714 
L 154.996364 55.149714 
L 148.232727 55.149714 
L 141.469091 55.149714 
L 134.705455 56.155429 
L 127.941818 56.155429 
L 121.178182 56.155429 
L 114.414545 55.149714 
L 107.650909 58.166857 
L 100.887273 56.155429 
L 94.123636 57.161143 
L 87.36 56.155429 
L 80.596364 57.161143 
L 73.832727 56.155429 
z
" style="fill:#1f77b4;"/>
   </g>
   <g id="matplotlib.axis_1">
    <g id="xtick_1">
     <g id="line2d_1">
      <defs>
       <path d="M 0 0 
L 0 3.5 
" id="m526d6cca49" style="stroke:#000000;stroke-width:0.8;"/>
      </defs>
      <g>
       <use style="stroke:#000000;stroke-width:0.8;" x="73.832727" xlink:href="#m526d6cca49" y="307.584"/>
      </g>
     </g>
     <g id="text_1">
      <!-- 0 -->
      <defs>
       <path d="M 31.78125 66.40625 
Q 24.171875 66.40625 20.328125 58.90625 
Q 16.5 51.421875 16.5 36.375 
Q 16.5 21.390625 20.328125 13.890625 
Q 24.171875 6.390625 31.78125 6.390625 
Q 39.453125 6.390625 43.28125 13.890625 
Q 47.125 21.390625 47.125 36.375 
Q 47.125 51.421875 43.28125 58.90625 
Q 39.453125 66.40625 31.78125 66.40625 
z
M 31.78125 74.21875 
Q 44.046875 74.21875 50.515625 64.515625 
Q 56.984375 54.828125 56.984375 36.375 
Q 56.984375 17.96875 50.515625 8.265625 
Q 44.046875 -1.421875 31.78125 -1.421875 
Q 19.53125 -1.421875 13.0625 8.265625 
Q 6.59375 17.96875 6.59375 36.375 
Q 6.59375 54.828125 13.0625 64.515625 
Q 19.53125 74.21875 31.78125 74.21875 
z
" id="DejaVuSans-48"/>
      </defs>
      <g transform="translate(70.651477 322.182437)scale(0.1 -0.1)">
       <use xlink:href="#DejaVuSans-48"/>
      </g>
     </g>
    </g>
    <g id="xtick_2">
     <g id="line2d_2">
      <g>
       <use style="stroke:#000000;stroke-width:0.8;" x="141.469091" xlink:href="#m526d6cca49" y="307.584"/>
      </g>
     </g>
     <g id="text_2">
      <!-- 10 -->
      <defs>
       <path d="M 12.40625 8.296875 
L 28.515625 8.296875 
L 28.515625 63.921875 
L 10.984375 60.40625 
L 10.984375 69.390625 
L 28.421875 72.90625 
L 38.28125 72.90625 
L 38.28125 8.296875 
L 54.390625 8.296875 
L 54.390625 0 
L 12.40625 0 
z
" id="DejaVuSans-49"/>
      </defs>
      <g transform="translate(135.106591 322.182437)scale(0.1 -0.1)">
       <use xlink:href="#DejaVuSans-49"/>
       <use x="63.623047" xlink:href="#DejaVuSans-48"/>
      </g>
     </g>
    </g>
    <g id="xtick_3">
     <g id="line2d_3">
      <g>
       <use style="stroke:#000000;stroke-width:0.8;" x="209.105455" xlink:href="#m526d6cca49" y="307.584"/>
      </g>
     </g>
     <g id="text_3">
      <!-- 20 -->
      <defs>
       <path d="M 19.1875 8.296875 
L 53.609375 8.296875 
L 53.609375 0 
L 7.328125 0 
L 7.328125 8.296875 
Q 12.9375 14.109375 22.625 23.890625 
Q 32.328125 33.6875 34.8125 36.53125 
Q 39.546875 41.84375 41.421875 45.53125 
Q 43.3125 49.21875 43.3125 52.78125 
Q 43.3125 58.59375 39.234375 62.25 
Q 35.15625 65.921875 28.609375 65.921875 
Q 23.96875 65.921875 18.8125 64.3125 
Q 13.671875 62.703125 7.8125 59.421875 
L 7.8125 69.390625 
Q 13.765625 71.78125 18.9375 73 
Q 24.125 74.21875 28.421875 74.21875 
Q 39.75 74.21875 46.484375 68.546875 
Q 53.21875 62.890625 53.21875 53.421875 
Q 53.21875 48.921875 51.53125 44.890625 
Q 49.859375 40.875 45.40625 35.40625 
Q 44.1875 33.984375 37.640625 27.21875 
Q 31.109375 20.453125 19.1875 8.296875 
z
" id="DejaVuSans-50"/>
      </defs>
      <g transform="translate(202.742955 322.182437)scale(0.1 -0.1)">
       <use xlink:href="#DejaVuSans-50"/>
       <use x="63.623047" xlink:href="#DejaVuSans-48"/>
      </g>
     </g>
    </g>
    <g id="xtick_4">
     <g id="line2d_4">
      <g>
       <use style="stroke:#000000;stroke-width:0.8;" x="276.741818" xlink:href="#m526d6cca49" y="307.584"/>
      </g>
     </g>
     <g id="text_4">
      <!-- 30 -->
      <defs>
       <path d="M 40.578125 39.3125 
Q 47.65625 37.796875 51.625 33 
Q 55.609375 28.21875 55.609375 21.1875 
Q 55.609375 10.40625 48.1875 4.484375 
Q 40.765625 -1.421875 27.09375 -1.421875 
Q 22.515625 -1.421875 17.65625 -0.515625 
Q 12.796875 0.390625 7.625 2.203125 
L 7.625 11.71875 
Q 11.71875 9.328125 16.59375 8.109375 
Q 21.484375 6.890625 26.8125 6.890625 
Q 36.078125 6.890625 40.9375 10.546875 
Q 45.796875 14.203125 45.796875 21.1875 
Q 45.796875 27.640625 41.28125 31.265625 
Q 36.765625 34.90625 28.71875 34.90625 
L 20.21875 34.90625 
L 20.21875 43.015625 
L 29.109375 43.015625 
Q 36.375 43.015625 40.234375 45.921875 
Q 44.09375 48.828125 44.09375 54.296875 
Q 44.09375 59.90625 40.109375 62.90625 
Q 36.140625 65.921875 28.71875 65.921875 
Q 24.65625 65.921875 20.015625 65.03125 
Q 15.375 64.15625 9.8125 62.3125 
L 9.8125 71.09375 
Q 15.4375 72.65625 20.34375 73.4375 
Q 25.25 74.21875 29.59375 74.21875 
Q 40.828125 74.21875 47.359375 69.109375 
Q 53.90625 64.015625 53.90625 55.328125 
Q 53.90625 49.265625 50.4375 45.09375 
Q 46.96875 40.921875 40.578125 39.3125 
z
" id="DejaVuSans-51"/>
      </defs>
      <g transform="translate(270.379318 322.182437)scale(0.1 -0.1)">
       <use xlink:href="#DejaVuSans-51"/>
       <use x="63.623047" xlink:href="#DejaVuSans-48"/>
      </g>
     </g>
    </g>
    <g id="xtick_5">
     <g id="line2d_5">
      <g>
       <use style="stroke:#000000;stroke-width:0.8;" x="344.378182" xlink:href="#m526d6cca49" y="307.584"/>
      </g>
     </g>
     <g id="text_5">
      <!-- 40 -->
      <defs>
       <path d="M 37.796875 64.3125 
L 12.890625 25.390625 
L 37.796875 25.390625 
z
M 35.203125 72.90625 
L 47.609375 72.90625 
L 47.609375 25.390625 
L 58.015625 25.390625 
L 58.015625 17.1875 
L 47.609375 17.1875 
L 47.609375 0 
L 37.796875 0 
L 37.796875 17.1875 
L 4.890625 17.1875 
L 4.890625 26.703125 
z
" id="DejaVuSans-52"/>
      </defs>
      <g transform="translate(338.015682 322.182437)scale(0.1 -0.1)">
       <use xlink:href="#DejaVuSans-52"/>
       <use x="63.623047" xlink:href="#DejaVuSans-48"/>
      </g>
     </g>
    </g>
    <g id="xtick_6">
     <g id="line2d_6">
      <g>
       <use style="stroke:#000000;stroke-width:0.8;" x="412.014545" xlink:href="#m526d6cca49" y="307.584"/>
      </g>
     </g>
     <g id="text_6">
      <!-- 50 -->
      <defs>
       <path d="M 10.796875 72.90625 
L 49.515625 72.90625 
L 49.515625 64.59375 
L 19.828125 64.59375 
L 19.828125 46.734375 
Q 21.96875 47.46875 24.109375 47.828125 
Q 26.265625 48.1875 28.421875 48.1875 
Q 40.625 48.1875 47.75 41.5 
Q 54.890625 34.8125 54.890625 23.390625 
Q 54.890625 11.625 47.5625 5.09375 
Q 40.234375 -1.421875 26.90625 -1.421875 
Q 22.3125 -1.421875 17.546875 -0.640625 
Q 12.796875 0.140625 7.71875 1.703125 
L 7.71875 11.625 
Q 12.109375 9.234375 16.796875 8.0625 
Q 21.484375 6.890625 26.703125 6.890625 
Q 35.15625 6.890625 40.078125 11.328125 
Q 45.015625 15.765625 45.015625 23.390625 
Q 45.015625 31 40.078125 35.4375 
Q 35.15625 39.890625 26.703125 39.890625 
Q 22.75 39.890625 18.8125 39.015625 
Q 14.890625 38.140625 10.796875 36.28125 
z
" id="DejaVuSans-53"/>
      </defs>
      <g transform="translate(405.652045 322.182437)scale(0.1 -0.1)">
       <use xlink:href="#DejaVuSans-53"/>
       <use x="63.623047" xlink:href="#DejaVuSans-48"/>
      </g>
     </g>
    </g>
    <g id="text_7">
     <!-- Generations -->
     <defs>
      <path d="M 59.515625 10.40625 
L 59.515625 29.984375 
L 43.40625 29.984375 
L 43.40625 38.09375 
L 69.28125 38.09375 
L 69.28125 6.78125 
Q 63.578125 2.734375 56.6875 0.65625 
Q 49.8125 -1.421875 42 -1.421875 
Q 24.90625 -1.421875 15.25 8.5625 
Q 5.609375 18.5625 5.609375 36.375 
Q 5.609375 54.25 15.25 64.234375 
Q 24.90625 74.21875 42 74.21875 
Q 49.125 74.21875 55.546875 72.453125 
Q 61.96875 70.703125 67.390625 67.28125 
L 67.390625 56.78125 
Q 61.921875 61.421875 55.765625 63.765625 
Q 49.609375 66.109375 42.828125 66.109375 
Q 29.4375 66.109375 22.71875 58.640625 
Q 16.015625 51.171875 16.015625 36.375 
Q 16.015625 21.625 22.71875 14.15625 
Q 29.4375 6.6875 42.828125 6.6875 
Q 48.046875 6.6875 52.140625 7.59375 
Q 56.25 8.5 59.515625 10.40625 
z
" id="DejaVuSans-71"/>
      <path d="M 56.203125 29.59375 
L 56.203125 25.203125 
L 14.890625 25.203125 
Q 15.484375 15.921875 20.484375 11.0625 
Q 25.484375 6.203125 34.421875 6.203125 
Q 39.59375 6.203125 44.453125 7.46875 
Q 49.3125 8.734375 54.109375 11.28125 
L 54.109375 2.78125 
Q 49.265625 0.734375 44.1875 -0.34375 
Q 39.109375 -1.421875 33.890625 -1.421875 
Q 20.796875 -1.421875 13.15625 6.1875 
Q 5.515625 13.8125 5.515625 26.8125 
Q 5.515625 40.234375 12.765625 48.109375 
Q 20.015625 56 32.328125 56 
Q 43.359375 56 49.78125 48.890625 
Q 56.203125 41.796875 56.203125 29.59375 
z
M 47.21875 32.234375 
Q 47.125 39.59375 43.09375 43.984375 
Q 39.0625 48.390625 32.421875 48.390625 
Q 24.90625 48.390625 20.390625 44.140625 
Q 15.875 39.890625 15.1875 32.171875 
z
" id="DejaVuSans-101"/>
      <path d="M 54.890625 33.015625 
L 54.890625 0 
L 45.90625 0 
L 45.90625 32.71875 
Q 45.90625 40.484375 42.875 44.328125 
Q 39.84375 48.1875 33.796875 48.1875 
Q 26.515625 48.1875 22.3125 43.546875 
Q 18.109375 38.921875 18.109375 30.90625 
L 18.109375 0 
L 9.078125 0 
L 9.078125 54.6875 
L 18.109375 54.6875 
L 18.109375 46.1875 
Q 21.34375 51.125 25.703125 53.5625 
Q 30.078125 56 35.796875 56 
Q 45.21875 56 50.046875 50.171875 
Q 54.890625 44.34375 54.890625 33.015625 
z
" id="DejaVuSans-110"/>
      <path d="M 41.109375 46.296875 
Q 39.59375 47.171875 37.8125 47.578125 
Q 36.03125 48 33.890625 48 
Q 26.265625 48 22.1875 43.046875 
Q 18.109375 38.09375 18.109375 28.8125 
L 18.109375 0 
L 9.078125 0 
L 9.078125 54.6875 
L 18.109375 54.6875 
L 18.109375 46.1875 
Q 20.953125 51.171875 25.484375 53.578125 
Q 30.03125 56 36.53125 56 
Q 37.453125 56 38.578125 55.875 
Q 39.703125 55.765625 41.0625 55.515625 
z
" id="DejaVuSans-114"/>
      <path d="M 34.28125 27.484375 
Q 23.390625 27.484375 19.1875 25 
Q 14.984375 22.515625 14.984375 16.5 
Q 14.984375 11.71875 18.140625 8.90625 
Q 21.296875 6.109375 26.703125 6.109375 
Q 34.1875 6.109375 38.703125 11.40625 
Q 43.21875 16.703125 43.21875 25.484375 
L 43.21875 27.484375 
z
M 52.203125 31.203125 
L 52.203125 0 
L 43.21875 0 
L 43.21875 8.296875 
Q 40.140625 3.328125 35.546875 0.953125 
Q 30.953125 -1.421875 24.3125 -1.421875 
Q 15.921875 -1.421875 10.953125 3.296875 
Q 6 8.015625 6 15.921875 
Q 6 25.140625 12.171875 29.828125 
Q 18.359375 34.515625 30.609375 34.515625 
L 43.21875 34.515625 
L 43.21875 35.40625 
Q 43.21875 41.609375 39.140625 45 
Q 35.0625 48.390625 27.6875 48.390625 
Q 23 48.390625 18.546875 47.265625 
Q 14.109375 46.140625 10.015625 43.890625 
L 10.015625 52.203125 
Q 14.9375 54.109375 19.578125 55.046875 
Q 24.21875 56 28.609375 56 
Q 40.484375 56 46.34375 49.84375 
Q 52.203125 43.703125 52.203125 31.203125 
z
" id="DejaVuSans-97"/>
      <path d="M 18.3125 70.21875 
L 18.3125 54.6875 
L 36.8125 54.6875 
L 36.8125 47.703125 
L 18.3125 47.703125 
L 18.3125 18.015625 
Q 18.3125 11.328125 20.140625 9.421875 
Q 21.96875 7.515625 27.59375 7.515625 
L 36.8125 7.515625 
L 36.8125 0 
L 27.59375 0 
Q 17.1875 0 13.234375 3.875 
Q 9.28125 7.765625 9.28125 18.015625 
L 9.28125 47.703125 
L 2.6875 47.703125 
L 2.6875 54.6875 
L 9.28125 54.6875 
L 9.28125 70.21875 
z
" id="DejaVuSans-116"/>
      <path d="M 9.421875 54.6875 
L 18.40625 54.6875 
L 18.40625 0 
L 9.421875 0 
z
M 9.421875 75.984375 
L 18.40625 75.984375 
L 18.40625 64.59375 
L 9.421875 64.59375 
z
" id="DejaVuSans-105"/>
      <path d="M 30.609375 48.390625 
Q 23.390625 48.390625 19.1875 42.75 
Q 14.984375 37.109375 14.984375 27.296875 
Q 14.984375 17.484375 19.15625 11.84375 
Q 23.34375 6.203125 30.609375 6.203125 
Q 37.796875 6.203125 41.984375 11.859375 
Q 46.1875 17.53125 46.1875 27.296875 
Q 46.1875 37.015625 41.984375 42.703125 
Q 37.796875 48.390625 30.609375 48.390625 
z
M 30.609375 56 
Q 42.328125 56 49.015625 48.375 
Q 55.71875 40.765625 55.71875 27.296875 
Q 55.71875 13.875 49.015625 6.21875 
Q 42.328125 -1.421875 30.609375 -1.421875 
Q 18.84375 -1.421875 12.171875 6.21875 
Q 5.515625 13.875 5.515625 27.296875 
Q 5.515625 40.765625 12.171875 48.375 
Q 18.84375 56 30.609375 56 
z
" id="DejaVuSans-111"/>
      <path d="M 44.28125 53.078125 
L 44.28125 44.578125 
Q 40.484375 46.53125 36.375 47.5 
Q 32.28125 48.484375 27.875 48.484375 
Q 21.1875 48.484375 17.84375 46.4375 
Q 14.5 44.390625 14.5 40.28125 
Q 14.5 37.15625 16.890625 35.375 
Q 19.28125 33.59375 26.515625 31.984375 
L 29.59375 31.296875 
Q 39.15625 29.25 43.1875 25.515625 
Q 47.21875 21.78125 47.21875 15.09375 
Q 47.21875 7.46875 41.1875 3.015625 
Q 35.15625 -1.421875 24.609375 -1.421875 
Q 20.21875 -1.421875 15.453125 -0.5625 
Q 10.6875 0.296875 5.421875 2 
L 5.421875 11.28125 
Q 10.40625 8.6875 15.234375 7.390625 
Q 20.0625 6.109375 24.8125 6.109375 
Q 31.15625 6.109375 34.5625 8.28125 
Q 37.984375 10.453125 37.984375 14.40625 
Q 37.984375 18.0625 35.515625 20.015625 
Q 33.0625 21.96875 24.703125 23.78125 
L 21.578125 24.515625 
Q 13.234375 26.265625 9.515625 29.90625 
Q 5.8125 33.546875 5.8125 39.890625 
Q 5.8125 47.609375 11.28125 51.796875 
Q 16.75 56 26.8125 56 
Q 31.78125 56 36.171875 55.265625 
Q 40.578125 54.546875 44.28125 53.078125 
z
" id="DejaVuSans-115"/>
     </defs>
     <g transform="translate(205.662344 335.860562)scale(0.1 -0.1)">
      <use xlink:href="#DejaVuSans-71"/>
      <use x="77.490234" xlink:href="#DejaVuSans-101"/>
      <use x="139.013672" xlink:href="#DejaVuSans-110"/>
      <use x="202.392578" xlink:href="#DejaVuSans-101"/>
      <use x="263.916016" xlink:href="#DejaVuSans-114"/>
      <use x="305.029297" xlink:href="#DejaVuSans-97"/>
      <use x="366.308594" xlink:href="#DejaVuSans-116"/>
      <use x="405.517578" xlink:href="#DejaVuSans-105"/>
      <use x="433.300781" xlink:href="#DejaVuSans-111"/>
      <use x="494.482422" xlink:href="#DejaVuSans-110"/>
      <use x="557.861328" xlink:href="#DejaVuSans-115"/>
     </g>
    </g>
   </g>
   <g id="matplotlib.axis_2">
    <g id="ytick_1">
     <g id="line2d_7">
      <defs>
       <path d="M 0 0 
L -3.5 0 
" id="mf9f61dc3a4" style="stroke:#000000;stroke-width:0.8;"/>
      </defs>
      <g>
       <use style="stroke:#000000;stroke-width:0.8;" x="57.6" xlink:href="#mf9f61dc3a4" y="307.584"/>
      </g>
     </g>
     <g id="text_8">
      <!-- 0 -->
      <g transform="translate(44.2375 311.383219)scale(0.1 -0.1)">
       <use xlink:href="#DejaVuSans-48"/>
      </g>
     </g>
    </g>
    <g id="ytick_2">
     <g id="line2d_8">
      <g>
       <use style="stroke:#000000;stroke-width:0.8;" x="57.6" xlink:href="#mf9f61dc3a4" y="257.298286"/>
      </g>
     </g>
     <g id="text_9">
      <!-- 50 -->
      <g transform="translate(37.875 261.097504)scale(0.1 -0.1)">
       <use xlink:href="#DejaVuSans-53"/>
       <use x="63.623047" xlink:href="#DejaVuSans-48"/>
      </g>
     </g>
    </g>
    <g id="ytick_3">
     <g id="line2d_9">
      <g>
       <use style="stroke:#000000;stroke-width:0.8;" x="57.6" xlink:href="#mf9f61dc3a4" y="207.012571"/>
      </g>
     </g>
     <g id="text_10">
      <!-- 100 -->
      <g transform="translate(31.5125 210.81179)scale(0.1 -0.1)">
       <use xlink:href="#DejaVuSans-49"/>
       <use x="63.623047" xlink:href="#DejaVuSans-48"/>
       <use x="127.246094" xlink:href="#DejaVuSans-48"/>
      </g>
     </g>
    </g>
    <g id="ytick_4">
     <g id="line2d_10">
      <g>
       <use style="stroke:#000000;stroke-width:0.8;" x="57.6" xlink:href="#mf9f61dc3a4" y="156.726857"/>
      </g>
     </g>
     <g id="text_11">
      <!-- 150 -->
      <g transform="translate(31.5125 160.526076)scale(0.1 -0.1)">
       <use xlink:href="#DejaVuSans-49"/>
       <use x="63.623047" xlink:href="#DejaVuSans-53"/>
       <use x="127.246094" xlink:href="#DejaVuSans-48"/>
      </g>
     </g>
    </g>
    <g id="ytick_5">
     <g id="line2d_11">
      <g>
       <use style="stroke:#000000;stroke-width:0.8;" x="57.6" xlink:href="#mf9f61dc3a4" y="106.441143"/>
      </g>
     </g>
     <g id="text_12">
      <!-- 200 -->
      <g transform="translate(31.5125 110.240362)scale(0.1 -0.1)">
       <use xlink:href="#DejaVuSans-50"/>
       <use x="63.623047" xlink:href="#DejaVuSans-48"/>
       <use x="127.246094" xlink:href="#DejaVuSans-48"/>
      </g>
     </g>
    </g>
    <g id="ytick_6">
     <g id="line2d_12">
      <g>
       <use style="stroke:#000000;stroke-width:0.8;" x="57.6" xlink:href="#mf9f61dc3a4" y="56.155429"/>
      </g>
     </g>
     <g id="text_13">
      <!-- 250 -->
      <g transform="translate(31.5125 59.954647)scale(0.1 -0.1)">
       <use xlink:href="#DejaVuSans-50"/>
       <use x="63.623047" xlink:href="#DejaVuSans-53"/>
       <use x="127.246094" xlink:href="#DejaVuSans-48"/>
      </g>
     </g>
    </g>
    <g id="text_14">
     <!-- Size per Species -->
     <defs>
      <path d="M 53.515625 70.515625 
L 53.515625 60.890625 
Q 47.90625 63.578125 42.921875 64.890625 
Q 37.9375 66.21875 33.296875 66.21875 
Q 25.25 66.21875 20.875 63.09375 
Q 16.5 59.96875 16.5 54.203125 
Q 16.5 49.359375 19.40625 46.890625 
Q 22.3125 44.4375 30.421875 42.921875 
L 36.375 41.703125 
Q 47.40625 39.59375 52.65625 34.296875 
Q 57.90625 29 57.90625 20.125 
Q 57.90625 9.515625 50.796875 4.046875 
Q 43.703125 -1.421875 29.984375 -1.421875 
Q 24.8125 -1.421875 18.96875 -0.25 
Q 13.140625 0.921875 6.890625 3.21875 
L 6.890625 13.375 
Q 12.890625 10.015625 18.65625 8.296875 
Q 24.421875 6.59375 29.984375 6.59375 
Q 38.421875 6.59375 43.015625 9.90625 
Q 47.609375 13.234375 47.609375 19.390625 
Q 47.609375 24.75 44.3125 27.78125 
Q 41.015625 30.8125 33.5 32.328125 
L 27.484375 33.5 
Q 16.453125 35.6875 11.515625 40.375 
Q 6.59375 45.0625 6.59375 53.421875 
Q 6.59375 63.09375 13.40625 68.65625 
Q 20.21875 74.21875 32.171875 74.21875 
Q 37.3125 74.21875 42.625 73.28125 
Q 47.953125 72.359375 53.515625 70.515625 
z
" id="DejaVuSans-83"/>
      <path d="M 5.515625 54.6875 
L 48.1875 54.6875 
L 48.1875 46.484375 
L 14.40625 7.171875 
L 48.1875 7.171875 
L 48.1875 0 
L 4.296875 0 
L 4.296875 8.203125 
L 38.09375 47.515625 
L 5.515625 47.515625 
z
" id="DejaVuSans-122"/>
      <path id="DejaVuSans-32"/>
      <path d="M 18.109375 8.203125 
L 18.109375 -20.796875 
L 9.078125 -20.796875 
L 9.078125 54.6875 
L 18.109375 54.6875 
L 18.109375 46.390625 
Q 20.953125 51.265625 25.265625 53.625 
Q 29.59375 56 35.59375 56 
Q 45.5625 56 51.78125 48.09375 
Q 58.015625 40.1875 58.015625 27.296875 
Q 58.015625 14.40625 51.78125 6.484375 
Q 45.5625 -1.421875 35.59375 -1.421875 
Q 29.59375 -1.421875 25.265625 0.953125 
Q 20.953125 3.328125 18.109375 8.203125 
z
M 48.6875 27.296875 
Q 48.6875 37.203125 44.609375 42.84375 
Q 40.53125 48.484375 33.40625 48.484375 
Q 26.265625 48.484375 22.1875 42.84375 
Q 18.109375 37.203125 18.109375 27.296875 
Q 18.109375 17.390625 22.1875 11.75 
Q 26.265625 6.109375 33.40625 6.109375 
Q 40.53125 6.109375 44.609375 11.75 
Q 48.6875 17.390625 48.6875 27.296875 
z
" id="DejaVuSans-112"/>
      <path d="M 48.78125 52.59375 
L 48.78125 44.1875 
Q 44.96875 46.296875 41.140625 47.34375 
Q 37.3125 48.390625 33.40625 48.390625 
Q 24.65625 48.390625 19.8125 42.84375 
Q 14.984375 37.3125 14.984375 27.296875 
Q 14.984375 17.28125 19.8125 11.734375 
Q 24.65625 6.203125 33.40625 6.203125 
Q 37.3125 6.203125 41.140625 7.25 
Q 44.96875 8.296875 48.78125 10.40625 
L 48.78125 2.09375 
Q 45.015625 0.34375 40.984375 -0.53125 
Q 36.96875 -1.421875 32.421875 -1.421875 
Q 20.0625 -1.421875 12.78125 6.34375 
Q 5.515625 14.109375 5.515625 27.296875 
Q 5.515625 40.671875 12.859375 48.328125 
Q 20.21875 56 33.015625 56 
Q 37.15625 56 41.109375 55.140625 
Q 45.0625 54.296875 48.78125 52.59375 
z
" id="DejaVuSans-99"/>
     </defs>
     <g transform="translate(25.432812 215.520969)rotate(-90)scale(0.1 -0.1)">
      <use xlink:href="#DejaVuSans-83"/>
      <use x="63.476562" xlink:href="#DejaVuSans-105"/>
      <use x="91.259766" xlink:href="#DejaVuSans-122"/>
      <use x="143.75" xlink:href="#DejaVuSans-101"/>
      <use x="205.273438" xlink:href="#DejaVuSans-32"/>
      <use x="237.060547" xlink:href="#DejaVuSans-112"/>
      <use x="300.537109" xlink:href="#DejaVuSans-101"/>
      <use x="362.060547" xlink:href="#DejaVuSans-114"/>
      <use x="403.173828" xlink:href="#DejaVuSans-32"/>
      <use x="434.960938" xlink:href="#DejaVuSans-83"/>
      <use x="498.4375" xlink:href="#DejaVuSans-112"/>
      <use x="561.914062" xlink:href="#DejaVuSans-101"/>
      <use x="623.4375" xlink:href="#DejaVuSans-99"/>
      <use x="678.417969" xlink:href="#DejaVuSans-105"/>
      <use x="706.201172" xlink:href="#DejaVuSans-101"/>
      <use x="767.724609" xlink:href="#DejaVuSans-115"/>
     </g>
    </g>
   </g>
   <g id="patch_3">
    <path d="M 57.6 307.584 
L 57.6 41.472 
" style="fill:none;stroke:#000000;stroke-linecap:square;stroke-linejoin:miter;stroke-width:0.8;"/>
   </g>
   <g id="patch_4">
    <path d="M 414.72 307.584 
L 414.72 41.472 
" style="fill:none;stroke:#000000;stroke-linecap:square;stroke-linejoin:miter;stroke-width:0.8;"/>
   </g>
   <g id="patch_5">
    <path d="M 57.6 307.584 
L 414.72 307.584 
" style="fill:none;stroke:#000000;stroke-linecap:square;stroke-linejoin:miter;stroke-width:0.8;"/>
   </g>
   <g id="patch_6">
    <path d="M 57.6 41.472 
L 414.72 41.472 
" style="fill:none;stroke:#000000;stroke-linecap:square;stroke-linejoin:miter;stroke-width:0.8;"/>
   </g>
   <g id="text_15">
    <!-- Speciation -->
    <g transform="translate(204.714375 35.472)scale(0.12 -0.12)">
     <use xlink:href="#DejaVuSans-83"/>
     <use x="63.476562" xlink:href="#DejaVuSans-112"/>
     <use x="126.953125" xlink:href="#DejaVuSans-101"/>
     <use x="188.476562" xlink:href="#DejaVuSans-99"/>
     <use x="243.457031" xlink:href="#DejaVuSans-105"/>
     <use x="271.240234" xlink:href="#DejaVuSans-97"/>
     <use x="332.519531" xlink:href="#DejaVuSans-116"/>
     <use x="371.728516" xlink:href="#DejaVuSans-105"/>
     <use x="399.511719" xlink:href="#DejaVuSans-111"/>
     <use x="460.693359" xlink:href="#DejaVuSans-110"/>
    </g>
   </g>
  </g>
 </g>
 <defs>
  <clipPath id="pee5fcc8502">
   <rect height="266.112" width="357.12" x="57.6" y="41.472"/>
  </clipPath>
 </defs>
</svg>
