<?xml version="1.0" encoding="UTF-8" standalone="no"?>
<!DOCTYPE svg PUBLIC "-//W3C//DTD SVG 1.1//EN"
 "http://www.w3.org/Graphics/SVG/1.1/DTD/svg11.dtd">
<!-- Generated by graphviz version 2.38.0 (20140413.2041)
 -->
<!-- Title: %3 Pages: 1 -->
<svg width="182pt" height="121pt"
 viewBox="0.00 0.00 181.50 121.40" xmlns="http://www.w3.org/2000/svg" xmlns:xlink="http://www.w3.org/1999/xlink">
<g id="graph0" class="graph" transform="scale(1 1) rotate(0) translate(4 117.397)">
<title>%3</title>
<polygon fill="white" stroke="none" points="-4,4 -4,-117.397 177.5,-117.397 177.5,4 -4,4"/>
<!-- x -->
<g id="node1" class="node"><title>x</title>
<polygon fill="lightgray" stroke="black" points="20,-113.397 0,-113.397 0,-95.397 20,-95.397 20,-113.397"/>
<text text-anchor="middle" x="10" y="-102.197" font-family="Times New Roman,serif" font-size="9.00">x</text>
</g>
<!-- control -->
<g id="node5" class="node"><title>control</title>
<ellipse fill="lightblue" stroke="black" cx="75" cy="-29.6985" rx="29.8983" ry="29.8983"/>
<text text-anchor="middle" x="75" y="-27.4985" font-family="Times New Roman,serif" font-size="9.00">control</text>
</g>
<!-- x&#45;&gt;control -->
<g id="edge3" class="edge"><title>x&#45;&gt;control</title>
<path fill="none" stroke="green" stroke-width="0.397515" d="M17.2045,-95.3392C24.8141,-86.8283 37.2656,-72.9021 48.6663,-60.1511"/>
<polygon fill="green" stroke="green" stroke-width="0.397515" points="51.5201,-62.2104 55.5763,-52.4227 46.3017,-57.5446 51.5201,-62.2104"/>
</g>
<!-- dx -->
<g id="node2" class="node"><title>dx</title>
<polygon fill="lightgray" stroke="black" points="63.5,-113.397 38.5,-113.397 38.5,-95.397 63.5,-95.397 63.5,-113.397"/>
<text text-anchor="middle" x="51" y="-102.197" font-family="Times New Roman,serif" font-size="9.00">dx</text>
</g>
<!-- dx&#45;&gt;control -->
<g id="edge4" class="edge"><title>dx&#45;&gt;control</title>
<path fill="none" stroke="green" stroke-width="0.243821" d="M53.6601,-95.3392C55.9214,-88.4896 59.3406,-78.1324 62.7836,-67.7032"/>
<polygon fill="green" stroke="green" stroke-width="0.243821" points="66.1083,-68.7969 65.9197,-58.2037 59.4611,-66.6024 66.1083,-68.7969"/>
</g>
<!-- theta -->
<g id="node3" class="node"><title>theta</title>
<polygon fill="lightgray" stroke="black" points="116.5,-113.397 81.5,-113.397 81.5,-95.397 116.5,-95.397 116.5,-113.397"/>
<text text-anchor="middle" x="99" y="-102.197" font-family="Times New Roman,serif" font-size="9.00">theta</text>
</g>
<!-- theta&#45;&gt;control -->
<g id="edge2" class="edge"><title>theta&#45;&gt;control</title>
<path fill="none" stroke="green" stroke-width="1.20055" d="M96.3399,-95.3392C94.0786,-88.4896 90.6594,-78.1324 87.2164,-67.7032"/>
<polygon fill="green" stroke="green" stroke-width="1.20055" points="90.5389,-66.6024 84.0803,-58.2037 83.8917,-68.7969 90.5389,-66.6024"/>
</g>
<!-- dtheta -->
<g id="node4" class="node"><title>dtheta</title>
<polygon fill="lightgray" stroke="black" points="173.5,-113.397 134.5,-113.397 134.5,-95.397 173.5,-95.397 173.5,-113.397"/>
<text text-anchor="middle" x="154" y="-102.197" font-family="Times New Roman,serif" font-size="9.00">dtheta</text>
</g>
<!-- dtheta&#45;&gt;control -->
<g id="edge1" class="edge"><title>dtheta&#45;&gt;control</title>
<path fill="none" stroke="green" stroke-width="0.692128" d="M145.244,-95.3392C135.323,-86.2097 118.631,-70.8489 104.007,-57.3918"/>
<polygon fill="green" stroke="green" stroke-width="0.692128" points="106.324,-54.7672 96.5953,-50.5712 101.584,-59.9182 106.324,-54.7672"/>
</g>
</g>
</svg>
