<?xml version="1.0" encoding="UTF-8" standalone="no"?>
<!DOCTYPE svg PUBLIC "-//W3C//DTD SVG 1.1//EN"
 "http://www.w3.org/Graphics/SVG/1.1/DTD/svg11.dtd">
<!-- Generated by graphviz version 2.38.0 (20140413.2041)
 -->
<!-- Title: %3 Pages: 1 -->
<svg width="197pt" height="318pt"
 viewBox="0.00 0.00 197.43 318.23" xmlns="http://www.w3.org/2000/svg" xmlns:xlink="http://www.w3.org/1999/xlink">
<g id="graph0" class="graph" transform="scale(1 1) rotate(0) translate(4 314.233)">
<title>%3</title>
<polygon fill="white" stroke="none" points="-4,4 -4,-314.233 193.426,-314.233 193.426,4 -4,4"/>
<!-- A -->
<g id="node1" class="node"><title>A</title>
<polygon fill="lightgray" stroke="black" points="36.7132,-298.019 13.7132,-298.019 13.7132,-280.019 36.7132,-280.019 36.7132,-298.019"/>
<text text-anchor="middle" x="25.2132" y="-286.819" font-family="Times New Roman,serif" font-size="9.00">A</text>
</g>
<!-- 201 -->
<g id="node5" class="node"><title>201</title>
<ellipse fill="white" stroke="black" cx="70.2132" cy="-210.593" rx="21.4286" ry="21.4286"/>
<text text-anchor="middle" x="70.2132" y="-208.393" font-family="Times New Roman,serif" font-size="9.00">201</text>
</g>
<!-- A&#45;&gt;201 -->
<g id="edge1" class="edge"><title>A&#45;&gt;201</title>
<path fill="none" stroke="green" stroke-width="0.821633" d="M30.029,-279.84C35.8872,-269.891 46.0662,-252.603 54.7132,-237.918"/>
<polygon fill="green" stroke="green" stroke-width="0.821633" points="57.7891,-239.592 59.8469,-229.199 51.757,-236.04 57.7891,-239.592"/>
</g>
<!-- 821 -->
<g id="node8" class="node"><title>821</title>
<ellipse fill="white" stroke="black" cx="21.2132" cy="-132.167" rx="21.4286" ry="21.4286"/>
<text text-anchor="middle" x="21.2132" y="-129.967" font-family="Times New Roman,serif" font-size="9.00">821</text>
</g>
<!-- A&#45;&gt;821 -->
<g id="edge9" class="edge"><title>A&#45;&gt;821</title>
<path fill="none" stroke="red" stroke-width="0.728811" d="M24.9981,-279.694C24.4413,-258.138 22.9309,-199.664 21.9951,-163.437"/>
<polygon fill="red" stroke="red" stroke-width="0.728811" points="25.4934,-163.322 21.7363,-153.416 18.4957,-163.503 25.4934,-163.322"/>
</g>
<!-- B -->
<g id="node2" class="node"><title>B</title>
<polygon fill="lightgray" stroke="black" points="104.713,-298.019 81.7132,-298.019 81.7132,-280.019 104.713,-280.019 104.713,-298.019"/>
<text text-anchor="middle" x="93.2132" y="-286.819" font-family="Times New Roman,serif" font-size="9.00">B</text>
</g>
<!-- B&#45;&gt;201 -->
<g id="edge3" class="edge"><title>B&#45;&gt;201</title>
<path fill="none" stroke="green" stroke-width="0.761929" d="M90.7518,-279.84C87.9542,-270.544 83.2288,-254.842 79.0155,-240.842"/>
<polygon fill="green" stroke="green" stroke-width="0.761929" points="82.3062,-239.631 76.0729,-231.064 75.6032,-241.648 82.3062,-239.631"/>
</g>
<!-- 367 -->
<g id="node6" class="node"><title>367</title>
<ellipse fill="white" stroke="black" cx="119.213" cy="-132.167" rx="21.4286" ry="21.4286"/>
<text text-anchor="middle" x="119.213" y="-129.967" font-family="Times New Roman,serif" font-size="9.00">367</text>
</g>
<!-- B&#45;&gt;367 -->
<g id="edge4" class="edge"><title>B&#45;&gt;367</title>
<path fill="none" stroke="green" stroke-width="0.633717" d="M94.6111,-279.694C98.2399,-258.081 108.1,-199.354 114.179,-163.149"/>
<polygon fill="green" stroke="green" stroke-width="0.633717" points="117.655,-163.585 115.859,-153.143 110.751,-162.426 117.655,-163.585"/>
</g>
<!-- A XOR B -->
<g id="node3" class="node"><title>A XOR B</title>
<ellipse fill="lightblue" stroke="black" cx="70.2132" cy="-37.4767" rx="37.4533" ry="37.4533"/>
<text text-anchor="middle" x="70.2132" y="-35.2767" font-family="Times New Roman,serif" font-size="9.00">A XOR B</text>
</g>
<!-- 740 -->
<g id="node4" class="node"><title>740</title>
<ellipse fill="white" stroke="black" cx="168.213" cy="-289.019" rx="21.4286" ry="21.4286"/>
<text text-anchor="middle" x="168.213" y="-286.819" font-family="Times New Roman,serif" font-size="9.00">740</text>
</g>
<!-- 788 -->
<g id="node7" class="node"><title>788</title>
<ellipse fill="white" stroke="black" cx="168.213" cy="-210.593" rx="21.4286" ry="21.4286"/>
<text text-anchor="middle" x="168.213" y="-208.393" font-family="Times New Roman,serif" font-size="9.00">788</text>
</g>
<!-- 740&#45;&gt;788 -->
<g id="edge6" class="edge"><title>740&#45;&gt;788</title>
<path fill="none" stroke="red" stroke-width="0.10889" stroke-dasharray="1,5" d="M168.213,-267.538C168.213,-259.68 168.213,-250.536 168.213,-241.945"/>
<polygon fill="red" stroke="red" stroke-width="0.10889" points="171.713,-241.865 168.213,-231.865 164.713,-241.865 171.713,-241.865"/>
</g>
<!-- 201&#45;&gt;A XOR B -->
<g id="edge2" class="edge"><title>201&#45;&gt;A XOR B</title>
<path fill="none" stroke="green" stroke-width="0.854462" d="M70.2132,-189.292C70.2132,-163.859 70.2132,-119.486 70.2132,-85.4338"/>
<polygon fill="green" stroke="green" stroke-width="0.854462" points="73.7133,-85.2297 70.2132,-75.2297 66.7133,-85.2297 73.7133,-85.2297"/>
</g>
<!-- 201&#45;&gt;821 -->
<g id="edge7" class="edge"><title>201&#45;&gt;821</title>
<path fill="none" stroke="green" stroke-width="0.470536" d="M59.0943,-192.251C52.8294,-182.479 44.8805,-170.081 37.8836,-159.168"/>
<polygon fill="green" stroke="green" stroke-width="0.470536" points="40.6319,-156.97 32.2881,-150.44 34.739,-160.748 40.6319,-156.97"/>
</g>
<!-- 367&#45;&gt;A XOR B -->
<g id="edge5" class="edge"><title>367&#45;&gt;A XOR B</title>
<path fill="none" stroke="red" stroke-width="0.852348" d="M109.532,-112.854C104.559,-103.446 98.2798,-91.5682 92.2082,-80.0831"/>
<polygon fill="red" stroke="red" stroke-width="0.852348" points="95.1802,-78.216 87.4123,-71.0111 88.9917,-81.4875 95.1802,-78.216"/>
</g>
<!-- 821&#45;&gt;A XOR B -->
<g id="edge8" class="edge"><title>821&#45;&gt;A XOR B</title>
<path fill="none" stroke="green" stroke-width="0.655353" d="M30.894,-112.854C35.8677,-103.446 42.1466,-91.5682 48.2182,-80.0831"/>
<polygon fill="green" stroke="green" stroke-width="0.655353" points="51.4347,-81.4875 53.0141,-71.0111 45.2462,-78.216 51.4347,-81.4875"/>
</g>
</g>
</svg>
