<?xml version="1.0" encoding="UTF-8" standalone="no"?>
<!DOCTYPE svg PUBLIC "-//W3C//DTD SVG 1.1//EN"
 "http://www.w3.org/Graphics/SVG/1.1/DTD/svg11.dtd">
<!-- Generated by graphviz version 2.38.0 (20140413.2041)
 -->
<!-- Title: %3 Pages: 1 -->
<svg width="123pt" height="308pt"
 viewBox="0.00 0.00 123.23 307.95" xmlns="http://www.w3.org/2000/svg" xmlns:xlink="http://www.w3.org/1999/xlink">
<g id="graph0" class="graph" transform="scale(1 1) rotate(0) translate(4 303.948)">
<title>%3</title>
<polygon fill="white" stroke="none" points="-4,4 -4,-303.948 119.225,-303.948 119.225,4 -4,4"/>
<!-- A -->
<g id="node1" class="node"><title>A</title>
<polygon fill="lightgray" stroke="black" points="58.2487,-299.948 35.2487,-299.948 35.2487,-281.948 58.2487,-281.948 58.2487,-299.948"/>
<text text-anchor="middle" x="46.7487" y="-288.748" font-family="Times New Roman,serif" font-size="9.00">A</text>
</g>
<!-- 3708 -->
<g id="node4" class="node"><title>3708</title>
<ellipse fill="white" stroke="black" cx="24.7487" cy="-135.702" rx="25" ry="25"/>
<text text-anchor="middle" x="24.7487" y="-133.502" font-family="Times New Roman,serif" font-size="9.00">3708</text>
</g>
<!-- A&#45;&gt;3708 -->
<g id="edge5" class="edge"><title>A&#45;&gt;3708</title>
<path fill="none" stroke="green" stroke-width="0.576596" d="M44.6272,-281.894C42.3826,-273.112 38.8772,-258.618 36.7487,-245.948 32.538,-220.884 29.4603,-192.326 27.4766,-170.695"/>
<polygon fill="green" stroke="green" stroke-width="0.576596" points="30.9582,-170.332 26.5905,-160.679 23.9854,-170.948 30.9582,-170.332"/>
</g>
<!-- 2751 -->
<g id="node5" class="node"><title>2751</title>
<ellipse fill="white" stroke="black" cx="70.7487" cy="-221.2" rx="25" ry="25"/>
<text text-anchor="middle" x="70.7487" y="-219" font-family="Times New Roman,serif" font-size="9.00">2751</text>
</g>
<!-- A&#45;&gt;2751 -->
<g id="edge3" class="edge"><title>A&#45;&gt;2751</title>
<path fill="none" stroke="green" stroke-width="0.527939" d="M49.5961,-281.911C52.0426,-275.004 55.7386,-264.571 59.3602,-254.348"/>
<polygon fill="green" stroke="green" stroke-width="0.527939" points="62.7263,-255.327 62.7665,-244.732 56.1281,-252.99 62.7263,-255.327"/>
</g>
<!-- B -->
<g id="node2" class="node"><title>B</title>
<polygon fill="lightgray" stroke="black" points="105.249,-299.948 82.2487,-299.948 82.2487,-281.948 105.249,-281.948 105.249,-299.948"/>
<text text-anchor="middle" x="93.7487" y="-288.748" font-family="Times New Roman,serif" font-size="9.00">B</text>
</g>
<!-- A XOR B -->
<g id="node3" class="node"><title>A XOR B</title>
<ellipse fill="lightblue" stroke="black" cx="77.7487" cy="-37.4767" rx="37.4533" ry="37.4533"/>
<text text-anchor="middle" x="77.7487" y="-35.2767" font-family="Times New Roman,serif" font-size="9.00">A XOR B</text>
</g>
<!-- B&#45;&gt;A XOR B -->
<g id="edge4" class="edge"><title>B&#45;&gt;A XOR B</title>
<path fill="none" stroke="green" stroke-width="0.290421" d="M96.4785,-281.629C99.1992,-272.866 103.19,-258.609 104.749,-245.948 111.637,-189.996 100.249,-125.63 90.2135,-83.618"/>
<polygon fill="green" stroke="green" stroke-width="0.290421" points="93.5604,-82.5715 87.7697,-73.6992 86.7636,-84.2461 93.5604,-82.5715"/>
</g>
<!-- B&#45;&gt;2751 -->
<g id="edge1" class="edge"><title>B&#45;&gt;2751</title>
<path fill="none" stroke="green" stroke-width="0.498177" d="M91.02,-281.911C88.6935,-275.058 85.1878,-264.731 81.7428,-254.584"/>
<polygon fill="green" stroke="green" stroke-width="0.498177" points="85.0279,-253.372 78.4989,-245.028 78.3995,-255.623 85.0279,-253.372"/>
</g>
<!-- 3708&#45;&gt;A XOR B -->
<g id="edge6" class="edge"><title>3708&#45;&gt;A XOR B</title>
<path fill="none" stroke="green" stroke-width="0.521956" d="M36.5112,-113.347C41.9495,-103.473 48.6022,-91.3944 54.9634,-79.8451"/>
<polygon fill="green" stroke="green" stroke-width="0.521956" points="58.215,-81.1962 59.9738,-70.7483 52.0835,-77.819 58.215,-81.1962"/>
</g>
<!-- 2751&#45;&gt;A XOR B -->
<g id="edge2" class="edge"><title>2751&#45;&gt;A XOR B</title>
<path fill="none" stroke="red" stroke-width="1.00189" d="M71.6639,-196.442C72.7466,-168.334 74.575,-120.869 75.9455,-85.2901"/>
<polygon fill="red" stroke="red" stroke-width="1.00189" points="79.4492,-85.2587 76.3368,-75.1314 72.4544,-84.9892 79.4492,-85.2587"/>
</g>
<!-- 2751&#45;&gt;3708 -->
<g id="edge7" class="edge"><title>2751&#45;&gt;3708</title>
<path fill="none" stroke="red" stroke-width="0.635466" d="M59.141,-199.13C53.7476,-189.34 47.2361,-177.52 41.3364,-166.811"/>
<polygon fill="red" stroke="red" stroke-width="0.635466" points="44.2437,-164.835 36.3528,-157.765 38.1126,-168.213 44.2437,-164.835"/>
</g>
</g>
</svg>
