<?xml version="1.0" encoding="UTF-8" standalone="no"?>
<!DOCTYPE svg PUBLIC "-//W3C//DTD SVG 1.1//EN"
 "http://www.w3.org/Graphics/SVG/1.1/DTD/svg11.dtd">
<!-- Generated by graphviz version 2.38.0 (20140413.2041)
 -->
<!-- Title: %3 Pages: 1 -->
<svg width="183pt" height="273pt"
 viewBox="0.00 0.00 183.00 272.59" xmlns="http://www.w3.org/2000/svg" xmlns:xlink="http://www.w3.org/1999/xlink">
<g id="graph0" class="graph" transform="scale(1 1) rotate(0) translate(4 268.593)">
<title>%3</title>
<polygon fill="white" stroke="none" points="-4,4 -4,-268.593 179,-268.593 179,4 -4,4"/>
<!-- x -->
<g id="node1" class="node"><title>x</title>
<polygon fill="lightgray" stroke="black" points="41.5,-264.593 21.5,-264.593 21.5,-246.593 41.5,-246.593 41.5,-264.593"/>
<text text-anchor="middle" x="31.5" y="-253.393" font-family="Times New Roman,serif" font-size="9.00">x</text>
</g>
<!-- dx -->
<g id="node2" class="node"><title>dx</title>
<polygon fill="lightgray" stroke="black" points="25,-122.782 0,-122.782 0,-104.782 25,-104.782 25,-122.782"/>
<text text-anchor="middle" x="12.5" y="-111.582" font-family="Times New Roman,serif" font-size="9.00">dx</text>
</g>
<!-- control -->
<g id="node5" class="node"><title>control</title>
<ellipse fill="lightblue" stroke="black" cx="76.5" cy="-29.6985" rx="29.8983" ry="29.8983"/>
<text text-anchor="middle" x="76.5" y="-27.4985" font-family="Times New Roman,serif" font-size="9.00">control</text>
</g>
<!-- dx&#45;&gt;control -->
<g id="edge1" class="edge"><title>dx&#45;&gt;control</title>
<path fill="none" stroke="green" stroke-width="0.468211" d="M18.8705,-104.611C26.6069,-94.6889 40.111,-77.3693 52.1029,-61.9889"/>
<polygon fill="green" stroke="green" stroke-width="0.468211" points="55.1747,-63.7414 58.5634,-53.7031 49.6543,-59.4372 55.1747,-63.7414"/>
</g>
<!-- theta -->
<g id="node3" class="node"><title>theta</title>
<polygon fill="lightgray" stroke="black" points="95,-264.593 60,-264.593 60,-246.593 95,-246.593 95,-264.593"/>
<text text-anchor="middle" x="77.5" y="-253.393" font-family="Times New Roman,serif" font-size="9.00">theta</text>
</g>
<!-- theta&#45;&gt;control -->
<g id="edge2" class="edge"><title>theta&#45;&gt;control</title>
<path fill="none" stroke="green" stroke-width="0.507999" d="M76.3031,-246.507C75.0644,-237.698 73.2129,-223.181 72.5,-210.593 69.605,-159.477 70.9196,-146.571 72.5,-95.397 72.7593,-87.0002 73.2075,-77.9991 73.7124,-69.4602"/>
<polygon fill="green" stroke="green" stroke-width="0.507999" points="77.2139,-69.5451 74.3475,-59.3454 70.2276,-69.1064 77.2139,-69.5451"/>
</g>
<!-- 334 -->
<g id="node7" class="node"><title>334</title>
<ellipse fill="white" stroke="black" cx="102.5" cy="-189.38" rx="21.4286" ry="21.4286"/>
<text text-anchor="middle" x="102.5" y="-187.18" font-family="Times New Roman,serif" font-size="9.00">334</text>
</g>
<!-- theta&#45;&gt;334 -->
<g id="edge4" class="edge"><title>theta&#45;&gt;334</title>
<path fill="none" stroke="red" stroke-width="0.333838" d="M80.6663,-246.46C83.3945,-239.453 87.5008,-228.906 91.4188,-218.842"/>
<polygon fill="red" stroke="red" stroke-width="0.333838" points="94.6998,-220.062 95.0663,-209.473 88.1767,-217.522 94.6998,-220.062"/>
</g>
<!-- dtheta -->
<g id="node4" class="node"><title>dtheta</title>
<polygon fill="lightgray" stroke="black" points="175,-122.782 136,-122.782 136,-104.782 175,-104.782 175,-122.782"/>
<text text-anchor="middle" x="155.5" y="-111.582" font-family="Times New Roman,serif" font-size="9.00">dtheta</text>
</g>
<!-- dtheta&#45;&gt;control -->
<g id="edge3" class="edge"><title>dtheta&#45;&gt;control</title>
<path fill="none" stroke="green" stroke-width="0.798304" d="M147.636,-104.611C137.507,-94.087 119.369,-75.2407 103.944,-59.2133"/>
<polygon fill="green" stroke="green" stroke-width="0.798304" points="106.093,-56.3987 96.6362,-51.6206 101.049,-61.2528 106.093,-56.3987"/>
</g>
<!-- 64 -->
<g id="node6" class="node"><title>64</title>
<ellipse fill="white" stroke="black" cx="99.5" cy="-113.782" rx="18.2703" ry="18.2703"/>
<text text-anchor="middle" x="99.5" y="-111.582" font-family="Times New Roman,serif" font-size="9.00">64</text>
</g>
<!-- 64&#45;&gt;control -->
<g id="edge6" class="edge"><title>64&#45;&gt;control</title>
<path fill="none" stroke="red" stroke-width="0.27765" d="M94.7344,-95.774C92.5078,-87.8278 89.7612,-78.0257 87.0816,-68.4624"/>
<polygon fill="red" stroke="red" stroke-width="0.27765" points="90.4063,-67.3555 84.3379,-58.6707 83.6659,-69.2442 90.4063,-67.3555"/>
</g>
<!-- 334&#45;&gt;64 -->
<g id="edge5" class="edge"><title>334&#45;&gt;64</title>
<path fill="none" stroke="green" stroke-width="0.210836" d="M101.664,-167.879C101.343,-159.983 100.97,-150.834 100.625,-142.377"/>
<polygon fill="green" stroke="green" stroke-width="0.210836" points="104.114,-142.032 100.209,-132.183 97.1196,-142.317 104.114,-142.032"/>
</g>
</g>
</svg>
