<?xml version="1.0" encoding="UTF-8" standalone="no"?>
<!DOCTYPE svg PUBLIC "-//W3C//DTD SVG 1.1//EN"
 "http://www.w3.org/Graphics/SVG/1.1/DTD/svg11.dtd">
<!-- Generated by graphviz version 2.38.0 (20140413.2041)
 -->
<!-- Title: %3 Pages: 1 -->
<svg width="242pt" height="273pt"
 viewBox="0.00 0.00 241.71 272.59" xmlns="http://www.w3.org/2000/svg" xmlns:xlink="http://www.w3.org/1999/xlink">
<g id="graph0" class="graph" transform="scale(1 1) rotate(0) translate(4 268.593)">
<title>%3</title>
<polygon fill="white" stroke="none" points="-4,4 -4,-268.593 237.713,-268.593 237.713,4 -4,4"/>
<!-- x -->
<g id="node1" class="node"><title>x</title>
<polygon fill="lightgray" stroke="black" points="55.2132,-264.593 35.2132,-264.593 35.2132,-246.593 55.2132,-246.593 55.2132,-264.593"/>
<text text-anchor="middle" x="45.2132" y="-253.393" font-family="Times New Roman,serif" font-size="9.00">x</text>
</g>
<!-- 521 -->
<g id="node6" class="node"><title>521</title>
<ellipse fill="white" stroke="black" cx="21.2132" cy="-189.38" rx="21.4286" ry="21.4286"/>
<text text-anchor="middle" x="21.2132" y="-187.18" font-family="Times New Roman,serif" font-size="9.00">521</text>
</g>
<!-- x&#45;&gt;521 -->
<g id="edge7" class="edge"><title>x&#45;&gt;521</title>
<path fill="none" stroke="green" stroke-width="0.25034" d="M42.1736,-246.46C39.5545,-239.453 35.6124,-228.906 31.8512,-218.842"/>
<polygon fill="green" stroke="green" stroke-width="0.25034" points="35.1291,-217.615 28.3495,-209.473 28.5721,-220.066 35.1291,-217.615"/>
</g>
<!-- 15 -->
<g id="node7" class="node"><title>15</title>
<ellipse fill="white" stroke="black" cx="126.213" cy="-113.782" rx="18.2703" ry="18.2703"/>
<text text-anchor="middle" x="126.213" y="-111.582" font-family="Times New Roman,serif" font-size="9.00">15</text>
</g>
<!-- x&#45;&gt;15 -->
<g id="edge6" class="edge"><title>x&#45;&gt;15</title>
<path fill="none" stroke="red" stroke-width="0.350711" d="M48.9797,-246.292C56.1739,-230.658 72.6345,-195.919 89.2132,-168.167 95.4363,-157.749 102.965,-146.657 109.603,-137.298"/>
<polygon fill="red" stroke="red" stroke-width="0.350711" points="112.621,-139.095 115.622,-128.934 106.94,-135.007 112.621,-139.095"/>
</g>
<!-- dx -->
<g id="node2" class="node"><title>dx</title>
<polygon fill="lightgray" stroke="black" points="123.713,-198.38 98.7132,-198.38 98.7132,-180.38 123.713,-180.38 123.713,-198.38"/>
<text text-anchor="middle" x="111.213" y="-187.18" font-family="Times New Roman,serif" font-size="9.00">dx</text>
</g>
<!-- dx&#45;&gt;15 -->
<g id="edge4" class="edge"><title>dx&#45;&gt;15</title>
<path fill="none" stroke="red" stroke-width="0.213979" d="M112.876,-180.222C114.76,-170.977 117.931,-155.419 120.708,-141.792"/>
<polygon fill="red" stroke="red" stroke-width="0.213979" points="124.16,-142.382 122.727,-131.885 117.301,-140.984 124.16,-142.382"/>
</g>
<!-- theta -->
<g id="node3" class="node"><title>theta</title>
<polygon fill="lightgray" stroke="black" points="233.713,-198.38 198.713,-198.38 198.713,-180.38 233.713,-180.38 233.713,-198.38"/>
<text text-anchor="middle" x="216.213" y="-187.18" font-family="Times New Roman,serif" font-size="9.00">theta</text>
</g>
<!-- control -->
<g id="node5" class="node"><title>control</title>
<ellipse fill="lightblue" stroke="black" cx="163.213" cy="-29.6985" rx="29.8983" ry="29.8983"/>
<text text-anchor="middle" x="163.213" y="-27.4985" font-family="Times New Roman,serif" font-size="9.00">control</text>
</g>
<!-- theta&#45;&gt;control -->
<g id="edge2" class="edge"><title>theta&#45;&gt;control</title>
<path fill="none" stroke="green" stroke-width="0.189539" d="M213.512,-180.344C206.638,-159.892 188.138,-104.852 175.596,-67.5383"/>
<polygon fill="green" stroke="green" stroke-width="0.189539" points="178.893,-66.3608 172.389,-57.9971 172.257,-68.5911 178.893,-66.3608"/>
</g>
<!-- theta&#45;&gt;15 -->
<g id="edge1" class="edge"><title>theta&#45;&gt;15</title>
<path fill="none" stroke="red" stroke-width="0.314535" d="M206.238,-180.222C192.267,-168.798 166.511,-147.735 147.987,-132.588"/>
<polygon fill="red" stroke="red" stroke-width="0.314535" points="150.011,-129.721 140.054,-126.1 145.579,-135.14 150.011,-129.721"/>
</g>
<!-- dtheta -->
<g id="node4" class="node"><title>dtheta</title>
<polygon fill="lightgray" stroke="black" points="180.713,-198.38 141.713,-198.38 141.713,-180.38 180.713,-180.38 180.713,-198.38"/>
<text text-anchor="middle" x="161.213" y="-187.18" font-family="Times New Roman,serif" font-size="9.00">dtheta</text>
</g>
<!-- dtheta&#45;&gt;15 -->
<g id="edge5" class="edge"><title>dtheta&#45;&gt;15</title>
<path fill="none" stroke="red" stroke-width="0.4855" d="M157.334,-180.222C152.735,-170.552 144.853,-153.977 138.172,-139.928"/>
<polygon fill="red" stroke="red" stroke-width="0.4855" points="141.249,-138.249 133.794,-130.722 134.927,-141.256 141.249,-138.249"/>
</g>
<!-- 521&#45;&gt;15 -->
<g id="edge8" class="edge"><title>521&#45;&gt;15</title>
<path fill="none" stroke="green" stroke-width="0.796369" d="M38.5518,-176.227C56.231,-163.835 83.7552,-144.542 103.239,-130.885"/>
<polygon fill="green" stroke="green" stroke-width="0.796369" points="105.382,-133.657 111.562,-125.052 101.364,-127.925 105.382,-133.657"/>
</g>
<!-- 15&#45;&gt;control -->
<g id="edge3" class="edge"><title>15&#45;&gt;control</title>
<path fill="none" stroke="red" stroke-width="1.15831" d="M133.523,-96.5647C137.393,-87.9796 142.309,-77.0731 147.022,-66.6172"/>
<polygon fill="red" stroke="red" stroke-width="1.15831" points="150.339,-67.776 151.258,-57.221 143.958,-64.8994 150.339,-67.776"/>
</g>
</g>
</svg>
