<?xml version="1.0" encoding="UTF-8" standalone="no"?>
<!DOCTYPE svg PUBLIC "-//W3C//DTD SVG 1.1//EN"
 "http://www.w3.org/Graphics/SVG/1.1/DTD/svg11.dtd">
<!-- Generated by graphviz version 2.38.0 (20140413.2041)
 -->
<!-- Title: %3 Pages: 1 -->
<svg width="185pt" height="215pt"
 viewBox="0.00 0.00 184.86 215.38" xmlns="http://www.w3.org/2000/svg" xmlns:xlink="http://www.w3.org/1999/xlink">
<g id="graph0" class="graph" transform="scale(1 1) rotate(0) translate(4 211.38)">
<title>%3</title>
<polygon fill="white" stroke="none" points="-4,4 -4,-211.38 180.857,-211.38 180.857,4 -4,4"/>
<!-- A -->
<g id="node1" class="node"><title>A</title>
<polygon fill="lightgray" stroke="black" points="137.144,-207.38 114.144,-207.38 114.144,-189.38 137.144,-189.38 137.144,-207.38"/>
<text text-anchor="middle" x="125.644" y="-196.18" font-family="Times New Roman,serif" font-size="9.00">A</text>
</g>
<!-- 801 -->
<g id="node4" class="node"><title>801</title>
<ellipse fill="white" stroke="black" cx="95.6436" cy="-132.167" rx="21.4286" ry="21.4286"/>
<text text-anchor="middle" x="95.6436" y="-129.967" font-family="Times New Roman,serif" font-size="9.00">801</text>
</g>
<!-- A&#45;&gt;801 -->
<g id="edge9" class="edge"><title>A&#45;&gt;801</title>
<path fill="none" stroke="red" stroke-width="0.39128" d="M121.844,-189.247C118.488,-182.064 113.395,-171.162 108.588,-160.873"/>
<polygon fill="red" stroke="red" stroke-width="0.39128" points="111.716,-159.301 104.313,-151.722 105.374,-162.264 111.716,-159.301"/>
</g>
<!-- 168 -->
<g id="node6" class="node"><title>168</title>
<ellipse fill="white" stroke="black" cx="155.644" cy="-132.167" rx="21.4286" ry="21.4286"/>
<text text-anchor="middle" x="155.644" y="-129.967" font-family="Times New Roman,serif" font-size="9.00">168</text>
</g>
<!-- A&#45;&gt;168 -->
<g id="edge4" class="edge"><title>A&#45;&gt;168</title>
<path fill="none" stroke="red" stroke-width="0.590077" d="M129.443,-189.247C132.799,-182.064 137.893,-171.162 142.699,-160.873"/>
<polygon fill="red" stroke="red" stroke-width="0.590077" points="145.913,-162.264 146.975,-151.722 139.571,-159.301 145.913,-162.264"/>
</g>
<!-- B -->
<g id="node2" class="node"><title>B</title>
<polygon fill="lightgray" stroke="black" points="71.1436,-207.38 48.1436,-207.38 48.1436,-189.38 71.1436,-189.38 71.1436,-207.38"/>
<text text-anchor="middle" x="59.6436" y="-196.18" font-family="Times New Roman,serif" font-size="9.00">B</text>
</g>
<!-- A XOR B -->
<g id="node3" class="node"><title>A XOR B</title>
<ellipse fill="lightblue" stroke="black" cx="65.6436" cy="-37.4767" rx="37.4533" ry="37.4533"/>
<text text-anchor="middle" x="65.6436" y="-35.2767" font-family="Times New Roman,serif" font-size="9.00">A XOR B</text>
</g>
<!-- B&#45;&gt;A XOR B -->
<g id="edge1" class="edge"><title>B&#45;&gt;A XOR B</title>
<path fill="none" stroke="red" stroke-width="0.2274" stroke-dasharray="1,5" d="M47.9785,-191.862C34.8935,-184.945 14.3622,-171.73 5.64359,-153.38 -2.44841,-136.348 -0.746774,-128.694 5.64359,-110.953 10.9512,-96.2189 20.6988,-82.3554 30.8163,-70.7771"/>
<polygon fill="red" stroke="red" stroke-width="0.2274" points="33.6413,-72.8756 37.8298,-63.1439 28.4867,-68.1395 33.6413,-72.8756"/>
</g>
<!-- B&#45;&gt;801 -->
<g id="edge7" class="edge"><title>B&#45;&gt;801</title>
<path fill="none" stroke="green" stroke-width="0.267229" d="M64.203,-189.247C68.3589,-181.834 74.7357,-170.46 80.6629,-159.888"/>
<polygon fill="green" stroke="green" stroke-width="0.267229" points="83.8514,-161.357 85.6888,-150.923 77.7455,-157.934 83.8514,-161.357"/>
</g>
<!-- 613 -->
<g id="node5" class="node"><title>613</title>
<ellipse fill="white" stroke="black" cx="35.6436" cy="-132.167" rx="21.4286" ry="21.4286"/>
<text text-anchor="middle" x="35.6436" y="-129.967" font-family="Times New Roman,serif" font-size="9.00">613</text>
</g>
<!-- B&#45;&gt;613 -->
<g id="edge5" class="edge"><title>B&#45;&gt;613</title>
<path fill="none" stroke="green" stroke-width="0.648518" d="M56.604,-189.247C53.9849,-182.24 50.0428,-171.692 46.2816,-161.629"/>
<polygon fill="green" stroke="green" stroke-width="0.648518" points="49.5595,-160.402 42.7799,-152.26 43.0025,-162.853 49.5595,-160.402"/>
</g>
<!-- B&#45;&gt;168 -->
<g id="edge2" class="edge"><title>B&#45;&gt;168</title>
<path fill="none" stroke="green" stroke-width="0.694802" d="M71.3388,-189.608C84.5404,-180.829 106.654,-166.107 125.644,-153.38 127.078,-152.418 128.551,-151.43 130.037,-150.432"/>
<polygon fill="green" stroke="green" stroke-width="0.694802" points="132.176,-153.211 138.52,-144.725 128.269,-147.403 132.176,-153.211"/>
</g>
<!-- 801&#45;&gt;A XOR B -->
<g id="edge8" class="edge"><title>801&#45;&gt;A XOR B</title>
<path fill="none" stroke="red" stroke-width="0.543292" d="M89.2814,-111.509C86.5703,-103.133 83.2881,-92.9922 80.0434,-82.9673"/>
<polygon fill="red" stroke="red" stroke-width="0.543292" points="83.3732,-81.889 76.9639,-73.4527 76.7134,-84.0445 83.3732,-81.889"/>
</g>
<!-- 613&#45;&gt;A XOR B -->
<g id="edge6" class="edge"><title>613&#45;&gt;A XOR B</title>
<path fill="none" stroke="green" stroke-width="0.199895" d="M42.0058,-111.509C44.7169,-103.133 47.9991,-92.9922 51.2437,-82.9673"/>
<polygon fill="green" stroke="green" stroke-width="0.199895" points="54.5738,-84.0445 54.3233,-73.4527 47.9139,-81.889 54.5738,-84.0445"/>
</g>
<!-- 168&#45;&gt;A XOR B -->
<g id="edge3" class="edge"><title>168&#45;&gt;A XOR B</title>
<path fill="none" stroke="green" stroke-width="0.887284" d="M141.184,-116.274C129.654,-104.4 113.06,-87.3106 98.3604,-72.1713"/>
<polygon fill="green" stroke="green" stroke-width="0.887284" points="100.804,-69.6636 91.3267,-64.9274 95.7819,-74.54 100.804,-69.6636"/>
</g>
</g>
</svg>
