<?xml version="1.0" encoding="UTF-8" standalone="no"?>
<!DOCTYPE svg PUBLIC "-//W3C//DTD SVG 1.1//EN"
 "http://www.w3.org/Graphics/SVG/1.1/DTD/svg11.dtd">
<!-- Generated by graphviz version 2.38.0 (20140413.2041)
 -->
<!-- Title: %3 Pages: 1 -->
<svg width="125pt" height="386pt"
 viewBox="0.00 0.00 125.23 386.37" xmlns="http://www.w3.org/2000/svg" xmlns:xlink="http://www.w3.org/1999/xlink">
<g id="graph0" class="graph" transform="scale(1 1) rotate(0) translate(4 382.375)">
<title>%3</title>
<polygon fill="white" stroke="none" points="-4,4 -4,-382.375 121.225,-382.375 121.225,4 -4,4"/>
<!-- A -->
<g id="node1" class="node"><title>A</title>
<polygon fill="lightgray" stroke="black" points="49.9767,-223.128 26.9767,-223.128 26.9767,-205.128 49.9767,-205.128 49.9767,-223.128"/>
<text text-anchor="middle" x="38.4767" y="-211.928" font-family="Times New Roman,serif" font-size="9.00">A</text>
</g>
<!-- A XOR B -->
<g id="node3" class="node"><title>A XOR B</title>
<ellipse fill="lightblue" stroke="black" cx="37.4767" cy="-37.4767" rx="37.4533" ry="37.4533"/>
<text text-anchor="middle" x="37.4767" y="-35.2767" font-family="Times New Roman,serif" font-size="9.00">A XOR B</text>
</g>
<!-- A&#45;&gt;A XOR B -->
<g id="edge3" class="edge"><title>A&#45;&gt;A XOR B</title>
<path fill="none" stroke="red" stroke-width="0.496025" d="M38.4284,-204.705C38.3069,-183.473 37.9808,-126.517 37.7441,-85.1836"/>
<polygon fill="red" stroke="red" stroke-width="0.496025" points="41.2433,-85.0226 37.686,-75.0429 34.2434,-85.0628 41.2433,-85.0226"/>
</g>
<!-- 270 -->
<g id="node6" class="node"><title>270</title>
<ellipse fill="white" stroke="black" cx="86.4767" cy="-132.167" rx="21.4286" ry="21.4286"/>
<text text-anchor="middle" x="86.4767" y="-129.967" font-family="Times New Roman,serif" font-size="9.00">270</text>
</g>
<!-- A&#45;&gt;270 -->
<g id="edge2" class="edge"><title>A&#45;&gt;270</title>
<path fill="none" stroke="green" stroke-width="0.759994" d="M43.4327,-204.872C49.8001,-194.265 61.1587,-175.343 70.6093,-159.599"/>
<polygon fill="green" stroke="green" stroke-width="0.759994" points="73.7551,-161.159 75.9011,-150.784 67.7534,-157.557 73.7551,-161.159"/>
</g>
<!-- B -->
<g id="node2" class="node"><title>B</title>
<polygon fill="lightgray" stroke="black" points="76.9767,-378.375 53.9767,-378.375 53.9767,-360.375 76.9767,-360.375 76.9767,-378.375"/>
<text text-anchor="middle" x="65.4767" y="-367.175" font-family="Times New Roman,serif" font-size="9.00">B</text>
</g>
<!-- 1881 -->
<g id="node4" class="node"><title>1881</title>
<ellipse fill="white" stroke="black" cx="39.4767" cy="-299.626" rx="25" ry="25"/>
<text text-anchor="middle" x="39.4767" y="-297.426" font-family="Times New Roman,serif" font-size="9.00">1881</text>
</g>
<!-- B&#45;&gt;1881 -->
<g id="edge6" class="edge"><title>B&#45;&gt;1881</title>
<path fill="none" stroke="green" stroke-width="0.338497" d="M62.392,-360.337C59.6937,-353.306 55.5924,-342.619 51.6015,-332.22"/>
<polygon fill="green" stroke="green" stroke-width="0.338497" points="54.8615,-330.946 48.0108,-322.864 48.3262,-333.454 54.8615,-330.946"/>
</g>
<!-- 1086 -->
<g id="node5" class="node"><title>1086</title>
<ellipse fill="white" stroke="black" cx="92.4767" cy="-214.128" rx="25" ry="25"/>
<text text-anchor="middle" x="92.4767" y="-211.928" font-family="Times New Roman,serif" font-size="9.00">1086</text>
</g>
<!-- B&#45;&gt;1086 -->
<g id="edge4" class="edge"><title>B&#45;&gt;1086</title>
<path fill="none" stroke="green" stroke-width="0.626151" stroke-dasharray="1,5" d="M66.9697,-360.268C68.5908,-351.443 71.2469,-336.911 73.4767,-324.375 77.9962,-298.965 82.9927,-270.209 86.7272,-248.579"/>
<polygon fill="green" stroke="green" stroke-width="0.626151" points="90.2013,-249.029 88.4515,-238.579 83.3031,-247.839 90.2013,-249.029"/>
</g>
<!-- 1881&#45;&gt;A XOR B -->
<g id="edge8" class="edge"><title>1881&#45;&gt;A XOR B</title>
<path fill="none" stroke="green" stroke-width="0.437087" d="M29.4176,-277.011C24.7839,-265.881 19.8044,-251.936 17.4767,-238.877 8.05857,-186.042 17.1242,-124.522 25.8943,-83.7249"/>
<polygon fill="green" stroke="green" stroke-width="0.437087" points="29.3432,-84.3397 28.1062,-73.8173 22.5114,-82.8144 29.3432,-84.3397"/>
</g>
<!-- 1881&#45;&gt;1086 -->
<g id="edge7" class="edge"><title>1881&#45;&gt;1086</title>
<path fill="none" stroke="green" stroke-width="0.370201" d="M52.3065,-278.414C58.8333,-268.131 66.8837,-255.448 74.0596,-244.143"/>
<polygon fill="green" stroke="green" stroke-width="0.370201" points="77.1772,-245.763 79.5813,-235.444 71.2672,-242.011 77.1772,-245.763"/>
</g>
<!-- 1086&#45;&gt;270 -->
<g id="edge5" class="edge"><title>1086&#45;&gt;270</title>
<path fill="none" stroke="red" stroke-width="0.887251" d="M90.6765,-189.137C90.0679,-181.026 89.3804,-171.864 88.7405,-163.337"/>
<polygon fill="red" stroke="red" stroke-width="0.887251" points="92.2307,-163.074 87.9922,-153.364 85.2503,-163.598 92.2307,-163.074"/>
</g>
<!-- 270&#45;&gt;A XOR B -->
<g id="edge1" class="edge"><title>270&#45;&gt;A XOR B</title>
<path fill="none" stroke="green" stroke-width="1.50423" d="M76.7958,-112.854C71.8221,-103.446 65.5432,-91.5682 59.4717,-80.0831"/>
<polygon fill="green" stroke="green" stroke-width="1.50423" points="62.4437,-78.216 54.6758,-71.0111 56.2552,-81.4875 62.4437,-78.216"/>
</g>
</g>
</svg>
