<?xml version="1.0" encoding="utf-8" standalone="no"?>
<!DOCTYPE svg PUBLIC "-//W3C//DTD SVG 1.1//EN"
  "http://www.w3.org/Graphics/SVG/1.1/DTD/svg11.dtd">
<!-- Created with matplotlib (https://matplotlib.org/) -->
<svg height="345.6pt" version="1.1" viewBox="0 0 460.8 345.6" width="460.8pt" xmlns="http://www.w3.org/2000/svg" xmlns:xlink="http://www.w3.org/1999/xlink">
 <defs>
  <style type="text/css">
*{stroke-linecap:butt;stroke-linejoin:round;}
  </style>
 </defs>
 <g id="figure_1">
  <g id="patch_1">
   <path d="M 0 345.6 
L 460.8 345.6 
L 460.8 0 
L 0 0 
z
" style="fill:#ffffff;"/>
  </g>
  <g id="axes_1">
   <g id="patch_2">
    <path d="M 57.6 307.584 
L 414.72 307.584 
L 414.72 41.472 
L 57.6 41.472 
z
" style="fill:#ffffff;"/>
   </g>
   <g id="PolyCollection_1">
    <path clip-path="url(#pb497f14abe)" d="M 73.832727 55.822411 
L 73.832727 307.584 
L 77.840808 307.584 
L 81.848889 307.584 
L 85.85697 307.584 
L 89.865051 307.584 
L 93.873131 307.584 
L 97.881212 307.584 
L 101.889293 307.584 
L 105.897374 307.584 
L 109.905455 307.584 
L 113.913535 307.584 
L 117.921616 307.584 
L 121.929697 307.584 
L 125.937778 307.584 
L 129.945859 307.584 
L 133.953939 307.584 
L 137.96202 307.584 
L 141.970101 307.584 
L 145.978182 307.584 
L 149.986263 307.584 
L 153.994343 307.584 
L 158.002424 307.584 
L 162.010505 307.584 
L 166.018586 307.584 
L 170.026667 307.584 
L 174.034747 307.584 
L 178.042828 307.584 
L 182.050909 307.584 
L 186.05899 307.584 
L 190.067071 307.584 
L 194.075152 307.584 
L 198.083232 307.584 
L 202.091313 307.584 
L 206.099394 307.584 
L 210.107475 307.584 
L 214.115556 307.584 
L 218.123636 307.584 
L 222.131717 307.584 
L 226.139798 307.584 
L 230.147879 307.584 
L 234.15596 307.584 
L 238.16404 307.584 
L 242.172121 307.584 
L 246.180202 307.584 
L 250.188283 307.584 
L 254.196364 307.584 
L 258.204444 307.584 
L 262.212525 307.584 
L 266.220606 307.584 
L 270.228687 307.584 
L 274.236768 307.584 
L 278.244848 307.584 
L 282.252929 307.584 
L 286.26101 307.584 
L 290.269091 307.584 
L 294.277172 307.584 
L 298.285253 307.584 
L 302.293333 307.584 
L 306.301414 307.584 
L 310.309495 307.584 
L 314.317576 307.584 
L 318.325657 307.584 
L 322.333737 307.584 
L 326.341818 307.584 
L 330.349899 307.584 
L 334.35798 307.584 
L 338.366061 307.584 
L 342.374141 307.584 
L 346.382222 307.584 
L 350.390303 307.584 
L 354.398384 307.584 
L 358.406465 307.584 
L 362.414545 307.584 
L 366.422626 307.584 
L 370.430707 307.584 
L 374.438788 307.584 
L 378.446869 307.584 
L 382.454949 307.584 
L 386.46303 307.584 
L 390.471111 307.584 
L 394.479192 307.584 
L 398.487273 307.584 
L 398.487273 307.584 
L 398.487273 307.584 
L 394.479192 307.584 
L 390.471111 307.584 
L 386.46303 307.584 
L 382.454949 307.584 
L 378.446869 307.584 
L 374.438788 307.584 
L 370.430707 307.584 
L 366.422626 307.584 
L 362.414545 307.584 
L 358.406465 307.584 
L 354.398384 307.584 
L 350.390303 307.584 
L 346.382222 307.584 
L 342.374141 307.584 
L 338.366061 307.584 
L 334.35798 307.584 
L 330.349899 307.584 
L 326.341818 307.584 
L 322.333737 307.584 
L 318.325657 307.584 
L 314.317576 307.584 
L 310.309495 307.584 
L 306.301414 307.584 
L 302.293333 307.584 
L 298.285253 307.584 
L 294.277172 307.584 
L 290.269091 307.584 
L 286.26101 307.584 
L 282.252929 307.584 
L 278.244848 307.584 
L 274.236768 307.584 
L 270.228687 307.584 
L 266.220606 307.584 
L 262.212525 307.584 
L 258.204444 307.584 
L 254.196364 307.584 
L 250.188283 307.584 
L 246.180202 307.584 
L 242.172121 307.584 
L 238.16404 307.584 
L 234.15596 307.584 
L 230.147879 307.584 
L 226.139798 307.584 
L 222.131717 307.584 
L 218.123636 275.694199 
L 214.115556 260.588503 
L 210.107475 267.302146 
L 206.099394 280.72943 
L 202.091313 255.553272 
L 198.083232 247.161219 
L 194.075152 290.799894 
L 190.067071 268.980556 
L 186.05899 279.05102 
L 182.050909 287.443073 
L 178.042828 284.086252 
L 174.034747 265.623735 
L 170.026667 265.623735 
L 166.018586 279.05102 
L 162.010505 279.05102 
L 158.002424 270.658967 
L 153.994343 274.015788 
L 149.986263 210.236185 
L 145.978182 232.055523 
L 141.970101 211.914596 
L 137.96202 245.482808 
L 133.953939 270.658967 
L 129.945859 210.236185 
L 125.937778 203.522543 
L 121.929697 174.989563 
L 117.921616 163.240689 
L 113.913535 141.421351 
L 109.905455 161.562278 
L 105.897374 154.848636 
L 101.889293 144.778172 
L 97.881212 117.923603 
L 93.873131 117.923603 
L 89.865051 141.421351 
L 85.85697 126.315656 
L 81.848889 195.13049 
L 77.840808 55.822411 
L 73.832727 55.822411 
z
" style="fill:#1f77b4;"/>
   </g>
   <g id="PolyCollection_2">
    <path clip-path="url(#pb497f14abe)" d="M 73.832727 55.822411 
L 73.832727 55.822411 
L 77.840808 55.822411 
L 81.848889 195.13049 
L 85.85697 126.315656 
L 89.865051 141.421351 
L 93.873131 117.923603 
L 97.881212 117.923603 
L 101.889293 144.778172 
L 105.897374 154.848636 
L 109.905455 161.562278 
L 113.913535 141.421351 
L 117.921616 163.240689 
L 121.929697 174.989563 
L 125.937778 203.522543 
L 129.945859 210.236185 
L 133.953939 270.658967 
L 137.96202 245.482808 
L 141.970101 211.914596 
L 145.978182 232.055523 
L 149.986263 210.236185 
L 153.994343 274.015788 
L 158.002424 270.658967 
L 162.010505 279.05102 
L 166.018586 279.05102 
L 170.026667 265.623735 
L 174.034747 265.623735 
L 178.042828 284.086252 
L 182.050909 287.443073 
L 186.05899 279.05102 
L 190.067071 268.980556 
L 194.075152 290.799894 
L 198.083232 247.161219 
L 202.091313 255.553272 
L 206.099394 280.72943 
L 210.107475 267.302146 
L 214.115556 260.588503 
L 218.123636 275.694199 
L 222.131717 307.584 
L 226.139798 307.584 
L 230.147879 307.584 
L 234.15596 307.584 
L 238.16404 307.584 
L 242.172121 307.584 
L 246.180202 307.584 
L 250.188283 307.584 
L 254.196364 307.584 
L 258.204444 307.584 
L 262.212525 307.584 
L 266.220606 307.584 
L 270.228687 307.584 
L 274.236768 307.584 
L 278.244848 307.584 
L 282.252929 307.584 
L 286.26101 307.584 
L 290.269091 307.584 
L 294.277172 307.584 
L 298.285253 307.584 
L 302.293333 307.584 
L 306.301414 307.584 
L 310.309495 307.584 
L 314.317576 307.584 
L 318.325657 307.584 
L 322.333737 307.584 
L 326.341818 307.584 
L 330.349899 307.584 
L 334.35798 307.584 
L 338.366061 307.584 
L 342.374141 307.584 
L 346.382222 307.584 
L 350.390303 307.584 
L 354.398384 307.584 
L 358.406465 307.584 
L 362.414545 307.584 
L 366.422626 307.584 
L 370.430707 307.584 
L 374.438788 307.584 
L 378.446869 307.584 
L 382.454949 307.584 
L 386.46303 307.584 
L 390.471111 307.584 
L 394.479192 307.584 
L 398.487273 307.584 
L 398.487273 307.584 
L 398.487273 307.584 
L 394.479192 307.584 
L 390.471111 307.584 
L 386.46303 307.584 
L 382.454949 307.584 
L 378.446869 307.584 
L 374.438788 307.584 
L 370.430707 307.584 
L 366.422626 307.584 
L 362.414545 307.584 
L 358.406465 307.584 
L 354.398384 307.584 
L 350.390303 307.584 
L 346.382222 307.584 
L 342.374141 307.584 
L 338.366061 307.584 
L 334.35798 307.584 
L 330.349899 307.584 
L 326.341818 307.584 
L 322.333737 307.584 
L 318.325657 307.584 
L 314.317576 307.584 
L 310.309495 307.584 
L 306.301414 307.584 
L 302.293333 307.584 
L 298.285253 307.584 
L 294.277172 307.584 
L 290.269091 307.584 
L 286.26101 307.584 
L 282.252929 307.584 
L 278.244848 195.13049 
L 274.236768 201.844132 
L 270.228687 203.522543 
L 266.220606 203.522543 
L 262.212525 211.914596 
L 258.204444 235.412344 
L 254.196364 232.055523 
L 250.188283 240.447576 
L 246.180202 270.658967 
L 242.172121 287.443073 
L 238.16404 262.266914 
L 234.15596 233.733934 
L 230.147879 267.302146 
L 226.139798 262.266914 
L 222.131717 215.271417 
L 218.123636 191.773669 
L 214.115556 180.024795 
L 210.107475 227.020291 
L 206.099394 265.623735 
L 202.091313 243.804397 
L 198.083232 183.381616 
L 194.075152 195.13049 
L 190.067071 243.804397 
L 186.05899 252.19645 
L 182.050909 200.165722 
L 178.042828 235.412344 
L 174.034747 200.165722 
L 170.026667 205.200954 
L 166.018586 216.949828 
L 162.010505 211.914596 
L 158.002424 201.844132 
L 153.994343 206.879364 
L 149.986263 156.527046 
L 145.978182 176.667974 
L 141.970101 139.74294 
L 137.96202 171.632742 
L 133.953939 205.200954 
L 129.945859 141.421351 
L 125.937778 117.923603 
L 121.929697 116.245192 
L 117.921616 77.641748 
L 113.913535 60.857642 
L 109.905455 55.822411 
L 105.897374 55.822411 
L 101.889293 55.822411 
L 97.881212 55.822411 
L 93.873131 55.822411 
L 89.865051 55.822411 
L 85.85697 55.822411 
L 81.848889 55.822411 
L 77.840808 55.822411 
L 73.832727 55.822411 
z
" style="fill:#ff7f0e;"/>
   </g>
   <g id="PolyCollection_3">
    <path clip-path="url(#pb497f14abe)" d="M 73.832727 55.822411 
L 73.832727 55.822411 
L 77.840808 55.822411 
L 81.848889 55.822411 
L 85.85697 55.822411 
L 89.865051 55.822411 
L 93.873131 55.822411 
L 97.881212 55.822411 
L 101.889293 55.822411 
L 105.897374 55.822411 
L 109.905455 55.822411 
L 113.913535 60.857642 
L 117.921616 77.641748 
L 121.929697 116.245192 
L 125.937778 117.923603 
L 129.945859 141.421351 
L 133.953939 205.200954 
L 137.96202 171.632742 
L 141.970101 139.74294 
L 145.978182 176.667974 
L 149.986263 156.527046 
L 153.994343 206.879364 
L 158.002424 201.844132 
L 162.010505 211.914596 
L 166.018586 216.949828 
L 170.026667 205.200954 
L 174.034747 200.165722 
L 178.042828 235.412344 
L 182.050909 200.165722 
L 186.05899 252.19645 
L 190.067071 243.804397 
L 194.075152 195.13049 
L 198.083232 183.381616 
L 202.091313 243.804397 
L 206.099394 265.623735 
L 210.107475 227.020291 
L 214.115556 180.024795 
L 218.123636 191.773669 
L 222.131717 215.271417 
L 226.139798 262.266914 
L 230.147879 267.302146 
L 234.15596 233.733934 
L 238.16404 262.266914 
L 242.172121 287.443073 
L 246.180202 270.658967 
L 250.188283 240.447576 
L 254.196364 232.055523 
L 258.204444 235.412344 
L 262.212525 211.914596 
L 266.220606 203.522543 
L 270.228687 203.522543 
L 274.236768 201.844132 
L 278.244848 195.13049 
L 282.252929 307.584 
L 286.26101 307.584 
L 290.269091 307.584 
L 294.277172 307.584 
L 298.285253 307.584 
L 302.293333 307.584 
L 306.301414 307.584 
L 310.309495 307.584 
L 314.317576 307.584 
L 318.325657 307.584 
L 322.333737 307.584 
L 326.341818 307.584 
L 330.349899 307.584 
L 334.35798 307.584 
L 338.366061 307.584 
L 342.374141 307.584 
L 346.382222 307.584 
L 350.390303 307.584 
L 354.398384 307.584 
L 358.406465 307.584 
L 362.414545 307.584 
L 366.422626 307.584 
L 370.430707 307.584 
L 374.438788 307.584 
L 378.446869 307.584 
L 382.454949 307.584 
L 386.46303 307.584 
L 390.471111 307.584 
L 394.479192 307.584 
L 398.487273 307.584 
L 398.487273 260.588503 
L 398.487273 260.588503 
L 394.479192 248.839629 
L 390.471111 265.623735 
L 386.46303 238.769166 
L 382.454949 221.98506 
L 378.446869 208.557775 
L 374.438788 233.733934 
L 370.430707 243.804397 
L 366.422626 245.482808 
L 362.414545 242.125987 
L 358.406465 268.980556 
L 354.398384 245.482808 
L 350.390303 237.090755 
L 346.382222 243.804397 
L 342.374141 274.015788 
L 338.366061 252.19645 
L 334.35798 243.804397 
L 330.349899 255.553272 
L 326.341818 248.839629 
L 322.333737 257.231682 
L 318.325657 247.161219 
L 314.317576 253.874861 
L 310.309495 260.588503 
L 306.301414 260.588503 
L 302.293333 260.588503 
L 298.285253 247.161219 
L 294.277172 255.553272 
L 290.269091 275.694199 
L 286.26101 257.231682 
L 282.252929 245.482808 
L 278.244848 166.59751 
L 274.236768 131.350887 
L 270.228687 136.386119 
L 266.220606 127.994066 
L 262.212525 141.421351 
L 258.204444 188.416848 
L 254.196364 193.452079 
L 250.188283 196.808901 
L 246.180202 227.020291 
L 242.172121 274.015788 
L 238.16404 216.949828 
L 234.15596 131.350887 
L 230.147879 116.245192 
L 226.139798 117.923603 
L 222.131717 112.888371 
L 218.123636 112.888371 
L 214.115556 104.496318 
L 210.107475 141.421351 
L 206.099394 166.59751 
L 202.091313 153.170225 
L 198.083232 91.069033 
L 194.075152 92.747444 
L 190.067071 131.350887 
L 186.05899 97.782675 
L 182.050909 153.170225 
L 178.042828 171.632742 
L 174.034747 178.346384 
L 170.026667 153.170225 
L 166.018586 134.707709 
L 162.010505 168.275921 
L 158.002424 114.566781 
L 153.994343 126.315656 
L 149.986263 127.994066 
L 145.978182 124.637245 
L 141.970101 121.280424 
L 137.96202 101.139497 
L 133.953939 72.606517 
L 129.945859 55.822411 
L 125.937778 55.822411 
L 121.929697 55.822411 
L 117.921616 55.822411 
L 113.913535 55.822411 
L 109.905455 55.822411 
L 105.897374 55.822411 
L 101.889293 55.822411 
L 97.881212 55.822411 
L 93.873131 55.822411 
L 89.865051 55.822411 
L 85.85697 55.822411 
L 81.848889 55.822411 
L 77.840808 55.822411 
L 73.832727 55.822411 
z
" style="fill:#2ca02c;"/>
   </g>
   <g id="PolyCollection_4">
    <path clip-path="url(#pb497f14abe)" d="M 73.832727 55.822411 
L 73.832727 55.822411 
L 77.840808 55.822411 
L 81.848889 55.822411 
L 85.85697 55.822411 
L 89.865051 55.822411 
L 93.873131 55.822411 
L 97.881212 55.822411 
L 101.889293 55.822411 
L 105.897374 55.822411 
L 109.905455 55.822411 
L 113.913535 55.822411 
L 117.921616 55.822411 
L 121.929697 55.822411 
L 125.937778 55.822411 
L 129.945859 55.822411 
L 133.953939 72.606517 
L 137.96202 101.139497 
L 141.970101 121.280424 
L 145.978182 124.637245 
L 149.986263 127.994066 
L 153.994343 126.315656 
L 158.002424 114.566781 
L 162.010505 168.275921 
L 166.018586 134.707709 
L 170.026667 153.170225 
L 174.034747 178.346384 
L 178.042828 171.632742 
L 182.050909 153.170225 
L 186.05899 97.782675 
L 190.067071 131.350887 
L 194.075152 92.747444 
L 198.083232 91.069033 
L 202.091313 153.170225 
L 206.099394 166.59751 
L 210.107475 141.421351 
L 214.115556 104.496318 
L 218.123636 112.888371 
L 222.131717 112.888371 
L 226.139798 117.923603 
L 230.147879 116.245192 
L 234.15596 131.350887 
L 238.16404 216.949828 
L 242.172121 274.015788 
L 246.180202 227.020291 
L 250.188283 196.808901 
L 254.196364 193.452079 
L 258.204444 188.416848 
L 262.212525 141.421351 
L 266.220606 127.994066 
L 270.228687 136.386119 
L 274.236768 131.350887 
L 278.244848 166.59751 
L 282.252929 245.482808 
L 286.26101 257.231682 
L 290.269091 275.694199 
L 294.277172 255.553272 
L 298.285253 247.161219 
L 302.293333 260.588503 
L 306.301414 260.588503 
L 310.309495 260.588503 
L 314.317576 253.874861 
L 318.325657 247.161219 
L 322.333737 257.231682 
L 326.341818 248.839629 
L 330.349899 255.553272 
L 334.35798 243.804397 
L 338.366061 252.19645 
L 342.374141 274.015788 
L 346.382222 243.804397 
L 350.390303 237.090755 
L 354.398384 245.482808 
L 358.406465 268.980556 
L 362.414545 242.125987 
L 366.422626 245.482808 
L 370.430707 243.804397 
L 374.438788 233.733934 
L 378.446869 208.557775 
L 382.454949 221.98506 
L 386.46303 238.769166 
L 390.471111 265.623735 
L 394.479192 248.839629 
L 398.487273 260.588503 
L 398.487273 260.588503 
L 398.487273 260.588503 
L 394.479192 248.839629 
L 390.471111 265.623735 
L 386.46303 238.769166 
L 382.454949 221.98506 
L 378.446869 208.557775 
L 374.438788 233.733934 
L 370.430707 243.804397 
L 366.422626 245.482808 
L 362.414545 242.125987 
L 358.406465 268.980556 
L 354.398384 245.482808 
L 350.390303 237.090755 
L 346.382222 243.804397 
L 342.374141 274.015788 
L 338.366061 252.19645 
L 334.35798 243.804397 
L 330.349899 255.553272 
L 326.341818 248.839629 
L 322.333737 257.231682 
L 318.325657 247.161219 
L 314.317576 253.874861 
L 310.309495 260.588503 
L 306.301414 260.588503 
L 302.293333 260.588503 
L 298.285253 247.161219 
L 294.277172 255.553272 
L 290.269091 275.694199 
L 286.26101 257.231682 
L 282.252929 245.482808 
L 278.244848 166.59751 
L 274.236768 131.350887 
L 270.228687 136.386119 
L 266.220606 127.994066 
L 262.212525 141.421351 
L 258.204444 121.280424 
L 254.196364 122.958834 
L 250.188283 127.994066 
L 246.180202 121.280424 
L 242.172121 126.315656 
L 238.16404 94.425854 
L 234.15596 94.425854 
L 230.147879 94.425854 
L 226.139798 94.425854 
L 222.131717 96.104265 
L 218.123636 94.425854 
L 214.115556 86.033801 
L 210.107475 91.069033 
L 206.099394 97.782675 
L 202.091313 89.390623 
L 198.083232 75.963338 
L 194.075152 69.249695 
L 190.067071 70.928106 
L 186.05899 67.571285 
L 182.050909 109.53155 
L 178.042828 80.99857 
L 174.034747 144.778172 
L 170.026667 121.280424 
L 166.018586 101.139497 
L 162.010505 131.350887 
L 158.002424 72.606517 
L 153.994343 87.712212 
L 149.986263 89.390623 
L 145.978182 74.284927 
L 141.970101 75.963338 
L 137.96202 57.500821 
L 133.953939 55.822411 
L 129.945859 55.822411 
L 125.937778 55.822411 
L 121.929697 55.822411 
L 117.921616 55.822411 
L 113.913535 55.822411 
L 109.905455 55.822411 
L 105.897374 55.822411 
L 101.889293 55.822411 
L 97.881212 55.822411 
L 93.873131 55.822411 
L 89.865051 55.822411 
L 85.85697 55.822411 
L 81.848889 55.822411 
L 77.840808 55.822411 
L 73.832727 55.822411 
z
" style="fill:#d62728;"/>
   </g>
   <g id="PolyCollection_5">
    <path clip-path="url(#pb497f14abe)" d="M 73.832727 55.822411 
L 73.832727 55.822411 
L 77.840808 55.822411 
L 81.848889 55.822411 
L 85.85697 55.822411 
L 89.865051 55.822411 
L 93.873131 55.822411 
L 97.881212 55.822411 
L 101.889293 55.822411 
L 105.897374 55.822411 
L 109.905455 55.822411 
L 113.913535 55.822411 
L 117.921616 55.822411 
L 121.929697 55.822411 
L 125.937778 55.822411 
L 129.945859 55.822411 
L 133.953939 55.822411 
L 137.96202 57.500821 
L 141.970101 75.963338 
L 145.978182 74.284927 
L 149.986263 89.390623 
L 153.994343 87.712212 
L 158.002424 72.606517 
L 162.010505 131.350887 
L 166.018586 101.139497 
L 170.026667 121.280424 
L 174.034747 144.778172 
L 178.042828 80.99857 
L 182.050909 109.53155 
L 186.05899 67.571285 
L 190.067071 70.928106 
L 194.075152 69.249695 
L 198.083232 75.963338 
L 202.091313 89.390623 
L 206.099394 97.782675 
L 210.107475 91.069033 
L 214.115556 86.033801 
L 218.123636 94.425854 
L 222.131717 96.104265 
L 226.139798 94.425854 
L 230.147879 94.425854 
L 234.15596 94.425854 
L 238.16404 94.425854 
L 242.172121 126.315656 
L 246.180202 121.280424 
L 250.188283 127.994066 
L 254.196364 122.958834 
L 258.204444 121.280424 
L 262.212525 141.421351 
L 266.220606 127.994066 
L 270.228687 136.386119 
L 274.236768 131.350887 
L 278.244848 166.59751 
L 282.252929 245.482808 
L 286.26101 257.231682 
L 290.269091 275.694199 
L 294.277172 255.553272 
L 298.285253 247.161219 
L 302.293333 260.588503 
L 306.301414 260.588503 
L 310.309495 260.588503 
L 314.317576 253.874861 
L 318.325657 247.161219 
L 322.333737 257.231682 
L 326.341818 248.839629 
L 330.349899 255.553272 
L 334.35798 243.804397 
L 338.366061 252.19645 
L 342.374141 274.015788 
L 346.382222 243.804397 
L 350.390303 237.090755 
L 354.398384 245.482808 
L 358.406465 268.980556 
L 362.414545 242.125987 
L 366.422626 245.482808 
L 370.430707 243.804397 
L 374.438788 233.733934 
L 378.446869 208.557775 
L 382.454949 221.98506 
L 386.46303 238.769166 
L 390.471111 265.623735 
L 394.479192 248.839629 
L 398.487273 260.588503 
L 398.487273 193.452079 
L 398.487273 193.452079 
L 394.479192 191.773669 
L 390.471111 191.773669 
L 386.46303 191.773669 
L 382.454949 174.989563 
L 378.446869 168.275921 
L 374.438788 168.275921 
L 370.430707 171.632742 
L 366.422626 173.311152 
L 362.414545 173.311152 
L 358.406465 169.954331 
L 354.398384 171.632742 
L 350.390303 176.667974 
L 346.382222 180.024795 
L 342.374141 183.381616 
L 338.366061 185.060026 
L 334.35798 176.667974 
L 330.349899 176.667974 
L 326.341818 178.346384 
L 322.333737 178.346384 
L 318.325657 173.311152 
L 314.317576 173.311152 
L 310.309495 181.703205 
L 306.301414 183.381616 
L 302.293333 185.060026 
L 298.285253 174.989563 
L 294.277172 164.919099 
L 290.269091 168.275921 
L 286.26101 141.421351 
L 282.252929 131.350887 
L 278.244848 107.853139 
L 274.236768 57.500821 
L 270.228687 55.822411 
L 266.220606 54.144 
L 262.212525 55.822411 
L 258.204444 55.822411 
L 254.196364 55.822411 
L 250.188283 55.822411 
L 246.180202 54.144 
L 242.172121 55.822411 
L 238.16404 55.822411 
L 234.15596 55.822411 
L 230.147879 55.822411 
L 226.139798 55.822411 
L 222.131717 55.822411 
L 218.123636 55.822411 
L 214.115556 55.822411 
L 210.107475 57.500821 
L 206.099394 57.500821 
L 202.091313 55.822411 
L 198.083232 54.144 
L 194.075152 54.144 
L 190.067071 54.144 
L 186.05899 55.822411 
L 182.050909 55.822411 
L 178.042828 55.822411 
L 174.034747 55.822411 
L 170.026667 57.500821 
L 166.018586 57.500821 
L 162.010505 57.500821 
L 158.002424 55.822411 
L 153.994343 54.144 
L 149.986263 55.822411 
L 145.978182 54.144 
L 141.970101 55.822411 
L 137.96202 55.822411 
L 133.953939 55.822411 
L 129.945859 55.822411 
L 125.937778 55.822411 
L 121.929697 55.822411 
L 117.921616 55.822411 
L 113.913535 55.822411 
L 109.905455 55.822411 
L 105.897374 55.822411 
L 101.889293 55.822411 
L 97.881212 55.822411 
L 93.873131 55.822411 
L 89.865051 55.822411 
L 85.85697 55.822411 
L 81.848889 55.822411 
L 77.840808 55.822411 
L 73.832727 55.822411 
z
" style="fill:#9467bd;"/>
   </g>
   <g id="PolyCollection_6">
    <path clip-path="url(#pb497f14abe)" d="M 73.832727 55.822411 
L 73.832727 55.822411 
L 77.840808 55.822411 
L 81.848889 55.822411 
L 85.85697 55.822411 
L 89.865051 55.822411 
L 93.873131 55.822411 
L 97.881212 55.822411 
L 101.889293 55.822411 
L 105.897374 55.822411 
L 109.905455 55.822411 
L 113.913535 55.822411 
L 117.921616 55.822411 
L 121.929697 55.822411 
L 125.937778 55.822411 
L 129.945859 55.822411 
L 133.953939 55.822411 
L 137.96202 55.822411 
L 141.970101 55.822411 
L 145.978182 54.144 
L 149.986263 55.822411 
L 153.994343 54.144 
L 158.002424 55.822411 
L 162.010505 57.500821 
L 166.018586 57.500821 
L 170.026667 57.500821 
L 174.034747 55.822411 
L 178.042828 55.822411 
L 182.050909 55.822411 
L 186.05899 55.822411 
L 190.067071 54.144 
L 194.075152 54.144 
L 198.083232 54.144 
L 202.091313 55.822411 
L 206.099394 57.500821 
L 210.107475 57.500821 
L 214.115556 55.822411 
L 218.123636 55.822411 
L 222.131717 55.822411 
L 226.139798 55.822411 
L 230.147879 55.822411 
L 234.15596 55.822411 
L 238.16404 55.822411 
L 242.172121 55.822411 
L 246.180202 54.144 
L 250.188283 55.822411 
L 254.196364 55.822411 
L 258.204444 55.822411 
L 262.212525 55.822411 
L 266.220606 54.144 
L 270.228687 55.822411 
L 274.236768 57.500821 
L 278.244848 107.853139 
L 282.252929 131.350887 
L 286.26101 141.421351 
L 290.269091 168.275921 
L 294.277172 164.919099 
L 298.285253 174.989563 
L 302.293333 185.060026 
L 306.301414 183.381616 
L 310.309495 181.703205 
L 314.317576 173.311152 
L 318.325657 173.311152 
L 322.333737 178.346384 
L 326.341818 178.346384 
L 330.349899 176.667974 
L 334.35798 176.667974 
L 338.366061 185.060026 
L 342.374141 183.381616 
L 346.382222 180.024795 
L 350.390303 176.667974 
L 354.398384 171.632742 
L 358.406465 169.954331 
L 362.414545 173.311152 
L 366.422626 173.311152 
L 370.430707 171.632742 
L 374.438788 168.275921 
L 378.446869 168.275921 
L 382.454949 174.989563 
L 386.46303 191.773669 
L 390.471111 191.773669 
L 394.479192 191.773669 
L 398.487273 193.452079 
L 398.487273 151.491815 
L 398.487273 151.491815 
L 394.479192 148.134993 
L 390.471111 148.134993 
L 386.46303 149.813404 
L 382.454949 134.707709 
L 378.446869 126.315656 
L 374.438788 124.637245 
L 370.430707 127.994066 
L 366.422626 126.315656 
L 362.414545 126.315656 
L 358.406465 119.602013 
L 354.398384 116.245192 
L 350.390303 119.602013 
L 346.382222 122.958834 
L 342.374141 126.315656 
L 338.366061 129.672477 
L 334.35798 122.958834 
L 330.349899 127.994066 
L 326.341818 127.994066 
L 322.333737 131.350887 
L 318.325657 126.315656 
L 314.317576 127.994066 
L 310.309495 126.315656 
L 306.301414 121.280424 
L 302.293333 124.637245 
L 298.285253 131.350887 
L 294.277172 151.491815 
L 290.269091 121.280424 
L 286.26101 62.536053 
L 282.252929 57.500821 
L 278.244848 55.822411 
L 274.236768 57.500821 
L 270.228687 55.822411 
L 266.220606 54.144 
L 262.212525 55.822411 
L 258.204444 55.822411 
L 254.196364 55.822411 
L 250.188283 55.822411 
L 246.180202 54.144 
L 242.172121 55.822411 
L 238.16404 55.822411 
L 234.15596 55.822411 
L 230.147879 55.822411 
L 226.139798 55.822411 
L 222.131717 55.822411 
L 218.123636 55.822411 
L 214.115556 55.822411 
L 210.107475 57.500821 
L 206.099394 57.500821 
L 202.091313 55.822411 
L 198.083232 54.144 
L 194.075152 54.144 
L 190.067071 54.144 
L 186.05899 55.822411 
L 182.050909 55.822411 
L 178.042828 55.822411 
L 174.034747 55.822411 
L 170.026667 57.500821 
L 166.018586 57.500821 
L 162.010505 57.500821 
L 158.002424 55.822411 
L 153.994343 54.144 
L 149.986263 55.822411 
L 145.978182 54.144 
L 141.970101 55.822411 
L 137.96202 55.822411 
L 133.953939 55.822411 
L 129.945859 55.822411 
L 125.937778 55.822411 
L 121.929697 55.822411 
L 117.921616 55.822411 
L 113.913535 55.822411 
L 109.905455 55.822411 
L 105.897374 55.822411 
L 101.889293 55.822411 
L 97.881212 55.822411 
L 93.873131 55.822411 
L 89.865051 55.822411 
L 85.85697 55.822411 
L 81.848889 55.822411 
L 77.840808 55.822411 
L 73.832727 55.822411 
z
" style="fill:#8c564b;"/>
   </g>
   <g id="PolyCollection_7">
    <path clip-path="url(#pb497f14abe)" d="M 73.832727 55.822411 
L 73.832727 55.822411 
L 77.840808 55.822411 
L 81.848889 55.822411 
L 85.85697 55.822411 
L 89.865051 55.822411 
L 93.873131 55.822411 
L 97.881212 55.822411 
L 101.889293 55.822411 
L 105.897374 55.822411 
L 109.905455 55.822411 
L 113.913535 55.822411 
L 117.921616 55.822411 
L 121.929697 55.822411 
L 125.937778 55.822411 
L 129.945859 55.822411 
L 133.953939 55.822411 
L 137.96202 55.822411 
L 141.970101 55.822411 
L 145.978182 54.144 
L 149.986263 55.822411 
L 153.994343 54.144 
L 158.002424 55.822411 
L 162.010505 57.500821 
L 166.018586 57.500821 
L 170.026667 57.500821 
L 174.034747 55.822411 
L 178.042828 55.822411 
L 182.050909 55.822411 
L 186.05899 55.822411 
L 190.067071 54.144 
L 194.075152 54.144 
L 198.083232 54.144 
L 202.091313 55.822411 
L 206.099394 57.500821 
L 210.107475 57.500821 
L 214.115556 55.822411 
L 218.123636 55.822411 
L 222.131717 55.822411 
L 226.139798 55.822411 
L 230.147879 55.822411 
L 234.15596 55.822411 
L 238.16404 55.822411 
L 242.172121 55.822411 
L 246.180202 54.144 
L 250.188283 55.822411 
L 254.196364 55.822411 
L 258.204444 55.822411 
L 262.212525 55.822411 
L 266.220606 54.144 
L 270.228687 55.822411 
L 274.236768 57.500821 
L 278.244848 55.822411 
L 282.252929 57.500821 
L 286.26101 62.536053 
L 290.269091 121.280424 
L 294.277172 151.491815 
L 298.285253 131.350887 
L 302.293333 124.637245 
L 306.301414 121.280424 
L 310.309495 126.315656 
L 314.317576 127.994066 
L 318.325657 126.315656 
L 322.333737 131.350887 
L 326.341818 127.994066 
L 330.349899 127.994066 
L 334.35798 122.958834 
L 338.366061 129.672477 
L 342.374141 126.315656 
L 346.382222 122.958834 
L 350.390303 119.602013 
L 354.398384 116.245192 
L 358.406465 119.602013 
L 362.414545 126.315656 
L 366.422626 126.315656 
L 370.430707 127.994066 
L 374.438788 124.637245 
L 378.446869 126.315656 
L 382.454949 134.707709 
L 386.46303 149.813404 
L 390.471111 148.134993 
L 394.479192 148.134993 
L 398.487273 151.491815 
L 398.487273 97.782675 
L 398.487273 97.782675 
L 394.479192 92.747444 
L 390.471111 91.069033 
L 386.46303 84.355391 
L 382.454949 65.892874 
L 378.446869 55.822411 
L 374.438788 55.822411 
L 370.430707 55.822411 
L 366.422626 57.500821 
L 362.414545 57.500821 
L 358.406465 55.822411 
L 354.398384 55.822411 
L 350.390303 55.822411 
L 346.382222 55.822411 
L 342.374141 55.822411 
L 338.366061 55.822411 
L 334.35798 55.822411 
L 330.349899 55.822411 
L 326.341818 57.500821 
L 322.333737 55.822411 
L 318.325657 55.822411 
L 314.317576 55.822411 
L 310.309495 54.144 
L 306.301414 54.144 
L 302.293333 54.144 
L 298.285253 54.144 
L 294.277172 55.822411 
L 290.269091 57.500821 
L 286.26101 55.822411 
L 282.252929 57.500821 
L 278.244848 55.822411 
L 274.236768 57.500821 
L 270.228687 55.822411 
L 266.220606 54.144 
L 262.212525 55.822411 
L 258.204444 55.822411 
L 254.196364 55.822411 
L 250.188283 55.822411 
L 246.180202 54.144 
L 242.172121 55.822411 
L 238.16404 55.822411 
L 234.15596 55.822411 
L 230.147879 55.822411 
L 226.139798 55.822411 
L 222.131717 55.822411 
L 218.123636 55.822411 
L 214.115556 55.822411 
L 210.107475 57.500821 
L 206.099394 57.500821 
L 202.091313 55.822411 
L 198.083232 54.144 
L 194.075152 54.144 
L 190.067071 54.144 
L 186.05899 55.822411 
L 182.050909 55.822411 
L 178.042828 55.822411 
L 174.034747 55.822411 
L 170.026667 57.500821 
L 166.018586 57.500821 
L 162.010505 57.500821 
L 158.002424 55.822411 
L 153.994343 54.144 
L 149.986263 55.822411 
L 145.978182 54.144 
L 141.970101 55.822411 
L 137.96202 55.822411 
L 133.953939 55.822411 
L 129.945859 55.822411 
L 125.937778 55.822411 
L 121.929697 55.822411 
L 117.921616 55.822411 
L 113.913535 55.822411 
L 109.905455 55.822411 
L 105.897374 55.822411 
L 101.889293 55.822411 
L 97.881212 55.822411 
L 93.873131 55.822411 
L 89.865051 55.822411 
L 85.85697 55.822411 
L 81.848889 55.822411 
L 77.840808 55.822411 
L 73.832727 55.822411 
z
" style="fill:#e377c2;"/>
   </g>
   <g id="PolyCollection_8">
    <path clip-path="url(#pb497f14abe)" d="M 73.832727 55.822411 
L 73.832727 55.822411 
L 77.840808 55.822411 
L 81.848889 55.822411 
L 85.85697 55.822411 
L 89.865051 55.822411 
L 93.873131 55.822411 
L 97.881212 55.822411 
L 101.889293 55.822411 
L 105.897374 55.822411 
L 109.905455 55.822411 
L 113.913535 55.822411 
L 117.921616 55.822411 
L 121.929697 55.822411 
L 125.937778 55.822411 
L 129.945859 55.822411 
L 133.953939 55.822411 
L 137.96202 55.822411 
L 141.970101 55.822411 
L 145.978182 54.144 
L 149.986263 55.822411 
L 153.994343 54.144 
L 158.002424 55.822411 
L 162.010505 57.500821 
L 166.018586 57.500821 
L 170.026667 57.500821 
L 174.034747 55.822411 
L 178.042828 55.822411 
L 182.050909 55.822411 
L 186.05899 55.822411 
L 190.067071 54.144 
L 194.075152 54.144 
L 198.083232 54.144 
L 202.091313 55.822411 
L 206.099394 57.500821 
L 210.107475 57.500821 
L 214.115556 55.822411 
L 218.123636 55.822411 
L 222.131717 55.822411 
L 226.139798 55.822411 
L 230.147879 55.822411 
L 234.15596 55.822411 
L 238.16404 55.822411 
L 242.172121 55.822411 
L 246.180202 54.144 
L 250.188283 55.822411 
L 254.196364 55.822411 
L 258.204444 55.822411 
L 262.212525 55.822411 
L 266.220606 54.144 
L 270.228687 55.822411 
L 274.236768 57.500821 
L 278.244848 55.822411 
L 282.252929 57.500821 
L 286.26101 55.822411 
L 290.269091 57.500821 
L 294.277172 55.822411 
L 298.285253 54.144 
L 302.293333 54.144 
L 306.301414 54.144 
L 310.309495 54.144 
L 314.317576 55.822411 
L 318.325657 55.822411 
L 322.333737 55.822411 
L 326.341818 57.500821 
L 330.349899 55.822411 
L 334.35798 55.822411 
L 338.366061 55.822411 
L 342.374141 55.822411 
L 346.382222 55.822411 
L 350.390303 55.822411 
L 354.398384 55.822411 
L 358.406465 55.822411 
L 362.414545 57.500821 
L 366.422626 57.500821 
L 370.430707 55.822411 
L 374.438788 55.822411 
L 378.446869 55.822411 
L 382.454949 65.892874 
L 386.46303 84.355391 
L 390.471111 91.069033 
L 394.479192 92.747444 
L 398.487273 97.782675 
L 398.487273 55.822411 
L 398.487273 55.822411 
L 394.479192 54.144 
L 390.471111 55.822411 
L 386.46303 55.822411 
L 382.454949 55.822411 
L 378.446869 55.822411 
L 374.438788 55.822411 
L 370.430707 55.822411 
L 366.422626 57.500821 
L 362.414545 57.500821 
L 358.406465 55.822411 
L 354.398384 55.822411 
L 350.390303 55.822411 
L 346.382222 55.822411 
L 342.374141 55.822411 
L 338.366061 55.822411 
L 334.35798 55.822411 
L 330.349899 55.822411 
L 326.341818 57.500821 
L 322.333737 55.822411 
L 318.325657 55.822411 
L 314.317576 55.822411 
L 310.309495 54.144 
L 306.301414 54.144 
L 302.293333 54.144 
L 298.285253 54.144 
L 294.277172 55.822411 
L 290.269091 57.500821 
L 286.26101 55.822411 
L 282.252929 57.500821 
L 278.244848 55.822411 
L 274.236768 57.500821 
L 270.228687 55.822411 
L 266.220606 54.144 
L 262.212525 55.822411 
L 258.204444 55.822411 
L 254.196364 55.822411 
L 250.188283 55.822411 
L 246.180202 54.144 
L 242.172121 55.822411 
L 238.16404 55.822411 
L 234.15596 55.822411 
L 230.147879 55.822411 
L 226.139798 55.822411 
L 222.131717 55.822411 
L 218.123636 55.822411 
L 214.115556 55.822411 
L 210.107475 57.500821 
L 206.099394 57.500821 
L 202.091313 55.822411 
L 198.083232 54.144 
L 194.075152 54.144 
L 190.067071 54.144 
L 186.05899 55.822411 
L 182.050909 55.822411 
L 178.042828 55.822411 
L 174.034747 55.822411 
L 170.026667 57.500821 
L 166.018586 57.500821 
L 162.010505 57.500821 
L 158.002424 55.822411 
L 153.994343 54.144 
L 149.986263 55.822411 
L 145.978182 54.144 
L 141.970101 55.822411 
L 137.96202 55.822411 
L 133.953939 55.822411 
L 129.945859 55.822411 
L 125.937778 55.822411 
L 121.929697 55.822411 
L 117.921616 55.822411 
L 113.913535 55.822411 
L 109.905455 55.822411 
L 105.897374 55.822411 
L 101.889293 55.822411 
L 97.881212 55.822411 
L 93.873131 55.822411 
L 89.865051 55.822411 
L 85.85697 55.822411 
L 81.848889 55.822411 
L 77.840808 55.822411 
L 73.832727 55.822411 
z
" style="fill:#7f7f7f;"/>
   </g>
   <g id="matplotlib.axis_1">
    <g id="xtick_1">
     <g id="line2d_1">
      <defs>
       <path d="M 0 0 
L 0 3.5 
" id="m5a040ca85b" style="stroke:#000000;stroke-width:0.8;"/>
      </defs>
      <g>
       <use style="stroke:#000000;stroke-width:0.8;" x="73.832727" xlink:href="#m5a040ca85b" y="307.584"/>
      </g>
     </g>
     <g id="text_1">
      <!-- 0 -->
      <defs>
       <path d="M 31.78125 66.40625 
Q 24.171875 66.40625 20.328125 58.90625 
Q 16.5 51.421875 16.5 36.375 
Q 16.5 21.390625 20.328125 13.890625 
Q 24.171875 6.390625 31.78125 6.390625 
Q 39.453125 6.390625 43.28125 13.890625 
Q 47.125 21.390625 47.125 36.375 
Q 47.125 51.421875 43.28125 58.90625 
Q 39.453125 66.40625 31.78125 66.40625 
z
M 31.78125 74.21875 
Q 44.046875 74.21875 50.515625 64.515625 
Q 56.984375 54.828125 56.984375 36.375 
Q 56.984375 17.96875 50.515625 8.265625 
Q 44.046875 -1.421875 31.78125 -1.421875 
Q 19.53125 -1.421875 13.0625 8.265625 
Q 6.59375 17.96875 6.59375 36.375 
Q 6.59375 54.828125 13.0625 64.515625 
Q 19.53125 74.21875 31.78125 74.21875 
z
" id="DejaVuSans-48"/>
      </defs>
      <g transform="translate(70.651477 322.182437)scale(0.1 -0.1)">
       <use xlink:href="#DejaVuSans-48"/>
      </g>
     </g>
    </g>
    <g id="xtick_2">
     <g id="line2d_2">
      <g>
       <use style="stroke:#000000;stroke-width:0.8;" x="113.913535" xlink:href="#m5a040ca85b" y="307.584"/>
      </g>
     </g>
     <g id="text_2">
      <!-- 10 -->
      <defs>
       <path d="M 12.40625 8.296875 
L 28.515625 8.296875 
L 28.515625 63.921875 
L 10.984375 60.40625 
L 10.984375 69.390625 
L 28.421875 72.90625 
L 38.28125 72.90625 
L 38.28125 8.296875 
L 54.390625 8.296875 
L 54.390625 0 
L 12.40625 0 
z
" id="DejaVuSans-49"/>
      </defs>
      <g transform="translate(107.551035 322.182437)scale(0.1 -0.1)">
       <use xlink:href="#DejaVuSans-49"/>
       <use x="63.623047" xlink:href="#DejaVuSans-48"/>
      </g>
     </g>
    </g>
    <g id="xtick_3">
     <g id="line2d_3">
      <g>
       <use style="stroke:#000000;stroke-width:0.8;" x="153.994343" xlink:href="#m5a040ca85b" y="307.584"/>
      </g>
     </g>
     <g id="text_3">
      <!-- 20 -->
      <defs>
       <path d="M 19.1875 8.296875 
L 53.609375 8.296875 
L 53.609375 0 
L 7.328125 0 
L 7.328125 8.296875 
Q 12.9375 14.109375 22.625 23.890625 
Q 32.328125 33.6875 34.8125 36.53125 
Q 39.546875 41.84375 41.421875 45.53125 
Q 43.3125 49.21875 43.3125 52.78125 
Q 43.3125 58.59375 39.234375 62.25 
Q 35.15625 65.921875 28.609375 65.921875 
Q 23.96875 65.921875 18.8125 64.3125 
Q 13.671875 62.703125 7.8125 59.421875 
L 7.8125 69.390625 
Q 13.765625 71.78125 18.9375 73 
Q 24.125 74.21875 28.421875 74.21875 
Q 39.75 74.21875 46.484375 68.546875 
Q 53.21875 62.890625 53.21875 53.421875 
Q 53.21875 48.921875 51.53125 44.890625 
Q 49.859375 40.875 45.40625 35.40625 
Q 44.1875 33.984375 37.640625 27.21875 
Q 31.109375 20.453125 19.1875 8.296875 
z
" id="DejaVuSans-50"/>
      </defs>
      <g transform="translate(147.631843 322.182437)scale(0.1 -0.1)">
       <use xlink:href="#DejaVuSans-50"/>
       <use x="63.623047" xlink:href="#DejaVuSans-48"/>
      </g>
     </g>
    </g>
    <g id="xtick_4">
     <g id="line2d_4">
      <g>
       <use style="stroke:#000000;stroke-width:0.8;" x="194.075152" xlink:href="#m5a040ca85b" y="307.584"/>
      </g>
     </g>
     <g id="text_4">
      <!-- 30 -->
      <defs>
       <path d="M 40.578125 39.3125 
Q 47.65625 37.796875 51.625 33 
Q 55.609375 28.21875 55.609375 21.1875 
Q 55.609375 10.40625 48.1875 4.484375 
Q 40.765625 -1.421875 27.09375 -1.421875 
Q 22.515625 -1.421875 17.65625 -0.515625 
Q 12.796875 0.390625 7.625 2.203125 
L 7.625 11.71875 
Q 11.71875 9.328125 16.59375 8.109375 
Q 21.484375 6.890625 26.8125 6.890625 
Q 36.078125 6.890625 40.9375 10.546875 
Q 45.796875 14.203125 45.796875 21.1875 
Q 45.796875 27.640625 41.28125 31.265625 
Q 36.765625 34.90625 28.71875 34.90625 
L 20.21875 34.90625 
L 20.21875 43.015625 
L 29.109375 43.015625 
Q 36.375 43.015625 40.234375 45.921875 
Q 44.09375 48.828125 44.09375 54.296875 
Q 44.09375 59.90625 40.109375 62.90625 
Q 36.140625 65.921875 28.71875 65.921875 
Q 24.65625 65.921875 20.015625 65.03125 
Q 15.375 64.15625 9.8125 62.3125 
L 9.8125 71.09375 
Q 15.4375 72.65625 20.34375 73.4375 
Q 25.25 74.21875 29.59375 74.21875 
Q 40.828125 74.21875 47.359375 69.109375 
Q 53.90625 64.015625 53.90625 55.328125 
Q 53.90625 49.265625 50.4375 45.09375 
Q 46.96875 40.921875 40.578125 39.3125 
z
" id="DejaVuSans-51"/>
      </defs>
      <g transform="translate(187.712652 322.182437)scale(0.1 -0.1)">
       <use xlink:href="#DejaVuSans-51"/>
       <use x="63.623047" xlink:href="#DejaVuSans-48"/>
      </g>
     </g>
    </g>
    <g id="xtick_5">
     <g id="line2d_5">
      <g>
       <use style="stroke:#000000;stroke-width:0.8;" x="234.15596" xlink:href="#m5a040ca85b" y="307.584"/>
      </g>
     </g>
     <g id="text_5">
      <!-- 40 -->
      <defs>
       <path d="M 37.796875 64.3125 
L 12.890625 25.390625 
L 37.796875 25.390625 
z
M 35.203125 72.90625 
L 47.609375 72.90625 
L 47.609375 25.390625 
L 58.015625 25.390625 
L 58.015625 17.1875 
L 47.609375 17.1875 
L 47.609375 0 
L 37.796875 0 
L 37.796875 17.1875 
L 4.890625 17.1875 
L 4.890625 26.703125 
z
" id="DejaVuSans-52"/>
      </defs>
      <g transform="translate(227.79346 322.182437)scale(0.1 -0.1)">
       <use xlink:href="#DejaVuSans-52"/>
       <use x="63.623047" xlink:href="#DejaVuSans-48"/>
      </g>
     </g>
    </g>
    <g id="xtick_6">
     <g id="line2d_6">
      <g>
       <use style="stroke:#000000;stroke-width:0.8;" x="274.236768" xlink:href="#m5a040ca85b" y="307.584"/>
      </g>
     </g>
     <g id="text_6">
      <!-- 50 -->
      <defs>
       <path d="M 10.796875 72.90625 
L 49.515625 72.90625 
L 49.515625 64.59375 
L 19.828125 64.59375 
L 19.828125 46.734375 
Q 21.96875 47.46875 24.109375 47.828125 
Q 26.265625 48.1875 28.421875 48.1875 
Q 40.625 48.1875 47.75 41.5 
Q 54.890625 34.8125 54.890625 23.390625 
Q 54.890625 11.625 47.5625 5.09375 
Q 40.234375 -1.421875 26.90625 -1.421875 
Q 22.3125 -1.421875 17.546875 -0.640625 
Q 12.796875 0.140625 7.71875 1.703125 
L 7.71875 11.625 
Q 12.109375 9.234375 16.796875 8.0625 
Q 21.484375 6.890625 26.703125 6.890625 
Q 35.15625 6.890625 40.078125 11.328125 
Q 45.015625 15.765625 45.015625 23.390625 
Q 45.015625 31 40.078125 35.4375 
Q 35.15625 39.890625 26.703125 39.890625 
Q 22.75 39.890625 18.8125 39.015625 
Q 14.890625 38.140625 10.796875 36.28125 
z
" id="DejaVuSans-53"/>
      </defs>
      <g transform="translate(267.874268 322.182437)scale(0.1 -0.1)">
       <use xlink:href="#DejaVuSans-53"/>
       <use x="63.623047" xlink:href="#DejaVuSans-48"/>
      </g>
     </g>
    </g>
    <g id="xtick_7">
     <g id="line2d_7">
      <g>
       <use style="stroke:#000000;stroke-width:0.8;" x="314.317576" xlink:href="#m5a040ca85b" y="307.584"/>
      </g>
     </g>
     <g id="text_7">
      <!-- 60 -->
      <defs>
       <path d="M 33.015625 40.375 
Q 26.375 40.375 22.484375 35.828125 
Q 18.609375 31.296875 18.609375 23.390625 
Q 18.609375 15.53125 22.484375 10.953125 
Q 26.375 6.390625 33.015625 6.390625 
Q 39.65625 6.390625 43.53125 10.953125 
Q 47.40625 15.53125 47.40625 23.390625 
Q 47.40625 31.296875 43.53125 35.828125 
Q 39.65625 40.375 33.015625 40.375 
z
M 52.59375 71.296875 
L 52.59375 62.3125 
Q 48.875 64.0625 45.09375 64.984375 
Q 41.3125 65.921875 37.59375 65.921875 
Q 27.828125 65.921875 22.671875 59.328125 
Q 17.53125 52.734375 16.796875 39.40625 
Q 19.671875 43.65625 24.015625 45.921875 
Q 28.375 48.1875 33.59375 48.1875 
Q 44.578125 48.1875 50.953125 41.515625 
Q 57.328125 34.859375 57.328125 23.390625 
Q 57.328125 12.15625 50.6875 5.359375 
Q 44.046875 -1.421875 33.015625 -1.421875 
Q 20.359375 -1.421875 13.671875 8.265625 
Q 6.984375 17.96875 6.984375 36.375 
Q 6.984375 53.65625 15.1875 63.9375 
Q 23.390625 74.21875 37.203125 74.21875 
Q 40.921875 74.21875 44.703125 73.484375 
Q 48.484375 72.75 52.59375 71.296875 
z
" id="DejaVuSans-54"/>
      </defs>
      <g transform="translate(307.955076 322.182437)scale(0.1 -0.1)">
       <use xlink:href="#DejaVuSans-54"/>
       <use x="63.623047" xlink:href="#DejaVuSans-48"/>
      </g>
     </g>
    </g>
    <g id="xtick_8">
     <g id="line2d_8">
      <g>
       <use style="stroke:#000000;stroke-width:0.8;" x="354.398384" xlink:href="#m5a040ca85b" y="307.584"/>
      </g>
     </g>
     <g id="text_8">
      <!-- 70 -->
      <defs>
       <path d="M 8.203125 72.90625 
L 55.078125 72.90625 
L 55.078125 68.703125 
L 28.609375 0 
L 18.3125 0 
L 43.21875 64.59375 
L 8.203125 64.59375 
z
" id="DejaVuSans-55"/>
      </defs>
      <g transform="translate(348.035884 322.182437)scale(0.1 -0.1)">
       <use xlink:href="#DejaVuSans-55"/>
       <use x="63.623047" xlink:href="#DejaVuSans-48"/>
      </g>
     </g>
    </g>
    <g id="xtick_9">
     <g id="line2d_9">
      <g>
       <use style="stroke:#000000;stroke-width:0.8;" x="394.479192" xlink:href="#m5a040ca85b" y="307.584"/>
      </g>
     </g>
     <g id="text_9">
      <!-- 80 -->
      <defs>
       <path d="M 31.78125 34.625 
Q 24.75 34.625 20.71875 30.859375 
Q 16.703125 27.09375 16.703125 20.515625 
Q 16.703125 13.921875 20.71875 10.15625 
Q 24.75 6.390625 31.78125 6.390625 
Q 38.8125 6.390625 42.859375 10.171875 
Q 46.921875 13.96875 46.921875 20.515625 
Q 46.921875 27.09375 42.890625 30.859375 
Q 38.875 34.625 31.78125 34.625 
z
M 21.921875 38.8125 
Q 15.578125 40.375 12.03125 44.71875 
Q 8.5 49.078125 8.5 55.328125 
Q 8.5 64.0625 14.71875 69.140625 
Q 20.953125 74.21875 31.78125 74.21875 
Q 42.671875 74.21875 48.875 69.140625 
Q 55.078125 64.0625 55.078125 55.328125 
Q 55.078125 49.078125 51.53125 44.71875 
Q 48 40.375 41.703125 38.8125 
Q 48.828125 37.15625 52.796875 32.3125 
Q 56.78125 27.484375 56.78125 20.515625 
Q 56.78125 9.90625 50.3125 4.234375 
Q 43.84375 -1.421875 31.78125 -1.421875 
Q 19.734375 -1.421875 13.25 4.234375 
Q 6.78125 9.90625 6.78125 20.515625 
Q 6.78125 27.484375 10.78125 32.3125 
Q 14.796875 37.15625 21.921875 38.8125 
z
M 18.3125 54.390625 
Q 18.3125 48.734375 21.84375 45.5625 
Q 25.390625 42.390625 31.78125 42.390625 
Q 38.140625 42.390625 41.71875 45.5625 
Q 45.3125 48.734375 45.3125 54.390625 
Q 45.3125 60.0625 41.71875 63.234375 
Q 38.140625 66.40625 31.78125 66.40625 
Q 25.390625 66.40625 21.84375 63.234375 
Q 18.3125 60.0625 18.3125 54.390625 
z
" id="DejaVuSans-56"/>
      </defs>
      <g transform="translate(388.116692 322.182437)scale(0.1 -0.1)">
       <use xlink:href="#DejaVuSans-56"/>
       <use x="63.623047" xlink:href="#DejaVuSans-48"/>
      </g>
     </g>
    </g>
    <g id="text_10">
     <!-- Generations -->
     <defs>
      <path d="M 59.515625 10.40625 
L 59.515625 29.984375 
L 43.40625 29.984375 
L 43.40625 38.09375 
L 69.28125 38.09375 
L 69.28125 6.78125 
Q 63.578125 2.734375 56.6875 0.65625 
Q 49.8125 -1.421875 42 -1.421875 
Q 24.90625 -1.421875 15.25 8.5625 
Q 5.609375 18.5625 5.609375 36.375 
Q 5.609375 54.25 15.25 64.234375 
Q 24.90625 74.21875 42 74.21875 
Q 49.125 74.21875 55.546875 72.453125 
Q 61.96875 70.703125 67.390625 67.28125 
L 67.390625 56.78125 
Q 61.921875 61.421875 55.765625 63.765625 
Q 49.609375 66.109375 42.828125 66.109375 
Q 29.4375 66.109375 22.71875 58.640625 
Q 16.015625 51.171875 16.015625 36.375 
Q 16.015625 21.625 22.71875 14.15625 
Q 29.4375 6.6875 42.828125 6.6875 
Q 48.046875 6.6875 52.140625 7.59375 
Q 56.25 8.5 59.515625 10.40625 
z
" id="DejaVuSans-71"/>
      <path d="M 56.203125 29.59375 
L 56.203125 25.203125 
L 14.890625 25.203125 
Q 15.484375 15.921875 20.484375 11.0625 
Q 25.484375 6.203125 34.421875 6.203125 
Q 39.59375 6.203125 44.453125 7.46875 
Q 49.3125 8.734375 54.109375 11.28125 
L 54.109375 2.78125 
Q 49.265625 0.734375 44.1875 -0.34375 
Q 39.109375 -1.421875 33.890625 -1.421875 
Q 20.796875 -1.421875 13.15625 6.1875 
Q 5.515625 13.8125 5.515625 26.8125 
Q 5.515625 40.234375 12.765625 48.109375 
Q 20.015625 56 32.328125 56 
Q 43.359375 56 49.78125 48.890625 
Q 56.203125 41.796875 56.203125 29.59375 
z
M 47.21875 32.234375 
Q 47.125 39.59375 43.09375 43.984375 
Q 39.0625 48.390625 32.421875 48.390625 
Q 24.90625 48.390625 20.390625 44.140625 
Q 15.875 39.890625 15.1875 32.171875 
z
" id="DejaVuSans-101"/>
      <path d="M 54.890625 33.015625 
L 54.890625 0 
L 45.90625 0 
L 45.90625 32.71875 
Q 45.90625 40.484375 42.875 44.328125 
Q 39.84375 48.1875 33.796875 48.1875 
Q 26.515625 48.1875 22.3125 43.546875 
Q 18.109375 38.921875 18.109375 30.90625 
L 18.109375 0 
L 9.078125 0 
L 9.078125 54.6875 
L 18.109375 54.6875 
L 18.109375 46.1875 
Q 21.34375 51.125 25.703125 53.5625 
Q 30.078125 56 35.796875 56 
Q 45.21875 56 50.046875 50.171875 
Q 54.890625 44.34375 54.890625 33.015625 
z
" id="DejaVuSans-110"/>
      <path d="M 41.109375 46.296875 
Q 39.59375 47.171875 37.8125 47.578125 
Q 36.03125 48 33.890625 48 
Q 26.265625 48 22.1875 43.046875 
Q 18.109375 38.09375 18.109375 28.8125 
L 18.109375 0 
L 9.078125 0 
L 9.078125 54.6875 
L 18.109375 54.6875 
L 18.109375 46.1875 
Q 20.953125 51.171875 25.484375 53.578125 
Q 30.03125 56 36.53125 56 
Q 37.453125 56 38.578125 55.875 
Q 39.703125 55.765625 41.0625 55.515625 
z
" id="DejaVuSans-114"/>
      <path d="M 34.28125 27.484375 
Q 23.390625 27.484375 19.1875 25 
Q 14.984375 22.515625 14.984375 16.5 
Q 14.984375 11.71875 18.140625 8.90625 
Q 21.296875 6.109375 26.703125 6.109375 
Q 34.1875 6.109375 38.703125 11.40625 
Q 43.21875 16.703125 43.21875 25.484375 
L 43.21875 27.484375 
z
M 52.203125 31.203125 
L 52.203125 0 
L 43.21875 0 
L 43.21875 8.296875 
Q 40.140625 3.328125 35.546875 0.953125 
Q 30.953125 -1.421875 24.3125 -1.421875 
Q 15.921875 -1.421875 10.953125 3.296875 
Q 6 8.015625 6 15.921875 
Q 6 25.140625 12.171875 29.828125 
Q 18.359375 34.515625 30.609375 34.515625 
L 43.21875 34.515625 
L 43.21875 35.40625 
Q 43.21875 41.609375 39.140625 45 
Q 35.0625 48.390625 27.6875 48.390625 
Q 23 48.390625 18.546875 47.265625 
Q 14.109375 46.140625 10.015625 43.890625 
L 10.015625 52.203125 
Q 14.9375 54.109375 19.578125 55.046875 
Q 24.21875 56 28.609375 56 
Q 40.484375 56 46.34375 49.84375 
Q 52.203125 43.703125 52.203125 31.203125 
z
" id="DejaVuSans-97"/>
      <path d="M 18.3125 70.21875 
L 18.3125 54.6875 
L 36.8125 54.6875 
L 36.8125 47.703125 
L 18.3125 47.703125 
L 18.3125 18.015625 
Q 18.3125 11.328125 20.140625 9.421875 
Q 21.96875 7.515625 27.59375 7.515625 
L 36.8125 7.515625 
L 36.8125 0 
L 27.59375 0 
Q 17.1875 0 13.234375 3.875 
Q 9.28125 7.765625 9.28125 18.015625 
L 9.28125 47.703125 
L 2.6875 47.703125 
L 2.6875 54.6875 
L 9.28125 54.6875 
L 9.28125 70.21875 
z
" id="DejaVuSans-116"/>
      <path d="M 9.421875 54.6875 
L 18.40625 54.6875 
L 18.40625 0 
L 9.421875 0 
z
M 9.421875 75.984375 
L 18.40625 75.984375 
L 18.40625 64.59375 
L 9.421875 64.59375 
z
" id="DejaVuSans-105"/>
      <path d="M 30.609375 48.390625 
Q 23.390625 48.390625 19.1875 42.75 
Q 14.984375 37.109375 14.984375 27.296875 
Q 14.984375 17.484375 19.15625 11.84375 
Q 23.34375 6.203125 30.609375 6.203125 
Q 37.796875 6.203125 41.984375 11.859375 
Q 46.1875 17.53125 46.1875 27.296875 
Q 46.1875 37.015625 41.984375 42.703125 
Q 37.796875 48.390625 30.609375 48.390625 
z
M 30.609375 56 
Q 42.328125 56 49.015625 48.375 
Q 55.71875 40.765625 55.71875 27.296875 
Q 55.71875 13.875 49.015625 6.21875 
Q 42.328125 -1.421875 30.609375 -1.421875 
Q 18.84375 -1.421875 12.171875 6.21875 
Q 5.515625 13.875 5.515625 27.296875 
Q 5.515625 40.765625 12.171875 48.375 
Q 18.84375 56 30.609375 56 
z
" id="DejaVuSans-111"/>
      <path d="M 44.28125 53.078125 
L 44.28125 44.578125 
Q 40.484375 46.53125 36.375 47.5 
Q 32.28125 48.484375 27.875 48.484375 
Q 21.1875 48.484375 17.84375 46.4375 
Q 14.5 44.390625 14.5 40.28125 
Q 14.5 37.15625 16.890625 35.375 
Q 19.28125 33.59375 26.515625 31.984375 
L 29.59375 31.296875 
Q 39.15625 29.25 43.1875 25.515625 
Q 47.21875 21.78125 47.21875 15.09375 
Q 47.21875 7.46875 41.1875 3.015625 
Q 35.15625 -1.421875 24.609375 -1.421875 
Q 20.21875 -1.421875 15.453125 -0.5625 
Q 10.6875 0.296875 5.421875 2 
L 5.421875 11.28125 
Q 10.40625 8.6875 15.234375 7.390625 
Q 20.0625 6.109375 24.8125 6.109375 
Q 31.15625 6.109375 34.5625 8.28125 
Q 37.984375 10.453125 37.984375 14.40625 
Q 37.984375 18.0625 35.515625 20.015625 
Q 33.0625 21.96875 24.703125 23.78125 
L 21.578125 24.515625 
Q 13.234375 26.265625 9.515625 29.90625 
Q 5.8125 33.546875 5.8125 39.890625 
Q 5.8125 47.609375 11.28125 51.796875 
Q 16.75 56 26.8125 56 
Q 31.78125 56 36.171875 55.265625 
Q 40.578125 54.546875 44.28125 53.078125 
z
" id="DejaVuSans-115"/>
     </defs>
     <g transform="translate(205.662344 335.860562)scale(0.1 -0.1)">
      <use xlink:href="#DejaVuSans-71"/>
      <use x="77.490234" xlink:href="#DejaVuSans-101"/>
      <use x="139.013672" xlink:href="#DejaVuSans-110"/>
      <use x="202.392578" xlink:href="#DejaVuSans-101"/>
      <use x="263.916016" xlink:href="#DejaVuSans-114"/>
      <use x="305.029297" xlink:href="#DejaVuSans-97"/>
      <use x="366.308594" xlink:href="#DejaVuSans-116"/>
      <use x="405.517578" xlink:href="#DejaVuSans-105"/>
      <use x="433.300781" xlink:href="#DejaVuSans-111"/>
      <use x="494.482422" xlink:href="#DejaVuSans-110"/>
      <use x="557.861328" xlink:href="#DejaVuSans-115"/>
     </g>
    </g>
   </g>
   <g id="matplotlib.axis_2">
    <g id="ytick_1">
     <g id="line2d_10">
      <defs>
       <path d="M 0 0 
L -3.5 0 
" id="mba25cd82d0" style="stroke:#000000;stroke-width:0.8;"/>
      </defs>
      <g>
       <use style="stroke:#000000;stroke-width:0.8;" x="57.6" xlink:href="#mba25cd82d0" y="307.584"/>
      </g>
     </g>
     <g id="text_11">
      <!-- 0 -->
      <g transform="translate(44.2375 311.383219)scale(0.1 -0.1)">
       <use xlink:href="#DejaVuSans-48"/>
      </g>
     </g>
    </g>
    <g id="ytick_2">
     <g id="line2d_11">
      <g>
       <use style="stroke:#000000;stroke-width:0.8;" x="57.6" xlink:href="#mba25cd82d0" y="274.015788"/>
      </g>
     </g>
     <g id="text_12">
      <!-- 20 -->
      <g transform="translate(37.875 277.815007)scale(0.1 -0.1)">
       <use xlink:href="#DejaVuSans-50"/>
       <use x="63.623047" xlink:href="#DejaVuSans-48"/>
      </g>
     </g>
    </g>
    <g id="ytick_3">
     <g id="line2d_12">
      <g>
       <use style="stroke:#000000;stroke-width:0.8;" x="57.6" xlink:href="#mba25cd82d0" y="240.447576"/>
      </g>
     </g>
     <g id="text_13">
      <!-- 40 -->
      <g transform="translate(37.875 244.246795)scale(0.1 -0.1)">
       <use xlink:href="#DejaVuSans-52"/>
       <use x="63.623047" xlink:href="#DejaVuSans-48"/>
      </g>
     </g>
    </g>
    <g id="ytick_4">
     <g id="line2d_13">
      <g>
       <use style="stroke:#000000;stroke-width:0.8;" x="57.6" xlink:href="#mba25cd82d0" y="206.879364"/>
      </g>
     </g>
     <g id="text_14">
      <!-- 60 -->
      <g transform="translate(37.875 210.678583)scale(0.1 -0.1)">
       <use xlink:href="#DejaVuSans-54"/>
       <use x="63.623047" xlink:href="#DejaVuSans-48"/>
      </g>
     </g>
    </g>
    <g id="ytick_5">
     <g id="line2d_14">
      <g>
       <use style="stroke:#000000;stroke-width:0.8;" x="57.6" xlink:href="#mba25cd82d0" y="173.311152"/>
      </g>
     </g>
     <g id="text_15">
      <!-- 80 -->
      <g transform="translate(37.875 177.110371)scale(0.1 -0.1)">
       <use xlink:href="#DejaVuSans-56"/>
       <use x="63.623047" xlink:href="#DejaVuSans-48"/>
      </g>
     </g>
    </g>
    <g id="ytick_6">
     <g id="line2d_15">
      <g>
       <use style="stroke:#000000;stroke-width:0.8;" x="57.6" xlink:href="#mba25cd82d0" y="139.74294"/>
      </g>
     </g>
     <g id="text_16">
      <!-- 100 -->
      <g transform="translate(31.5125 143.542159)scale(0.1 -0.1)">
       <use xlink:href="#DejaVuSans-49"/>
       <use x="63.623047" xlink:href="#DejaVuSans-48"/>
       <use x="127.246094" xlink:href="#DejaVuSans-48"/>
      </g>
     </g>
    </g>
    <g id="ytick_7">
     <g id="line2d_16">
      <g>
       <use style="stroke:#000000;stroke-width:0.8;" x="57.6" xlink:href="#mba25cd82d0" y="106.174728"/>
      </g>
     </g>
     <g id="text_17">
      <!-- 120 -->
      <g transform="translate(31.5125 109.973947)scale(0.1 -0.1)">
       <use xlink:href="#DejaVuSans-49"/>
       <use x="63.623047" xlink:href="#DejaVuSans-50"/>
       <use x="127.246094" xlink:href="#DejaVuSans-48"/>
      </g>
     </g>
    </g>
    <g id="ytick_8">
     <g id="line2d_17">
      <g>
       <use style="stroke:#000000;stroke-width:0.8;" x="57.6" xlink:href="#mba25cd82d0" y="72.606517"/>
      </g>
     </g>
     <g id="text_18">
      <!-- 140 -->
      <g transform="translate(31.5125 76.405735)scale(0.1 -0.1)">
       <use xlink:href="#DejaVuSans-49"/>
       <use x="63.623047" xlink:href="#DejaVuSans-52"/>
       <use x="127.246094" xlink:href="#DejaVuSans-48"/>
      </g>
     </g>
    </g>
    <g id="text_19">
     <!-- Size per Species -->
     <defs>
      <path d="M 53.515625 70.515625 
L 53.515625 60.890625 
Q 47.90625 63.578125 42.921875 64.890625 
Q 37.9375 66.21875 33.296875 66.21875 
Q 25.25 66.21875 20.875 63.09375 
Q 16.5 59.96875 16.5 54.203125 
Q 16.5 49.359375 19.40625 46.890625 
Q 22.3125 44.4375 30.421875 42.921875 
L 36.375 41.703125 
Q 47.40625 39.59375 52.65625 34.296875 
Q 57.90625 29 57.90625 20.125 
Q 57.90625 9.515625 50.796875 4.046875 
Q 43.703125 -1.421875 29.984375 -1.421875 
Q 24.8125 -1.421875 18.96875 -0.25 
Q 13.140625 0.921875 6.890625 3.21875 
L 6.890625 13.375 
Q 12.890625 10.015625 18.65625 8.296875 
Q 24.421875 6.59375 29.984375 6.59375 
Q 38.421875 6.59375 43.015625 9.90625 
Q 47.609375 13.234375 47.609375 19.390625 
Q 47.609375 24.75 44.3125 27.78125 
Q 41.015625 30.8125 33.5 32.328125 
L 27.484375 33.5 
Q 16.453125 35.6875 11.515625 40.375 
Q 6.59375 45.0625 6.59375 53.421875 
Q 6.59375 63.09375 13.40625 68.65625 
Q 20.21875 74.21875 32.171875 74.21875 
Q 37.3125 74.21875 42.625 73.28125 
Q 47.953125 72.359375 53.515625 70.515625 
z
" id="DejaVuSans-83"/>
      <path d="M 5.515625 54.6875 
L 48.1875 54.6875 
L 48.1875 46.484375 
L 14.40625 7.171875 
L 48.1875 7.171875 
L 48.1875 0 
L 4.296875 0 
L 4.296875 8.203125 
L 38.09375 47.515625 
L 5.515625 47.515625 
z
" id="DejaVuSans-122"/>
      <path id="DejaVuSans-32"/>
      <path d="M 18.109375 8.203125 
L 18.109375 -20.796875 
L 9.078125 -20.796875 
L 9.078125 54.6875 
L 18.109375 54.6875 
L 18.109375 46.390625 
Q 20.953125 51.265625 25.265625 53.625 
Q 29.59375 56 35.59375 56 
Q 45.5625 56 51.78125 48.09375 
Q 58.015625 40.1875 58.015625 27.296875 
Q 58.015625 14.40625 51.78125 6.484375 
Q 45.5625 -1.421875 35.59375 -1.421875 
Q 29.59375 -1.421875 25.265625 0.953125 
Q 20.953125 3.328125 18.109375 8.203125 
z
M 48.6875 27.296875 
Q 48.6875 37.203125 44.609375 42.84375 
Q 40.53125 48.484375 33.40625 48.484375 
Q 26.265625 48.484375 22.1875 42.84375 
Q 18.109375 37.203125 18.109375 27.296875 
Q 18.109375 17.390625 22.1875 11.75 
Q 26.265625 6.109375 33.40625 6.109375 
Q 40.53125 6.109375 44.609375 11.75 
Q 48.6875 17.390625 48.6875 27.296875 
z
" id="DejaVuSans-112"/>
      <path d="M 48.78125 52.59375 
L 48.78125 44.1875 
Q 44.96875 46.296875 41.140625 47.34375 
Q 37.3125 48.390625 33.40625 48.390625 
Q 24.65625 48.390625 19.8125 42.84375 
Q 14.984375 37.3125 14.984375 27.296875 
Q 14.984375 17.28125 19.8125 11.734375 
Q 24.65625 6.203125 33.40625 6.203125 
Q 37.3125 6.203125 41.140625 7.25 
Q 44.96875 8.296875 48.78125 10.40625 
L 48.78125 2.09375 
Q 45.015625 0.34375 40.984375 -0.53125 
Q 36.96875 -1.421875 32.421875 -1.421875 
Q 20.0625 -1.421875 12.78125 6.34375 
Q 5.515625 14.109375 5.515625 27.296875 
Q 5.515625 40.671875 12.859375 48.328125 
Q 20.21875 56 33.015625 56 
Q 37.15625 56 41.109375 55.140625 
Q 45.0625 54.296875 48.78125 52.59375 
z
" id="DejaVuSans-99"/>
     </defs>
     <g transform="translate(25.432812 215.520969)rotate(-90)scale(0.1 -0.1)">
      <use xlink:href="#DejaVuSans-83"/>
      <use x="63.476562" xlink:href="#DejaVuSans-105"/>
      <use x="91.259766" xlink:href="#DejaVuSans-122"/>
      <use x="143.75" xlink:href="#DejaVuSans-101"/>
      <use x="205.273438" xlink:href="#DejaVuSans-32"/>
      <use x="237.060547" xlink:href="#DejaVuSans-112"/>
      <use x="300.537109" xlink:href="#DejaVuSans-101"/>
      <use x="362.060547" xlink:href="#DejaVuSans-114"/>
      <use x="403.173828" xlink:href="#DejaVuSans-32"/>
      <use x="434.960938" xlink:href="#DejaVuSans-83"/>
      <use x="498.4375" xlink:href="#DejaVuSans-112"/>
      <use x="561.914062" xlink:href="#DejaVuSans-101"/>
      <use x="623.4375" xlink:href="#DejaVuSans-99"/>
      <use x="678.417969" xlink:href="#DejaVuSans-105"/>
      <use x="706.201172" xlink:href="#DejaVuSans-101"/>
      <use x="767.724609" xlink:href="#DejaVuSans-115"/>
     </g>
    </g>
   </g>
   <g id="patch_3">
    <path d="M 57.6 307.584 
L 57.6 41.472 
" style="fill:none;stroke:#000000;stroke-linecap:square;stroke-linejoin:miter;stroke-width:0.8;"/>
   </g>
   <g id="patch_4">
    <path d="M 414.72 307.584 
L 414.72 41.472 
" style="fill:none;stroke:#000000;stroke-linecap:square;stroke-linejoin:miter;stroke-width:0.8;"/>
   </g>
   <g id="patch_5">
    <path d="M 57.6 307.584 
L 414.72 307.584 
" style="fill:none;stroke:#000000;stroke-linecap:square;stroke-linejoin:miter;stroke-width:0.8;"/>
   </g>
   <g id="patch_6">
    <path d="M 57.6 41.472 
L 414.72 41.472 
" style="fill:none;stroke:#000000;stroke-linecap:square;stroke-linejoin:miter;stroke-width:0.8;"/>
   </g>
   <g id="text_20">
    <!-- Speciation -->
    <g transform="translate(204.714375 35.472)scale(0.12 -0.12)">
     <use xlink:href="#DejaVuSans-83"/>
     <use x="63.476562" xlink:href="#DejaVuSans-112"/>
     <use x="126.953125" xlink:href="#DejaVuSans-101"/>
     <use x="188.476562" xlink:href="#DejaVuSans-99"/>
     <use x="243.457031" xlink:href="#DejaVuSans-105"/>
     <use x="271.240234" xlink:href="#DejaVuSans-97"/>
     <use x="332.519531" xlink:href="#DejaVuSans-116"/>
     <use x="371.728516" xlink:href="#DejaVuSans-105"/>
     <use x="399.511719" xlink:href="#DejaVuSans-111"/>
     <use x="460.693359" xlink:href="#DejaVuSans-110"/>
    </g>
   </g>
  </g>
 </g>
 <defs>
  <clipPath id="pb497f14abe">
   <rect height="266.112" width="357.12" x="57.6" y="41.472"/>
  </clipPath>
 </defs>
</svg>
