<?xml version="1.0" encoding="utf-8" standalone="no"?>
<!DOCTYPE svg PUBLIC "-//W3C//DTD SVG 1.1//EN"
  "http://www.w3.org/Graphics/SVG/1.1/DTD/svg11.dtd">
<!-- Created with matplotlib (https://matplotlib.org/) -->
<svg height="345.6pt" version="1.1" viewBox="0 0 460.8 345.6" width="460.8pt" xmlns="http://www.w3.org/2000/svg" xmlns:xlink="http://www.w3.org/1999/xlink">
 <defs>
  <style type="text/css">
*{stroke-linecap:butt;stroke-linejoin:round;}
  </style>
 </defs>
 <g id="figure_1">
  <g id="patch_1">
   <path d="M 0 345.6 
L 460.8 345.6 
L 460.8 0 
L 0 0 
z
" style="fill:#ffffff;"/>
  </g>
  <g id="axes_1">
   <g id="patch_2">
    <path d="M 57.6 307.584 
L 414.72 307.584 
L 414.72 41.472 
L 57.6 41.472 
z
" style="fill:#ffffff;"/>
   </g>
   <g id="PolyCollection_1">
    <path clip-path="url(#p9c5187eb16)" d="M 73.832727 293.559652 
L 73.832727 307.584 
L 81.562597 307.584 
L 89.292468 307.584 
L 97.022338 307.584 
L 104.752208 307.584 
L 112.482078 307.584 
L 120.211948 307.584 
L 127.941818 307.584 
L 135.671688 307.584 
L 143.401558 307.584 
L 151.131429 307.584 
L 158.861299 307.584 
L 166.591169 307.584 
L 174.321039 307.584 
L 182.050909 307.584 
L 189.780779 307.584 
L 197.510649 307.584 
L 205.240519 307.584 
L 212.97039 307.584 
L 220.70026 307.584 
L 228.43013 307.584 
L 236.16 307.584 
L 243.88987 307.584 
L 251.61974 307.584 
L 259.34961 307.584 
L 267.079481 307.584 
L 274.809351 307.584 
L 282.539221 307.584 
L 290.269091 307.584 
L 297.998961 307.584 
L 305.728831 307.584 
L 313.458701 307.584 
L 321.188571 307.584 
L 328.918442 307.584 
L 336.648312 307.584 
L 344.378182 307.584 
L 352.108052 307.584 
L 359.837922 307.584 
L 367.567792 307.584 
L 375.297662 307.584 
L 383.027532 307.584 
L 390.757403 307.584 
L 398.487273 307.584 
L 398.487273 281.538783 
L 398.487273 281.538783 
L 390.757403 289.552696 
L 383.027532 281.538783 
L 375.297662 275.528348 
L 367.567792 285.545739 
L 359.837922 268.516174 
L 352.108052 283.542261 
L 344.378182 256.495304 
L 336.648312 276.530087 
L 328.918442 271.521391 
L 321.188571 288.550957 
L 313.458701 286.547478 
L 305.728831 301.573565 
L 297.998961 303.577043 
L 290.269091 289.552696 
L 282.539221 263.507478 
L 274.809351 282.540522 
L 267.079481 263.507478 
L 259.34961 225.441391 
L 251.61974 269.517913 
L 243.88987 270.519652 
L 236.16 266.512696 
L 228.43013 265.510957 
L 220.70026 280.537043 
L 212.97039 288.550957 
L 205.240519 286.547478 
L 197.510649 276.530087 
L 189.780779 276.530087 
L 182.050909 284.544 
L 174.321039 274.526609 
L 166.591169 285.545739 
L 158.861299 276.530087 
L 151.131429 284.544 
L 143.401558 288.550957 
L 135.671688 285.545739 
L 127.941818 262.505739 
L 120.211948 295.56313 
L 112.482078 301.573565 
L 104.752208 279.535304 
L 97.022338 285.545739 
L 89.292468 284.544 
L 81.562597 271.521391 
L 73.832727 293.559652 
z
" style="fill:#1f77b4;"/>
   </g>
   <g id="PolyCollection_2">
    <path clip-path="url(#p9c5187eb16)" d="M 73.832727 228.446609 
L 73.832727 293.559652 
L 81.562597 271.521391 
L 89.292468 284.544 
L 97.022338 285.545739 
L 104.752208 279.535304 
L 112.482078 301.573565 
L 120.211948 295.56313 
L 127.941818 262.505739 
L 135.671688 285.545739 
L 143.401558 288.550957 
L 151.131429 284.544 
L 158.861299 276.530087 
L 166.591169 285.545739 
L 174.321039 274.526609 
L 182.050909 284.544 
L 189.780779 276.530087 
L 197.510649 276.530087 
L 205.240519 286.547478 
L 212.97039 288.550957 
L 220.70026 280.537043 
L 228.43013 265.510957 
L 236.16 266.512696 
L 243.88987 270.519652 
L 251.61974 269.517913 
L 259.34961 225.441391 
L 267.079481 263.507478 
L 274.809351 282.540522 
L 282.539221 263.507478 
L 290.269091 289.552696 
L 297.998961 303.577043 
L 305.728831 301.573565 
L 313.458701 286.547478 
L 321.188571 288.550957 
L 328.918442 271.521391 
L 336.648312 276.530087 
L 344.378182 256.495304 
L 352.108052 283.542261 
L 359.837922 268.516174 
L 367.567792 285.545739 
L 375.297662 275.528348 
L 383.027532 281.538783 
L 390.757403 289.552696 
L 398.487273 281.538783 
L 398.487273 281.538783 
L 398.487273 281.538783 
L 390.757403 289.552696 
L 383.027532 281.538783 
L 375.297662 275.528348 
L 367.567792 285.545739 
L 359.837922 268.516174 
L 352.108052 283.542261 
L 344.378182 256.495304 
L 336.648312 276.530087 
L 328.918442 271.521391 
L 321.188571 288.550957 
L 313.458701 286.547478 
L 305.728831 301.573565 
L 297.998961 303.577043 
L 290.269091 289.552696 
L 282.539221 236.460522 
L 274.809351 251.486609 
L 267.079481 245.476174 
L 259.34961 214.422261 
L 251.61974 258.498783 
L 243.88987 268.516174 
L 236.16 245.476174 
L 228.43013 252.488348 
L 220.70026 264.509217 
L 212.97039 277.531826 
L 205.240519 264.509217 
L 197.510649 246.477913 
L 189.780779 262.505739 
L 182.050909 275.528348 
L 174.321039 233.455304 
L 166.591169 255.493565 
L 158.861299 250.48487 
L 151.131429 261.504 
L 143.401558 275.528348 
L 135.671688 265.510957 
L 127.941818 230.450087 
L 120.211948 273.52487 
L 112.482078 282.540522 
L 104.752208 248.481391 
L 97.022338 267.514435 
L 89.292468 273.52487 
L 81.562597 220.432696 
L 73.832727 228.446609 
z
" style="fill:#ff7f0e;"/>
   </g>
   <g id="PolyCollection_3">
    <path clip-path="url(#p9c5187eb16)" d="M 73.832727 202.401391 
L 73.832727 228.446609 
L 81.562597 220.432696 
L 89.292468 273.52487 
L 97.022338 267.514435 
L 104.752208 248.481391 
L 112.482078 282.540522 
L 120.211948 273.52487 
L 127.941818 230.450087 
L 135.671688 265.510957 
L 143.401558 275.528348 
L 151.131429 261.504 
L 158.861299 250.48487 
L 166.591169 255.493565 
L 174.321039 233.455304 
L 182.050909 275.528348 
L 189.780779 262.505739 
L 197.510649 246.477913 
L 205.240519 264.509217 
L 212.97039 277.531826 
L 220.70026 264.509217 
L 228.43013 252.488348 
L 236.16 245.476174 
L 243.88987 268.516174 
L 251.61974 258.498783 
L 259.34961 214.422261 
L 267.079481 245.476174 
L 274.809351 251.486609 
L 282.539221 236.460522 
L 290.269091 289.552696 
L 297.998961 303.577043 
L 305.728831 301.573565 
L 313.458701 286.547478 
L 321.188571 288.550957 
L 328.918442 271.521391 
L 336.648312 276.530087 
L 344.378182 256.495304 
L 352.108052 283.542261 
L 359.837922 268.516174 
L 367.567792 285.545739 
L 375.297662 275.528348 
L 383.027532 281.538783 
L 390.757403 289.552696 
L 398.487273 281.538783 
L 398.487273 254.491826 
L 398.487273 254.491826 
L 390.757403 257.497043 
L 383.027532 257.497043 
L 375.297662 258.498783 
L 367.567792 264.509217 
L 359.837922 240.467478 
L 352.108052 251.486609 
L 344.378182 225.441391 
L 336.648312 274.526609 
L 328.918442 223.437913 
L 321.188571 247.479652 
L 313.458701 182.366609 
L 305.728831 255.493565 
L 297.998961 268.516174 
L 290.269091 240.467478 
L 282.539221 212.418783 
L 274.809351 221.434435 
L 267.079481 212.418783 
L 259.34961 193.385739 
L 251.61974 235.458783 
L 243.88987 250.48487 
L 236.16 219.430957 
L 228.43013 230.450087 
L 220.70026 242.470957 
L 212.97039 260.502261 
L 205.240519 243.472696 
L 197.510649 227.44487 
L 189.780779 248.481391 
L 182.050909 266.512696 
L 174.321039 222.436174 
L 166.591169 243.472696 
L 158.861299 234.457043 
L 151.131429 248.481391 
L 143.401558 262.505739 
L 135.671688 253.490087 
L 127.941818 218.429217 
L 120.211948 265.510957 
L 112.482078 272.52313 
L 104.752208 245.476174 
L 97.022338 262.505739 
L 89.292468 261.504 
L 81.562597 211.417043 
L 73.832727 202.401391 
z
" style="fill:#2ca02c;"/>
   </g>
   <g id="PolyCollection_4">
    <path clip-path="url(#p9c5187eb16)" d="M 73.832727 140.293565 
L 73.832727 202.401391 
L 81.562597 211.417043 
L 89.292468 261.504 
L 97.022338 262.505739 
L 104.752208 245.476174 
L 112.482078 272.52313 
L 120.211948 265.510957 
L 127.941818 218.429217 
L 135.671688 253.490087 
L 143.401558 262.505739 
L 151.131429 248.481391 
L 158.861299 234.457043 
L 166.591169 243.472696 
L 174.321039 222.436174 
L 182.050909 266.512696 
L 189.780779 248.481391 
L 197.510649 227.44487 
L 205.240519 243.472696 
L 212.97039 260.502261 
L 220.70026 242.470957 
L 228.43013 230.450087 
L 236.16 219.430957 
L 243.88987 250.48487 
L 251.61974 235.458783 
L 259.34961 193.385739 
L 267.079481 212.418783 
L 274.809351 221.434435 
L 282.539221 212.418783 
L 290.269091 240.467478 
L 297.998961 268.516174 
L 305.728831 255.493565 
L 313.458701 182.366609 
L 321.188571 247.479652 
L 328.918442 223.437913 
L 336.648312 274.526609 
L 344.378182 225.441391 
L 352.108052 251.486609 
L 359.837922 240.467478 
L 367.567792 264.509217 
L 375.297662 258.498783 
L 383.027532 257.497043 
L 390.757403 257.497043 
L 398.487273 254.491826 
L 398.487273 254.491826 
L 398.487273 254.491826 
L 390.757403 257.497043 
L 383.027532 257.497043 
L 375.297662 258.498783 
L 367.567792 264.509217 
L 359.837922 240.467478 
L 352.108052 251.486609 
L 344.378182 225.441391 
L 336.648312 274.526609 
L 328.918442 223.437913 
L 321.188571 247.479652 
L 313.458701 182.366609 
L 305.728831 255.493565 
L 297.998961 268.516174 
L 290.269091 240.467478 
L 282.539221 212.418783 
L 274.809351 221.434435 
L 267.079481 212.418783 
L 259.34961 176.356174 
L 251.61974 189.378783 
L 243.88987 227.44487 
L 236.16 177.357913 
L 228.43013 210.415304 
L 220.70026 207.410087 
L 212.97039 224.439652 
L 205.240519 224.439652 
L 197.510649 215.424 
L 189.780779 232.453565 
L 182.050909 253.490087 
L 174.321039 204.40487 
L 166.591169 224.439652 
L 158.861299 215.424 
L 151.131429 229.448348 
L 143.401558 234.457043 
L 135.671688 210.415304 
L 127.941818 181.36487 
L 120.211948 211.417043 
L 112.482078 220.432696 
L 104.752208 207.410087 
L 97.022338 244.474435 
L 89.292468 232.453565 
L 81.562597 177.357913 
L 73.832727 140.293565 
z
" style="fill:#d62728;"/>
   </g>
   <g id="PolyCollection_5">
    <path clip-path="url(#p9c5187eb16)" d="M 73.832727 139.291826 
L 73.832727 140.293565 
L 81.562597 177.357913 
L 89.292468 232.453565 
L 97.022338 244.474435 
L 104.752208 207.410087 
L 112.482078 220.432696 
L 120.211948 211.417043 
L 127.941818 181.36487 
L 135.671688 210.415304 
L 143.401558 234.457043 
L 151.131429 229.448348 
L 158.861299 215.424 
L 166.591169 224.439652 
L 174.321039 204.40487 
L 182.050909 253.490087 
L 189.780779 232.453565 
L 197.510649 215.424 
L 205.240519 224.439652 
L 212.97039 224.439652 
L 220.70026 207.410087 
L 228.43013 210.415304 
L 236.16 177.357913 
L 243.88987 227.44487 
L 251.61974 189.378783 
L 259.34961 176.356174 
L 267.079481 212.418783 
L 274.809351 221.434435 
L 282.539221 212.418783 
L 290.269091 240.467478 
L 297.998961 268.516174 
L 305.728831 255.493565 
L 313.458701 182.366609 
L 321.188571 247.479652 
L 328.918442 223.437913 
L 336.648312 274.526609 
L 344.378182 225.441391 
L 352.108052 251.486609 
L 359.837922 240.467478 
L 367.567792 264.509217 
L 375.297662 258.498783 
L 383.027532 257.497043 
L 390.757403 257.497043 
L 398.487273 254.491826 
L 398.487273 254.491826 
L 398.487273 254.491826 
L 390.757403 257.497043 
L 383.027532 257.497043 
L 375.297662 258.498783 
L 367.567792 264.509217 
L 359.837922 240.467478 
L 352.108052 251.486609 
L 344.378182 225.441391 
L 336.648312 274.526609 
L 328.918442 223.437913 
L 321.188571 247.479652 
L 313.458701 182.366609 
L 305.728831 255.493565 
L 297.998961 268.516174 
L 290.269091 240.467478 
L 282.539221 212.418783 
L 274.809351 219.430957 
L 267.079481 209.413565 
L 259.34961 174.352696 
L 251.61974 186.373565 
L 243.88987 225.441391 
L 236.16 174.352696 
L 228.43013 206.408348 
L 220.70026 204.40487 
L 212.97039 222.436174 
L 205.240519 221.434435 
L 197.510649 213.420522 
L 189.780779 229.448348 
L 182.050909 249.48313 
L 174.321039 201.399652 
L 166.591169 222.436174 
L 158.861299 214.422261 
L 151.131429 226.44313 
L 143.401558 230.450087 
L 135.671688 207.410087 
L 127.941818 177.357913 
L 120.211948 207.410087 
L 112.482078 217.427478 
L 104.752208 203.40313 
L 97.022338 239.465739 
L 89.292468 229.448348 
L 81.562597 172.349217 
L 73.832727 139.291826 
z
" style="fill:#9467bd;"/>
   </g>
   <g id="PolyCollection_6">
    <path clip-path="url(#p9c5187eb16)" d="M 73.832727 138.290087 
L 73.832727 139.291826 
L 81.562597 172.349217 
L 89.292468 229.448348 
L 97.022338 239.465739 
L 104.752208 203.40313 
L 112.482078 217.427478 
L 120.211948 207.410087 
L 127.941818 177.357913 
L 135.671688 207.410087 
L 143.401558 230.450087 
L 151.131429 226.44313 
L 158.861299 214.422261 
L 166.591169 222.436174 
L 174.321039 201.399652 
L 182.050909 249.48313 
L 189.780779 229.448348 
L 197.510649 213.420522 
L 205.240519 221.434435 
L 212.97039 222.436174 
L 220.70026 204.40487 
L 228.43013 206.408348 
L 236.16 174.352696 
L 243.88987 225.441391 
L 251.61974 186.373565 
L 259.34961 174.352696 
L 267.079481 209.413565 
L 274.809351 219.430957 
L 282.539221 212.418783 
L 290.269091 240.467478 
L 297.998961 268.516174 
L 305.728831 255.493565 
L 313.458701 182.366609 
L 321.188571 247.479652 
L 328.918442 223.437913 
L 336.648312 274.526609 
L 344.378182 225.441391 
L 352.108052 251.486609 
L 359.837922 240.467478 
L 367.567792 264.509217 
L 375.297662 258.498783 
L 383.027532 257.497043 
L 390.757403 257.497043 
L 398.487273 254.491826 
L 398.487273 254.491826 
L 398.487273 254.491826 
L 390.757403 257.497043 
L 383.027532 257.497043 
L 375.297662 258.498783 
L 367.567792 264.509217 
L 359.837922 240.467478 
L 352.108052 251.486609 
L 344.378182 225.441391 
L 336.648312 274.526609 
L 328.918442 223.437913 
L 321.188571 247.479652 
L 313.458701 182.366609 
L 305.728831 255.493565 
L 297.998961 221.434435 
L 290.269091 199.396174 
L 282.539221 182.366609 
L 274.809351 170.345739 
L 267.079481 181.36487 
L 259.34961 158.32487 
L 251.61974 171.347478 
L 243.88987 197.392696 
L 236.16 161.330087 
L 228.43013 190.380522 
L 220.70026 180.36313 
L 212.97039 200.397913 
L 205.240519 200.397913 
L 197.510649 195.389217 
L 189.780779 200.397913 
L 182.050909 227.44487 
L 174.321039 182.366609 
L 166.591169 205.406609 
L 158.861299 196.390957 
L 151.131429 203.40313 
L 143.401558 216.425739 
L 135.671688 187.375304 
L 127.941818 160.328348 
L 120.211948 195.389217 
L 112.482078 213.420522 
L 104.752208 198.394435 
L 97.022338 234.457043 
L 89.292468 227.44487 
L 81.562597 171.347478 
L 73.832727 138.290087 
z
" style="fill:#8c564b;"/>
   </g>
   <g id="PolyCollection_7">
    <path clip-path="url(#p9c5187eb16)" d="M 73.832727 128.272696 
L 73.832727 138.290087 
L 81.562597 171.347478 
L 89.292468 227.44487 
L 97.022338 234.457043 
L 104.752208 198.394435 
L 112.482078 213.420522 
L 120.211948 195.389217 
L 127.941818 160.328348 
L 135.671688 187.375304 
L 143.401558 216.425739 
L 151.131429 203.40313 
L 158.861299 196.390957 
L 166.591169 205.406609 
L 174.321039 182.366609 
L 182.050909 227.44487 
L 189.780779 200.397913 
L 197.510649 195.389217 
L 205.240519 200.397913 
L 212.97039 200.397913 
L 220.70026 180.36313 
L 228.43013 190.380522 
L 236.16 161.330087 
L 243.88987 197.392696 
L 251.61974 171.347478 
L 259.34961 158.32487 
L 267.079481 181.36487 
L 274.809351 170.345739 
L 282.539221 182.366609 
L 290.269091 199.396174 
L 297.998961 221.434435 
L 305.728831 255.493565 
L 313.458701 182.366609 
L 321.188571 247.479652 
L 328.918442 223.437913 
L 336.648312 274.526609 
L 344.378182 225.441391 
L 352.108052 251.486609 
L 359.837922 240.467478 
L 367.567792 264.509217 
L 375.297662 258.498783 
L 383.027532 257.497043 
L 390.757403 257.497043 
L 398.487273 254.491826 
L 398.487273 254.491826 
L 398.487273 254.491826 
L 390.757403 257.497043 
L 383.027532 257.497043 
L 375.297662 258.498783 
L 367.567792 264.509217 
L 359.837922 240.467478 
L 352.108052 251.486609 
L 344.378182 225.441391 
L 336.648312 274.526609 
L 328.918442 223.437913 
L 321.188571 247.479652 
L 313.458701 182.366609 
L 305.728831 255.493565 
L 297.998961 221.434435 
L 290.269091 199.396174 
L 282.539221 168.342261 
L 274.809351 148.307478 
L 267.079481 159.326609 
L 259.34961 149.309217 
L 251.61974 158.32487 
L 243.88987 186.373565 
L 236.16 153.316174 
L 228.43013 186.373565 
L 220.70026 177.357913 
L 212.97039 194.387478 
L 205.240519 195.389217 
L 197.510649 172.349217 
L 189.780779 177.357913 
L 182.050909 199.396174 
L 174.321039 161.330087 
L 166.591169 178.359652 
L 158.861299 173.350957 
L 151.131429 168.342261 
L 143.401558 194.387478 
L 135.671688 165.337043 
L 127.941818 145.302261 
L 120.211948 150.310957 
L 112.482078 195.389217 
L 104.752208 177.357913 
L 97.022338 216.425739 
L 89.292468 195.389217 
L 81.562597 127.270957 
L 73.832727 128.272696 
z
" style="fill:#e377c2;"/>
   </g>
   <g id="PolyCollection_8">
    <path clip-path="url(#p9c5187eb16)" d="M 73.832727 118.255304 
L 73.832727 128.272696 
L 81.562597 127.270957 
L 89.292468 195.389217 
L 97.022338 216.425739 
L 104.752208 177.357913 
L 112.482078 195.389217 
L 120.211948 150.310957 
L 127.941818 145.302261 
L 135.671688 165.337043 
L 143.401558 194.387478 
L 151.131429 168.342261 
L 158.861299 173.350957 
L 166.591169 178.359652 
L 174.321039 161.330087 
L 182.050909 199.396174 
L 189.780779 177.357913 
L 197.510649 172.349217 
L 205.240519 195.389217 
L 212.97039 194.387478 
L 220.70026 177.357913 
L 228.43013 186.373565 
L 236.16 153.316174 
L 243.88987 186.373565 
L 251.61974 158.32487 
L 259.34961 149.309217 
L 267.079481 159.326609 
L 274.809351 148.307478 
L 282.539221 168.342261 
L 290.269091 199.396174 
L 297.998961 221.434435 
L 305.728831 255.493565 
L 313.458701 182.366609 
L 321.188571 247.479652 
L 328.918442 223.437913 
L 336.648312 274.526609 
L 344.378182 225.441391 
L 352.108052 251.486609 
L 359.837922 240.467478 
L 367.567792 264.509217 
L 375.297662 258.498783 
L 383.027532 257.497043 
L 390.757403 257.497043 
L 398.487273 254.491826 
L 398.487273 220.432696 
L 398.487273 220.432696 
L 390.757403 235.458783 
L 383.027532 237.462261 
L 375.297662 236.460522 
L 367.567792 245.476174 
L 359.837922 218.429217 
L 352.108052 236.460522 
L 344.378182 204.40487 
L 336.648312 243.472696 
L 328.918442 212.418783 
L 321.188571 242.470957 
L 313.458701 178.359652 
L 305.728831 251.486609 
L 297.998961 218.429217 
L 290.269091 195.389217 
L 282.539221 163.333565 
L 274.809351 146.304 
L 267.079481 157.32313 
L 259.34961 146.304 
L 251.61974 156.321391 
L 243.88987 185.371826 
L 236.16 148.307478 
L 228.43013 181.36487 
L 220.70026 173.350957 
L 212.97039 189.378783 
L 205.240519 190.380522 
L 197.510649 166.338783 
L 189.780779 172.349217 
L 182.050909 194.387478 
L 174.321039 157.32313 
L 166.591169 173.350957 
L 158.861299 169.344 
L 151.131429 165.337043 
L 143.401558 192.384 
L 135.671688 163.333565 
L 127.941818 143.298783 
L 120.211948 147.305739 
L 112.482078 191.382261 
L 104.752208 172.349217 
L 97.022338 212.418783 
L 89.292468 190.380522 
L 81.562597 126.269217 
L 73.832727 118.255304 
z
" style="fill:#7f7f7f;"/>
   </g>
   <g id="PolyCollection_9">
    <path clip-path="url(#p9c5187eb16)" d="M 73.832727 112.24487 
L 73.832727 118.255304 
L 81.562597 126.269217 
L 89.292468 190.380522 
L 97.022338 212.418783 
L 104.752208 172.349217 
L 112.482078 191.382261 
L 120.211948 147.305739 
L 127.941818 143.298783 
L 135.671688 163.333565 
L 143.401558 192.384 
L 151.131429 165.337043 
L 158.861299 169.344 
L 166.591169 173.350957 
L 174.321039 157.32313 
L 182.050909 194.387478 
L 189.780779 172.349217 
L 197.510649 166.338783 
L 205.240519 190.380522 
L 212.97039 189.378783 
L 220.70026 173.350957 
L 228.43013 181.36487 
L 236.16 148.307478 
L 243.88987 185.371826 
L 251.61974 156.321391 
L 259.34961 146.304 
L 267.079481 157.32313 
L 274.809351 146.304 
L 282.539221 163.333565 
L 290.269091 195.389217 
L 297.998961 218.429217 
L 305.728831 251.486609 
L 313.458701 178.359652 
L 321.188571 242.470957 
L 328.918442 212.418783 
L 336.648312 243.472696 
L 344.378182 204.40487 
L 352.108052 236.460522 
L 359.837922 218.429217 
L 367.567792 245.476174 
L 375.297662 236.460522 
L 383.027532 237.462261 
L 390.757403 235.458783 
L 398.487273 220.432696 
L 398.487273 198.394435 
L 398.487273 198.394435 
L 390.757403 190.380522 
L 383.027532 200.397913 
L 375.297662 212.418783 
L 367.567792 214.422261 
L 359.837922 160.328348 
L 352.108052 175.354435 
L 344.378182 194.387478 
L 336.648312 185.371826 
L 328.918442 199.396174 
L 321.188571 211.417043 
L 313.458701 174.352696 
L 305.728831 182.366609 
L 297.998961 150.310957 
L 290.269091 140.293565 
L 282.539221 123.264 
L 274.809351 111.24313 
L 267.079481 123.264 
L 259.34961 106.234435 
L 251.61974 120.258783 
L 243.88987 136.286609 
L 236.16 139.291826 
L 228.43013 136.286609 
L 220.70026 144.300522 
L 212.97039 143.298783 
L 205.240519 150.310957 
L 197.510649 121.260522 
L 189.780779 136.286609 
L 182.050909 146.304 
L 174.321039 134.28313 
L 166.591169 140.293565 
L 158.861299 128.272696 
L 151.131429 121.260522 
L 143.401558 121.260522 
L 135.671688 117.253565 
L 127.941818 119.257043 
L 120.211948 119.257043 
L 112.482078 154.317913 
L 104.752208 152.314435 
L 97.022338 184.370087 
L 89.292468 162.331826 
L 81.562597 110.241391 
L 73.832727 112.24487 
z
" style="fill:#bcbd22;"/>
   </g>
   <g id="PolyCollection_10">
    <path clip-path="url(#p9c5187eb16)" d="M 73.832727 103.229217 
L 73.832727 112.24487 
L 81.562597 110.241391 
L 89.292468 162.331826 
L 97.022338 184.370087 
L 104.752208 152.314435 
L 112.482078 154.317913 
L 120.211948 119.257043 
L 127.941818 119.257043 
L 135.671688 117.253565 
L 143.401558 121.260522 
L 151.131429 121.260522 
L 158.861299 128.272696 
L 166.591169 140.293565 
L 174.321039 134.28313 
L 182.050909 146.304 
L 189.780779 136.286609 
L 197.510649 121.260522 
L 205.240519 150.310957 
L 212.97039 143.298783 
L 220.70026 144.300522 
L 228.43013 136.286609 
L 236.16 139.291826 
L 243.88987 136.286609 
L 251.61974 120.258783 
L 259.34961 106.234435 
L 267.079481 123.264 
L 274.809351 111.24313 
L 282.539221 123.264 
L 290.269091 140.293565 
L 297.998961 150.310957 
L 305.728831 182.366609 
L 313.458701 174.352696 
L 321.188571 211.417043 
L 328.918442 199.396174 
L 336.648312 185.371826 
L 344.378182 194.387478 
L 352.108052 175.354435 
L 359.837922 160.328348 
L 367.567792 214.422261 
L 375.297662 212.418783 
L 383.027532 200.397913 
L 390.757403 190.380522 
L 398.487273 198.394435 
L 398.487273 198.394435 
L 398.487273 198.394435 
L 390.757403 190.380522 
L 383.027532 200.397913 
L 375.297662 212.418783 
L 367.567792 214.422261 
L 359.837922 160.328348 
L 352.108052 175.354435 
L 344.378182 194.387478 
L 336.648312 185.371826 
L 328.918442 199.396174 
L 321.188571 211.417043 
L 313.458701 174.352696 
L 305.728831 182.366609 
L 297.998961 150.310957 
L 290.269091 140.293565 
L 282.539221 123.264 
L 274.809351 111.24313 
L 267.079481 123.264 
L 259.34961 106.234435 
L 251.61974 107.236174 
L 243.88987 111.24313 
L 236.16 112.24487 
L 228.43013 113.246609 
L 220.70026 112.24487 
L 212.97039 114.248348 
L 205.240519 105.232696 
L 197.510649 99.222261 
L 189.780779 111.24313 
L 182.050909 119.257043 
L 174.321039 111.24313 
L 166.591169 115.250087 
L 158.861299 115.250087 
L 151.131429 112.24487 
L 143.401558 115.250087 
L 135.671688 106.234435 
L 127.941818 100.224 
L 120.211948 103.229217 
L 112.482078 119.257043 
L 104.752208 120.258783 
L 97.022338 130.276174 
L 89.292468 100.224 
L 81.562597 89.20487 
L 73.832727 103.229217 
z
" style="fill:#17becf;"/>
   </g>
   <g id="PolyCollection_11">
    <path clip-path="url(#p9c5187eb16)" d="M 73.832727 102.227478 
L 73.832727 103.229217 
L 81.562597 89.20487 
L 89.292468 100.224 
L 97.022338 130.276174 
L 104.752208 120.258783 
L 112.482078 119.257043 
L 120.211948 103.229217 
L 127.941818 100.224 
L 135.671688 106.234435 
L 143.401558 115.250087 
L 151.131429 112.24487 
L 158.861299 115.250087 
L 166.591169 115.250087 
L 174.321039 111.24313 
L 182.050909 119.257043 
L 189.780779 111.24313 
L 197.510649 99.222261 
L 205.240519 105.232696 
L 212.97039 114.248348 
L 220.70026 112.24487 
L 228.43013 113.246609 
L 236.16 112.24487 
L 243.88987 111.24313 
L 251.61974 107.236174 
L 259.34961 106.234435 
L 267.079481 123.264 
L 274.809351 111.24313 
L 282.539221 123.264 
L 290.269091 140.293565 
L 297.998961 150.310957 
L 305.728831 182.366609 
L 313.458701 174.352696 
L 321.188571 211.417043 
L 328.918442 199.396174 
L 336.648312 185.371826 
L 344.378182 194.387478 
L 352.108052 175.354435 
L 359.837922 160.328348 
L 367.567792 214.422261 
L 375.297662 212.418783 
L 383.027532 200.397913 
L 390.757403 190.380522 
L 398.487273 198.394435 
L 398.487273 153.316174 
L 398.487273 153.316174 
L 390.757403 148.307478 
L 383.027532 180.36313 
L 375.297662 160.328348 
L 367.567792 138.290087 
L 359.837922 137.288348 
L 352.108052 159.326609 
L 344.378182 166.338783 
L 336.648312 175.354435 
L 328.918442 163.333565 
L 321.188571 169.344 
L 313.458701 167.340522 
L 305.728831 167.340522 
L 297.998961 144.300522 
L 290.269091 134.28313 
L 282.539221 119.257043 
L 274.809351 108.237913 
L 267.079481 119.257043 
L 259.34961 104.230957 
L 251.61974 104.230957 
L 243.88987 107.236174 
L 236.16 109.239652 
L 228.43013 109.239652 
L 220.70026 109.239652 
L 212.97039 110.241391 
L 205.240519 102.227478 
L 197.510649 95.215304 
L 189.780779 106.234435 
L 182.050909 115.250087 
L 174.321039 108.237913 
L 166.591169 114.248348 
L 158.861299 112.24487 
L 151.131429 109.239652 
L 143.401558 111.24313 
L 135.671688 101.225739 
L 127.941818 96.217043 
L 120.211948 98.220522 
L 112.482078 114.248348 
L 104.752208 117.253565 
L 97.022338 125.267478 
L 89.292468 96.217043 
L 81.562597 87.201391 
L 73.832727 102.227478 
z
" style="fill:#1f77b4;"/>
   </g>
   <g id="PolyCollection_12">
    <path clip-path="url(#p9c5187eb16)" d="M 73.832727 101.225739 
L 73.832727 102.227478 
L 81.562597 87.201391 
L 89.292468 96.217043 
L 97.022338 125.267478 
L 104.752208 117.253565 
L 112.482078 114.248348 
L 120.211948 98.220522 
L 127.941818 96.217043 
L 135.671688 101.225739 
L 143.401558 111.24313 
L 151.131429 109.239652 
L 158.861299 112.24487 
L 166.591169 114.248348 
L 174.321039 108.237913 
L 182.050909 115.250087 
L 189.780779 106.234435 
L 197.510649 95.215304 
L 205.240519 102.227478 
L 212.97039 110.241391 
L 220.70026 109.239652 
L 228.43013 109.239652 
L 236.16 109.239652 
L 243.88987 107.236174 
L 251.61974 104.230957 
L 259.34961 104.230957 
L 267.079481 119.257043 
L 274.809351 108.237913 
L 282.539221 119.257043 
L 290.269091 134.28313 
L 297.998961 144.300522 
L 305.728831 167.340522 
L 313.458701 167.340522 
L 321.188571 169.344 
L 328.918442 163.333565 
L 336.648312 175.354435 
L 344.378182 166.338783 
L 352.108052 159.326609 
L 359.837922 137.288348 
L 367.567792 138.290087 
L 375.297662 160.328348 
L 383.027532 180.36313 
L 390.757403 148.307478 
L 398.487273 153.316174 
L 398.487273 153.316174 
L 398.487273 153.316174 
L 390.757403 148.307478 
L 383.027532 180.36313 
L 375.297662 160.328348 
L 367.567792 138.290087 
L 359.837922 137.288348 
L 352.108052 159.326609 
L 344.378182 164.335304 
L 336.648312 172.349217 
L 328.918442 159.326609 
L 321.188571 164.335304 
L 313.458701 163.333565 
L 305.728831 162.331826 
L 297.998961 140.293565 
L 290.269091 131.277913 
L 282.539221 115.250087 
L 274.809351 106.234435 
L 267.079481 115.250087 
L 259.34961 101.225739 
L 251.61974 101.225739 
L 243.88987 104.230957 
L 236.16 107.236174 
L 228.43013 106.234435 
L 220.70026 105.232696 
L 212.97039 107.236174 
L 205.240519 98.220522 
L 197.510649 92.210087 
L 189.780779 104.230957 
L 182.050909 113.246609 
L 174.321039 104.230957 
L 166.591169 109.239652 
L 158.861299 108.237913 
L 151.131429 106.234435 
L 143.401558 107.236174 
L 135.671688 99.222261 
L 127.941818 93.211826 
L 120.211948 95.215304 
L 112.482078 110.241391 
L 104.752208 114.248348 
L 97.022338 120.258783 
L 89.292468 92.210087 
L 81.562597 85.197913 
L 73.832727 101.225739 
z
" style="fill:#ff7f0e;"/>
   </g>
   <g id="PolyCollection_13">
    <path clip-path="url(#p9c5187eb16)" d="M 73.832727 100.224 
L 73.832727 101.225739 
L 81.562597 85.197913 
L 89.292468 92.210087 
L 97.022338 120.258783 
L 104.752208 114.248348 
L 112.482078 110.241391 
L 120.211948 95.215304 
L 127.941818 93.211826 
L 135.671688 99.222261 
L 143.401558 107.236174 
L 151.131429 106.234435 
L 158.861299 108.237913 
L 166.591169 109.239652 
L 174.321039 104.230957 
L 182.050909 113.246609 
L 189.780779 104.230957 
L 197.510649 92.210087 
L 205.240519 98.220522 
L 212.97039 107.236174 
L 220.70026 105.232696 
L 228.43013 106.234435 
L 236.16 107.236174 
L 243.88987 104.230957 
L 251.61974 101.225739 
L 259.34961 101.225739 
L 267.079481 115.250087 
L 274.809351 106.234435 
L 282.539221 115.250087 
L 290.269091 131.277913 
L 297.998961 140.293565 
L 305.728831 162.331826 
L 313.458701 163.333565 
L 321.188571 164.335304 
L 328.918442 159.326609 
L 336.648312 172.349217 
L 344.378182 164.335304 
L 352.108052 159.326609 
L 359.837922 137.288348 
L 367.567792 138.290087 
L 375.297662 160.328348 
L 383.027532 180.36313 
L 390.757403 148.307478 
L 398.487273 153.316174 
L 398.487273 128.272696 
L 398.487273 128.272696 
L 390.757403 123.264 
L 383.027532 156.321391 
L 375.297662 136.286609 
L 367.567792 116.251826 
L 359.837922 122.262261 
L 352.108052 135.28487 
L 344.378182 139.291826 
L 336.648312 148.307478 
L 328.918442 131.277913 
L 321.188571 130.276174 
L 313.458701 135.28487 
L 305.728831 130.276174 
L 297.998961 119.257043 
L 290.269091 114.248348 
L 282.539221 98.220522 
L 274.809351 92.210087 
L 267.079481 103.229217 
L 259.34961 95.215304 
L 251.61974 98.220522 
L 243.88987 99.222261 
L 236.16 103.229217 
L 228.43013 103.229217 
L 220.70026 101.225739 
L 212.97039 101.225739 
L 205.240519 95.215304 
L 197.510649 89.20487 
L 189.780779 101.225739 
L 182.050909 109.239652 
L 174.321039 102.227478 
L 166.591169 105.232696 
L 158.861299 103.229217 
L 151.131429 100.224 
L 143.401558 102.227478 
L 135.671688 96.217043 
L 127.941818 89.20487 
L 120.211948 91.208348 
L 112.482078 107.236174 
L 104.752208 108.237913 
L 97.022338 115.250087 
L 89.292468 87.201391 
L 81.562597 81.190957 
L 73.832727 100.224 
z
" style="fill:#2ca02c;"/>
   </g>
   <g id="PolyCollection_14">
    <path clip-path="url(#p9c5187eb16)" d="M 73.832727 64.161391 
L 73.832727 100.224 
L 81.562597 81.190957 
L 89.292468 87.201391 
L 97.022338 115.250087 
L 104.752208 108.237913 
L 112.482078 107.236174 
L 120.211948 91.208348 
L 127.941818 89.20487 
L 135.671688 96.217043 
L 143.401558 102.227478 
L 151.131429 100.224 
L 158.861299 103.229217 
L 166.591169 105.232696 
L 174.321039 102.227478 
L 182.050909 109.239652 
L 189.780779 101.225739 
L 197.510649 89.20487 
L 205.240519 95.215304 
L 212.97039 101.225739 
L 220.70026 101.225739 
L 228.43013 103.229217 
L 236.16 103.229217 
L 243.88987 99.222261 
L 251.61974 98.220522 
L 259.34961 95.215304 
L 267.079481 103.229217 
L 274.809351 92.210087 
L 282.539221 98.220522 
L 290.269091 114.248348 
L 297.998961 119.257043 
L 305.728831 130.276174 
L 313.458701 135.28487 
L 321.188571 130.276174 
L 328.918442 131.277913 
L 336.648312 148.307478 
L 344.378182 139.291826 
L 352.108052 135.28487 
L 359.837922 122.262261 
L 367.567792 116.251826 
L 375.297662 136.286609 
L 383.027532 156.321391 
L 390.757403 123.264 
L 398.487273 128.272696 
L 398.487273 128.272696 
L 398.487273 128.272696 
L 390.757403 123.264 
L 383.027532 156.321391 
L 375.297662 136.286609 
L 367.567792 116.251826 
L 359.837922 122.262261 
L 352.108052 135.28487 
L 344.378182 139.291826 
L 336.648312 125.267478 
L 328.918442 102.227478 
L 321.188571 92.210087 
L 313.458701 98.220522 
L 305.728831 90.206609 
L 297.998961 88.20313 
L 290.269091 94.213565 
L 282.539221 79.187478 
L 274.809351 78.185739 
L 267.079481 81.190957 
L 259.34961 82.192696 
L 251.61974 72.175304 
L 243.88987 77.184 
L 236.16 84.196174 
L 228.43013 80.189217 
L 220.70026 82.192696 
L 212.97039 82.192696 
L 205.240519 82.192696 
L 197.510649 79.187478 
L 189.780779 81.190957 
L 182.050909 83.194435 
L 174.321039 85.197913 
L 166.591169 77.184 
L 158.861299 79.187478 
L 151.131429 78.185739 
L 143.401558 76.182261 
L 135.671688 82.192696 
L 127.941818 77.184 
L 120.211948 79.187478 
L 112.482078 77.184 
L 104.752208 79.187478 
L 97.022338 78.185739 
L 89.292468 78.185739 
L 81.562597 75.180522 
L 73.832727 64.161391 
z
" style="fill:#d62728;"/>
   </g>
   <g id="PolyCollection_15">
    <path clip-path="url(#p9c5187eb16)" d="M 73.832727 63.159652 
L 73.832727 64.161391 
L 81.562597 75.180522 
L 89.292468 78.185739 
L 97.022338 78.185739 
L 104.752208 79.187478 
L 112.482078 77.184 
L 120.211948 79.187478 
L 127.941818 77.184 
L 135.671688 82.192696 
L 143.401558 76.182261 
L 151.131429 78.185739 
L 158.861299 79.187478 
L 166.591169 77.184 
L 174.321039 85.197913 
L 182.050909 83.194435 
L 189.780779 81.190957 
L 197.510649 79.187478 
L 205.240519 82.192696 
L 212.97039 82.192696 
L 220.70026 82.192696 
L 228.43013 80.189217 
L 236.16 84.196174 
L 243.88987 77.184 
L 251.61974 72.175304 
L 259.34961 82.192696 
L 267.079481 81.190957 
L 274.809351 78.185739 
L 282.539221 79.187478 
L 290.269091 94.213565 
L 297.998961 88.20313 
L 305.728831 90.206609 
L 313.458701 98.220522 
L 321.188571 92.210087 
L 328.918442 102.227478 
L 336.648312 125.267478 
L 344.378182 139.291826 
L 352.108052 135.28487 
L 359.837922 122.262261 
L 367.567792 116.251826 
L 375.297662 136.286609 
L 383.027532 156.321391 
L 390.757403 123.264 
L 398.487273 128.272696 
L 398.487273 125.267478 
L 398.487273 125.267478 
L 390.757403 119.257043 
L 383.027532 150.310957 
L 375.297662 132.279652 
L 367.567792 114.248348 
L 359.837922 119.257043 
L 352.108052 133.281391 
L 344.378182 138.290087 
L 336.648312 123.264 
L 328.918442 99.222261 
L 321.188571 83.194435 
L 313.458701 90.206609 
L 305.728831 81.190957 
L 297.998961 82.192696 
L 290.269091 86.199652 
L 282.539221 73.177043 
L 274.809351 73.177043 
L 267.079481 75.180522 
L 259.34961 77.184 
L 251.61974 68.168348 
L 243.88987 71.173565 
L 236.16 79.187478 
L 228.43013 76.182261 
L 220.70026 79.187478 
L 212.97039 78.185739 
L 205.240519 77.184 
L 197.510649 75.180522 
L 189.780779 78.185739 
L 182.050909 78.185739 
L 174.321039 81.190957 
L 166.591169 74.178783 
L 158.861299 75.180522 
L 151.131429 74.178783 
L 143.401558 71.173565 
L 135.671688 77.184 
L 127.941818 73.177043 
L 120.211948 77.184 
L 112.482078 73.177043 
L 104.752208 74.178783 
L 97.022338 74.178783 
L 89.292468 73.177043 
L 81.562597 71.173565 
L 73.832727 63.159652 
z
" style="fill:#9467bd;"/>
   </g>
   <g id="PolyCollection_16">
    <path clip-path="url(#p9c5187eb16)" d="M 73.832727 62.157913 
L 73.832727 63.159652 
L 81.562597 71.173565 
L 89.292468 73.177043 
L 97.022338 74.178783 
L 104.752208 74.178783 
L 112.482078 73.177043 
L 120.211948 77.184 
L 127.941818 73.177043 
L 135.671688 77.184 
L 143.401558 71.173565 
L 151.131429 74.178783 
L 158.861299 75.180522 
L 166.591169 74.178783 
L 174.321039 81.190957 
L 182.050909 78.185739 
L 189.780779 78.185739 
L 197.510649 75.180522 
L 205.240519 77.184 
L 212.97039 78.185739 
L 220.70026 79.187478 
L 228.43013 76.182261 
L 236.16 79.187478 
L 243.88987 71.173565 
L 251.61974 68.168348 
L 259.34961 77.184 
L 267.079481 75.180522 
L 274.809351 73.177043 
L 282.539221 73.177043 
L 290.269091 86.199652 
L 297.998961 82.192696 
L 305.728831 81.190957 
L 313.458701 90.206609 
L 321.188571 83.194435 
L 328.918442 99.222261 
L 336.648312 123.264 
L 344.378182 138.290087 
L 352.108052 133.281391 
L 359.837922 119.257043 
L 367.567792 114.248348 
L 375.297662 132.279652 
L 383.027532 150.310957 
L 390.757403 119.257043 
L 398.487273 125.267478 
L 398.487273 104.230957 
L 398.487273 104.230957 
L 390.757403 92.210087 
L 383.027532 123.264 
L 375.297662 125.267478 
L 367.567792 109.239652 
L 359.837922 91.208348 
L 352.108052 105.232696 
L 344.378182 110.241391 
L 336.648312 94.213565 
L 328.918442 65.16313 
L 321.188571 57.149217 
L 313.458701 59.152696 
L 305.728831 56.147478 
L 297.998961 58.150957 
L 290.269091 59.152696 
L 282.539221 57.149217 
L 274.809351 55.145739 
L 267.079481 58.150957 
L 259.34961 58.150957 
L 251.61974 58.150957 
L 243.88987 57.149217 
L 236.16 61.156174 
L 228.43013 63.159652 
L 220.70026 65.16313 
L 212.97039 63.159652 
L 205.240519 60.154435 
L 197.510649 59.152696 
L 189.780779 63.159652 
L 182.050909 60.154435 
L 174.321039 64.161391 
L 166.591169 65.16313 
L 158.861299 66.16487 
L 151.131429 61.156174 
L 143.401558 62.157913 
L 135.671688 69.170087 
L 127.941818 68.168348 
L 120.211948 71.173565 
L 112.482078 66.16487 
L 104.752208 68.168348 
L 97.022338 70.171826 
L 89.292468 69.170087 
L 81.562597 67.166609 
L 73.832727 62.157913 
z
" style="fill:#8c564b;"/>
   </g>
   <g id="PolyCollection_17">
    <path clip-path="url(#p9c5187eb16)" d="M 73.832727 58.150957 
L 73.832727 62.157913 
L 81.562597 67.166609 
L 89.292468 69.170087 
L 97.022338 70.171826 
L 104.752208 68.168348 
L 112.482078 66.16487 
L 120.211948 71.173565 
L 127.941818 68.168348 
L 135.671688 69.170087 
L 143.401558 62.157913 
L 151.131429 61.156174 
L 158.861299 66.16487 
L 166.591169 65.16313 
L 174.321039 64.161391 
L 182.050909 60.154435 
L 189.780779 63.159652 
L 197.510649 59.152696 
L 205.240519 60.154435 
L 212.97039 63.159652 
L 220.70026 65.16313 
L 228.43013 63.159652 
L 236.16 61.156174 
L 243.88987 57.149217 
L 251.61974 58.150957 
L 259.34961 58.150957 
L 267.079481 58.150957 
L 274.809351 55.145739 
L 282.539221 57.149217 
L 290.269091 59.152696 
L 297.998961 58.150957 
L 305.728831 56.147478 
L 313.458701 59.152696 
L 321.188571 57.149217 
L 328.918442 65.16313 
L 336.648312 94.213565 
L 344.378182 110.241391 
L 352.108052 105.232696 
L 359.837922 91.208348 
L 367.567792 109.239652 
L 375.297662 125.267478 
L 383.027532 123.264 
L 390.757403 92.210087 
L 398.487273 104.230957 
L 398.487273 104.230957 
L 398.487273 104.230957 
L 390.757403 92.210087 
L 383.027532 123.264 
L 375.297662 125.267478 
L 367.567792 109.239652 
L 359.837922 91.208348 
L 352.108052 105.232696 
L 344.378182 110.241391 
L 336.648312 94.213565 
L 328.918442 65.16313 
L 321.188571 57.149217 
L 313.458701 59.152696 
L 305.728831 56.147478 
L 297.998961 58.150957 
L 290.269091 59.152696 
L 282.539221 57.149217 
L 274.809351 55.145739 
L 267.079481 58.150957 
L 259.34961 58.150957 
L 251.61974 58.150957 
L 243.88987 57.149217 
L 236.16 61.156174 
L 228.43013 60.154435 
L 220.70026 62.157913 
L 212.97039 59.152696 
L 205.240519 57.149217 
L 197.510649 57.149217 
L 189.780779 59.152696 
L 182.050909 57.149217 
L 174.321039 62.157913 
L 166.591169 62.157913 
L 158.861299 62.157913 
L 151.131429 60.154435 
L 143.401558 59.152696 
L 135.671688 64.161391 
L 127.941818 62.157913 
L 120.211948 64.161391 
L 112.482078 58.150957 
L 104.752208 59.152696 
L 97.022338 62.157913 
L 89.292468 63.159652 
L 81.562597 62.157913 
L 73.832727 58.150957 
z
" style="fill:#e377c2;"/>
   </g>
   <g id="PolyCollection_18">
    <path clip-path="url(#p9c5187eb16)" d="M 73.832727 57.149217 
L 73.832727 58.150957 
L 81.562597 62.157913 
L 89.292468 63.159652 
L 97.022338 62.157913 
L 104.752208 59.152696 
L 112.482078 58.150957 
L 120.211948 64.161391 
L 127.941818 62.157913 
L 135.671688 64.161391 
L 143.401558 59.152696 
L 151.131429 60.154435 
L 158.861299 62.157913 
L 166.591169 62.157913 
L 174.321039 62.157913 
L 182.050909 57.149217 
L 189.780779 59.152696 
L 197.510649 57.149217 
L 205.240519 57.149217 
L 212.97039 59.152696 
L 220.70026 62.157913 
L 228.43013 60.154435 
L 236.16 61.156174 
L 243.88987 57.149217 
L 251.61974 58.150957 
L 259.34961 58.150957 
L 267.079481 58.150957 
L 274.809351 55.145739 
L 282.539221 57.149217 
L 290.269091 59.152696 
L 297.998961 58.150957 
L 305.728831 56.147478 
L 313.458701 59.152696 
L 321.188571 57.149217 
L 328.918442 65.16313 
L 336.648312 94.213565 
L 344.378182 110.241391 
L 352.108052 105.232696 
L 359.837922 91.208348 
L 367.567792 109.239652 
L 375.297662 125.267478 
L 383.027532 123.264 
L 390.757403 92.210087 
L 398.487273 104.230957 
L 398.487273 104.230957 
L 398.487273 104.230957 
L 390.757403 92.210087 
L 383.027532 123.264 
L 375.297662 125.267478 
L 367.567792 109.239652 
L 359.837922 91.208348 
L 352.108052 105.232696 
L 344.378182 110.241391 
L 336.648312 94.213565 
L 328.918442 65.16313 
L 321.188571 57.149217 
L 313.458701 59.152696 
L 305.728831 56.147478 
L 297.998961 58.150957 
L 290.269091 59.152696 
L 282.539221 57.149217 
L 274.809351 55.145739 
L 267.079481 58.150957 
L 259.34961 58.150957 
L 251.61974 58.150957 
L 243.88987 54.144 
L 236.16 57.149217 
L 228.43013 55.145739 
L 220.70026 58.150957 
L 212.97039 56.147478 
L 205.240519 54.144 
L 197.510649 56.147478 
L 189.780779 56.147478 
L 182.050909 55.145739 
L 174.321039 60.154435 
L 166.591169 60.154435 
L 158.861299 58.150957 
L 151.131429 57.149217 
L 143.401558 55.145739 
L 135.671688 60.154435 
L 127.941818 58.150957 
L 120.211948 59.152696 
L 112.482078 55.145739 
L 104.752208 57.149217 
L 97.022338 59.152696 
L 89.292468 57.149217 
L 81.562597 57.149217 
L 73.832727 57.149217 
z
" style="fill:#7f7f7f;"/>
   </g>
   <g id="PolyCollection_19">
    <path clip-path="url(#p9c5187eb16)" d="M 73.832727 57.149217 
L 73.832727 57.149217 
L 81.562597 57.149217 
L 89.292468 57.149217 
L 97.022338 59.152696 
L 104.752208 57.149217 
L 112.482078 55.145739 
L 120.211948 59.152696 
L 127.941818 58.150957 
L 135.671688 60.154435 
L 143.401558 55.145739 
L 151.131429 57.149217 
L 158.861299 58.150957 
L 166.591169 60.154435 
L 174.321039 60.154435 
L 182.050909 55.145739 
L 189.780779 56.147478 
L 197.510649 56.147478 
L 205.240519 54.144 
L 212.97039 56.147478 
L 220.70026 58.150957 
L 228.43013 55.145739 
L 236.16 57.149217 
L 243.88987 54.144 
L 251.61974 58.150957 
L 259.34961 58.150957 
L 267.079481 58.150957 
L 274.809351 55.145739 
L 282.539221 57.149217 
L 290.269091 59.152696 
L 297.998961 58.150957 
L 305.728831 56.147478 
L 313.458701 59.152696 
L 321.188571 57.149217 
L 328.918442 65.16313 
L 336.648312 94.213565 
L 344.378182 110.241391 
L 352.108052 105.232696 
L 359.837922 91.208348 
L 367.567792 109.239652 
L 375.297662 125.267478 
L 383.027532 123.264 
L 390.757403 92.210087 
L 398.487273 104.230957 
L 398.487273 59.152696 
L 398.487273 59.152696 
L 390.757403 58.150957 
L 383.027532 59.152696 
L 375.297662 59.152696 
L 367.567792 58.150957 
L 359.837922 57.149217 
L 352.108052 56.147478 
L 344.378182 58.150957 
L 336.648312 59.152696 
L 328.918442 58.150957 
L 321.188571 57.149217 
L 313.458701 59.152696 
L 305.728831 56.147478 
L 297.998961 58.150957 
L 290.269091 59.152696 
L 282.539221 57.149217 
L 274.809351 55.145739 
L 267.079481 58.150957 
L 259.34961 58.150957 
L 251.61974 58.150957 
L 243.88987 54.144 
L 236.16 57.149217 
L 228.43013 55.145739 
L 220.70026 58.150957 
L 212.97039 56.147478 
L 205.240519 54.144 
L 197.510649 56.147478 
L 189.780779 56.147478 
L 182.050909 55.145739 
L 174.321039 60.154435 
L 166.591169 60.154435 
L 158.861299 58.150957 
L 151.131429 57.149217 
L 143.401558 55.145739 
L 135.671688 60.154435 
L 127.941818 58.150957 
L 120.211948 59.152696 
L 112.482078 55.145739 
L 104.752208 57.149217 
L 97.022338 59.152696 
L 89.292468 57.149217 
L 81.562597 57.149217 
L 73.832727 57.149217 
z
" style="fill:#bcbd22;"/>
   </g>
   <g id="matplotlib.axis_1">
    <g id="xtick_1">
     <g id="line2d_1">
      <defs>
       <path d="M 0 0 
L 0 3.5 
" id="me2800580ce" style="stroke:#000000;stroke-width:0.8;"/>
      </defs>
      <g>
       <use style="stroke:#000000;stroke-width:0.8;" x="73.832727" xlink:href="#me2800580ce" y="307.584"/>
      </g>
     </g>
     <g id="text_1">
      <!-- 0 -->
      <defs>
       <path d="M 31.78125 66.40625 
Q 24.171875 66.40625 20.328125 58.90625 
Q 16.5 51.421875 16.5 36.375 
Q 16.5 21.390625 20.328125 13.890625 
Q 24.171875 6.390625 31.78125 6.390625 
Q 39.453125 6.390625 43.28125 13.890625 
Q 47.125 21.390625 47.125 36.375 
Q 47.125 51.421875 43.28125 58.90625 
Q 39.453125 66.40625 31.78125 66.40625 
z
M 31.78125 74.21875 
Q 44.046875 74.21875 50.515625 64.515625 
Q 56.984375 54.828125 56.984375 36.375 
Q 56.984375 17.96875 50.515625 8.265625 
Q 44.046875 -1.421875 31.78125 -1.421875 
Q 19.53125 -1.421875 13.0625 8.265625 
Q 6.59375 17.96875 6.59375 36.375 
Q 6.59375 54.828125 13.0625 64.515625 
Q 19.53125 74.21875 31.78125 74.21875 
z
" id="DejaVuSans-48"/>
      </defs>
      <g transform="translate(70.651477 322.182437)scale(0.1 -0.1)">
       <use xlink:href="#DejaVuSans-48"/>
      </g>
     </g>
    </g>
    <g id="xtick_2">
     <g id="line2d_2">
      <g>
       <use style="stroke:#000000;stroke-width:0.8;" x="151.131429" xlink:href="#me2800580ce" y="307.584"/>
      </g>
     </g>
     <g id="text_2">
      <!-- 10 -->
      <defs>
       <path d="M 12.40625 8.296875 
L 28.515625 8.296875 
L 28.515625 63.921875 
L 10.984375 60.40625 
L 10.984375 69.390625 
L 28.421875 72.90625 
L 38.28125 72.90625 
L 38.28125 8.296875 
L 54.390625 8.296875 
L 54.390625 0 
L 12.40625 0 
z
" id="DejaVuSans-49"/>
      </defs>
      <g transform="translate(144.768929 322.182437)scale(0.1 -0.1)">
       <use xlink:href="#DejaVuSans-49"/>
       <use x="63.623047" xlink:href="#DejaVuSans-48"/>
      </g>
     </g>
    </g>
    <g id="xtick_3">
     <g id="line2d_3">
      <g>
       <use style="stroke:#000000;stroke-width:0.8;" x="228.43013" xlink:href="#me2800580ce" y="307.584"/>
      </g>
     </g>
     <g id="text_3">
      <!-- 20 -->
      <defs>
       <path d="M 19.1875 8.296875 
L 53.609375 8.296875 
L 53.609375 0 
L 7.328125 0 
L 7.328125 8.296875 
Q 12.9375 14.109375 22.625 23.890625 
Q 32.328125 33.6875 34.8125 36.53125 
Q 39.546875 41.84375 41.421875 45.53125 
Q 43.3125 49.21875 43.3125 52.78125 
Q 43.3125 58.59375 39.234375 62.25 
Q 35.15625 65.921875 28.609375 65.921875 
Q 23.96875 65.921875 18.8125 64.3125 
Q 13.671875 62.703125 7.8125 59.421875 
L 7.8125 69.390625 
Q 13.765625 71.78125 18.9375 73 
Q 24.125 74.21875 28.421875 74.21875 
Q 39.75 74.21875 46.484375 68.546875 
Q 53.21875 62.890625 53.21875 53.421875 
Q 53.21875 48.921875 51.53125 44.890625 
Q 49.859375 40.875 45.40625 35.40625 
Q 44.1875 33.984375 37.640625 27.21875 
Q 31.109375 20.453125 19.1875 8.296875 
z
" id="DejaVuSans-50"/>
      </defs>
      <g transform="translate(222.06763 322.182437)scale(0.1 -0.1)">
       <use xlink:href="#DejaVuSans-50"/>
       <use x="63.623047" xlink:href="#DejaVuSans-48"/>
      </g>
     </g>
    </g>
    <g id="xtick_4">
     <g id="line2d_4">
      <g>
       <use style="stroke:#000000;stroke-width:0.8;" x="305.728831" xlink:href="#me2800580ce" y="307.584"/>
      </g>
     </g>
     <g id="text_4">
      <!-- 30 -->
      <defs>
       <path d="M 40.578125 39.3125 
Q 47.65625 37.796875 51.625 33 
Q 55.609375 28.21875 55.609375 21.1875 
Q 55.609375 10.40625 48.1875 4.484375 
Q 40.765625 -1.421875 27.09375 -1.421875 
Q 22.515625 -1.421875 17.65625 -0.515625 
Q 12.796875 0.390625 7.625 2.203125 
L 7.625 11.71875 
Q 11.71875 9.328125 16.59375 8.109375 
Q 21.484375 6.890625 26.8125 6.890625 
Q 36.078125 6.890625 40.9375 10.546875 
Q 45.796875 14.203125 45.796875 21.1875 
Q 45.796875 27.640625 41.28125 31.265625 
Q 36.765625 34.90625 28.71875 34.90625 
L 20.21875 34.90625 
L 20.21875 43.015625 
L 29.109375 43.015625 
Q 36.375 43.015625 40.234375 45.921875 
Q 44.09375 48.828125 44.09375 54.296875 
Q 44.09375 59.90625 40.109375 62.90625 
Q 36.140625 65.921875 28.71875 65.921875 
Q 24.65625 65.921875 20.015625 65.03125 
Q 15.375 64.15625 9.8125 62.3125 
L 9.8125 71.09375 
Q 15.4375 72.65625 20.34375 73.4375 
Q 25.25 74.21875 29.59375 74.21875 
Q 40.828125 74.21875 47.359375 69.109375 
Q 53.90625 64.015625 53.90625 55.328125 
Q 53.90625 49.265625 50.4375 45.09375 
Q 46.96875 40.921875 40.578125 39.3125 
z
" id="DejaVuSans-51"/>
      </defs>
      <g transform="translate(299.366331 322.182437)scale(0.1 -0.1)">
       <use xlink:href="#DejaVuSans-51"/>
       <use x="63.623047" xlink:href="#DejaVuSans-48"/>
      </g>
     </g>
    </g>
    <g id="xtick_5">
     <g id="line2d_5">
      <g>
       <use style="stroke:#000000;stroke-width:0.8;" x="383.027532" xlink:href="#me2800580ce" y="307.584"/>
      </g>
     </g>
     <g id="text_5">
      <!-- 40 -->
      <defs>
       <path d="M 37.796875 64.3125 
L 12.890625 25.390625 
L 37.796875 25.390625 
z
M 35.203125 72.90625 
L 47.609375 72.90625 
L 47.609375 25.390625 
L 58.015625 25.390625 
L 58.015625 17.1875 
L 47.609375 17.1875 
L 47.609375 0 
L 37.796875 0 
L 37.796875 17.1875 
L 4.890625 17.1875 
L 4.890625 26.703125 
z
" id="DejaVuSans-52"/>
      </defs>
      <g transform="translate(376.665032 322.182437)scale(0.1 -0.1)">
       <use xlink:href="#DejaVuSans-52"/>
       <use x="63.623047" xlink:href="#DejaVuSans-48"/>
      </g>
     </g>
    </g>
    <g id="text_6">
     <!-- Generations -->
     <defs>
      <path d="M 59.515625 10.40625 
L 59.515625 29.984375 
L 43.40625 29.984375 
L 43.40625 38.09375 
L 69.28125 38.09375 
L 69.28125 6.78125 
Q 63.578125 2.734375 56.6875 0.65625 
Q 49.8125 -1.421875 42 -1.421875 
Q 24.90625 -1.421875 15.25 8.5625 
Q 5.609375 18.5625 5.609375 36.375 
Q 5.609375 54.25 15.25 64.234375 
Q 24.90625 74.21875 42 74.21875 
Q 49.125 74.21875 55.546875 72.453125 
Q 61.96875 70.703125 67.390625 67.28125 
L 67.390625 56.78125 
Q 61.921875 61.421875 55.765625 63.765625 
Q 49.609375 66.109375 42.828125 66.109375 
Q 29.4375 66.109375 22.71875 58.640625 
Q 16.015625 51.171875 16.015625 36.375 
Q 16.015625 21.625 22.71875 14.15625 
Q 29.4375 6.6875 42.828125 6.6875 
Q 48.046875 6.6875 52.140625 7.59375 
Q 56.25 8.5 59.515625 10.40625 
z
" id="DejaVuSans-71"/>
      <path d="M 56.203125 29.59375 
L 56.203125 25.203125 
L 14.890625 25.203125 
Q 15.484375 15.921875 20.484375 11.0625 
Q 25.484375 6.203125 34.421875 6.203125 
Q 39.59375 6.203125 44.453125 7.46875 
Q 49.3125 8.734375 54.109375 11.28125 
L 54.109375 2.78125 
Q 49.265625 0.734375 44.1875 -0.34375 
Q 39.109375 -1.421875 33.890625 -1.421875 
Q 20.796875 -1.421875 13.15625 6.1875 
Q 5.515625 13.8125 5.515625 26.8125 
Q 5.515625 40.234375 12.765625 48.109375 
Q 20.015625 56 32.328125 56 
Q 43.359375 56 49.78125 48.890625 
Q 56.203125 41.796875 56.203125 29.59375 
z
M 47.21875 32.234375 
Q 47.125 39.59375 43.09375 43.984375 
Q 39.0625 48.390625 32.421875 48.390625 
Q 24.90625 48.390625 20.390625 44.140625 
Q 15.875 39.890625 15.1875 32.171875 
z
" id="DejaVuSans-101"/>
      <path d="M 54.890625 33.015625 
L 54.890625 0 
L 45.90625 0 
L 45.90625 32.71875 
Q 45.90625 40.484375 42.875 44.328125 
Q 39.84375 48.1875 33.796875 48.1875 
Q 26.515625 48.1875 22.3125 43.546875 
Q 18.109375 38.921875 18.109375 30.90625 
L 18.109375 0 
L 9.078125 0 
L 9.078125 54.6875 
L 18.109375 54.6875 
L 18.109375 46.1875 
Q 21.34375 51.125 25.703125 53.5625 
Q 30.078125 56 35.796875 56 
Q 45.21875 56 50.046875 50.171875 
Q 54.890625 44.34375 54.890625 33.015625 
z
" id="DejaVuSans-110"/>
      <path d="M 41.109375 46.296875 
Q 39.59375 47.171875 37.8125 47.578125 
Q 36.03125 48 33.890625 48 
Q 26.265625 48 22.1875 43.046875 
Q 18.109375 38.09375 18.109375 28.8125 
L 18.109375 0 
L 9.078125 0 
L 9.078125 54.6875 
L 18.109375 54.6875 
L 18.109375 46.1875 
Q 20.953125 51.171875 25.484375 53.578125 
Q 30.03125 56 36.53125 56 
Q 37.453125 56 38.578125 55.875 
Q 39.703125 55.765625 41.0625 55.515625 
z
" id="DejaVuSans-114"/>
      <path d="M 34.28125 27.484375 
Q 23.390625 27.484375 19.1875 25 
Q 14.984375 22.515625 14.984375 16.5 
Q 14.984375 11.71875 18.140625 8.90625 
Q 21.296875 6.109375 26.703125 6.109375 
Q 34.1875 6.109375 38.703125 11.40625 
Q 43.21875 16.703125 43.21875 25.484375 
L 43.21875 27.484375 
z
M 52.203125 31.203125 
L 52.203125 0 
L 43.21875 0 
L 43.21875 8.296875 
Q 40.140625 3.328125 35.546875 0.953125 
Q 30.953125 -1.421875 24.3125 -1.421875 
Q 15.921875 -1.421875 10.953125 3.296875 
Q 6 8.015625 6 15.921875 
Q 6 25.140625 12.171875 29.828125 
Q 18.359375 34.515625 30.609375 34.515625 
L 43.21875 34.515625 
L 43.21875 35.40625 
Q 43.21875 41.609375 39.140625 45 
Q 35.0625 48.390625 27.6875 48.390625 
Q 23 48.390625 18.546875 47.265625 
Q 14.109375 46.140625 10.015625 43.890625 
L 10.015625 52.203125 
Q 14.9375 54.109375 19.578125 55.046875 
Q 24.21875 56 28.609375 56 
Q 40.484375 56 46.34375 49.84375 
Q 52.203125 43.703125 52.203125 31.203125 
z
" id="DejaVuSans-97"/>
      <path d="M 18.3125 70.21875 
L 18.3125 54.6875 
L 36.8125 54.6875 
L 36.8125 47.703125 
L 18.3125 47.703125 
L 18.3125 18.015625 
Q 18.3125 11.328125 20.140625 9.421875 
Q 21.96875 7.515625 27.59375 7.515625 
L 36.8125 7.515625 
L 36.8125 0 
L 27.59375 0 
Q 17.1875 0 13.234375 3.875 
Q 9.28125 7.765625 9.28125 18.015625 
L 9.28125 47.703125 
L 2.6875 47.703125 
L 2.6875 54.6875 
L 9.28125 54.6875 
L 9.28125 70.21875 
z
" id="DejaVuSans-116"/>
      <path d="M 9.421875 54.6875 
L 18.40625 54.6875 
L 18.40625 0 
L 9.421875 0 
z
M 9.421875 75.984375 
L 18.40625 75.984375 
L 18.40625 64.59375 
L 9.421875 64.59375 
z
" id="DejaVuSans-105"/>
      <path d="M 30.609375 48.390625 
Q 23.390625 48.390625 19.1875 42.75 
Q 14.984375 37.109375 14.984375 27.296875 
Q 14.984375 17.484375 19.15625 11.84375 
Q 23.34375 6.203125 30.609375 6.203125 
Q 37.796875 6.203125 41.984375 11.859375 
Q 46.1875 17.53125 46.1875 27.296875 
Q 46.1875 37.015625 41.984375 42.703125 
Q 37.796875 48.390625 30.609375 48.390625 
z
M 30.609375 56 
Q 42.328125 56 49.015625 48.375 
Q 55.71875 40.765625 55.71875 27.296875 
Q 55.71875 13.875 49.015625 6.21875 
Q 42.328125 -1.421875 30.609375 -1.421875 
Q 18.84375 -1.421875 12.171875 6.21875 
Q 5.515625 13.875 5.515625 27.296875 
Q 5.515625 40.765625 12.171875 48.375 
Q 18.84375 56 30.609375 56 
z
" id="DejaVuSans-111"/>
      <path d="M 44.28125 53.078125 
L 44.28125 44.578125 
Q 40.484375 46.53125 36.375 47.5 
Q 32.28125 48.484375 27.875 48.484375 
Q 21.1875 48.484375 17.84375 46.4375 
Q 14.5 44.390625 14.5 40.28125 
Q 14.5 37.15625 16.890625 35.375 
Q 19.28125 33.59375 26.515625 31.984375 
L 29.59375 31.296875 
Q 39.15625 29.25 43.1875 25.515625 
Q 47.21875 21.78125 47.21875 15.09375 
Q 47.21875 7.46875 41.1875 3.015625 
Q 35.15625 -1.421875 24.609375 -1.421875 
Q 20.21875 -1.421875 15.453125 -0.5625 
Q 10.6875 0.296875 5.421875 2 
L 5.421875 11.28125 
Q 10.40625 8.6875 15.234375 7.390625 
Q 20.0625 6.109375 24.8125 6.109375 
Q 31.15625 6.109375 34.5625 8.28125 
Q 37.984375 10.453125 37.984375 14.40625 
Q 37.984375 18.0625 35.515625 20.015625 
Q 33.0625 21.96875 24.703125 23.78125 
L 21.578125 24.515625 
Q 13.234375 26.265625 9.515625 29.90625 
Q 5.8125 33.546875 5.8125 39.890625 
Q 5.8125 47.609375 11.28125 51.796875 
Q 16.75 56 26.8125 56 
Q 31.78125 56 36.171875 55.265625 
Q 40.578125 54.546875 44.28125 53.078125 
z
" id="DejaVuSans-115"/>
     </defs>
     <g transform="translate(205.662344 335.860562)scale(0.1 -0.1)">
      <use xlink:href="#DejaVuSans-71"/>
      <use x="77.490234" xlink:href="#DejaVuSans-101"/>
      <use x="139.013672" xlink:href="#DejaVuSans-110"/>
      <use x="202.392578" xlink:href="#DejaVuSans-101"/>
      <use x="263.916016" xlink:href="#DejaVuSans-114"/>
      <use x="305.029297" xlink:href="#DejaVuSans-97"/>
      <use x="366.308594" xlink:href="#DejaVuSans-116"/>
      <use x="405.517578" xlink:href="#DejaVuSans-105"/>
      <use x="433.300781" xlink:href="#DejaVuSans-111"/>
      <use x="494.482422" xlink:href="#DejaVuSans-110"/>
      <use x="557.861328" xlink:href="#DejaVuSans-115"/>
     </g>
    </g>
   </g>
   <g id="matplotlib.axis_2">
    <g id="ytick_1">
     <g id="line2d_6">
      <defs>
       <path d="M 0 0 
L -3.5 0 
" id="m8f5c5c1c29" style="stroke:#000000;stroke-width:0.8;"/>
      </defs>
      <g>
       <use style="stroke:#000000;stroke-width:0.8;" x="57.6" xlink:href="#m8f5c5c1c29" y="307.584"/>
      </g>
     </g>
     <g id="text_7">
      <!-- 0 -->
      <g transform="translate(44.2375 311.383219)scale(0.1 -0.1)">
       <use xlink:href="#DejaVuSans-48"/>
      </g>
     </g>
    </g>
    <g id="ytick_2">
     <g id="line2d_7">
      <g>
       <use style="stroke:#000000;stroke-width:0.8;" x="57.6" xlink:href="#m8f5c5c1c29" y="257.497043"/>
      </g>
     </g>
     <g id="text_8">
      <!-- 50 -->
      <defs>
       <path d="M 10.796875 72.90625 
L 49.515625 72.90625 
L 49.515625 64.59375 
L 19.828125 64.59375 
L 19.828125 46.734375 
Q 21.96875 47.46875 24.109375 47.828125 
Q 26.265625 48.1875 28.421875 48.1875 
Q 40.625 48.1875 47.75 41.5 
Q 54.890625 34.8125 54.890625 23.390625 
Q 54.890625 11.625 47.5625 5.09375 
Q 40.234375 -1.421875 26.90625 -1.421875 
Q 22.3125 -1.421875 17.546875 -0.640625 
Q 12.796875 0.140625 7.71875 1.703125 
L 7.71875 11.625 
Q 12.109375 9.234375 16.796875 8.0625 
Q 21.484375 6.890625 26.703125 6.890625 
Q 35.15625 6.890625 40.078125 11.328125 
Q 45.015625 15.765625 45.015625 23.390625 
Q 45.015625 31 40.078125 35.4375 
Q 35.15625 39.890625 26.703125 39.890625 
Q 22.75 39.890625 18.8125 39.015625 
Q 14.890625 38.140625 10.796875 36.28125 
z
" id="DejaVuSans-53"/>
      </defs>
      <g transform="translate(37.875 261.296262)scale(0.1 -0.1)">
       <use xlink:href="#DejaVuSans-53"/>
       <use x="63.623047" xlink:href="#DejaVuSans-48"/>
      </g>
     </g>
    </g>
    <g id="ytick_3">
     <g id="line2d_8">
      <g>
       <use style="stroke:#000000;stroke-width:0.8;" x="57.6" xlink:href="#m8f5c5c1c29" y="207.410087"/>
      </g>
     </g>
     <g id="text_9">
      <!-- 100 -->
      <g transform="translate(31.5125 211.209306)scale(0.1 -0.1)">
       <use xlink:href="#DejaVuSans-49"/>
       <use x="63.623047" xlink:href="#DejaVuSans-48"/>
       <use x="127.246094" xlink:href="#DejaVuSans-48"/>
      </g>
     </g>
    </g>
    <g id="ytick_4">
     <g id="line2d_9">
      <g>
       <use style="stroke:#000000;stroke-width:0.8;" x="57.6" xlink:href="#m8f5c5c1c29" y="157.32313"/>
      </g>
     </g>
     <g id="text_10">
      <!-- 150 -->
      <g transform="translate(31.5125 161.122349)scale(0.1 -0.1)">
       <use xlink:href="#DejaVuSans-49"/>
       <use x="63.623047" xlink:href="#DejaVuSans-53"/>
       <use x="127.246094" xlink:href="#DejaVuSans-48"/>
      </g>
     </g>
    </g>
    <g id="ytick_5">
     <g id="line2d_10">
      <g>
       <use style="stroke:#000000;stroke-width:0.8;" x="57.6" xlink:href="#m8f5c5c1c29" y="107.236174"/>
      </g>
     </g>
     <g id="text_11">
      <!-- 200 -->
      <g transform="translate(31.5125 111.035393)scale(0.1 -0.1)">
       <use xlink:href="#DejaVuSans-50"/>
       <use x="63.623047" xlink:href="#DejaVuSans-48"/>
       <use x="127.246094" xlink:href="#DejaVuSans-48"/>
      </g>
     </g>
    </g>
    <g id="ytick_6">
     <g id="line2d_11">
      <g>
       <use style="stroke:#000000;stroke-width:0.8;" x="57.6" xlink:href="#m8f5c5c1c29" y="57.149217"/>
      </g>
     </g>
     <g id="text_12">
      <!-- 250 -->
      <g transform="translate(31.5125 60.948436)scale(0.1 -0.1)">
       <use xlink:href="#DejaVuSans-50"/>
       <use x="63.623047" xlink:href="#DejaVuSans-53"/>
       <use x="127.246094" xlink:href="#DejaVuSans-48"/>
      </g>
     </g>
    </g>
    <g id="text_13">
     <!-- Size per Species -->
     <defs>
      <path d="M 53.515625 70.515625 
L 53.515625 60.890625 
Q 47.90625 63.578125 42.921875 64.890625 
Q 37.9375 66.21875 33.296875 66.21875 
Q 25.25 66.21875 20.875 63.09375 
Q 16.5 59.96875 16.5 54.203125 
Q 16.5 49.359375 19.40625 46.890625 
Q 22.3125 44.4375 30.421875 42.921875 
L 36.375 41.703125 
Q 47.40625 39.59375 52.65625 34.296875 
Q 57.90625 29 57.90625 20.125 
Q 57.90625 9.515625 50.796875 4.046875 
Q 43.703125 -1.421875 29.984375 -1.421875 
Q 24.8125 -1.421875 18.96875 -0.25 
Q 13.140625 0.921875 6.890625 3.21875 
L 6.890625 13.375 
Q 12.890625 10.015625 18.65625 8.296875 
Q 24.421875 6.59375 29.984375 6.59375 
Q 38.421875 6.59375 43.015625 9.90625 
Q 47.609375 13.234375 47.609375 19.390625 
Q 47.609375 24.75 44.3125 27.78125 
Q 41.015625 30.8125 33.5 32.328125 
L 27.484375 33.5 
Q 16.453125 35.6875 11.515625 40.375 
Q 6.59375 45.0625 6.59375 53.421875 
Q 6.59375 63.09375 13.40625 68.65625 
Q 20.21875 74.21875 32.171875 74.21875 
Q 37.3125 74.21875 42.625 73.28125 
Q 47.953125 72.359375 53.515625 70.515625 
z
" id="DejaVuSans-83"/>
      <path d="M 5.515625 54.6875 
L 48.1875 54.6875 
L 48.1875 46.484375 
L 14.40625 7.171875 
L 48.1875 7.171875 
L 48.1875 0 
L 4.296875 0 
L 4.296875 8.203125 
L 38.09375 47.515625 
L 5.515625 47.515625 
z
" id="DejaVuSans-122"/>
      <path id="DejaVuSans-32"/>
      <path d="M 18.109375 8.203125 
L 18.109375 -20.796875 
L 9.078125 -20.796875 
L 9.078125 54.6875 
L 18.109375 54.6875 
L 18.109375 46.390625 
Q 20.953125 51.265625 25.265625 53.625 
Q 29.59375 56 35.59375 56 
Q 45.5625 56 51.78125 48.09375 
Q 58.015625 40.1875 58.015625 27.296875 
Q 58.015625 14.40625 51.78125 6.484375 
Q 45.5625 -1.421875 35.59375 -1.421875 
Q 29.59375 -1.421875 25.265625 0.953125 
Q 20.953125 3.328125 18.109375 8.203125 
z
M 48.6875 27.296875 
Q 48.6875 37.203125 44.609375 42.84375 
Q 40.53125 48.484375 33.40625 48.484375 
Q 26.265625 48.484375 22.1875 42.84375 
Q 18.109375 37.203125 18.109375 27.296875 
Q 18.109375 17.390625 22.1875 11.75 
Q 26.265625 6.109375 33.40625 6.109375 
Q 40.53125 6.109375 44.609375 11.75 
Q 48.6875 17.390625 48.6875 27.296875 
z
" id="DejaVuSans-112"/>
      <path d="M 48.78125 52.59375 
L 48.78125 44.1875 
Q 44.96875 46.296875 41.140625 47.34375 
Q 37.3125 48.390625 33.40625 48.390625 
Q 24.65625 48.390625 19.8125 42.84375 
Q 14.984375 37.3125 14.984375 27.296875 
Q 14.984375 17.28125 19.8125 11.734375 
Q 24.65625 6.203125 33.40625 6.203125 
Q 37.3125 6.203125 41.140625 7.25 
Q 44.96875 8.296875 48.78125 10.40625 
L 48.78125 2.09375 
Q 45.015625 0.34375 40.984375 -0.53125 
Q 36.96875 -1.421875 32.421875 -1.421875 
Q 20.0625 -1.421875 12.78125 6.34375 
Q 5.515625 14.109375 5.515625 27.296875 
Q 5.515625 40.671875 12.859375 48.328125 
Q 20.21875 56 33.015625 56 
Q 37.15625 56 41.109375 55.140625 
Q 45.0625 54.296875 48.78125 52.59375 
z
" id="DejaVuSans-99"/>
     </defs>
     <g transform="translate(25.432812 215.520969)rotate(-90)scale(0.1 -0.1)">
      <use xlink:href="#DejaVuSans-83"/>
      <use x="63.476562" xlink:href="#DejaVuSans-105"/>
      <use x="91.259766" xlink:href="#DejaVuSans-122"/>
      <use x="143.75" xlink:href="#DejaVuSans-101"/>
      <use x="205.273438" xlink:href="#DejaVuSans-32"/>
      <use x="237.060547" xlink:href="#DejaVuSans-112"/>
      <use x="300.537109" xlink:href="#DejaVuSans-101"/>
      <use x="362.060547" xlink:href="#DejaVuSans-114"/>
      <use x="403.173828" xlink:href="#DejaVuSans-32"/>
      <use x="434.960938" xlink:href="#DejaVuSans-83"/>
      <use x="498.4375" xlink:href="#DejaVuSans-112"/>
      <use x="561.914062" xlink:href="#DejaVuSans-101"/>
      <use x="623.4375" xlink:href="#DejaVuSans-99"/>
      <use x="678.417969" xlink:href="#DejaVuSans-105"/>
      <use x="706.201172" xlink:href="#DejaVuSans-101"/>
      <use x="767.724609" xlink:href="#DejaVuSans-115"/>
     </g>
    </g>
   </g>
   <g id="patch_3">
    <path d="M 57.6 307.584 
L 57.6 41.472 
" style="fill:none;stroke:#000000;stroke-linecap:square;stroke-linejoin:miter;stroke-width:0.8;"/>
   </g>
   <g id="patch_4">
    <path d="M 414.72 307.584 
L 414.72 41.472 
" style="fill:none;stroke:#000000;stroke-linecap:square;stroke-linejoin:miter;stroke-width:0.8;"/>
   </g>
   <g id="patch_5">
    <path d="M 57.6 307.584 
L 414.72 307.584 
" style="fill:none;stroke:#000000;stroke-linecap:square;stroke-linejoin:miter;stroke-width:0.8;"/>
   </g>
   <g id="patch_6">
    <path d="M 57.6 41.472 
L 414.72 41.472 
" style="fill:none;stroke:#000000;stroke-linecap:square;stroke-linejoin:miter;stroke-width:0.8;"/>
   </g>
   <g id="text_14">
    <!-- Speciation -->
    <g transform="translate(204.714375 35.472)scale(0.12 -0.12)">
     <use xlink:href="#DejaVuSans-83"/>
     <use x="63.476562" xlink:href="#DejaVuSans-112"/>
     <use x="126.953125" xlink:href="#DejaVuSans-101"/>
     <use x="188.476562" xlink:href="#DejaVuSans-99"/>
     <use x="243.457031" xlink:href="#DejaVuSans-105"/>
     <use x="271.240234" xlink:href="#DejaVuSans-97"/>
     <use x="332.519531" xlink:href="#DejaVuSans-116"/>
     <use x="371.728516" xlink:href="#DejaVuSans-105"/>
     <use x="399.511719" xlink:href="#DejaVuSans-111"/>
     <use x="460.693359" xlink:href="#DejaVuSans-110"/>
    </g>
   </g>
  </g>
 </g>
 <defs>
  <clipPath id="p9c5187eb16">
   <rect height="266.112" width="357.12" x="57.6" y="41.472"/>
  </clipPath>
 </defs>
</svg>
