<?xml version="1.0" encoding="UTF-8" standalone="no"?>
<!DOCTYPE svg PUBLIC "-//W3C//DTD SVG 1.1//EN"
 "http://www.w3.org/Graphics/SVG/1.1/DTD/svg11.dtd">
<!-- Generated by graphviz version 2.38.0 (20140413.2041)
 -->
<!-- Title: %3 Pages: 1 -->
<svg width="242pt" height="224pt"
 viewBox="0.00 0.00 242.21 224.25" xmlns="http://www.w3.org/2000/svg" xmlns:xlink="http://www.w3.org/1999/xlink">
<g id="graph0" class="graph" transform="scale(1 1) rotate(0) translate(4 220.25)">
<title>%3</title>
<polygon fill="white" stroke="none" points="-4,4 -4,-220.25 238.213,-220.25 238.213,4 -4,4"/>
<!-- x -->
<g id="node1" class="node"><title>x</title>
<polygon fill="lightgray" stroke="black" points="20,-204.037 0,-204.037 0,-186.037 20,-186.037 20,-204.037"/>
<text text-anchor="middle" x="10" y="-192.837" font-family="Times New Roman,serif" font-size="9.00">x</text>
</g>
<!-- control -->
<g id="node5" class="node"><title>control</title>
<ellipse fill="lightblue" stroke="black" cx="75" cy="-108.125" rx="29.8983" ry="29.8983"/>
<text text-anchor="middle" x="75" y="-105.925" font-family="Times New Roman,serif" font-size="9.00">control</text>
</g>
<!-- x&#45;&gt;control -->
<g id="edge1" class="edge"><title>x&#45;&gt;control</title>
<path fill="none" stroke="green" stroke-width="0.238891" d="M16.2325,-185.895C24.1877,-175.503 38.4146,-156.918 50.8775,-140.637"/>
<polygon fill="green" stroke="green" stroke-width="0.238891" points="53.8921,-142.457 57.1915,-132.389 48.3337,-138.202 53.8921,-142.457"/>
</g>
<!-- dx -->
<g id="node2" class="node"><title>dx</title>
<polygon fill="lightgray" stroke="black" points="63.5,-204.037 38.5,-204.037 38.5,-186.037 63.5,-186.037 63.5,-204.037"/>
<text text-anchor="middle" x="51" y="-192.837" font-family="Times New Roman,serif" font-size="9.00">dx</text>
</g>
<!-- dx&#45;&gt;control -->
<g id="edge5" class="edge"><title>dx&#45;&gt;control</title>
<path fill="none" stroke="green" stroke-width="0.162728" d="M53.3012,-185.895C55.875,-176.789 60.2268,-161.392 64.3604,-146.768"/>
<polygon fill="green" stroke="green" stroke-width="0.162728" points="67.8109,-147.428 67.1628,-136.853 61.0748,-145.524 67.8109,-147.428"/>
</g>
<!-- theta -->
<g id="node3" class="node"><title>theta</title>
<polygon fill="lightgray" stroke="black" points="116.5,-204.037 81.5,-204.037 81.5,-186.037 116.5,-186.037 116.5,-204.037"/>
<text text-anchor="middle" x="99" y="-192.837" font-family="Times New Roman,serif" font-size="9.00">theta</text>
</g>
<!-- theta&#45;&gt;control -->
<g id="edge3" class="edge"><title>theta&#45;&gt;control</title>
<path fill="none" stroke="green" stroke-width="0.356831" d="M96.6988,-185.895C94.125,-176.789 89.7732,-161.392 85.6396,-146.768"/>
<polygon fill="green" stroke="green" stroke-width="0.356831" points="88.9252,-145.524 82.8372,-136.853 82.1891,-147.428 88.9252,-145.524"/>
</g>
<!-- dtheta -->
<g id="node4" class="node"><title>dtheta</title>
<polygon fill="lightgray" stroke="black" points="173.5,-204.037 134.5,-204.037 134.5,-186.037 173.5,-186.037 173.5,-204.037"/>
<text text-anchor="middle" x="154" y="-192.837" font-family="Times New Roman,serif" font-size="9.00">dtheta</text>
</g>
<!-- dtheta&#45;&gt;control -->
<g id="edge2" class="edge"><title>dtheta&#45;&gt;control</title>
<path fill="none" stroke="green" stroke-width="0.215842" d="M146.425,-185.895C136.244,-174.952 117.612,-154.925 101.93,-138.07"/>
<polygon fill="green" stroke="green" stroke-width="0.215842" points="104.347,-135.53 94.9733,-130.593 99.2225,-140.298 104.347,-135.53"/>
</g>
<!-- 374 -->
<g id="node7" class="node"><title>374</title>
<ellipse fill="white" stroke="black" cx="75" cy="-21.2132" rx="21.4286" ry="21.4286"/>
<text text-anchor="middle" x="75" y="-19.0132" font-family="Times New Roman,serif" font-size="9.00">374</text>
</g>
<!-- control&#45;&gt;374 -->
<g id="edge4" class="edge"><title>control&#45;&gt;374</title>
<path fill="none" stroke="red" stroke-width="0.189167" d="M75,-78.3777C75,-70.1234 75,-61.0947 75,-52.7373"/>
<polygon fill="red" stroke="red" stroke-width="0.189167" points="78.5001,-52.6191 75,-42.6192 71.5001,-52.6192 78.5001,-52.6191"/>
</g>
<!-- 701 -->
<g id="node6" class="node"><title>701</title>
<ellipse fill="white" stroke="black" cx="213" cy="-195.037" rx="21.4286" ry="21.4286"/>
<text text-anchor="middle" x="213" y="-192.837" font-family="Times New Roman,serif" font-size="9.00">701</text>
</g>
</g>
</svg>
