<?xml version="1.0" encoding="UTF-8" standalone="no"?>
<!DOCTYPE svg PUBLIC "-//W3C//DTD SVG 1.1//EN"
 "http://www.w3.org/Graphics/SVG/1.1/DTD/svg11.dtd">
<!-- Generated by graphviz version 2.38.0 (20140413.2041)
 -->
<!-- Title: %3 Pages: 1 -->
<svg width="83pt" height="203pt"
 viewBox="0.00 0.00 82.95 202.65" xmlns="http://www.w3.org/2000/svg" xmlns:xlink="http://www.w3.org/1999/xlink">
<g id="graph0" class="graph" transform="scale(1 1) rotate(0) translate(4 198.652)">
<title>%3</title>
<polygon fill="white" stroke="none" points="-4,4 -4,-198.652 78.9533,-198.652 78.9533,4 -4,4"/>
<!-- A -->
<g id="node1" class="node"><title>A</title>
<polygon fill="lightgray" stroke="black" points="27.9767,-194.652 4.97666,-194.652 4.97666,-176.652 27.9767,-176.652 27.9767,-194.652"/>
<text text-anchor="middle" x="16.4767" y="-183.452" font-family="Times New Roman,serif" font-size="9.00">A</text>
</g>
<!-- A XOR B -->
<g id="node3" class="node"><title>A XOR B</title>
<ellipse fill="lightblue" stroke="black" cx="37.4767" cy="-37.4767" rx="37.4533" ry="37.4533"/>
<text text-anchor="middle" x="37.4767" y="-35.2767" font-family="Times New Roman,serif" font-size="9.00">A XOR B</text>
</g>
<!-- A&#45;&gt;A XOR B -->
<g id="edge5" class="edge"><title>A&#45;&gt;A XOR B</title>
<path fill="none" stroke="green" stroke-width="0.340657" d="M15.7584,-176.551C15.015,-167.729 13.904,-153.201 13.4767,-140.652 13.0275,-127.46 11.3752,-123.984 13.4767,-110.953 15.0115,-101.436 17.6116,-91.4756 20.5477,-82.093"/>
<polygon fill="green" stroke="green" stroke-width="0.340657" points="23.8811,-83.1603 23.6984,-72.5671 17.2352,-80.9621 23.8811,-83.1603"/>
</g>
<!-- 2 -->
<g id="node4" class="node"><title>2</title>
<ellipse fill="white" stroke="black" cx="37.4767" cy="-125.803" rx="14.7" ry="14.7"/>
<text text-anchor="middle" x="37.4767" y="-123.603" font-family="Times New Roman,serif" font-size="9.00">2</text>
</g>
<!-- A&#45;&gt;2 -->
<g id="edge4" class="edge"><title>A&#45;&gt;2</title>
<path fill="none" stroke="red" stroke-width="0.393086" d="M19.3966,-176.608C21.9394,-169.603 25.7521,-159.1 29.2218,-149.543"/>
<polygon fill="red" stroke="red" stroke-width="0.393086" points="32.5233,-150.705 32.6457,-140.111 25.9434,-148.316 32.5233,-150.705"/>
</g>
<!-- B -->
<g id="node2" class="node"><title>B</title>
<polygon fill="lightgray" stroke="black" points="69.9767,-194.652 46.9767,-194.652 46.9767,-176.652 69.9767,-176.652 69.9767,-194.652"/>
<text text-anchor="middle" x="58.4767" y="-183.452" font-family="Times New Roman,serif" font-size="9.00">B</text>
</g>
<!-- B&#45;&gt;A XOR B -->
<g id="edge3" class="edge"><title>B&#45;&gt;A XOR B</title>
<path fill="none" stroke="red" stroke-width="0.392635" d="M59.195,-176.551C59.9383,-167.729 61.0493,-153.201 61.4767,-140.652 61.9259,-127.46 63.5781,-123.984 61.4767,-110.953 59.9418,-101.436 57.3417,-91.4756 54.4056,-82.093"/>
<polygon fill="red" stroke="red" stroke-width="0.392635" points="57.7182,-80.9621 51.2549,-72.5671 51.0723,-83.1603 57.7182,-80.9621"/>
</g>
<!-- B&#45;&gt;2 -->
<g id="edge1" class="edge"><title>B&#45;&gt;2</title>
<path fill="none" stroke="green" stroke-width="0.674815" d="M55.5567,-176.608C53.0139,-169.603 49.2012,-159.1 45.7316,-149.543"/>
<polygon fill="green" stroke="green" stroke-width="0.674815" points="49.0099,-148.316 42.3077,-140.111 42.43,-150.705 49.0099,-148.316"/>
</g>
<!-- 2&#45;&gt;A XOR B -->
<g id="edge2" class="edge"><title>2&#45;&gt;A XOR B</title>
<path fill="none" stroke="green" stroke-width="0.570367" d="M37.4767,-110.933C37.4767,-103.793 37.4767,-94.6275 37.4767,-85.2337"/>
<polygon fill="green" stroke="green" stroke-width="0.570367" points="40.9768,-85.0357 37.4767,-75.0358 33.9768,-85.0358 40.9768,-85.0357"/>
</g>
</g>
</svg>
