<?xml version="1.0" encoding="utf-8" standalone="no"?>
<!DOCTYPE svg PUBLIC "-//W3C//DTD SVG 1.1//EN"
  "http://www.w3.org/Graphics/SVG/1.1/DTD/svg11.dtd">
<!-- Created with matplotlib (https://matplotlib.org/) -->
<svg height="345.6pt" version="1.1" viewBox="0 0 460.8 345.6" width="460.8pt" xmlns="http://www.w3.org/2000/svg" xmlns:xlink="http://www.w3.org/1999/xlink">
 <defs>
  <style type="text/css">
*{stroke-linecap:butt;stroke-linejoin:round;}
  </style>
 </defs>
 <g id="figure_1">
  <g id="patch_1">
   <path d="M 0 345.6 
L 460.8 345.6 
L 460.8 0 
L 0 0 
z
" style="fill:#ffffff;"/>
  </g>
  <g id="axes_1">
   <g id="patch_2">
    <path d="M 57.6 307.584 
L 414.72 307.584 
L 414.72 41.472 
L 57.6 41.472 
z
" style="fill:#ffffff;"/>
   </g>
   <g id="PolyCollection_1">
    <path clip-path="url(#p20f3445ecc)" d="M 73.832727 306.586205 
L 73.832727 307.584 
L 85.85697 307.584 
L 97.881212 307.584 
L 109.905455 307.584 
L 121.929697 307.584 
L 133.953939 307.584 
L 145.978182 307.584 
L 158.002424 307.584 
L 170.026667 307.584 
L 182.050909 307.584 
L 194.075152 307.584 
L 206.099394 307.584 
L 218.123636 307.584 
L 230.147879 307.584 
L 242.172121 307.584 
L 254.196364 307.584 
L 266.220606 307.584 
L 278.244848 307.584 
L 290.269091 307.584 
L 302.293333 307.584 
L 314.317576 307.584 
L 326.341818 307.584 
L 338.366061 307.584 
L 350.390303 307.584 
L 362.414545 307.584 
L 374.438788 307.584 
L 386.46303 307.584 
L 398.487273 307.584 
L 398.487273 305.588409 
L 398.487273 305.588409 
L 386.46303 304.590614 
L 374.438788 305.588409 
L 362.414545 305.588409 
L 350.390303 305.588409 
L 338.366061 303.592819 
L 326.341818 304.590614 
L 314.317576 305.588409 
L 302.293333 304.590614 
L 290.269091 303.592819 
L 278.244848 304.590614 
L 266.220606 304.590614 
L 254.196364 305.588409 
L 242.172121 303.592819 
L 230.147879 302.595024 
L 218.123636 305.588409 
L 206.099394 305.588409 
L 194.075152 303.592819 
L 182.050909 302.595024 
L 170.026667 303.592819 
L 158.002424 302.595024 
L 145.978182 303.592819 
L 133.953939 302.595024 
L 121.929697 301.597228 
L 109.905455 301.597228 
L 97.881212 303.592819 
L 85.85697 303.592819 
L 73.832727 306.586205 
z
" style="fill:#1f77b4;"/>
   </g>
   <g id="PolyCollection_2">
    <path clip-path="url(#p20f3445ecc)" d="M 73.832727 188.846362 
L 73.832727 306.586205 
L 85.85697 303.592819 
L 97.881212 303.592819 
L 109.905455 301.597228 
L 121.929697 301.597228 
L 133.953939 302.595024 
L 145.978182 303.592819 
L 158.002424 302.595024 
L 170.026667 303.592819 
L 182.050909 302.595024 
L 194.075152 303.592819 
L 206.099394 305.588409 
L 218.123636 305.588409 
L 230.147879 302.595024 
L 242.172121 303.592819 
L 254.196364 305.588409 
L 266.220606 304.590614 
L 278.244848 304.590614 
L 290.269091 303.592819 
L 302.293333 304.590614 
L 314.317576 305.588409 
L 326.341818 304.590614 
L 338.366061 303.592819 
L 350.390303 305.588409 
L 362.414545 305.588409 
L 374.438788 305.588409 
L 386.46303 304.590614 
L 398.487273 305.588409 
L 398.487273 270.665575 
L 398.487273 270.665575 
L 386.46303 280.643528 
L 374.438788 278.647937 
L 362.414545 290.62148 
L 350.390303 291.619276 
L 338.366061 292.617071 
L 326.341818 291.619276 
L 314.317576 300.599433 
L 302.293333 291.619276 
L 290.269091 285.632504 
L 278.244848 292.617071 
L 266.220606 280.643528 
L 254.196364 285.632504 
L 242.172121 272.661165 
L 230.147879 284.634709 
L 218.123636 276.652346 
L 206.099394 282.639118 
L 194.075152 277.650142 
L 182.050909 290.62148 
L 170.026667 288.62589 
L 158.002424 271.66337 
L 145.978182 276.652346 
L 133.953939 284.634709 
L 121.929697 271.66337 
L 109.905455 276.652346 
L 97.881212 271.66337 
L 85.85697 277.650142 
L 73.832727 188.846362 
z
" style="fill:#ff7f0e;"/>
   </g>
   <g id="PolyCollection_3">
    <path clip-path="url(#p20f3445ecc)" d="M 73.832727 182.859591 
L 73.832727 188.846362 
L 85.85697 277.650142 
L 97.881212 271.66337 
L 109.905455 276.652346 
L 121.929697 271.66337 
L 133.953939 284.634709 
L 145.978182 276.652346 
L 158.002424 271.66337 
L 170.026667 288.62589 
L 182.050909 290.62148 
L 194.075152 277.650142 
L 206.099394 282.639118 
L 218.123636 276.652346 
L 230.147879 284.634709 
L 242.172121 272.661165 
L 254.196364 285.632504 
L 266.220606 280.643528 
L 278.244848 292.617071 
L 290.269091 285.632504 
L 302.293333 291.619276 
L 314.317576 300.599433 
L 326.341818 291.619276 
L 338.366061 292.617071 
L 350.390303 291.619276 
L 362.414545 290.62148 
L 374.438788 278.647937 
L 386.46303 280.643528 
L 398.487273 270.665575 
L 398.487273 234.744945 
L 398.487273 234.744945 
L 386.46303 261.685417 
L 374.438788 252.70526 
L 362.414545 266.674394 
L 350.390303 279.645732 
L 338.366061 278.647937 
L 326.341818 272.661165 
L 314.317576 279.645732 
L 302.293333 256.696441 
L 290.269091 267.672189 
L 278.244848 261.685417 
L 266.220606 254.70085 
L 254.196364 256.696441 
L 242.172121 258.692031 
L 230.147879 263.681008 
L 218.123636 258.692031 
L 206.099394 258.692031 
L 194.075152 252.70526 
L 182.050909 289.623685 
L 170.026667 243.725102 
L 158.002424 242.727307 
L 145.978182 258.692031 
L 133.953939 254.70085 
L 121.929697 231.751559 
L 109.905455 259.689827 
L 97.881212 248.714079 
L 85.85697 235.74274 
L 73.832727 182.859591 
z
" style="fill:#2ca02c;"/>
   </g>
   <g id="PolyCollection_4">
    <path clip-path="url(#p20f3445ecc)" d="M 73.832727 154.921323 
L 73.832727 182.859591 
L 85.85697 235.74274 
L 97.881212 248.714079 
L 109.905455 259.689827 
L 121.929697 231.751559 
L 133.953939 254.70085 
L 145.978182 258.692031 
L 158.002424 242.727307 
L 170.026667 243.725102 
L 182.050909 289.623685 
L 194.075152 252.70526 
L 206.099394 258.692031 
L 218.123636 258.692031 
L 230.147879 263.681008 
L 242.172121 258.692031 
L 254.196364 256.696441 
L 266.220606 254.70085 
L 278.244848 261.685417 
L 290.269091 267.672189 
L 302.293333 256.696441 
L 314.317576 279.645732 
L 326.341818 272.661165 
L 338.366061 278.647937 
L 350.390303 279.645732 
L 362.414545 266.674394 
L 374.438788 252.70526 
L 386.46303 261.685417 
L 398.487273 234.744945 
L 398.487273 222.771402 
L 398.487273 222.771402 
L 386.46303 248.714079 
L 374.438788 244.722898 
L 362.414545 257.694236 
L 350.390303 271.66337 
L 338.366061 270.665575 
L 326.341818 264.678803 
L 314.317576 266.674394 
L 302.293333 245.720693 
L 290.269091 254.70085 
L 278.244848 247.716283 
L 266.220606 245.720693 
L 254.196364 243.725102 
L 242.172121 246.718488 
L 230.147879 253.703055 
L 218.123636 253.703055 
L 206.099394 244.722898 
L 194.075152 244.722898 
L 182.050909 277.650142 
L 170.026667 234.744945 
L 158.002424 232.749354 
L 145.978182 249.711874 
L 133.953939 247.716283 
L 121.929697 225.764787 
L 109.905455 251.707465 
L 97.881212 241.729512 
L 85.85697 231.751559 
L 73.832727 154.921323 
z
" style="fill:#d62728;"/>
   </g>
   <g id="PolyCollection_5">
    <path clip-path="url(#p20f3445ecc)" d="M 73.832727 143.945575 
L 73.832727 154.921323 
L 85.85697 231.751559 
L 97.881212 241.729512 
L 109.905455 251.707465 
L 121.929697 225.764787 
L 133.953939 247.716283 
L 145.978182 249.711874 
L 158.002424 232.749354 
L 170.026667 234.744945 
L 182.050909 277.650142 
L 194.075152 244.722898 
L 206.099394 244.722898 
L 218.123636 253.703055 
L 230.147879 253.703055 
L 242.172121 246.718488 
L 254.196364 243.725102 
L 266.220606 245.720693 
L 278.244848 247.716283 
L 290.269091 254.70085 
L 302.293333 245.720693 
L 314.317576 266.674394 
L 326.341818 264.678803 
L 338.366061 270.665575 
L 350.390303 271.66337 
L 362.414545 257.694236 
L 374.438788 244.722898 
L 386.46303 248.714079 
L 398.487273 222.771402 
L 398.487273 207.804472 
L 398.487273 207.804472 
L 386.46303 238.736126 
L 374.438788 230.753764 
L 362.414545 245.720693 
L 350.390303 259.689827 
L 338.366061 253.703055 
L 326.341818 252.70526 
L 314.317576 248.714079 
L 302.293333 230.753764 
L 290.269091 231.751559 
L 278.244848 232.749354 
L 266.220606 238.736126 
L 254.196364 220.775811 
L 242.172121 238.736126 
L 230.147879 247.716283 
L 218.123636 248.714079 
L 206.099394 226.762583 
L 194.075152 217.782425 
L 182.050909 255.698646 
L 170.026667 211.795654 
L 158.002424 222.771402 
L 145.978182 246.718488 
L 133.953939 239.733921 
L 121.929697 215.786835 
L 109.905455 240.731717 
L 97.881212 230.753764 
L 85.85697 205.808882 
L 73.832727 143.945575 
z
" style="fill:#9467bd;"/>
   </g>
   <g id="PolyCollection_6">
    <path clip-path="url(#p20f3445ecc)" d="M 73.832727 118.002898 
L 73.832727 143.945575 
L 85.85697 205.808882 
L 97.881212 230.753764 
L 109.905455 240.731717 
L 121.929697 215.786835 
L 133.953939 239.733921 
L 145.978182 246.718488 
L 158.002424 222.771402 
L 170.026667 211.795654 
L 182.050909 255.698646 
L 194.075152 217.782425 
L 206.099394 226.762583 
L 218.123636 248.714079 
L 230.147879 247.716283 
L 242.172121 238.736126 
L 254.196364 220.775811 
L 266.220606 238.736126 
L 278.244848 232.749354 
L 290.269091 231.751559 
L 302.293333 230.753764 
L 314.317576 248.714079 
L 326.341818 252.70526 
L 338.366061 253.703055 
L 350.390303 259.689827 
L 362.414545 245.720693 
L 374.438788 230.753764 
L 386.46303 238.736126 
L 398.487273 207.804472 
L 398.487273 207.804472 
L 398.487273 207.804472 
L 386.46303 238.736126 
L 374.438788 230.753764 
L 362.414545 233.74715 
L 350.390303 241.729512 
L 338.366061 230.753764 
L 326.341818 228.758173 
L 314.317576 191.839748 
L 302.293333 208.802268 
L 290.269091 199.82211 
L 278.244848 211.795654 
L 266.220606 220.775811 
L 254.196364 200.819906 
L 242.172121 205.808882 
L 230.147879 206.806677 
L 218.123636 197.82652 
L 206.099394 217.782425 
L 194.075152 205.808882 
L 182.050909 239.733921 
L 170.026667 205.808882 
L 158.002424 214.789039 
L 145.978182 238.736126 
L 133.953939 228.758173 
L 121.929697 186.850772 
L 109.905455 232.749354 
L 97.881212 219.778016 
L 85.85697 190.841953 
L 73.832727 118.002898 
z
" style="fill:#8c564b;"/>
   </g>
   <g id="PolyCollection_7">
    <path clip-path="url(#p20f3445ecc)" d="M 73.832727 112.016126 
L 73.832727 118.002898 
L 85.85697 190.841953 
L 97.881212 219.778016 
L 109.905455 232.749354 
L 121.929697 186.850772 
L 133.953939 228.758173 
L 145.978182 238.736126 
L 158.002424 214.789039 
L 170.026667 205.808882 
L 182.050909 239.733921 
L 194.075152 205.808882 
L 206.099394 217.782425 
L 218.123636 197.82652 
L 230.147879 206.806677 
L 242.172121 205.808882 
L 254.196364 200.819906 
L 266.220606 220.775811 
L 278.244848 211.795654 
L 290.269091 199.82211 
L 302.293333 208.802268 
L 314.317576 191.839748 
L 326.341818 228.758173 
L 338.366061 230.753764 
L 350.390303 241.729512 
L 362.414545 233.74715 
L 374.438788 230.753764 
L 386.46303 238.736126 
L 398.487273 207.804472 
L 398.487273 207.804472 
L 398.487273 207.804472 
L 386.46303 238.736126 
L 374.438788 230.753764 
L 362.414545 233.74715 
L 350.390303 241.729512 
L 338.366061 230.753764 
L 326.341818 226.762583 
L 314.317576 188.846362 
L 302.293333 206.806677 
L 290.269091 196.828724 
L 278.244848 209.800063 
L 266.220606 217.782425 
L 254.196364 198.824315 
L 242.172121 202.815496 
L 230.147879 202.815496 
L 218.123636 194.833134 
L 206.099394 213.791244 
L 194.075152 202.815496 
L 182.050909 237.738331 
L 170.026667 202.815496 
L 158.002424 212.793449 
L 145.978182 236.740535 
L 133.953939 225.764787 
L 121.929697 182.859591 
L 109.905455 227.760378 
L 97.881212 215.786835 
L 85.85697 188.846362 
L 73.832727 112.016126 
z
" style="fill:#e377c2;"/>
   </g>
   <g id="PolyCollection_8">
    <path clip-path="url(#p20f3445ecc)" d="M 73.832727 111.018331 
L 73.832727 112.016126 
L 85.85697 188.846362 
L 97.881212 215.786835 
L 109.905455 227.760378 
L 121.929697 182.859591 
L 133.953939 225.764787 
L 145.978182 236.740535 
L 158.002424 212.793449 
L 170.026667 202.815496 
L 182.050909 237.738331 
L 194.075152 202.815496 
L 206.099394 213.791244 
L 218.123636 194.833134 
L 230.147879 202.815496 
L 242.172121 202.815496 
L 254.196364 198.824315 
L 266.220606 217.782425 
L 278.244848 209.800063 
L 290.269091 196.828724 
L 302.293333 206.806677 
L 314.317576 188.846362 
L 326.341818 226.762583 
L 338.366061 230.753764 
L 350.390303 241.729512 
L 362.414545 233.74715 
L 374.438788 230.753764 
L 386.46303 238.736126 
L 398.487273 207.804472 
L 398.487273 205.808882 
L 398.487273 205.808882 
L 386.46303 235.74274 
L 374.438788 228.758173 
L 362.414545 231.751559 
L 350.390303 238.736126 
L 338.366061 228.758173 
L 326.341818 223.769197 
L 314.317576 186.850772 
L 302.293333 203.813291 
L 290.269091 194.833134 
L 278.244848 207.804472 
L 266.220606 215.786835 
L 254.196364 195.830929 
L 242.172121 200.819906 
L 230.147879 199.82211 
L 218.123636 190.841953 
L 206.099394 210.797858 
L 194.075152 200.819906 
L 182.050909 235.74274 
L 170.026667 200.819906 
L 158.002424 209.800063 
L 145.978182 234.744945 
L 133.953939 222.771402 
L 121.929697 178.868409 
L 109.905455 222.771402 
L 97.881212 211.795654 
L 85.85697 185.852976 
L 73.832727 111.018331 
z
" style="fill:#7f7f7f;"/>
   </g>
   <g id="PolyCollection_9">
    <path clip-path="url(#p20f3445ecc)" d="M 73.832727 110.020535 
L 73.832727 111.018331 
L 85.85697 185.852976 
L 97.881212 211.795654 
L 109.905455 222.771402 
L 121.929697 178.868409 
L 133.953939 222.771402 
L 145.978182 234.744945 
L 158.002424 209.800063 
L 170.026667 200.819906 
L 182.050909 235.74274 
L 194.075152 200.819906 
L 206.099394 210.797858 
L 218.123636 190.841953 
L 230.147879 199.82211 
L 242.172121 200.819906 
L 254.196364 195.830929 
L 266.220606 215.786835 
L 278.244848 207.804472 
L 290.269091 194.833134 
L 302.293333 203.813291 
L 314.317576 186.850772 
L 326.341818 223.769197 
L 338.366061 228.758173 
L 350.390303 238.736126 
L 362.414545 231.751559 
L 374.438788 228.758173 
L 386.46303 235.74274 
L 398.487273 205.808882 
L 398.487273 202.815496 
L 398.487273 202.815496 
L 386.46303 233.74715 
L 374.438788 225.764787 
L 362.414545 229.755969 
L 350.390303 236.740535 
L 338.366061 225.764787 
L 326.341818 221.773606 
L 314.317576 183.857386 
L 302.293333 201.817701 
L 290.269091 192.837543 
L 278.244848 204.811087 
L 266.220606 213.791244 
L 254.196364 193.835339 
L 242.172121 197.82652 
L 230.147879 197.82652 
L 218.123636 188.846362 
L 206.099394 208.802268 
L 194.075152 197.82652 
L 182.050909 233.74715 
L 170.026667 198.824315 
L 158.002424 206.806677 
L 145.978182 232.749354 
L 133.953939 218.78022 
L 121.929697 175.875024 
L 109.905455 218.78022 
L 97.881212 208.802268 
L 85.85697 182.859591 
L 73.832727 110.020535 
z
" style="fill:#bcbd22;"/>
   </g>
   <g id="PolyCollection_10">
    <path clip-path="url(#p20f3445ecc)" d="M 73.832727 102.038173 
L 73.832727 110.020535 
L 85.85697 182.859591 
L 97.881212 208.802268 
L 109.905455 218.78022 
L 121.929697 175.875024 
L 133.953939 218.78022 
L 145.978182 232.749354 
L 158.002424 206.806677 
L 170.026667 198.824315 
L 182.050909 233.74715 
L 194.075152 197.82652 
L 206.099394 208.802268 
L 218.123636 188.846362 
L 230.147879 197.82652 
L 242.172121 197.82652 
L 254.196364 193.835339 
L 266.220606 213.791244 
L 278.244848 204.811087 
L 290.269091 192.837543 
L 302.293333 201.817701 
L 314.317576 183.857386 
L 326.341818 221.773606 
L 338.366061 225.764787 
L 350.390303 236.740535 
L 362.414545 229.755969 
L 374.438788 225.764787 
L 386.46303 233.74715 
L 398.487273 202.815496 
L 398.487273 202.815496 
L 398.487273 202.815496 
L 386.46303 233.74715 
L 374.438788 217.782425 
L 362.414545 206.806677 
L 350.390303 220.775811 
L 338.366061 211.795654 
L 326.341818 207.804472 
L 314.317576 164.899276 
L 302.293333 181.861795 
L 290.269091 177.870614 
L 278.244848 191.839748 
L 266.220606 197.82652 
L 254.196364 175.875024 
L 242.172121 180.864 
L 230.147879 180.864 
L 218.123636 180.864 
L 206.099394 187.848567 
L 194.075152 177.870614 
L 182.050909 161.90589 
L 170.026667 152.925732 
L 158.002424 147.936756 
L 145.978182 196.828724 
L 133.953939 161.90589 
L 121.929697 156.916913 
L 109.905455 175.875024 
L 97.881212 176.872819 
L 85.85697 157.914709 
L 73.832727 102.038173 
z
" style="fill:#17becf;"/>
   </g>
   <g id="PolyCollection_11">
    <path clip-path="url(#p20f3445ecc)" d="M 73.832727 96.051402 
L 73.832727 102.038173 
L 85.85697 157.914709 
L 97.881212 176.872819 
L 109.905455 175.875024 
L 121.929697 156.916913 
L 133.953939 161.90589 
L 145.978182 196.828724 
L 158.002424 147.936756 
L 170.026667 152.925732 
L 182.050909 161.90589 
L 194.075152 177.870614 
L 206.099394 187.848567 
L 218.123636 180.864 
L 230.147879 180.864 
L 242.172121 180.864 
L 254.196364 175.875024 
L 266.220606 197.82652 
L 278.244848 191.839748 
L 290.269091 177.870614 
L 302.293333 181.861795 
L 314.317576 164.899276 
L 326.341818 207.804472 
L 338.366061 211.795654 
L 350.390303 220.775811 
L 362.414545 206.806677 
L 374.438788 217.782425 
L 386.46303 233.74715 
L 398.487273 202.815496 
L 398.487273 194.833134 
L 398.487273 194.833134 
L 386.46303 225.764787 
L 374.438788 208.802268 
L 362.414545 199.82211 
L 350.390303 214.789039 
L 338.366061 205.808882 
L 326.341818 198.824315 
L 314.317576 157.914709 
L 302.293333 177.870614 
L 290.269091 173.879433 
L 278.244848 189.844157 
L 266.220606 195.830929 
L 254.196364 172.881638 
L 242.172121 176.872819 
L 230.147879 178.868409 
L 218.123636 177.870614 
L 206.099394 183.857386 
L 194.075152 174.877228 
L 182.050909 159.910299 
L 170.026667 149.932346 
L 158.002424 143.945575 
L 145.978182 193.835339 
L 133.953939 159.910299 
L 121.929697 151.927937 
L 109.905455 171.883843 
L 97.881212 174.877228 
L 85.85697 156.916913 
L 73.832727 96.051402 
z
" style="fill:#1f77b4;"/>
   </g>
   <g id="PolyCollection_12">
    <path clip-path="url(#p20f3445ecc)" d="M 73.832727 93.058016 
L 73.832727 96.051402 
L 85.85697 156.916913 
L 97.881212 174.877228 
L 109.905455 171.883843 
L 121.929697 151.927937 
L 133.953939 159.910299 
L 145.978182 193.835339 
L 158.002424 143.945575 
L 170.026667 149.932346 
L 182.050909 159.910299 
L 194.075152 174.877228 
L 206.099394 183.857386 
L 218.123636 177.870614 
L 230.147879 178.868409 
L 242.172121 176.872819 
L 254.196364 172.881638 
L 266.220606 195.830929 
L 278.244848 189.844157 
L 290.269091 173.879433 
L 302.293333 177.870614 
L 314.317576 157.914709 
L 326.341818 198.824315 
L 338.366061 205.808882 
L 350.390303 214.789039 
L 362.414545 199.82211 
L 374.438788 208.802268 
L 386.46303 225.764787 
L 398.487273 194.833134 
L 398.487273 175.875024 
L 398.487273 175.875024 
L 386.46303 199.82211 
L 374.438788 189.844157 
L 362.414545 179.866205 
L 350.390303 193.835339 
L 338.366061 190.841953 
L 326.341818 192.837543 
L 314.317576 153.923528 
L 302.293333 166.894866 
L 290.269091 159.910299 
L 278.244848 176.872819 
L 266.220606 177.870614 
L 254.196364 158.912504 
L 242.172121 156.916913 
L 230.147879 159.910299 
L 218.123636 157.914709 
L 206.099394 165.897071 
L 194.075152 138.956598 
L 182.050909 143.945575 
L 170.026667 127.98085 
L 158.002424 128.978646 
L 145.978182 175.875024 
L 133.953939 139.954394 
L 121.929697 135.963213 
L 109.905455 150.930142 
L 97.881212 151.927937 
L 85.85697 143.945575 
L 73.832727 93.058016 
z
" style="fill:#ff7f0e;"/>
   </g>
   <g id="PolyCollection_13">
    <path clip-path="url(#p20f3445ecc)" d="M 73.832727 92.06022 
L 73.832727 93.058016 
L 85.85697 143.945575 
L 97.881212 151.927937 
L 109.905455 150.930142 
L 121.929697 135.963213 
L 133.953939 139.954394 
L 145.978182 175.875024 
L 158.002424 128.978646 
L 170.026667 127.98085 
L 182.050909 143.945575 
L 194.075152 138.956598 
L 206.099394 165.897071 
L 218.123636 157.914709 
L 230.147879 159.910299 
L 242.172121 156.916913 
L 254.196364 158.912504 
L 266.220606 177.870614 
L 278.244848 176.872819 
L 290.269091 159.910299 
L 302.293333 166.894866 
L 314.317576 153.923528 
L 326.341818 192.837543 
L 338.366061 190.841953 
L 350.390303 193.835339 
L 362.414545 179.866205 
L 374.438788 189.844157 
L 386.46303 199.82211 
L 398.487273 175.875024 
L 398.487273 175.875024 
L 398.487273 175.875024 
L 386.46303 199.82211 
L 374.438788 189.844157 
L 362.414545 176.872819 
L 350.390303 191.839748 
L 338.366061 188.846362 
L 326.341818 190.841953 
L 314.317576 151.927937 
L 302.293333 163.90148 
L 290.269091 157.914709 
L 278.244848 173.879433 
L 266.220606 175.875024 
L 254.196364 156.916913 
L 242.172121 153.923528 
L 230.147879 157.914709 
L 218.123636 155.919118 
L 206.099394 163.90148 
L 194.075152 136.961008 
L 182.050909 141.949984 
L 170.026667 124.987465 
L 158.002424 124.987465 
L 145.978182 172.881638 
L 133.953939 135.963213 
L 121.929697 131.972031 
L 109.905455 148.934551 
L 97.881212 148.934551 
L 85.85697 141.949984 
L 73.832727 92.06022 
z
" style="fill:#2ca02c;"/>
   </g>
   <g id="PolyCollection_14">
    <path clip-path="url(#p20f3445ecc)" d="M 73.832727 91.062425 
L 73.832727 92.06022 
L 85.85697 141.949984 
L 97.881212 148.934551 
L 109.905455 148.934551 
L 121.929697 131.972031 
L 133.953939 135.963213 
L 145.978182 172.881638 
L 158.002424 124.987465 
L 170.026667 124.987465 
L 182.050909 141.949984 
L 194.075152 136.961008 
L 206.099394 163.90148 
L 218.123636 155.919118 
L 230.147879 157.914709 
L 242.172121 153.923528 
L 254.196364 156.916913 
L 266.220606 175.875024 
L 278.244848 173.879433 
L 290.269091 157.914709 
L 302.293333 163.90148 
L 314.317576 151.927937 
L 326.341818 190.841953 
L 338.366061 188.846362 
L 350.390303 191.839748 
L 362.414545 176.872819 
L 374.438788 189.844157 
L 386.46303 199.82211 
L 398.487273 175.875024 
L 398.487273 175.875024 
L 398.487273 175.875024 
L 386.46303 197.82652 
L 374.438788 187.848567 
L 362.414545 174.877228 
L 350.390303 189.844157 
L 338.366061 187.848567 
L 326.341818 188.846362 
L 314.317576 149.932346 
L 302.293333 161.90589 
L 290.269091 155.919118 
L 278.244848 171.883843 
L 266.220606 173.879433 
L 254.196364 153.923528 
L 242.172121 151.927937 
L 230.147879 153.923528 
L 218.123636 152.925732 
L 206.099394 161.90589 
L 194.075152 133.967622 
L 182.050909 137.958803 
L 170.026667 121.994079 
L 158.002424 120.996283 
L 145.978182 169.888252 
L 133.953939 131.972031 
L 121.929697 128.978646 
L 109.905455 144.94337 
L 97.881212 145.941165 
L 85.85697 135.963213 
L 73.832727 91.062425 
z
" style="fill:#d62728;"/>
   </g>
   <g id="PolyCollection_15">
    <path clip-path="url(#p20f3445ecc)" d="M 73.832727 90.06463 
L 73.832727 91.062425 
L 85.85697 135.963213 
L 97.881212 145.941165 
L 109.905455 144.94337 
L 121.929697 128.978646 
L 133.953939 131.972031 
L 145.978182 169.888252 
L 158.002424 120.996283 
L 170.026667 121.994079 
L 182.050909 137.958803 
L 194.075152 133.967622 
L 206.099394 161.90589 
L 218.123636 152.925732 
L 230.147879 153.923528 
L 242.172121 151.927937 
L 254.196364 153.923528 
L 266.220606 173.879433 
L 278.244848 171.883843 
L 290.269091 155.919118 
L 302.293333 161.90589 
L 314.317576 149.932346 
L 326.341818 188.846362 
L 338.366061 187.848567 
L 350.390303 189.844157 
L 362.414545 174.877228 
L 374.438788 187.848567 
L 386.46303 197.82652 
L 398.487273 175.875024 
L 398.487273 165.897071 
L 398.487273 165.897071 
L 386.46303 188.846362 
L 374.438788 165.897071 
L 362.414545 162.903685 
L 350.390303 173.879433 
L 338.366061 180.864 
L 326.341818 169.888252 
L 314.317576 144.94337 
L 302.293333 152.925732 
L 290.269091 146.938961 
L 278.244848 163.90148 
L 266.220606 166.894866 
L 254.196364 145.941165 
L 242.172121 141.949984 
L 230.147879 129.976441 
L 218.123636 124.987465 
L 206.099394 157.914709 
L 194.075152 130.974236 
L 182.050909 133.967622 
L 170.026667 119.000693 
L 158.002424 119.000693 
L 145.978182 166.894866 
L 133.953939 127.98085 
L 121.929697 125.98526 
L 109.905455 142.94778 
L 97.881212 140.952189 
L 85.85697 129.976441 
L 73.832727 90.06463 
z
" style="fill:#9467bd;"/>
   </g>
   <g id="PolyCollection_16">
    <path clip-path="url(#p20f3445ecc)" d="M 73.832727 76.095496 
L 73.832727 90.06463 
L 85.85697 129.976441 
L 97.881212 140.952189 
L 109.905455 142.94778 
L 121.929697 125.98526 
L 133.953939 127.98085 
L 145.978182 166.894866 
L 158.002424 119.000693 
L 170.026667 119.000693 
L 182.050909 133.967622 
L 194.075152 130.974236 
L 206.099394 157.914709 
L 218.123636 124.987465 
L 230.147879 129.976441 
L 242.172121 141.949984 
L 254.196364 145.941165 
L 266.220606 166.894866 
L 278.244848 163.90148 
L 290.269091 146.938961 
L 302.293333 152.925732 
L 314.317576 144.94337 
L 326.341818 169.888252 
L 338.366061 180.864 
L 350.390303 173.879433 
L 362.414545 162.903685 
L 374.438788 165.897071 
L 386.46303 188.846362 
L 398.487273 165.897071 
L 398.487273 165.897071 
L 398.487273 165.897071 
L 386.46303 188.846362 
L 374.438788 165.897071 
L 362.414545 162.903685 
L 350.390303 173.879433 
L 338.366061 180.864 
L 326.341818 169.888252 
L 314.317576 141.949984 
L 302.293333 150.930142 
L 290.269091 144.94337 
L 278.244848 161.90589 
L 266.220606 163.90148 
L 254.196364 143.945575 
L 242.172121 138.956598 
L 230.147879 127.98085 
L 218.123636 122.991874 
L 206.099394 155.919118 
L 194.075152 128.978646 
L 182.050909 130.974236 
L 170.026667 117.005102 
L 158.002424 117.005102 
L 145.978182 163.90148 
L 133.953939 123.989669 
L 121.929697 122.991874 
L 109.905455 140.952189 
L 97.881212 138.956598 
L 85.85697 128.978646 
L 73.832727 76.095496 
z
" style="fill:#8c564b;"/>
   </g>
   <g id="PolyCollection_17">
    <path clip-path="url(#p20f3445ecc)" d="M 73.832727 73.10211 
L 73.832727 76.095496 
L 85.85697 128.978646 
L 97.881212 138.956598 
L 109.905455 140.952189 
L 121.929697 122.991874 
L 133.953939 123.989669 
L 145.978182 163.90148 
L 158.002424 117.005102 
L 170.026667 117.005102 
L 182.050909 130.974236 
L 194.075152 128.978646 
L 206.099394 155.919118 
L 218.123636 122.991874 
L 230.147879 127.98085 
L 242.172121 138.956598 
L 254.196364 143.945575 
L 266.220606 163.90148 
L 278.244848 161.90589 
L 290.269091 144.94337 
L 302.293333 150.930142 
L 314.317576 141.949984 
L 326.341818 169.888252 
L 338.366061 180.864 
L 350.390303 173.879433 
L 362.414545 162.903685 
L 374.438788 165.897071 
L 386.46303 188.846362 
L 398.487273 165.897071 
L 398.487273 161.90589 
L 398.487273 161.90589 
L 386.46303 174.877228 
L 374.438788 157.914709 
L 362.414545 151.927937 
L 350.390303 159.910299 
L 338.366061 169.888252 
L 326.341818 146.938961 
L 314.317576 124.987465 
L 302.293333 135.963213 
L 290.269091 131.972031 
L 278.244848 146.938961 
L 266.220606 151.927937 
L 254.196364 133.967622 
L 242.172121 128.978646 
L 230.147879 119.000693 
L 218.123636 114.011717 
L 206.099394 136.961008 
L 194.075152 114.011717 
L 182.050909 119.998488 
L 170.026667 112.016126 
L 158.002424 110.020535 
L 145.978182 141.949984 
L 133.953939 94.055811 
L 121.929697 94.055811 
L 109.905455 96.051402 
L 97.881212 133.967622 
L 85.85697 104.033764 
L 73.832727 73.10211 
z
" style="fill:#e377c2;"/>
   </g>
   <g id="PolyCollection_18">
    <path clip-path="url(#p20f3445ecc)" d="M 73.832727 72.104315 
L 73.832727 73.10211 
L 85.85697 104.033764 
L 97.881212 133.967622 
L 109.905455 96.051402 
L 121.929697 94.055811 
L 133.953939 94.055811 
L 145.978182 141.949984 
L 158.002424 110.020535 
L 170.026667 112.016126 
L 182.050909 119.998488 
L 194.075152 114.011717 
L 206.099394 136.961008 
L 218.123636 114.011717 
L 230.147879 119.000693 
L 242.172121 128.978646 
L 254.196364 133.967622 
L 266.220606 151.927937 
L 278.244848 146.938961 
L 290.269091 131.972031 
L 302.293333 135.963213 
L 314.317576 124.987465 
L 326.341818 146.938961 
L 338.366061 169.888252 
L 350.390303 159.910299 
L 362.414545 151.927937 
L 374.438788 157.914709 
L 386.46303 174.877228 
L 398.487273 161.90589 
L 398.487273 149.932346 
L 398.487273 149.932346 
L 386.46303 158.912504 
L 374.438788 144.94337 
L 362.414545 141.949984 
L 350.390303 151.927937 
L 338.366061 156.916913 
L 326.341818 132.969827 
L 314.317576 112.016126 
L 302.293333 124.987465 
L 290.269091 121.994079 
L 278.244848 133.967622 
L 266.220606 139.954394 
L 254.196364 123.989669 
L 242.172121 118.002898 
L 230.147879 111.018331 
L 218.123636 105.031559 
L 206.099394 128.978646 
L 194.075152 105.031559 
L 182.050909 112.016126 
L 170.026667 103.035969 
L 158.002424 102.038173 
L 145.978182 135.963213 
L 133.953939 90.06463 
L 121.929697 91.062425 
L 109.905455 91.062425 
L 97.881212 129.976441 
L 85.85697 99.044787 
L 73.832727 72.104315 
z
" style="fill:#7f7f7f;"/>
   </g>
   <g id="PolyCollection_19">
    <path clip-path="url(#p20f3445ecc)" d="M 73.832727 71.10652 
L 73.832727 72.104315 
L 85.85697 99.044787 
L 97.881212 129.976441 
L 109.905455 91.062425 
L 121.929697 91.062425 
L 133.953939 90.06463 
L 145.978182 135.963213 
L 158.002424 102.038173 
L 170.026667 103.035969 
L 182.050909 112.016126 
L 194.075152 105.031559 
L 206.099394 128.978646 
L 218.123636 105.031559 
L 230.147879 111.018331 
L 242.172121 118.002898 
L 254.196364 123.989669 
L 266.220606 139.954394 
L 278.244848 133.967622 
L 290.269091 121.994079 
L 302.293333 124.987465 
L 314.317576 112.016126 
L 326.341818 132.969827 
L 338.366061 156.916913 
L 350.390303 151.927937 
L 362.414545 141.949984 
L 374.438788 144.94337 
L 386.46303 158.912504 
L 398.487273 149.932346 
L 398.487273 116.007307 
L 398.487273 116.007307 
L 386.46303 121.994079 
L 374.438788 109.02274 
L 362.414545 108.024945 
L 350.390303 105.031559 
L 338.366061 115.009512 
L 326.341818 126.983055 
L 314.317576 110.020535 
L 302.293333 120.996283 
L 290.269091 119.998488 
L 278.244848 132.969827 
L 266.220606 137.958803 
L 254.196364 121.994079 
L 242.172121 114.011717 
L 230.147879 109.02274 
L 218.123636 103.035969 
L 206.099394 126.983055 
L 194.075152 103.035969 
L 182.050909 109.02274 
L 170.026667 101.040378 
L 158.002424 99.044787 
L 145.978182 133.967622 
L 133.953939 87.071244 
L 121.929697 89.066835 
L 109.905455 87.071244 
L 97.881212 126.983055 
L 85.85697 96.051402 
L 73.832727 71.10652 
z
" style="fill:#bcbd22;"/>
   </g>
   <g id="PolyCollection_20">
    <path clip-path="url(#p20f3445ecc)" d="M 73.832727 70.108724 
L 73.832727 71.10652 
L 85.85697 96.051402 
L 97.881212 126.983055 
L 109.905455 87.071244 
L 121.929697 89.066835 
L 133.953939 87.071244 
L 145.978182 133.967622 
L 158.002424 99.044787 
L 170.026667 101.040378 
L 182.050909 109.02274 
L 194.075152 103.035969 
L 206.099394 126.983055 
L 218.123636 103.035969 
L 230.147879 109.02274 
L 242.172121 114.011717 
L 254.196364 121.994079 
L 266.220606 137.958803 
L 278.244848 132.969827 
L 290.269091 119.998488 
L 302.293333 120.996283 
L 314.317576 110.020535 
L 326.341818 126.983055 
L 338.366061 115.009512 
L 350.390303 105.031559 
L 362.414545 108.024945 
L 374.438788 109.02274 
L 386.46303 121.994079 
L 398.487273 116.007307 
L 398.487273 97.049197 
L 398.487273 97.049197 
L 386.46303 102.038173 
L 374.438788 92.06022 
L 362.414545 88.069039 
L 350.390303 86.073449 
L 338.366061 92.06022 
L 326.341818 105.031559 
L 314.317576 88.069039 
L 302.293333 101.040378 
L 290.269091 100.042583 
L 278.244848 103.035969 
L 266.220606 104.033764 
L 254.196364 88.069039 
L 242.172121 88.069039 
L 230.147879 82.082268 
L 218.123636 80.086677 
L 206.099394 89.066835 
L 194.075152 88.069039 
L 182.050909 89.066835 
L 170.026667 84.077858 
L 158.002424 95.053606 
L 145.978182 90.06463 
L 133.953939 84.077858 
L 121.929697 85.075654 
L 109.905455 83.080063 
L 97.881212 120.996283 
L 85.85697 90.06463 
L 73.832727 70.108724 
z
" style="fill:#17becf;"/>
   </g>
   <g id="PolyCollection_21">
    <path clip-path="url(#p20f3445ecc)" d="M 73.832727 67.115339 
L 73.832727 70.108724 
L 85.85697 90.06463 
L 97.881212 120.996283 
L 109.905455 83.080063 
L 121.929697 85.075654 
L 133.953939 84.077858 
L 145.978182 90.06463 
L 158.002424 95.053606 
L 170.026667 84.077858 
L 182.050909 89.066835 
L 194.075152 88.069039 
L 206.099394 89.066835 
L 218.123636 80.086677 
L 230.147879 82.082268 
L 242.172121 88.069039 
L 254.196364 88.069039 
L 266.220606 104.033764 
L 278.244848 103.035969 
L 290.269091 100.042583 
L 302.293333 101.040378 
L 314.317576 88.069039 
L 326.341818 105.031559 
L 338.366061 92.06022 
L 350.390303 86.073449 
L 362.414545 88.069039 
L 374.438788 92.06022 
L 386.46303 102.038173 
L 398.487273 97.049197 
L 398.487273 95.053606 
L 398.487273 95.053606 
L 386.46303 100.042583 
L 374.438788 89.066835 
L 362.414545 86.073449 
L 350.390303 83.080063 
L 338.366061 90.06463 
L 326.341818 99.044787 
L 314.317576 84.077858 
L 302.293333 95.053606 
L 290.269091 97.049197 
L 278.244848 101.040378 
L 266.220606 101.040378 
L 254.196364 84.077858 
L 242.172121 85.075654 
L 230.147879 80.086677 
L 218.123636 78.091087 
L 206.099394 85.075654 
L 194.075152 85.075654 
L 182.050909 86.073449 
L 170.026667 80.086677 
L 158.002424 90.06463 
L 145.978182 86.073449 
L 133.953939 79.088882 
L 121.929697 79.088882 
L 109.905455 76.095496 
L 97.881212 112.016126 
L 85.85697 84.077858 
L 73.832727 67.115339 
z
" style="fill:#1f77b4;"/>
   </g>
   <g id="PolyCollection_22">
    <path clip-path="url(#p20f3445ecc)" d="M 73.832727 66.117543 
L 73.832727 67.115339 
L 85.85697 84.077858 
L 97.881212 112.016126 
L 109.905455 76.095496 
L 121.929697 79.088882 
L 133.953939 79.088882 
L 145.978182 86.073449 
L 158.002424 90.06463 
L 170.026667 80.086677 
L 182.050909 86.073449 
L 194.075152 85.075654 
L 206.099394 85.075654 
L 218.123636 78.091087 
L 230.147879 80.086677 
L 242.172121 85.075654 
L 254.196364 84.077858 
L 266.220606 101.040378 
L 278.244848 101.040378 
L 290.269091 97.049197 
L 302.293333 95.053606 
L 314.317576 84.077858 
L 326.341818 99.044787 
L 338.366061 90.06463 
L 350.390303 83.080063 
L 362.414545 86.073449 
L 374.438788 89.066835 
L 386.46303 100.042583 
L 398.487273 95.053606 
L 398.487273 95.053606 
L 398.487273 95.053606 
L 386.46303 100.042583 
L 374.438788 80.086677 
L 362.414545 74.099906 
L 350.390303 72.104315 
L 338.366061 77.093291 
L 326.341818 84.077858 
L 314.317576 70.108724 
L 302.293333 83.080063 
L 290.269091 85.075654 
L 278.244848 88.069039 
L 266.220606 93.058016 
L 254.196364 75.097701 
L 242.172121 76.095496 
L 230.147879 73.10211 
L 218.123636 73.10211 
L 206.099394 70.108724 
L 194.075152 69.110929 
L 182.050909 69.110929 
L 170.026667 67.115339 
L 158.002424 75.097701 
L 145.978182 75.097701 
L 133.953939 72.104315 
L 121.929697 73.10211 
L 109.905455 73.10211 
L 97.881212 109.02274 
L 85.85697 80.086677 
L 73.832727 66.117543 
z
" style="fill:#ff7f0e;"/>
   </g>
   <g id="PolyCollection_23">
    <path clip-path="url(#p20f3445ecc)" d="M 73.832727 64.121953 
L 73.832727 66.117543 
L 85.85697 80.086677 
L 97.881212 109.02274 
L 109.905455 73.10211 
L 121.929697 73.10211 
L 133.953939 72.104315 
L 145.978182 75.097701 
L 158.002424 75.097701 
L 170.026667 67.115339 
L 182.050909 69.110929 
L 194.075152 69.110929 
L 206.099394 70.108724 
L 218.123636 73.10211 
L 230.147879 73.10211 
L 242.172121 76.095496 
L 254.196364 75.097701 
L 266.220606 93.058016 
L 278.244848 88.069039 
L 290.269091 85.075654 
L 302.293333 83.080063 
L 314.317576 70.108724 
L 326.341818 84.077858 
L 338.366061 77.093291 
L 350.390303 72.104315 
L 362.414545 74.099906 
L 374.438788 80.086677 
L 386.46303 100.042583 
L 398.487273 95.053606 
L 398.487273 72.104315 
L 398.487273 72.104315 
L 386.46303 83.080063 
L 374.438788 73.10211 
L 362.414545 68.113134 
L 350.390303 67.115339 
L 338.366061 76.095496 
L 326.341818 77.093291 
L 314.317576 68.113134 
L 302.293333 79.088882 
L 290.269091 81.084472 
L 278.244848 85.075654 
L 266.220606 91.062425 
L 254.196364 71.10652 
L 242.172121 73.10211 
L 230.147879 69.110929 
L 218.123636 70.108724 
L 206.099394 66.117543 
L 194.075152 66.117543 
L 182.050909 65.119748 
L 170.026667 64.121953 
L 158.002424 71.10652 
L 145.978182 72.104315 
L 133.953939 70.108724 
L 121.929697 70.108724 
L 109.905455 69.110929 
L 97.881212 106.029354 
L 85.85697 79.088882 
L 73.832727 64.121953 
z
" style="fill:#2ca02c;"/>
   </g>
   <g id="PolyCollection_24">
    <path clip-path="url(#p20f3445ecc)" d="M 73.832727 60.130772 
L 73.832727 64.121953 
L 85.85697 79.088882 
L 97.881212 106.029354 
L 109.905455 69.110929 
L 121.929697 70.108724 
L 133.953939 70.108724 
L 145.978182 72.104315 
L 158.002424 71.10652 
L 170.026667 64.121953 
L 182.050909 65.119748 
L 194.075152 66.117543 
L 206.099394 66.117543 
L 218.123636 70.108724 
L 230.147879 69.110929 
L 242.172121 73.10211 
L 254.196364 71.10652 
L 266.220606 91.062425 
L 278.244848 85.075654 
L 290.269091 81.084472 
L 302.293333 79.088882 
L 314.317576 68.113134 
L 326.341818 77.093291 
L 338.366061 76.095496 
L 350.390303 67.115339 
L 362.414545 68.113134 
L 374.438788 73.10211 
L 386.46303 83.080063 
L 398.487273 72.104315 
L 398.487273 66.117543 
L 398.487273 66.117543 
L 386.46303 66.117543 
L 374.438788 68.113134 
L 362.414545 61.128567 
L 350.390303 63.124157 
L 338.366061 66.117543 
L 326.341818 66.117543 
L 314.317576 64.121953 
L 302.293333 63.124157 
L 290.269091 62.126362 
L 278.244848 65.119748 
L 266.220606 67.115339 
L 254.196364 65.119748 
L 242.172121 64.121953 
L 230.147879 66.117543 
L 218.123636 67.115339 
L 206.099394 60.130772 
L 194.075152 63.124157 
L 182.050909 62.126362 
L 170.026667 62.126362 
L 158.002424 59.132976 
L 145.978182 65.119748 
L 133.953939 65.119748 
L 121.929697 67.115339 
L 109.905455 64.121953 
L 97.881212 65.119748 
L 85.85697 60.130772 
L 73.832727 60.130772 
z
" style="fill:#d62728;"/>
   </g>
   <g id="PolyCollection_25">
    <path clip-path="url(#p20f3445ecc)" d="M 73.832727 59.132976 
L 73.832727 60.130772 
L 85.85697 60.130772 
L 97.881212 65.119748 
L 109.905455 64.121953 
L 121.929697 67.115339 
L 133.953939 65.119748 
L 145.978182 65.119748 
L 158.002424 59.132976 
L 170.026667 62.126362 
L 182.050909 62.126362 
L 194.075152 63.124157 
L 206.099394 60.130772 
L 218.123636 67.115339 
L 230.147879 66.117543 
L 242.172121 64.121953 
L 254.196364 65.119748 
L 266.220606 67.115339 
L 278.244848 65.119748 
L 290.269091 62.126362 
L 302.293333 63.124157 
L 314.317576 64.121953 
L 326.341818 66.117543 
L 338.366061 66.117543 
L 350.390303 63.124157 
L 362.414545 61.128567 
L 374.438788 68.113134 
L 386.46303 66.117543 
L 398.487273 66.117543 
L 398.487273 60.130772 
L 398.487273 60.130772 
L 386.46303 61.128567 
L 374.438788 64.121953 
L 362.414545 58.135181 
L 350.390303 59.132976 
L 338.366061 63.124157 
L 326.341818 62.126362 
L 314.317576 59.132976 
L 302.293333 57.137386 
L 290.269091 57.137386 
L 278.244848 59.132976 
L 266.220606 62.126362 
L 254.196364 59.132976 
L 242.172121 57.137386 
L 230.147879 59.132976 
L 218.123636 62.126362 
L 206.099394 57.137386 
L 194.075152 59.132976 
L 182.050909 59.132976 
L 170.026667 60.130772 
L 158.002424 57.137386 
L 145.978182 63.124157 
L 133.953939 62.126362 
L 121.929697 61.128567 
L 109.905455 59.132976 
L 97.881212 61.128567 
L 85.85697 58.135181 
L 73.832727 59.132976 
z
" style="fill:#9467bd;"/>
   </g>
   <g id="PolyCollection_26">
    <path clip-path="url(#p20f3445ecc)" d="M 73.832727 58.135181 
L 73.832727 59.132976 
L 85.85697 58.135181 
L 97.881212 61.128567 
L 109.905455 59.132976 
L 121.929697 61.128567 
L 133.953939 62.126362 
L 145.978182 63.124157 
L 158.002424 57.137386 
L 170.026667 60.130772 
L 182.050909 59.132976 
L 194.075152 59.132976 
L 206.099394 57.137386 
L 218.123636 62.126362 
L 230.147879 59.132976 
L 242.172121 57.137386 
L 254.196364 59.132976 
L 266.220606 62.126362 
L 278.244848 59.132976 
L 290.269091 57.137386 
L 302.293333 57.137386 
L 314.317576 59.132976 
L 326.341818 62.126362 
L 338.366061 63.124157 
L 350.390303 59.132976 
L 362.414545 58.135181 
L 374.438788 64.121953 
L 386.46303 61.128567 
L 398.487273 60.130772 
L 398.487273 58.135181 
L 398.487273 58.135181 
L 386.46303 58.135181 
L 374.438788 62.126362 
L 362.414545 56.139591 
L 350.390303 57.137386 
L 338.366061 62.126362 
L 326.341818 59.132976 
L 314.317576 56.139591 
L 302.293333 55.141795 
L 290.269091 55.141795 
L 278.244848 57.137386 
L 266.220606 59.132976 
L 254.196364 57.137386 
L 242.172121 54.144 
L 230.147879 55.141795 
L 218.123636 59.132976 
L 206.099394 55.141795 
L 194.075152 57.137386 
L 182.050909 56.139591 
L 170.026667 58.135181 
L 158.002424 54.144 
L 145.978182 59.132976 
L 133.953939 59.132976 
L 121.929697 57.137386 
L 109.905455 56.139591 
L 97.881212 59.132976 
L 85.85697 56.139591 
L 73.832727 58.135181 
z
" style="fill:#8c564b;"/>
   </g>
   <g id="matplotlib.axis_1">
    <g id="xtick_1">
     <g id="line2d_1">
      <defs>
       <path d="M 0 0 
L 0 3.5 
" id="m5705327e9c" style="stroke:#000000;stroke-width:0.8;"/>
      </defs>
      <g>
       <use style="stroke:#000000;stroke-width:0.8;" x="73.832727" xlink:href="#m5705327e9c" y="307.584"/>
      </g>
     </g>
     <g id="text_1">
      <!-- 0 -->
      <defs>
       <path d="M 31.78125 66.40625 
Q 24.171875 66.40625 20.328125 58.90625 
Q 16.5 51.421875 16.5 36.375 
Q 16.5 21.390625 20.328125 13.890625 
Q 24.171875 6.390625 31.78125 6.390625 
Q 39.453125 6.390625 43.28125 13.890625 
Q 47.125 21.390625 47.125 36.375 
Q 47.125 51.421875 43.28125 58.90625 
Q 39.453125 66.40625 31.78125 66.40625 
z
M 31.78125 74.21875 
Q 44.046875 74.21875 50.515625 64.515625 
Q 56.984375 54.828125 56.984375 36.375 
Q 56.984375 17.96875 50.515625 8.265625 
Q 44.046875 -1.421875 31.78125 -1.421875 
Q 19.53125 -1.421875 13.0625 8.265625 
Q 6.59375 17.96875 6.59375 36.375 
Q 6.59375 54.828125 13.0625 64.515625 
Q 19.53125 74.21875 31.78125 74.21875 
z
" id="DejaVuSans-48"/>
      </defs>
      <g transform="translate(70.651477 322.182437)scale(0.1 -0.1)">
       <use xlink:href="#DejaVuSans-48"/>
      </g>
     </g>
    </g>
    <g id="xtick_2">
     <g id="line2d_2">
      <g>
       <use style="stroke:#000000;stroke-width:0.8;" x="133.953939" xlink:href="#m5705327e9c" y="307.584"/>
      </g>
     </g>
     <g id="text_2">
      <!-- 5 -->
      <defs>
       <path d="M 10.796875 72.90625 
L 49.515625 72.90625 
L 49.515625 64.59375 
L 19.828125 64.59375 
L 19.828125 46.734375 
Q 21.96875 47.46875 24.109375 47.828125 
Q 26.265625 48.1875 28.421875 48.1875 
Q 40.625 48.1875 47.75 41.5 
Q 54.890625 34.8125 54.890625 23.390625 
Q 54.890625 11.625 47.5625 5.09375 
Q 40.234375 -1.421875 26.90625 -1.421875 
Q 22.3125 -1.421875 17.546875 -0.640625 
Q 12.796875 0.140625 7.71875 1.703125 
L 7.71875 11.625 
Q 12.109375 9.234375 16.796875 8.0625 
Q 21.484375 6.890625 26.703125 6.890625 
Q 35.15625 6.890625 40.078125 11.328125 
Q 45.015625 15.765625 45.015625 23.390625 
Q 45.015625 31 40.078125 35.4375 
Q 35.15625 39.890625 26.703125 39.890625 
Q 22.75 39.890625 18.8125 39.015625 
Q 14.890625 38.140625 10.796875 36.28125 
z
" id="DejaVuSans-53"/>
      </defs>
      <g transform="translate(130.772689 322.182437)scale(0.1 -0.1)">
       <use xlink:href="#DejaVuSans-53"/>
      </g>
     </g>
    </g>
    <g id="xtick_3">
     <g id="line2d_3">
      <g>
       <use style="stroke:#000000;stroke-width:0.8;" x="194.075152" xlink:href="#m5705327e9c" y="307.584"/>
      </g>
     </g>
     <g id="text_3">
      <!-- 10 -->
      <defs>
       <path d="M 12.40625 8.296875 
L 28.515625 8.296875 
L 28.515625 63.921875 
L 10.984375 60.40625 
L 10.984375 69.390625 
L 28.421875 72.90625 
L 38.28125 72.90625 
L 38.28125 8.296875 
L 54.390625 8.296875 
L 54.390625 0 
L 12.40625 0 
z
" id="DejaVuSans-49"/>
      </defs>
      <g transform="translate(187.712652 322.182437)scale(0.1 -0.1)">
       <use xlink:href="#DejaVuSans-49"/>
       <use x="63.623047" xlink:href="#DejaVuSans-48"/>
      </g>
     </g>
    </g>
    <g id="xtick_4">
     <g id="line2d_4">
      <g>
       <use style="stroke:#000000;stroke-width:0.8;" x="254.196364" xlink:href="#m5705327e9c" y="307.584"/>
      </g>
     </g>
     <g id="text_4">
      <!-- 15 -->
      <g transform="translate(247.833864 322.182437)scale(0.1 -0.1)">
       <use xlink:href="#DejaVuSans-49"/>
       <use x="63.623047" xlink:href="#DejaVuSans-53"/>
      </g>
     </g>
    </g>
    <g id="xtick_5">
     <g id="line2d_5">
      <g>
       <use style="stroke:#000000;stroke-width:0.8;" x="314.317576" xlink:href="#m5705327e9c" y="307.584"/>
      </g>
     </g>
     <g id="text_5">
      <!-- 20 -->
      <defs>
       <path d="M 19.1875 8.296875 
L 53.609375 8.296875 
L 53.609375 0 
L 7.328125 0 
L 7.328125 8.296875 
Q 12.9375 14.109375 22.625 23.890625 
Q 32.328125 33.6875 34.8125 36.53125 
Q 39.546875 41.84375 41.421875 45.53125 
Q 43.3125 49.21875 43.3125 52.78125 
Q 43.3125 58.59375 39.234375 62.25 
Q 35.15625 65.921875 28.609375 65.921875 
Q 23.96875 65.921875 18.8125 64.3125 
Q 13.671875 62.703125 7.8125 59.421875 
L 7.8125 69.390625 
Q 13.765625 71.78125 18.9375 73 
Q 24.125 74.21875 28.421875 74.21875 
Q 39.75 74.21875 46.484375 68.546875 
Q 53.21875 62.890625 53.21875 53.421875 
Q 53.21875 48.921875 51.53125 44.890625 
Q 49.859375 40.875 45.40625 35.40625 
Q 44.1875 33.984375 37.640625 27.21875 
Q 31.109375 20.453125 19.1875 8.296875 
z
" id="DejaVuSans-50"/>
      </defs>
      <g transform="translate(307.955076 322.182437)scale(0.1 -0.1)">
       <use xlink:href="#DejaVuSans-50"/>
       <use x="63.623047" xlink:href="#DejaVuSans-48"/>
      </g>
     </g>
    </g>
    <g id="xtick_6">
     <g id="line2d_6">
      <g>
       <use style="stroke:#000000;stroke-width:0.8;" x="374.438788" xlink:href="#m5705327e9c" y="307.584"/>
      </g>
     </g>
     <g id="text_6">
      <!-- 25 -->
      <g transform="translate(368.076288 322.182437)scale(0.1 -0.1)">
       <use xlink:href="#DejaVuSans-50"/>
       <use x="63.623047" xlink:href="#DejaVuSans-53"/>
      </g>
     </g>
    </g>
    <g id="text_7">
     <!-- Generations -->
     <defs>
      <path d="M 59.515625 10.40625 
L 59.515625 29.984375 
L 43.40625 29.984375 
L 43.40625 38.09375 
L 69.28125 38.09375 
L 69.28125 6.78125 
Q 63.578125 2.734375 56.6875 0.65625 
Q 49.8125 -1.421875 42 -1.421875 
Q 24.90625 -1.421875 15.25 8.5625 
Q 5.609375 18.5625 5.609375 36.375 
Q 5.609375 54.25 15.25 64.234375 
Q 24.90625 74.21875 42 74.21875 
Q 49.125 74.21875 55.546875 72.453125 
Q 61.96875 70.703125 67.390625 67.28125 
L 67.390625 56.78125 
Q 61.921875 61.421875 55.765625 63.765625 
Q 49.609375 66.109375 42.828125 66.109375 
Q 29.4375 66.109375 22.71875 58.640625 
Q 16.015625 51.171875 16.015625 36.375 
Q 16.015625 21.625 22.71875 14.15625 
Q 29.4375 6.6875 42.828125 6.6875 
Q 48.046875 6.6875 52.140625 7.59375 
Q 56.25 8.5 59.515625 10.40625 
z
" id="DejaVuSans-71"/>
      <path d="M 56.203125 29.59375 
L 56.203125 25.203125 
L 14.890625 25.203125 
Q 15.484375 15.921875 20.484375 11.0625 
Q 25.484375 6.203125 34.421875 6.203125 
Q 39.59375 6.203125 44.453125 7.46875 
Q 49.3125 8.734375 54.109375 11.28125 
L 54.109375 2.78125 
Q 49.265625 0.734375 44.1875 -0.34375 
Q 39.109375 -1.421875 33.890625 -1.421875 
Q 20.796875 -1.421875 13.15625 6.1875 
Q 5.515625 13.8125 5.515625 26.8125 
Q 5.515625 40.234375 12.765625 48.109375 
Q 20.015625 56 32.328125 56 
Q 43.359375 56 49.78125 48.890625 
Q 56.203125 41.796875 56.203125 29.59375 
z
M 47.21875 32.234375 
Q 47.125 39.59375 43.09375 43.984375 
Q 39.0625 48.390625 32.421875 48.390625 
Q 24.90625 48.390625 20.390625 44.140625 
Q 15.875 39.890625 15.1875 32.171875 
z
" id="DejaVuSans-101"/>
      <path d="M 54.890625 33.015625 
L 54.890625 0 
L 45.90625 0 
L 45.90625 32.71875 
Q 45.90625 40.484375 42.875 44.328125 
Q 39.84375 48.1875 33.796875 48.1875 
Q 26.515625 48.1875 22.3125 43.546875 
Q 18.109375 38.921875 18.109375 30.90625 
L 18.109375 0 
L 9.078125 0 
L 9.078125 54.6875 
L 18.109375 54.6875 
L 18.109375 46.1875 
Q 21.34375 51.125 25.703125 53.5625 
Q 30.078125 56 35.796875 56 
Q 45.21875 56 50.046875 50.171875 
Q 54.890625 44.34375 54.890625 33.015625 
z
" id="DejaVuSans-110"/>
      <path d="M 41.109375 46.296875 
Q 39.59375 47.171875 37.8125 47.578125 
Q 36.03125 48 33.890625 48 
Q 26.265625 48 22.1875 43.046875 
Q 18.109375 38.09375 18.109375 28.8125 
L 18.109375 0 
L 9.078125 0 
L 9.078125 54.6875 
L 18.109375 54.6875 
L 18.109375 46.1875 
Q 20.953125 51.171875 25.484375 53.578125 
Q 30.03125 56 36.53125 56 
Q 37.453125 56 38.578125 55.875 
Q 39.703125 55.765625 41.0625 55.515625 
z
" id="DejaVuSans-114"/>
      <path d="M 34.28125 27.484375 
Q 23.390625 27.484375 19.1875 25 
Q 14.984375 22.515625 14.984375 16.5 
Q 14.984375 11.71875 18.140625 8.90625 
Q 21.296875 6.109375 26.703125 6.109375 
Q 34.1875 6.109375 38.703125 11.40625 
Q 43.21875 16.703125 43.21875 25.484375 
L 43.21875 27.484375 
z
M 52.203125 31.203125 
L 52.203125 0 
L 43.21875 0 
L 43.21875 8.296875 
Q 40.140625 3.328125 35.546875 0.953125 
Q 30.953125 -1.421875 24.3125 -1.421875 
Q 15.921875 -1.421875 10.953125 3.296875 
Q 6 8.015625 6 15.921875 
Q 6 25.140625 12.171875 29.828125 
Q 18.359375 34.515625 30.609375 34.515625 
L 43.21875 34.515625 
L 43.21875 35.40625 
Q 43.21875 41.609375 39.140625 45 
Q 35.0625 48.390625 27.6875 48.390625 
Q 23 48.390625 18.546875 47.265625 
Q 14.109375 46.140625 10.015625 43.890625 
L 10.015625 52.203125 
Q 14.9375 54.109375 19.578125 55.046875 
Q 24.21875 56 28.609375 56 
Q 40.484375 56 46.34375 49.84375 
Q 52.203125 43.703125 52.203125 31.203125 
z
" id="DejaVuSans-97"/>
      <path d="M 18.3125 70.21875 
L 18.3125 54.6875 
L 36.8125 54.6875 
L 36.8125 47.703125 
L 18.3125 47.703125 
L 18.3125 18.015625 
Q 18.3125 11.328125 20.140625 9.421875 
Q 21.96875 7.515625 27.59375 7.515625 
L 36.8125 7.515625 
L 36.8125 0 
L 27.59375 0 
Q 17.1875 0 13.234375 3.875 
Q 9.28125 7.765625 9.28125 18.015625 
L 9.28125 47.703125 
L 2.6875 47.703125 
L 2.6875 54.6875 
L 9.28125 54.6875 
L 9.28125 70.21875 
z
" id="DejaVuSans-116"/>
      <path d="M 9.421875 54.6875 
L 18.40625 54.6875 
L 18.40625 0 
L 9.421875 0 
z
M 9.421875 75.984375 
L 18.40625 75.984375 
L 18.40625 64.59375 
L 9.421875 64.59375 
z
" id="DejaVuSans-105"/>
      <path d="M 30.609375 48.390625 
Q 23.390625 48.390625 19.1875 42.75 
Q 14.984375 37.109375 14.984375 27.296875 
Q 14.984375 17.484375 19.15625 11.84375 
Q 23.34375 6.203125 30.609375 6.203125 
Q 37.796875 6.203125 41.984375 11.859375 
Q 46.1875 17.53125 46.1875 27.296875 
Q 46.1875 37.015625 41.984375 42.703125 
Q 37.796875 48.390625 30.609375 48.390625 
z
M 30.609375 56 
Q 42.328125 56 49.015625 48.375 
Q 55.71875 40.765625 55.71875 27.296875 
Q 55.71875 13.875 49.015625 6.21875 
Q 42.328125 -1.421875 30.609375 -1.421875 
Q 18.84375 -1.421875 12.171875 6.21875 
Q 5.515625 13.875 5.515625 27.296875 
Q 5.515625 40.765625 12.171875 48.375 
Q 18.84375 56 30.609375 56 
z
" id="DejaVuSans-111"/>
      <path d="M 44.28125 53.078125 
L 44.28125 44.578125 
Q 40.484375 46.53125 36.375 47.5 
Q 32.28125 48.484375 27.875 48.484375 
Q 21.1875 48.484375 17.84375 46.4375 
Q 14.5 44.390625 14.5 40.28125 
Q 14.5 37.15625 16.890625 35.375 
Q 19.28125 33.59375 26.515625 31.984375 
L 29.59375 31.296875 
Q 39.15625 29.25 43.1875 25.515625 
Q 47.21875 21.78125 47.21875 15.09375 
Q 47.21875 7.46875 41.1875 3.015625 
Q 35.15625 -1.421875 24.609375 -1.421875 
Q 20.21875 -1.421875 15.453125 -0.5625 
Q 10.6875 0.296875 5.421875 2 
L 5.421875 11.28125 
Q 10.40625 8.6875 15.234375 7.390625 
Q 20.0625 6.109375 24.8125 6.109375 
Q 31.15625 6.109375 34.5625 8.28125 
Q 37.984375 10.453125 37.984375 14.40625 
Q 37.984375 18.0625 35.515625 20.015625 
Q 33.0625 21.96875 24.703125 23.78125 
L 21.578125 24.515625 
Q 13.234375 26.265625 9.515625 29.90625 
Q 5.8125 33.546875 5.8125 39.890625 
Q 5.8125 47.609375 11.28125 51.796875 
Q 16.75 56 26.8125 56 
Q 31.78125 56 36.171875 55.265625 
Q 40.578125 54.546875 44.28125 53.078125 
z
" id="DejaVuSans-115"/>
     </defs>
     <g transform="translate(205.662344 335.860562)scale(0.1 -0.1)">
      <use xlink:href="#DejaVuSans-71"/>
      <use x="77.490234" xlink:href="#DejaVuSans-101"/>
      <use x="139.013672" xlink:href="#DejaVuSans-110"/>
      <use x="202.392578" xlink:href="#DejaVuSans-101"/>
      <use x="263.916016" xlink:href="#DejaVuSans-114"/>
      <use x="305.029297" xlink:href="#DejaVuSans-97"/>
      <use x="366.308594" xlink:href="#DejaVuSans-116"/>
      <use x="405.517578" xlink:href="#DejaVuSans-105"/>
      <use x="433.300781" xlink:href="#DejaVuSans-111"/>
      <use x="494.482422" xlink:href="#DejaVuSans-110"/>
      <use x="557.861328" xlink:href="#DejaVuSans-115"/>
     </g>
    </g>
   </g>
   <g id="matplotlib.axis_2">
    <g id="ytick_1">
     <g id="line2d_7">
      <defs>
       <path d="M 0 0 
L -3.5 0 
" id="md607de71a5" style="stroke:#000000;stroke-width:0.8;"/>
      </defs>
      <g>
       <use style="stroke:#000000;stroke-width:0.8;" x="57.6" xlink:href="#md607de71a5" y="307.584"/>
      </g>
     </g>
     <g id="text_8">
      <!-- 0 -->
      <g transform="translate(44.2375 311.383219)scale(0.1 -0.1)">
       <use xlink:href="#DejaVuSans-48"/>
      </g>
     </g>
    </g>
    <g id="ytick_2">
     <g id="line2d_8">
      <g>
       <use style="stroke:#000000;stroke-width:0.8;" x="57.6" xlink:href="#md607de71a5" y="257.694236"/>
      </g>
     </g>
     <g id="text_9">
      <!-- 50 -->
      <g transform="translate(37.875 261.493455)scale(0.1 -0.1)">
       <use xlink:href="#DejaVuSans-53"/>
       <use x="63.623047" xlink:href="#DejaVuSans-48"/>
      </g>
     </g>
    </g>
    <g id="ytick_3">
     <g id="line2d_9">
      <g>
       <use style="stroke:#000000;stroke-width:0.8;" x="57.6" xlink:href="#md607de71a5" y="207.804472"/>
      </g>
     </g>
     <g id="text_10">
      <!-- 100 -->
      <g transform="translate(31.5125 211.603691)scale(0.1 -0.1)">
       <use xlink:href="#DejaVuSans-49"/>
       <use x="63.623047" xlink:href="#DejaVuSans-48"/>
       <use x="127.246094" xlink:href="#DejaVuSans-48"/>
      </g>
     </g>
    </g>
    <g id="ytick_4">
     <g id="line2d_10">
      <g>
       <use style="stroke:#000000;stroke-width:0.8;" x="57.6" xlink:href="#md607de71a5" y="157.914709"/>
      </g>
     </g>
     <g id="text_11">
      <!-- 150 -->
      <g transform="translate(31.5125 161.713927)scale(0.1 -0.1)">
       <use xlink:href="#DejaVuSans-49"/>
       <use x="63.623047" xlink:href="#DejaVuSans-53"/>
       <use x="127.246094" xlink:href="#DejaVuSans-48"/>
      </g>
     </g>
    </g>
    <g id="ytick_5">
     <g id="line2d_11">
      <g>
       <use style="stroke:#000000;stroke-width:0.8;" x="57.6" xlink:href="#md607de71a5" y="108.024945"/>
      </g>
     </g>
     <g id="text_12">
      <!-- 200 -->
      <g transform="translate(31.5125 111.824164)scale(0.1 -0.1)">
       <use xlink:href="#DejaVuSans-50"/>
       <use x="63.623047" xlink:href="#DejaVuSans-48"/>
       <use x="127.246094" xlink:href="#DejaVuSans-48"/>
      </g>
     </g>
    </g>
    <g id="ytick_6">
     <g id="line2d_12">
      <g>
       <use style="stroke:#000000;stroke-width:0.8;" x="57.6" xlink:href="#md607de71a5" y="58.135181"/>
      </g>
     </g>
     <g id="text_13">
      <!-- 250 -->
      <g transform="translate(31.5125 61.9344)scale(0.1 -0.1)">
       <use xlink:href="#DejaVuSans-50"/>
       <use x="63.623047" xlink:href="#DejaVuSans-53"/>
       <use x="127.246094" xlink:href="#DejaVuSans-48"/>
      </g>
     </g>
    </g>
    <g id="text_14">
     <!-- Size per Species -->
     <defs>
      <path d="M 53.515625 70.515625 
L 53.515625 60.890625 
Q 47.90625 63.578125 42.921875 64.890625 
Q 37.9375 66.21875 33.296875 66.21875 
Q 25.25 66.21875 20.875 63.09375 
Q 16.5 59.96875 16.5 54.203125 
Q 16.5 49.359375 19.40625 46.890625 
Q 22.3125 44.4375 30.421875 42.921875 
L 36.375 41.703125 
Q 47.40625 39.59375 52.65625 34.296875 
Q 57.90625 29 57.90625 20.125 
Q 57.90625 9.515625 50.796875 4.046875 
Q 43.703125 -1.421875 29.984375 -1.421875 
Q 24.8125 -1.421875 18.96875 -0.25 
Q 13.140625 0.921875 6.890625 3.21875 
L 6.890625 13.375 
Q 12.890625 10.015625 18.65625 8.296875 
Q 24.421875 6.59375 29.984375 6.59375 
Q 38.421875 6.59375 43.015625 9.90625 
Q 47.609375 13.234375 47.609375 19.390625 
Q 47.609375 24.75 44.3125 27.78125 
Q 41.015625 30.8125 33.5 32.328125 
L 27.484375 33.5 
Q 16.453125 35.6875 11.515625 40.375 
Q 6.59375 45.0625 6.59375 53.421875 
Q 6.59375 63.09375 13.40625 68.65625 
Q 20.21875 74.21875 32.171875 74.21875 
Q 37.3125 74.21875 42.625 73.28125 
Q 47.953125 72.359375 53.515625 70.515625 
z
" id="DejaVuSans-83"/>
      <path d="M 5.515625 54.6875 
L 48.1875 54.6875 
L 48.1875 46.484375 
L 14.40625 7.171875 
L 48.1875 7.171875 
L 48.1875 0 
L 4.296875 0 
L 4.296875 8.203125 
L 38.09375 47.515625 
L 5.515625 47.515625 
z
" id="DejaVuSans-122"/>
      <path id="DejaVuSans-32"/>
      <path d="M 18.109375 8.203125 
L 18.109375 -20.796875 
L 9.078125 -20.796875 
L 9.078125 54.6875 
L 18.109375 54.6875 
L 18.109375 46.390625 
Q 20.953125 51.265625 25.265625 53.625 
Q 29.59375 56 35.59375 56 
Q 45.5625 56 51.78125 48.09375 
Q 58.015625 40.1875 58.015625 27.296875 
Q 58.015625 14.40625 51.78125 6.484375 
Q 45.5625 -1.421875 35.59375 -1.421875 
Q 29.59375 -1.421875 25.265625 0.953125 
Q 20.953125 3.328125 18.109375 8.203125 
z
M 48.6875 27.296875 
Q 48.6875 37.203125 44.609375 42.84375 
Q 40.53125 48.484375 33.40625 48.484375 
Q 26.265625 48.484375 22.1875 42.84375 
Q 18.109375 37.203125 18.109375 27.296875 
Q 18.109375 17.390625 22.1875 11.75 
Q 26.265625 6.109375 33.40625 6.109375 
Q 40.53125 6.109375 44.609375 11.75 
Q 48.6875 17.390625 48.6875 27.296875 
z
" id="DejaVuSans-112"/>
      <path d="M 48.78125 52.59375 
L 48.78125 44.1875 
Q 44.96875 46.296875 41.140625 47.34375 
Q 37.3125 48.390625 33.40625 48.390625 
Q 24.65625 48.390625 19.8125 42.84375 
Q 14.984375 37.3125 14.984375 27.296875 
Q 14.984375 17.28125 19.8125 11.734375 
Q 24.65625 6.203125 33.40625 6.203125 
Q 37.3125 6.203125 41.140625 7.25 
Q 44.96875 8.296875 48.78125 10.40625 
L 48.78125 2.09375 
Q 45.015625 0.34375 40.984375 -0.53125 
Q 36.96875 -1.421875 32.421875 -1.421875 
Q 20.0625 -1.421875 12.78125 6.34375 
Q 5.515625 14.109375 5.515625 27.296875 
Q 5.515625 40.671875 12.859375 48.328125 
Q 20.21875 56 33.015625 56 
Q 37.15625 56 41.109375 55.140625 
Q 45.0625 54.296875 48.78125 52.59375 
z
" id="DejaVuSans-99"/>
     </defs>
     <g transform="translate(25.432812 215.520969)rotate(-90)scale(0.1 -0.1)">
      <use xlink:href="#DejaVuSans-83"/>
      <use x="63.476562" xlink:href="#DejaVuSans-105"/>
      <use x="91.259766" xlink:href="#DejaVuSans-122"/>
      <use x="143.75" xlink:href="#DejaVuSans-101"/>
      <use x="205.273438" xlink:href="#DejaVuSans-32"/>
      <use x="237.060547" xlink:href="#DejaVuSans-112"/>
      <use x="300.537109" xlink:href="#DejaVuSans-101"/>
      <use x="362.060547" xlink:href="#DejaVuSans-114"/>
      <use x="403.173828" xlink:href="#DejaVuSans-32"/>
      <use x="434.960938" xlink:href="#DejaVuSans-83"/>
      <use x="498.4375" xlink:href="#DejaVuSans-112"/>
      <use x="561.914062" xlink:href="#DejaVuSans-101"/>
      <use x="623.4375" xlink:href="#DejaVuSans-99"/>
      <use x="678.417969" xlink:href="#DejaVuSans-105"/>
      <use x="706.201172" xlink:href="#DejaVuSans-101"/>
      <use x="767.724609" xlink:href="#DejaVuSans-115"/>
     </g>
    </g>
   </g>
   <g id="patch_3">
    <path d="M 57.6 307.584 
L 57.6 41.472 
" style="fill:none;stroke:#000000;stroke-linecap:square;stroke-linejoin:miter;stroke-width:0.8;"/>
   </g>
   <g id="patch_4">
    <path d="M 414.72 307.584 
L 414.72 41.472 
" style="fill:none;stroke:#000000;stroke-linecap:square;stroke-linejoin:miter;stroke-width:0.8;"/>
   </g>
   <g id="patch_5">
    <path d="M 57.6 307.584 
L 414.72 307.584 
" style="fill:none;stroke:#000000;stroke-linecap:square;stroke-linejoin:miter;stroke-width:0.8;"/>
   </g>
   <g id="patch_6">
    <path d="M 57.6 41.472 
L 414.72 41.472 
" style="fill:none;stroke:#000000;stroke-linecap:square;stroke-linejoin:miter;stroke-width:0.8;"/>
   </g>
   <g id="text_15">
    <!-- Speciation -->
    <g transform="translate(204.714375 35.472)scale(0.12 -0.12)">
     <use xlink:href="#DejaVuSans-83"/>
     <use x="63.476562" xlink:href="#DejaVuSans-112"/>
     <use x="126.953125" xlink:href="#DejaVuSans-101"/>
     <use x="188.476562" xlink:href="#DejaVuSans-99"/>
     <use x="243.457031" xlink:href="#DejaVuSans-105"/>
     <use x="271.240234" xlink:href="#DejaVuSans-97"/>
     <use x="332.519531" xlink:href="#DejaVuSans-116"/>
     <use x="371.728516" xlink:href="#DejaVuSans-105"/>
     <use x="399.511719" xlink:href="#DejaVuSans-111"/>
     <use x="460.693359" xlink:href="#DejaVuSans-110"/>
    </g>
   </g>
  </g>
 </g>
 <defs>
  <clipPath id="p20f3445ecc">
   <rect height="266.112" width="357.12" x="57.6" y="41.472"/>
  </clipPath>
 </defs>
</svg>
