<?xml version="1.0" encoding="UTF-8" standalone="no"?>
<!DOCTYPE svg PUBLIC "-//W3C//DTD SVG 1.1//EN"
 "http://www.w3.org/Graphics/SVG/1.1/DTD/svg11.dtd">
<!-- Generated by graphviz version 2.38.0 (20140413.2041)
 -->
<!-- Title: %3 Pages: 1 -->
<svg width="236pt" height="140pt"
 viewBox="0.00 0.00 236.38 140.17" xmlns="http://www.w3.org/2000/svg" xmlns:xlink="http://www.w3.org/1999/xlink">
<g id="graph0" class="graph" transform="scale(1 1) rotate(0) translate(4 136.167)">
<title>%3</title>
<polygon fill="white" stroke="none" points="-4,4 -4,-136.167 232.385,-136.167 232.385,4 -4,4"/>
<!-- x -->
<g id="node1" class="node"><title>x</title>
<polygon fill="lightgray" stroke="black" points="20,-122.782 0,-122.782 0,-104.782 20,-104.782 20,-122.782"/>
<text text-anchor="middle" x="10" y="-111.582" font-family="Times New Roman,serif" font-size="9.00">x</text>
</g>
<!-- control -->
<g id="node5" class="node"><title>control</title>
<ellipse fill="lightblue" stroke="black" cx="75" cy="-29.6985" rx="29.8983" ry="29.8983"/>
<text text-anchor="middle" x="75" y="-27.4985" font-family="Times New Roman,serif" font-size="9.00">control</text>
</g>
<!-- x&#45;&gt;control -->
<g id="edge4" class="edge"><title>x&#45;&gt;control</title>
<path fill="none" stroke="green" stroke-width="0.170727" d="M16.4701,-104.611C24.4001,-94.5971 38.2969,-77.0479 50.5597,-61.5622"/>
<polygon fill="green" stroke="green" stroke-width="0.170727" points="53.3189,-63.7156 56.7831,-53.7031 47.8311,-59.37 53.3189,-63.7156"/>
</g>
<!-- dx -->
<g id="node2" class="node"><title>dx</title>
<polygon fill="lightgray" stroke="black" points="63.5,-122.782 38.5,-122.782 38.5,-104.782 63.5,-104.782 63.5,-122.782"/>
<text text-anchor="middle" x="51" y="-111.582" font-family="Times New Roman,serif" font-size="9.00">dx</text>
</g>
<!-- dx&#45;&gt;control -->
<g id="edge1" class="edge"><title>dx&#45;&gt;control</title>
<path fill="none" stroke="green" stroke-width="0.147505" d="M53.389,-104.611C55.9077,-95.9967 60.0568,-81.8063 64.0497,-68.1501"/>
<polygon fill="green" stroke="green" stroke-width="0.147505" points="67.4569,-68.9684 66.904,-58.388 60.7382,-67.0039 67.4569,-68.9684"/>
</g>
<!-- theta -->
<g id="node3" class="node"><title>theta</title>
<polygon fill="lightgray" stroke="black" points="116.5,-122.782 81.5,-122.782 81.5,-104.782 116.5,-104.782 116.5,-122.782"/>
<text text-anchor="middle" x="99" y="-111.582" font-family="Times New Roman,serif" font-size="9.00">theta</text>
</g>
<!-- theta&#45;&gt;control -->
<g id="edge3" class="edge"><title>theta&#45;&gt;control</title>
<path fill="none" stroke="green" stroke-width="0.325494" d="M96.611,-104.611C94.0923,-95.9967 89.9432,-81.8063 85.9503,-68.1501"/>
<polygon fill="green" stroke="green" stroke-width="0.325494" points="89.2618,-67.0039 83.096,-58.388 82.5431,-68.9684 89.2618,-67.0039"/>
</g>
<!-- dtheta -->
<g id="node4" class="node"><title>dtheta</title>
<polygon fill="lightgray" stroke="black" points="173.5,-122.782 134.5,-122.782 134.5,-104.782 173.5,-104.782 173.5,-122.782"/>
<text text-anchor="middle" x="154" y="-111.582" font-family="Times New Roman,serif" font-size="9.00">dtheta</text>
</g>
<!-- dtheta&#45;&gt;control -->
<g id="edge2" class="edge"><title>dtheta&#45;&gt;control</title>
<path fill="none" stroke="green" stroke-width="0.222004" d="M146.136,-104.611C136.007,-94.087 117.869,-75.2407 102.444,-59.2133"/>
<polygon fill="green" stroke="green" stroke-width="0.222004" points="104.593,-56.3987 95.1362,-51.6206 99.5489,-61.2528 104.593,-56.3987"/>
</g>
<!-- 35 -->
<g id="node6" class="node"><title>35</title>
<ellipse fill="white" stroke="black" cx="210" cy="-113.782" rx="18.2703" ry="18.2703"/>
<text text-anchor="middle" x="210" y="-111.582" font-family="Times New Roman,serif" font-size="9.00">35</text>
</g>
</g>
</svg>
