<?xml version="1.0" encoding="UTF-8" standalone="no"?>
<!DOCTYPE svg PUBLIC "-//W3C//DTD SVG 1.1//EN"
 "http://www.w3.org/Graphics/SVG/1.1/DTD/svg11.dtd">
<!-- Generated by graphviz version 2.38.0 (20140413.2041)
 -->
<!-- Title: %3 Pages: 1 -->
<svg width="235pt" height="278pt"
 viewBox="0.00 0.00 235.41 278.25" xmlns="http://www.w3.org/2000/svg" xmlns:xlink="http://www.w3.org/1999/xlink">
<g id="graph0" class="graph" transform="scale(1 1) rotate(0) translate(4 274.25)">
<title>%3</title>
<polygon fill="white" stroke="none" points="-4,4 -4,-274.25 231.412,-274.25 231.412,4 -4,4"/>
<!-- x -->
<g id="node1" class="node"><title>x</title>
<polygon fill="lightgray" stroke="black" points="55.1985,-270.25 35.1985,-270.25 35.1985,-252.25 55.1985,-252.25 55.1985,-270.25"/>
<text text-anchor="middle" x="45.1985" y="-259.05" font-family="Times New Roman,serif" font-size="9.00">x</text>
</g>
<!-- control -->
<g id="node5" class="node"><title>control</title>
<ellipse fill="lightblue" stroke="black" cx="97.1985" cy="-29.6985" rx="29.8983" ry="29.8983"/>
<text text-anchor="middle" x="97.1985" y="-27.4985" font-family="Times New Roman,serif" font-size="9.00">control</text>
</g>
<!-- x&#45;&gt;control -->
<g id="edge2" class="edge"><title>x&#45;&gt;control</title>
<path fill="none" stroke="red" stroke-width="0.370239" stroke-dasharray="1,5" d="M37.2685,-251.979C29.9229,-243.698 19.5044,-230.209 15.1985,-216.25 -0.633969,-164.924 -8.23205,-143.729 15.1985,-95.397 24.966,-75.2487 44.3879,-59.4851 61.8786,-48.5637"/>
<polygon fill="red" stroke="red" stroke-width="0.370239" points="63.9609,-51.3986 70.7877,-43.2964 60.3984,-45.373 63.9609,-51.3986"/>
</g>
<!-- 574 -->
<g id="node7" class="node"><title>574</title>
<ellipse fill="white" stroke="black" cx="45.1985" cy="-195.037" rx="21.4286" ry="21.4286"/>
<text text-anchor="middle" x="45.1985" y="-192.837" font-family="Times New Roman,serif" font-size="9.00">574</text>
</g>
<!-- x&#45;&gt;574 -->
<g id="edge7" class="edge"><title>x&#45;&gt;574</title>
<path fill="none" stroke="green" stroke-width="0.245696" d="M45.1985,-252.117C45.1985,-245.574 45.1985,-235.945 45.1985,-226.506"/>
<polygon fill="green" stroke="green" stroke-width="0.245696" points="48.6986,-226.492 45.1985,-216.492 41.6986,-226.492 48.6986,-226.492"/>
</g>
<!-- 399 -->
<g id="node8" class="node"><title>399</title>
<ellipse fill="white" stroke="black" cx="45.1985" cy="-116.61" rx="21.4286" ry="21.4286"/>
<text text-anchor="middle" x="45.1985" y="-114.41" font-family="Times New Roman,serif" font-size="9.00">399</text>
</g>
<!-- x&#45;&gt;399 -->
<g id="edge4" class="edge"><title>x&#45;&gt;399</title>
<path fill="none" stroke="red" stroke-width="0.2267" d="M53.1286,-251.979C60.4742,-243.698 70.8927,-230.209 75.1985,-216.25 80.7567,-198.231 79.7743,-192.116 75.1985,-173.823 72.541,-163.199 67.4523,-152.385 62.2103,-143.118"/>
<polygon fill="red" stroke="red" stroke-width="0.2267" points="65.1454,-141.206 57.0016,-134.429 59.1416,-144.806 65.1454,-141.206"/>
</g>
<!-- dx -->
<g id="node2" class="node"><title>dx</title>
<polygon fill="lightgray" stroke="black" points="109.699,-125.61 84.6985,-125.61 84.6985,-107.61 109.699,-107.61 109.699,-125.61"/>
<text text-anchor="middle" x="97.1985" y="-114.41" font-family="Times New Roman,serif" font-size="9.00">dx</text>
</g>
<!-- dx&#45;&gt;control -->
<g id="edge6" class="edge"><title>dx&#45;&gt;control</title>
<path fill="none" stroke="green" stroke-width="0.164081" d="M97.1985,-107.468C97.1985,-98.6504 97.1985,-83.9334 97.1985,-69.7307"/>
<polygon fill="green" stroke="green" stroke-width="0.164081" points="100.699,-69.5716 97.1985,-59.5716 93.6986,-69.5716 100.699,-69.5716"/>
</g>
<!-- theta -->
<g id="node3" class="node"><title>theta</title>
<polygon fill="lightgray" stroke="black" points="190.699,-204.037 155.699,-204.037 155.699,-186.037 190.699,-186.037 190.699,-204.037"/>
<text text-anchor="middle" x="173.199" y="-192.837" font-family="Times New Roman,serif" font-size="9.00">theta</text>
</g>
<!-- 204 -->
<g id="node6" class="node"><title>204</title>
<ellipse fill="white" stroke="black" cx="206.199" cy="-116.61" rx="21.4286" ry="21.4286"/>
<text text-anchor="middle" x="206.199" y="-114.41" font-family="Times New Roman,serif" font-size="9.00">204</text>
</g>
<!-- theta&#45;&gt;204 -->
<g id="edge1" class="edge"><title>theta&#45;&gt;204</title>
<path fill="none" stroke="green" stroke-width="0.598491" d="M176.73,-185.858C180.837,-176.346 187.84,-160.129 193.988,-145.889"/>
<polygon fill="green" stroke="green" stroke-width="0.598491" points="197.311,-147.021 198.062,-136.453 190.885,-144.246 197.311,-147.021"/>
</g>
<!-- theta&#45;&gt;399 -->
<g id="edge9" class="edge"><title>theta&#45;&gt;399</title>
<path fill="none" stroke="red" stroke-width="0.634004" d="M158.393,-185.981C139.033,-175.348 104.171,-155.861 75.1985,-137.823 73.7324,-136.911 72.2351,-135.961 70.7301,-134.992"/>
<polygon fill="red" stroke="red" stroke-width="0.634004" points="72.4694,-131.947 62.1927,-129.37 68.6195,-137.793 72.4694,-131.947"/>
</g>
<!-- dtheta -->
<g id="node4" class="node"><title>dtheta</title>
<polygon fill="lightgray" stroke="black" points="166.699,-125.61 127.699,-125.61 127.699,-107.61 166.699,-107.61 166.699,-125.61"/>
<text text-anchor="middle" x="147.199" y="-114.41" font-family="Times New Roman,serif" font-size="9.00">dtheta</text>
</g>
<!-- dtheta&#45;&gt;control -->
<g id="edge3" class="edge"><title>dtheta&#45;&gt;control</title>
<path fill="none" stroke="green" stroke-width="0.409726" d="M142.404,-107.468C136.602,-97.6139 126.461,-80.3924 117.252,-64.7546"/>
<polygon fill="green" stroke="green" stroke-width="0.409726" points="120.068,-62.639 111.978,-55.7979 114.036,-66.1909 120.068,-62.639"/>
</g>
<!-- 204&#45;&gt;control -->
<g id="edge10" class="edge"><title>204&#45;&gt;control</title>
<path fill="none" stroke="green" stroke-width="0.262855" d="M189.644,-102.714C173.417,-90.0733 148.282,-70.4925 128.314,-54.9376"/>
<polygon fill="green" stroke="green" stroke-width="0.262855" points="130.432,-52.1505 120.392,-48.7661 126.13,-57.6727 130.432,-52.1505"/>
</g>
<!-- 574&#45;&gt;399 -->
<g id="edge8" class="edge"><title>574&#45;&gt;399</title>
<path fill="none" stroke="red" stroke-width="0.156306" d="M45.1985,-173.556C45.1985,-165.697 45.1985,-156.553 45.1985,-147.962"/>
<polygon fill="red" stroke="red" stroke-width="0.156306" points="48.6986,-147.883 45.1985,-137.883 41.6986,-147.883 48.6986,-147.883"/>
</g>
<!-- 399&#45;&gt;control -->
<g id="edge5" class="edge"><title>399&#45;&gt;control</title>
<path fill="none" stroke="red" stroke-width="0.399387" d="M55.973,-98.0164C61.9942,-88.1842 69.6976,-75.6053 76.8121,-63.9879"/>
<polygon fill="red" stroke="red" stroke-width="0.399387" points="79.8624,-65.7087 82.1002,-55.3529 73.8928,-62.0529 79.8624,-65.7087"/>
</g>
</g>
</svg>
