<?xml version="1.0" encoding="UTF-8" standalone="no"?>
<!DOCTYPE svg PUBLIC "-//W3C//DTD SVG 1.1//EN"
 "http://www.w3.org/Graphics/SVG/1.1/DTD/svg11.dtd">
<!-- Generated by graphviz version 2.38.0 (20140413.2041)
 -->
<!-- Title: %3 Pages: 1 -->
<svg width="235pt" height="278pt"
 viewBox="0.00 0.00 235.43 278.25" xmlns="http://www.w3.org/2000/svg" xmlns:xlink="http://www.w3.org/1999/xlink">
<g id="graph0" class="graph" transform="scale(1 1) rotate(0) translate(4 274.25)">
<title>%3</title>
<polygon fill="white" stroke="none" points="-4,4 -4,-274.25 231.426,-274.25 231.426,4 -4,4"/>
<!-- x -->
<g id="node1" class="node"><title>x</title>
<polygon fill="lightgray" stroke="black" points="55.2132,-270.25 35.2132,-270.25 35.2132,-252.25 55.2132,-252.25 55.2132,-270.25"/>
<text text-anchor="middle" x="45.2132" y="-259.05" font-family="Times New Roman,serif" font-size="9.00">x</text>
</g>
<!-- 574 -->
<g id="node6" class="node"><title>574</title>
<ellipse fill="white" stroke="black" cx="21.2132" cy="-195.037" rx="21.4286" ry="21.4286"/>
<text text-anchor="middle" x="21.2132" y="-192.837" font-family="Times New Roman,serif" font-size="9.00">574</text>
</g>
<!-- x&#45;&gt;574 -->
<g id="edge6" class="edge"><title>x&#45;&gt;574</title>
<path fill="none" stroke="green" stroke-width="0.245696" d="M42.1736,-252.117C39.5545,-245.11 35.6124,-234.562 31.8512,-224.499"/>
<polygon fill="green" stroke="green" stroke-width="0.245696" points="35.1291,-223.272 28.3495,-215.13 28.5721,-225.723 35.1291,-223.272"/>
</g>
<!-- 399 -->
<g id="node8" class="node"><title>399</title>
<ellipse fill="white" stroke="black" cx="45.2132" cy="-116.61" rx="21.4286" ry="21.4286"/>
<text text-anchor="middle" x="45.2132" y="-114.41" font-family="Times New Roman,serif" font-size="9.00">399</text>
</g>
<!-- x&#45;&gt;399 -->
<g id="edge3" class="edge"><title>x&#45;&gt;399</title>
<path fill="none" stroke="red" stroke-width="0.2267" d="M46.6492,-252.174C48.1355,-243.374 50.3571,-228.864 51.2132,-216.25 52.49,-197.437 52.2153,-192.653 51.2132,-173.823 50.7658,-165.416 49.9445,-156.331 49.0502,-147.967"/>
<polygon fill="red" stroke="red" stroke-width="0.2267" points="52.5088,-147.404 47.901,-137.863 45.5536,-148.195 52.5088,-147.404"/>
</g>
<!-- dx -->
<g id="node2" class="node"><title>dx</title>
<polygon fill="lightgray" stroke="black" points="109.713,-125.61 84.7132,-125.61 84.7132,-107.61 109.713,-107.61 109.713,-125.61"/>
<text text-anchor="middle" x="97.2132" y="-114.41" font-family="Times New Roman,serif" font-size="9.00">dx</text>
</g>
<!-- control -->
<g id="node5" class="node"><title>control</title>
<ellipse fill="lightblue" stroke="black" cx="122.213" cy="-29.6985" rx="29.8983" ry="29.8983"/>
<text text-anchor="middle" x="122.213" y="-27.4985" font-family="Times New Roman,serif" font-size="9.00">control</text>
</g>
<!-- dx&#45;&gt;control -->
<g id="edge5" class="edge"><title>dx&#45;&gt;control</title>
<path fill="none" stroke="green" stroke-width="0.164081" d="M99.6103,-107.468C102.291,-98.3624 106.824,-82.9659 111.13,-68.3412"/>
<polygon fill="green" stroke="green" stroke-width="0.164081" points="114.583,-69.0079 114.049,-58.4265 107.867,-67.0308 114.583,-69.0079"/>
</g>
<!-- theta -->
<g id="node3" class="node"><title>theta</title>
<polygon fill="lightgray" stroke="black" points="178.713,-204.037 143.713,-204.037 143.713,-186.037 178.713,-186.037 178.713,-204.037"/>
<text text-anchor="middle" x="161.213" y="-192.837" font-family="Times New Roman,serif" font-size="9.00">theta</text>
</g>
<!-- 204 -->
<g id="node7" class="node"><title>204</title>
<ellipse fill="white" stroke="black" cx="206.213" cy="-116.61" rx="21.4286" ry="21.4286"/>
<text text-anchor="middle" x="206.213" y="-114.41" font-family="Times New Roman,serif" font-size="9.00">204</text>
</g>
<!-- theta&#45;&gt;204 -->
<g id="edge1" class="edge"><title>theta&#45;&gt;204</title>
<path fill="none" stroke="green" stroke-width="0.598491" d="M166.029,-185.858C171.887,-175.908 182.066,-158.621 190.713,-143.935"/>
<polygon fill="green" stroke="green" stroke-width="0.598491" points="193.789,-145.609 195.847,-135.216 187.757,-142.057 193.789,-145.609"/>
</g>
<!-- theta&#45;&gt;399 -->
<g id="edge8" class="edge"><title>theta&#45;&gt;399</title>
<path fill="none" stroke="red" stroke-width="0.634004" d="M148.644,-185.899C131.86,-175.015 101.222,-155.084 75.2132,-137.823 73.7742,-136.868 72.2982,-135.885 70.8097,-134.891"/>
<polygon fill="red" stroke="red" stroke-width="0.634004" points="72.5737,-131.86 62.3193,-129.196 68.6742,-137.673 72.5737,-131.86"/>
</g>
<!-- dtheta -->
<g id="node4" class="node"><title>dtheta</title>
<polygon fill="lightgray" stroke="black" points="166.713,-125.61 127.713,-125.61 127.713,-107.61 166.713,-107.61 166.713,-125.61"/>
<text text-anchor="middle" x="147.213" y="-114.41" font-family="Times New Roman,serif" font-size="9.00">dtheta</text>
</g>
<!-- dtheta&#45;&gt;control -->
<g id="edge2" class="edge"><title>dtheta&#45;&gt;control</title>
<path fill="none" stroke="green" stroke-width="0.409726" d="M144.816,-107.468C142.135,-98.3624 137.602,-82.9659 133.296,-68.3412"/>
<polygon fill="green" stroke="green" stroke-width="0.409726" points="136.559,-67.0308 130.377,-58.4265 129.844,-69.0079 136.559,-67.0308"/>
</g>
<!-- 574&#45;&gt;399 -->
<g id="edge7" class="edge"><title>574&#45;&gt;399</title>
<path fill="none" stroke="red" stroke-width="0.156306" d="M27.3938,-174.355C30.0457,-165.91 33.1979,-155.872 36.1084,-146.604"/>
<polygon fill="red" stroke="red" stroke-width="0.156306" points="39.4798,-147.55 39.1366,-136.961 32.8013,-145.453 39.4798,-147.55"/>
</g>
<!-- 204&#45;&gt;control -->
<g id="edge9" class="edge"><title>204&#45;&gt;control</title>
<path fill="none" stroke="green" stroke-width="0.262855" d="M191.582,-100.82C180.054,-89.1666 163.653,-72.5883 149.693,-58.477"/>
<polygon fill="green" stroke="green" stroke-width="0.262855" points="152.176,-56.0093 142.655,-51.3616 147.199,-60.9323 152.176,-56.0093"/>
</g>
<!-- 399&#45;&gt;control -->
<g id="edge4" class="edge"><title>399&#45;&gt;control</title>
<path fill="none" stroke="red" stroke-width="0.399387" d="M58.9793,-100.43C69.1043,-89.2643 83.1871,-73.7345 95.4931,-60.164"/>
<polygon fill="red" stroke="red" stroke-width="0.399387" points="98.3652,-62.2071 102.49,-52.4482 93.1797,-57.5048 98.3652,-62.2071"/>
</g>
</g>
</svg>
