<?xml version="1.0" encoding="UTF-8" standalone="no"?>
<!DOCTYPE svg PUBLIC "-//W3C//DTD SVG 1.1//EN"
 "http://www.w3.org/Graphics/SVG/1.1/DTD/svg11.dtd">
<!-- Generated by graphviz version 2.38.0 (20140413.2041)
 -->
<!-- Title: %3 Pages: 1 -->
<svg width="241pt" height="381pt"
 viewBox="0.00 0.00 241.43 381.10" xmlns="http://www.w3.org/2000/svg" xmlns:xlink="http://www.w3.org/1999/xlink">
<g id="graph0" class="graph" transform="scale(1 1) rotate(0) translate(4 377.103)">
<title>%3</title>
<polygon fill="white" stroke="none" points="-4,4 -4,-377.103 237.426,-377.103 237.426,4 -4,4"/>
<!-- x -->
<g id="node1" class="node"><title>x</title>
<polygon fill="lightgray" stroke="black" points="51.2132,-360.889 31.2132,-360.889 31.2132,-342.889 51.2132,-342.889 51.2132,-360.889"/>
<text text-anchor="middle" x="41.2132" y="-349.689" font-family="Times New Roman,serif" font-size="9.00">x</text>
</g>
<!-- 108 -->
<g id="node7" class="node"><title>108</title>
<ellipse fill="white" stroke="black" cx="46.2132" cy="-273.463" rx="21.4286" ry="21.4286"/>
<text text-anchor="middle" x="46.2132" y="-271.263" font-family="Times New Roman,serif" font-size="9.00">108</text>
</g>
<!-- x&#45;&gt;108 -->
<g id="edge1" class="edge"><title>x&#45;&gt;108</title>
<path fill="none" stroke="red" stroke-width="0.830098" d="M41.7483,-342.71C42.3385,-333.689 43.3234,-318.634 44.2183,-304.956"/>
<polygon fill="red" stroke="red" stroke-width="0.830098" points="47.7166,-305.095 44.877,-294.887 40.7315,-304.638 47.7166,-305.095"/>
</g>
<!-- dx -->
<g id="node2" class="node"><title>dx</title>
<polygon fill="lightgray" stroke="black" points="94.7132,-360.889 69.7132,-360.889 69.7132,-342.889 94.7132,-342.889 94.7132,-360.889"/>
<text text-anchor="middle" x="82.2132" y="-349.689" font-family="Times New Roman,serif" font-size="9.00">dx</text>
</g>
<!-- dx&#45;&gt;108 -->
<g id="edge13" class="edge"><title>dx&#45;&gt;108</title>
<path fill="none" stroke="red" stroke-width="0.630792" d="M78.3606,-342.71C73.8075,-333.044 65.9919,-316.452 59.2072,-302.049"/>
<polygon fill="red" stroke="red" stroke-width="0.630792" points="62.3699,-300.549 54.9422,-292.994 56.0372,-303.532 62.3699,-300.549"/>
</g>
<!-- theta -->
<g id="node3" class="node"><title>theta</title>
<polygon fill="lightgray" stroke="black" points="198.713,-282.463 163.713,-282.463 163.713,-264.463 198.713,-264.463 198.713,-282.463"/>
<text text-anchor="middle" x="181.213" y="-271.263" font-family="Times New Roman,serif" font-size="9.00">theta</text>
</g>
<!-- control -->
<g id="node5" class="node"><title>control</title>
<ellipse fill="lightblue" stroke="black" cx="171.213" cy="-186.551" rx="29.8983" ry="29.8983"/>
<text text-anchor="middle" x="171.213" y="-184.351" font-family="Times New Roman,serif" font-size="9.00">control</text>
</g>
<!-- theta&#45;&gt;control -->
<g id="edge2" class="edge"><title>theta&#45;&gt;control</title>
<path fill="none" stroke="green" stroke-width="0.862893" d="M180.254,-264.321C179.216,-255.503 177.483,-240.786 175.81,-226.584"/>
<polygon fill="green" stroke="green" stroke-width="0.862893" points="179.259,-225.946 174.614,-216.424 172.307,-226.765 179.259,-225.946"/>
</g>
<!-- dtheta -->
<g id="node4" class="node"><title>dtheta</title>
<polygon fill="lightgray" stroke="black" points="154.713,-360.889 115.713,-360.889 115.713,-342.889 154.713,-342.889 154.713,-360.889"/>
<text text-anchor="middle" x="135.213" y="-349.689" font-family="Times New Roman,serif" font-size="9.00">dtheta</text>
</g>
<!-- dtheta&#45;&gt;control -->
<g id="edge4" class="edge"><title>dtheta&#45;&gt;control</title>
<path fill="none" stroke="green" stroke-width="0.590404" d="M136.606,-342.667C139.523,-325.694 146.633,-285.581 154.213,-252.25 156.215,-243.446 158.569,-234.023 160.877,-225.168"/>
<polygon fill="green" stroke="green" stroke-width="0.590404" points="164.267,-226.038 163.441,-215.476 157.5,-224.248 164.267,-226.038"/>
</g>
<!-- dtheta&#45;&gt;108 -->
<g id="edge6" class="edge"><title>dtheta&#45;&gt;108</title>
<path fill="none" stroke="red" stroke-width="0.291113" stroke-dasharray="1,5" d="M125.689,-342.71C112.467,-331.357 88.1173,-310.447 69.8407,-294.753"/>
<polygon fill="red" stroke="red" stroke-width="0.291113" points="71.7994,-291.821 61.9325,-287.962 67.239,-297.132 71.7994,-291.821"/>
</g>
<!-- 332 -->
<g id="node8" class="node"><title>332</title>
<ellipse fill="white" stroke="black" cx="46.2132" cy="-99.6396" rx="21.4286" ry="21.4286"/>
<text text-anchor="middle" x="46.2132" y="-97.4396" font-family="Times New Roman,serif" font-size="9.00">332</text>
</g>
<!-- dtheta&#45;&gt;332 -->
<g id="edge7" class="edge"><title>dtheta&#45;&gt;332</title>
<path fill="none" stroke="green" stroke-width="0.422337" d="M146.893,-342.738C166.632,-328.843 204.79,-301.414 208.213,-294.676 235.96,-240.059 245.823,-206.702 210.213,-156.853 180.069,-114.654 116.21,-103.795 77.6756,-101.205"/>
<polygon fill="green" stroke="green" stroke-width="0.422337" points="77.6966,-97.701 67.5275,-100.674 77.3311,-104.691 77.6966,-97.701"/>
</g>
<!-- 905 -->
<g id="node6" class="node"><title>905</title>
<ellipse fill="white" stroke="black" cx="21.2132" cy="-21.2132" rx="21.4286" ry="21.4286"/>
<text text-anchor="middle" x="21.2132" y="-19.0132" font-family="Times New Roman,serif" font-size="9.00">905</text>
</g>
<!-- 905&#45;&gt;108 -->
<g id="edge15" class="edge"><title>905&#45;&gt;108</title>
<path fill="none" stroke="green" stroke-width="0.229078" d="M18.9732,-42.4791C17.9036,-53.1584 16.7432,-66.4849 16.2132,-78.4264 15.3771,-97.264 14.3743,-102.087 16.2132,-120.853 20.403,-163.611 31.0881,-212.193 38.5041,-242.587"/>
<polygon fill="green" stroke="green" stroke-width="0.229078" points="35.1685,-243.677 40.9749,-252.539 41.9622,-241.99 35.1685,-243.677"/>
</g>
<!-- 108&#45;&gt;control -->
<g id="edge3" class="edge"><title>108&#45;&gt;control</title>
<path fill="none" stroke="red" stroke-width="0.420908" d="M63.8619,-261.332C81.3809,-250.188 108.913,-232.419 132.213,-216.25 134.609,-214.587 137.071,-212.848 139.539,-211.084"/>
<polygon fill="red" stroke="red" stroke-width="0.420908" points="141.807,-213.763 147.855,-205.064 137.702,-208.093 141.807,-213.763"/>
</g>
<!-- 108&#45;&gt;108 -->
<g id="edge5" class="edge"><title>108&#45;&gt;108</title>
<path fill="none" stroke="green" stroke-width="0.271158" stroke-dasharray="1,5" d="M63.1418,-286.799C74.4344,-290.553 85.4264,-286.108 85.4264,-273.463 85.4264,-264.77 80.231,-259.952 73.3143,-259.01"/>
<polygon fill="green" stroke="green" stroke-width="0.271158" points="72.7,-255.556 63.1418,-260.127 73.4642,-262.514 72.7,-255.556"/>
</g>
<!-- 108&#45;&gt;332 -->
<g id="edge9" class="edge"><title>108&#45;&gt;332</title>
<path fill="none" stroke="green" stroke-width="0.170213" stroke-dasharray="1,5" d="M41.6889,-252.416C38.9961,-222.412 38.7468,-165.62 40.9409,-130.655"/>
<polygon fill="green" stroke="green" stroke-width="0.170213" points="44.4404,-130.793 41.7004,-120.559 37.4601,-130.268 44.4404,-130.793"/>
</g>
<!-- 816 -->
<g id="node9" class="node"><title>816</title>
<ellipse fill="white" stroke="black" cx="102.213" cy="-186.551" rx="21.4286" ry="21.4286"/>
<text text-anchor="middle" x="102.213" y="-184.351" font-family="Times New Roman,serif" font-size="9.00">816</text>
</g>
<!-- 108&#45;&gt;816 -->
<g id="edge11" class="edge"><title>108&#45;&gt;816</title>
<path fill="none" stroke="green" stroke-width="0.120114" d="M57.5456,-255.28C65.5156,-243.195 76.3182,-226.815 85.3035,-213.191"/>
<polygon fill="green" stroke="green" stroke-width="0.120114" points="88.3138,-214.984 90.8976,-204.709 82.4702,-211.13 88.3138,-214.984"/>
</g>
<!-- 332&#45;&gt;905 -->
<g id="edge14" class="edge"><title>332&#45;&gt;905</title>
<path fill="none" stroke="green" stroke-width="0.230289" d="M39.9046,-79.354C37.1215,-70.8458 33.7905,-60.6628 30.7165,-51.2652"/>
<polygon fill="green" stroke="green" stroke-width="0.230289" points="33.9554,-49.9089 27.5197,-41.4926 27.3023,-52.0852 33.9554,-49.9089"/>
</g>
<!-- 332&#45;&gt;108 -->
<g id="edge8" class="edge"><title>332&#45;&gt;108</title>
<path fill="none" stroke="red" stroke-width="0.171498" stroke-dasharray="1,5" d="M50.7261,-120.559C53.4258,-150.487 53.682,-207.272 51.4948,-242.298"/>
<polygon fill="red" stroke="red" stroke-width="0.171498" points="47.9937,-242.183 50.7375,-252.416 54.9742,-242.706 47.9937,-242.183"/>
</g>
<!-- 816&#45;&gt;332 -->
<g id="edge12" class="edge"><title>816&#45;&gt;332</title>
<path fill="none" stroke="red" stroke-width="0.242583" d="M90.8808,-168.368C82.9108,-156.283 72.1082,-139.904 63.1229,-126.279"/>
<polygon fill="red" stroke="red" stroke-width="0.242583" points="65.9562,-124.218 57.5288,-117.797 60.1126,-128.072 65.9562,-124.218"/>
</g>
<!-- 540 -->
<g id="node10" class="node"><title>540</title>
<ellipse fill="white" stroke="black" cx="194.213" cy="-351.889" rx="21.4286" ry="21.4286"/>
<text text-anchor="middle" x="194.213" y="-349.689" font-family="Times New Roman,serif" font-size="9.00">540</text>
</g>
<!-- 540&#45;&gt;540 -->
<g id="edge10" class="edge"><title>540&#45;&gt;540</title>
<path fill="none" stroke="green" stroke-width="0.232511" d="M211.142,-365.225C222.434,-368.979 233.426,-364.534 233.426,-351.889 233.426,-343.196 228.231,-338.379 221.314,-337.436"/>
<polygon fill="green" stroke="green" stroke-width="0.232511" points="220.7,-333.983 211.142,-338.553 221.464,-340.941 220.7,-333.983"/>
</g>
</g>
</svg>
