<?xml version="1.0" encoding="UTF-8" standalone="no"?>
<!DOCTYPE svg PUBLIC "-//W3C//DTD SVG 1.1//EN"
 "http://www.w3.org/Graphics/SVG/1.1/DTD/svg11.dtd">
<!-- Generated by graphviz version 2.38.0 (20140413.2041)
 -->
<!-- Title: %3 Pages: 1 -->
<svg width="199pt" height="381pt"
 viewBox="0.00 0.00 198.71 381.10" xmlns="http://www.w3.org/2000/svg" xmlns:xlink="http://www.w3.org/1999/xlink">
<g id="graph0" class="graph" transform="scale(1 1) rotate(0) translate(4 377.103)">
<title>%3</title>
<polygon fill="white" stroke="none" points="-4,4 -4,-377.103 194.713,-377.103 194.713,4 -4,4"/>
<!-- x -->
<g id="node1" class="node"><title>x</title>
<polygon fill="lightgray" stroke="black" points="36.2132,-360.889 16.2132,-360.889 16.2132,-342.889 36.2132,-342.889 36.2132,-360.889"/>
<text text-anchor="middle" x="26.2132" y="-349.689" font-family="Times New Roman,serif" font-size="9.00">x</text>
</g>
<!-- 108 -->
<g id="node7" class="node"><title>108</title>
<ellipse fill="white" stroke="black" cx="46.2132" cy="-273.463" rx="21.4286" ry="21.4286"/>
<text text-anchor="middle" x="46.2132" y="-271.263" font-family="Times New Roman,serif" font-size="9.00">108</text>
</g>
<!-- x&#45;&gt;108 -->
<g id="edge1" class="edge"><title>x&#45;&gt;108</title>
<path fill="none" stroke="red" stroke-width="0.830098" d="M28.3536,-342.71C30.77,-333.476 34.8405,-317.922 38.4857,-303.992"/>
<polygon fill="red" stroke="red" stroke-width="0.830098" points="41.8893,-304.811 41.0351,-294.25 35.1174,-303.038 41.8893,-304.811"/>
</g>
<!-- dx -->
<g id="node2" class="node"><title>dx</title>
<polygon fill="lightgray" stroke="black" points="79.7132,-360.889 54.7132,-360.889 54.7132,-342.889 79.7132,-342.889 79.7132,-360.889"/>
<text text-anchor="middle" x="67.2132" y="-349.689" font-family="Times New Roman,serif" font-size="9.00">dx</text>
</g>
<!-- dx&#45;&gt;108 -->
<g id="edge9" class="edge"><title>dx&#45;&gt;108</title>
<path fill="none" stroke="red" stroke-width="0.630792" d="M64.9658,-342.71C62.4286,-333.476 58.1545,-317.922 54.3271,-303.992"/>
<polygon fill="red" stroke="red" stroke-width="0.630792" points="57.6748,-302.966 51.6502,-294.25 50.9249,-304.82 57.6748,-302.966"/>
</g>
<!-- theta -->
<g id="node3" class="node"><title>theta</title>
<polygon fill="lightgray" stroke="black" points="132.713,-282.463 97.7132,-282.463 97.7132,-264.463 132.713,-264.463 132.713,-282.463"/>
<text text-anchor="middle" x="115.213" y="-271.263" font-family="Times New Roman,serif" font-size="9.00">theta</text>
</g>
<!-- control -->
<g id="node5" class="node"><title>control</title>
<ellipse fill="lightblue" stroke="black" cx="115.213" cy="-186.551" rx="29.8983" ry="29.8983"/>
<text text-anchor="middle" x="115.213" y="-184.351" font-family="Times New Roman,serif" font-size="9.00">control</text>
</g>
<!-- theta&#45;&gt;control -->
<g id="edge2" class="edge"><title>theta&#45;&gt;control</title>
<path fill="none" stroke="green" stroke-width="0.862893" d="M115.213,-264.321C115.213,-255.503 115.213,-240.786 115.213,-226.584"/>
<polygon fill="green" stroke="green" stroke-width="0.862893" points="118.713,-226.424 115.213,-216.424 111.713,-226.424 118.713,-226.424"/>
</g>
<!-- dtheta -->
<g id="node4" class="node"><title>dtheta</title>
<polygon fill="lightgray" stroke="black" points="190.713,-282.463 151.713,-282.463 151.713,-264.463 190.713,-264.463 190.713,-282.463"/>
<text text-anchor="middle" x="171.213" y="-271.263" font-family="Times New Roman,serif" font-size="9.00">dtheta</text>
</g>
<!-- dtheta&#45;&gt;control -->
<g id="edge4" class="edge"><title>dtheta&#45;&gt;control</title>
<path fill="none" stroke="green" stroke-width="0.590404" d="M165.844,-264.321C159.191,-254.235 147.449,-236.43 136.946,-220.505"/>
<polygon fill="green" stroke="green" stroke-width="0.590404" points="139.707,-218.333 131.279,-211.912 133.863,-222.187 139.707,-218.333"/>
</g>
<!-- 332 -->
<g id="node8" class="node"><title>332</title>
<ellipse fill="white" stroke="black" cx="46.2132" cy="-99.6396" rx="21.4286" ry="21.4286"/>
<text text-anchor="middle" x="46.2132" y="-97.4396" font-family="Times New Roman,serif" font-size="9.00">332</text>
</g>
<!-- dtheta&#45;&gt;332 -->
<g id="edge5" class="edge"><title>dtheta&#45;&gt;332</title>
<path fill="none" stroke="green" stroke-width="0.422337" d="M172.364,-264.265C174.756,-243.965 178.207,-190.573 154.213,-156.853 135.795,-130.968 101.779,-116.102 76.8275,-108.238"/>
<polygon fill="green" stroke="green" stroke-width="0.422337" points="77.6762,-104.839 67.095,-105.376 75.7012,-111.555 77.6762,-104.839"/>
</g>
<!-- 905 -->
<g id="node6" class="node"><title>905</title>
<ellipse fill="white" stroke="black" cx="21.2132" cy="-21.2132" rx="21.4286" ry="21.4286"/>
<text text-anchor="middle" x="21.2132" y="-19.0132" font-family="Times New Roman,serif" font-size="9.00">905</text>
</g>
<!-- 905&#45;&gt;108 -->
<g id="edge11" class="edge"><title>905&#45;&gt;108</title>
<path fill="none" stroke="green" stroke-width="0.229078" d="M17.2393,-42.1499C10.9022,-77.7435 0.716975,-154.301 16.2132,-216.25 18.8708,-226.874 23.9594,-237.688 29.2014,-246.956"/>
<polygon fill="green" stroke="green" stroke-width="0.229078" points="26.2664,-248.867 34.4102,-255.644 32.2701,-245.267 26.2664,-248.867"/>
</g>
<!-- 108&#45;&gt;control -->
<g id="edge3" class="edge"><title>108&#45;&gt;control</title>
<path fill="none" stroke="red" stroke-width="0.420908" d="M59.1916,-256.492C67.985,-245.671 79.8841,-231.027 90.4543,-218.02"/>
<polygon fill="red" stroke="red" stroke-width="0.420908" points="93.2342,-220.149 96.8244,-210.181 87.8017,-215.734 93.2342,-220.149"/>
</g>
<!-- 816 -->
<g id="node9" class="node"><title>816</title>
<ellipse fill="white" stroke="black" cx="46.2132" cy="-186.551" rx="21.4286" ry="21.4286"/>
<text text-anchor="middle" x="46.2132" y="-184.351" font-family="Times New Roman,serif" font-size="9.00">816</text>
</g>
<!-- 108&#45;&gt;816 -->
<g id="edge7" class="edge"><title>108&#45;&gt;816</title>
<path fill="none" stroke="green" stroke-width="0.120114" d="M46.2132,-251.908C46.2132,-241.791 46.2132,-229.389 46.2132,-218.182"/>
<polygon fill="green" stroke="green" stroke-width="0.120114" points="49.7133,-217.917 46.2132,-207.917 42.7133,-217.917 49.7133,-217.917"/>
</g>
<!-- 332&#45;&gt;905 -->
<g id="edge10" class="edge"><title>332&#45;&gt;905</title>
<path fill="none" stroke="green" stroke-width="0.230289" d="M39.9046,-79.354C37.1215,-70.8458 33.7905,-60.6628 30.7165,-51.2652"/>
<polygon fill="green" stroke="green" stroke-width="0.230289" points="33.9554,-49.9089 27.5197,-41.4926 27.3023,-52.0852 33.9554,-49.9089"/>
</g>
<!-- 816&#45;&gt;332 -->
<g id="edge8" class="edge"><title>816&#45;&gt;332</title>
<path fill="none" stroke="red" stroke-width="0.242583" d="M46.2132,-164.997C46.2132,-154.88 46.2132,-142.478 46.2132,-131.271"/>
<polygon fill="red" stroke="red" stroke-width="0.242583" points="49.7133,-131.005 46.2132,-121.005 42.7133,-131.005 49.7133,-131.005"/>
</g>
<!-- 540 -->
<g id="node10" class="node"><title>540</title>
<ellipse fill="none" stroke="black" cx="119.213" cy="-351.889" rx="21.4286" ry="21.4286"/>
<text text-anchor="middle" x="119.213" y="-349.689" font-family="Times New Roman,serif" font-size="9.00">540</text>
</g>
<!-- 540&#45;&gt;540 -->
<g id="edge6" class="edge"><title>540&#45;&gt;540</title>
<path fill="none" stroke="green" stroke-width="0.232511" d="M136.142,-365.225C147.434,-368.979 158.426,-364.534 158.426,-351.889 158.426,-343.196 153.231,-338.379 146.314,-337.436"/>
<polygon fill="green" stroke="green" stroke-width="0.232511" points="145.7,-333.983 136.142,-338.553 146.464,-340.941 145.7,-333.983"/>
</g>
</g>
</svg>
