<?xml version="1.0" encoding="UTF-8" standalone="no"?>
<!DOCTYPE svg PUBLIC "-//W3C//DTD SVG 1.1//EN"
 "http://www.w3.org/Graphics/SVG/1.1/DTD/svg11.dtd">
<!-- Generated by graphviz version 2.38.0 (20140413.2041)
 -->
<!-- Title: %3 Pages: 1 -->
<svg width="261pt" height="200pt"
 viewBox="0.00 0.00 261.43 199.82" xmlns="http://www.w3.org/2000/svg" xmlns:xlink="http://www.w3.org/1999/xlink">
<g id="graph0" class="graph" transform="scale(1 1) rotate(0) translate(4 195.823)">
<title>%3</title>
<polygon fill="white" stroke="none" points="-4,4 -4,-195.823 257.426,-195.823 257.426,4 -4,4"/>
<!-- x -->
<g id="node1" class="node"><title>x</title>
<polygon fill="lightgray" stroke="black" points="31.2132,-191.823 11.2132,-191.823 11.2132,-173.823 31.2132,-173.823 31.2132,-191.823"/>
<text text-anchor="middle" x="21.2132" y="-180.623" font-family="Times New Roman,serif" font-size="9.00">x</text>
</g>
<!-- 1 -->
<g id="node6" class="node"><title>1</title>
<ellipse fill="white" stroke="black" cx="21.2132" cy="-116.61" rx="14.7" ry="14.7"/>
<text text-anchor="middle" x="21.2132" y="-114.41" font-family="Times New Roman,serif" font-size="9.00">1</text>
</g>
<!-- x&#45;&gt;1 -->
<g id="edge6" class="edge"><title>x&#45;&gt;1</title>
<path fill="none" stroke="red" stroke-width="0.398093" d="M21.2132,-173.691C21.2132,-165.711 21.2132,-153.142 21.2132,-141.924"/>
<polygon fill="red" stroke="red" stroke-width="0.398093" points="24.7133,-141.777 21.2132,-131.777 17.7133,-141.777 24.7133,-141.777"/>
</g>
<!-- dx -->
<g id="node2" class="node"><title>dx</title>
<polygon fill="lightgray" stroke="black" points="96.7132,-125.61 71.7132,-125.61 71.7132,-107.61 96.7132,-107.61 96.7132,-125.61"/>
<text text-anchor="middle" x="84.2132" y="-114.41" font-family="Times New Roman,serif" font-size="9.00">dx</text>
</g>
<!-- control -->
<g id="node5" class="node"><title>control</title>
<ellipse fill="lightblue" stroke="black" cx="125.213" cy="-29.6985" rx="29.8983" ry="29.8983"/>
<text text-anchor="middle" x="125.213" y="-27.4985" font-family="Times New Roman,serif" font-size="9.00">control</text>
</g>
<!-- dx&#45;&gt;control -->
<g id="edge8" class="edge"><title>dx&#45;&gt;control</title>
<path fill="none" stroke="green" stroke-width="0.255367" d="M88.1445,-107.468C92.7587,-97.9123 100.718,-81.4284 108.081,-66.179"/>
<polygon fill="green" stroke="green" stroke-width="0.255367" points="111.357,-67.4436 112.554,-56.9165 105.054,-64.3998 111.357,-67.4436"/>
</g>
<!-- theta -->
<g id="node3" class="node"><title>theta</title>
<polygon fill="lightgray" stroke="black" points="113.713,-191.823 78.7132,-191.823 78.7132,-173.823 113.713,-173.823 113.713,-191.823"/>
<text text-anchor="middle" x="96.2132" y="-180.623" font-family="Times New Roman,serif" font-size="9.00">theta</text>
</g>
<!-- theta&#45;&gt;control -->
<g id="edge2" class="edge"><title>theta&#45;&gt;control</title>
<path fill="none" stroke="green" stroke-width="0.609319" d="M97.9137,-173.722C99.7553,-164.901 102.758,-150.373 105.213,-137.823 109.656,-115.109 114.42,-89.6416 118.183,-69.2387"/>
<polygon fill="green" stroke="green" stroke-width="0.609319" points="121.632,-69.8371 119.999,-59.3689 114.747,-68.5707 121.632,-69.8371"/>
</g>
<!-- theta&#45;&gt;1 -->
<g id="edge3" class="edge"><title>theta&#45;&gt;1</title>
<path fill="none" stroke="red" stroke-width="0.185683" d="M86.7144,-173.691C75.0076,-163.668 54.842,-146.402 39.9703,-133.67"/>
<polygon fill="red" stroke="red" stroke-width="0.185683" points="42.2128,-130.982 32.3403,-127.137 37.6602,-136.299 42.2128,-130.982"/>
</g>
<!-- dtheta -->
<g id="node4" class="node"><title>dtheta</title>
<polygon fill="lightgray" stroke="black" points="192.713,-125.61 153.713,-125.61 153.713,-107.61 192.713,-107.61 192.713,-125.61"/>
<text text-anchor="middle" x="173.213" y="-114.41" font-family="Times New Roman,serif" font-size="9.00">dtheta</text>
</g>
<!-- dtheta&#45;&gt;control -->
<g id="edge4" class="edge"><title>dtheta&#45;&gt;control</title>
<path fill="none" stroke="green" stroke-width="0.417165" d="M168.611,-107.468C163.04,-97.6139 153.305,-80.3924 144.465,-64.7546"/>
<polygon fill="green" stroke="green" stroke-width="0.417165" points="147.37,-62.7809 139.402,-55.7979 141.276,-66.2256 147.37,-62.7809"/>
</g>
<!-- 1&#45;&gt;control -->
<g id="edge1" class="edge"><title>1&#45;&gt;control</title>
<path fill="none" stroke="green" stroke-width="0.650438" stroke-dasharray="1,5" d="M32.343,-106.523C47.0537,-94.5125 73.5532,-72.8768 94.4909,-55.7819"/>
<polygon fill="green" stroke="green" stroke-width="0.650438" points="96.9618,-58.283 102.494,-49.2474 92.5347,-52.8607 96.9618,-58.283"/>
</g>
<!-- 1&#45;&gt;1 -->
<g id="edge5" class="edge"><title>1&#45;&gt;1</title>
<path fill="none" stroke="red" stroke-width="0.410264" stroke-dasharray="1,5" d="M32.3197,-126.617C42.7491,-131.805 54.0624,-128.47 54.0624,-116.61 54.0624,-108.642 48.9554,-104.522 42.4408,-104.25"/>
<polygon fill="red" stroke="red" stroke-width="0.410264" points="41.2667,-100.929 32.3197,-106.604 42.8526,-107.747 41.2667,-100.929"/>
</g>
<!-- 273 -->
<g id="node8" class="node"><title>273</title>
<ellipse fill="white" stroke="black" cx="21.2132" cy="-29.6985" rx="21.4286" ry="21.4286"/>
<text text-anchor="middle" x="21.2132" y="-27.4985" font-family="Times New Roman,serif" font-size="9.00">273</text>
</g>
<!-- 1&#45;&gt;273 -->
<g id="edge7" class="edge"><title>1&#45;&gt;273</title>
<path fill="none" stroke="green" stroke-width="0.381923" d="M21.2132,-101.589C21.2132,-90.6282 21.2132,-74.9883 21.2132,-61.1862"/>
<polygon fill="green" stroke="green" stroke-width="0.381923" points="24.7133,-61.0977 21.2132,-51.0977 17.7133,-61.0977 24.7133,-61.0977"/>
</g>
<!-- 667 -->
<g id="node7" class="node"><title>667</title>
<ellipse fill="white" stroke="black" cx="232.213" cy="-116.61" rx="21.4286" ry="21.4286"/>
<text text-anchor="middle" x="232.213" y="-114.41" font-family="Times New Roman,serif" font-size="9.00">667</text>
</g>
<!-- 667&#45;&gt;control -->
<g id="edge9" class="edge"><title>667&#45;&gt;control</title>
<path fill="none" stroke="red" stroke-width="0.155174" d="M215.962,-102.714C200.207,-90.2107 175.894,-70.9173 156.398,-55.4461"/>
<polygon fill="red" stroke="red" stroke-width="0.155174" points="158.386,-52.5551 148.377,-49.0806 154.035,-58.0384 158.386,-52.5551"/>
</g>
</g>
</svg>
