<?xml version="1.0" encoding="UTF-8" standalone="no"?>
<!DOCTYPE svg PUBLIC "-//W3C//DTD SVG 1.1//EN"
 "http://www.w3.org/Graphics/SVG/1.1/DTD/svg11.dtd">
<!-- Generated by graphviz version 2.38.0 (20140413.2041)
 -->
<!-- Title: %3 Pages: 1 -->
<svg width="242pt" height="224pt"
 viewBox="0.00 0.00 242.21 224.25" xmlns="http://www.w3.org/2000/svg" xmlns:xlink="http://www.w3.org/1999/xlink">
<g id="graph0" class="graph" transform="scale(1 1) rotate(0) translate(4 220.25)">
<title>%3</title>
<polygon fill="white" stroke="none" points="-4,4 -4,-220.25 238.213,-220.25 238.213,4 -4,4"/>
<!-- x -->
<g id="node1" class="node"><title>x</title>
<polygon fill="lightgray" stroke="black" points="20,-204.037 0,-204.037 0,-186.037 20,-186.037 20,-204.037"/>
<text text-anchor="middle" x="10" y="-192.837" font-family="Times New Roman,serif" font-size="9.00">x</text>
</g>
<!-- 1 -->
<g id="node6" class="node"><title>1</title>
<ellipse fill="white" stroke="black" cx="25" cy="-108.125" rx="14.7" ry="14.7"/>
<text text-anchor="middle" x="25" y="-105.925" font-family="Times New Roman,serif" font-size="9.00">1</text>
</g>
<!-- x&#45;&gt;1 -->
<g id="edge4" class="edge"><title>x&#45;&gt;1</title>
<path fill="none" stroke="red" stroke-width="0.398093" d="M11.4383,-185.895C13.5636,-173.864 17.6288,-150.852 20.7564,-133.147"/>
<polygon fill="red" stroke="red" stroke-width="0.398093" points="24.2638,-133.411 22.5569,-122.955 17.3705,-132.194 24.2638,-133.411"/>
</g>
<!-- dx -->
<g id="node2" class="node"><title>dx</title>
<polygon fill="lightgray" stroke="black" points="116.5,-204.037 91.5,-204.037 91.5,-186.037 116.5,-186.037 116.5,-204.037"/>
<text text-anchor="middle" x="104" y="-192.837" font-family="Times New Roman,serif" font-size="9.00">dx</text>
</g>
<!-- control -->
<g id="node5" class="node"><title>control</title>
<ellipse fill="lightblue" stroke="black" cx="129" cy="-108.125" rx="29.8983" ry="29.8983"/>
<text text-anchor="middle" x="129" y="-105.925" font-family="Times New Roman,serif" font-size="9.00">control</text>
</g>
<!-- dx&#45;&gt;control -->
<g id="edge6" class="edge"><title>dx&#45;&gt;control</title>
<path fill="none" stroke="green" stroke-width="0.255367" d="M106.397,-185.895C109.078,-176.789 113.611,-161.392 117.917,-146.768"/>
<polygon fill="green" stroke="green" stroke-width="0.255367" points="121.369,-147.434 120.836,-136.853 114.654,-145.457 121.369,-147.434"/>
</g>
<!-- theta -->
<g id="node3" class="node"><title>theta</title>
<polygon fill="lightgray" stroke="black" points="73.5,-204.037 38.5,-204.037 38.5,-186.037 73.5,-186.037 73.5,-204.037"/>
<text text-anchor="middle" x="56" y="-192.837" font-family="Times New Roman,serif" font-size="9.00">theta</text>
</g>
<!-- theta&#45;&gt;control -->
<g id="edge1" class="edge"><title>theta&#45;&gt;control</title>
<path fill="none" stroke="green" stroke-width="0.609319" d="M62.9995,-185.895C72.1999,-175.193 88.8693,-155.804 103.153,-139.189"/>
<polygon fill="green" stroke="green" stroke-width="0.609319" points="106.065,-141.171 109.93,-131.306 100.757,-136.607 106.065,-141.171"/>
</g>
<!-- theta&#45;&gt;1 -->
<g id="edge2" class="edge"><title>theta&#45;&gt;1</title>
<path fill="none" stroke="red" stroke-width="0.185683" d="M53.0276,-185.895C48.5221,-173.554 39.7987,-149.66 33.275,-131.791"/>
<polygon fill="red" stroke="red" stroke-width="0.185683" points="36.5445,-130.54 29.8273,-122.347 29.969,-132.941 36.5445,-130.54"/>
</g>
<!-- dtheta -->
<g id="node4" class="node"><title>dtheta</title>
<polygon fill="lightgray" stroke="black" points="173.5,-204.037 134.5,-204.037 134.5,-186.037 173.5,-186.037 173.5,-204.037"/>
<text text-anchor="middle" x="154" y="-192.837" font-family="Times New Roman,serif" font-size="9.00">dtheta</text>
</g>
<!-- dtheta&#45;&gt;control -->
<g id="edge3" class="edge"><title>dtheta&#45;&gt;control</title>
<path fill="none" stroke="green" stroke-width="0.417165" d="M151.603,-185.895C148.922,-176.789 144.389,-161.392 140.083,-146.768"/>
<polygon fill="green" stroke="green" stroke-width="0.417165" points="143.346,-145.457 137.164,-136.853 136.631,-147.434 143.346,-145.457"/>
</g>
<!-- 273 -->
<g id="node8" class="node"><title>273</title>
<ellipse fill="white" stroke="black" cx="25" cy="-21.2132" rx="21.4286" ry="21.4286"/>
<text text-anchor="middle" x="25" y="-19.0132" font-family="Times New Roman,serif" font-size="9.00">273</text>
</g>
<!-- 1&#45;&gt;273 -->
<g id="edge5" class="edge"><title>1&#45;&gt;273</title>
<path fill="none" stroke="green" stroke-width="0.381923" d="M25,-93.1035C25,-82.1429 25,-66.5031 25,-52.7009"/>
<polygon fill="green" stroke="green" stroke-width="0.381923" points="28.5001,-52.6124 25,-42.6124 21.5001,-52.6125 28.5001,-52.6124"/>
</g>
<!-- 667 -->
<g id="node7" class="node"><title>667</title>
<ellipse fill="white" stroke="black" cx="213" cy="-195.037" rx="21.4286" ry="21.4286"/>
<text text-anchor="middle" x="213" y="-192.837" font-family="Times New Roman,serif" font-size="9.00">667</text>
</g>
<!-- 667&#45;&gt;control -->
<g id="edge7" class="edge"><title>667&#45;&gt;control</title>
<path fill="none" stroke="red" stroke-width="0.155174" d="M198.368,-179.246C186.84,-167.593 170.44,-151.015 156.48,-136.903"/>
<polygon fill="red" stroke="red" stroke-width="0.155174" points="158.962,-134.436 149.441,-129.788 153.986,-139.359 158.962,-134.436"/>
</g>
</g>
</svg>
