<?xml version="1.0" encoding="UTF-8" standalone="no"?>
<!DOCTYPE svg PUBLIC "-//W3C//DTD SVG 1.1//EN"
 "http://www.w3.org/Graphics/SVG/1.1/DTD/svg11.dtd">
<!-- Generated by graphviz version 2.38.0 (20140413.2041)
 -->
<!-- Title: %3 Pages: 1 -->
<svg width="165pt" height="278pt"
 viewBox="0.00 0.00 164.71 278.25" xmlns="http://www.w3.org/2000/svg" xmlns:xlink="http://www.w3.org/1999/xlink">
<g id="graph0" class="graph" transform="scale(1 1) rotate(0) translate(4 274.25)">
<title>%3</title>
<polygon fill="white" stroke="none" points="-4,4 -4,-274.25 160.713,-274.25 160.713,4 -4,4"/>
<!-- x -->
<g id="node1" class="node"><title>x</title>
<polygon fill="lightgray" stroke="black" points="104.5,-270.25 84.5,-270.25 84.5,-252.25 104.5,-252.25 104.5,-270.25"/>
<text text-anchor="middle" x="94.5" y="-259.05" font-family="Times New Roman,serif" font-size="9.00">x</text>
</g>
<!-- dx -->
<g id="node2" class="node"><title>dx</title>
<polygon fill="lightgray" stroke="black" points="148,-270.25 123,-270.25 123,-252.25 148,-252.25 148,-270.25"/>
<text text-anchor="middle" x="135.5" y="-259.05" font-family="Times New Roman,serif" font-size="9.00">dx</text>
</g>
<!-- 496 -->
<g id="node6" class="node"><title>496</title>
<ellipse fill="white" stroke="black" cx="135.5" cy="-195.037" rx="21.4286" ry="21.4286"/>
<text text-anchor="middle" x="135.5" y="-192.837" font-family="Times New Roman,serif" font-size="9.00">496</text>
</g>
<!-- dx&#45;&gt;496 -->
<g id="edge7" class="edge"><title>dx&#45;&gt;496</title>
<path fill="none" stroke="red" stroke-width="0.143622" d="M135.5,-252.117C135.5,-245.574 135.5,-235.945 135.5,-226.506"/>
<polygon fill="red" stroke="red" stroke-width="0.143622" points="139,-226.492 135.5,-216.492 132,-226.492 139,-226.492"/>
</g>
<!-- theta -->
<g id="node3" class="node"><title>theta</title>
<polygon fill="lightgray" stroke="black" points="35,-204.037 0,-204.037 0,-186.037 35,-186.037 35,-204.037"/>
<text text-anchor="middle" x="17.5" y="-192.837" font-family="Times New Roman,serif" font-size="9.00">theta</text>
</g>
<!-- control -->
<g id="node5" class="node"><title>control</title>
<ellipse fill="lightblue" stroke="black" cx="67.5" cy="-108.125" rx="29.8983" ry="29.8983"/>
<text text-anchor="middle" x="67.5" y="-105.925" font-family="Times New Roman,serif" font-size="9.00">control</text>
</g>
<!-- theta&#45;&gt;control -->
<g id="edge3" class="edge"><title>theta&#45;&gt;control</title>
<path fill="none" stroke="green" stroke-width="1.25363" d="M22.2942,-185.895C28.097,-176.04 38.2379,-158.819 47.4462,-143.181"/>
<polygon fill="green" stroke="green" stroke-width="1.25363" points="50.6621,-144.617 52.7203,-134.224 44.6302,-141.065 50.6621,-144.617"/>
</g>
<!-- dtheta -->
<g id="node4" class="node"><title>dtheta</title>
<polygon fill="lightgray" stroke="black" points="92,-204.037 53,-204.037 53,-186.037 92,-186.037 92,-204.037"/>
<text text-anchor="middle" x="72.5" y="-192.837" font-family="Times New Roman,serif" font-size="9.00">dtheta</text>
</g>
<!-- dtheta&#45;&gt;control -->
<g id="edge2" class="edge"><title>dtheta&#45;&gt;control</title>
<path fill="none" stroke="green" stroke-width="0.416417" d="M72.0206,-185.895C71.5013,-177.077 70.6347,-162.36 69.7984,-148.157"/>
<polygon fill="green" stroke="green" stroke-width="0.416417" points="73.2821,-147.775 69.2002,-137.998 66.2942,-148.186 73.2821,-147.775"/>
</g>
<!-- control&#45;&gt;control -->
<g id="edge1" class="edge"><title>control&#45;&gt;control</title>
<path fill="none" stroke="green" stroke-width="0.498475" stroke-dasharray="1,5" d="M93.018,-123.931C104.856,-125.655 115.198,-120.387 115.198,-108.125 115.198,-99.695 110.31,-94.5703 103.408,-92.751"/>
<polygon fill="green" stroke="green" stroke-width="0.498475" points="103.155,-89.2375 93.018,-92.3188 102.864,-96.2315 103.155,-89.2375"/>
</g>
<!-- 676 -->
<g id="node7" class="node"><title>676</title>
<ellipse fill="white" stroke="black" cx="105.5" cy="-21.2132" rx="21.4286" ry="21.4286"/>
<text text-anchor="middle" x="105.5" y="-19.0132" font-family="Times New Roman,serif" font-size="9.00">676</text>
</g>
<!-- control&#45;&gt;676 -->
<g id="edge5" class="edge"><title>control&#45;&gt;676</title>
<path fill="none" stroke="green" stroke-width="0.798464" stroke-dasharray="1,5" d="M79.3151,-80.7238C83.6617,-71.0114 88.5965,-59.9844 93.0013,-50.1419"/>
<polygon fill="green" stroke="green" stroke-width="0.798464" points="96.2977,-51.3441 97.1879,-40.7868 89.9083,-48.4847 96.2977,-51.3441"/>
</g>
<!-- 496&#45;&gt;control -->
<g id="edge4" class="edge"><title>496&#45;&gt;control</title>
<path fill="none" stroke="red" stroke-width="0.821212" d="M122.71,-178.065C114.044,-167.244 102.317,-152.601 91.9,-139.593"/>
<polygon fill="red" stroke="red" stroke-width="0.821212" points="94.6052,-137.372 85.6223,-131.754 89.1413,-141.748 94.6052,-137.372"/>
</g>
<!-- 676&#45;&gt;496 -->
<g id="edge6" class="edge"><title>676&#45;&gt;496</title>
<path fill="none" stroke="red" stroke-width="0.316543" d="M113.125,-41.1583C117.144,-51.9167 121.789,-65.7326 124.5,-78.4264 130.598,-106.981 133.317,-140.226 134.528,-163.717"/>
<polygon fill="red" stroke="red" stroke-width="0.316543" points="131.035,-163.941 134.986,-173.772 138.028,-163.623 131.035,-163.941"/>
</g>
</g>
</svg>
