<?xml version="1.0" encoding="UTF-8" standalone="no"?>
<!DOCTYPE svg PUBLIC "-//W3C//DTD SVG 1.1//EN"
 "http://www.w3.org/Graphics/SVG/1.1/DTD/svg11.dtd">
<!-- Generated by graphviz version 2.38.0 (20140413.2041)
 -->
<!-- Title: %3 Pages: 1 -->
<svg width="138pt" height="301pt"
 viewBox="0.00 0.00 138.00 300.88" xmlns="http://www.w3.org/2000/svg" xmlns:xlink="http://www.w3.org/1999/xlink">
<g id="graph0" class="graph" transform="scale(1 1) rotate(0) translate(4 296.877)">
<title>%3</title>
<polygon fill="white" stroke="none" points="-4,4 -4,-296.877 134,-296.877 134,4 -4,4"/>
<!-- A -->
<g id="node1" class="node"><title>A</title>
<polygon fill="lightgray" stroke="black" points="23,-292.877 0,-292.877 0,-274.877 23,-274.877 23,-292.877"/>
<text text-anchor="middle" x="11.5" y="-281.677" font-family="Times New Roman,serif" font-size="9.00">A</text>
</g>
<!-- A XOR B -->
<g id="node3" class="node"><title>A XOR B</title>
<ellipse fill="lightblue" stroke="black" cx="64.5" cy="-37.4767" rx="37.4533" ry="37.4533"/>
<text text-anchor="middle" x="64.5" y="-35.2767" font-family="Times New Roman,serif" font-size="9.00">A XOR B</text>
</g>
<!-- A&#45;&gt;A XOR B -->
<g id="edge5" class="edge"><title>A&#45;&gt;A XOR B</title>
<path fill="none" stroke="red" stroke-width="0.309086" d="M11.1724,-274.822C10.6401,-258.571 10.0531,-220.735 14.5,-189.38 19.5511,-153.764 23.1478,-145.087 34.5,-110.953 37.7233,-101.262 41.6328,-91.028 45.5499,-81.4018"/>
<polygon fill="red" stroke="red" stroke-width="0.309086" points="48.8427,-82.5983 49.4443,-72.0206 42.3776,-79.9144 48.8427,-82.5983"/>
</g>
<!-- 722 -->
<g id="node4" class="node"><title>722</title>
<ellipse fill="white" stroke="black" cx="64.5" cy="-132.167" rx="21.4286" ry="21.4286"/>
<text text-anchor="middle" x="64.5" y="-129.967" font-family="Times New Roman,serif" font-size="9.00">722</text>
</g>
<!-- A&#45;&gt;722 -->
<g id="edge4" class="edge"><title>A&#45;&gt;722</title>
<path fill="none" stroke="green" stroke-width="0.620421" stroke-dasharray="1,5" d="M12.1961,-274.861C13.8278,-258.362 18.6926,-219.622 30.5,-189.38 34.6494,-178.752 40.7473,-167.847 46.6374,-158.504"/>
<polygon fill="green" stroke="green" stroke-width="0.620421" points="49.6002,-160.368 52.1506,-150.085 43.7441,-156.533 49.6002,-160.368"/>
</g>
<!-- 1148 -->
<g id="node5" class="node"><title>1148</title>
<ellipse fill="white" stroke="black" cx="64.5" cy="-214.128" rx="25" ry="25"/>
<text text-anchor="middle" x="64.5" y="-211.928" font-family="Times New Roman,serif" font-size="9.00">1148</text>
</g>
<!-- A&#45;&gt;1148 -->
<g id="edge6" class="edge"><title>A&#45;&gt;1148</title>
<path fill="none" stroke="green" stroke-width="0.335138" d="M17.7879,-274.839C24.1151,-266.752 34.2272,-253.826 43.4273,-242.065"/>
<polygon fill="green" stroke="green" stroke-width="0.335138" points="46.1884,-244.216 49.5933,-234.183 40.675,-239.903 46.1884,-244.216"/>
</g>
<!-- B -->
<g id="node2" class="node"><title>B</title>
<polygon fill="lightgray" stroke="black" points="130,-223.128 107,-223.128 107,-205.128 130,-205.128 130,-223.128"/>
<text text-anchor="middle" x="118.5" y="-211.928" font-family="Times New Roman,serif" font-size="9.00">B</text>
</g>
<!-- B&#45;&gt;A XOR B -->
<g id="edge1" class="edge"><title>B&#45;&gt;A XOR B</title>
<path fill="none" stroke="red" stroke-width="0.27344" d="M117.066,-205.059C113.869,-187.636 105.56,-145.295 94.5,-110.953 91.3689,-101.232 87.4975,-90.9854 83.5883,-81.3565"/>
<polygon fill="red" stroke="red" stroke-width="0.27344" points="86.7603,-79.8687 79.6926,-71.9758 80.2956,-82.5534 86.7603,-79.8687"/>
</g>
<!-- B&#45;&gt;722 -->
<g id="edge2" class="edge"><title>B&#45;&gt;722</title>
<path fill="none" stroke="green" stroke-width="0.781747" d="M112.924,-204.872C105.603,-194.031 92.4166,-174.505 81.6509,-158.563"/>
<polygon fill="green" stroke="green" stroke-width="0.781747" points="84.4688,-156.482 75.9716,-150.153 78.6677,-160.4 84.4688,-156.482"/>
</g>
<!-- 722&#45;&gt;A XOR B -->
<g id="edge3" class="edge"><title>722&#45;&gt;A XOR B</title>
<path fill="none" stroke="green" stroke-width="0.598507" d="M64.5,-110.596C64.5,-103 64.5,-94.0512 64.5,-85.0886"/>
<polygon fill="green" stroke="green" stroke-width="0.598507" points="68.0001,-85.0353 64.5,-75.0353 61.0001,-85.0353 68.0001,-85.0353"/>
</g>
<!-- 1148&#45;&gt;722 -->
<g id="edge7" class="edge"><title>1148&#45;&gt;722</title>
<path fill="none" stroke="green" stroke-width="0.898557" d="M64.5,-189.137C64.5,-181.18 64.5,-172.212 64.5,-163.823"/>
<polygon fill="green" stroke="green" stroke-width="0.898557" points="68.0001,-163.627 64.5,-153.627 61.0001,-163.627 68.0001,-163.627"/>
</g>
</g>
</svg>
