<?xml version="1.0" encoding="UTF-8" standalone="no"?>
<!DOCTYPE svg PUBLIC "-//W3C//DTD SVG 1.1//EN"
 "http://www.w3.org/Graphics/SVG/1.1/DTD/svg11.dtd">
<!-- Generated by graphviz version 2.38.0 (20140413.2041)
 -->
<!-- Title: %3 Pages: 1 -->
<svg width="210pt" height="121pt"
 viewBox="0.00 0.00 209.75 121.40" xmlns="http://www.w3.org/2000/svg" xmlns:xlink="http://www.w3.org/1999/xlink">
<g id="graph0" class="graph" transform="scale(1 1) rotate(0) translate(4 117.397)">
<title>%3</title>
<polygon fill="white" stroke="none" points="-4,4 -4,-117.397 205.749,-117.397 205.749,4 -4,4"/>
<!-- x -->
<g id="node1" class="node"><title>x</title>
<polygon fill="lightgray" stroke="black" points="20,-113.397 0,-113.397 0,-95.397 20,-95.397 20,-113.397"/>
<text text-anchor="middle" x="10" y="-102.197" font-family="Times New Roman,serif" font-size="9.00">x</text>
</g>
<!-- dx -->
<g id="node2" class="node"><title>dx</title>
<polygon fill="lightgray" stroke="black" points="178.5,-113.397 153.5,-113.397 153.5,-95.397 178.5,-95.397 178.5,-113.397"/>
<text text-anchor="middle" x="166" y="-102.197" font-family="Times New Roman,serif" font-size="9.00">dx</text>
</g>
<!-- control -->
<g id="node5" class="node"><title>control</title>
<ellipse fill="lightblue" stroke="black" cx="105" cy="-29.6985" rx="29.8983" ry="29.8983"/>
<text text-anchor="middle" x="105" y="-27.4985" font-family="Times New Roman,serif" font-size="9.00">control</text>
</g>
<!-- dx&#45;&gt;control -->
<g id="edge2" class="edge"><title>dx&#45;&gt;control</title>
<path fill="none" stroke="green" stroke-width="0.423165" d="M159.239,-95.3392C152.267,-87.0299 140.963,-73.5587 130.475,-61.0591"/>
<polygon fill="green" stroke="green" stroke-width="0.423165" points="132.863,-58.4602 123.754,-53.0494 127.501,-62.9597 132.863,-58.4602"/>
</g>
<!-- 1507 -->
<g id="node6" class="node"><title>1507</title>
<ellipse fill="none" stroke="black" cx="177" cy="-29.6985" rx="25" ry="25"/>
<text text-anchor="middle" x="177" y="-27.4985" font-family="Times New Roman,serif" font-size="9.00">1507</text>
</g>
<!-- dx&#45;&gt;1507 -->
<g id="edge4" class="edge"><title>dx&#45;&gt;1507</title>
<path fill="none" stroke="red" stroke-width="0.373084" d="M167.219,-95.3392C168.37,-87.7335 170.175,-75.803 171.923,-64.2514"/>
<polygon fill="red" stroke="red" stroke-width="0.373084" points="175.391,-64.7268 173.426,-54.3157 168.47,-63.6795 175.391,-64.7268"/>
</g>
<!-- theta -->
<g id="node3" class="node"><title>theta</title>
<polygon fill="lightgray" stroke="black" points="73.5,-113.397 38.5,-113.397 38.5,-95.397 73.5,-95.397 73.5,-113.397"/>
<text text-anchor="middle" x="56" y="-102.197" font-family="Times New Roman,serif" font-size="9.00">theta</text>
</g>
<!-- theta&#45;&gt;control -->
<g id="edge3" class="edge"><title>theta&#45;&gt;control</title>
<path fill="none" stroke="green" stroke-width="0.225431" d="M61.4311,-95.3392C66.7245,-87.4857 75.1259,-75.021 83.1449,-63.1236"/>
<polygon fill="green" stroke="green" stroke-width="0.225431" points="86.1796,-64.8834 88.8665,-54.6349 80.375,-60.9709 86.1796,-64.8834"/>
</g>
<!-- dtheta -->
<g id="node4" class="node"><title>dtheta</title>
<polygon fill="lightgray" stroke="black" points="130.5,-113.397 91.5,-113.397 91.5,-95.397 130.5,-95.397 130.5,-113.397"/>
<text text-anchor="middle" x="111" y="-102.197" font-family="Times New Roman,serif" font-size="9.00">dtheta</text>
</g>
<!-- dtheta&#45;&gt;control -->
<g id="edge1" class="edge"><title>dtheta&#45;&gt;control</title>
<path fill="none" stroke="green" stroke-width="0.858879" d="M110.335,-95.3392C109.805,-88.9188 109.021,-79.4165 108.216,-69.6619"/>
<polygon fill="green" stroke="green" stroke-width="0.858879" points="111.69,-69.202 107.379,-59.5238 104.714,-69.7779 111.69,-69.202"/>
</g>
</g>
</svg>
