<?xml version="1.0" encoding="utf-8" standalone="no"?>
<!DOCTYPE svg PUBLIC "-//W3C//DTD SVG 1.1//EN"
  "http://www.w3.org/Graphics/SVG/1.1/DTD/svg11.dtd">
<!-- Created with matplotlib (https://matplotlib.org/) -->
<svg height="345.6pt" version="1.1" viewBox="0 0 460.8 345.6" width="460.8pt" xmlns="http://www.w3.org/2000/svg" xmlns:xlink="http://www.w3.org/1999/xlink">
 <defs>
  <style type="text/css">
*{stroke-linecap:butt;stroke-linejoin:round;}
  </style>
 </defs>
 <g id="figure_1">
  <g id="patch_1">
   <path d="M 0 345.6 
L 460.8 345.6 
L 460.8 0 
L 0 0 
z
" style="fill:#ffffff;"/>
  </g>
  <g id="axes_1">
   <g id="patch_2">
    <path d="M 57.6 307.584 
L 414.72 307.584 
L 414.72 41.472 
L 57.6 41.472 
z
" style="fill:#ffffff;"/>
   </g>
   <g id="PolyCollection_1">
    <path clip-path="url(#p7582a1d7b2)" d="M 73.832727 250.709669 
L 73.832727 307.584 
L 92.930053 307.584 
L 112.02738 307.584 
L 131.124706 307.584 
L 150.222032 307.584 
L 169.319358 307.584 
L 188.416684 307.584 
L 207.514011 307.584 
L 226.611337 307.584 
L 245.708663 307.584 
L 264.805989 307.584 
L 283.903316 307.584 
L 303.000642 307.584 
L 322.097968 307.584 
L 341.195294 307.584 
L 360.29262 307.584 
L 379.389947 307.584 
L 398.487273 307.584 
L 398.487273 289.623685 
L 398.487273 289.623685 
L 379.389947 297.606047 
L 360.29262 300.599433 
L 341.195294 300.599433 
L 322.097968 300.599433 
L 303.000642 292.617071 
L 283.903316 290.62148 
L 264.805989 285.632504 
L 245.708663 272.661165 
L 226.611337 277.650142 
L 207.514011 283.636913 
L 188.416684 270.665575 
L 169.319358 264.678803 
L 150.222032 264.678803 
L 131.124706 265.676598 
L 112.02738 269.66778 
L 92.930053 293.614866 
L 73.832727 250.709669 
z
" style="fill:#1f77b4;"/>
   </g>
   <g id="PolyCollection_2">
    <path clip-path="url(#p7582a1d7b2)" d="M 73.832727 249.711874 
L 73.832727 250.709669 
L 92.930053 293.614866 
L 112.02738 269.66778 
L 131.124706 265.676598 
L 150.222032 264.678803 
L 169.319358 264.678803 
L 188.416684 270.665575 
L 207.514011 283.636913 
L 226.611337 277.650142 
L 245.708663 272.661165 
L 264.805989 285.632504 
L 283.903316 290.62148 
L 303.000642 292.617071 
L 322.097968 300.599433 
L 341.195294 300.599433 
L 360.29262 300.599433 
L 379.389947 297.606047 
L 398.487273 289.623685 
L 398.487273 287.628094 
L 398.487273 287.628094 
L 379.389947 295.610457 
L 360.29262 298.603843 
L 341.195294 297.606047 
L 322.097968 298.603843 
L 303.000642 289.623685 
L 283.903316 287.628094 
L 264.805989 283.636913 
L 245.708663 270.665575 
L 226.611337 275.654551 
L 207.514011 281.641323 
L 188.416684 267.672189 
L 169.319358 260.687622 
L 150.222032 260.687622 
L 131.124706 261.685417 
L 112.02738 264.678803 
L 92.930053 290.62148 
L 73.832727 249.711874 
z
" style="fill:#ff7f0e;"/>
   </g>
   <g id="PolyCollection_3">
    <path clip-path="url(#p7582a1d7b2)" d="M 73.832727 187.848567 
L 73.832727 249.711874 
L 92.930053 290.62148 
L 112.02738 264.678803 
L 131.124706 261.685417 
L 150.222032 260.687622 
L 169.319358 260.687622 
L 188.416684 267.672189 
L 207.514011 281.641323 
L 226.611337 275.654551 
L 245.708663 270.665575 
L 264.805989 283.636913 
L 283.903316 287.628094 
L 303.000642 289.623685 
L 322.097968 298.603843 
L 341.195294 297.606047 
L 360.29262 298.603843 
L 379.389947 295.610457 
L 398.487273 287.628094 
L 398.487273 274.656756 
L 398.487273 274.656756 
L 379.389947 262.683213 
L 360.29262 278.647937 
L 341.195294 256.696441 
L 322.097968 248.714079 
L 303.000642 271.66337 
L 283.903316 268.669984 
L 264.805989 261.685417 
L 245.708663 258.692031 
L 226.611337 239.733921 
L 207.514011 267.672189 
L 188.416684 231.751559 
L 169.319358 239.733921 
L 150.222032 252.70526 
L 131.124706 257.694236 
L 112.02738 249.711874 
L 92.930053 271.66337 
L 73.832727 187.848567 
z
" style="fill:#2ca02c;"/>
   </g>
   <g id="PolyCollection_4">
    <path clip-path="url(#p7582a1d7b2)" d="M 73.832727 150.930142 
L 73.832727 187.848567 
L 92.930053 271.66337 
L 112.02738 249.711874 
L 131.124706 257.694236 
L 150.222032 252.70526 
L 169.319358 239.733921 
L 188.416684 231.751559 
L 207.514011 267.672189 
L 226.611337 239.733921 
L 245.708663 258.692031 
L 264.805989 261.685417 
L 283.903316 268.669984 
L 303.000642 271.66337 
L 322.097968 248.714079 
L 341.195294 256.696441 
L 360.29262 278.647937 
L 379.389947 262.683213 
L 398.487273 274.656756 
L 398.487273 264.678803 
L 398.487273 264.678803 
L 379.389947 249.711874 
L 360.29262 269.66778 
L 341.195294 238.736126 
L 322.097968 231.751559 
L 303.000642 261.685417 
L 283.903316 252.70526 
L 264.805989 243.725102 
L 245.708663 240.731717 
L 226.611337 210.797858 
L 207.514011 249.711874 
L 188.416684 206.806677 
L 169.319358 211.795654 
L 150.222032 234.744945 
L 131.124706 245.720693 
L 112.02738 234.744945 
L 92.930053 261.685417 
L 73.832727 150.930142 
z
" style="fill:#d62728;"/>
   </g>
   <g id="PolyCollection_5">
    <path clip-path="url(#p7582a1d7b2)" d="M 73.832727 147.936756 
L 73.832727 150.930142 
L 92.930053 261.685417 
L 112.02738 234.744945 
L 131.124706 245.720693 
L 150.222032 234.744945 
L 169.319358 211.795654 
L 188.416684 206.806677 
L 207.514011 249.711874 
L 226.611337 210.797858 
L 245.708663 240.731717 
L 264.805989 243.725102 
L 283.903316 252.70526 
L 303.000642 261.685417 
L 322.097968 231.751559 
L 341.195294 238.736126 
L 360.29262 269.66778 
L 379.389947 249.711874 
L 398.487273 264.678803 
L 398.487273 262.683213 
L 398.487273 262.683213 
L 379.389947 246.718488 
L 360.29262 267.672189 
L 341.195294 236.740535 
L 322.097968 229.755969 
L 303.000642 258.692031 
L 283.903316 250.709669 
L 264.805989 240.731717 
L 245.708663 238.736126 
L 226.611337 207.804472 
L 207.514011 245.720693 
L 188.416684 203.813291 
L 169.319358 209.800063 
L 150.222032 231.751559 
L 131.124706 240.731717 
L 112.02738 228.758173 
L 92.930053 256.696441 
L 73.832727 147.936756 
z
" style="fill:#9467bd;"/>
   </g>
   <g id="PolyCollection_6">
    <path clip-path="url(#p7582a1d7b2)" d="M 73.832727 135.963213 
L 73.832727 147.936756 
L 92.930053 256.696441 
L 112.02738 228.758173 
L 131.124706 240.731717 
L 150.222032 231.751559 
L 169.319358 209.800063 
L 188.416684 203.813291 
L 207.514011 245.720693 
L 226.611337 207.804472 
L 245.708663 238.736126 
L 264.805989 240.731717 
L 283.903316 250.709669 
L 303.000642 258.692031 
L 322.097968 229.755969 
L 341.195294 236.740535 
L 360.29262 267.672189 
L 379.389947 246.718488 
L 398.487273 262.683213 
L 398.487273 253.703055 
L 398.487273 253.703055 
L 379.389947 235.74274 
L 360.29262 261.685417 
L 341.195294 206.806677 
L 322.097968 213.791244 
L 303.000642 224.766992 
L 283.903316 225.764787 
L 264.805989 223.769197 
L 245.708663 231.751559 
L 226.611337 202.815496 
L 207.514011 241.729512 
L 188.416684 200.819906 
L 169.319358 208.802268 
L 150.222032 225.764787 
L 131.124706 237.738331 
L 112.02738 211.795654 
L 92.930053 245.720693 
L 73.832727 135.963213 
z
" style="fill:#8c564b;"/>
   </g>
   <g id="PolyCollection_7">
    <path clip-path="url(#p7582a1d7b2)" d="M 73.832727 113.013921 
L 73.832727 135.963213 
L 92.930053 245.720693 
L 112.02738 211.795654 
L 131.124706 237.738331 
L 150.222032 225.764787 
L 169.319358 208.802268 
L 188.416684 200.819906 
L 207.514011 241.729512 
L 226.611337 202.815496 
L 245.708663 231.751559 
L 264.805989 223.769197 
L 283.903316 225.764787 
L 303.000642 224.766992 
L 322.097968 213.791244 
L 341.195294 206.806677 
L 360.29262 261.685417 
L 379.389947 235.74274 
L 398.487273 253.703055 
L 398.487273 232.749354 
L 398.487273 232.749354 
L 379.389947 230.753764 
L 360.29262 250.709669 
L 341.195294 198.824315 
L 322.097968 205.808882 
L 303.000642 203.813291 
L 283.903316 205.808882 
L 264.805989 206.806677 
L 245.708663 204.811087 
L 226.611337 178.868409 
L 207.514011 215.786835 
L 188.416684 192.837543 
L 169.319358 193.835339 
L 150.222032 211.795654 
L 131.124706 229.755969 
L 112.02738 197.82652 
L 92.930053 216.78463 
L 73.832727 113.013921 
z
" style="fill:#e377c2;"/>
   </g>
   <g id="PolyCollection_8">
    <path clip-path="url(#p7582a1d7b2)" d="M 73.832727 112.016126 
L 73.832727 113.013921 
L 92.930053 216.78463 
L 112.02738 197.82652 
L 131.124706 229.755969 
L 150.222032 211.795654 
L 169.319358 193.835339 
L 188.416684 192.837543 
L 207.514011 215.786835 
L 226.611337 178.868409 
L 245.708663 204.811087 
L 264.805989 206.806677 
L 283.903316 205.808882 
L 303.000642 203.813291 
L 322.097968 205.808882 
L 341.195294 198.824315 
L 360.29262 250.709669 
L 379.389947 230.753764 
L 398.487273 232.749354 
L 398.487273 230.753764 
L 398.487273 230.753764 
L 379.389947 228.758173 
L 360.29262 247.716283 
L 341.195294 196.828724 
L 322.097968 202.815496 
L 303.000642 198.824315 
L 283.903316 202.815496 
L 264.805989 202.815496 
L 245.708663 201.817701 
L 226.611337 176.872819 
L 207.514011 213.791244 
L 188.416684 190.841953 
L 169.319358 190.841953 
L 150.222032 207.804472 
L 131.124706 224.766992 
L 112.02738 193.835339 
L 92.930053 213.791244 
L 73.832727 112.016126 
z
" style="fill:#7f7f7f;"/>
   </g>
   <g id="PolyCollection_9">
    <path clip-path="url(#p7582a1d7b2)" d="M 73.832727 111.018331 
L 73.832727 112.016126 
L 92.930053 213.791244 
L 112.02738 193.835339 
L 131.124706 224.766992 
L 150.222032 207.804472 
L 169.319358 190.841953 
L 188.416684 190.841953 
L 207.514011 213.791244 
L 226.611337 176.872819 
L 245.708663 201.817701 
L 264.805989 202.815496 
L 283.903316 202.815496 
L 303.000642 198.824315 
L 322.097968 202.815496 
L 341.195294 196.828724 
L 360.29262 247.716283 
L 379.389947 228.758173 
L 398.487273 230.753764 
L 398.487273 226.762583 
L 398.487273 226.762583 
L 379.389947 225.764787 
L 360.29262 245.720693 
L 341.195294 194.833134 
L 322.097968 200.819906 
L 303.000642 196.828724 
L 283.903316 200.819906 
L 264.805989 198.824315 
L 245.708663 198.824315 
L 226.611337 174.877228 
L 207.514011 211.795654 
L 188.416684 188.846362 
L 169.319358 188.846362 
L 150.222032 204.811087 
L 131.124706 222.771402 
L 112.02738 190.841953 
L 92.930053 211.795654 
L 73.832727 111.018331 
z
" style="fill:#bcbd22;"/>
   </g>
   <g id="PolyCollection_10">
    <path clip-path="url(#p7582a1d7b2)" d="M 73.832727 110.020535 
L 73.832727 111.018331 
L 92.930053 211.795654 
L 112.02738 190.841953 
L 131.124706 222.771402 
L 150.222032 204.811087 
L 169.319358 188.846362 
L 188.416684 188.846362 
L 207.514011 211.795654 
L 226.611337 174.877228 
L 245.708663 198.824315 
L 264.805989 198.824315 
L 283.903316 200.819906 
L 303.000642 196.828724 
L 322.097968 200.819906 
L 341.195294 194.833134 
L 360.29262 245.720693 
L 379.389947 225.764787 
L 398.487273 226.762583 
L 398.487273 211.795654 
L 398.487273 211.795654 
L 379.389947 209.800063 
L 360.29262 232.749354 
L 341.195294 180.864 
L 322.097968 189.844157 
L 303.000642 183.857386 
L 283.903316 184.855181 
L 264.805989 181.861795 
L 245.708663 186.850772 
L 226.611337 163.90148 
L 207.514011 207.804472 
L 188.416684 183.857386 
L 169.319358 184.855181 
L 150.222032 201.817701 
L 131.124706 217.782425 
L 112.02738 184.855181 
L 92.930053 205.808882 
L 73.832727 110.020535 
z
" style="fill:#17becf;"/>
   </g>
   <g id="PolyCollection_11">
    <path clip-path="url(#p7582a1d7b2)" d="M 73.832727 108.024945 
L 73.832727 110.020535 
L 92.930053 205.808882 
L 112.02738 184.855181 
L 131.124706 217.782425 
L 150.222032 201.817701 
L 169.319358 184.855181 
L 188.416684 183.857386 
L 207.514011 207.804472 
L 226.611337 163.90148 
L 245.708663 186.850772 
L 264.805989 181.861795 
L 283.903316 184.855181 
L 303.000642 183.857386 
L 322.097968 189.844157 
L 341.195294 180.864 
L 360.29262 232.749354 
L 379.389947 209.800063 
L 398.487273 211.795654 
L 398.487273 201.817701 
L 398.487273 201.817701 
L 379.389947 201.817701 
L 360.29262 226.762583 
L 341.195294 172.881638 
L 322.097968 179.866205 
L 303.000642 174.877228 
L 283.903316 174.877228 
L 264.805989 172.881638 
L 245.708663 176.872819 
L 226.611337 153.923528 
L 207.514011 192.837543 
L 188.416684 169.888252 
L 169.319358 177.870614 
L 150.222032 195.830929 
L 131.124706 214.789039 
L 112.02738 179.866205 
L 92.930053 200.819906 
L 73.832727 108.024945 
z
" style="fill:#1f77b4;"/>
   </g>
   <g id="PolyCollection_12">
    <path clip-path="url(#p7582a1d7b2)" d="M 73.832727 105.031559 
L 73.832727 108.024945 
L 92.930053 200.819906 
L 112.02738 179.866205 
L 131.124706 214.789039 
L 150.222032 195.830929 
L 169.319358 177.870614 
L 188.416684 169.888252 
L 207.514011 192.837543 
L 226.611337 153.923528 
L 245.708663 176.872819 
L 264.805989 172.881638 
L 283.903316 174.877228 
L 303.000642 174.877228 
L 322.097968 179.866205 
L 341.195294 172.881638 
L 360.29262 226.762583 
L 379.389947 201.817701 
L 398.487273 201.817701 
L 398.487273 199.82211 
L 398.487273 199.82211 
L 379.389947 199.82211 
L 360.29262 224.766992 
L 341.195294 169.888252 
L 322.097968 175.875024 
L 303.000642 171.883843 
L 283.903316 172.881638 
L 264.805989 170.886047 
L 245.708663 173.879433 
L 226.611337 149.932346 
L 207.514011 189.844157 
L 188.416684 165.897071 
L 169.319358 174.877228 
L 150.222032 191.839748 
L 131.124706 211.795654 
L 112.02738 177.870614 
L 92.930053 199.82211 
L 73.832727 105.031559 
z
" style="fill:#ff7f0e;"/>
   </g>
   <g id="PolyCollection_13">
    <path clip-path="url(#p7582a1d7b2)" d="M 73.832727 100.042583 
L 73.832727 105.031559 
L 92.930053 199.82211 
L 112.02738 177.870614 
L 131.124706 211.795654 
L 150.222032 191.839748 
L 169.319358 174.877228 
L 188.416684 165.897071 
L 207.514011 189.844157 
L 226.611337 149.932346 
L 245.708663 173.879433 
L 264.805989 170.886047 
L 283.903316 172.881638 
L 303.000642 171.883843 
L 322.097968 175.875024 
L 341.195294 169.888252 
L 360.29262 224.766992 
L 379.389947 199.82211 
L 398.487273 199.82211 
L 398.487273 190.841953 
L 398.487273 190.841953 
L 379.389947 191.839748 
L 360.29262 214.789039 
L 341.195294 160.908094 
L 322.097968 167.892661 
L 303.000642 161.90589 
L 283.903316 162.903685 
L 264.805989 158.912504 
L 245.708663 156.916913 
L 226.611337 140.952189 
L 207.514011 172.881638 
L 188.416684 151.927937 
L 169.319358 157.914709 
L 150.222032 173.879433 
L 131.124706 189.844157 
L 112.02738 167.892661 
L 92.930053 190.841953 
L 73.832727 100.042583 
z
" style="fill:#2ca02c;"/>
   </g>
   <g id="PolyCollection_14">
    <path clip-path="url(#p7582a1d7b2)" d="M 73.832727 95.053606 
L 73.832727 100.042583 
L 92.930053 190.841953 
L 112.02738 167.892661 
L 131.124706 189.844157 
L 150.222032 173.879433 
L 169.319358 157.914709 
L 188.416684 151.927937 
L 207.514011 172.881638 
L 226.611337 140.952189 
L 245.708663 156.916913 
L 264.805989 158.912504 
L 283.903316 162.903685 
L 303.000642 161.90589 
L 322.097968 167.892661 
L 341.195294 160.908094 
L 360.29262 214.789039 
L 379.389947 191.839748 
L 398.487273 190.841953 
L 398.487273 175.875024 
L 398.487273 175.875024 
L 379.389947 152.925732 
L 360.29262 198.824315 
L 341.195294 139.954394 
L 322.097968 131.972031 
L 303.000642 158.912504 
L 283.903316 160.908094 
L 264.805989 155.919118 
L 245.708663 153.923528 
L 226.611337 137.958803 
L 207.514011 170.886047 
L 188.416684 147.936756 
L 169.319358 153.923528 
L 150.222032 170.886047 
L 131.124706 185.852976 
L 112.02738 161.90589 
L 92.930053 185.852976 
L 73.832727 95.053606 
z
" style="fill:#d62728;"/>
   </g>
   <g id="PolyCollection_15">
    <path clip-path="url(#p7582a1d7b2)" d="M 73.832727 87.071244 
L 73.832727 95.053606 
L 92.930053 185.852976 
L 112.02738 161.90589 
L 131.124706 185.852976 
L 150.222032 170.886047 
L 169.319358 153.923528 
L 188.416684 147.936756 
L 207.514011 170.886047 
L 226.611337 137.958803 
L 245.708663 153.923528 
L 264.805989 155.919118 
L 283.903316 160.908094 
L 303.000642 158.912504 
L 322.097968 131.972031 
L 341.195294 139.954394 
L 360.29262 198.824315 
L 379.389947 152.925732 
L 398.487273 175.875024 
L 398.487273 158.912504 
L 398.487273 158.912504 
L 379.389947 138.956598 
L 360.29262 159.910299 
L 341.195294 104.033764 
L 322.097968 110.020535 
L 303.000642 133.967622 
L 283.903316 138.956598 
L 264.805989 145.941165 
L 245.708663 138.956598 
L 226.611337 130.974236 
L 207.514011 166.894866 
L 188.416684 142.94778 
L 169.319358 149.932346 
L 150.222032 157.914709 
L 131.124706 170.886047 
L 112.02738 138.956598 
L 92.930053 145.941165 
L 73.832727 87.071244 
z
" style="fill:#9467bd;"/>
   </g>
   <g id="PolyCollection_16">
    <path clip-path="url(#p7582a1d7b2)" d="M 73.832727 86.073449 
L 73.832727 87.071244 
L 92.930053 145.941165 
L 112.02738 138.956598 
L 131.124706 170.886047 
L 150.222032 157.914709 
L 169.319358 149.932346 
L 188.416684 142.94778 
L 207.514011 166.894866 
L 226.611337 130.974236 
L 245.708663 138.956598 
L 264.805989 145.941165 
L 283.903316 138.956598 
L 303.000642 133.967622 
L 322.097968 110.020535 
L 341.195294 104.033764 
L 360.29262 159.910299 
L 379.389947 138.956598 
L 398.487273 158.912504 
L 398.487273 156.916913 
L 398.487273 156.916913 
L 379.389947 136.961008 
L 360.29262 156.916913 
L 341.195294 102.038173 
L 322.097968 107.02715 
L 303.000642 131.972031 
L 283.903316 135.963213 
L 264.805989 141.949984 
L 245.708663 135.963213 
L 226.611337 126.983055 
L 207.514011 161.90589 
L 188.416684 138.956598 
L 169.319358 146.938961 
L 150.222032 153.923528 
L 131.124706 167.892661 
L 112.02738 135.963213 
L 92.930053 142.94778 
L 73.832727 86.073449 
z
" style="fill:#8c564b;"/>
   </g>
   <g id="PolyCollection_17">
    <path clip-path="url(#p7582a1d7b2)" d="M 73.832727 73.10211 
L 73.832727 86.073449 
L 92.930053 142.94778 
L 112.02738 135.963213 
L 131.124706 167.892661 
L 150.222032 153.923528 
L 169.319358 146.938961 
L 188.416684 138.956598 
L 207.514011 161.90589 
L 226.611337 126.983055 
L 245.708663 135.963213 
L 264.805989 141.949984 
L 283.903316 135.963213 
L 303.000642 131.972031 
L 322.097968 107.02715 
L 341.195294 102.038173 
L 360.29262 156.916913 
L 379.389947 136.961008 
L 398.487273 156.916913 
L 398.487273 155.919118 
L 398.487273 155.919118 
L 379.389947 128.978646 
L 360.29262 148.934551 
L 341.195294 85.075654 
L 322.097968 92.06022 
L 303.000642 129.976441 
L 283.903316 109.02274 
L 264.805989 121.994079 
L 245.708663 119.000693 
L 226.611337 115.009512 
L 207.514011 142.94778 
L 188.416684 127.98085 
L 169.319358 122.991874 
L 150.222032 137.958803 
L 131.124706 142.94778 
L 112.02738 119.998488 
L 92.930053 121.994079 
L 73.832727 73.10211 
z
" style="fill:#e377c2;"/>
   </g>
   <g id="PolyCollection_18">
    <path clip-path="url(#p7582a1d7b2)" d="M 73.832727 69.110929 
L 73.832727 73.10211 
L 92.930053 121.994079 
L 112.02738 119.998488 
L 131.124706 142.94778 
L 150.222032 137.958803 
L 169.319358 122.991874 
L 188.416684 127.98085 
L 207.514011 142.94778 
L 226.611337 115.009512 
L 245.708663 119.000693 
L 264.805989 121.994079 
L 283.903316 109.02274 
L 303.000642 129.976441 
L 322.097968 92.06022 
L 341.195294 85.075654 
L 360.29262 148.934551 
L 379.389947 128.978646 
L 398.487273 155.919118 
L 398.487273 103.035969 
L 398.487273 103.035969 
L 379.389947 116.007307 
L 360.29262 136.961008 
L 341.195294 80.086677 
L 322.097968 89.066835 
L 303.000642 115.009512 
L 283.903316 93.058016 
L 264.805989 109.02274 
L 245.708663 107.02715 
L 226.611337 93.058016 
L 207.514011 121.994079 
L 188.416684 107.02715 
L 169.319358 90.06463 
L 150.222032 113.013921 
L 131.124706 119.000693 
L 112.02738 100.042583 
L 92.930053 107.02715 
L 73.832727 69.110929 
z
" style="fill:#7f7f7f;"/>
   </g>
   <g id="PolyCollection_19">
    <path clip-path="url(#p7582a1d7b2)" d="M 73.832727 65.119748 
L 73.832727 69.110929 
L 92.930053 107.02715 
L 112.02738 100.042583 
L 131.124706 119.000693 
L 150.222032 113.013921 
L 169.319358 90.06463 
L 188.416684 107.02715 
L 207.514011 121.994079 
L 226.611337 93.058016 
L 245.708663 107.02715 
L 264.805989 109.02274 
L 283.903316 93.058016 
L 303.000642 115.009512 
L 322.097968 89.066835 
L 341.195294 80.086677 
L 360.29262 136.961008 
L 379.389947 116.007307 
L 398.487273 103.035969 
L 398.487273 83.080063 
L 398.487273 83.080063 
L 379.389947 91.062425 
L 360.29262 91.062425 
L 341.195294 71.10652 
L 322.097968 79.088882 
L 303.000642 108.024945 
L 283.903316 83.080063 
L 264.805989 88.069039 
L 245.708663 90.06463 
L 226.611337 90.06463 
L 207.514011 92.06022 
L 188.416684 86.073449 
L 169.319358 83.080063 
L 150.222032 85.075654 
L 131.124706 84.077858 
L 112.02738 82.082268 
L 92.930053 87.071244 
L 73.832727 65.119748 
z
" style="fill:#bcbd22;"/>
   </g>
   <g id="PolyCollection_20">
    <path clip-path="url(#p7582a1d7b2)" d="M 73.832727 61.128567 
L 73.832727 65.119748 
L 92.930053 87.071244 
L 112.02738 82.082268 
L 131.124706 84.077858 
L 150.222032 85.075654 
L 169.319358 83.080063 
L 188.416684 86.073449 
L 207.514011 92.06022 
L 226.611337 90.06463 
L 245.708663 90.06463 
L 264.805989 88.069039 
L 283.903316 83.080063 
L 303.000642 108.024945 
L 322.097968 79.088882 
L 341.195294 71.10652 
L 360.29262 91.062425 
L 379.389947 91.062425 
L 398.487273 83.080063 
L 398.487273 59.132976 
L 398.487273 59.132976 
L 379.389947 65.119748 
L 360.29262 64.121953 
L 341.195294 62.126362 
L 322.097968 64.121953 
L 303.000642 67.115339 
L 283.903316 68.113134 
L 264.805989 69.110929 
L 245.708663 72.104315 
L 226.611337 69.110929 
L 207.514011 68.113134 
L 188.416684 67.115339 
L 169.319358 73.10211 
L 150.222032 71.10652 
L 131.124706 74.099906 
L 112.02738 68.113134 
L 92.930053 73.10211 
L 73.832727 61.128567 
z
" style="fill:#17becf;"/>
   </g>
   <g id="PolyCollection_21">
    <path clip-path="url(#p7582a1d7b2)" d="M 73.832727 60.130772 
L 73.832727 61.128567 
L 92.930053 73.10211 
L 112.02738 68.113134 
L 131.124706 74.099906 
L 150.222032 71.10652 
L 169.319358 73.10211 
L 188.416684 67.115339 
L 207.514011 68.113134 
L 226.611337 69.110929 
L 245.708663 72.104315 
L 264.805989 69.110929 
L 283.903316 68.113134 
L 303.000642 67.115339 
L 322.097968 64.121953 
L 341.195294 62.126362 
L 360.29262 64.121953 
L 379.389947 65.119748 
L 398.487273 59.132976 
L 398.487273 57.137386 
L 398.487273 57.137386 
L 379.389947 61.128567 
L 360.29262 61.128567 
L 341.195294 60.130772 
L 322.097968 62.126362 
L 303.000642 64.121953 
L 283.903316 66.117543 
L 264.805989 67.115339 
L 245.708663 69.110929 
L 226.611337 67.115339 
L 207.514011 65.119748 
L 188.416684 65.119748 
L 169.319358 70.108724 
L 150.222032 68.113134 
L 131.124706 69.110929 
L 112.02738 64.121953 
L 92.930053 67.115339 
L 73.832727 60.130772 
z
" style="fill:#1f77b4;"/>
   </g>
   <g id="PolyCollection_22">
    <path clip-path="url(#p7582a1d7b2)" d="M 73.832727 59.132976 
L 73.832727 60.130772 
L 92.930053 67.115339 
L 112.02738 64.121953 
L 131.124706 69.110929 
L 150.222032 68.113134 
L 169.319358 70.108724 
L 188.416684 65.119748 
L 207.514011 65.119748 
L 226.611337 67.115339 
L 245.708663 69.110929 
L 264.805989 67.115339 
L 283.903316 66.117543 
L 303.000642 64.121953 
L 322.097968 62.126362 
L 341.195294 60.130772 
L 360.29262 61.128567 
L 379.389947 61.128567 
L 398.487273 57.137386 
L 398.487273 55.141795 
L 398.487273 55.141795 
L 379.389947 58.135181 
L 360.29262 58.135181 
L 341.195294 58.135181 
L 322.097968 60.130772 
L 303.000642 60.130772 
L 283.903316 61.128567 
L 264.805989 61.128567 
L 245.708663 62.126362 
L 226.611337 58.135181 
L 207.514011 60.130772 
L 188.416684 60.130772 
L 169.319358 64.121953 
L 150.222032 61.128567 
L 131.124706 64.121953 
L 112.02738 61.128567 
L 92.930053 60.130772 
L 73.832727 59.132976 
z
" style="fill:#ff7f0e;"/>
   </g>
   <g id="PolyCollection_23">
    <path clip-path="url(#p7582a1d7b2)" d="M 73.832727 58.135181 
L 73.832727 59.132976 
L 92.930053 60.130772 
L 112.02738 61.128567 
L 131.124706 64.121953 
L 150.222032 61.128567 
L 169.319358 64.121953 
L 188.416684 60.130772 
L 207.514011 60.130772 
L 226.611337 58.135181 
L 245.708663 62.126362 
L 264.805989 61.128567 
L 283.903316 61.128567 
L 303.000642 60.130772 
L 322.097968 60.130772 
L 341.195294 58.135181 
L 360.29262 58.135181 
L 379.389947 58.135181 
L 398.487273 55.141795 
L 398.487273 54.144 
L 398.487273 54.144 
L 379.389947 55.141795 
L 360.29262 54.144 
L 341.195294 55.141795 
L 322.097968 57.137386 
L 303.000642 58.135181 
L 283.903316 59.132976 
L 264.805989 56.139591 
L 245.708663 57.137386 
L 226.611337 54.144 
L 207.514011 57.137386 
L 188.416684 58.135181 
L 169.319358 60.130772 
L 150.222032 57.137386 
L 131.124706 58.135181 
L 112.02738 56.139591 
L 92.930053 56.139591 
L 73.832727 58.135181 
z
" style="fill:#2ca02c;"/>
   </g>
   <g id="matplotlib.axis_1">
    <g id="xtick_1">
     <g id="line2d_1">
      <defs>
       <path d="M 0 0 
L 0 3.5 
" id="m0676aafa21" style="stroke:#000000;stroke-width:0.8;"/>
      </defs>
      <g>
       <use style="stroke:#000000;stroke-width:0.8;" x="73.832727" xlink:href="#m0676aafa21" y="307.584"/>
      </g>
     </g>
     <g id="text_1">
      <!-- 0.0 -->
      <defs>
       <path d="M 31.78125 66.40625 
Q 24.171875 66.40625 20.328125 58.90625 
Q 16.5 51.421875 16.5 36.375 
Q 16.5 21.390625 20.328125 13.890625 
Q 24.171875 6.390625 31.78125 6.390625 
Q 39.453125 6.390625 43.28125 13.890625 
Q 47.125 21.390625 47.125 36.375 
Q 47.125 51.421875 43.28125 58.90625 
Q 39.453125 66.40625 31.78125 66.40625 
z
M 31.78125 74.21875 
Q 44.046875 74.21875 50.515625 64.515625 
Q 56.984375 54.828125 56.984375 36.375 
Q 56.984375 17.96875 50.515625 8.265625 
Q 44.046875 -1.421875 31.78125 -1.421875 
Q 19.53125 -1.421875 13.0625 8.265625 
Q 6.59375 17.96875 6.59375 36.375 
Q 6.59375 54.828125 13.0625 64.515625 
Q 19.53125 74.21875 31.78125 74.21875 
z
" id="DejaVuSans-48"/>
       <path d="M 10.6875 12.40625 
L 21 12.40625 
L 21 0 
L 10.6875 0 
z
" id="DejaVuSans-46"/>
      </defs>
      <g transform="translate(65.881165 322.182437)scale(0.1 -0.1)">
       <use xlink:href="#DejaVuSans-48"/>
       <use x="63.623047" xlink:href="#DejaVuSans-46"/>
       <use x="95.410156" xlink:href="#DejaVuSans-48"/>
      </g>
     </g>
    </g>
    <g id="xtick_2">
     <g id="line2d_2">
      <g>
       <use style="stroke:#000000;stroke-width:0.8;" x="121.576043" xlink:href="#m0676aafa21" y="307.584"/>
      </g>
     </g>
     <g id="text_2">
      <!-- 2.5 -->
      <defs>
       <path d="M 19.1875 8.296875 
L 53.609375 8.296875 
L 53.609375 0 
L 7.328125 0 
L 7.328125 8.296875 
Q 12.9375 14.109375 22.625 23.890625 
Q 32.328125 33.6875 34.8125 36.53125 
Q 39.546875 41.84375 41.421875 45.53125 
Q 43.3125 49.21875 43.3125 52.78125 
Q 43.3125 58.59375 39.234375 62.25 
Q 35.15625 65.921875 28.609375 65.921875 
Q 23.96875 65.921875 18.8125 64.3125 
Q 13.671875 62.703125 7.8125 59.421875 
L 7.8125 69.390625 
Q 13.765625 71.78125 18.9375 73 
Q 24.125 74.21875 28.421875 74.21875 
Q 39.75 74.21875 46.484375 68.546875 
Q 53.21875 62.890625 53.21875 53.421875 
Q 53.21875 48.921875 51.53125 44.890625 
Q 49.859375 40.875 45.40625 35.40625 
Q 44.1875 33.984375 37.640625 27.21875 
Q 31.109375 20.453125 19.1875 8.296875 
z
" id="DejaVuSans-50"/>
       <path d="M 10.796875 72.90625 
L 49.515625 72.90625 
L 49.515625 64.59375 
L 19.828125 64.59375 
L 19.828125 46.734375 
Q 21.96875 47.46875 24.109375 47.828125 
Q 26.265625 48.1875 28.421875 48.1875 
Q 40.625 48.1875 47.75 41.5 
Q 54.890625 34.8125 54.890625 23.390625 
Q 54.890625 11.625 47.5625 5.09375 
Q 40.234375 -1.421875 26.90625 -1.421875 
Q 22.3125 -1.421875 17.546875 -0.640625 
Q 12.796875 0.140625 7.71875 1.703125 
L 7.71875 11.625 
Q 12.109375 9.234375 16.796875 8.0625 
Q 21.484375 6.890625 26.703125 6.890625 
Q 35.15625 6.890625 40.078125 11.328125 
Q 45.015625 15.765625 45.015625 23.390625 
Q 45.015625 31 40.078125 35.4375 
Q 35.15625 39.890625 26.703125 39.890625 
Q 22.75 39.890625 18.8125 39.015625 
Q 14.890625 38.140625 10.796875 36.28125 
z
" id="DejaVuSans-53"/>
      </defs>
      <g transform="translate(113.62448 322.182437)scale(0.1 -0.1)">
       <use xlink:href="#DejaVuSans-50"/>
       <use x="63.623047" xlink:href="#DejaVuSans-46"/>
       <use x="95.410156" xlink:href="#DejaVuSans-53"/>
      </g>
     </g>
    </g>
    <g id="xtick_3">
     <g id="line2d_3">
      <g>
       <use style="stroke:#000000;stroke-width:0.8;" x="169.319358" xlink:href="#m0676aafa21" y="307.584"/>
      </g>
     </g>
     <g id="text_3">
      <!-- 5.0 -->
      <g transform="translate(161.367796 322.182437)scale(0.1 -0.1)">
       <use xlink:href="#DejaVuSans-53"/>
       <use x="63.623047" xlink:href="#DejaVuSans-46"/>
       <use x="95.410156" xlink:href="#DejaVuSans-48"/>
      </g>
     </g>
    </g>
    <g id="xtick_4">
     <g id="line2d_4">
      <g>
       <use style="stroke:#000000;stroke-width:0.8;" x="217.062674" xlink:href="#m0676aafa21" y="307.584"/>
      </g>
     </g>
     <g id="text_4">
      <!-- 7.5 -->
      <defs>
       <path d="M 8.203125 72.90625 
L 55.078125 72.90625 
L 55.078125 68.703125 
L 28.609375 0 
L 18.3125 0 
L 43.21875 64.59375 
L 8.203125 64.59375 
z
" id="DejaVuSans-55"/>
      </defs>
      <g transform="translate(209.111111 322.182437)scale(0.1 -0.1)">
       <use xlink:href="#DejaVuSans-55"/>
       <use x="63.623047" xlink:href="#DejaVuSans-46"/>
       <use x="95.410156" xlink:href="#DejaVuSans-53"/>
      </g>
     </g>
    </g>
    <g id="xtick_5">
     <g id="line2d_5">
      <g>
       <use style="stroke:#000000;stroke-width:0.8;" x="264.805989" xlink:href="#m0676aafa21" y="307.584"/>
      </g>
     </g>
     <g id="text_5">
      <!-- 10.0 -->
      <defs>
       <path d="M 12.40625 8.296875 
L 28.515625 8.296875 
L 28.515625 63.921875 
L 10.984375 60.40625 
L 10.984375 69.390625 
L 28.421875 72.90625 
L 38.28125 72.90625 
L 38.28125 8.296875 
L 54.390625 8.296875 
L 54.390625 0 
L 12.40625 0 
z
" id="DejaVuSans-49"/>
      </defs>
      <g transform="translate(253.673177 322.182437)scale(0.1 -0.1)">
       <use xlink:href="#DejaVuSans-49"/>
       <use x="63.623047" xlink:href="#DejaVuSans-48"/>
       <use x="127.246094" xlink:href="#DejaVuSans-46"/>
       <use x="159.033203" xlink:href="#DejaVuSans-48"/>
      </g>
     </g>
    </g>
    <g id="xtick_6">
     <g id="line2d_6">
      <g>
       <use style="stroke:#000000;stroke-width:0.8;" x="312.549305" xlink:href="#m0676aafa21" y="307.584"/>
      </g>
     </g>
     <g id="text_6">
      <!-- 12.5 -->
      <g transform="translate(301.416492 322.182437)scale(0.1 -0.1)">
       <use xlink:href="#DejaVuSans-49"/>
       <use x="63.623047" xlink:href="#DejaVuSans-50"/>
       <use x="127.246094" xlink:href="#DejaVuSans-46"/>
       <use x="159.033203" xlink:href="#DejaVuSans-53"/>
      </g>
     </g>
    </g>
    <g id="xtick_7">
     <g id="line2d_7">
      <g>
       <use style="stroke:#000000;stroke-width:0.8;" x="360.29262" xlink:href="#m0676aafa21" y="307.584"/>
      </g>
     </g>
     <g id="text_7">
      <!-- 15.0 -->
      <g transform="translate(349.159808 322.182437)scale(0.1 -0.1)">
       <use xlink:href="#DejaVuSans-49"/>
       <use x="63.623047" xlink:href="#DejaVuSans-53"/>
       <use x="127.246094" xlink:href="#DejaVuSans-46"/>
       <use x="159.033203" xlink:href="#DejaVuSans-48"/>
      </g>
     </g>
    </g>
    <g id="xtick_8">
     <g id="line2d_8">
      <g>
       <use style="stroke:#000000;stroke-width:0.8;" x="408.035936" xlink:href="#m0676aafa21" y="307.584"/>
      </g>
     </g>
     <g id="text_8">
      <!-- 17.5 -->
      <g transform="translate(396.903123 322.182437)scale(0.1 -0.1)">
       <use xlink:href="#DejaVuSans-49"/>
       <use x="63.623047" xlink:href="#DejaVuSans-55"/>
       <use x="127.246094" xlink:href="#DejaVuSans-46"/>
       <use x="159.033203" xlink:href="#DejaVuSans-53"/>
      </g>
     </g>
    </g>
    <g id="text_9">
     <!-- Generations -->
     <defs>
      <path d="M 59.515625 10.40625 
L 59.515625 29.984375 
L 43.40625 29.984375 
L 43.40625 38.09375 
L 69.28125 38.09375 
L 69.28125 6.78125 
Q 63.578125 2.734375 56.6875 0.65625 
Q 49.8125 -1.421875 42 -1.421875 
Q 24.90625 -1.421875 15.25 8.5625 
Q 5.609375 18.5625 5.609375 36.375 
Q 5.609375 54.25 15.25 64.234375 
Q 24.90625 74.21875 42 74.21875 
Q 49.125 74.21875 55.546875 72.453125 
Q 61.96875 70.703125 67.390625 67.28125 
L 67.390625 56.78125 
Q 61.921875 61.421875 55.765625 63.765625 
Q 49.609375 66.109375 42.828125 66.109375 
Q 29.4375 66.109375 22.71875 58.640625 
Q 16.015625 51.171875 16.015625 36.375 
Q 16.015625 21.625 22.71875 14.15625 
Q 29.4375 6.6875 42.828125 6.6875 
Q 48.046875 6.6875 52.140625 7.59375 
Q 56.25 8.5 59.515625 10.40625 
z
" id="DejaVuSans-71"/>
      <path d="M 56.203125 29.59375 
L 56.203125 25.203125 
L 14.890625 25.203125 
Q 15.484375 15.921875 20.484375 11.0625 
Q 25.484375 6.203125 34.421875 6.203125 
Q 39.59375 6.203125 44.453125 7.46875 
Q 49.3125 8.734375 54.109375 11.28125 
L 54.109375 2.78125 
Q 49.265625 0.734375 44.1875 -0.34375 
Q 39.109375 -1.421875 33.890625 -1.421875 
Q 20.796875 -1.421875 13.15625 6.1875 
Q 5.515625 13.8125 5.515625 26.8125 
Q 5.515625 40.234375 12.765625 48.109375 
Q 20.015625 56 32.328125 56 
Q 43.359375 56 49.78125 48.890625 
Q 56.203125 41.796875 56.203125 29.59375 
z
M 47.21875 32.234375 
Q 47.125 39.59375 43.09375 43.984375 
Q 39.0625 48.390625 32.421875 48.390625 
Q 24.90625 48.390625 20.390625 44.140625 
Q 15.875 39.890625 15.1875 32.171875 
z
" id="DejaVuSans-101"/>
      <path d="M 54.890625 33.015625 
L 54.890625 0 
L 45.90625 0 
L 45.90625 32.71875 
Q 45.90625 40.484375 42.875 44.328125 
Q 39.84375 48.1875 33.796875 48.1875 
Q 26.515625 48.1875 22.3125 43.546875 
Q 18.109375 38.921875 18.109375 30.90625 
L 18.109375 0 
L 9.078125 0 
L 9.078125 54.6875 
L 18.109375 54.6875 
L 18.109375 46.1875 
Q 21.34375 51.125 25.703125 53.5625 
Q 30.078125 56 35.796875 56 
Q 45.21875 56 50.046875 50.171875 
Q 54.890625 44.34375 54.890625 33.015625 
z
" id="DejaVuSans-110"/>
      <path d="M 41.109375 46.296875 
Q 39.59375 47.171875 37.8125 47.578125 
Q 36.03125 48 33.890625 48 
Q 26.265625 48 22.1875 43.046875 
Q 18.109375 38.09375 18.109375 28.8125 
L 18.109375 0 
L 9.078125 0 
L 9.078125 54.6875 
L 18.109375 54.6875 
L 18.109375 46.1875 
Q 20.953125 51.171875 25.484375 53.578125 
Q 30.03125 56 36.53125 56 
Q 37.453125 56 38.578125 55.875 
Q 39.703125 55.765625 41.0625 55.515625 
z
" id="DejaVuSans-114"/>
      <path d="M 34.28125 27.484375 
Q 23.390625 27.484375 19.1875 25 
Q 14.984375 22.515625 14.984375 16.5 
Q 14.984375 11.71875 18.140625 8.90625 
Q 21.296875 6.109375 26.703125 6.109375 
Q 34.1875 6.109375 38.703125 11.40625 
Q 43.21875 16.703125 43.21875 25.484375 
L 43.21875 27.484375 
z
M 52.203125 31.203125 
L 52.203125 0 
L 43.21875 0 
L 43.21875 8.296875 
Q 40.140625 3.328125 35.546875 0.953125 
Q 30.953125 -1.421875 24.3125 -1.421875 
Q 15.921875 -1.421875 10.953125 3.296875 
Q 6 8.015625 6 15.921875 
Q 6 25.140625 12.171875 29.828125 
Q 18.359375 34.515625 30.609375 34.515625 
L 43.21875 34.515625 
L 43.21875 35.40625 
Q 43.21875 41.609375 39.140625 45 
Q 35.0625 48.390625 27.6875 48.390625 
Q 23 48.390625 18.546875 47.265625 
Q 14.109375 46.140625 10.015625 43.890625 
L 10.015625 52.203125 
Q 14.9375 54.109375 19.578125 55.046875 
Q 24.21875 56 28.609375 56 
Q 40.484375 56 46.34375 49.84375 
Q 52.203125 43.703125 52.203125 31.203125 
z
" id="DejaVuSans-97"/>
      <path d="M 18.3125 70.21875 
L 18.3125 54.6875 
L 36.8125 54.6875 
L 36.8125 47.703125 
L 18.3125 47.703125 
L 18.3125 18.015625 
Q 18.3125 11.328125 20.140625 9.421875 
Q 21.96875 7.515625 27.59375 7.515625 
L 36.8125 7.515625 
L 36.8125 0 
L 27.59375 0 
Q 17.1875 0 13.234375 3.875 
Q 9.28125 7.765625 9.28125 18.015625 
L 9.28125 47.703125 
L 2.6875 47.703125 
L 2.6875 54.6875 
L 9.28125 54.6875 
L 9.28125 70.21875 
z
" id="DejaVuSans-116"/>
      <path d="M 9.421875 54.6875 
L 18.40625 54.6875 
L 18.40625 0 
L 9.421875 0 
z
M 9.421875 75.984375 
L 18.40625 75.984375 
L 18.40625 64.59375 
L 9.421875 64.59375 
z
" id="DejaVuSans-105"/>
      <path d="M 30.609375 48.390625 
Q 23.390625 48.390625 19.1875 42.75 
Q 14.984375 37.109375 14.984375 27.296875 
Q 14.984375 17.484375 19.15625 11.84375 
Q 23.34375 6.203125 30.609375 6.203125 
Q 37.796875 6.203125 41.984375 11.859375 
Q 46.1875 17.53125 46.1875 27.296875 
Q 46.1875 37.015625 41.984375 42.703125 
Q 37.796875 48.390625 30.609375 48.390625 
z
M 30.609375 56 
Q 42.328125 56 49.015625 48.375 
Q 55.71875 40.765625 55.71875 27.296875 
Q 55.71875 13.875 49.015625 6.21875 
Q 42.328125 -1.421875 30.609375 -1.421875 
Q 18.84375 -1.421875 12.171875 6.21875 
Q 5.515625 13.875 5.515625 27.296875 
Q 5.515625 40.765625 12.171875 48.375 
Q 18.84375 56 30.609375 56 
z
" id="DejaVuSans-111"/>
      <path d="M 44.28125 53.078125 
L 44.28125 44.578125 
Q 40.484375 46.53125 36.375 47.5 
Q 32.28125 48.484375 27.875 48.484375 
Q 21.1875 48.484375 17.84375 46.4375 
Q 14.5 44.390625 14.5 40.28125 
Q 14.5 37.15625 16.890625 35.375 
Q 19.28125 33.59375 26.515625 31.984375 
L 29.59375 31.296875 
Q 39.15625 29.25 43.1875 25.515625 
Q 47.21875 21.78125 47.21875 15.09375 
Q 47.21875 7.46875 41.1875 3.015625 
Q 35.15625 -1.421875 24.609375 -1.421875 
Q 20.21875 -1.421875 15.453125 -0.5625 
Q 10.6875 0.296875 5.421875 2 
L 5.421875 11.28125 
Q 10.40625 8.6875 15.234375 7.390625 
Q 20.0625 6.109375 24.8125 6.109375 
Q 31.15625 6.109375 34.5625 8.28125 
Q 37.984375 10.453125 37.984375 14.40625 
Q 37.984375 18.0625 35.515625 20.015625 
Q 33.0625 21.96875 24.703125 23.78125 
L 21.578125 24.515625 
Q 13.234375 26.265625 9.515625 29.90625 
Q 5.8125 33.546875 5.8125 39.890625 
Q 5.8125 47.609375 11.28125 51.796875 
Q 16.75 56 26.8125 56 
Q 31.78125 56 36.171875 55.265625 
Q 40.578125 54.546875 44.28125 53.078125 
z
" id="DejaVuSans-115"/>
     </defs>
     <g transform="translate(205.662344 335.860562)scale(0.1 -0.1)">
      <use xlink:href="#DejaVuSans-71"/>
      <use x="77.490234" xlink:href="#DejaVuSans-101"/>
      <use x="139.013672" xlink:href="#DejaVuSans-110"/>
      <use x="202.392578" xlink:href="#DejaVuSans-101"/>
      <use x="263.916016" xlink:href="#DejaVuSans-114"/>
      <use x="305.029297" xlink:href="#DejaVuSans-97"/>
      <use x="366.308594" xlink:href="#DejaVuSans-116"/>
      <use x="405.517578" xlink:href="#DejaVuSans-105"/>
      <use x="433.300781" xlink:href="#DejaVuSans-111"/>
      <use x="494.482422" xlink:href="#DejaVuSans-110"/>
      <use x="557.861328" xlink:href="#DejaVuSans-115"/>
     </g>
    </g>
   </g>
   <g id="matplotlib.axis_2">
    <g id="ytick_1">
     <g id="line2d_9">
      <defs>
       <path d="M 0 0 
L -3.5 0 
" id="meea48cb518" style="stroke:#000000;stroke-width:0.8;"/>
      </defs>
      <g>
       <use style="stroke:#000000;stroke-width:0.8;" x="57.6" xlink:href="#meea48cb518" y="307.584"/>
      </g>
     </g>
     <g id="text_10">
      <!-- 0 -->
      <g transform="translate(44.2375 311.383219)scale(0.1 -0.1)">
       <use xlink:href="#DejaVuSans-48"/>
      </g>
     </g>
    </g>
    <g id="ytick_2">
     <g id="line2d_10">
      <g>
       <use style="stroke:#000000;stroke-width:0.8;" x="57.6" xlink:href="#meea48cb518" y="257.694236"/>
      </g>
     </g>
     <g id="text_11">
      <!-- 50 -->
      <g transform="translate(37.875 261.493455)scale(0.1 -0.1)">
       <use xlink:href="#DejaVuSans-53"/>
       <use x="63.623047" xlink:href="#DejaVuSans-48"/>
      </g>
     </g>
    </g>
    <g id="ytick_3">
     <g id="line2d_11">
      <g>
       <use style="stroke:#000000;stroke-width:0.8;" x="57.6" xlink:href="#meea48cb518" y="207.804472"/>
      </g>
     </g>
     <g id="text_12">
      <!-- 100 -->
      <g transform="translate(31.5125 211.603691)scale(0.1 -0.1)">
       <use xlink:href="#DejaVuSans-49"/>
       <use x="63.623047" xlink:href="#DejaVuSans-48"/>
       <use x="127.246094" xlink:href="#DejaVuSans-48"/>
      </g>
     </g>
    </g>
    <g id="ytick_4">
     <g id="line2d_12">
      <g>
       <use style="stroke:#000000;stroke-width:0.8;" x="57.6" xlink:href="#meea48cb518" y="157.914709"/>
      </g>
     </g>
     <g id="text_13">
      <!-- 150 -->
      <g transform="translate(31.5125 161.713927)scale(0.1 -0.1)">
       <use xlink:href="#DejaVuSans-49"/>
       <use x="63.623047" xlink:href="#DejaVuSans-53"/>
       <use x="127.246094" xlink:href="#DejaVuSans-48"/>
      </g>
     </g>
    </g>
    <g id="ytick_5">
     <g id="line2d_13">
      <g>
       <use style="stroke:#000000;stroke-width:0.8;" x="57.6" xlink:href="#meea48cb518" y="108.024945"/>
      </g>
     </g>
     <g id="text_14">
      <!-- 200 -->
      <g transform="translate(31.5125 111.824164)scale(0.1 -0.1)">
       <use xlink:href="#DejaVuSans-50"/>
       <use x="63.623047" xlink:href="#DejaVuSans-48"/>
       <use x="127.246094" xlink:href="#DejaVuSans-48"/>
      </g>
     </g>
    </g>
    <g id="ytick_6">
     <g id="line2d_14">
      <g>
       <use style="stroke:#000000;stroke-width:0.8;" x="57.6" xlink:href="#meea48cb518" y="58.135181"/>
      </g>
     </g>
     <g id="text_15">
      <!-- 250 -->
      <g transform="translate(31.5125 61.9344)scale(0.1 -0.1)">
       <use xlink:href="#DejaVuSans-50"/>
       <use x="63.623047" xlink:href="#DejaVuSans-53"/>
       <use x="127.246094" xlink:href="#DejaVuSans-48"/>
      </g>
     </g>
    </g>
    <g id="text_16">
     <!-- Size per Species -->
     <defs>
      <path d="M 53.515625 70.515625 
L 53.515625 60.890625 
Q 47.90625 63.578125 42.921875 64.890625 
Q 37.9375 66.21875 33.296875 66.21875 
Q 25.25 66.21875 20.875 63.09375 
Q 16.5 59.96875 16.5 54.203125 
Q 16.5 49.359375 19.40625 46.890625 
Q 22.3125 44.4375 30.421875 42.921875 
L 36.375 41.703125 
Q 47.40625 39.59375 52.65625 34.296875 
Q 57.90625 29 57.90625 20.125 
Q 57.90625 9.515625 50.796875 4.046875 
Q 43.703125 -1.421875 29.984375 -1.421875 
Q 24.8125 -1.421875 18.96875 -0.25 
Q 13.140625 0.921875 6.890625 3.21875 
L 6.890625 13.375 
Q 12.890625 10.015625 18.65625 8.296875 
Q 24.421875 6.59375 29.984375 6.59375 
Q 38.421875 6.59375 43.015625 9.90625 
Q 47.609375 13.234375 47.609375 19.390625 
Q 47.609375 24.75 44.3125 27.78125 
Q 41.015625 30.8125 33.5 32.328125 
L 27.484375 33.5 
Q 16.453125 35.6875 11.515625 40.375 
Q 6.59375 45.0625 6.59375 53.421875 
Q 6.59375 63.09375 13.40625 68.65625 
Q 20.21875 74.21875 32.171875 74.21875 
Q 37.3125 74.21875 42.625 73.28125 
Q 47.953125 72.359375 53.515625 70.515625 
z
" id="DejaVuSans-83"/>
      <path d="M 5.515625 54.6875 
L 48.1875 54.6875 
L 48.1875 46.484375 
L 14.40625 7.171875 
L 48.1875 7.171875 
L 48.1875 0 
L 4.296875 0 
L 4.296875 8.203125 
L 38.09375 47.515625 
L 5.515625 47.515625 
z
" id="DejaVuSans-122"/>
      <path id="DejaVuSans-32"/>
      <path d="M 18.109375 8.203125 
L 18.109375 -20.796875 
L 9.078125 -20.796875 
L 9.078125 54.6875 
L 18.109375 54.6875 
L 18.109375 46.390625 
Q 20.953125 51.265625 25.265625 53.625 
Q 29.59375 56 35.59375 56 
Q 45.5625 56 51.78125 48.09375 
Q 58.015625 40.1875 58.015625 27.296875 
Q 58.015625 14.40625 51.78125 6.484375 
Q 45.5625 -1.421875 35.59375 -1.421875 
Q 29.59375 -1.421875 25.265625 0.953125 
Q 20.953125 3.328125 18.109375 8.203125 
z
M 48.6875 27.296875 
Q 48.6875 37.203125 44.609375 42.84375 
Q 40.53125 48.484375 33.40625 48.484375 
Q 26.265625 48.484375 22.1875 42.84375 
Q 18.109375 37.203125 18.109375 27.296875 
Q 18.109375 17.390625 22.1875 11.75 
Q 26.265625 6.109375 33.40625 6.109375 
Q 40.53125 6.109375 44.609375 11.75 
Q 48.6875 17.390625 48.6875 27.296875 
z
" id="DejaVuSans-112"/>
      <path d="M 48.78125 52.59375 
L 48.78125 44.1875 
Q 44.96875 46.296875 41.140625 47.34375 
Q 37.3125 48.390625 33.40625 48.390625 
Q 24.65625 48.390625 19.8125 42.84375 
Q 14.984375 37.3125 14.984375 27.296875 
Q 14.984375 17.28125 19.8125 11.734375 
Q 24.65625 6.203125 33.40625 6.203125 
Q 37.3125 6.203125 41.140625 7.25 
Q 44.96875 8.296875 48.78125 10.40625 
L 48.78125 2.09375 
Q 45.015625 0.34375 40.984375 -0.53125 
Q 36.96875 -1.421875 32.421875 -1.421875 
Q 20.0625 -1.421875 12.78125 6.34375 
Q 5.515625 14.109375 5.515625 27.296875 
Q 5.515625 40.671875 12.859375 48.328125 
Q 20.21875 56 33.015625 56 
Q 37.15625 56 41.109375 55.140625 
Q 45.0625 54.296875 48.78125 52.59375 
z
" id="DejaVuSans-99"/>
     </defs>
     <g transform="translate(25.432812 215.520969)rotate(-90)scale(0.1 -0.1)">
      <use xlink:href="#DejaVuSans-83"/>
      <use x="63.476562" xlink:href="#DejaVuSans-105"/>
      <use x="91.259766" xlink:href="#DejaVuSans-122"/>
      <use x="143.75" xlink:href="#DejaVuSans-101"/>
      <use x="205.273438" xlink:href="#DejaVuSans-32"/>
      <use x="237.060547" xlink:href="#DejaVuSans-112"/>
      <use x="300.537109" xlink:href="#DejaVuSans-101"/>
      <use x="362.060547" xlink:href="#DejaVuSans-114"/>
      <use x="403.173828" xlink:href="#DejaVuSans-32"/>
      <use x="434.960938" xlink:href="#DejaVuSans-83"/>
      <use x="498.4375" xlink:href="#DejaVuSans-112"/>
      <use x="561.914062" xlink:href="#DejaVuSans-101"/>
      <use x="623.4375" xlink:href="#DejaVuSans-99"/>
      <use x="678.417969" xlink:href="#DejaVuSans-105"/>
      <use x="706.201172" xlink:href="#DejaVuSans-101"/>
      <use x="767.724609" xlink:href="#DejaVuSans-115"/>
     </g>
    </g>
   </g>
   <g id="patch_3">
    <path d="M 57.6 307.584 
L 57.6 41.472 
" style="fill:none;stroke:#000000;stroke-linecap:square;stroke-linejoin:miter;stroke-width:0.8;"/>
   </g>
   <g id="patch_4">
    <path d="M 414.72 307.584 
L 414.72 41.472 
" style="fill:none;stroke:#000000;stroke-linecap:square;stroke-linejoin:miter;stroke-width:0.8;"/>
   </g>
   <g id="patch_5">
    <path d="M 57.6 307.584 
L 414.72 307.584 
" style="fill:none;stroke:#000000;stroke-linecap:square;stroke-linejoin:miter;stroke-width:0.8;"/>
   </g>
   <g id="patch_6">
    <path d="M 57.6 41.472 
L 414.72 41.472 
" style="fill:none;stroke:#000000;stroke-linecap:square;stroke-linejoin:miter;stroke-width:0.8;"/>
   </g>
   <g id="text_17">
    <!-- Speciation -->
    <g transform="translate(204.714375 35.472)scale(0.12 -0.12)">
     <use xlink:href="#DejaVuSans-83"/>
     <use x="63.476562" xlink:href="#DejaVuSans-112"/>
     <use x="126.953125" xlink:href="#DejaVuSans-101"/>
     <use x="188.476562" xlink:href="#DejaVuSans-99"/>
     <use x="243.457031" xlink:href="#DejaVuSans-105"/>
     <use x="271.240234" xlink:href="#DejaVuSans-97"/>
     <use x="332.519531" xlink:href="#DejaVuSans-116"/>
     <use x="371.728516" xlink:href="#DejaVuSans-105"/>
     <use x="399.511719" xlink:href="#DejaVuSans-111"/>
     <use x="460.693359" xlink:href="#DejaVuSans-110"/>
    </g>
   </g>
  </g>
 </g>
 <defs>
  <clipPath id="p7582a1d7b2">
   <rect height="266.112" width="357.12" x="57.6" y="41.472"/>
  </clipPath>
 </defs>
</svg>
