<?xml version="1.0" encoding="utf-8" standalone="no"?>
<!DOCTYPE svg PUBLIC "-//W3C//DTD SVG 1.1//EN"
  "http://www.w3.org/Graphics/SVG/1.1/DTD/svg11.dtd">
<!-- Created with matplotlib (https://matplotlib.org/) -->
<svg height="345.6pt" version="1.1" viewBox="0 0 460.8 345.6" width="460.8pt" xmlns="http://www.w3.org/2000/svg" xmlns:xlink="http://www.w3.org/1999/xlink">
 <defs>
  <style type="text/css">
*{stroke-linecap:butt;stroke-linejoin:round;}
  </style>
 </defs>
 <g id="figure_1">
  <g id="patch_1">
   <path d="M 0 345.6 
L 460.8 345.6 
L 460.8 0 
L 0 0 
z
" style="fill:#ffffff;"/>
  </g>
  <g id="axes_1">
   <g id="patch_2">
    <path d="M 57.6 307.584 
L 414.72 307.584 
L 414.72 41.472 
L 57.6 41.472 
z
" style="fill:#ffffff;"/>
   </g>
   <g id="PolyCollection_1">
    <path clip-path="url(#pc96a95ec20)" d="M 73.832727 286.630299 
L 73.832727 307.584 
L 82.850909 307.584 
L 91.869091 307.584 
L 100.887273 307.584 
L 109.905455 307.584 
L 118.923636 307.584 
L 127.941818 307.584 
L 136.96 307.584 
L 145.978182 307.584 
L 154.996364 307.584 
L 164.014545 307.584 
L 173.032727 307.584 
L 182.050909 307.584 
L 191.069091 307.584 
L 200.087273 307.584 
L 209.105455 307.584 
L 218.123636 307.584 
L 227.141818 307.584 
L 236.16 307.584 
L 245.178182 307.584 
L 254.196364 307.584 
L 263.214545 307.584 
L 272.232727 307.584 
L 281.250909 307.584 
L 290.269091 307.584 
L 299.287273 307.584 
L 308.305455 307.584 
L 317.323636 307.584 
L 326.341818 307.584 
L 335.36 307.584 
L 344.378182 307.584 
L 353.396364 307.584 
L 362.414545 307.584 
L 371.432727 307.584 
L 380.450909 307.584 
L 389.469091 307.584 
L 398.487273 307.584 
L 398.487273 292.617071 
L 398.487273 292.617071 
L 389.469091 302.595024 
L 380.450909 300.599433 
L 371.432727 298.603843 
L 362.414545 296.608252 
L 353.396364 304.590614 
L 344.378182 251.707465 
L 335.36 280.643528 
L 326.341818 282.639118 
L 317.323636 299.601638 
L 308.305455 277.650142 
L 299.287273 292.617071 
L 290.269091 287.628094 
L 281.250909 294.612661 
L 272.232727 278.647937 
L 263.214545 243.725102 
L 254.196364 286.630299 
L 245.178182 282.639118 
L 236.16 287.628094 
L 227.141818 300.599433 
L 218.123636 280.643528 
L 209.105455 302.595024 
L 200.087273 300.599433 
L 191.069091 279.645732 
L 182.050909 294.612661 
L 173.032727 302.595024 
L 164.014545 289.623685 
L 154.996364 301.597228 
L 145.978182 295.610457 
L 136.96 302.595024 
L 127.941818 300.599433 
L 118.923636 302.595024 
L 109.905455 303.592819 
L 100.887273 302.595024 
L 91.869091 300.599433 
L 82.850909 297.606047 
L 73.832727 286.630299 
z
" style="fill:#1f77b4;"/>
   </g>
   <g id="PolyCollection_2">
    <path clip-path="url(#pc96a95ec20)" d="M 73.832727 275.654551 
L 73.832727 286.630299 
L 82.850909 297.606047 
L 91.869091 300.599433 
L 100.887273 302.595024 
L 109.905455 303.592819 
L 118.923636 302.595024 
L 127.941818 300.599433 
L 136.96 302.595024 
L 145.978182 295.610457 
L 154.996364 301.597228 
L 164.014545 289.623685 
L 173.032727 302.595024 
L 182.050909 294.612661 
L 191.069091 279.645732 
L 200.087273 300.599433 
L 209.105455 302.595024 
L 218.123636 280.643528 
L 227.141818 300.599433 
L 236.16 287.628094 
L 245.178182 282.639118 
L 254.196364 286.630299 
L 263.214545 243.725102 
L 272.232727 278.647937 
L 281.250909 294.612661 
L 290.269091 287.628094 
L 299.287273 292.617071 
L 308.305455 277.650142 
L 317.323636 299.601638 
L 326.341818 282.639118 
L 335.36 280.643528 
L 344.378182 251.707465 
L 353.396364 304.590614 
L 362.414545 296.608252 
L 371.432727 298.603843 
L 380.450909 300.599433 
L 389.469091 302.595024 
L 398.487273 292.617071 
L 398.487273 292.617071 
L 398.487273 292.617071 
L 389.469091 302.595024 
L 380.450909 300.599433 
L 371.432727 298.603843 
L 362.414545 296.608252 
L 353.396364 304.590614 
L 344.378182 242.727307 
L 335.36 263.681008 
L 326.341818 267.672189 
L 317.323636 285.632504 
L 308.305455 260.687622 
L 299.287273 278.647937 
L 290.269091 274.656756 
L 281.250909 281.641323 
L 272.232727 264.678803 
L 263.214545 237.738331 
L 254.196364 268.669984 
L 245.178182 267.672189 
L 236.16 270.665575 
L 227.141818 293.614866 
L 218.123636 275.654551 
L 209.105455 297.606047 
L 200.087273 290.62148 
L 191.069091 272.661165 
L 182.050909 284.634709 
L 173.032727 286.630299 
L 164.014545 262.683213 
L 154.996364 285.632504 
L 145.978182 270.665575 
L 136.96 285.632504 
L 127.941818 285.632504 
L 118.923636 287.628094 
L 109.905455 287.628094 
L 100.887273 285.632504 
L 91.869091 285.632504 
L 82.850909 289.623685 
L 73.832727 275.654551 
z
" style="fill:#ff7f0e;"/>
   </g>
   <g id="PolyCollection_3">
    <path clip-path="url(#pc96a95ec20)" d="M 73.832727 178.868409 
L 73.832727 275.654551 
L 82.850909 289.623685 
L 91.869091 285.632504 
L 100.887273 285.632504 
L 109.905455 287.628094 
L 118.923636 287.628094 
L 127.941818 285.632504 
L 136.96 285.632504 
L 145.978182 270.665575 
L 154.996364 285.632504 
L 164.014545 262.683213 
L 173.032727 286.630299 
L 182.050909 284.634709 
L 191.069091 272.661165 
L 200.087273 290.62148 
L 209.105455 297.606047 
L 218.123636 275.654551 
L 227.141818 293.614866 
L 236.16 270.665575 
L 245.178182 267.672189 
L 254.196364 268.669984 
L 263.214545 237.738331 
L 272.232727 264.678803 
L 281.250909 281.641323 
L 290.269091 274.656756 
L 299.287273 278.647937 
L 308.305455 260.687622 
L 317.323636 285.632504 
L 326.341818 267.672189 
L 335.36 263.681008 
L 344.378182 242.727307 
L 353.396364 304.590614 
L 362.414545 296.608252 
L 371.432727 298.603843 
L 380.450909 300.599433 
L 389.469091 302.595024 
L 398.487273 292.617071 
L 398.487273 272.661165 
L 398.487273 272.661165 
L 389.469091 294.612661 
L 380.450909 278.647937 
L 371.432727 280.643528 
L 362.414545 290.62148 
L 353.396364 301.597228 
L 344.378182 218.78022 
L 335.36 242.727307 
L 326.341818 236.740535 
L 317.323636 273.658961 
L 308.305455 248.714079 
L 299.287273 248.714079 
L 290.269091 260.687622 
L 281.250909 271.66337 
L 272.232727 253.703055 
L 263.214545 222.771402 
L 254.196364 256.696441 
L 245.178182 260.687622 
L 236.16 265.676598 
L 227.141818 285.632504 
L 218.123636 266.674394 
L 209.105455 296.608252 
L 200.087273 286.630299 
L 191.069091 266.674394 
L 182.050909 281.641323 
L 173.032727 277.650142 
L 164.014545 251.707465 
L 154.996364 270.665575 
L 145.978182 263.681008 
L 136.96 278.647937 
L 127.941818 282.639118 
L 118.923636 283.636913 
L 109.905455 281.641323 
L 100.887273 251.707465 
L 91.869091 263.681008 
L 82.850909 257.694236 
L 73.832727 178.868409 
z
" style="fill:#2ca02c;"/>
   </g>
   <g id="PolyCollection_4">
    <path clip-path="url(#pc96a95ec20)" d="M 73.832727 165.897071 
L 73.832727 178.868409 
L 82.850909 257.694236 
L 91.869091 263.681008 
L 100.887273 251.707465 
L 109.905455 281.641323 
L 118.923636 283.636913 
L 127.941818 282.639118 
L 136.96 278.647937 
L 145.978182 263.681008 
L 154.996364 270.665575 
L 164.014545 251.707465 
L 173.032727 277.650142 
L 182.050909 281.641323 
L 191.069091 266.674394 
L 200.087273 286.630299 
L 209.105455 296.608252 
L 218.123636 266.674394 
L 227.141818 285.632504 
L 236.16 265.676598 
L 245.178182 260.687622 
L 254.196364 256.696441 
L 263.214545 222.771402 
L 272.232727 253.703055 
L 281.250909 271.66337 
L 290.269091 260.687622 
L 299.287273 248.714079 
L 308.305455 248.714079 
L 317.323636 273.658961 
L 326.341818 236.740535 
L 335.36 242.727307 
L 344.378182 218.78022 
L 353.396364 301.597228 
L 362.414545 290.62148 
L 371.432727 280.643528 
L 380.450909 278.647937 
L 389.469091 294.612661 
L 398.487273 272.661165 
L 398.487273 272.661165 
L 398.487273 272.661165 
L 389.469091 294.612661 
L 380.450909 278.647937 
L 371.432727 280.643528 
L 362.414545 290.62148 
L 353.396364 301.597228 
L 344.378182 218.78022 
L 335.36 242.727307 
L 326.341818 229.755969 
L 317.323636 265.676598 
L 308.305455 239.733921 
L 299.287273 240.731717 
L 290.269091 250.709669 
L 281.250909 259.689827 
L 272.232727 244.722898 
L 263.214545 214.789039 
L 254.196364 246.718488 
L 245.178182 250.709669 
L 236.16 253.703055 
L 227.141818 273.658961 
L 218.123636 256.696441 
L 209.105455 285.632504 
L 200.087273 276.652346 
L 191.069091 253.703055 
L 182.050909 270.665575 
L 173.032727 264.678803 
L 164.014545 238.736126 
L 154.996364 252.70526 
L 145.978182 245.720693 
L 136.96 272.661165 
L 127.941818 278.647937 
L 118.923636 275.654551 
L 109.905455 271.66337 
L 100.887273 244.722898 
L 91.869091 253.703055 
L 82.850909 251.707465 
L 73.832727 165.897071 
z
" style="fill:#d62728;"/>
   </g>
   <g id="PolyCollection_5">
    <path clip-path="url(#pc96a95ec20)" d="M 73.832727 154.921323 
L 73.832727 165.897071 
L 82.850909 251.707465 
L 91.869091 253.703055 
L 100.887273 244.722898 
L 109.905455 271.66337 
L 118.923636 275.654551 
L 127.941818 278.647937 
L 136.96 272.661165 
L 145.978182 245.720693 
L 154.996364 252.70526 
L 164.014545 238.736126 
L 173.032727 264.678803 
L 182.050909 270.665575 
L 191.069091 253.703055 
L 200.087273 276.652346 
L 209.105455 285.632504 
L 218.123636 256.696441 
L 227.141818 273.658961 
L 236.16 253.703055 
L 245.178182 250.709669 
L 254.196364 246.718488 
L 263.214545 214.789039 
L 272.232727 244.722898 
L 281.250909 259.689827 
L 290.269091 250.709669 
L 299.287273 240.731717 
L 308.305455 239.733921 
L 317.323636 265.676598 
L 326.341818 229.755969 
L 335.36 242.727307 
L 344.378182 218.78022 
L 353.396364 301.597228 
L 362.414545 290.62148 
L 371.432727 280.643528 
L 380.450909 278.647937 
L 389.469091 294.612661 
L 398.487273 272.661165 
L 398.487273 202.815496 
L 398.487273 202.815496 
L 389.469091 227.760378 
L 380.450909 222.771402 
L 371.432727 239.733921 
L 362.414545 247.716283 
L 353.396364 246.718488 
L 344.378182 180.864 
L 335.36 207.804472 
L 326.341818 212.793449 
L 317.323636 251.707465 
L 308.305455 209.800063 
L 299.287273 225.764787 
L 290.269091 238.736126 
L 281.250909 249.711874 
L 272.232727 238.736126 
L 263.214545 195.830929 
L 254.196364 221.773606 
L 245.178182 234.744945 
L 236.16 243.725102 
L 227.141818 263.681008 
L 218.123636 250.709669 
L 209.105455 267.672189 
L 200.087273 270.665575 
L 191.069091 245.720693 
L 182.050909 262.683213 
L 173.032727 251.707465 
L 164.014545 230.753764 
L 154.996364 250.709669 
L 145.978182 219.778016 
L 136.96 269.66778 
L 127.941818 243.725102 
L 118.923636 196.828724 
L 109.905455 213.791244 
L 100.887273 221.773606 
L 91.869091 232.749354 
L 82.850909 218.78022 
L 73.832727 154.921323 
z
" style="fill:#9467bd;"/>
   </g>
   <g id="PolyCollection_6">
    <path clip-path="url(#pc96a95ec20)" d="M 73.832727 135.963213 
L 73.832727 154.921323 
L 82.850909 218.78022 
L 91.869091 232.749354 
L 100.887273 221.773606 
L 109.905455 213.791244 
L 118.923636 196.828724 
L 127.941818 243.725102 
L 136.96 269.66778 
L 145.978182 219.778016 
L 154.996364 250.709669 
L 164.014545 230.753764 
L 173.032727 251.707465 
L 182.050909 262.683213 
L 191.069091 245.720693 
L 200.087273 270.665575 
L 209.105455 267.672189 
L 218.123636 250.709669 
L 227.141818 263.681008 
L 236.16 243.725102 
L 245.178182 234.744945 
L 254.196364 221.773606 
L 263.214545 195.830929 
L 272.232727 238.736126 
L 281.250909 249.711874 
L 290.269091 238.736126 
L 299.287273 225.764787 
L 308.305455 209.800063 
L 317.323636 251.707465 
L 326.341818 212.793449 
L 335.36 207.804472 
L 344.378182 180.864 
L 353.396364 246.718488 
L 362.414545 247.716283 
L 371.432727 239.733921 
L 380.450909 222.771402 
L 389.469091 227.760378 
L 398.487273 202.815496 
L 398.487273 202.815496 
L 398.487273 202.815496 
L 389.469091 227.760378 
L 380.450909 222.771402 
L 371.432727 239.733921 
L 362.414545 247.716283 
L 353.396364 246.718488 
L 344.378182 180.864 
L 335.36 207.804472 
L 326.341818 212.793449 
L 317.323636 251.707465 
L 308.305455 200.819906 
L 299.287273 201.817701 
L 290.269091 230.753764 
L 281.250909 240.731717 
L 272.232727 214.789039 
L 263.214545 188.846362 
L 254.196364 206.806677 
L 245.178182 219.778016 
L 236.16 232.749354 
L 227.141818 249.711874 
L 218.123636 234.744945 
L 209.105455 257.694236 
L 200.087273 262.683213 
L 191.069091 241.729512 
L 182.050909 222.771402 
L 173.032727 228.758173 
L 164.014545 224.766992 
L 154.996364 248.714079 
L 145.978182 206.806677 
L 136.96 248.714079 
L 127.941818 197.82652 
L 118.923636 191.839748 
L 109.905455 206.806677 
L 100.887273 181.861795 
L 91.869091 215.786835 
L 82.850909 185.852976 
L 73.832727 135.963213 
z
" style="fill:#8c564b;"/>
   </g>
   <g id="PolyCollection_7">
    <path clip-path="url(#pc96a95ec20)" d="M 73.832727 127.98085 
L 73.832727 135.963213 
L 82.850909 185.852976 
L 91.869091 215.786835 
L 100.887273 181.861795 
L 109.905455 206.806677 
L 118.923636 191.839748 
L 127.941818 197.82652 
L 136.96 248.714079 
L 145.978182 206.806677 
L 154.996364 248.714079 
L 164.014545 224.766992 
L 173.032727 228.758173 
L 182.050909 222.771402 
L 191.069091 241.729512 
L 200.087273 262.683213 
L 209.105455 257.694236 
L 218.123636 234.744945 
L 227.141818 249.711874 
L 236.16 232.749354 
L 245.178182 219.778016 
L 254.196364 206.806677 
L 263.214545 188.846362 
L 272.232727 214.789039 
L 281.250909 240.731717 
L 290.269091 230.753764 
L 299.287273 201.817701 
L 308.305455 200.819906 
L 317.323636 251.707465 
L 326.341818 212.793449 
L 335.36 207.804472 
L 344.378182 180.864 
L 353.396364 246.718488 
L 362.414545 247.716283 
L 371.432727 239.733921 
L 380.450909 222.771402 
L 389.469091 227.760378 
L 398.487273 202.815496 
L 398.487273 202.815496 
L 398.487273 202.815496 
L 389.469091 227.760378 
L 380.450909 222.771402 
L 371.432727 239.733921 
L 362.414545 247.716283 
L 353.396364 246.718488 
L 344.378182 180.864 
L 335.36 207.804472 
L 326.341818 212.793449 
L 317.323636 251.707465 
L 308.305455 200.819906 
L 299.287273 182.859591 
L 290.269091 212.793449 
L 281.250909 211.795654 
L 272.232727 204.811087 
L 263.214545 170.886047 
L 254.196364 182.859591 
L 245.178182 201.817701 
L 236.16 223.769197 
L 227.141818 183.857386 
L 218.123636 178.868409 
L 209.105455 177.870614 
L 200.087273 206.806677 
L 191.069091 218.78022 
L 182.050909 184.855181 
L 173.032727 203.813291 
L 164.014545 204.811087 
L 154.996364 210.797858 
L 145.978182 182.859591 
L 136.96 218.78022 
L 127.941818 193.835339 
L 118.923636 173.879433 
L 109.905455 172.881638 
L 100.887273 175.875024 
L 91.869091 199.82211 
L 82.850909 172.881638 
L 73.832727 127.98085 
z
" style="fill:#e377c2;"/>
   </g>
   <g id="PolyCollection_8">
    <path clip-path="url(#pc96a95ec20)" d="M 73.832727 116.007307 
L 73.832727 127.98085 
L 82.850909 172.881638 
L 91.869091 199.82211 
L 100.887273 175.875024 
L 109.905455 172.881638 
L 118.923636 173.879433 
L 127.941818 193.835339 
L 136.96 218.78022 
L 145.978182 182.859591 
L 154.996364 210.797858 
L 164.014545 204.811087 
L 173.032727 203.813291 
L 182.050909 184.855181 
L 191.069091 218.78022 
L 200.087273 206.806677 
L 209.105455 177.870614 
L 218.123636 178.868409 
L 227.141818 183.857386 
L 236.16 223.769197 
L 245.178182 201.817701 
L 254.196364 182.859591 
L 263.214545 170.886047 
L 272.232727 204.811087 
L 281.250909 211.795654 
L 290.269091 212.793449 
L 299.287273 182.859591 
L 308.305455 200.819906 
L 317.323636 251.707465 
L 326.341818 212.793449 
L 335.36 207.804472 
L 344.378182 180.864 
L 353.396364 246.718488 
L 362.414545 247.716283 
L 371.432727 239.733921 
L 380.450909 222.771402 
L 389.469091 227.760378 
L 398.487273 202.815496 
L 398.487273 202.815496 
L 398.487273 202.815496 
L 389.469091 212.793449 
L 380.450909 210.797858 
L 371.432727 219.778016 
L 362.414545 231.751559 
L 353.396364 229.755969 
L 344.378182 173.879433 
L 335.36 196.828724 
L 326.341818 198.824315 
L 317.323636 235.74274 
L 308.305455 181.861795 
L 299.287273 167.892661 
L 290.269091 196.828724 
L 281.250909 191.839748 
L 272.232727 185.852976 
L 263.214545 154.921323 
L 254.196364 166.894866 
L 245.178182 182.859591 
L 236.16 204.811087 
L 227.141818 171.883843 
L 218.123636 159.910299 
L 209.105455 158.912504 
L 200.087273 184.855181 
L 191.069091 182.859591 
L 182.050909 169.888252 
L 173.032727 164.899276 
L 164.014545 168.890457 
L 154.996364 188.846362 
L 145.978182 169.888252 
L 136.96 208.802268 
L 127.941818 183.857386 
L 118.923636 164.899276 
L 109.905455 163.90148 
L 100.887273 163.90148 
L 91.869091 194.833134 
L 82.850909 159.910299 
L 73.832727 116.007307 
z
" style="fill:#7f7f7f;"/>
   </g>
   <g id="PolyCollection_9">
    <path clip-path="url(#pc96a95ec20)" d="M 73.832727 108.024945 
L 73.832727 116.007307 
L 82.850909 159.910299 
L 91.869091 194.833134 
L 100.887273 163.90148 
L 109.905455 163.90148 
L 118.923636 164.899276 
L 127.941818 183.857386 
L 136.96 208.802268 
L 145.978182 169.888252 
L 154.996364 188.846362 
L 164.014545 168.890457 
L 173.032727 164.899276 
L 182.050909 169.888252 
L 191.069091 182.859591 
L 200.087273 184.855181 
L 209.105455 158.912504 
L 218.123636 159.910299 
L 227.141818 171.883843 
L 236.16 204.811087 
L 245.178182 182.859591 
L 254.196364 166.894866 
L 263.214545 154.921323 
L 272.232727 185.852976 
L 281.250909 191.839748 
L 290.269091 196.828724 
L 299.287273 167.892661 
L 308.305455 181.861795 
L 317.323636 235.74274 
L 326.341818 198.824315 
L 335.36 196.828724 
L 344.378182 173.879433 
L 353.396364 229.755969 
L 362.414545 231.751559 
L 371.432727 219.778016 
L 380.450909 210.797858 
L 389.469091 212.793449 
L 398.487273 202.815496 
L 398.487273 202.815496 
L 398.487273 202.815496 
L 389.469091 212.793449 
L 380.450909 210.797858 
L 371.432727 219.778016 
L 362.414545 231.751559 
L 353.396364 229.755969 
L 344.378182 173.879433 
L 335.36 196.828724 
L 326.341818 198.824315 
L 317.323636 235.74274 
L 308.305455 168.890457 
L 299.287273 163.90148 
L 290.269091 184.855181 
L 281.250909 180.864 
L 272.232727 166.894866 
L 263.214545 140.952189 
L 254.196364 146.938961 
L 245.178182 150.930142 
L 236.16 159.910299 
L 227.141818 144.94337 
L 218.123636 150.930142 
L 209.105455 139.954394 
L 200.087273 127.98085 
L 191.069091 147.936756 
L 182.050909 162.903685 
L 173.032727 158.912504 
L 164.014545 157.914709 
L 154.996364 184.855181 
L 145.978182 128.978646 
L 136.96 200.819906 
L 127.941818 128.978646 
L 118.923636 150.930142 
L 109.905455 151.927937 
L 100.887273 144.94337 
L 91.869091 176.872819 
L 82.850909 152.925732 
L 73.832727 108.024945 
z
" style="fill:#bcbd22;"/>
   </g>
   <g id="PolyCollection_10">
    <path clip-path="url(#pc96a95ec20)" d="M 73.832727 87.071244 
L 73.832727 108.024945 
L 82.850909 152.925732 
L 91.869091 176.872819 
L 100.887273 144.94337 
L 109.905455 151.927937 
L 118.923636 150.930142 
L 127.941818 128.978646 
L 136.96 200.819906 
L 145.978182 128.978646 
L 154.996364 184.855181 
L 164.014545 157.914709 
L 173.032727 158.912504 
L 182.050909 162.903685 
L 191.069091 147.936756 
L 200.087273 127.98085 
L 209.105455 139.954394 
L 218.123636 150.930142 
L 227.141818 144.94337 
L 236.16 159.910299 
L 245.178182 150.930142 
L 254.196364 146.938961 
L 263.214545 140.952189 
L 272.232727 166.894866 
L 281.250909 180.864 
L 290.269091 184.855181 
L 299.287273 163.90148 
L 308.305455 168.890457 
L 317.323636 235.74274 
L 326.341818 198.824315 
L 335.36 196.828724 
L 344.378182 173.879433 
L 353.396364 229.755969 
L 362.414545 231.751559 
L 371.432727 219.778016 
L 380.450909 210.797858 
L 389.469091 212.793449 
L 398.487273 202.815496 
L 398.487273 202.815496 
L 398.487273 202.815496 
L 389.469091 212.793449 
L 380.450909 210.797858 
L 371.432727 219.778016 
L 362.414545 231.751559 
L 353.396364 221.773606 
L 344.378182 166.894866 
L 335.36 186.850772 
L 326.341818 190.841953 
L 317.323636 219.778016 
L 308.305455 158.912504 
L 299.287273 152.925732 
L 290.269091 175.875024 
L 281.250909 175.875024 
L 272.232727 159.910299 
L 263.214545 134.965417 
L 254.196364 139.954394 
L 245.178182 144.94337 
L 236.16 151.927937 
L 227.141818 133.967622 
L 218.123636 134.965417 
L 209.105455 122.991874 
L 200.087273 123.989669 
L 191.069091 142.94778 
L 182.050909 128.978646 
L 173.032727 119.998488 
L 164.014545 119.000693 
L 154.996364 118.002898 
L 145.978182 111.018331 
L 136.96 111.018331 
L 127.941818 119.998488 
L 118.923636 142.94778 
L 109.905455 146.938961 
L 100.887273 143.945575 
L 91.869091 168.890457 
L 82.850909 147.936756 
L 73.832727 87.071244 
z
" style="fill:#17becf;"/>
   </g>
   <g id="PolyCollection_11">
    <path clip-path="url(#pc96a95ec20)" d="M 73.832727 86.073449 
L 73.832727 87.071244 
L 82.850909 147.936756 
L 91.869091 168.890457 
L 100.887273 143.945575 
L 109.905455 146.938961 
L 118.923636 142.94778 
L 127.941818 119.998488 
L 136.96 111.018331 
L 145.978182 111.018331 
L 154.996364 118.002898 
L 164.014545 119.000693 
L 173.032727 119.998488 
L 182.050909 128.978646 
L 191.069091 142.94778 
L 200.087273 123.989669 
L 209.105455 122.991874 
L 218.123636 134.965417 
L 227.141818 133.967622 
L 236.16 151.927937 
L 245.178182 144.94337 
L 254.196364 139.954394 
L 263.214545 134.965417 
L 272.232727 159.910299 
L 281.250909 175.875024 
L 290.269091 175.875024 
L 299.287273 152.925732 
L 308.305455 158.912504 
L 317.323636 219.778016 
L 326.341818 190.841953 
L 335.36 186.850772 
L 344.378182 166.894866 
L 353.396364 221.773606 
L 362.414545 231.751559 
L 371.432727 219.778016 
L 380.450909 210.797858 
L 389.469091 212.793449 
L 398.487273 202.815496 
L 398.487273 202.815496 
L 398.487273 202.815496 
L 389.469091 212.793449 
L 380.450909 210.797858 
L 371.432727 219.778016 
L 362.414545 231.751559 
L 353.396364 221.773606 
L 344.378182 166.894866 
L 335.36 186.850772 
L 326.341818 190.841953 
L 317.323636 219.778016 
L 308.305455 158.912504 
L 299.287273 152.925732 
L 290.269091 175.875024 
L 281.250909 175.875024 
L 272.232727 157.914709 
L 263.214545 131.972031 
L 254.196364 137.958803 
L 245.178182 142.94778 
L 236.16 148.934551 
L 227.141818 131.972031 
L 218.123636 133.967622 
L 209.105455 120.996283 
L 200.087273 119.000693 
L 191.069091 139.954394 
L 182.050909 126.983055 
L 173.032727 117.005102 
L 164.014545 117.005102 
L 154.996364 115.009512 
L 145.978182 107.02715 
L 136.96 108.024945 
L 127.941818 116.007307 
L 118.923636 139.954394 
L 109.905455 142.94778 
L 100.887273 137.958803 
L 91.869091 163.90148 
L 82.850909 143.945575 
L 73.832727 86.073449 
z
" style="fill:#1f77b4;"/>
   </g>
   <g id="PolyCollection_12">
    <path clip-path="url(#pc96a95ec20)" d="M 73.832727 85.075654 
L 73.832727 86.073449 
L 82.850909 143.945575 
L 91.869091 163.90148 
L 100.887273 137.958803 
L 109.905455 142.94778 
L 118.923636 139.954394 
L 127.941818 116.007307 
L 136.96 108.024945 
L 145.978182 107.02715 
L 154.996364 115.009512 
L 164.014545 117.005102 
L 173.032727 117.005102 
L 182.050909 126.983055 
L 191.069091 139.954394 
L 200.087273 119.000693 
L 209.105455 120.996283 
L 218.123636 133.967622 
L 227.141818 131.972031 
L 236.16 148.934551 
L 245.178182 142.94778 
L 254.196364 137.958803 
L 263.214545 131.972031 
L 272.232727 157.914709 
L 281.250909 175.875024 
L 290.269091 175.875024 
L 299.287273 152.925732 
L 308.305455 158.912504 
L 317.323636 219.778016 
L 326.341818 190.841953 
L 335.36 186.850772 
L 344.378182 166.894866 
L 353.396364 221.773606 
L 362.414545 231.751559 
L 371.432727 219.778016 
L 380.450909 210.797858 
L 389.469091 212.793449 
L 398.487273 202.815496 
L 398.487273 202.815496 
L 398.487273 202.815496 
L 389.469091 212.793449 
L 380.450909 210.797858 
L 371.432727 219.778016 
L 362.414545 231.751559 
L 353.396364 221.773606 
L 344.378182 166.894866 
L 335.36 186.850772 
L 326.341818 190.841953 
L 317.323636 219.778016 
L 308.305455 158.912504 
L 299.287273 150.930142 
L 290.269091 173.879433 
L 281.250909 173.879433 
L 272.232727 155.919118 
L 263.214545 128.978646 
L 254.196364 133.967622 
L 245.178182 139.954394 
L 236.16 144.94337 
L 227.141818 128.978646 
L 218.123636 131.972031 
L 209.105455 119.000693 
L 200.087273 115.009512 
L 191.069091 137.958803 
L 182.050909 123.989669 
L 173.032727 115.009512 
L 164.014545 114.011717 
L 154.996364 113.013921 
L 145.978182 105.031559 
L 136.96 105.031559 
L 127.941818 114.011717 
L 118.923636 134.965417 
L 109.905455 139.954394 
L 100.887273 133.967622 
L 91.869091 157.914709 
L 82.850909 139.954394 
L 73.832727 85.075654 
z
" style="fill:#ff7f0e;"/>
   </g>
   <g id="PolyCollection_13">
    <path clip-path="url(#pc96a95ec20)" d="M 73.832727 74.099906 
L 73.832727 85.075654 
L 82.850909 139.954394 
L 91.869091 157.914709 
L 100.887273 133.967622 
L 109.905455 139.954394 
L 118.923636 134.965417 
L 127.941818 114.011717 
L 136.96 105.031559 
L 145.978182 105.031559 
L 154.996364 113.013921 
L 164.014545 114.011717 
L 173.032727 115.009512 
L 182.050909 123.989669 
L 191.069091 137.958803 
L 200.087273 115.009512 
L 209.105455 119.000693 
L 218.123636 131.972031 
L 227.141818 128.978646 
L 236.16 144.94337 
L 245.178182 139.954394 
L 254.196364 133.967622 
L 263.214545 128.978646 
L 272.232727 155.919118 
L 281.250909 173.879433 
L 290.269091 173.879433 
L 299.287273 150.930142 
L 308.305455 158.912504 
L 317.323636 219.778016 
L 326.341818 190.841953 
L 335.36 186.850772 
L 344.378182 166.894866 
L 353.396364 221.773606 
L 362.414545 231.751559 
L 371.432727 219.778016 
L 380.450909 210.797858 
L 389.469091 212.793449 
L 398.487273 202.815496 
L 398.487273 188.846362 
L 398.487273 188.846362 
L 389.469091 199.82211 
L 380.450909 195.830929 
L 371.432727 204.811087 
L 362.414545 208.802268 
L 353.396364 209.800063 
L 344.378182 157.914709 
L 335.36 163.90148 
L 326.341818 174.877228 
L 317.323636 197.82652 
L 308.305455 147.936756 
L 299.287273 128.978646 
L 290.269091 149.932346 
L 281.250909 151.927937 
L 272.232727 115.009512 
L 263.214545 111.018331 
L 254.196364 100.042583 
L 245.178182 120.996283 
L 236.16 110.020535 
L 227.141818 98.046992 
L 218.123636 119.000693 
L 209.105455 111.018331 
L 200.087273 108.024945 
L 191.069091 122.991874 
L 182.050909 99.044787 
L 173.032727 95.053606 
L 164.014545 108.024945 
L 154.996364 105.031559 
L 145.978182 97.049197 
L 136.96 101.040378 
L 127.941818 108.024945 
L 118.923636 131.972031 
L 109.905455 129.976441 
L 100.887273 126.983055 
L 91.869091 141.949984 
L 82.850909 126.983055 
L 73.832727 74.099906 
z
" style="fill:#2ca02c;"/>
   </g>
   <g id="PolyCollection_14">
    <path clip-path="url(#pc96a95ec20)" d="M 73.832727 73.10211 
L 73.832727 74.099906 
L 82.850909 126.983055 
L 91.869091 141.949984 
L 100.887273 126.983055 
L 109.905455 129.976441 
L 118.923636 131.972031 
L 127.941818 108.024945 
L 136.96 101.040378 
L 145.978182 97.049197 
L 154.996364 105.031559 
L 164.014545 108.024945 
L 173.032727 95.053606 
L 182.050909 99.044787 
L 191.069091 122.991874 
L 200.087273 108.024945 
L 209.105455 111.018331 
L 218.123636 119.000693 
L 227.141818 98.046992 
L 236.16 110.020535 
L 245.178182 120.996283 
L 254.196364 100.042583 
L 263.214545 111.018331 
L 272.232727 115.009512 
L 281.250909 151.927937 
L 290.269091 149.932346 
L 299.287273 128.978646 
L 308.305455 147.936756 
L 317.323636 197.82652 
L 326.341818 174.877228 
L 335.36 163.90148 
L 344.378182 157.914709 
L 353.396364 209.800063 
L 362.414545 208.802268 
L 371.432727 204.811087 
L 380.450909 195.830929 
L 389.469091 199.82211 
L 398.487273 188.846362 
L 398.487273 188.846362 
L 398.487273 188.846362 
L 389.469091 199.82211 
L 380.450909 195.830929 
L 371.432727 204.811087 
L 362.414545 208.802268 
L 353.396364 209.800063 
L 344.378182 157.914709 
L 335.36 163.90148 
L 326.341818 174.877228 
L 317.323636 197.82652 
L 308.305455 144.94337 
L 299.287273 126.983055 
L 290.269091 146.938961 
L 281.250909 149.932346 
L 272.232727 112.016126 
L 263.214545 107.02715 
L 254.196364 97.049197 
L 245.178182 119.000693 
L 236.16 107.02715 
L 227.141818 96.051402 
L 218.123636 116.007307 
L 209.105455 109.02274 
L 200.087273 105.031559 
L 191.069091 120.996283 
L 182.050909 96.051402 
L 173.032727 91.062425 
L 164.014545 103.035969 
L 154.996364 99.044787 
L 145.978182 92.06022 
L 136.96 98.046992 
L 127.941818 103.035969 
L 118.923636 128.978646 
L 109.905455 124.987465 
L 100.887273 121.994079 
L 91.869091 135.963213 
L 82.850909 122.991874 
L 73.832727 73.10211 
z
" style="fill:#d62728;"/>
   </g>
   <g id="PolyCollection_15">
    <path clip-path="url(#pc96a95ec20)" d="M 73.832727 69.110929 
L 73.832727 73.10211 
L 82.850909 122.991874 
L 91.869091 135.963213 
L 100.887273 121.994079 
L 109.905455 124.987465 
L 118.923636 128.978646 
L 127.941818 103.035969 
L 136.96 98.046992 
L 145.978182 92.06022 
L 154.996364 99.044787 
L 164.014545 103.035969 
L 173.032727 91.062425 
L 182.050909 96.051402 
L 191.069091 120.996283 
L 200.087273 105.031559 
L 209.105455 109.02274 
L 218.123636 116.007307 
L 227.141818 96.051402 
L 236.16 107.02715 
L 245.178182 119.000693 
L 254.196364 97.049197 
L 263.214545 107.02715 
L 272.232727 112.016126 
L 281.250909 149.932346 
L 290.269091 146.938961 
L 299.287273 126.983055 
L 308.305455 144.94337 
L 317.323636 197.82652 
L 326.341818 174.877228 
L 335.36 163.90148 
L 344.378182 157.914709 
L 353.396364 209.800063 
L 362.414545 208.802268 
L 371.432727 204.811087 
L 380.450909 195.830929 
L 389.469091 199.82211 
L 398.487273 188.846362 
L 398.487273 165.897071 
L 398.487273 165.897071 
L 389.469091 170.886047 
L 380.450909 157.914709 
L 371.432727 187.848567 
L 362.414545 202.815496 
L 353.396364 187.848567 
L 344.378182 143.945575 
L 335.36 148.934551 
L 326.341818 163.90148 
L 317.323636 185.852976 
L 308.305455 132.969827 
L 299.287273 120.996283 
L 290.269091 119.000693 
L 281.250909 128.978646 
L 272.232727 93.058016 
L 263.214545 101.040378 
L 254.196364 89.066835 
L 245.178182 101.040378 
L 236.16 96.051402 
L 227.141818 88.069039 
L 218.123636 95.053606 
L 209.105455 102.038173 
L 200.087273 99.044787 
L 191.069091 94.055811 
L 182.050909 84.077858 
L 173.032727 85.075654 
L 164.014545 83.080063 
L 154.996364 87.071244 
L 145.978182 90.06463 
L 136.96 88.069039 
L 127.941818 98.046992 
L 118.923636 102.038173 
L 109.905455 101.040378 
L 100.887273 109.02274 
L 91.869091 103.035969 
L 82.850909 93.058016 
L 73.832727 69.110929 
z
" style="fill:#9467bd;"/>
   </g>
   <g id="PolyCollection_16">
    <path clip-path="url(#pc96a95ec20)" d="M 73.832727 68.113134 
L 73.832727 69.110929 
L 82.850909 93.058016 
L 91.869091 103.035969 
L 100.887273 109.02274 
L 109.905455 101.040378 
L 118.923636 102.038173 
L 127.941818 98.046992 
L 136.96 88.069039 
L 145.978182 90.06463 
L 154.996364 87.071244 
L 164.014545 83.080063 
L 173.032727 85.075654 
L 182.050909 84.077858 
L 191.069091 94.055811 
L 200.087273 99.044787 
L 209.105455 102.038173 
L 218.123636 95.053606 
L 227.141818 88.069039 
L 236.16 96.051402 
L 245.178182 101.040378 
L 254.196364 89.066835 
L 263.214545 101.040378 
L 272.232727 93.058016 
L 281.250909 128.978646 
L 290.269091 119.000693 
L 299.287273 120.996283 
L 308.305455 132.969827 
L 317.323636 185.852976 
L 326.341818 163.90148 
L 335.36 148.934551 
L 344.378182 143.945575 
L 353.396364 187.848567 
L 362.414545 202.815496 
L 371.432727 187.848567 
L 380.450909 157.914709 
L 389.469091 170.886047 
L 398.487273 165.897071 
L 398.487273 165.897071 
L 398.487273 165.897071 
L 389.469091 170.886047 
L 380.450909 157.914709 
L 371.432727 187.848567 
L 362.414545 202.815496 
L 353.396364 187.848567 
L 344.378182 143.945575 
L 335.36 148.934551 
L 326.341818 163.90148 
L 317.323636 185.852976 
L 308.305455 132.969827 
L 299.287273 120.996283 
L 290.269091 119.000693 
L 281.250909 128.978646 
L 272.232727 93.058016 
L 263.214545 98.046992 
L 254.196364 87.071244 
L 245.178182 99.044787 
L 236.16 94.055811 
L 227.141818 86.073449 
L 218.123636 92.06022 
L 209.105455 100.042583 
L 200.087273 96.051402 
L 191.069091 89.066835 
L 182.050909 80.086677 
L 173.032727 82.082268 
L 164.014545 81.084472 
L 154.996364 84.077858 
L 145.978182 88.069039 
L 136.96 86.073449 
L 127.941818 95.053606 
L 118.923636 97.049197 
L 109.905455 97.049197 
L 100.887273 104.033764 
L 91.869091 97.049197 
L 82.850909 91.062425 
L 73.832727 68.113134 
z
" style="fill:#8c564b;"/>
   </g>
   <g id="PolyCollection_17">
    <path clip-path="url(#pc96a95ec20)" d="M 73.832727 67.115339 
L 73.832727 68.113134 
L 82.850909 91.062425 
L 91.869091 97.049197 
L 100.887273 104.033764 
L 109.905455 97.049197 
L 118.923636 97.049197 
L 127.941818 95.053606 
L 136.96 86.073449 
L 145.978182 88.069039 
L 154.996364 84.077858 
L 164.014545 81.084472 
L 173.032727 82.082268 
L 182.050909 80.086677 
L 191.069091 89.066835 
L 200.087273 96.051402 
L 209.105455 100.042583 
L 218.123636 92.06022 
L 227.141818 86.073449 
L 236.16 94.055811 
L 245.178182 99.044787 
L 254.196364 87.071244 
L 263.214545 98.046992 
L 272.232727 93.058016 
L 281.250909 128.978646 
L 290.269091 119.000693 
L 299.287273 120.996283 
L 308.305455 132.969827 
L 317.323636 185.852976 
L 326.341818 163.90148 
L 335.36 148.934551 
L 344.378182 143.945575 
L 353.396364 187.848567 
L 362.414545 202.815496 
L 371.432727 187.848567 
L 380.450909 157.914709 
L 389.469091 170.886047 
L 398.487273 165.897071 
L 398.487273 165.897071 
L 398.487273 165.897071 
L 389.469091 170.886047 
L 380.450909 157.914709 
L 371.432727 187.848567 
L 362.414545 202.815496 
L 353.396364 185.852976 
L 344.378182 141.949984 
L 335.36 145.941165 
L 326.341818 161.90589 
L 317.323636 182.859591 
L 308.305455 130.974236 
L 299.287273 119.000693 
L 290.269091 117.005102 
L 281.250909 125.98526 
L 272.232727 90.06463 
L 263.214545 96.051402 
L 254.196364 85.075654 
L 245.178182 96.051402 
L 236.16 90.06463 
L 227.141818 83.080063 
L 218.123636 89.066835 
L 209.105455 98.046992 
L 200.087273 93.058016 
L 191.069091 87.071244 
L 182.050909 78.091087 
L 173.032727 78.091087 
L 164.014545 78.091087 
L 154.996364 80.086677 
L 145.978182 83.080063 
L 136.96 82.082268 
L 127.941818 92.06022 
L 118.923636 95.053606 
L 109.905455 94.055811 
L 100.887273 100.042583 
L 91.869091 92.06022 
L 82.850909 86.073449 
L 73.832727 67.115339 
z
" style="fill:#e377c2;"/>
   </g>
   <g id="PolyCollection_18">
    <path clip-path="url(#pc96a95ec20)" d="M 73.832727 66.117543 
L 73.832727 67.115339 
L 82.850909 86.073449 
L 91.869091 92.06022 
L 100.887273 100.042583 
L 109.905455 94.055811 
L 118.923636 95.053606 
L 127.941818 92.06022 
L 136.96 82.082268 
L 145.978182 83.080063 
L 154.996364 80.086677 
L 164.014545 78.091087 
L 173.032727 78.091087 
L 182.050909 78.091087 
L 191.069091 87.071244 
L 200.087273 93.058016 
L 209.105455 98.046992 
L 218.123636 89.066835 
L 227.141818 83.080063 
L 236.16 90.06463 
L 245.178182 96.051402 
L 254.196364 85.075654 
L 263.214545 96.051402 
L 272.232727 90.06463 
L 281.250909 125.98526 
L 290.269091 117.005102 
L 299.287273 119.000693 
L 308.305455 130.974236 
L 317.323636 182.859591 
L 326.341818 161.90589 
L 335.36 145.941165 
L 344.378182 141.949984 
L 353.396364 185.852976 
L 362.414545 202.815496 
L 371.432727 187.848567 
L 380.450909 157.914709 
L 389.469091 170.886047 
L 398.487273 165.897071 
L 398.487273 149.932346 
L 398.487273 149.932346 
L 389.469091 138.956598 
L 380.450909 137.958803 
L 371.432727 174.877228 
L 362.414545 169.888252 
L 353.396364 154.921323 
L 344.378182 120.996283 
L 335.36 102.038173 
L 326.341818 132.969827 
L 317.323636 150.930142 
L 308.305455 112.016126 
L 299.287273 116.007307 
L 290.269091 114.011717 
L 281.250909 124.987465 
L 272.232727 86.073449 
L 263.214545 91.062425 
L 254.196364 82.082268 
L 245.178182 94.055811 
L 236.16 87.071244 
L 227.141818 79.088882 
L 218.123636 86.073449 
L 209.105455 95.053606 
L 200.087273 91.062425 
L 191.069091 85.075654 
L 182.050909 75.097701 
L 173.032727 76.095496 
L 164.014545 75.097701 
L 154.996364 76.095496 
L 145.978182 79.088882 
L 136.96 79.088882 
L 127.941818 88.069039 
L 118.923636 90.06463 
L 109.905455 88.069039 
L 100.887273 95.053606 
L 91.869091 87.071244 
L 82.850909 79.088882 
L 73.832727 66.117543 
z
" style="fill:#7f7f7f;"/>
   </g>
   <g id="PolyCollection_19">
    <path clip-path="url(#pc96a95ec20)" d="M 73.832727 65.119748 
L 73.832727 66.117543 
L 82.850909 79.088882 
L 91.869091 87.071244 
L 100.887273 95.053606 
L 109.905455 88.069039 
L 118.923636 90.06463 
L 127.941818 88.069039 
L 136.96 79.088882 
L 145.978182 79.088882 
L 154.996364 76.095496 
L 164.014545 75.097701 
L 173.032727 76.095496 
L 182.050909 75.097701 
L 191.069091 85.075654 
L 200.087273 91.062425 
L 209.105455 95.053606 
L 218.123636 86.073449 
L 227.141818 79.088882 
L 236.16 87.071244 
L 245.178182 94.055811 
L 254.196364 82.082268 
L 263.214545 91.062425 
L 272.232727 86.073449 
L 281.250909 124.987465 
L 290.269091 114.011717 
L 299.287273 116.007307 
L 308.305455 112.016126 
L 317.323636 150.930142 
L 326.341818 132.969827 
L 335.36 102.038173 
L 344.378182 120.996283 
L 353.396364 154.921323 
L 362.414545 169.888252 
L 371.432727 174.877228 
L 380.450909 137.958803 
L 389.469091 138.956598 
L 398.487273 149.932346 
L 398.487273 149.932346 
L 398.487273 149.932346 
L 389.469091 138.956598 
L 380.450909 137.958803 
L 371.432727 174.877228 
L 362.414545 169.888252 
L 353.396364 152.925732 
L 344.378182 119.000693 
L 335.36 100.042583 
L 326.341818 130.974236 
L 317.323636 148.934551 
L 308.305455 110.020535 
L 299.287273 114.011717 
L 290.269091 112.016126 
L 281.250909 121.994079 
L 272.232727 82.082268 
L 263.214545 88.069039 
L 254.196364 80.086677 
L 245.178182 91.062425 
L 236.16 85.075654 
L 227.141818 76.095496 
L 218.123636 82.082268 
L 209.105455 93.058016 
L 200.087273 88.069039 
L 191.069091 81.084472 
L 182.050909 72.104315 
L 173.032727 74.099906 
L 164.014545 73.10211 
L 154.996364 73.10211 
L 145.978182 77.093291 
L 136.96 76.095496 
L 127.941818 84.077858 
L 118.923636 86.073449 
L 109.905455 86.073449 
L 100.887273 91.062425 
L 91.869091 82.082268 
L 82.850909 75.097701 
L 73.832727 65.119748 
z
" style="fill:#bcbd22;"/>
   </g>
   <g id="PolyCollection_20">
    <path clip-path="url(#pc96a95ec20)" d="M 73.832727 63.124157 
L 73.832727 65.119748 
L 82.850909 75.097701 
L 91.869091 82.082268 
L 100.887273 91.062425 
L 109.905455 86.073449 
L 118.923636 86.073449 
L 127.941818 84.077858 
L 136.96 76.095496 
L 145.978182 77.093291 
L 154.996364 73.10211 
L 164.014545 73.10211 
L 173.032727 74.099906 
L 182.050909 72.104315 
L 191.069091 81.084472 
L 200.087273 88.069039 
L 209.105455 93.058016 
L 218.123636 82.082268 
L 227.141818 76.095496 
L 236.16 85.075654 
L 245.178182 91.062425 
L 254.196364 80.086677 
L 263.214545 88.069039 
L 272.232727 82.082268 
L 281.250909 121.994079 
L 290.269091 112.016126 
L 299.287273 114.011717 
L 308.305455 110.020535 
L 317.323636 148.934551 
L 326.341818 130.974236 
L 335.36 100.042583 
L 344.378182 119.000693 
L 353.396364 152.925732 
L 362.414545 169.888252 
L 371.432727 174.877228 
L 380.450909 137.958803 
L 389.469091 138.956598 
L 398.487273 149.932346 
L 398.487273 137.958803 
L 398.487273 137.958803 
L 389.469091 116.007307 
L 380.450909 108.024945 
L 371.432727 115.009512 
L 362.414545 113.013921 
L 353.396364 101.040378 
L 344.378182 98.046992 
L 335.36 84.077858 
L 326.341818 96.051402 
L 317.323636 89.066835 
L 308.305455 84.077858 
L 299.287273 76.095496 
L 290.269091 86.073449 
L 281.250909 98.046992 
L 272.232727 71.10652 
L 263.214545 69.110929 
L 254.196364 67.115339 
L 245.178182 70.108724 
L 236.16 68.113134 
L 227.141818 68.113134 
L 218.123636 68.113134 
L 209.105455 71.10652 
L 200.087273 69.110929 
L 191.069091 72.104315 
L 182.050909 69.110929 
L 173.032727 70.108724 
L 164.014545 70.108724 
L 154.996364 71.10652 
L 145.978182 74.099906 
L 136.96 72.104315 
L 127.941818 74.099906 
L 118.923636 77.093291 
L 109.905455 76.095496 
L 100.887273 81.084472 
L 91.869091 78.091087 
L 82.850909 72.104315 
L 73.832727 63.124157 
z
" style="fill:#17becf;"/>
   </g>
   <g id="PolyCollection_21">
    <path clip-path="url(#pc96a95ec20)" d="M 73.832727 62.126362 
L 73.832727 63.124157 
L 82.850909 72.104315 
L 91.869091 78.091087 
L 100.887273 81.084472 
L 109.905455 76.095496 
L 118.923636 77.093291 
L 127.941818 74.099906 
L 136.96 72.104315 
L 145.978182 74.099906 
L 154.996364 71.10652 
L 164.014545 70.108724 
L 173.032727 70.108724 
L 182.050909 69.110929 
L 191.069091 72.104315 
L 200.087273 69.110929 
L 209.105455 71.10652 
L 218.123636 68.113134 
L 227.141818 68.113134 
L 236.16 68.113134 
L 245.178182 70.108724 
L 254.196364 67.115339 
L 263.214545 69.110929 
L 272.232727 71.10652 
L 281.250909 98.046992 
L 290.269091 86.073449 
L 299.287273 76.095496 
L 308.305455 84.077858 
L 317.323636 89.066835 
L 326.341818 96.051402 
L 335.36 84.077858 
L 344.378182 98.046992 
L 353.396364 101.040378 
L 362.414545 113.013921 
L 371.432727 115.009512 
L 380.450909 108.024945 
L 389.469091 116.007307 
L 398.487273 137.958803 
L 398.487273 103.035969 
L 398.487273 103.035969 
L 389.469091 101.040378 
L 380.450909 85.075654 
L 371.432727 85.075654 
L 362.414545 87.071244 
L 353.396364 91.062425 
L 344.378182 77.093291 
L 335.36 69.110929 
L 326.341818 85.075654 
L 317.323636 68.113134 
L 308.305455 68.113134 
L 299.287273 65.119748 
L 290.269091 65.119748 
L 281.250909 66.117543 
L 272.232727 65.119748 
L 263.214545 66.117543 
L 254.196364 66.117543 
L 245.178182 67.115339 
L 236.16 63.124157 
L 227.141818 66.117543 
L 218.123636 65.119748 
L 209.105455 68.113134 
L 200.087273 67.115339 
L 191.069091 69.110929 
L 182.050909 65.119748 
L 173.032727 67.115339 
L 164.014545 68.113134 
L 154.996364 68.113134 
L 145.978182 70.108724 
L 136.96 69.110929 
L 127.941818 72.104315 
L 118.923636 73.10211 
L 109.905455 72.104315 
L 100.887273 75.097701 
L 91.869091 72.104315 
L 82.850909 70.108724 
L 73.832727 62.126362 
z
" style="fill:#1f77b4;"/>
   </g>
   <g id="PolyCollection_22">
    <path clip-path="url(#pc96a95ec20)" d="M 73.832727 61.128567 
L 73.832727 62.126362 
L 82.850909 70.108724 
L 91.869091 72.104315 
L 100.887273 75.097701 
L 109.905455 72.104315 
L 118.923636 73.10211 
L 127.941818 72.104315 
L 136.96 69.110929 
L 145.978182 70.108724 
L 154.996364 68.113134 
L 164.014545 68.113134 
L 173.032727 67.115339 
L 182.050909 65.119748 
L 191.069091 69.110929 
L 200.087273 67.115339 
L 209.105455 68.113134 
L 218.123636 65.119748 
L 227.141818 66.117543 
L 236.16 63.124157 
L 245.178182 67.115339 
L 254.196364 66.117543 
L 263.214545 66.117543 
L 272.232727 65.119748 
L 281.250909 66.117543 
L 290.269091 65.119748 
L 299.287273 65.119748 
L 308.305455 68.113134 
L 317.323636 68.113134 
L 326.341818 85.075654 
L 335.36 69.110929 
L 344.378182 77.093291 
L 353.396364 91.062425 
L 362.414545 87.071244 
L 371.432727 85.075654 
L 380.450909 85.075654 
L 389.469091 101.040378 
L 398.487273 103.035969 
L 398.487273 103.035969 
L 398.487273 103.035969 
L 389.469091 101.040378 
L 380.450909 85.075654 
L 371.432727 82.082268 
L 362.414545 85.075654 
L 353.396364 86.073449 
L 344.378182 74.099906 
L 335.36 67.115339 
L 326.341818 83.080063 
L 317.323636 66.117543 
L 308.305455 66.117543 
L 299.287273 63.124157 
L 290.269091 62.126362 
L 281.250909 62.126362 
L 272.232727 63.124157 
L 263.214545 64.121953 
L 254.196364 64.121953 
L 245.178182 64.121953 
L 236.16 61.128567 
L 227.141818 62.126362 
L 218.123636 62.126362 
L 209.105455 65.119748 
L 200.087273 65.119748 
L 191.069091 67.115339 
L 182.050909 63.124157 
L 173.032727 65.119748 
L 164.014545 66.117543 
L 154.996364 66.117543 
L 145.978182 67.115339 
L 136.96 67.115339 
L 127.941818 70.108724 
L 118.923636 70.108724 
L 109.905455 68.113134 
L 100.887273 73.10211 
L 91.869091 69.110929 
L 82.850909 68.113134 
L 73.832727 61.128567 
z
" style="fill:#ff7f0e;"/>
   </g>
   <g id="PolyCollection_23">
    <path clip-path="url(#pc96a95ec20)" d="M 73.832727 60.130772 
L 73.832727 61.128567 
L 82.850909 68.113134 
L 91.869091 69.110929 
L 100.887273 73.10211 
L 109.905455 68.113134 
L 118.923636 70.108724 
L 127.941818 70.108724 
L 136.96 67.115339 
L 145.978182 67.115339 
L 154.996364 66.117543 
L 164.014545 66.117543 
L 173.032727 65.119748 
L 182.050909 63.124157 
L 191.069091 67.115339 
L 200.087273 65.119748 
L 209.105455 65.119748 
L 218.123636 62.126362 
L 227.141818 62.126362 
L 236.16 61.128567 
L 245.178182 64.121953 
L 254.196364 64.121953 
L 263.214545 64.121953 
L 272.232727 63.124157 
L 281.250909 62.126362 
L 290.269091 62.126362 
L 299.287273 63.124157 
L 308.305455 66.117543 
L 317.323636 66.117543 
L 326.341818 83.080063 
L 335.36 67.115339 
L 344.378182 74.099906 
L 353.396364 86.073449 
L 362.414545 85.075654 
L 371.432727 82.082268 
L 380.450909 85.075654 
L 389.469091 101.040378 
L 398.487273 103.035969 
L 398.487273 103.035969 
L 398.487273 103.035969 
L 389.469091 101.040378 
L 380.450909 85.075654 
L 371.432727 82.082268 
L 362.414545 85.075654 
L 353.396364 86.073449 
L 344.378182 74.099906 
L 335.36 67.115339 
L 326.341818 80.086677 
L 317.323636 64.121953 
L 308.305455 63.124157 
L 299.287273 61.128567 
L 290.269091 60.130772 
L 281.250909 59.132976 
L 272.232727 61.128567 
L 263.214545 62.126362 
L 254.196364 61.128567 
L 245.178182 62.126362 
L 236.16 59.132976 
L 227.141818 60.130772 
L 218.123636 59.132976 
L 209.105455 62.126362 
L 200.087273 63.124157 
L 191.069091 64.121953 
L 182.050909 61.128567 
L 173.032727 63.124157 
L 164.014545 64.121953 
L 154.996364 61.128567 
L 145.978182 63.124157 
L 136.96 65.119748 
L 127.941818 67.115339 
L 118.923636 66.117543 
L 109.905455 66.117543 
L 100.887273 70.108724 
L 91.869091 65.119748 
L 82.850909 63.124157 
L 73.832727 60.130772 
z
" style="fill:#2ca02c;"/>
   </g>
   <g id="PolyCollection_24">
    <path clip-path="url(#pc96a95ec20)" d="M 73.832727 59.132976 
L 73.832727 60.130772 
L 82.850909 63.124157 
L 91.869091 65.119748 
L 100.887273 70.108724 
L 109.905455 66.117543 
L 118.923636 66.117543 
L 127.941818 67.115339 
L 136.96 65.119748 
L 145.978182 63.124157 
L 154.996364 61.128567 
L 164.014545 64.121953 
L 173.032727 63.124157 
L 182.050909 61.128567 
L 191.069091 64.121953 
L 200.087273 63.124157 
L 209.105455 62.126362 
L 218.123636 59.132976 
L 227.141818 60.130772 
L 236.16 59.132976 
L 245.178182 62.126362 
L 254.196364 61.128567 
L 263.214545 62.126362 
L 272.232727 61.128567 
L 281.250909 59.132976 
L 290.269091 60.130772 
L 299.287273 61.128567 
L 308.305455 63.124157 
L 317.323636 64.121953 
L 326.341818 80.086677 
L 335.36 67.115339 
L 344.378182 74.099906 
L 353.396364 86.073449 
L 362.414545 85.075654 
L 371.432727 82.082268 
L 380.450909 85.075654 
L 389.469091 101.040378 
L 398.487273 103.035969 
L 398.487273 81.084472 
L 398.487273 81.084472 
L 389.469091 81.084472 
L 380.450909 71.10652 
L 371.432727 62.126362 
L 362.414545 63.124157 
L 353.396364 61.128567 
L 344.378182 58.135181 
L 335.36 61.128567 
L 326.341818 59.132976 
L 317.323636 58.135181 
L 308.305455 60.130772 
L 299.287273 58.135181 
L 290.269091 57.137386 
L 281.250909 56.139591 
L 272.232727 57.137386 
L 263.214545 60.130772 
L 254.196364 58.135181 
L 245.178182 60.130772 
L 236.16 57.137386 
L 227.141818 58.135181 
L 218.123636 56.139591 
L 209.105455 60.130772 
L 200.087273 61.128567 
L 191.069091 61.128567 
L 182.050909 57.137386 
L 173.032727 60.130772 
L 164.014545 62.126362 
L 154.996364 58.135181 
L 145.978182 59.132976 
L 136.96 61.128567 
L 127.941818 63.124157 
L 118.923636 63.124157 
L 109.905455 64.121953 
L 100.887273 65.119748 
L 91.869091 62.126362 
L 82.850909 61.128567 
L 73.832727 59.132976 
z
" style="fill:#d62728;"/>
   </g>
   <g id="PolyCollection_25">
    <path clip-path="url(#pc96a95ec20)" d="M 73.832727 58.135181 
L 73.832727 59.132976 
L 82.850909 61.128567 
L 91.869091 62.126362 
L 100.887273 65.119748 
L 109.905455 64.121953 
L 118.923636 63.124157 
L 127.941818 63.124157 
L 136.96 61.128567 
L 145.978182 59.132976 
L 154.996364 58.135181 
L 164.014545 62.126362 
L 173.032727 60.130772 
L 182.050909 57.137386 
L 191.069091 61.128567 
L 200.087273 61.128567 
L 209.105455 60.130772 
L 218.123636 56.139591 
L 227.141818 58.135181 
L 236.16 57.137386 
L 245.178182 60.130772 
L 254.196364 58.135181 
L 263.214545 60.130772 
L 272.232727 57.137386 
L 281.250909 56.139591 
L 290.269091 57.137386 
L 299.287273 58.135181 
L 308.305455 60.130772 
L 317.323636 58.135181 
L 326.341818 59.132976 
L 335.36 61.128567 
L 344.378182 58.135181 
L 353.396364 61.128567 
L 362.414545 63.124157 
L 371.432727 62.126362 
L 380.450909 71.10652 
L 389.469091 81.084472 
L 398.487273 81.084472 
L 398.487273 76.095496 
L 398.487273 76.095496 
L 389.469091 79.088882 
L 380.450909 68.113134 
L 371.432727 60.130772 
L 362.414545 60.130772 
L 353.396364 59.132976 
L 344.378182 56.139591 
L 335.36 59.132976 
L 326.341818 57.137386 
L 317.323636 56.139591 
L 308.305455 57.137386 
L 299.287273 55.141795 
L 290.269091 55.141795 
L 281.250909 54.144 
L 272.232727 55.141795 
L 263.214545 57.137386 
L 254.196364 56.139591 
L 245.178182 58.135181 
L 236.16 54.144 
L 227.141818 56.139591 
L 218.123636 54.144 
L 209.105455 57.137386 
L 200.087273 59.132976 
L 191.069091 59.132976 
L 182.050909 55.141795 
L 173.032727 57.137386 
L 164.014545 60.130772 
L 154.996364 55.141795 
L 145.978182 56.139591 
L 136.96 57.137386 
L 127.941818 60.130772 
L 118.923636 59.132976 
L 109.905455 61.128567 
L 100.887273 61.128567 
L 91.869091 58.135181 
L 82.850909 55.141795 
L 73.832727 58.135181 
z
" style="fill:#9467bd;"/>
   </g>
   <g id="PolyCollection_26">
    <path clip-path="url(#pc96a95ec20)" d="M 73.832727 58.135181 
L 73.832727 58.135181 
L 82.850909 55.141795 
L 91.869091 58.135181 
L 100.887273 61.128567 
L 109.905455 61.128567 
L 118.923636 59.132976 
L 127.941818 60.130772 
L 136.96 57.137386 
L 145.978182 56.139591 
L 154.996364 55.141795 
L 164.014545 60.130772 
L 173.032727 57.137386 
L 182.050909 55.141795 
L 191.069091 59.132976 
L 200.087273 59.132976 
L 209.105455 57.137386 
L 218.123636 54.144 
L 227.141818 56.139591 
L 236.16 54.144 
L 245.178182 58.135181 
L 254.196364 56.139591 
L 263.214545 57.137386 
L 272.232727 55.141795 
L 281.250909 54.144 
L 290.269091 55.141795 
L 299.287273 55.141795 
L 308.305455 57.137386 
L 317.323636 56.139591 
L 326.341818 57.137386 
L 335.36 59.132976 
L 344.378182 56.139591 
L 353.396364 59.132976 
L 362.414545 60.130772 
L 371.432727 60.130772 
L 380.450909 68.113134 
L 389.469091 79.088882 
L 398.487273 76.095496 
L 398.487273 57.137386 
L 398.487273 57.137386 
L 389.469091 58.135181 
L 380.450909 59.132976 
L 371.432727 60.130772 
L 362.414545 60.130772 
L 353.396364 59.132976 
L 344.378182 56.139591 
L 335.36 59.132976 
L 326.341818 57.137386 
L 317.323636 56.139591 
L 308.305455 57.137386 
L 299.287273 55.141795 
L 290.269091 55.141795 
L 281.250909 54.144 
L 272.232727 55.141795 
L 263.214545 57.137386 
L 254.196364 56.139591 
L 245.178182 58.135181 
L 236.16 54.144 
L 227.141818 56.139591 
L 218.123636 54.144 
L 209.105455 57.137386 
L 200.087273 59.132976 
L 191.069091 59.132976 
L 182.050909 55.141795 
L 173.032727 57.137386 
L 164.014545 60.130772 
L 154.996364 55.141795 
L 145.978182 56.139591 
L 136.96 57.137386 
L 127.941818 60.130772 
L 118.923636 59.132976 
L 109.905455 61.128567 
L 100.887273 61.128567 
L 91.869091 58.135181 
L 82.850909 55.141795 
L 73.832727 58.135181 
z
" style="fill:#8c564b;"/>
   </g>
   <g id="matplotlib.axis_1">
    <g id="xtick_1">
     <g id="line2d_1">
      <defs>
       <path d="M 0 0 
L 0 3.5 
" id="md477fa9aa7" style="stroke:#000000;stroke-width:0.8;"/>
      </defs>
      <g>
       <use style="stroke:#000000;stroke-width:0.8;" x="73.832727" xlink:href="#md477fa9aa7" y="307.584"/>
      </g>
     </g>
     <g id="text_1">
      <!-- 0 -->
      <defs>
       <path d="M 31.78125 66.40625 
Q 24.171875 66.40625 20.328125 58.90625 
Q 16.5 51.421875 16.5 36.375 
Q 16.5 21.390625 20.328125 13.890625 
Q 24.171875 6.390625 31.78125 6.390625 
Q 39.453125 6.390625 43.28125 13.890625 
Q 47.125 21.390625 47.125 36.375 
Q 47.125 51.421875 43.28125 58.90625 
Q 39.453125 66.40625 31.78125 66.40625 
z
M 31.78125 74.21875 
Q 44.046875 74.21875 50.515625 64.515625 
Q 56.984375 54.828125 56.984375 36.375 
Q 56.984375 17.96875 50.515625 8.265625 
Q 44.046875 -1.421875 31.78125 -1.421875 
Q 19.53125 -1.421875 13.0625 8.265625 
Q 6.59375 17.96875 6.59375 36.375 
Q 6.59375 54.828125 13.0625 64.515625 
Q 19.53125 74.21875 31.78125 74.21875 
z
" id="DejaVuSans-48"/>
      </defs>
      <g transform="translate(70.651477 322.182437)scale(0.1 -0.1)">
       <use xlink:href="#DejaVuSans-48"/>
      </g>
     </g>
    </g>
    <g id="xtick_2">
     <g id="line2d_2">
      <g>
       <use style="stroke:#000000;stroke-width:0.8;" x="118.923636" xlink:href="#md477fa9aa7" y="307.584"/>
      </g>
     </g>
     <g id="text_2">
      <!-- 5 -->
      <defs>
       <path d="M 10.796875 72.90625 
L 49.515625 72.90625 
L 49.515625 64.59375 
L 19.828125 64.59375 
L 19.828125 46.734375 
Q 21.96875 47.46875 24.109375 47.828125 
Q 26.265625 48.1875 28.421875 48.1875 
Q 40.625 48.1875 47.75 41.5 
Q 54.890625 34.8125 54.890625 23.390625 
Q 54.890625 11.625 47.5625 5.09375 
Q 40.234375 -1.421875 26.90625 -1.421875 
Q 22.3125 -1.421875 17.546875 -0.640625 
Q 12.796875 0.140625 7.71875 1.703125 
L 7.71875 11.625 
Q 12.109375 9.234375 16.796875 8.0625 
Q 21.484375 6.890625 26.703125 6.890625 
Q 35.15625 6.890625 40.078125 11.328125 
Q 45.015625 15.765625 45.015625 23.390625 
Q 45.015625 31 40.078125 35.4375 
Q 35.15625 39.890625 26.703125 39.890625 
Q 22.75 39.890625 18.8125 39.015625 
Q 14.890625 38.140625 10.796875 36.28125 
z
" id="DejaVuSans-53"/>
      </defs>
      <g transform="translate(115.742386 322.182437)scale(0.1 -0.1)">
       <use xlink:href="#DejaVuSans-53"/>
      </g>
     </g>
    </g>
    <g id="xtick_3">
     <g id="line2d_3">
      <g>
       <use style="stroke:#000000;stroke-width:0.8;" x="164.014545" xlink:href="#md477fa9aa7" y="307.584"/>
      </g>
     </g>
     <g id="text_3">
      <!-- 10 -->
      <defs>
       <path d="M 12.40625 8.296875 
L 28.515625 8.296875 
L 28.515625 63.921875 
L 10.984375 60.40625 
L 10.984375 69.390625 
L 28.421875 72.90625 
L 38.28125 72.90625 
L 38.28125 8.296875 
L 54.390625 8.296875 
L 54.390625 0 
L 12.40625 0 
z
" id="DejaVuSans-49"/>
      </defs>
      <g transform="translate(157.652045 322.182437)scale(0.1 -0.1)">
       <use xlink:href="#DejaVuSans-49"/>
       <use x="63.623047" xlink:href="#DejaVuSans-48"/>
      </g>
     </g>
    </g>
    <g id="xtick_4">
     <g id="line2d_4">
      <g>
       <use style="stroke:#000000;stroke-width:0.8;" x="209.105455" xlink:href="#md477fa9aa7" y="307.584"/>
      </g>
     </g>
     <g id="text_4">
      <!-- 15 -->
      <g transform="translate(202.742955 322.182437)scale(0.1 -0.1)">
       <use xlink:href="#DejaVuSans-49"/>
       <use x="63.623047" xlink:href="#DejaVuSans-53"/>
      </g>
     </g>
    </g>
    <g id="xtick_5">
     <g id="line2d_5">
      <g>
       <use style="stroke:#000000;stroke-width:0.8;" x="254.196364" xlink:href="#md477fa9aa7" y="307.584"/>
      </g>
     </g>
     <g id="text_5">
      <!-- 20 -->
      <defs>
       <path d="M 19.1875 8.296875 
L 53.609375 8.296875 
L 53.609375 0 
L 7.328125 0 
L 7.328125 8.296875 
Q 12.9375 14.109375 22.625 23.890625 
Q 32.328125 33.6875 34.8125 36.53125 
Q 39.546875 41.84375 41.421875 45.53125 
Q 43.3125 49.21875 43.3125 52.78125 
Q 43.3125 58.59375 39.234375 62.25 
Q 35.15625 65.921875 28.609375 65.921875 
Q 23.96875 65.921875 18.8125 64.3125 
Q 13.671875 62.703125 7.8125 59.421875 
L 7.8125 69.390625 
Q 13.765625 71.78125 18.9375 73 
Q 24.125 74.21875 28.421875 74.21875 
Q 39.75 74.21875 46.484375 68.546875 
Q 53.21875 62.890625 53.21875 53.421875 
Q 53.21875 48.921875 51.53125 44.890625 
Q 49.859375 40.875 45.40625 35.40625 
Q 44.1875 33.984375 37.640625 27.21875 
Q 31.109375 20.453125 19.1875 8.296875 
z
" id="DejaVuSans-50"/>
      </defs>
      <g transform="translate(247.833864 322.182437)scale(0.1 -0.1)">
       <use xlink:href="#DejaVuSans-50"/>
       <use x="63.623047" xlink:href="#DejaVuSans-48"/>
      </g>
     </g>
    </g>
    <g id="xtick_6">
     <g id="line2d_6">
      <g>
       <use style="stroke:#000000;stroke-width:0.8;" x="299.287273" xlink:href="#md477fa9aa7" y="307.584"/>
      </g>
     </g>
     <g id="text_6">
      <!-- 25 -->
      <g transform="translate(292.924773 322.182437)scale(0.1 -0.1)">
       <use xlink:href="#DejaVuSans-50"/>
       <use x="63.623047" xlink:href="#DejaVuSans-53"/>
      </g>
     </g>
    </g>
    <g id="xtick_7">
     <g id="line2d_7">
      <g>
       <use style="stroke:#000000;stroke-width:0.8;" x="344.378182" xlink:href="#md477fa9aa7" y="307.584"/>
      </g>
     </g>
     <g id="text_7">
      <!-- 30 -->
      <defs>
       <path d="M 40.578125 39.3125 
Q 47.65625 37.796875 51.625 33 
Q 55.609375 28.21875 55.609375 21.1875 
Q 55.609375 10.40625 48.1875 4.484375 
Q 40.765625 -1.421875 27.09375 -1.421875 
Q 22.515625 -1.421875 17.65625 -0.515625 
Q 12.796875 0.390625 7.625 2.203125 
L 7.625 11.71875 
Q 11.71875 9.328125 16.59375 8.109375 
Q 21.484375 6.890625 26.8125 6.890625 
Q 36.078125 6.890625 40.9375 10.546875 
Q 45.796875 14.203125 45.796875 21.1875 
Q 45.796875 27.640625 41.28125 31.265625 
Q 36.765625 34.90625 28.71875 34.90625 
L 20.21875 34.90625 
L 20.21875 43.015625 
L 29.109375 43.015625 
Q 36.375 43.015625 40.234375 45.921875 
Q 44.09375 48.828125 44.09375 54.296875 
Q 44.09375 59.90625 40.109375 62.90625 
Q 36.140625 65.921875 28.71875 65.921875 
Q 24.65625 65.921875 20.015625 65.03125 
Q 15.375 64.15625 9.8125 62.3125 
L 9.8125 71.09375 
Q 15.4375 72.65625 20.34375 73.4375 
Q 25.25 74.21875 29.59375 74.21875 
Q 40.828125 74.21875 47.359375 69.109375 
Q 53.90625 64.015625 53.90625 55.328125 
Q 53.90625 49.265625 50.4375 45.09375 
Q 46.96875 40.921875 40.578125 39.3125 
z
" id="DejaVuSans-51"/>
      </defs>
      <g transform="translate(338.015682 322.182437)scale(0.1 -0.1)">
       <use xlink:href="#DejaVuSans-51"/>
       <use x="63.623047" xlink:href="#DejaVuSans-48"/>
      </g>
     </g>
    </g>
    <g id="xtick_8">
     <g id="line2d_8">
      <g>
       <use style="stroke:#000000;stroke-width:0.8;" x="389.469091" xlink:href="#md477fa9aa7" y="307.584"/>
      </g>
     </g>
     <g id="text_8">
      <!-- 35 -->
      <g transform="translate(383.106591 322.182437)scale(0.1 -0.1)">
       <use xlink:href="#DejaVuSans-51"/>
       <use x="63.623047" xlink:href="#DejaVuSans-53"/>
      </g>
     </g>
    </g>
    <g id="text_9">
     <!-- Generations -->
     <defs>
      <path d="M 59.515625 10.40625 
L 59.515625 29.984375 
L 43.40625 29.984375 
L 43.40625 38.09375 
L 69.28125 38.09375 
L 69.28125 6.78125 
Q 63.578125 2.734375 56.6875 0.65625 
Q 49.8125 -1.421875 42 -1.421875 
Q 24.90625 -1.421875 15.25 8.5625 
Q 5.609375 18.5625 5.609375 36.375 
Q 5.609375 54.25 15.25 64.234375 
Q 24.90625 74.21875 42 74.21875 
Q 49.125 74.21875 55.546875 72.453125 
Q 61.96875 70.703125 67.390625 67.28125 
L 67.390625 56.78125 
Q 61.921875 61.421875 55.765625 63.765625 
Q 49.609375 66.109375 42.828125 66.109375 
Q 29.4375 66.109375 22.71875 58.640625 
Q 16.015625 51.171875 16.015625 36.375 
Q 16.015625 21.625 22.71875 14.15625 
Q 29.4375 6.6875 42.828125 6.6875 
Q 48.046875 6.6875 52.140625 7.59375 
Q 56.25 8.5 59.515625 10.40625 
z
" id="DejaVuSans-71"/>
      <path d="M 56.203125 29.59375 
L 56.203125 25.203125 
L 14.890625 25.203125 
Q 15.484375 15.921875 20.484375 11.0625 
Q 25.484375 6.203125 34.421875 6.203125 
Q 39.59375 6.203125 44.453125 7.46875 
Q 49.3125 8.734375 54.109375 11.28125 
L 54.109375 2.78125 
Q 49.265625 0.734375 44.1875 -0.34375 
Q 39.109375 -1.421875 33.890625 -1.421875 
Q 20.796875 -1.421875 13.15625 6.1875 
Q 5.515625 13.8125 5.515625 26.8125 
Q 5.515625 40.234375 12.765625 48.109375 
Q 20.015625 56 32.328125 56 
Q 43.359375 56 49.78125 48.890625 
Q 56.203125 41.796875 56.203125 29.59375 
z
M 47.21875 32.234375 
Q 47.125 39.59375 43.09375 43.984375 
Q 39.0625 48.390625 32.421875 48.390625 
Q 24.90625 48.390625 20.390625 44.140625 
Q 15.875 39.890625 15.1875 32.171875 
z
" id="DejaVuSans-101"/>
      <path d="M 54.890625 33.015625 
L 54.890625 0 
L 45.90625 0 
L 45.90625 32.71875 
Q 45.90625 40.484375 42.875 44.328125 
Q 39.84375 48.1875 33.796875 48.1875 
Q 26.515625 48.1875 22.3125 43.546875 
Q 18.109375 38.921875 18.109375 30.90625 
L 18.109375 0 
L 9.078125 0 
L 9.078125 54.6875 
L 18.109375 54.6875 
L 18.109375 46.1875 
Q 21.34375 51.125 25.703125 53.5625 
Q 30.078125 56 35.796875 56 
Q 45.21875 56 50.046875 50.171875 
Q 54.890625 44.34375 54.890625 33.015625 
z
" id="DejaVuSans-110"/>
      <path d="M 41.109375 46.296875 
Q 39.59375 47.171875 37.8125 47.578125 
Q 36.03125 48 33.890625 48 
Q 26.265625 48 22.1875 43.046875 
Q 18.109375 38.09375 18.109375 28.8125 
L 18.109375 0 
L 9.078125 0 
L 9.078125 54.6875 
L 18.109375 54.6875 
L 18.109375 46.1875 
Q 20.953125 51.171875 25.484375 53.578125 
Q 30.03125 56 36.53125 56 
Q 37.453125 56 38.578125 55.875 
Q 39.703125 55.765625 41.0625 55.515625 
z
" id="DejaVuSans-114"/>
      <path d="M 34.28125 27.484375 
Q 23.390625 27.484375 19.1875 25 
Q 14.984375 22.515625 14.984375 16.5 
Q 14.984375 11.71875 18.140625 8.90625 
Q 21.296875 6.109375 26.703125 6.109375 
Q 34.1875 6.109375 38.703125 11.40625 
Q 43.21875 16.703125 43.21875 25.484375 
L 43.21875 27.484375 
z
M 52.203125 31.203125 
L 52.203125 0 
L 43.21875 0 
L 43.21875 8.296875 
Q 40.140625 3.328125 35.546875 0.953125 
Q 30.953125 -1.421875 24.3125 -1.421875 
Q 15.921875 -1.421875 10.953125 3.296875 
Q 6 8.015625 6 15.921875 
Q 6 25.140625 12.171875 29.828125 
Q 18.359375 34.515625 30.609375 34.515625 
L 43.21875 34.515625 
L 43.21875 35.40625 
Q 43.21875 41.609375 39.140625 45 
Q 35.0625 48.390625 27.6875 48.390625 
Q 23 48.390625 18.546875 47.265625 
Q 14.109375 46.140625 10.015625 43.890625 
L 10.015625 52.203125 
Q 14.9375 54.109375 19.578125 55.046875 
Q 24.21875 56 28.609375 56 
Q 40.484375 56 46.34375 49.84375 
Q 52.203125 43.703125 52.203125 31.203125 
z
" id="DejaVuSans-97"/>
      <path d="M 18.3125 70.21875 
L 18.3125 54.6875 
L 36.8125 54.6875 
L 36.8125 47.703125 
L 18.3125 47.703125 
L 18.3125 18.015625 
Q 18.3125 11.328125 20.140625 9.421875 
Q 21.96875 7.515625 27.59375 7.515625 
L 36.8125 7.515625 
L 36.8125 0 
L 27.59375 0 
Q 17.1875 0 13.234375 3.875 
Q 9.28125 7.765625 9.28125 18.015625 
L 9.28125 47.703125 
L 2.6875 47.703125 
L 2.6875 54.6875 
L 9.28125 54.6875 
L 9.28125 70.21875 
z
" id="DejaVuSans-116"/>
      <path d="M 9.421875 54.6875 
L 18.40625 54.6875 
L 18.40625 0 
L 9.421875 0 
z
M 9.421875 75.984375 
L 18.40625 75.984375 
L 18.40625 64.59375 
L 9.421875 64.59375 
z
" id="DejaVuSans-105"/>
      <path d="M 30.609375 48.390625 
Q 23.390625 48.390625 19.1875 42.75 
Q 14.984375 37.109375 14.984375 27.296875 
Q 14.984375 17.484375 19.15625 11.84375 
Q 23.34375 6.203125 30.609375 6.203125 
Q 37.796875 6.203125 41.984375 11.859375 
Q 46.1875 17.53125 46.1875 27.296875 
Q 46.1875 37.015625 41.984375 42.703125 
Q 37.796875 48.390625 30.609375 48.390625 
z
M 30.609375 56 
Q 42.328125 56 49.015625 48.375 
Q 55.71875 40.765625 55.71875 27.296875 
Q 55.71875 13.875 49.015625 6.21875 
Q 42.328125 -1.421875 30.609375 -1.421875 
Q 18.84375 -1.421875 12.171875 6.21875 
Q 5.515625 13.875 5.515625 27.296875 
Q 5.515625 40.765625 12.171875 48.375 
Q 18.84375 56 30.609375 56 
z
" id="DejaVuSans-111"/>
      <path d="M 44.28125 53.078125 
L 44.28125 44.578125 
Q 40.484375 46.53125 36.375 47.5 
Q 32.28125 48.484375 27.875 48.484375 
Q 21.1875 48.484375 17.84375 46.4375 
Q 14.5 44.390625 14.5 40.28125 
Q 14.5 37.15625 16.890625 35.375 
Q 19.28125 33.59375 26.515625 31.984375 
L 29.59375 31.296875 
Q 39.15625 29.25 43.1875 25.515625 
Q 47.21875 21.78125 47.21875 15.09375 
Q 47.21875 7.46875 41.1875 3.015625 
Q 35.15625 -1.421875 24.609375 -1.421875 
Q 20.21875 -1.421875 15.453125 -0.5625 
Q 10.6875 0.296875 5.421875 2 
L 5.421875 11.28125 
Q 10.40625 8.6875 15.234375 7.390625 
Q 20.0625 6.109375 24.8125 6.109375 
Q 31.15625 6.109375 34.5625 8.28125 
Q 37.984375 10.453125 37.984375 14.40625 
Q 37.984375 18.0625 35.515625 20.015625 
Q 33.0625 21.96875 24.703125 23.78125 
L 21.578125 24.515625 
Q 13.234375 26.265625 9.515625 29.90625 
Q 5.8125 33.546875 5.8125 39.890625 
Q 5.8125 47.609375 11.28125 51.796875 
Q 16.75 56 26.8125 56 
Q 31.78125 56 36.171875 55.265625 
Q 40.578125 54.546875 44.28125 53.078125 
z
" id="DejaVuSans-115"/>
     </defs>
     <g transform="translate(205.662344 335.860562)scale(0.1 -0.1)">
      <use xlink:href="#DejaVuSans-71"/>
      <use x="77.490234" xlink:href="#DejaVuSans-101"/>
      <use x="139.013672" xlink:href="#DejaVuSans-110"/>
      <use x="202.392578" xlink:href="#DejaVuSans-101"/>
      <use x="263.916016" xlink:href="#DejaVuSans-114"/>
      <use x="305.029297" xlink:href="#DejaVuSans-97"/>
      <use x="366.308594" xlink:href="#DejaVuSans-116"/>
      <use x="405.517578" xlink:href="#DejaVuSans-105"/>
      <use x="433.300781" xlink:href="#DejaVuSans-111"/>
      <use x="494.482422" xlink:href="#DejaVuSans-110"/>
      <use x="557.861328" xlink:href="#DejaVuSans-115"/>
     </g>
    </g>
   </g>
   <g id="matplotlib.axis_2">
    <g id="ytick_1">
     <g id="line2d_9">
      <defs>
       <path d="M 0 0 
L -3.5 0 
" id="m0687a94e23" style="stroke:#000000;stroke-width:0.8;"/>
      </defs>
      <g>
       <use style="stroke:#000000;stroke-width:0.8;" x="57.6" xlink:href="#m0687a94e23" y="307.584"/>
      </g>
     </g>
     <g id="text_10">
      <!-- 0 -->
      <g transform="translate(44.2375 311.383219)scale(0.1 -0.1)">
       <use xlink:href="#DejaVuSans-48"/>
      </g>
     </g>
    </g>
    <g id="ytick_2">
     <g id="line2d_10">
      <g>
       <use style="stroke:#000000;stroke-width:0.8;" x="57.6" xlink:href="#m0687a94e23" y="257.694236"/>
      </g>
     </g>
     <g id="text_11">
      <!-- 50 -->
      <g transform="translate(37.875 261.493455)scale(0.1 -0.1)">
       <use xlink:href="#DejaVuSans-53"/>
       <use x="63.623047" xlink:href="#DejaVuSans-48"/>
      </g>
     </g>
    </g>
    <g id="ytick_3">
     <g id="line2d_11">
      <g>
       <use style="stroke:#000000;stroke-width:0.8;" x="57.6" xlink:href="#m0687a94e23" y="207.804472"/>
      </g>
     </g>
     <g id="text_12">
      <!-- 100 -->
      <g transform="translate(31.5125 211.603691)scale(0.1 -0.1)">
       <use xlink:href="#DejaVuSans-49"/>
       <use x="63.623047" xlink:href="#DejaVuSans-48"/>
       <use x="127.246094" xlink:href="#DejaVuSans-48"/>
      </g>
     </g>
    </g>
    <g id="ytick_4">
     <g id="line2d_12">
      <g>
       <use style="stroke:#000000;stroke-width:0.8;" x="57.6" xlink:href="#m0687a94e23" y="157.914709"/>
      </g>
     </g>
     <g id="text_13">
      <!-- 150 -->
      <g transform="translate(31.5125 161.713927)scale(0.1 -0.1)">
       <use xlink:href="#DejaVuSans-49"/>
       <use x="63.623047" xlink:href="#DejaVuSans-53"/>
       <use x="127.246094" xlink:href="#DejaVuSans-48"/>
      </g>
     </g>
    </g>
    <g id="ytick_5">
     <g id="line2d_13">
      <g>
       <use style="stroke:#000000;stroke-width:0.8;" x="57.6" xlink:href="#m0687a94e23" y="108.024945"/>
      </g>
     </g>
     <g id="text_14">
      <!-- 200 -->
      <g transform="translate(31.5125 111.824164)scale(0.1 -0.1)">
       <use xlink:href="#DejaVuSans-50"/>
       <use x="63.623047" xlink:href="#DejaVuSans-48"/>
       <use x="127.246094" xlink:href="#DejaVuSans-48"/>
      </g>
     </g>
    </g>
    <g id="ytick_6">
     <g id="line2d_14">
      <g>
       <use style="stroke:#000000;stroke-width:0.8;" x="57.6" xlink:href="#m0687a94e23" y="58.135181"/>
      </g>
     </g>
     <g id="text_15">
      <!-- 250 -->
      <g transform="translate(31.5125 61.9344)scale(0.1 -0.1)">
       <use xlink:href="#DejaVuSans-50"/>
       <use x="63.623047" xlink:href="#DejaVuSans-53"/>
       <use x="127.246094" xlink:href="#DejaVuSans-48"/>
      </g>
     </g>
    </g>
    <g id="text_16">
     <!-- Size per Species -->
     <defs>
      <path d="M 53.515625 70.515625 
L 53.515625 60.890625 
Q 47.90625 63.578125 42.921875 64.890625 
Q 37.9375 66.21875 33.296875 66.21875 
Q 25.25 66.21875 20.875 63.09375 
Q 16.5 59.96875 16.5 54.203125 
Q 16.5 49.359375 19.40625 46.890625 
Q 22.3125 44.4375 30.421875 42.921875 
L 36.375 41.703125 
Q 47.40625 39.59375 52.65625 34.296875 
Q 57.90625 29 57.90625 20.125 
Q 57.90625 9.515625 50.796875 4.046875 
Q 43.703125 -1.421875 29.984375 -1.421875 
Q 24.8125 -1.421875 18.96875 -0.25 
Q 13.140625 0.921875 6.890625 3.21875 
L 6.890625 13.375 
Q 12.890625 10.015625 18.65625 8.296875 
Q 24.421875 6.59375 29.984375 6.59375 
Q 38.421875 6.59375 43.015625 9.90625 
Q 47.609375 13.234375 47.609375 19.390625 
Q 47.609375 24.75 44.3125 27.78125 
Q 41.015625 30.8125 33.5 32.328125 
L 27.484375 33.5 
Q 16.453125 35.6875 11.515625 40.375 
Q 6.59375 45.0625 6.59375 53.421875 
Q 6.59375 63.09375 13.40625 68.65625 
Q 20.21875 74.21875 32.171875 74.21875 
Q 37.3125 74.21875 42.625 73.28125 
Q 47.953125 72.359375 53.515625 70.515625 
z
" id="DejaVuSans-83"/>
      <path d="M 5.515625 54.6875 
L 48.1875 54.6875 
L 48.1875 46.484375 
L 14.40625 7.171875 
L 48.1875 7.171875 
L 48.1875 0 
L 4.296875 0 
L 4.296875 8.203125 
L 38.09375 47.515625 
L 5.515625 47.515625 
z
" id="DejaVuSans-122"/>
      <path id="DejaVuSans-32"/>
      <path d="M 18.109375 8.203125 
L 18.109375 -20.796875 
L 9.078125 -20.796875 
L 9.078125 54.6875 
L 18.109375 54.6875 
L 18.109375 46.390625 
Q 20.953125 51.265625 25.265625 53.625 
Q 29.59375 56 35.59375 56 
Q 45.5625 56 51.78125 48.09375 
Q 58.015625 40.1875 58.015625 27.296875 
Q 58.015625 14.40625 51.78125 6.484375 
Q 45.5625 -1.421875 35.59375 -1.421875 
Q 29.59375 -1.421875 25.265625 0.953125 
Q 20.953125 3.328125 18.109375 8.203125 
z
M 48.6875 27.296875 
Q 48.6875 37.203125 44.609375 42.84375 
Q 40.53125 48.484375 33.40625 48.484375 
Q 26.265625 48.484375 22.1875 42.84375 
Q 18.109375 37.203125 18.109375 27.296875 
Q 18.109375 17.390625 22.1875 11.75 
Q 26.265625 6.109375 33.40625 6.109375 
Q 40.53125 6.109375 44.609375 11.75 
Q 48.6875 17.390625 48.6875 27.296875 
z
" id="DejaVuSans-112"/>
      <path d="M 48.78125 52.59375 
L 48.78125 44.1875 
Q 44.96875 46.296875 41.140625 47.34375 
Q 37.3125 48.390625 33.40625 48.390625 
Q 24.65625 48.390625 19.8125 42.84375 
Q 14.984375 37.3125 14.984375 27.296875 
Q 14.984375 17.28125 19.8125 11.734375 
Q 24.65625 6.203125 33.40625 6.203125 
Q 37.3125 6.203125 41.140625 7.25 
Q 44.96875 8.296875 48.78125 10.40625 
L 48.78125 2.09375 
Q 45.015625 0.34375 40.984375 -0.53125 
Q 36.96875 -1.421875 32.421875 -1.421875 
Q 20.0625 -1.421875 12.78125 6.34375 
Q 5.515625 14.109375 5.515625 27.296875 
Q 5.515625 40.671875 12.859375 48.328125 
Q 20.21875 56 33.015625 56 
Q 37.15625 56 41.109375 55.140625 
Q 45.0625 54.296875 48.78125 52.59375 
z
" id="DejaVuSans-99"/>
     </defs>
     <g transform="translate(25.432812 215.520969)rotate(-90)scale(0.1 -0.1)">
      <use xlink:href="#DejaVuSans-83"/>
      <use x="63.476562" xlink:href="#DejaVuSans-105"/>
      <use x="91.259766" xlink:href="#DejaVuSans-122"/>
      <use x="143.75" xlink:href="#DejaVuSans-101"/>
      <use x="205.273438" xlink:href="#DejaVuSans-32"/>
      <use x="237.060547" xlink:href="#DejaVuSans-112"/>
      <use x="300.537109" xlink:href="#DejaVuSans-101"/>
      <use x="362.060547" xlink:href="#DejaVuSans-114"/>
      <use x="403.173828" xlink:href="#DejaVuSans-32"/>
      <use x="434.960938" xlink:href="#DejaVuSans-83"/>
      <use x="498.4375" xlink:href="#DejaVuSans-112"/>
      <use x="561.914062" xlink:href="#DejaVuSans-101"/>
      <use x="623.4375" xlink:href="#DejaVuSans-99"/>
      <use x="678.417969" xlink:href="#DejaVuSans-105"/>
      <use x="706.201172" xlink:href="#DejaVuSans-101"/>
      <use x="767.724609" xlink:href="#DejaVuSans-115"/>
     </g>
    </g>
   </g>
   <g id="patch_3">
    <path d="M 57.6 307.584 
L 57.6 41.472 
" style="fill:none;stroke:#000000;stroke-linecap:square;stroke-linejoin:miter;stroke-width:0.8;"/>
   </g>
   <g id="patch_4">
    <path d="M 414.72 307.584 
L 414.72 41.472 
" style="fill:none;stroke:#000000;stroke-linecap:square;stroke-linejoin:miter;stroke-width:0.8;"/>
   </g>
   <g id="patch_5">
    <path d="M 57.6 307.584 
L 414.72 307.584 
" style="fill:none;stroke:#000000;stroke-linecap:square;stroke-linejoin:miter;stroke-width:0.8;"/>
   </g>
   <g id="patch_6">
    <path d="M 57.6 41.472 
L 414.72 41.472 
" style="fill:none;stroke:#000000;stroke-linecap:square;stroke-linejoin:miter;stroke-width:0.8;"/>
   </g>
   <g id="text_17">
    <!-- Speciation -->
    <g transform="translate(204.714375 35.472)scale(0.12 -0.12)">
     <use xlink:href="#DejaVuSans-83"/>
     <use x="63.476562" xlink:href="#DejaVuSans-112"/>
     <use x="126.953125" xlink:href="#DejaVuSans-101"/>
     <use x="188.476562" xlink:href="#DejaVuSans-99"/>
     <use x="243.457031" xlink:href="#DejaVuSans-105"/>
     <use x="271.240234" xlink:href="#DejaVuSans-97"/>
     <use x="332.519531" xlink:href="#DejaVuSans-116"/>
     <use x="371.728516" xlink:href="#DejaVuSans-105"/>
     <use x="399.511719" xlink:href="#DejaVuSans-111"/>
     <use x="460.693359" xlink:href="#DejaVuSans-110"/>
    </g>
   </g>
  </g>
 </g>
 <defs>
  <clipPath id="pc96a95ec20">
   <rect height="266.112" width="357.12" x="57.6" y="41.472"/>
  </clipPath>
 </defs>
</svg>
