<?xml version="1.0" encoding="UTF-8" standalone="no"?>
<!DOCTYPE svg PUBLIC "-//W3C//DTD SVG 1.1//EN"
 "http://www.w3.org/Graphics/SVG/1.1/DTD/svg11.dtd">
<!-- Generated by graphviz version 2.38.0 (20140413.2041)
 -->
<!-- Title: %3 Pages: 1 -->
<svg width="226pt" height="285pt"
 viewBox="0.00 0.00 225.50 285.32" xmlns="http://www.w3.org/2000/svg" xmlns:xlink="http://www.w3.org/1999/xlink">
<g id="graph0" class="graph" transform="scale(1 1) rotate(0) translate(4 281.321)">
<title>%3</title>
<polygon fill="white" stroke="none" points="-4,4 -4,-281.321 221.5,-281.321 221.5,4 -4,4"/>
<!-- x -->
<g id="node1" class="node"><title>x</title>
<polygon fill="lightgray" stroke="black" points="20,-277.321 0,-277.321 0,-259.321 20,-259.321 20,-277.321"/>
<text text-anchor="middle" x="10" y="-266.121" font-family="Times New Roman,serif" font-size="9.00">x</text>
</g>
<!-- dx -->
<g id="node2" class="node"><title>dx</title>
<polygon fill="lightgray" stroke="black" points="63.5,-277.321 38.5,-277.321 38.5,-259.321 63.5,-259.321 63.5,-277.321"/>
<text text-anchor="middle" x="51" y="-266.121" font-family="Times New Roman,serif" font-size="9.00">dx</text>
</g>
<!-- control -->
<g id="node5" class="node"><title>control</title>
<ellipse fill="lightblue" stroke="black" cx="125" cy="-29.6985" rx="29.8983" ry="29.8983"/>
<text text-anchor="middle" x="125" y="-27.4985" font-family="Times New Roman,serif" font-size="9.00">control</text>
</g>
<!-- dx&#45;&gt;control -->
<g id="edge2" class="edge"><title>dx&#45;&gt;control</title>
<path fill="none" stroke="green" stroke-width="0.413983" d="M42.0334,-259.26C33.7238,-251.133 21.9274,-237.756 17,-223.321 9.89339,-202.501 10.4674,-194.83 17,-173.823 31.5328,-127.091 68.9489,-83.7773 95.6602,-57.3089"/>
<polygon fill="green" stroke="green" stroke-width="0.413983" points="98.1428,-59.7769 102.882,-50.3013 93.2682,-54.7531 98.1428,-59.7769"/>
</g>
<!-- 1230 -->
<g id="node6" class="node"><title>1230</title>
<ellipse fill="white" stroke="black" cx="51" cy="-198.572" rx="25" ry="25"/>
<text text-anchor="middle" x="51" y="-196.372" font-family="Times New Roman,serif" font-size="9.00">1230</text>
</g>
<!-- dx&#45;&gt;1230 -->
<g id="edge6" class="edge"><title>dx&#45;&gt;1230</title>
<path fill="none" stroke="green" stroke-width="0.178302" d="M51,-259.283C51,-252.848 51,-243.35 51,-233.814"/>
<polygon fill="green" stroke="green" stroke-width="0.178302" points="54.5001,-233.593 51,-223.593 47.5001,-233.593 54.5001,-233.593"/>
</g>
<!-- 342 -->
<g id="node7" class="node"><title>342</title>
<ellipse fill="white" stroke="black" cx="101" cy="-116.61" rx="21.4286" ry="21.4286"/>
<text text-anchor="middle" x="101" y="-114.41" font-family="Times New Roman,serif" font-size="9.00">342</text>
</g>
<!-- dx&#45;&gt;342 -->
<g id="edge3" class="edge"><title>dx&#45;&gt;342</title>
<path fill="none" stroke="red" stroke-width="0.618603" stroke-dasharray="1,5" d="M59.4965,-259.079C67.4575,-250.819 79.0033,-237.346 85,-223.321 95.2848,-199.267 99.0948,-169.658 100.442,-147.902"/>
<polygon fill="red" stroke="red" stroke-width="0.618603" points="103.938,-148.067 100.923,-137.91 96.946,-147.731 103.938,-148.067"/>
</g>
<!-- theta -->
<g id="node3" class="node"><title>theta</title>
<polygon fill="lightgray" stroke="black" points="167.5,-207.572 132.5,-207.572 132.5,-189.572 167.5,-189.572 167.5,-207.572"/>
<text text-anchor="middle" x="150" y="-196.372" font-family="Times New Roman,serif" font-size="9.00">theta</text>
</g>
<!-- theta&#45;&gt;control -->
<g id="edge5" class="edge"><title>theta&#45;&gt;control</title>
<path fill="none" stroke="green" stroke-width="1.18863" d="M148.794,-189.523C145.591,-168.142 136.707,-108.844 130.748,-69.0686"/>
<polygon fill="green" stroke="green" stroke-width="1.18863" points="134.207,-68.534 129.264,-59.1629 127.285,-69.5712 134.207,-68.534"/>
</g>
<!-- theta&#45;&gt;342 -->
<g id="edge8" class="edge"><title>theta&#45;&gt;342</title>
<path fill="none" stroke="green" stroke-width="0.496946" d="M144.941,-189.316C138.441,-178.709 126.845,-159.787 117.198,-144.043"/>
<polygon fill="green" stroke="green" stroke-width="0.496946" points="120.005,-141.925 111.796,-135.228 114.037,-145.583 120.005,-141.925"/>
</g>
<!-- dtheta -->
<g id="node4" class="node"><title>dtheta</title>
<polygon fill="lightgray" stroke="black" points="217.5,-125.61 178.5,-125.61 178.5,-107.61 217.5,-107.61 217.5,-125.61"/>
<text text-anchor="middle" x="198" y="-114.41" font-family="Times New Roman,serif" font-size="9.00">dtheta</text>
</g>
<!-- dtheta&#45;&gt;control -->
<g id="edge1" class="edge"><title>dtheta&#45;&gt;control</title>
<path fill="none" stroke="green" stroke-width="0.870905" d="M191,-107.468C181.8,-96.7669 165.131,-77.3774 150.847,-60.7629"/>
<polygon fill="green" stroke="green" stroke-width="0.870905" points="153.243,-58.181 144.07,-52.8798 147.935,-62.7445 153.243,-58.181"/>
</g>
<!-- 1230&#45;&gt;342 -->
<g id="edge7" class="edge"><title>1230&#45;&gt;342</title>
<path fill="none" stroke="green" stroke-width="0.450604" d="M63.8762,-176.98C70.251,-166.785 78.0133,-154.371 84.7888,-143.536"/>
<polygon fill="green" stroke="green" stroke-width="0.450604" points="87.8617,-145.223 90.196,-134.888 81.9265,-141.512 87.8617,-145.223"/>
</g>
<!-- 342&#45;&gt;control -->
<g id="edge4" class="edge"><title>342&#45;&gt;control</title>
<path fill="none" stroke="red" stroke-width="0.913672" d="M106.566,-95.9163C108.889,-87.6987 111.668,-77.8658 114.356,-68.358"/>
<polygon fill="red" stroke="red" stroke-width="0.913672" points="117.748,-69.2238 117.1,-58.6488 111.012,-67.3198 117.748,-69.2238"/>
</g>
</g>
</svg>
