<?xml version="1.0" encoding="UTF-8" standalone="no"?>
<!DOCTYPE svg PUBLIC "-//W3C//DTD SVG 1.1//EN"
 "http://www.w3.org/Graphics/SVG/1.1/DTD/svg11.dtd">
<!-- Generated by graphviz version 2.38.0 (20140413.2041)
 -->
<!-- Title: %3 Pages: 1 -->
<svg width="208pt" height="285pt"
 viewBox="0.00 0.00 207.50 285.32" xmlns="http://www.w3.org/2000/svg" xmlns:xlink="http://www.w3.org/1999/xlink">
<g id="graph0" class="graph" transform="scale(1 1) rotate(0) translate(4 281.321)">
<title>%3</title>
<polygon fill="white" stroke="none" points="-4,4 -4,-281.321 203.5,-281.321 203.5,4 -4,4"/>
<!-- x -->
<g id="node1" class="node"><title>x</title>
<polygon fill="lightgray" stroke="black" points="20,-277.321 0,-277.321 0,-259.321 20,-259.321 20,-277.321"/>
<text text-anchor="middle" x="10" y="-266.121" font-family="Times New Roman,serif" font-size="9.00">x</text>
</g>
<!-- dx -->
<g id="node2" class="node"><title>dx</title>
<polygon fill="lightgray" stroke="black" points="63.5,-277.321 38.5,-277.321 38.5,-259.321 63.5,-259.321 63.5,-277.321"/>
<text text-anchor="middle" x="51" y="-266.121" font-family="Times New Roman,serif" font-size="9.00">dx</text>
</g>
<!-- control -->
<g id="node5" class="node"><title>control</title>
<ellipse fill="lightblue" stroke="black" cx="107" cy="-29.6985" rx="29.8983" ry="29.8983"/>
<text text-anchor="middle" x="107" y="-27.4985" font-family="Times New Roman,serif" font-size="9.00">control</text>
</g>
<!-- dx&#45;&gt;control -->
<g id="edge2" class="edge"><title>dx&#45;&gt;control</title>
<path fill="none" stroke="green" stroke-width="0.413983" d="M48.9478,-258.985C43.0596,-233.295 28.0726,-153.562 53,-95.397 58.8897,-81.654 68.6826,-68.573 78.3237,-57.8156"/>
<polygon fill="green" stroke="green" stroke-width="0.413983" points="80.9737,-60.1063 85.2592,-50.4169 75.8666,-55.319 80.9737,-60.1063"/>
</g>
<!-- 1230 -->
<g id="node6" class="node"><title>1230</title>
<ellipse fill="white" stroke="black" cx="78" cy="-198.572" rx="25" ry="25"/>
<text text-anchor="middle" x="78" y="-196.372" font-family="Times New Roman,serif" font-size="9.00">1230</text>
</g>
<!-- dx&#45;&gt;1230 -->
<g id="edge5" class="edge"><title>dx&#45;&gt;1230</title>
<path fill="none" stroke="green" stroke-width="0.178302" d="M54.2033,-259.283C57.0053,-252.252 61.2645,-241.565 65.4089,-231.166"/>
<polygon fill="green" stroke="green" stroke-width="0.178302" points="68.6867,-232.395 69.1376,-221.81 62.1841,-229.804 68.6867,-232.395"/>
</g>
<!-- theta -->
<g id="node3" class="node"><title>theta</title>
<polygon fill="lightgray" stroke="black" points="155.5,-207.572 120.5,-207.572 120.5,-189.572 155.5,-189.572 155.5,-207.572"/>
<text text-anchor="middle" x="138" y="-196.372" font-family="Times New Roman,serif" font-size="9.00">theta</text>
</g>
<!-- theta&#45;&gt;control -->
<g id="edge4" class="edge"><title>theta&#45;&gt;control</title>
<path fill="none" stroke="green" stroke-width="1.18863" d="M136.505,-189.523C132.533,-168.142 121.517,-108.844 114.128,-69.0686"/>
<polygon fill="green" stroke="green" stroke-width="1.18863" points="117.555,-68.3554 112.288,-59.1629 110.673,-69.634 117.555,-68.3554"/>
</g>
<!-- 342 -->
<g id="node7" class="node"><title>342</title>
<ellipse fill="white" stroke="black" cx="83" cy="-116.61" rx="21.4286" ry="21.4286"/>
<text text-anchor="middle" x="83" y="-114.41" font-family="Times New Roman,serif" font-size="9.00">342</text>
</g>
<!-- theta&#45;&gt;342 -->
<g id="edge7" class="edge"><title>theta&#45;&gt;342</title>
<path fill="none" stroke="green" stroke-width="0.496946" d="M132.321,-189.316C124.864,-178.475 111.434,-158.948 100.469,-143.007"/>
<polygon fill="green" stroke="green" stroke-width="0.496946" points="103.235,-140.853 94.6841,-134.597 97.4675,-144.82 103.235,-140.853"/>
</g>
<!-- dtheta -->
<g id="node4" class="node"><title>dtheta</title>
<polygon fill="lightgray" stroke="black" points="199.5,-125.61 160.5,-125.61 160.5,-107.61 199.5,-107.61 199.5,-125.61"/>
<text text-anchor="middle" x="180" y="-114.41" font-family="Times New Roman,serif" font-size="9.00">dtheta</text>
</g>
<!-- dtheta&#45;&gt;control -->
<g id="edge1" class="edge"><title>dtheta&#45;&gt;control</title>
<path fill="none" stroke="green" stroke-width="0.870905" d="M173,-107.468C163.8,-96.7669 147.131,-77.3774 132.847,-60.7629"/>
<polygon fill="green" stroke="green" stroke-width="0.870905" points="135.243,-58.181 126.07,-52.8798 129.935,-62.7445 135.243,-58.181"/>
</g>
<!-- 1230&#45;&gt;342 -->
<g id="edge6" class="edge"><title>1230&#45;&gt;342</title>
<path fill="none" stroke="green" stroke-width="0.450604" d="M79.5002,-173.581C80.0018,-165.559 80.5676,-156.509 81.0958,-148.062"/>
<polygon fill="green" stroke="green" stroke-width="0.450604" points="84.6061,-148.006 81.7371,-137.807 77.6197,-147.569 84.6061,-148.006"/>
</g>
<!-- 342&#45;&gt;control -->
<g id="edge3" class="edge"><title>342&#45;&gt;control</title>
<path fill="none" stroke="red" stroke-width="0.913672" d="M88.5664,-95.9163C90.8891,-87.6987 93.6683,-77.8658 96.3557,-68.358"/>
<polygon fill="red" stroke="red" stroke-width="0.913672" points="99.748,-69.2238 99.0999,-58.6488 93.0119,-67.3198 99.748,-69.2238"/>
</g>
</g>
</svg>
