<?xml version="1.0" encoding="UTF-8" standalone="no"?>
<!DOCTYPE svg PUBLIC "-//W3C//DTD SVG 1.1//EN"
 "http://www.w3.org/Graphics/SVG/1.1/DTD/svg11.dtd">
<!-- Generated by graphviz version 2.38.0 (20140413.2041)
 -->
<!-- Title: %3 Pages: 1 -->
<svg width="235pt" height="207pt"
 viewBox="0.00 0.00 234.50 206.89" xmlns="http://www.w3.org/2000/svg" xmlns:xlink="http://www.w3.org/1999/xlink">
<g id="graph0" class="graph" transform="scale(1 1) rotate(0) translate(4 202.894)">
<title>%3</title>
<polygon fill="white" stroke="none" points="-4,4 -4,-202.894 230.5,-202.894 230.5,4 -4,4"/>
<!-- x -->
<g id="node1" class="node"><title>x</title>
<polygon fill="lightgray" stroke="black" points="20,-129.146 0,-129.146 0,-111.146 20,-111.146 20,-129.146"/>
<text text-anchor="middle" x="10" y="-117.946" font-family="Times New Roman,serif" font-size="9.00">x</text>
</g>
<!-- control -->
<g id="node5" class="node"><title>control</title>
<ellipse fill="lightblue" stroke="black" cx="92" cy="-29.6985" rx="29.8983" ry="29.8983"/>
<text text-anchor="middle" x="92" y="-27.4985" font-family="Times New Roman,serif" font-size="9.00">control</text>
</g>
<!-- x&#45;&gt;control -->
<g id="edge4" class="edge"><title>x&#45;&gt;control</title>
<path fill="none" stroke="green" stroke-width="0.380768" d="M16.1445,-111.071C19.776,-106.4 24.526,-100.463 29,-95.397 39.9619,-82.9848 52.603,-69.8011 63.6715,-58.5954"/>
<polygon fill="green" stroke="green" stroke-width="0.380768" points="66.4704,-60.7447 71.0432,-51.1875 61.5085,-55.8071 66.4704,-60.7447"/>
</g>
<!-- dx -->
<g id="node2" class="node"><title>dx</title>
<polygon fill="lightgray" stroke="black" points="63.5,-129.146 38.5,-129.146 38.5,-111.146 63.5,-111.146 63.5,-129.146"/>
<text text-anchor="middle" x="51" y="-117.946" font-family="Times New Roman,serif" font-size="9.00">dx</text>
</g>
<!-- dx&#45;&gt;control -->
<g id="edge2" class="edge"><title>dx&#45;&gt;control</title>
<path fill="none" stroke="green" stroke-width="0.561739" d="M54.7837,-110.983C59.49,-100.831 67.8335,-82.8317 75.4292,-66.4458"/>
<polygon fill="green" stroke="green" stroke-width="0.561739" points="78.7516,-67.6005 79.7819,-57.0559 72.4008,-64.6566 78.7516,-67.6005"/>
</g>
<!-- theta -->
<g id="node3" class="node"><title>theta</title>
<polygon fill="lightgray" stroke="black" points="135.5,-198.894 100.5,-198.894 100.5,-180.894 135.5,-180.894 135.5,-198.894"/>
<text text-anchor="middle" x="118" y="-187.694" font-family="Times New Roman,serif" font-size="9.00">theta</text>
</g>
<!-- theta&#45;&gt;control -->
<g id="edge3" class="edge"><title>theta&#45;&gt;control</title>
<path fill="none" stroke="green" stroke-width="0.75176" d="M116.675,-180.832C113.355,-160.631 104.507,-106.795 98.3622,-69.409"/>
<polygon fill="green" stroke="green" stroke-width="0.75176" points="101.783,-68.6423 96.7077,-59.3423 94.8759,-69.7776 101.783,-68.6423"/>
</g>
<!-- 1417 -->
<g id="node6" class="node"><title>1417</title>
<ellipse fill="white" stroke="black" cx="145" cy="-120.146" rx="25" ry="25"/>
<text text-anchor="middle" x="145" y="-117.946" font-family="Times New Roman,serif" font-size="9.00">1417</text>
</g>
<!-- theta&#45;&gt;1417 -->
<g id="edge5" class="edge"><title>theta&#45;&gt;1417</title>
<path fill="none" stroke="green" stroke-width="0.390674" d="M121.203,-180.857C124.005,-173.826 128.264,-163.139 132.409,-152.74"/>
<polygon fill="green" stroke="green" stroke-width="0.390674" points="135.687,-153.969 136.138,-143.383 129.184,-151.377 135.687,-153.969"/>
</g>
<!-- dtheta -->
<g id="node4" class="node"><title>dtheta</title>
<polygon fill="lightgray" stroke="black" points="226.5,-129.146 187.5,-129.146 187.5,-111.146 226.5,-111.146 226.5,-129.146"/>
<text text-anchor="middle" x="207" y="-117.946" font-family="Times New Roman,serif" font-size="9.00">dtheta</text>
</g>
<!-- dtheta&#45;&gt;control -->
<g id="edge1" class="edge"><title>dtheta&#45;&gt;control</title>
<path fill="none" stroke="green" stroke-width="1.14876" d="M197.791,-111.078C192.388,-106.41 185.388,-100.473 179,-95.397 161.18,-81.2372 140.783,-66.0189 124.22,-53.9014"/>
<polygon fill="green" stroke="green" stroke-width="1.14876" points="126.085,-50.9299 115.942,-47.8694 121.963,-56.5873 126.085,-50.9299"/>
</g>
<!-- 1417&#45;&gt;control -->
<g id="edge6" class="edge"><title>1417&#45;&gt;control</title>
<path fill="none" stroke="red" stroke-width="0.119587" stroke-dasharray="1,5" d="M132.708,-98.6318C126.567,-88.384 118.981,-75.7247 112.028,-64.1218"/>
<polygon fill="red" stroke="red" stroke-width="0.119587" points="115.012,-62.2913 106.869,-55.5124 109.007,-65.8894 115.012,-62.2913"/>
</g>
</g>
</svg>
