<?xml version="1.0" encoding="UTF-8" standalone="no"?>
<!DOCTYPE svg PUBLIC "-//W3C//DTD SVG 1.1//EN"
 "http://www.w3.org/Graphics/SVG/1.1/DTD/svg11.dtd">
<!-- Generated by graphviz version 2.38.0 (20140413.2041)
 -->
<!-- Title: %3 Pages: 1 -->
<svg width="140pt" height="301pt"
 viewBox="0.00 0.00 140.25 300.88" xmlns="http://www.w3.org/2000/svg" xmlns:xlink="http://www.w3.org/1999/xlink">
<g id="graph0" class="graph" transform="scale(1 1) rotate(0) translate(4 296.877)">
<title>%3</title>
<polygon fill="white" stroke="none" points="-4,4 -4,-296.877 136.249,-296.877 136.249,4 -4,4"/>
<!-- A -->
<g id="node1" class="node"><title>A</title>
<polygon fill="lightgray" stroke="black" points="23,-223.128 0,-223.128 0,-205.128 23,-205.128 23,-223.128"/>
<text text-anchor="middle" x="11.5" y="-211.928" font-family="Times New Roman,serif" font-size="9.00">A</text>
</g>
<!-- A XOR B -->
<g id="node3" class="node"><title>A XOR B</title>
<ellipse fill="lightblue" stroke="black" cx="58.5" cy="-37.4767" rx="37.4533" ry="37.4533"/>
<text text-anchor="middle" x="58.5" y="-35.2767" font-family="Times New Roman,serif" font-size="9.00">A XOR B</text>
</g>
<!-- A&#45;&gt;A XOR B -->
<g id="edge7" class="edge"><title>A&#45;&gt;A XOR B</title>
<path fill="none" stroke="red" stroke-width="0.346809" d="M12.2143,-205.042C13.8926,-187.586 18.706,-145.185 28.5,-110.953 31.3094,-101.134 35.0477,-90.8471 38.9293,-81.2099"/>
<polygon fill="red" stroke="red" stroke-width="0.346809" points="42.2216,-82.4079 42.8296,-71.8305 35.7582,-79.7201 42.2216,-82.4079"/>
</g>
<!-- 192 -->
<g id="node5" class="node"><title>192</title>
<ellipse fill="white" stroke="black" cx="58.5" cy="-132.167" rx="21.4286" ry="21.4286"/>
<text text-anchor="middle" x="58.5" y="-129.967" font-family="Times New Roman,serif" font-size="9.00">192</text>
</g>
<!-- A&#45;&gt;192 -->
<g id="edge2" class="edge"><title>A&#45;&gt;192</title>
<path fill="none" stroke="green" stroke-width="0.914211" d="M16.3528,-204.872C22.5875,-194.265 33.7095,-175.343 42.9633,-159.599"/>
<polygon fill="green" stroke="green" stroke-width="0.914211" points="46.0948,-161.179 48.1448,-150.784 40.06,-157.632 46.0948,-161.179"/>
</g>
<!-- B -->
<g id="node2" class="node"><title>B</title>
<polygon fill="lightgray" stroke="black" points="92,-292.877 69,-292.877 69,-274.877 92,-274.877 92,-292.877"/>
<text text-anchor="middle" x="80.5" y="-281.677" font-family="Times New Roman,serif" font-size="9.00">B</text>
</g>
<!-- 1538 -->
<g id="node4" class="node"><title>1538</title>
<ellipse fill="white" stroke="black" cx="107.5" cy="-214.128" rx="25" ry="25"/>
<text text-anchor="middle" x="107.5" y="-211.928" font-family="Times New Roman,serif" font-size="9.00">1538</text>
</g>
<!-- B&#45;&gt;1538 -->
<g id="edge4" class="edge"><title>B&#45;&gt;1538</title>
<path fill="none" stroke="green" stroke-width="0.675853" d="M83.7033,-274.839C86.5053,-267.809 90.7645,-257.121 94.9089,-246.722"/>
<polygon fill="green" stroke="green" stroke-width="0.675853" points="98.1867,-247.951 98.6376,-237.366 91.6841,-245.36 98.1867,-247.951"/>
</g>
<!-- B&#45;&gt;192 -->
<g id="edge3" class="edge"><title>B&#45;&gt;192</title>
<path fill="none" stroke="red" stroke-width="0.580521" stroke-dasharray="1,5" d="M79.169,-274.774C77.7296,-265.951 75.3877,-251.421 73.5,-238.877 69.6773,-213.474 65.5975,-184.596 62.6593,-163.449"/>
<polygon fill="red" stroke="red" stroke-width="0.580521" points="66.113,-162.872 61.2746,-153.447 59.1791,-163.832 66.113,-162.872"/>
</g>
<!-- 1538&#45;&gt;A XOR B -->
<g id="edge6" class="edge"><title>1538&#45;&gt;A XOR B</title>
<path fill="none" stroke="green" stroke-width="0.290701" d="M104.499,-189.26C101.531,-168.338 96.2938,-137.248 88.5,-110.953 85.5975,-101.161 81.8207,-90.8854 77.9311,-81.2506"/>
<polygon fill="green" stroke="green" stroke-width="0.290701" points="81.1025,-79.7613 74.0321,-71.8708 74.6387,-82.4482 81.1025,-79.7613"/>
</g>
<!-- 1538&#45;&gt;192 -->
<g id="edge5" class="edge"><title>1538&#45;&gt;192</title>
<path fill="none" stroke="red" stroke-width="0.518493" d="M94.8813,-192.536C88.6784,-182.414 81.1348,-170.104 74.5284,-159.323"/>
<polygon fill="red" stroke="red" stroke-width="0.518493" points="77.4587,-157.406 69.2495,-150.708 71.4902,-161.064 77.4587,-157.406"/>
</g>
<!-- 192&#45;&gt;A XOR B -->
<g id="edge1" class="edge"><title>192&#45;&gt;A XOR B</title>
<path fill="none" stroke="green" stroke-width="0.562116" d="M58.5,-110.596C58.5,-103 58.5,-94.0512 58.5,-85.0886"/>
<polygon fill="green" stroke="green" stroke-width="0.562116" points="62.0001,-85.0353 58.5,-75.0353 55.0001,-85.0353 62.0001,-85.0353"/>
</g>
</g>
</svg>
