<?xml version="1.0" encoding="UTF-8" standalone="no"?>
<!DOCTYPE svg PUBLIC "-//W3C//DTD SVG 1.1//EN"
 "http://www.w3.org/Graphics/SVG/1.1/DTD/svg11.dtd">
<!-- Generated by graphviz version 2.38.0 (20140413.2041)
 -->
<!-- Title: %3 Pages: 1 -->
<svg width="362pt" height="207pt"
 viewBox="0.00 0.00 362.50 206.89" xmlns="http://www.w3.org/2000/svg" xmlns:xlink="http://www.w3.org/1999/xlink">
<g id="graph0" class="graph" transform="scale(1 1) rotate(0) translate(4 202.894)">
<title>%3</title>
<polygon fill="white" stroke="none" points="-4,4 -4,-202.894 358.497,-202.894 358.497,4 -4,4"/>
<!-- x -->
<g id="node1" class="node"><title>x</title>
<polygon fill="lightgray" stroke="black" points="34.7487,-198.894 14.7487,-198.894 14.7487,-180.894 34.7487,-180.894 34.7487,-198.894"/>
<text text-anchor="middle" x="24.7487" y="-187.694" font-family="Times New Roman,serif" font-size="9.00">x</text>
</g>
<!-- 1813 -->
<g id="node10" class="node"><title>1813</title>
<ellipse fill="white" stroke="black" cx="24.7487" cy="-120.146" rx="25" ry="25"/>
<text text-anchor="middle" x="24.7487" y="-117.946" font-family="Times New Roman,serif" font-size="9.00">1813</text>
</g>
<!-- x&#45;&gt;1813 -->
<g id="edge10" class="edge"><title>x&#45;&gt;1813</title>
<path fill="none" stroke="green" stroke-width="0.231448" d="M24.7487,-180.857C24.7487,-174.422 24.7487,-164.924 24.7487,-155.387"/>
<polygon fill="green" stroke="green" stroke-width="0.231448" points="28.2488,-155.167 24.7487,-145.167 21.2488,-155.167 28.2488,-155.167"/>
</g>
<!-- dx -->
<g id="node2" class="node"><title>dx</title>
<polygon fill="lightgray" stroke="black" points="165.249,-198.894 140.249,-198.894 140.249,-180.894 165.249,-180.894 165.249,-198.894"/>
<text text-anchor="middle" x="152.749" y="-187.694" font-family="Times New Roman,serif" font-size="9.00">dx</text>
</g>
<!-- 352 -->
<g id="node6" class="node"><title>352</title>
<ellipse fill="white" stroke="black" cx="88.7487" cy="-120.146" rx="21.4286" ry="21.4286"/>
<text text-anchor="middle" x="88.7487" y="-117.946" font-family="Times New Roman,serif" font-size="9.00">352</text>
</g>
<!-- dx&#45;&gt;352 -->
<g id="edge4" class="edge"><title>dx&#45;&gt;352</title>
<path fill="none" stroke="red" stroke-width="0.414994" d="M145.156,-180.857C136.546,-171.742 122.132,-156.484 110.03,-143.674"/>
<polygon fill="red" stroke="red" stroke-width="0.414994" points="112.278,-140.957 102.867,-136.091 107.19,-145.764 112.278,-140.957"/>
</g>
<!-- 1071 -->
<g id="node7" class="node"><title>1071</title>
<ellipse fill="white" stroke="black" cx="329.749" cy="-120.146" rx="25" ry="25"/>
<text text-anchor="middle" x="329.749" y="-117.946" font-family="Times New Roman,serif" font-size="9.00">1071</text>
</g>
<!-- dx&#45;&gt;1071 -->
<g id="edge5" class="edge"><title>dx&#45;&gt;1071</title>
<path fill="none" stroke="green" stroke-width="0.216084" d="M165.484,-186.375C191.086,-181.013 250.231,-167.113 295.749,-144.894 297.799,-143.894 299.863,-142.777 301.905,-141.588"/>
<polygon fill="green" stroke="green" stroke-width="0.216084" points="304.053,-144.369 310.614,-136.051 300.298,-138.462 304.053,-144.369"/>
</g>
<!-- 1617 -->
<g id="node8" class="node"><title>1617</title>
<ellipse fill="white" stroke="black" cx="152.749" cy="-120.146" rx="25" ry="25"/>
<text text-anchor="middle" x="152.749" y="-117.946" font-family="Times New Roman,serif" font-size="9.00">1617</text>
</g>
<!-- dx&#45;&gt;1617 -->
<g id="edge8" class="edge"><title>dx&#45;&gt;1617</title>
<path fill="none" stroke="green" stroke-width="0.431851" d="M152.749,-180.857C152.749,-174.422 152.749,-164.924 152.749,-155.387"/>
<polygon fill="green" stroke="green" stroke-width="0.431851" points="156.249,-155.167 152.749,-145.167 149.249,-155.167 156.249,-155.167"/>
</g>
<!-- theta -->
<g id="node3" class="node"><title>theta</title>
<polygon fill="lightgray" stroke="black" points="230.249,-129.146 195.249,-129.146 195.249,-111.146 230.249,-111.146 230.249,-129.146"/>
<text text-anchor="middle" x="212.749" y="-117.946" font-family="Times New Roman,serif" font-size="9.00">theta</text>
</g>
<!-- control -->
<g id="node5" class="node"><title>control</title>
<ellipse fill="lightblue" stroke="black" cx="182.749" cy="-29.6985" rx="29.8983" ry="29.8983"/>
<text text-anchor="middle" x="182.749" y="-27.4985" font-family="Times New Roman,serif" font-size="9.00">control</text>
</g>
<!-- theta&#45;&gt;control -->
<g id="edge3" class="edge"><title>theta&#45;&gt;control</title>
<path fill="none" stroke="green" stroke-width="1.86785" d="M209.98,-110.983C206.641,-101.138 200.799,-83.9143 195.38,-67.9382"/>
<polygon fill="green" stroke="green" stroke-width="1.86785" points="198.613,-66.575 192.087,-58.2291 191.984,-68.8235 198.613,-66.575"/>
</g>
<!-- dtheta -->
<g id="node4" class="node"><title>dtheta</title>
<polygon fill="lightgray" stroke="black" points="287.249,-129.146 248.249,-129.146 248.249,-111.146 287.249,-111.146 287.249,-129.146"/>
<text text-anchor="middle" x="267.749" y="-117.946" font-family="Times New Roman,serif" font-size="9.00">dtheta</text>
</g>
<!-- dtheta&#45;&gt;control -->
<g id="edge1" class="edge"><title>dtheta&#45;&gt;control</title>
<path fill="none" stroke="green" stroke-width="0.968822" d="M259.904,-110.983C248.685,-99.3084 227.494,-77.2583 210.155,-59.2163"/>
<polygon fill="green" stroke="green" stroke-width="0.968822" points="212.453,-56.5564 203,-51.7714 207.406,-61.4069 212.453,-56.5564"/>
</g>
<!-- 352&#45;&gt;control -->
<g id="edge2" class="edge"><title>352&#45;&gt;control</title>
<path fill="none" stroke="red" stroke-width="0.856027" d="M103.851,-104.935C117.353,-92.2312 137.504,-73.2708 154.061,-57.6919"/>
<polygon fill="red" stroke="red" stroke-width="0.856027" points="156.494,-60.2083 161.378,-50.8066 151.697,-55.1102 156.494,-60.2083"/>
</g>
<!-- 1586 -->
<g id="node9" class="node"><title>1586</title>
<ellipse fill="white" stroke="black" cx="329.749" cy="-29.6985" rx="25" ry="25"/>
<text text-anchor="middle" x="329.749" y="-27.4985" font-family="Times New Roman,serif" font-size="9.00">1586</text>
</g>
<!-- 1071&#45;&gt;1586 -->
<g id="edge6" class="edge"><title>1071&#45;&gt;1586</title>
<path fill="none" stroke="green" stroke-width="0.372075" d="M323.725,-95.9072C322.996,-86.157 322.816,-74.635 323.185,-64.0096"/>
<polygon fill="green" stroke="green" stroke-width="0.372075" points="326.693,-63.956 323.737,-53.7817 319.703,-63.5784 326.693,-63.956"/>
</g>
<!-- 1617&#45;&gt;control -->
<g id="edge9" class="edge"><title>1617&#45;&gt;control</title>
<path fill="none" stroke="red" stroke-width="0.15777" d="M160.474,-96.3683C163.443,-87.6159 166.913,-77.3846 170.219,-67.6386"/>
<polygon fill="red" stroke="red" stroke-width="0.15777" points="173.548,-68.7215 173.445,-58.1271 166.919,-66.4729 173.548,-68.7215"/>
</g>
<!-- 1586&#45;&gt;1071 -->
<g id="edge7" class="edge"><title>1586&#45;&gt;1071</title>
<path fill="none" stroke="green" stroke-width="0.491915" d="M335.76,-53.7817C336.496,-63.5131 336.682,-75.0303 336.319,-85.6652"/>
<polygon fill="green" stroke="green" stroke-width="0.491915" points="332.81,-85.7349 335.772,-95.9072 339.8,-86.108 332.81,-85.7349"/>
</g>
</g>
</svg>
