<?xml version="1.0" encoding="utf-8" standalone="no"?>
<!DOCTYPE svg PUBLIC "-//W3C//DTD SVG 1.1//EN"
  "http://www.w3.org/Graphics/SVG/1.1/DTD/svg11.dtd">
<!-- Created with matplotlib (https://matplotlib.org/) -->
<svg height="345.6pt" version="1.1" viewBox="0 0 460.8 345.6" width="460.8pt" xmlns="http://www.w3.org/2000/svg" xmlns:xlink="http://www.w3.org/1999/xlink">
 <defs>
  <style type="text/css">
*{stroke-linecap:butt;stroke-linejoin:round;}
  </style>
 </defs>
 <g id="figure_1">
  <g id="patch_1">
   <path d="M 0 345.6 
L 460.8 345.6 
L 460.8 0 
L 0 0 
z
" style="fill:#ffffff;"/>
  </g>
  <g id="axes_1">
   <g id="patch_2">
    <path d="M 57.6 307.584 
L 414.72 307.584 
L 414.72 41.472 
L 57.6 41.472 
z
" style="fill:#ffffff;"/>
   </g>
   <g id="PolyCollection_1">
    <path clip-path="url(#p049f249d3f)" d="M 73.832727 279.645732 
L 73.832727 307.584 
L 79.958285 307.584 
L 86.083842 307.584 
L 92.2094 307.584 
L 98.334957 307.584 
L 104.460515 307.584 
L 110.586072 307.584 
L 116.71163 307.584 
L 122.837187 307.584 
L 128.962744 307.584 
L 135.088302 307.584 
L 141.213859 307.584 
L 147.339417 307.584 
L 153.464974 307.584 
L 159.590532 307.584 
L 165.716089 307.584 
L 171.841647 307.584 
L 177.967204 307.584 
L 184.092762 307.584 
L 190.218319 307.584 
L 196.343877 307.584 
L 202.469434 307.584 
L 208.594991 307.584 
L 214.720549 307.584 
L 220.846106 307.584 
L 226.971664 307.584 
L 233.097221 307.584 
L 239.222779 307.584 
L 245.348336 307.584 
L 251.473894 307.584 
L 257.599451 307.584 
L 263.725009 307.584 
L 269.850566 307.584 
L 275.976123 307.584 
L 282.101681 307.584 
L 288.227238 307.584 
L 294.352796 307.584 
L 300.478353 307.584 
L 306.603911 307.584 
L 312.729468 307.584 
L 318.855026 307.584 
L 324.980583 307.584 
L 331.106141 307.584 
L 337.231698 307.584 
L 343.357256 307.584 
L 349.482813 307.584 
L 355.60837 307.584 
L 361.733928 307.584 
L 367.859485 307.584 
L 373.985043 307.584 
L 380.1106 307.584 
L 386.236158 307.584 
L 392.361715 307.584 
L 398.487273 307.584 
L 398.487273 302.595024 
L 398.487273 302.595024 
L 392.361715 305.588409 
L 386.236158 294.612661 
L 380.1106 301.597228 
L 373.985043 303.592819 
L 367.859485 289.623685 
L 361.733928 292.617071 
L 355.60837 297.606047 
L 349.482813 302.595024 
L 343.357256 288.62589 
L 337.231698 296.608252 
L 331.106141 285.632504 
L 324.980583 287.628094 
L 318.855026 295.610457 
L 312.729468 295.610457 
L 306.603911 295.610457 
L 300.478353 299.601638 
L 294.352796 291.619276 
L 288.227238 302.595024 
L 282.101681 294.612661 
L 275.976123 299.601638 
L 269.850566 288.62589 
L 263.725009 293.614866 
L 257.599451 299.601638 
L 251.473894 297.606047 
L 245.348336 298.603843 
L 239.222779 292.617071 
L 233.097221 295.610457 
L 226.971664 297.606047 
L 220.846106 302.595024 
L 214.720549 302.595024 
L 208.594991 295.610457 
L 202.469434 306.586205 
L 196.343877 295.610457 
L 190.218319 276.652346 
L 184.092762 299.601638 
L 177.967204 296.608252 
L 171.841647 301.597228 
L 165.716089 297.606047 
L 159.590532 294.612661 
L 153.464974 296.608252 
L 147.339417 300.599433 
L 141.213859 297.606047 
L 135.088302 301.597228 
L 128.962744 296.608252 
L 122.837187 285.632504 
L 116.71163 285.632504 
L 110.586072 294.612661 
L 104.460515 290.62148 
L 98.334957 298.603843 
L 92.2094 293.614866 
L 86.083842 297.606047 
L 79.958285 300.599433 
L 73.832727 279.645732 
z
" style="fill:#1f77b4;"/>
   </g>
   <g id="PolyCollection_2">
    <path clip-path="url(#p049f249d3f)" d="M 73.832727 199.82211 
L 73.832727 279.645732 
L 79.958285 300.599433 
L 86.083842 297.606047 
L 92.2094 293.614866 
L 98.334957 298.603843 
L 104.460515 290.62148 
L 110.586072 294.612661 
L 116.71163 285.632504 
L 122.837187 285.632504 
L 128.962744 296.608252 
L 135.088302 301.597228 
L 141.213859 297.606047 
L 147.339417 300.599433 
L 153.464974 296.608252 
L 159.590532 294.612661 
L 165.716089 297.606047 
L 171.841647 301.597228 
L 177.967204 296.608252 
L 184.092762 299.601638 
L 190.218319 276.652346 
L 196.343877 295.610457 
L 202.469434 306.586205 
L 208.594991 295.610457 
L 214.720549 302.595024 
L 220.846106 302.595024 
L 226.971664 297.606047 
L 233.097221 295.610457 
L 239.222779 292.617071 
L 245.348336 298.603843 
L 251.473894 297.606047 
L 257.599451 299.601638 
L 263.725009 293.614866 
L 269.850566 288.62589 
L 275.976123 299.601638 
L 282.101681 294.612661 
L 288.227238 302.595024 
L 294.352796 291.619276 
L 300.478353 299.601638 
L 306.603911 295.610457 
L 312.729468 295.610457 
L 318.855026 295.610457 
L 324.980583 287.628094 
L 331.106141 285.632504 
L 337.231698 296.608252 
L 343.357256 288.62589 
L 349.482813 302.595024 
L 355.60837 297.606047 
L 361.733928 292.617071 
L 367.859485 289.623685 
L 373.985043 303.592819 
L 380.1106 301.597228 
L 386.236158 294.612661 
L 392.361715 305.588409 
L 398.487273 302.595024 
L 398.487273 302.595024 
L 398.487273 302.595024 
L 392.361715 305.588409 
L 386.236158 294.612661 
L 380.1106 301.597228 
L 373.985043 303.592819 
L 367.859485 289.623685 
L 361.733928 292.617071 
L 355.60837 297.606047 
L 349.482813 302.595024 
L 343.357256 288.62589 
L 337.231698 296.608252 
L 331.106141 285.632504 
L 324.980583 287.628094 
L 318.855026 295.610457 
L 312.729468 295.610457 
L 306.603911 295.610457 
L 300.478353 299.601638 
L 294.352796 291.619276 
L 288.227238 302.595024 
L 282.101681 294.612661 
L 275.976123 299.601638 
L 269.850566 288.62589 
L 263.725009 293.614866 
L 257.599451 299.601638 
L 251.473894 297.606047 
L 245.348336 298.603843 
L 239.222779 292.617071 
L 233.097221 295.610457 
L 226.971664 297.606047 
L 220.846106 302.595024 
L 214.720549 302.595024 
L 208.594991 295.610457 
L 202.469434 287.628094 
L 196.343877 276.652346 
L 190.218319 258.692031 
L 184.092762 279.645732 
L 177.967204 267.672189 
L 171.841647 277.650142 
L 165.716089 291.619276 
L 159.590532 285.632504 
L 153.464974 276.652346 
L 147.339417 291.619276 
L 141.213859 287.628094 
L 135.088302 292.617071 
L 128.962744 274.656756 
L 122.837187 266.674394 
L 116.71163 268.669984 
L 110.586072 286.630299 
L 104.460515 275.654551 
L 98.334957 257.694236 
L 92.2094 265.676598 
L 86.083842 277.650142 
L 79.958285 260.687622 
L 73.832727 199.82211 
z
" style="fill:#ff7f0e;"/>
   </g>
   <g id="PolyCollection_3">
    <path clip-path="url(#p049f249d3f)" d="M 73.832727 193.835339 
L 73.832727 199.82211 
L 79.958285 260.687622 
L 86.083842 277.650142 
L 92.2094 265.676598 
L 98.334957 257.694236 
L 104.460515 275.654551 
L 110.586072 286.630299 
L 116.71163 268.669984 
L 122.837187 266.674394 
L 128.962744 274.656756 
L 135.088302 292.617071 
L 141.213859 287.628094 
L 147.339417 291.619276 
L 153.464974 276.652346 
L 159.590532 285.632504 
L 165.716089 291.619276 
L 171.841647 277.650142 
L 177.967204 267.672189 
L 184.092762 279.645732 
L 190.218319 258.692031 
L 196.343877 276.652346 
L 202.469434 287.628094 
L 208.594991 295.610457 
L 214.720549 302.595024 
L 220.846106 302.595024 
L 226.971664 297.606047 
L 233.097221 295.610457 
L 239.222779 292.617071 
L 245.348336 298.603843 
L 251.473894 297.606047 
L 257.599451 299.601638 
L 263.725009 293.614866 
L 269.850566 288.62589 
L 275.976123 299.601638 
L 282.101681 294.612661 
L 288.227238 302.595024 
L 294.352796 291.619276 
L 300.478353 299.601638 
L 306.603911 295.610457 
L 312.729468 295.610457 
L 318.855026 295.610457 
L 324.980583 287.628094 
L 331.106141 285.632504 
L 337.231698 296.608252 
L 343.357256 288.62589 
L 349.482813 302.595024 
L 355.60837 297.606047 
L 361.733928 292.617071 
L 367.859485 289.623685 
L 373.985043 303.592819 
L 380.1106 301.597228 
L 386.236158 294.612661 
L 392.361715 305.588409 
L 398.487273 302.595024 
L 398.487273 302.595024 
L 398.487273 302.595024 
L 392.361715 305.588409 
L 386.236158 294.612661 
L 380.1106 301.597228 
L 373.985043 303.592819 
L 367.859485 289.623685 
L 361.733928 292.617071 
L 355.60837 297.606047 
L 349.482813 302.595024 
L 343.357256 288.62589 
L 337.231698 296.608252 
L 331.106141 285.632504 
L 324.980583 287.628094 
L 318.855026 295.610457 
L 312.729468 295.610457 
L 306.603911 295.610457 
L 300.478353 299.601638 
L 294.352796 291.619276 
L 288.227238 302.595024 
L 282.101681 294.612661 
L 275.976123 299.601638 
L 269.850566 288.62589 
L 263.725009 293.614866 
L 257.599451 299.601638 
L 251.473894 297.606047 
L 245.348336 298.603843 
L 239.222779 292.617071 
L 233.097221 295.610457 
L 226.971664 297.606047 
L 220.846106 302.595024 
L 214.720549 302.595024 
L 208.594991 295.610457 
L 202.469434 285.632504 
L 196.343877 273.658961 
L 190.218319 256.696441 
L 184.092762 276.652346 
L 177.967204 265.676598 
L 171.841647 275.654551 
L 165.716089 289.623685 
L 159.590532 283.636913 
L 153.464974 273.658961 
L 147.339417 289.623685 
L 141.213859 284.634709 
L 135.088302 288.62589 
L 128.962744 271.66337 
L 122.837187 262.683213 
L 116.71163 265.676598 
L 110.586072 282.639118 
L 104.460515 272.661165 
L 98.334957 253.703055 
L 92.2094 257.694236 
L 86.083842 268.669984 
L 79.958285 258.692031 
L 73.832727 193.835339 
z
" style="fill:#2ca02c;"/>
   </g>
   <g id="PolyCollection_4">
    <path clip-path="url(#p049f249d3f)" d="M 73.832727 138.956598 
L 73.832727 193.835339 
L 79.958285 258.692031 
L 86.083842 268.669984 
L 92.2094 257.694236 
L 98.334957 253.703055 
L 104.460515 272.661165 
L 110.586072 282.639118 
L 116.71163 265.676598 
L 122.837187 262.683213 
L 128.962744 271.66337 
L 135.088302 288.62589 
L 141.213859 284.634709 
L 147.339417 289.623685 
L 153.464974 273.658961 
L 159.590532 283.636913 
L 165.716089 289.623685 
L 171.841647 275.654551 
L 177.967204 265.676598 
L 184.092762 276.652346 
L 190.218319 256.696441 
L 196.343877 273.658961 
L 202.469434 285.632504 
L 208.594991 295.610457 
L 214.720549 302.595024 
L 220.846106 302.595024 
L 226.971664 297.606047 
L 233.097221 295.610457 
L 239.222779 292.617071 
L 245.348336 298.603843 
L 251.473894 297.606047 
L 257.599451 299.601638 
L 263.725009 293.614866 
L 269.850566 288.62589 
L 275.976123 299.601638 
L 282.101681 294.612661 
L 288.227238 302.595024 
L 294.352796 291.619276 
L 300.478353 299.601638 
L 306.603911 295.610457 
L 312.729468 295.610457 
L 318.855026 295.610457 
L 324.980583 287.628094 
L 331.106141 285.632504 
L 337.231698 296.608252 
L 343.357256 288.62589 
L 349.482813 302.595024 
L 355.60837 297.606047 
L 361.733928 292.617071 
L 367.859485 289.623685 
L 373.985043 303.592819 
L 380.1106 301.597228 
L 386.236158 294.612661 
L 392.361715 305.588409 
L 398.487273 302.595024 
L 398.487273 290.62148 
L 398.487273 290.62148 
L 392.361715 298.603843 
L 386.236158 271.66337 
L 380.1106 268.669984 
L 373.985043 283.636913 
L 367.859485 277.650142 
L 361.733928 271.66337 
L 355.60837 275.654551 
L 349.482813 286.630299 
L 343.357256 270.665575 
L 337.231698 280.643528 
L 331.106141 274.656756 
L 324.980583 255.698646 
L 318.855026 286.630299 
L 312.729468 288.62589 
L 306.603911 281.641323 
L 300.478353 294.612661 
L 294.352796 274.656756 
L 288.227238 283.636913 
L 282.101681 280.643528 
L 275.976123 284.634709 
L 269.850566 269.66778 
L 263.725009 279.645732 
L 257.599451 293.614866 
L 251.473894 287.628094 
L 245.348336 278.647937 
L 239.222779 265.676598 
L 233.097221 280.643528 
L 226.971664 284.634709 
L 220.846106 288.62589 
L 214.720549 285.632504 
L 208.594991 265.676598 
L 202.469434 273.658961 
L 196.343877 260.687622 
L 190.218319 238.736126 
L 184.092762 270.665575 
L 177.967204 260.687622 
L 171.841647 267.672189 
L 165.716089 246.718488 
L 159.590532 262.683213 
L 153.464974 237.738331 
L 147.339417 256.696441 
L 141.213859 253.703055 
L 135.088302 260.687622 
L 128.962744 256.696441 
L 122.837187 254.70085 
L 116.71163 255.698646 
L 110.586072 272.661165 
L 104.460515 244.722898 
L 98.334957 227.760378 
L 92.2094 223.769197 
L 86.083842 239.733921 
L 79.958285 212.793449 
L 73.832727 138.956598 
z
" style="fill:#d62728;"/>
   </g>
   <g id="PolyCollection_5">
    <path clip-path="url(#p049f249d3f)" d="M 73.832727 118.002898 
L 73.832727 138.956598 
L 79.958285 212.793449 
L 86.083842 239.733921 
L 92.2094 223.769197 
L 98.334957 227.760378 
L 104.460515 244.722898 
L 110.586072 272.661165 
L 116.71163 255.698646 
L 122.837187 254.70085 
L 128.962744 256.696441 
L 135.088302 260.687622 
L 141.213859 253.703055 
L 147.339417 256.696441 
L 153.464974 237.738331 
L 159.590532 262.683213 
L 165.716089 246.718488 
L 171.841647 267.672189 
L 177.967204 260.687622 
L 184.092762 270.665575 
L 190.218319 238.736126 
L 196.343877 260.687622 
L 202.469434 273.658961 
L 208.594991 265.676598 
L 214.720549 285.632504 
L 220.846106 288.62589 
L 226.971664 284.634709 
L 233.097221 280.643528 
L 239.222779 265.676598 
L 245.348336 278.647937 
L 251.473894 287.628094 
L 257.599451 293.614866 
L 263.725009 279.645732 
L 269.850566 269.66778 
L 275.976123 284.634709 
L 282.101681 280.643528 
L 288.227238 283.636913 
L 294.352796 274.656756 
L 300.478353 294.612661 
L 306.603911 281.641323 
L 312.729468 288.62589 
L 318.855026 286.630299 
L 324.980583 255.698646 
L 331.106141 274.656756 
L 337.231698 280.643528 
L 343.357256 270.665575 
L 349.482813 286.630299 
L 355.60837 275.654551 
L 361.733928 271.66337 
L 367.859485 277.650142 
L 373.985043 283.636913 
L 380.1106 268.669984 
L 386.236158 271.66337 
L 392.361715 298.603843 
L 398.487273 290.62148 
L 398.487273 257.694236 
L 398.487273 257.694236 
L 392.361715 276.652346 
L 386.236158 249.711874 
L 380.1106 257.694236 
L 373.985043 277.650142 
L 367.859485 269.66778 
L 361.733928 265.676598 
L 355.60837 271.66337 
L 349.482813 268.669984 
L 343.357256 260.687622 
L 337.231698 266.674394 
L 331.106141 260.687622 
L 324.980583 246.718488 
L 318.855026 268.669984 
L 312.729468 278.647937 
L 306.603911 250.709669 
L 300.478353 272.661165 
L 294.352796 248.714079 
L 288.227238 244.722898 
L 282.101681 267.672189 
L 275.976123 271.66337 
L 269.850566 254.70085 
L 263.725009 266.674394 
L 257.599451 280.643528 
L 251.473894 271.66337 
L 245.348336 267.672189 
L 239.222779 251.707465 
L 233.097221 268.669984 
L 226.971664 276.652346 
L 220.846106 265.676598 
L 214.720549 270.665575 
L 208.594991 256.696441 
L 202.469434 270.665575 
L 196.343877 248.714079 
L 190.218319 215.786835 
L 184.092762 251.707465 
L 177.967204 239.733921 
L 171.841647 240.731717 
L 165.716089 230.753764 
L 159.590532 243.725102 
L 153.464974 211.795654 
L 147.339417 228.758173 
L 141.213859 233.74715 
L 135.088302 226.762583 
L 128.962744 223.769197 
L 122.837187 231.751559 
L 116.71163 192.837543 
L 110.586072 207.804472 
L 104.460515 171.883843 
L 98.334957 181.861795 
L 92.2094 198.824315 
L 86.083842 206.806677 
L 79.958285 173.879433 
L 73.832727 118.002898 
z
" style="fill:#9467bd;"/>
   </g>
   <g id="PolyCollection_6">
    <path clip-path="url(#p049f249d3f)" d="M 73.832727 117.005102 
L 73.832727 118.002898 
L 79.958285 173.879433 
L 86.083842 206.806677 
L 92.2094 198.824315 
L 98.334957 181.861795 
L 104.460515 171.883843 
L 110.586072 207.804472 
L 116.71163 192.837543 
L 122.837187 231.751559 
L 128.962744 223.769197 
L 135.088302 226.762583 
L 141.213859 233.74715 
L 147.339417 228.758173 
L 153.464974 211.795654 
L 159.590532 243.725102 
L 165.716089 230.753764 
L 171.841647 240.731717 
L 177.967204 239.733921 
L 184.092762 251.707465 
L 190.218319 215.786835 
L 196.343877 248.714079 
L 202.469434 270.665575 
L 208.594991 256.696441 
L 214.720549 270.665575 
L 220.846106 265.676598 
L 226.971664 276.652346 
L 233.097221 268.669984 
L 239.222779 251.707465 
L 245.348336 267.672189 
L 251.473894 271.66337 
L 257.599451 280.643528 
L 263.725009 266.674394 
L 269.850566 254.70085 
L 275.976123 271.66337 
L 282.101681 267.672189 
L 288.227238 244.722898 
L 294.352796 248.714079 
L 300.478353 272.661165 
L 306.603911 250.709669 
L 312.729468 278.647937 
L 318.855026 268.669984 
L 324.980583 246.718488 
L 331.106141 260.687622 
L 337.231698 266.674394 
L 343.357256 260.687622 
L 349.482813 268.669984 
L 355.60837 271.66337 
L 361.733928 265.676598 
L 367.859485 269.66778 
L 373.985043 277.650142 
L 380.1106 257.694236 
L 386.236158 249.711874 
L 392.361715 276.652346 
L 398.487273 257.694236 
L 398.487273 257.694236 
L 398.487273 257.694236 
L 392.361715 276.652346 
L 386.236158 249.711874 
L 380.1106 257.694236 
L 373.985043 277.650142 
L 367.859485 269.66778 
L 361.733928 265.676598 
L 355.60837 271.66337 
L 349.482813 268.669984 
L 343.357256 260.687622 
L 337.231698 266.674394 
L 331.106141 260.687622 
L 324.980583 246.718488 
L 318.855026 268.669984 
L 312.729468 278.647937 
L 306.603911 250.709669 
L 300.478353 272.661165 
L 294.352796 248.714079 
L 288.227238 244.722898 
L 282.101681 267.672189 
L 275.976123 271.66337 
L 269.850566 254.70085 
L 263.725009 266.674394 
L 257.599451 280.643528 
L 251.473894 271.66337 
L 245.348336 267.672189 
L 239.222779 251.707465 
L 233.097221 268.669984 
L 226.971664 276.652346 
L 220.846106 265.676598 
L 214.720549 270.665575 
L 208.594991 254.70085 
L 202.469434 267.672189 
L 196.343877 246.718488 
L 190.218319 213.791244 
L 184.092762 250.709669 
L 177.967204 236.740535 
L 171.841647 237.738331 
L 165.716089 228.758173 
L 159.590532 241.729512 
L 153.464974 208.802268 
L 147.339417 226.762583 
L 141.213859 231.751559 
L 135.088302 223.769197 
L 128.962744 219.778016 
L 122.837187 228.758173 
L 116.71163 190.841953 
L 110.586072 204.811087 
L 104.460515 167.892661 
L 98.334957 178.868409 
L 92.2094 194.833134 
L 86.083842 203.813291 
L 79.958285 171.883843 
L 73.832727 117.005102 
z
" style="fill:#8c564b;"/>
   </g>
   <g id="PolyCollection_7">
    <path clip-path="url(#p049f249d3f)" d="M 73.832727 116.007307 
L 73.832727 117.005102 
L 79.958285 171.883843 
L 86.083842 203.813291 
L 92.2094 194.833134 
L 98.334957 178.868409 
L 104.460515 167.892661 
L 110.586072 204.811087 
L 116.71163 190.841953 
L 122.837187 228.758173 
L 128.962744 219.778016 
L 135.088302 223.769197 
L 141.213859 231.751559 
L 147.339417 226.762583 
L 153.464974 208.802268 
L 159.590532 241.729512 
L 165.716089 228.758173 
L 171.841647 237.738331 
L 177.967204 236.740535 
L 184.092762 250.709669 
L 190.218319 213.791244 
L 196.343877 246.718488 
L 202.469434 267.672189 
L 208.594991 254.70085 
L 214.720549 270.665575 
L 220.846106 265.676598 
L 226.971664 276.652346 
L 233.097221 268.669984 
L 239.222779 251.707465 
L 245.348336 267.672189 
L 251.473894 271.66337 
L 257.599451 280.643528 
L 263.725009 266.674394 
L 269.850566 254.70085 
L 275.976123 271.66337 
L 282.101681 267.672189 
L 288.227238 244.722898 
L 294.352796 248.714079 
L 300.478353 272.661165 
L 306.603911 250.709669 
L 312.729468 278.647937 
L 318.855026 268.669984 
L 324.980583 246.718488 
L 331.106141 260.687622 
L 337.231698 266.674394 
L 343.357256 260.687622 
L 349.482813 268.669984 
L 355.60837 271.66337 
L 361.733928 265.676598 
L 367.859485 269.66778 
L 373.985043 277.650142 
L 380.1106 257.694236 
L 386.236158 249.711874 
L 392.361715 276.652346 
L 398.487273 257.694236 
L 398.487273 243.725102 
L 398.487273 243.725102 
L 392.361715 263.681008 
L 386.236158 244.722898 
L 380.1106 251.707465 
L 373.985043 271.66337 
L 367.859485 248.714079 
L 361.733928 241.729512 
L 355.60837 262.683213 
L 349.482813 259.689827 
L 343.357256 247.716283 
L 337.231698 259.689827 
L 331.106141 234.744945 
L 324.980583 227.760378 
L 318.855026 243.725102 
L 312.729468 257.694236 
L 306.603911 222.771402 
L 300.478353 239.733921 
L 294.352796 208.802268 
L 288.227238 206.806677 
L 282.101681 249.711874 
L 275.976123 242.727307 
L 269.850566 243.725102 
L 263.725009 242.727307 
L 257.599451 268.669984 
L 251.473894 255.698646 
L 245.348336 258.692031 
L 239.222779 239.733921 
L 233.097221 252.70526 
L 226.971664 260.687622 
L 220.846106 250.709669 
L 214.720549 243.725102 
L 208.594991 236.740535 
L 202.469434 236.740535 
L 196.343877 214.789039 
L 190.218319 189.844157 
L 184.092762 227.760378 
L 177.967204 233.74715 
L 171.841647 235.74274 
L 165.716089 226.762583 
L 159.590532 239.733921 
L 153.464974 205.808882 
L 147.339417 224.766992 
L 141.213859 228.758173 
L 135.088302 221.773606 
L 128.962744 216.78463 
L 122.837187 226.762583 
L 116.71163 188.846362 
L 110.586072 200.819906 
L 104.460515 164.899276 
L 98.334957 173.879433 
L 92.2094 190.841953 
L 86.083842 200.819906 
L 79.958285 169.888252 
L 73.832727 116.007307 
z
" style="fill:#e377c2;"/>
   </g>
   <g id="PolyCollection_8">
    <path clip-path="url(#p049f249d3f)" d="M 73.832727 115.009512 
L 73.832727 116.007307 
L 79.958285 169.888252 
L 86.083842 200.819906 
L 92.2094 190.841953 
L 98.334957 173.879433 
L 104.460515 164.899276 
L 110.586072 200.819906 
L 116.71163 188.846362 
L 122.837187 226.762583 
L 128.962744 216.78463 
L 135.088302 221.773606 
L 141.213859 228.758173 
L 147.339417 224.766992 
L 153.464974 205.808882 
L 159.590532 239.733921 
L 165.716089 226.762583 
L 171.841647 235.74274 
L 177.967204 233.74715 
L 184.092762 227.760378 
L 190.218319 189.844157 
L 196.343877 214.789039 
L 202.469434 236.740535 
L 208.594991 236.740535 
L 214.720549 243.725102 
L 220.846106 250.709669 
L 226.971664 260.687622 
L 233.097221 252.70526 
L 239.222779 239.733921 
L 245.348336 258.692031 
L 251.473894 255.698646 
L 257.599451 268.669984 
L 263.725009 242.727307 
L 269.850566 243.725102 
L 275.976123 242.727307 
L 282.101681 249.711874 
L 288.227238 206.806677 
L 294.352796 208.802268 
L 300.478353 239.733921 
L 306.603911 222.771402 
L 312.729468 257.694236 
L 318.855026 243.725102 
L 324.980583 227.760378 
L 331.106141 234.744945 
L 337.231698 259.689827 
L 343.357256 247.716283 
L 349.482813 259.689827 
L 355.60837 262.683213 
L 361.733928 241.729512 
L 367.859485 248.714079 
L 373.985043 271.66337 
L 380.1106 251.707465 
L 386.236158 244.722898 
L 392.361715 263.681008 
L 398.487273 243.725102 
L 398.487273 228.758173 
L 398.487273 228.758173 
L 392.361715 250.709669 
L 386.236158 230.753764 
L 380.1106 234.744945 
L 373.985043 256.696441 
L 367.859485 234.744945 
L 361.733928 228.758173 
L 355.60837 253.703055 
L 349.482813 251.707465 
L 343.357256 237.738331 
L 337.231698 253.703055 
L 331.106141 232.749354 
L 324.980583 224.766992 
L 318.855026 240.731717 
L 312.729468 255.698646 
L 306.603911 221.773606 
L 300.478353 237.738331 
L 294.352796 206.806677 
L 288.227238 203.813291 
L 282.101681 247.716283 
L 275.976123 240.731717 
L 269.850566 241.729512 
L 263.725009 240.731717 
L 257.599451 266.674394 
L 251.473894 253.703055 
L 245.348336 256.696441 
L 239.222779 238.736126 
L 233.097221 250.709669 
L 226.971664 257.694236 
L 220.846106 247.716283 
L 214.720549 241.729512 
L 208.594991 233.74715 
L 202.469434 234.744945 
L 196.343877 212.793449 
L 190.218319 187.848567 
L 184.092762 225.764787 
L 177.967204 231.751559 
L 171.841647 232.749354 
L 165.716089 224.766992 
L 159.590532 237.738331 
L 153.464974 203.813291 
L 147.339417 221.773606 
L 141.213859 226.762583 
L 135.088302 219.778016 
L 128.962744 213.791244 
L 122.837187 224.766992 
L 116.71163 186.850772 
L 110.586072 197.82652 
L 104.460515 160.908094 
L 98.334957 170.886047 
L 92.2094 188.846362 
L 86.083842 197.82652 
L 79.958285 166.894866 
L 73.832727 115.009512 
z
" style="fill:#7f7f7f;"/>
   </g>
   <g id="PolyCollection_9">
    <path clip-path="url(#p049f249d3f)" d="M 73.832727 100.042583 
L 73.832727 115.009512 
L 79.958285 166.894866 
L 86.083842 197.82652 
L 92.2094 188.846362 
L 98.334957 170.886047 
L 104.460515 160.908094 
L 110.586072 197.82652 
L 116.71163 186.850772 
L 122.837187 224.766992 
L 128.962744 213.791244 
L 135.088302 219.778016 
L 141.213859 226.762583 
L 147.339417 221.773606 
L 153.464974 203.813291 
L 159.590532 237.738331 
L 165.716089 224.766992 
L 171.841647 232.749354 
L 177.967204 231.751559 
L 184.092762 225.764787 
L 190.218319 187.848567 
L 196.343877 212.793449 
L 202.469434 234.744945 
L 208.594991 233.74715 
L 214.720549 241.729512 
L 220.846106 247.716283 
L 226.971664 257.694236 
L 233.097221 250.709669 
L 239.222779 238.736126 
L 245.348336 256.696441 
L 251.473894 253.703055 
L 257.599451 266.674394 
L 263.725009 240.731717 
L 269.850566 241.729512 
L 275.976123 240.731717 
L 282.101681 247.716283 
L 288.227238 203.813291 
L 294.352796 206.806677 
L 300.478353 237.738331 
L 306.603911 221.773606 
L 312.729468 255.698646 
L 318.855026 240.731717 
L 324.980583 224.766992 
L 331.106141 232.749354 
L 337.231698 253.703055 
L 343.357256 237.738331 
L 349.482813 251.707465 
L 355.60837 253.703055 
L 361.733928 228.758173 
L 367.859485 234.744945 
L 373.985043 256.696441 
L 380.1106 234.744945 
L 386.236158 230.753764 
L 392.361715 250.709669 
L 398.487273 228.758173 
L 398.487273 228.758173 
L 398.487273 228.758173 
L 392.361715 250.709669 
L 386.236158 230.753764 
L 380.1106 234.744945 
L 373.985043 256.696441 
L 367.859485 234.744945 
L 361.733928 228.758173 
L 355.60837 237.738331 
L 349.482813 220.775811 
L 343.357256 216.78463 
L 337.231698 226.762583 
L 331.106141 216.78463 
L 324.980583 206.806677 
L 318.855026 217.782425 
L 312.729468 244.722898 
L 306.603911 202.815496 
L 300.478353 225.764787 
L 294.352796 198.824315 
L 288.227238 194.833134 
L 282.101681 244.722898 
L 275.976123 234.744945 
L 269.850566 237.738331 
L 263.725009 239.733921 
L 257.599451 253.703055 
L 251.473894 243.725102 
L 245.348336 245.720693 
L 239.222779 228.758173 
L 233.097221 240.731717 
L 226.971664 246.718488 
L 220.846106 239.733921 
L 214.720549 231.751559 
L 208.594991 226.762583 
L 202.469434 228.758173 
L 196.343877 205.808882 
L 190.218319 177.870614 
L 184.092762 211.795654 
L 177.967204 219.778016 
L 171.841647 217.782425 
L 165.716089 210.797858 
L 159.590532 230.753764 
L 153.464974 194.833134 
L 147.339417 211.795654 
L 141.213859 222.771402 
L 135.088302 207.804472 
L 128.962744 200.819906 
L 122.837187 218.78022 
L 116.71163 175.875024 
L 110.586072 187.848567 
L 104.460515 156.916913 
L 98.334957 154.921323 
L 92.2094 173.879433 
L 86.083842 175.875024 
L 79.958285 153.923528 
L 73.832727 100.042583 
z
" style="fill:#bcbd22;"/>
   </g>
   <g id="PolyCollection_10">
    <path clip-path="url(#p049f249d3f)" d="M 73.832727 99.044787 
L 73.832727 100.042583 
L 79.958285 153.923528 
L 86.083842 175.875024 
L 92.2094 173.879433 
L 98.334957 154.921323 
L 104.460515 156.916913 
L 110.586072 187.848567 
L 116.71163 175.875024 
L 122.837187 218.78022 
L 128.962744 200.819906 
L 135.088302 207.804472 
L 141.213859 222.771402 
L 147.339417 211.795654 
L 153.464974 194.833134 
L 159.590532 230.753764 
L 165.716089 210.797858 
L 171.841647 217.782425 
L 177.967204 219.778016 
L 184.092762 211.795654 
L 190.218319 177.870614 
L 196.343877 205.808882 
L 202.469434 228.758173 
L 208.594991 226.762583 
L 214.720549 231.751559 
L 220.846106 239.733921 
L 226.971664 246.718488 
L 233.097221 240.731717 
L 239.222779 228.758173 
L 245.348336 245.720693 
L 251.473894 243.725102 
L 257.599451 253.703055 
L 263.725009 239.733921 
L 269.850566 237.738331 
L 275.976123 234.744945 
L 282.101681 244.722898 
L 288.227238 194.833134 
L 294.352796 198.824315 
L 300.478353 225.764787 
L 306.603911 202.815496 
L 312.729468 244.722898 
L 318.855026 217.782425 
L 324.980583 206.806677 
L 331.106141 216.78463 
L 337.231698 226.762583 
L 343.357256 216.78463 
L 349.482813 220.775811 
L 355.60837 237.738331 
L 361.733928 228.758173 
L 367.859485 234.744945 
L 373.985043 256.696441 
L 380.1106 234.744945 
L 386.236158 230.753764 
L 392.361715 250.709669 
L 398.487273 228.758173 
L 398.487273 212.793449 
L 398.487273 212.793449 
L 392.361715 233.74715 
L 386.236158 210.797858 
L 380.1106 216.78463 
L 373.985043 242.727307 
L 367.859485 229.755969 
L 361.733928 220.775811 
L 355.60837 225.764787 
L 349.482813 213.791244 
L 343.357256 182.859591 
L 337.231698 187.848567 
L 331.106141 194.833134 
L 324.980583 168.890457 
L 318.855026 189.844157 
L 312.729468 234.744945 
L 306.603911 188.846362 
L 300.478353 221.773606 
L 294.352796 195.830929 
L 288.227238 192.837543 
L 282.101681 242.727307 
L 275.976123 232.749354 
L 269.850566 235.74274 
L 263.725009 236.740535 
L 257.599451 250.709669 
L 251.473894 241.729512 
L 245.348336 242.727307 
L 239.222779 227.760378 
L 233.097221 238.736126 
L 226.971664 243.725102 
L 220.846106 236.740535 
L 214.720549 229.755969 
L 208.594991 224.766992 
L 202.469434 226.762583 
L 196.343877 203.813291 
L 190.218319 176.872819 
L 184.092762 209.800063 
L 177.967204 216.78463 
L 171.841647 215.786835 
L 165.716089 208.802268 
L 159.590532 227.760378 
L 153.464974 190.841953 
L 147.339417 208.802268 
L 141.213859 220.775811 
L 135.088302 204.811087 
L 128.962744 195.830929 
L 122.837187 211.795654 
L 116.71163 166.894866 
L 110.586072 183.857386 
L 104.460515 153.923528 
L 98.334957 150.930142 
L 92.2094 168.890457 
L 86.083842 171.883843 
L 79.958285 147.936756 
L 73.832727 99.044787 
z
" style="fill:#17becf;"/>
   </g>
   <g id="PolyCollection_11">
    <path clip-path="url(#p049f249d3f)" d="M 73.832727 98.046992 
L 73.832727 99.044787 
L 79.958285 147.936756 
L 86.083842 171.883843 
L 92.2094 168.890457 
L 98.334957 150.930142 
L 104.460515 153.923528 
L 110.586072 183.857386 
L 116.71163 166.894866 
L 122.837187 211.795654 
L 128.962744 195.830929 
L 135.088302 204.811087 
L 141.213859 220.775811 
L 147.339417 208.802268 
L 153.464974 190.841953 
L 159.590532 227.760378 
L 165.716089 208.802268 
L 171.841647 215.786835 
L 177.967204 216.78463 
L 184.092762 209.800063 
L 190.218319 176.872819 
L 196.343877 203.813291 
L 202.469434 226.762583 
L 208.594991 224.766992 
L 214.720549 229.755969 
L 220.846106 236.740535 
L 226.971664 243.725102 
L 233.097221 238.736126 
L 239.222779 227.760378 
L 245.348336 242.727307 
L 251.473894 241.729512 
L 257.599451 250.709669 
L 263.725009 236.740535 
L 269.850566 235.74274 
L 275.976123 232.749354 
L 282.101681 242.727307 
L 288.227238 192.837543 
L 294.352796 195.830929 
L 300.478353 221.773606 
L 306.603911 188.846362 
L 312.729468 234.744945 
L 318.855026 189.844157 
L 324.980583 168.890457 
L 331.106141 194.833134 
L 337.231698 187.848567 
L 343.357256 182.859591 
L 349.482813 213.791244 
L 355.60837 225.764787 
L 361.733928 220.775811 
L 367.859485 229.755969 
L 373.985043 242.727307 
L 380.1106 216.78463 
L 386.236158 210.797858 
L 392.361715 233.74715 
L 398.487273 212.793449 
L 398.487273 169.888252 
L 398.487273 169.888252 
L 392.361715 153.923528 
L 386.236158 178.868409 
L 380.1106 188.846362 
L 373.985043 215.786835 
L 367.859485 194.833134 
L 361.733928 198.824315 
L 355.60837 203.813291 
L 349.482813 197.82652 
L 343.357256 167.892661 
L 337.231698 173.879433 
L 331.106141 178.868409 
L 324.980583 158.912504 
L 318.855026 180.864 
L 312.729468 207.804472 
L 306.603911 156.916913 
L 300.478353 186.850772 
L 294.352796 175.875024 
L 288.227238 166.894866 
L 282.101681 207.804472 
L 275.976123 210.797858 
L 269.850566 221.773606 
L 263.725009 216.78463 
L 257.599451 226.762583 
L 251.473894 230.753764 
L 245.348336 230.753764 
L 239.222779 211.795654 
L 233.097221 221.773606 
L 226.971664 223.769197 
L 220.846106 222.771402 
L 214.720549 195.830929 
L 208.594991 198.824315 
L 202.469434 183.857386 
L 196.343877 193.835339 
L 190.218319 167.892661 
L 184.092762 174.877228 
L 177.967204 210.797858 
L 171.841647 211.795654 
L 165.716089 205.808882 
L 159.590532 225.764787 
L 153.464974 187.848567 
L 147.339417 204.811087 
L 141.213859 217.782425 
L 135.088302 201.817701 
L 128.962744 193.835339 
L 122.837187 208.802268 
L 116.71163 162.903685 
L 110.586072 178.868409 
L 104.460515 149.932346 
L 98.334957 146.938961 
L 92.2094 163.90148 
L 86.083842 166.894866 
L 79.958285 144.94337 
L 73.832727 98.046992 
z
" style="fill:#1f77b4;"/>
   </g>
   <g id="PolyCollection_12">
    <path clip-path="url(#p049f249d3f)" d="M 73.832727 97.049197 
L 73.832727 98.046992 
L 79.958285 144.94337 
L 86.083842 166.894866 
L 92.2094 163.90148 
L 98.334957 146.938961 
L 104.460515 149.932346 
L 110.586072 178.868409 
L 116.71163 162.903685 
L 122.837187 208.802268 
L 128.962744 193.835339 
L 135.088302 201.817701 
L 141.213859 217.782425 
L 147.339417 204.811087 
L 153.464974 187.848567 
L 159.590532 225.764787 
L 165.716089 205.808882 
L 171.841647 211.795654 
L 177.967204 210.797858 
L 184.092762 174.877228 
L 190.218319 167.892661 
L 196.343877 193.835339 
L 202.469434 183.857386 
L 208.594991 198.824315 
L 214.720549 195.830929 
L 220.846106 222.771402 
L 226.971664 223.769197 
L 233.097221 221.773606 
L 239.222779 211.795654 
L 245.348336 230.753764 
L 251.473894 230.753764 
L 257.599451 226.762583 
L 263.725009 216.78463 
L 269.850566 221.773606 
L 275.976123 210.797858 
L 282.101681 207.804472 
L 288.227238 166.894866 
L 294.352796 175.875024 
L 300.478353 186.850772 
L 306.603911 156.916913 
L 312.729468 207.804472 
L 318.855026 180.864 
L 324.980583 158.912504 
L 331.106141 178.868409 
L 337.231698 173.879433 
L 343.357256 167.892661 
L 349.482813 197.82652 
L 355.60837 203.813291 
L 361.733928 198.824315 
L 367.859485 194.833134 
L 373.985043 215.786835 
L 380.1106 188.846362 
L 386.236158 178.868409 
L 392.361715 153.923528 
L 398.487273 169.888252 
L 398.487273 169.888252 
L 398.487273 169.888252 
L 392.361715 153.923528 
L 386.236158 178.868409 
L 380.1106 188.846362 
L 373.985043 215.786835 
L 367.859485 188.846362 
L 361.733928 194.833134 
L 355.60837 199.82211 
L 349.482813 188.846362 
L 343.357256 158.912504 
L 337.231698 168.890457 
L 331.106141 172.881638 
L 324.980583 151.927937 
L 318.855026 160.908094 
L 312.729468 192.837543 
L 306.603911 139.954394 
L 300.478353 162.903685 
L 294.352796 165.897071 
L 288.227238 149.932346 
L 282.101681 202.815496 
L 275.976123 200.819906 
L 269.850566 213.791244 
L 263.725009 207.804472 
L 257.599451 220.775811 
L 251.473894 216.78463 
L 245.348336 221.773606 
L 239.222779 198.824315 
L 233.097221 193.835339 
L 226.971664 211.795654 
L 220.846106 211.795654 
L 214.720549 185.852976 
L 208.594991 195.830929 
L 202.469434 164.899276 
L 196.343877 177.870614 
L 190.218319 163.90148 
L 184.092762 171.883843 
L 177.967204 206.806677 
L 171.841647 208.802268 
L 165.716089 203.813291 
L 159.590532 222.771402 
L 153.464974 185.852976 
L 147.339417 202.815496 
L 141.213859 215.786835 
L 135.088302 198.824315 
L 128.962744 189.844157 
L 122.837187 205.808882 
L 116.71163 160.908094 
L 110.586072 174.877228 
L 104.460515 146.938961 
L 98.334957 142.94778 
L 92.2094 160.908094 
L 86.083842 164.899276 
L 79.958285 143.945575 
L 73.832727 97.049197 
z
" style="fill:#ff7f0e;"/>
   </g>
   <g id="PolyCollection_13">
    <path clip-path="url(#p049f249d3f)" d="M 73.832727 91.062425 
L 73.832727 97.049197 
L 79.958285 143.945575 
L 86.083842 164.899276 
L 92.2094 160.908094 
L 98.334957 142.94778 
L 104.460515 146.938961 
L 110.586072 174.877228 
L 116.71163 160.908094 
L 122.837187 205.808882 
L 128.962744 189.844157 
L 135.088302 198.824315 
L 141.213859 215.786835 
L 147.339417 202.815496 
L 153.464974 185.852976 
L 159.590532 222.771402 
L 165.716089 203.813291 
L 171.841647 208.802268 
L 177.967204 206.806677 
L 184.092762 171.883843 
L 190.218319 163.90148 
L 196.343877 177.870614 
L 202.469434 164.899276 
L 208.594991 195.830929 
L 214.720549 185.852976 
L 220.846106 211.795654 
L 226.971664 211.795654 
L 233.097221 193.835339 
L 239.222779 198.824315 
L 245.348336 221.773606 
L 251.473894 216.78463 
L 257.599451 220.775811 
L 263.725009 207.804472 
L 269.850566 213.791244 
L 275.976123 200.819906 
L 282.101681 202.815496 
L 288.227238 149.932346 
L 294.352796 165.897071 
L 300.478353 162.903685 
L 306.603911 139.954394 
L 312.729468 192.837543 
L 318.855026 160.908094 
L 324.980583 151.927937 
L 331.106141 172.881638 
L 337.231698 168.890457 
L 343.357256 158.912504 
L 349.482813 188.846362 
L 355.60837 199.82211 
L 361.733928 194.833134 
L 367.859485 188.846362 
L 373.985043 215.786835 
L 380.1106 188.846362 
L 386.236158 178.868409 
L 392.361715 153.923528 
L 398.487273 169.888252 
L 398.487273 169.888252 
L 398.487273 169.888252 
L 392.361715 146.938961 
L 386.236158 171.883843 
L 380.1106 178.868409 
L 373.985043 206.806677 
L 367.859485 176.872819 
L 361.733928 188.846362 
L 355.60837 197.82652 
L 349.482813 185.852976 
L 343.357256 139.954394 
L 337.231698 156.916913 
L 331.106141 153.923528 
L 324.980583 138.956598 
L 318.855026 149.932346 
L 312.729468 164.899276 
L 306.603911 127.98085 
L 300.478353 142.94778 
L 294.352796 154.921323 
L 288.227238 137.958803 
L 282.101681 192.837543 
L 275.976123 183.857386 
L 269.850566 199.82211 
L 263.725009 197.82652 
L 257.599451 211.795654 
L 251.473894 210.797858 
L 245.348336 212.793449 
L 239.222779 190.841953 
L 233.097221 184.855181 
L 226.971664 204.811087 
L 220.846106 200.819906 
L 214.720549 170.886047 
L 208.594991 187.848567 
L 202.469434 157.914709 
L 196.343877 165.897071 
L 190.218319 159.910299 
L 184.092762 164.899276 
L 177.967204 205.808882 
L 171.841647 198.824315 
L 165.716089 193.835339 
L 159.590532 213.791244 
L 153.464974 178.868409 
L 147.339417 193.835339 
L 141.213859 207.804472 
L 135.088302 196.828724 
L 128.962744 180.864 
L 122.837187 193.835339 
L 116.71163 156.916913 
L 110.586072 168.890457 
L 104.460515 138.956598 
L 98.334957 131.972031 
L 92.2094 154.921323 
L 86.083842 161.90589 
L 79.958285 130.974236 
L 73.832727 91.062425 
z
" style="fill:#2ca02c;"/>
   </g>
   <g id="PolyCollection_14">
    <path clip-path="url(#p049f249d3f)" d="M 73.832727 88.069039 
L 73.832727 91.062425 
L 79.958285 130.974236 
L 86.083842 161.90589 
L 92.2094 154.921323 
L 98.334957 131.972031 
L 104.460515 138.956598 
L 110.586072 168.890457 
L 116.71163 156.916913 
L 122.837187 193.835339 
L 128.962744 180.864 
L 135.088302 196.828724 
L 141.213859 207.804472 
L 147.339417 193.835339 
L 153.464974 178.868409 
L 159.590532 213.791244 
L 165.716089 193.835339 
L 171.841647 198.824315 
L 177.967204 205.808882 
L 184.092762 164.899276 
L 190.218319 159.910299 
L 196.343877 165.897071 
L 202.469434 157.914709 
L 208.594991 187.848567 
L 214.720549 170.886047 
L 220.846106 200.819906 
L 226.971664 204.811087 
L 233.097221 184.855181 
L 239.222779 190.841953 
L 245.348336 212.793449 
L 251.473894 210.797858 
L 257.599451 211.795654 
L 263.725009 197.82652 
L 269.850566 199.82211 
L 275.976123 183.857386 
L 282.101681 192.837543 
L 288.227238 137.958803 
L 294.352796 154.921323 
L 300.478353 142.94778 
L 306.603911 127.98085 
L 312.729468 164.899276 
L 318.855026 149.932346 
L 324.980583 138.956598 
L 331.106141 153.923528 
L 337.231698 156.916913 
L 343.357256 139.954394 
L 349.482813 185.852976 
L 355.60837 197.82652 
L 361.733928 188.846362 
L 367.859485 176.872819 
L 373.985043 206.806677 
L 380.1106 178.868409 
L 386.236158 171.883843 
L 392.361715 146.938961 
L 398.487273 169.888252 
L 398.487273 169.888252 
L 398.487273 169.888252 
L 392.361715 146.938961 
L 386.236158 171.883843 
L 380.1106 178.868409 
L 373.985043 206.806677 
L 367.859485 176.872819 
L 361.733928 188.846362 
L 355.60837 197.82652 
L 349.482813 185.852976 
L 343.357256 139.954394 
L 337.231698 156.916913 
L 331.106141 153.923528 
L 324.980583 138.956598 
L 318.855026 149.932346 
L 312.729468 164.899276 
L 306.603911 127.98085 
L 300.478353 142.94778 
L 294.352796 154.921323 
L 288.227238 137.958803 
L 282.101681 161.90589 
L 275.976123 166.894866 
L 269.850566 176.872819 
L 263.725009 176.872819 
L 257.599451 196.828724 
L 251.473894 201.817701 
L 245.348336 195.830929 
L 239.222779 180.864 
L 233.097221 167.892661 
L 226.971664 191.839748 
L 220.846106 188.846362 
L 214.720549 166.894866 
L 208.594991 184.855181 
L 202.469434 124.987465 
L 196.343877 152.925732 
L 190.218319 143.945575 
L 184.092762 153.923528 
L 177.967204 178.868409 
L 171.841647 190.841953 
L 165.716089 186.850772 
L 159.590532 200.819906 
L 153.464974 172.881638 
L 147.339417 181.861795 
L 141.213859 194.833134 
L 135.088302 189.844157 
L 128.962744 170.886047 
L 122.837187 140.952189 
L 116.71163 146.938961 
L 110.586072 161.90589 
L 104.460515 132.969827 
L 98.334957 127.98085 
L 92.2094 149.932346 
L 86.083842 157.914709 
L 79.958285 129.976441 
L 73.832727 88.069039 
z
" style="fill:#d62728;"/>
   </g>
   <g id="PolyCollection_15">
    <path clip-path="url(#p049f249d3f)" d="M 73.832727 83.080063 
L 73.832727 88.069039 
L 79.958285 129.976441 
L 86.083842 157.914709 
L 92.2094 149.932346 
L 98.334957 127.98085 
L 104.460515 132.969827 
L 110.586072 161.90589 
L 116.71163 146.938961 
L 122.837187 140.952189 
L 128.962744 170.886047 
L 135.088302 189.844157 
L 141.213859 194.833134 
L 147.339417 181.861795 
L 153.464974 172.881638 
L 159.590532 200.819906 
L 165.716089 186.850772 
L 171.841647 190.841953 
L 177.967204 178.868409 
L 184.092762 153.923528 
L 190.218319 143.945575 
L 196.343877 152.925732 
L 202.469434 124.987465 
L 208.594991 184.855181 
L 214.720549 166.894866 
L 220.846106 188.846362 
L 226.971664 191.839748 
L 233.097221 167.892661 
L 239.222779 180.864 
L 245.348336 195.830929 
L 251.473894 201.817701 
L 257.599451 196.828724 
L 263.725009 176.872819 
L 269.850566 176.872819 
L 275.976123 166.894866 
L 282.101681 161.90589 
L 288.227238 137.958803 
L 294.352796 154.921323 
L 300.478353 142.94778 
L 306.603911 127.98085 
L 312.729468 164.899276 
L 318.855026 149.932346 
L 324.980583 138.956598 
L 331.106141 153.923528 
L 337.231698 156.916913 
L 343.357256 139.954394 
L 349.482813 185.852976 
L 355.60837 197.82652 
L 361.733928 188.846362 
L 367.859485 176.872819 
L 373.985043 206.806677 
L 380.1106 178.868409 
L 386.236158 171.883843 
L 392.361715 146.938961 
L 398.487273 169.888252 
L 398.487273 155.919118 
L 398.487273 155.919118 
L 392.361715 135.963213 
L 386.236158 158.912504 
L 380.1106 168.890457 
L 373.985043 191.839748 
L 367.859485 169.888252 
L 361.733928 183.857386 
L 355.60837 155.919118 
L 349.482813 175.875024 
L 343.357256 123.989669 
L 337.231698 134.965417 
L 331.106141 147.936756 
L 324.980583 124.987465 
L 318.855026 137.958803 
L 312.729468 156.916913 
L 306.603911 123.989669 
L 300.478353 139.954394 
L 294.352796 128.978646 
L 288.227238 113.013921 
L 282.101681 114.011717 
L 275.976123 140.952189 
L 269.850566 142.94778 
L 263.725009 150.930142 
L 257.599451 162.903685 
L 251.473894 162.903685 
L 245.348336 159.910299 
L 239.222779 160.908094 
L 233.097221 149.932346 
L 226.971664 174.877228 
L 220.846106 170.886047 
L 214.720549 144.94337 
L 208.594991 166.894866 
L 202.469434 112.016126 
L 196.343877 139.954394 
L 190.218319 137.958803 
L 184.092762 140.952189 
L 177.967204 165.897071 
L 171.841647 154.921323 
L 165.716089 148.934551 
L 159.590532 159.910299 
L 153.464974 135.963213 
L 147.339417 147.936756 
L 141.213859 145.941165 
L 135.088302 144.94337 
L 128.962744 160.908094 
L 122.837187 135.963213 
L 116.71163 142.94778 
L 110.586072 159.910299 
L 104.460515 130.974236 
L 98.334957 124.987465 
L 92.2094 144.94337 
L 86.083842 153.923528 
L 79.958285 125.98526 
L 73.832727 83.080063 
z
" style="fill:#9467bd;"/>
   </g>
   <g id="PolyCollection_16">
    <path clip-path="url(#p049f249d3f)" d="M 73.832727 78.091087 
L 73.832727 83.080063 
L 79.958285 125.98526 
L 86.083842 153.923528 
L 92.2094 144.94337 
L 98.334957 124.987465 
L 104.460515 130.974236 
L 110.586072 159.910299 
L 116.71163 142.94778 
L 122.837187 135.963213 
L 128.962744 160.908094 
L 135.088302 144.94337 
L 141.213859 145.941165 
L 147.339417 147.936756 
L 153.464974 135.963213 
L 159.590532 159.910299 
L 165.716089 148.934551 
L 171.841647 154.921323 
L 177.967204 165.897071 
L 184.092762 140.952189 
L 190.218319 137.958803 
L 196.343877 139.954394 
L 202.469434 112.016126 
L 208.594991 166.894866 
L 214.720549 144.94337 
L 220.846106 170.886047 
L 226.971664 174.877228 
L 233.097221 149.932346 
L 239.222779 160.908094 
L 245.348336 159.910299 
L 251.473894 162.903685 
L 257.599451 162.903685 
L 263.725009 150.930142 
L 269.850566 142.94778 
L 275.976123 140.952189 
L 282.101681 114.011717 
L 288.227238 113.013921 
L 294.352796 128.978646 
L 300.478353 139.954394 
L 306.603911 123.989669 
L 312.729468 156.916913 
L 318.855026 137.958803 
L 324.980583 124.987465 
L 331.106141 147.936756 
L 337.231698 134.965417 
L 343.357256 123.989669 
L 349.482813 175.875024 
L 355.60837 155.919118 
L 361.733928 183.857386 
L 367.859485 169.888252 
L 373.985043 191.839748 
L 380.1106 168.890457 
L 386.236158 158.912504 
L 392.361715 135.963213 
L 398.487273 155.919118 
L 398.487273 140.952189 
L 398.487273 140.952189 
L 392.361715 132.969827 
L 386.236158 142.94778 
L 380.1106 151.927937 
L 373.985043 161.90589 
L 367.859485 153.923528 
L 361.733928 159.910299 
L 355.60837 138.956598 
L 349.482813 165.897071 
L 343.357256 110.020535 
L 337.231698 116.007307 
L 331.106141 122.991874 
L 324.980583 97.049197 
L 318.855026 115.009512 
L 312.729468 119.000693 
L 306.603911 110.020535 
L 300.478353 124.987465 
L 294.352796 111.018331 
L 288.227238 104.033764 
L 282.101681 107.02715 
L 275.976123 124.987465 
L 269.850566 130.974236 
L 263.725009 142.94778 
L 257.599451 140.952189 
L 251.473894 143.945575 
L 245.348336 145.941165 
L 239.222779 156.916913 
L 233.097221 135.963213 
L 226.971664 164.899276 
L 220.846106 162.903685 
L 214.720549 133.967622 
L 208.594991 158.912504 
L 202.469434 106.029354 
L 196.343877 134.965417 
L 190.218319 129.976441 
L 184.092762 137.958803 
L 177.967204 150.930142 
L 171.841647 146.938961 
L 165.716089 131.972031 
L 159.590532 147.936756 
L 153.464974 128.978646 
L 147.339417 123.989669 
L 141.213859 132.969827 
L 135.088302 128.978646 
L 128.962744 143.945575 
L 122.837187 119.000693 
L 116.71163 130.974236 
L 110.586072 132.969827 
L 104.460515 124.987465 
L 98.334957 117.005102 
L 92.2094 119.000693 
L 86.083842 145.941165 
L 79.958285 116.007307 
L 73.832727 78.091087 
z
" style="fill:#8c564b;"/>
   </g>
   <g id="PolyCollection_17">
    <path clip-path="url(#p049f249d3f)" d="M 73.832727 77.093291 
L 73.832727 78.091087 
L 79.958285 116.007307 
L 86.083842 145.941165 
L 92.2094 119.000693 
L 98.334957 117.005102 
L 104.460515 124.987465 
L 110.586072 132.969827 
L 116.71163 130.974236 
L 122.837187 119.000693 
L 128.962744 143.945575 
L 135.088302 128.978646 
L 141.213859 132.969827 
L 147.339417 123.989669 
L 153.464974 128.978646 
L 159.590532 147.936756 
L 165.716089 131.972031 
L 171.841647 146.938961 
L 177.967204 150.930142 
L 184.092762 137.958803 
L 190.218319 129.976441 
L 196.343877 134.965417 
L 202.469434 106.029354 
L 208.594991 158.912504 
L 214.720549 133.967622 
L 220.846106 162.903685 
L 226.971664 164.899276 
L 233.097221 135.963213 
L 239.222779 156.916913 
L 245.348336 145.941165 
L 251.473894 143.945575 
L 257.599451 140.952189 
L 263.725009 142.94778 
L 269.850566 130.974236 
L 275.976123 124.987465 
L 282.101681 107.02715 
L 288.227238 104.033764 
L 294.352796 111.018331 
L 300.478353 124.987465 
L 306.603911 110.020535 
L 312.729468 119.000693 
L 318.855026 115.009512 
L 324.980583 97.049197 
L 331.106141 122.991874 
L 337.231698 116.007307 
L 343.357256 110.020535 
L 349.482813 165.897071 
L 355.60837 138.956598 
L 361.733928 159.910299 
L 367.859485 153.923528 
L 373.985043 161.90589 
L 380.1106 151.927937 
L 386.236158 142.94778 
L 392.361715 132.969827 
L 398.487273 140.952189 
L 398.487273 140.952189 
L 398.487273 140.952189 
L 392.361715 132.969827 
L 386.236158 142.94778 
L 380.1106 151.927937 
L 373.985043 161.90589 
L 367.859485 153.923528 
L 361.733928 159.910299 
L 355.60837 138.956598 
L 349.482813 165.897071 
L 343.357256 110.020535 
L 337.231698 116.007307 
L 331.106141 122.991874 
L 324.980583 97.049197 
L 318.855026 115.009512 
L 312.729468 119.000693 
L 306.603911 110.020535 
L 300.478353 124.987465 
L 294.352796 111.018331 
L 288.227238 104.033764 
L 282.101681 107.02715 
L 275.976123 124.987465 
L 269.850566 130.974236 
L 263.725009 142.94778 
L 257.599451 140.952189 
L 251.473894 143.945575 
L 245.348336 145.941165 
L 239.222779 156.916913 
L 233.097221 135.963213 
L 226.971664 164.899276 
L 220.846106 162.903685 
L 214.720549 133.967622 
L 208.594991 156.916913 
L 202.469434 104.033764 
L 196.343877 132.969827 
L 190.218319 127.98085 
L 184.092762 135.963213 
L 177.967204 147.936756 
L 171.841647 144.94337 
L 165.716089 129.976441 
L 159.590532 145.941165 
L 153.464974 125.98526 
L 147.339417 121.994079 
L 141.213859 129.976441 
L 135.088302 126.983055 
L 128.962744 140.952189 
L 122.837187 115.009512 
L 116.71163 127.98085 
L 110.586072 130.974236 
L 104.460515 121.994079 
L 98.334957 114.011717 
L 92.2094 115.009512 
L 86.083842 139.954394 
L 79.958285 112.016126 
L 73.832727 77.093291 
z
" style="fill:#e377c2;"/>
   </g>
   <g id="PolyCollection_18">
    <path clip-path="url(#p049f249d3f)" d="M 73.832727 76.095496 
L 73.832727 77.093291 
L 79.958285 112.016126 
L 86.083842 139.954394 
L 92.2094 115.009512 
L 98.334957 114.011717 
L 104.460515 121.994079 
L 110.586072 130.974236 
L 116.71163 127.98085 
L 122.837187 115.009512 
L 128.962744 140.952189 
L 135.088302 126.983055 
L 141.213859 129.976441 
L 147.339417 121.994079 
L 153.464974 125.98526 
L 159.590532 145.941165 
L 165.716089 129.976441 
L 171.841647 144.94337 
L 177.967204 147.936756 
L 184.092762 135.963213 
L 190.218319 127.98085 
L 196.343877 132.969827 
L 202.469434 104.033764 
L 208.594991 156.916913 
L 214.720549 133.967622 
L 220.846106 162.903685 
L 226.971664 164.899276 
L 233.097221 135.963213 
L 239.222779 156.916913 
L 245.348336 145.941165 
L 251.473894 143.945575 
L 257.599451 140.952189 
L 263.725009 142.94778 
L 269.850566 130.974236 
L 275.976123 124.987465 
L 282.101681 107.02715 
L 288.227238 104.033764 
L 294.352796 111.018331 
L 300.478353 124.987465 
L 306.603911 110.020535 
L 312.729468 119.000693 
L 318.855026 115.009512 
L 324.980583 97.049197 
L 331.106141 122.991874 
L 337.231698 116.007307 
L 343.357256 110.020535 
L 349.482813 165.897071 
L 355.60837 138.956598 
L 361.733928 159.910299 
L 367.859485 153.923528 
L 373.985043 161.90589 
L 380.1106 151.927937 
L 386.236158 142.94778 
L 392.361715 132.969827 
L 398.487273 140.952189 
L 398.487273 140.952189 
L 398.487273 140.952189 
L 392.361715 132.969827 
L 386.236158 142.94778 
L 380.1106 151.927937 
L 373.985043 161.90589 
L 367.859485 153.923528 
L 361.733928 159.910299 
L 355.60837 138.956598 
L 349.482813 165.897071 
L 343.357256 104.033764 
L 337.231698 111.018331 
L 331.106141 116.007307 
L 324.980583 92.06022 
L 318.855026 106.029354 
L 312.729468 111.018331 
L 306.603911 104.033764 
L 300.478353 119.000693 
L 294.352796 103.035969 
L 288.227238 92.06022 
L 282.101681 102.038173 
L 275.976123 119.998488 
L 269.850566 122.991874 
L 263.725009 135.963213 
L 257.599451 130.974236 
L 251.473894 136.961008 
L 245.348336 136.961008 
L 239.222779 146.938961 
L 233.097221 128.978646 
L 226.971664 156.916913 
L 220.846106 156.916913 
L 214.720549 127.98085 
L 208.594991 152.925732 
L 202.469434 100.042583 
L 196.343877 126.983055 
L 190.218319 122.991874 
L 184.092762 129.976441 
L 177.967204 142.94778 
L 171.841647 138.956598 
L 165.716089 124.987465 
L 159.590532 140.952189 
L 153.464974 121.994079 
L 147.339417 118.002898 
L 141.213859 126.983055 
L 135.088302 122.991874 
L 128.962744 137.958803 
L 122.837187 112.016126 
L 116.71163 122.991874 
L 110.586072 127.98085 
L 104.460515 117.005102 
L 98.334957 109.02274 
L 92.2094 107.02715 
L 86.083842 133.967622 
L 79.958285 108.024945 
L 73.832727 76.095496 
z
" style="fill:#7f7f7f;"/>
   </g>
   <g id="PolyCollection_19">
    <path clip-path="url(#p049f249d3f)" d="M 73.832727 72.104315 
L 73.832727 76.095496 
L 79.958285 108.024945 
L 86.083842 133.967622 
L 92.2094 107.02715 
L 98.334957 109.02274 
L 104.460515 117.005102 
L 110.586072 127.98085 
L 116.71163 122.991874 
L 122.837187 112.016126 
L 128.962744 137.958803 
L 135.088302 122.991874 
L 141.213859 126.983055 
L 147.339417 118.002898 
L 153.464974 121.994079 
L 159.590532 140.952189 
L 165.716089 124.987465 
L 171.841647 138.956598 
L 177.967204 142.94778 
L 184.092762 129.976441 
L 190.218319 122.991874 
L 196.343877 126.983055 
L 202.469434 100.042583 
L 208.594991 152.925732 
L 214.720549 127.98085 
L 220.846106 156.916913 
L 226.971664 156.916913 
L 233.097221 128.978646 
L 239.222779 146.938961 
L 245.348336 136.961008 
L 251.473894 136.961008 
L 257.599451 130.974236 
L 263.725009 135.963213 
L 269.850566 122.991874 
L 275.976123 119.998488 
L 282.101681 102.038173 
L 288.227238 92.06022 
L 294.352796 103.035969 
L 300.478353 119.000693 
L 306.603911 104.033764 
L 312.729468 111.018331 
L 318.855026 106.029354 
L 324.980583 92.06022 
L 331.106141 116.007307 
L 337.231698 111.018331 
L 343.357256 104.033764 
L 349.482813 165.897071 
L 355.60837 138.956598 
L 361.733928 159.910299 
L 367.859485 153.923528 
L 373.985043 161.90589 
L 380.1106 151.927937 
L 386.236158 142.94778 
L 392.361715 132.969827 
L 398.487273 140.952189 
L 398.487273 140.952189 
L 398.487273 140.952189 
L 392.361715 132.969827 
L 386.236158 142.94778 
L 380.1106 151.927937 
L 373.985043 161.90589 
L 367.859485 153.923528 
L 361.733928 159.910299 
L 355.60837 138.956598 
L 349.482813 165.897071 
L 343.357256 104.033764 
L 337.231698 111.018331 
L 331.106141 116.007307 
L 324.980583 92.06022 
L 318.855026 106.029354 
L 312.729468 111.018331 
L 306.603911 104.033764 
L 300.478353 119.000693 
L 294.352796 103.035969 
L 288.227238 92.06022 
L 282.101681 102.038173 
L 275.976123 119.998488 
L 269.850566 122.991874 
L 263.725009 135.963213 
L 257.599451 130.974236 
L 251.473894 132.969827 
L 245.348336 132.969827 
L 239.222779 142.94778 
L 233.097221 124.987465 
L 226.971664 139.954394 
L 220.846106 141.949984 
L 214.720549 109.02274 
L 208.594991 141.949984 
L 202.469434 93.058016 
L 196.343877 121.994079 
L 190.218319 119.000693 
L 184.092762 112.016126 
L 177.967204 127.98085 
L 171.841647 116.007307 
L 165.716089 109.02274 
L 159.590532 122.991874 
L 153.464974 110.020535 
L 147.339417 102.038173 
L 141.213859 114.011717 
L 135.088302 104.033764 
L 128.962744 117.005102 
L 122.837187 93.058016 
L 116.71163 99.044787 
L 110.586072 105.031559 
L 104.460515 104.033764 
L 98.334957 94.055811 
L 92.2094 93.058016 
L 86.083842 119.000693 
L 79.958285 102.038173 
L 73.832727 72.104315 
z
" style="fill:#bcbd22;"/>
   </g>
   <g id="PolyCollection_20">
    <path clip-path="url(#p049f249d3f)" d="M 73.832727 68.113134 
L 73.832727 72.104315 
L 79.958285 102.038173 
L 86.083842 119.000693 
L 92.2094 93.058016 
L 98.334957 94.055811 
L 104.460515 104.033764 
L 110.586072 105.031559 
L 116.71163 99.044787 
L 122.837187 93.058016 
L 128.962744 117.005102 
L 135.088302 104.033764 
L 141.213859 114.011717 
L 147.339417 102.038173 
L 153.464974 110.020535 
L 159.590532 122.991874 
L 165.716089 109.02274 
L 171.841647 116.007307 
L 177.967204 127.98085 
L 184.092762 112.016126 
L 190.218319 119.000693 
L 196.343877 121.994079 
L 202.469434 93.058016 
L 208.594991 141.949984 
L 214.720549 109.02274 
L 220.846106 141.949984 
L 226.971664 139.954394 
L 233.097221 124.987465 
L 239.222779 142.94778 
L 245.348336 132.969827 
L 251.473894 132.969827 
L 257.599451 130.974236 
L 263.725009 135.963213 
L 269.850566 122.991874 
L 275.976123 119.998488 
L 282.101681 102.038173 
L 288.227238 92.06022 
L 294.352796 103.035969 
L 300.478353 119.000693 
L 306.603911 104.033764 
L 312.729468 111.018331 
L 318.855026 106.029354 
L 324.980583 92.06022 
L 331.106141 116.007307 
L 337.231698 111.018331 
L 343.357256 104.033764 
L 349.482813 165.897071 
L 355.60837 138.956598 
L 361.733928 159.910299 
L 367.859485 153.923528 
L 373.985043 161.90589 
L 380.1106 151.927937 
L 386.236158 142.94778 
L 392.361715 132.969827 
L 398.487273 140.952189 
L 398.487273 116.007307 
L 398.487273 116.007307 
L 392.361715 123.989669 
L 386.236158 114.011717 
L 380.1106 115.009512 
L 373.985043 116.007307 
L 367.859485 119.998488 
L 361.733928 124.987465 
L 355.60837 104.033764 
L 349.482813 137.958803 
L 343.357256 89.066835 
L 337.231698 93.058016 
L 331.106141 90.06463 
L 324.980583 77.093291 
L 318.855026 83.080063 
L 312.729468 99.044787 
L 306.603911 97.049197 
L 300.478353 109.02274 
L 294.352796 87.071244 
L 288.227238 79.088882 
L 282.101681 77.093291 
L 275.976123 86.073449 
L 269.850566 106.029354 
L 263.725009 110.020535 
L 257.599451 111.018331 
L 251.473894 117.005102 
L 245.348336 112.016126 
L 239.222779 125.98526 
L 233.097221 106.029354 
L 226.971664 103.035969 
L 220.846106 105.031559 
L 214.720549 106.029354 
L 208.594991 137.958803 
L 202.469434 91.062425 
L 196.343877 119.998488 
L 190.218319 117.005102 
L 184.092762 110.020535 
L 177.967204 122.991874 
L 171.841647 113.013921 
L 165.716089 106.029354 
L 159.590532 119.000693 
L 153.464974 107.02715 
L 147.339417 100.042583 
L 141.213859 111.018331 
L 135.088302 102.038173 
L 128.962744 115.009512 
L 122.837187 90.06463 
L 116.71163 94.055811 
L 110.586072 101.040378 
L 104.460515 102.038173 
L 98.334957 92.06022 
L 92.2094 91.062425 
L 86.083842 116.007307 
L 79.958285 101.040378 
L 73.832727 68.113134 
z
" style="fill:#17becf;"/>
   </g>
   <g id="PolyCollection_21">
    <path clip-path="url(#p049f249d3f)" d="M 73.832727 64.121953 
L 73.832727 68.113134 
L 79.958285 101.040378 
L 86.083842 116.007307 
L 92.2094 91.062425 
L 98.334957 92.06022 
L 104.460515 102.038173 
L 110.586072 101.040378 
L 116.71163 94.055811 
L 122.837187 90.06463 
L 128.962744 115.009512 
L 135.088302 102.038173 
L 141.213859 111.018331 
L 147.339417 100.042583 
L 153.464974 107.02715 
L 159.590532 119.000693 
L 165.716089 106.029354 
L 171.841647 113.013921 
L 177.967204 122.991874 
L 184.092762 110.020535 
L 190.218319 117.005102 
L 196.343877 119.998488 
L 202.469434 91.062425 
L 208.594991 137.958803 
L 214.720549 106.029354 
L 220.846106 105.031559 
L 226.971664 103.035969 
L 233.097221 106.029354 
L 239.222779 125.98526 
L 245.348336 112.016126 
L 251.473894 117.005102 
L 257.599451 111.018331 
L 263.725009 110.020535 
L 269.850566 106.029354 
L 275.976123 86.073449 
L 282.101681 77.093291 
L 288.227238 79.088882 
L 294.352796 87.071244 
L 300.478353 109.02274 
L 306.603911 97.049197 
L 312.729468 99.044787 
L 318.855026 83.080063 
L 324.980583 77.093291 
L 331.106141 90.06463 
L 337.231698 93.058016 
L 343.357256 89.066835 
L 349.482813 137.958803 
L 355.60837 104.033764 
L 361.733928 124.987465 
L 367.859485 119.998488 
L 373.985043 116.007307 
L 380.1106 115.009512 
L 386.236158 114.011717 
L 392.361715 123.989669 
L 398.487273 116.007307 
L 398.487273 107.02715 
L 398.487273 107.02715 
L 392.361715 118.002898 
L 386.236158 105.031559 
L 380.1106 100.042583 
L 373.985043 101.040378 
L 367.859485 108.024945 
L 361.733928 113.013921 
L 355.60837 99.044787 
L 349.482813 131.972031 
L 343.357256 73.10211 
L 337.231698 82.082268 
L 331.106141 73.10211 
L 324.980583 62.126362 
L 318.855026 66.117543 
L 312.729468 81.084472 
L 306.603911 81.084472 
L 300.478353 81.084472 
L 294.352796 80.086677 
L 288.227238 73.10211 
L 282.101681 69.110929 
L 275.976123 82.082268 
L 269.850566 102.038173 
L 263.725009 101.040378 
L 257.599451 104.033764 
L 251.473894 106.029354 
L 245.348336 103.035969 
L 239.222779 115.009512 
L 233.097221 99.044787 
L 226.971664 93.058016 
L 220.846106 99.044787 
L 214.720549 99.044787 
L 208.594991 107.02715 
L 202.469434 77.093291 
L 196.343877 94.055811 
L 190.218319 92.06022 
L 184.092762 89.066835 
L 177.967204 101.040378 
L 171.841647 99.044787 
L 165.716089 98.046992 
L 159.590532 109.02274 
L 153.464974 99.044787 
L 147.339417 90.06463 
L 141.213859 95.053606 
L 135.088302 91.062425 
L 128.962744 108.024945 
L 122.837187 82.082268 
L 116.71163 82.082268 
L 110.586072 79.088882 
L 104.460515 83.080063 
L 98.334957 85.075654 
L 92.2094 82.082268 
L 86.083842 87.071244 
L 79.958285 82.082268 
L 73.832727 64.121953 
z
" style="fill:#1f77b4;"/>
   </g>
   <g id="PolyCollection_22">
    <path clip-path="url(#p049f249d3f)" d="M 73.832727 63.124157 
L 73.832727 64.121953 
L 79.958285 82.082268 
L 86.083842 87.071244 
L 92.2094 82.082268 
L 98.334957 85.075654 
L 104.460515 83.080063 
L 110.586072 79.088882 
L 116.71163 82.082268 
L 122.837187 82.082268 
L 128.962744 108.024945 
L 135.088302 91.062425 
L 141.213859 95.053606 
L 147.339417 90.06463 
L 153.464974 99.044787 
L 159.590532 109.02274 
L 165.716089 98.046992 
L 171.841647 99.044787 
L 177.967204 101.040378 
L 184.092762 89.066835 
L 190.218319 92.06022 
L 196.343877 94.055811 
L 202.469434 77.093291 
L 208.594991 107.02715 
L 214.720549 99.044787 
L 220.846106 99.044787 
L 226.971664 93.058016 
L 233.097221 99.044787 
L 239.222779 115.009512 
L 245.348336 103.035969 
L 251.473894 106.029354 
L 257.599451 104.033764 
L 263.725009 101.040378 
L 269.850566 102.038173 
L 275.976123 82.082268 
L 282.101681 69.110929 
L 288.227238 73.10211 
L 294.352796 80.086677 
L 300.478353 81.084472 
L 306.603911 81.084472 
L 312.729468 81.084472 
L 318.855026 66.117543 
L 324.980583 62.126362 
L 331.106141 73.10211 
L 337.231698 82.082268 
L 343.357256 73.10211 
L 349.482813 131.972031 
L 355.60837 99.044787 
L 361.733928 113.013921 
L 367.859485 108.024945 
L 373.985043 101.040378 
L 380.1106 100.042583 
L 386.236158 105.031559 
L 392.361715 118.002898 
L 398.487273 107.02715 
L 398.487273 107.02715 
L 398.487273 107.02715 
L 392.361715 118.002898 
L 386.236158 105.031559 
L 380.1106 100.042583 
L 373.985043 101.040378 
L 367.859485 108.024945 
L 361.733928 113.013921 
L 355.60837 99.044787 
L 349.482813 131.972031 
L 343.357256 73.10211 
L 337.231698 82.082268 
L 331.106141 73.10211 
L 324.980583 62.126362 
L 318.855026 66.117543 
L 312.729468 81.084472 
L 306.603911 81.084472 
L 300.478353 81.084472 
L 294.352796 80.086677 
L 288.227238 73.10211 
L 282.101681 69.110929 
L 275.976123 82.082268 
L 269.850566 102.038173 
L 263.725009 101.040378 
L 257.599451 104.033764 
L 251.473894 106.029354 
L 245.348336 103.035969 
L 239.222779 115.009512 
L 233.097221 99.044787 
L 226.971664 93.058016 
L 220.846106 99.044787 
L 214.720549 99.044787 
L 208.594991 104.033764 
L 202.469434 75.097701 
L 196.343877 91.062425 
L 190.218319 90.06463 
L 184.092762 87.071244 
L 177.967204 99.044787 
L 171.841647 96.051402 
L 165.716089 96.051402 
L 159.590532 106.029354 
L 153.464974 97.049197 
L 147.339417 88.069039 
L 141.213859 92.06022 
L 135.088302 89.066835 
L 128.962744 106.029354 
L 122.837187 79.088882 
L 116.71163 80.086677 
L 110.586072 77.093291 
L 104.460515 79.088882 
L 98.334957 82.082268 
L 92.2094 77.093291 
L 86.083842 82.082268 
L 79.958285 78.091087 
L 73.832727 63.124157 
z
" style="fill:#ff7f0e;"/>
   </g>
   <g id="PolyCollection_23">
    <path clip-path="url(#p049f249d3f)" d="M 73.832727 62.126362 
L 73.832727 63.124157 
L 79.958285 78.091087 
L 86.083842 82.082268 
L 92.2094 77.093291 
L 98.334957 82.082268 
L 104.460515 79.088882 
L 110.586072 77.093291 
L 116.71163 80.086677 
L 122.837187 79.088882 
L 128.962744 106.029354 
L 135.088302 89.066835 
L 141.213859 92.06022 
L 147.339417 88.069039 
L 153.464974 97.049197 
L 159.590532 106.029354 
L 165.716089 96.051402 
L 171.841647 96.051402 
L 177.967204 99.044787 
L 184.092762 87.071244 
L 190.218319 90.06463 
L 196.343877 91.062425 
L 202.469434 75.097701 
L 208.594991 104.033764 
L 214.720549 99.044787 
L 220.846106 99.044787 
L 226.971664 93.058016 
L 233.097221 99.044787 
L 239.222779 115.009512 
L 245.348336 103.035969 
L 251.473894 106.029354 
L 257.599451 104.033764 
L 263.725009 101.040378 
L 269.850566 102.038173 
L 275.976123 82.082268 
L 282.101681 69.110929 
L 288.227238 73.10211 
L 294.352796 80.086677 
L 300.478353 81.084472 
L 306.603911 81.084472 
L 312.729468 81.084472 
L 318.855026 66.117543 
L 324.980583 62.126362 
L 331.106141 73.10211 
L 337.231698 82.082268 
L 343.357256 73.10211 
L 349.482813 131.972031 
L 355.60837 99.044787 
L 361.733928 113.013921 
L 367.859485 108.024945 
L 373.985043 101.040378 
L 380.1106 100.042583 
L 386.236158 105.031559 
L 392.361715 118.002898 
L 398.487273 107.02715 
L 398.487273 107.02715 
L 398.487273 107.02715 
L 392.361715 118.002898 
L 386.236158 105.031559 
L 380.1106 100.042583 
L 373.985043 101.040378 
L 367.859485 108.024945 
L 361.733928 113.013921 
L 355.60837 99.044787 
L 349.482813 131.972031 
L 343.357256 73.10211 
L 337.231698 82.082268 
L 331.106141 73.10211 
L 324.980583 62.126362 
L 318.855026 66.117543 
L 312.729468 81.084472 
L 306.603911 81.084472 
L 300.478353 81.084472 
L 294.352796 80.086677 
L 288.227238 73.10211 
L 282.101681 69.110929 
L 275.976123 82.082268 
L 269.850566 102.038173 
L 263.725009 101.040378 
L 257.599451 104.033764 
L 251.473894 106.029354 
L 245.348336 103.035969 
L 239.222779 115.009512 
L 233.097221 99.044787 
L 226.971664 91.062425 
L 220.846106 96.051402 
L 214.720549 97.049197 
L 208.594991 102.038173 
L 202.469434 73.10211 
L 196.343877 89.066835 
L 190.218319 87.071244 
L 184.092762 85.075654 
L 177.967204 96.051402 
L 171.841647 94.055811 
L 165.716089 94.055811 
L 159.590532 103.035969 
L 153.464974 95.053606 
L 147.339417 86.073449 
L 141.213859 89.066835 
L 135.088302 87.071244 
L 128.962744 102.038173 
L 122.837187 76.095496 
L 116.71163 77.093291 
L 110.586072 73.10211 
L 104.460515 74.099906 
L 98.334957 78.091087 
L 92.2094 74.099906 
L 86.083842 77.093291 
L 79.958285 75.097701 
L 73.832727 62.126362 
z
" style="fill:#2ca02c;"/>
   </g>
   <g id="PolyCollection_24">
    <path clip-path="url(#p049f249d3f)" d="M 73.832727 61.128567 
L 73.832727 62.126362 
L 79.958285 75.097701 
L 86.083842 77.093291 
L 92.2094 74.099906 
L 98.334957 78.091087 
L 104.460515 74.099906 
L 110.586072 73.10211 
L 116.71163 77.093291 
L 122.837187 76.095496 
L 128.962744 102.038173 
L 135.088302 87.071244 
L 141.213859 89.066835 
L 147.339417 86.073449 
L 153.464974 95.053606 
L 159.590532 103.035969 
L 165.716089 94.055811 
L 171.841647 94.055811 
L 177.967204 96.051402 
L 184.092762 85.075654 
L 190.218319 87.071244 
L 196.343877 89.066835 
L 202.469434 73.10211 
L 208.594991 102.038173 
L 214.720549 97.049197 
L 220.846106 96.051402 
L 226.971664 91.062425 
L 233.097221 99.044787 
L 239.222779 115.009512 
L 245.348336 103.035969 
L 251.473894 106.029354 
L 257.599451 104.033764 
L 263.725009 101.040378 
L 269.850566 102.038173 
L 275.976123 82.082268 
L 282.101681 69.110929 
L 288.227238 73.10211 
L 294.352796 80.086677 
L 300.478353 81.084472 
L 306.603911 81.084472 
L 312.729468 81.084472 
L 318.855026 66.117543 
L 324.980583 62.126362 
L 331.106141 73.10211 
L 337.231698 82.082268 
L 343.357256 73.10211 
L 349.482813 131.972031 
L 355.60837 99.044787 
L 361.733928 113.013921 
L 367.859485 108.024945 
L 373.985043 101.040378 
L 380.1106 100.042583 
L 386.236158 105.031559 
L 392.361715 118.002898 
L 398.487273 107.02715 
L 398.487273 107.02715 
L 398.487273 107.02715 
L 392.361715 118.002898 
L 386.236158 105.031559 
L 380.1106 100.042583 
L 373.985043 101.040378 
L 367.859485 108.024945 
L 361.733928 113.013921 
L 355.60837 99.044787 
L 349.482813 131.972031 
L 343.357256 73.10211 
L 337.231698 82.082268 
L 331.106141 73.10211 
L 324.980583 62.126362 
L 318.855026 66.117543 
L 312.729468 81.084472 
L 306.603911 81.084472 
L 300.478353 81.084472 
L 294.352796 80.086677 
L 288.227238 73.10211 
L 282.101681 69.110929 
L 275.976123 82.082268 
L 269.850566 94.055811 
L 263.725009 95.053606 
L 257.599451 99.044787 
L 251.473894 100.042583 
L 245.348336 98.046992 
L 239.222779 108.024945 
L 233.097221 91.062425 
L 226.971664 84.077858 
L 220.846106 87.071244 
L 214.720549 91.062425 
L 208.594991 94.055811 
L 202.469434 66.117543 
L 196.343877 83.080063 
L 190.218319 79.088882 
L 184.092762 78.091087 
L 177.967204 91.062425 
L 171.841647 89.066835 
L 165.716089 86.073449 
L 159.590532 96.051402 
L 153.464974 82.082268 
L 147.339417 80.086677 
L 141.213859 78.091087 
L 135.088302 80.086677 
L 128.962744 93.058016 
L 122.837187 70.108724 
L 116.71163 71.10652 
L 110.586072 68.113134 
L 104.460515 68.113134 
L 98.334957 71.10652 
L 92.2094 68.113134 
L 86.083842 69.110929 
L 79.958285 65.119748 
L 73.832727 61.128567 
z
" style="fill:#d62728;"/>
   </g>
   <g id="PolyCollection_25">
    <path clip-path="url(#p049f249d3f)" d="M 73.832727 60.130772 
L 73.832727 61.128567 
L 79.958285 65.119748 
L 86.083842 69.110929 
L 92.2094 68.113134 
L 98.334957 71.10652 
L 104.460515 68.113134 
L 110.586072 68.113134 
L 116.71163 71.10652 
L 122.837187 70.108724 
L 128.962744 93.058016 
L 135.088302 80.086677 
L 141.213859 78.091087 
L 147.339417 80.086677 
L 153.464974 82.082268 
L 159.590532 96.051402 
L 165.716089 86.073449 
L 171.841647 89.066835 
L 177.967204 91.062425 
L 184.092762 78.091087 
L 190.218319 79.088882 
L 196.343877 83.080063 
L 202.469434 66.117543 
L 208.594991 94.055811 
L 214.720549 91.062425 
L 220.846106 87.071244 
L 226.971664 84.077858 
L 233.097221 91.062425 
L 239.222779 108.024945 
L 245.348336 98.046992 
L 251.473894 100.042583 
L 257.599451 99.044787 
L 263.725009 95.053606 
L 269.850566 94.055811 
L 275.976123 82.082268 
L 282.101681 69.110929 
L 288.227238 73.10211 
L 294.352796 80.086677 
L 300.478353 81.084472 
L 306.603911 81.084472 
L 312.729468 81.084472 
L 318.855026 66.117543 
L 324.980583 62.126362 
L 331.106141 73.10211 
L 337.231698 82.082268 
L 343.357256 73.10211 
L 349.482813 131.972031 
L 355.60837 99.044787 
L 361.733928 113.013921 
L 367.859485 108.024945 
L 373.985043 101.040378 
L 380.1106 100.042583 
L 386.236158 105.031559 
L 392.361715 118.002898 
L 398.487273 107.02715 
L 398.487273 95.053606 
L 398.487273 95.053606 
L 392.361715 107.02715 
L 386.236158 99.044787 
L 380.1106 70.108724 
L 373.985043 77.093291 
L 367.859485 69.110929 
L 361.733928 71.10652 
L 355.60837 60.130772 
L 349.482813 67.115339 
L 343.357256 63.124157 
L 337.231698 67.115339 
L 331.106141 69.110929 
L 324.980583 61.128567 
L 318.855026 64.121953 
L 312.729468 77.093291 
L 306.603911 80.086677 
L 300.478353 79.088882 
L 294.352796 77.093291 
L 288.227238 71.10652 
L 282.101681 67.115339 
L 275.976123 80.086677 
L 269.850566 92.06022 
L 263.725009 93.058016 
L 257.599451 96.051402 
L 251.473894 98.046992 
L 245.348336 96.051402 
L 239.222779 107.02715 
L 233.097221 87.071244 
L 226.971664 82.082268 
L 220.846106 83.080063 
L 214.720549 88.069039 
L 208.594991 91.062425 
L 202.469434 64.121953 
L 196.343877 81.084472 
L 190.218319 76.095496 
L 184.092762 76.095496 
L 177.967204 89.066835 
L 171.841647 86.073449 
L 165.716089 84.077858 
L 159.590532 93.058016 
L 153.464974 78.091087 
L 147.339417 77.093291 
L 141.213859 76.095496 
L 135.088302 78.091087 
L 128.962744 90.06463 
L 122.837187 68.113134 
L 116.71163 69.110929 
L 110.586072 66.117543 
L 104.460515 66.117543 
L 98.334957 67.115339 
L 92.2094 63.124157 
L 86.083842 63.124157 
L 79.958285 61.128567 
L 73.832727 60.130772 
z
" style="fill:#9467bd;"/>
   </g>
   <g id="PolyCollection_26">
    <path clip-path="url(#p049f249d3f)" d="M 73.832727 59.132976 
L 73.832727 60.130772 
L 79.958285 61.128567 
L 86.083842 63.124157 
L 92.2094 63.124157 
L 98.334957 67.115339 
L 104.460515 66.117543 
L 110.586072 66.117543 
L 116.71163 69.110929 
L 122.837187 68.113134 
L 128.962744 90.06463 
L 135.088302 78.091087 
L 141.213859 76.095496 
L 147.339417 77.093291 
L 153.464974 78.091087 
L 159.590532 93.058016 
L 165.716089 84.077858 
L 171.841647 86.073449 
L 177.967204 89.066835 
L 184.092762 76.095496 
L 190.218319 76.095496 
L 196.343877 81.084472 
L 202.469434 64.121953 
L 208.594991 91.062425 
L 214.720549 88.069039 
L 220.846106 83.080063 
L 226.971664 82.082268 
L 233.097221 87.071244 
L 239.222779 107.02715 
L 245.348336 96.051402 
L 251.473894 98.046992 
L 257.599451 96.051402 
L 263.725009 93.058016 
L 269.850566 92.06022 
L 275.976123 80.086677 
L 282.101681 67.115339 
L 288.227238 71.10652 
L 294.352796 77.093291 
L 300.478353 79.088882 
L 306.603911 80.086677 
L 312.729468 77.093291 
L 318.855026 64.121953 
L 324.980583 61.128567 
L 331.106141 69.110929 
L 337.231698 67.115339 
L 343.357256 63.124157 
L 349.482813 67.115339 
L 355.60837 60.130772 
L 361.733928 71.10652 
L 367.859485 69.110929 
L 373.985043 77.093291 
L 380.1106 70.108724 
L 386.236158 99.044787 
L 392.361715 107.02715 
L 398.487273 95.053606 
L 398.487273 60.130772 
L 398.487273 60.130772 
L 392.361715 59.132976 
L 386.236158 56.139591 
L 380.1106 58.135181 
L 373.985043 61.128567 
L 367.859485 58.135181 
L 361.733928 59.132976 
L 355.60837 57.137386 
L 349.482813 58.135181 
L 343.357256 57.137386 
L 337.231698 54.144 
L 331.106141 54.144 
L 324.980583 56.139591 
L 318.855026 55.141795 
L 312.729468 60.130772 
L 306.603911 64.121953 
L 300.478353 67.115339 
L 294.352796 67.115339 
L 288.227238 63.124157 
L 282.101681 64.121953 
L 275.976123 77.093291 
L 269.850566 70.108724 
L 263.725009 68.113134 
L 257.599451 71.10652 
L 251.473894 67.115339 
L 245.348336 71.10652 
L 239.222779 79.088882 
L 233.097221 83.080063 
L 226.971664 80.086677 
L 220.846106 80.086677 
L 214.720549 86.073449 
L 208.594991 89.066835 
L 202.469434 62.126362 
L 196.343877 78.091087 
L 190.218319 74.099906 
L 184.092762 73.10211 
L 177.967204 85.075654 
L 171.841647 83.080063 
L 165.716089 82.082268 
L 159.590532 91.062425 
L 153.464974 75.097701 
L 147.339417 75.097701 
L 141.213859 73.10211 
L 135.088302 76.095496 
L 128.962744 88.069039 
L 122.837187 65.119748 
L 116.71163 65.119748 
L 110.586072 63.124157 
L 104.460515 62.126362 
L 98.334957 62.126362 
L 92.2094 59.132976 
L 86.083842 59.132976 
L 79.958285 58.135181 
L 73.832727 59.132976 
z
" style="fill:#8c564b;"/>
   </g>
   <g id="PolyCollection_27">
    <path clip-path="url(#p049f249d3f)" d="M 73.832727 58.135181 
L 73.832727 59.132976 
L 79.958285 58.135181 
L 86.083842 59.132976 
L 92.2094 59.132976 
L 98.334957 62.126362 
L 104.460515 62.126362 
L 110.586072 63.124157 
L 116.71163 65.119748 
L 122.837187 65.119748 
L 128.962744 88.069039 
L 135.088302 76.095496 
L 141.213859 73.10211 
L 147.339417 75.097701 
L 153.464974 75.097701 
L 159.590532 91.062425 
L 165.716089 82.082268 
L 171.841647 83.080063 
L 177.967204 85.075654 
L 184.092762 73.10211 
L 190.218319 74.099906 
L 196.343877 78.091087 
L 202.469434 62.126362 
L 208.594991 89.066835 
L 214.720549 86.073449 
L 220.846106 80.086677 
L 226.971664 80.086677 
L 233.097221 83.080063 
L 239.222779 79.088882 
L 245.348336 71.10652 
L 251.473894 67.115339 
L 257.599451 71.10652 
L 263.725009 68.113134 
L 269.850566 70.108724 
L 275.976123 77.093291 
L 282.101681 64.121953 
L 288.227238 63.124157 
L 294.352796 67.115339 
L 300.478353 67.115339 
L 306.603911 64.121953 
L 312.729468 60.130772 
L 318.855026 55.141795 
L 324.980583 56.139591 
L 331.106141 54.144 
L 337.231698 54.144 
L 343.357256 57.137386 
L 349.482813 58.135181 
L 355.60837 57.137386 
L 361.733928 59.132976 
L 367.859485 58.135181 
L 373.985043 61.128567 
L 380.1106 58.135181 
L 386.236158 56.139591 
L 392.361715 59.132976 
L 398.487273 60.130772 
L 398.487273 60.130772 
L 398.487273 60.130772 
L 392.361715 59.132976 
L 386.236158 56.139591 
L 380.1106 58.135181 
L 373.985043 61.128567 
L 367.859485 58.135181 
L 361.733928 59.132976 
L 355.60837 57.137386 
L 349.482813 58.135181 
L 343.357256 57.137386 
L 337.231698 54.144 
L 331.106141 54.144 
L 324.980583 56.139591 
L 318.855026 55.141795 
L 312.729468 60.130772 
L 306.603911 56.139591 
L 300.478353 58.135181 
L 294.352796 59.132976 
L 288.227238 58.135181 
L 282.101681 57.137386 
L 275.976123 60.130772 
L 269.850566 56.139591 
L 263.725009 57.137386 
L 257.599451 55.141795 
L 251.473894 58.135181 
L 245.348336 56.139591 
L 239.222779 57.137386 
L 233.097221 59.132976 
L 226.971664 57.137386 
L 220.846106 56.139591 
L 214.720549 61.128567 
L 208.594991 62.126362 
L 202.469434 56.139591 
L 196.343877 57.137386 
L 190.218319 54.144 
L 184.092762 56.139591 
L 177.967204 55.141795 
L 171.841647 56.139591 
L 165.716089 57.137386 
L 159.590532 56.139591 
L 153.464974 54.144 
L 147.339417 57.137386 
L 141.213859 57.137386 
L 135.088302 58.135181 
L 128.962744 56.139591 
L 122.837187 56.139591 
L 116.71163 60.130772 
L 110.586072 59.132976 
L 104.460515 59.132976 
L 98.334957 58.135181 
L 92.2094 56.139591 
L 86.083842 56.139591 
L 79.958285 57.137386 
L 73.832727 58.135181 
z
" style="fill:#e377c2;"/>
   </g>
   <g id="matplotlib.axis_1">
    <g id="xtick_1">
     <g id="line2d_1">
      <defs>
       <path d="M 0 0 
L 0 3.5 
" id="m20febde00a" style="stroke:#000000;stroke-width:0.8;"/>
      </defs>
      <g>
       <use style="stroke:#000000;stroke-width:0.8;" x="73.832727" xlink:href="#m20febde00a" y="307.584"/>
      </g>
     </g>
     <g id="text_1">
      <!-- 0 -->
      <defs>
       <path d="M 31.78125 66.40625 
Q 24.171875 66.40625 20.328125 58.90625 
Q 16.5 51.421875 16.5 36.375 
Q 16.5 21.390625 20.328125 13.890625 
Q 24.171875 6.390625 31.78125 6.390625 
Q 39.453125 6.390625 43.28125 13.890625 
Q 47.125 21.390625 47.125 36.375 
Q 47.125 51.421875 43.28125 58.90625 
Q 39.453125 66.40625 31.78125 66.40625 
z
M 31.78125 74.21875 
Q 44.046875 74.21875 50.515625 64.515625 
Q 56.984375 54.828125 56.984375 36.375 
Q 56.984375 17.96875 50.515625 8.265625 
Q 44.046875 -1.421875 31.78125 -1.421875 
Q 19.53125 -1.421875 13.0625 8.265625 
Q 6.59375 17.96875 6.59375 36.375 
Q 6.59375 54.828125 13.0625 64.515625 
Q 19.53125 74.21875 31.78125 74.21875 
z
" id="DejaVuSans-48"/>
      </defs>
      <g transform="translate(70.651477 322.182437)scale(0.1 -0.1)">
       <use xlink:href="#DejaVuSans-48"/>
      </g>
     </g>
    </g>
    <g id="xtick_2">
     <g id="line2d_2">
      <g>
       <use style="stroke:#000000;stroke-width:0.8;" x="135.088302" xlink:href="#m20febde00a" y="307.584"/>
      </g>
     </g>
     <g id="text_2">
      <!-- 10 -->
      <defs>
       <path d="M 12.40625 8.296875 
L 28.515625 8.296875 
L 28.515625 63.921875 
L 10.984375 60.40625 
L 10.984375 69.390625 
L 28.421875 72.90625 
L 38.28125 72.90625 
L 38.28125 8.296875 
L 54.390625 8.296875 
L 54.390625 0 
L 12.40625 0 
z
" id="DejaVuSans-49"/>
      </defs>
      <g transform="translate(128.725802 322.182437)scale(0.1 -0.1)">
       <use xlink:href="#DejaVuSans-49"/>
       <use x="63.623047" xlink:href="#DejaVuSans-48"/>
      </g>
     </g>
    </g>
    <g id="xtick_3">
     <g id="line2d_3">
      <g>
       <use style="stroke:#000000;stroke-width:0.8;" x="196.343877" xlink:href="#m20febde00a" y="307.584"/>
      </g>
     </g>
     <g id="text_3">
      <!-- 20 -->
      <defs>
       <path d="M 19.1875 8.296875 
L 53.609375 8.296875 
L 53.609375 0 
L 7.328125 0 
L 7.328125 8.296875 
Q 12.9375 14.109375 22.625 23.890625 
Q 32.328125 33.6875 34.8125 36.53125 
Q 39.546875 41.84375 41.421875 45.53125 
Q 43.3125 49.21875 43.3125 52.78125 
Q 43.3125 58.59375 39.234375 62.25 
Q 35.15625 65.921875 28.609375 65.921875 
Q 23.96875 65.921875 18.8125 64.3125 
Q 13.671875 62.703125 7.8125 59.421875 
L 7.8125 69.390625 
Q 13.765625 71.78125 18.9375 73 
Q 24.125 74.21875 28.421875 74.21875 
Q 39.75 74.21875 46.484375 68.546875 
Q 53.21875 62.890625 53.21875 53.421875 
Q 53.21875 48.921875 51.53125 44.890625 
Q 49.859375 40.875 45.40625 35.40625 
Q 44.1875 33.984375 37.640625 27.21875 
Q 31.109375 20.453125 19.1875 8.296875 
z
" id="DejaVuSans-50"/>
      </defs>
      <g transform="translate(189.981377 322.182437)scale(0.1 -0.1)">
       <use xlink:href="#DejaVuSans-50"/>
       <use x="63.623047" xlink:href="#DejaVuSans-48"/>
      </g>
     </g>
    </g>
    <g id="xtick_4">
     <g id="line2d_4">
      <g>
       <use style="stroke:#000000;stroke-width:0.8;" x="257.599451" xlink:href="#m20febde00a" y="307.584"/>
      </g>
     </g>
     <g id="text_4">
      <!-- 30 -->
      <defs>
       <path d="M 40.578125 39.3125 
Q 47.65625 37.796875 51.625 33 
Q 55.609375 28.21875 55.609375 21.1875 
Q 55.609375 10.40625 48.1875 4.484375 
Q 40.765625 -1.421875 27.09375 -1.421875 
Q 22.515625 -1.421875 17.65625 -0.515625 
Q 12.796875 0.390625 7.625 2.203125 
L 7.625 11.71875 
Q 11.71875 9.328125 16.59375 8.109375 
Q 21.484375 6.890625 26.8125 6.890625 
Q 36.078125 6.890625 40.9375 10.546875 
Q 45.796875 14.203125 45.796875 21.1875 
Q 45.796875 27.640625 41.28125 31.265625 
Q 36.765625 34.90625 28.71875 34.90625 
L 20.21875 34.90625 
L 20.21875 43.015625 
L 29.109375 43.015625 
Q 36.375 43.015625 40.234375 45.921875 
Q 44.09375 48.828125 44.09375 54.296875 
Q 44.09375 59.90625 40.109375 62.90625 
Q 36.140625 65.921875 28.71875 65.921875 
Q 24.65625 65.921875 20.015625 65.03125 
Q 15.375 64.15625 9.8125 62.3125 
L 9.8125 71.09375 
Q 15.4375 72.65625 20.34375 73.4375 
Q 25.25 74.21875 29.59375 74.21875 
Q 40.828125 74.21875 47.359375 69.109375 
Q 53.90625 64.015625 53.90625 55.328125 
Q 53.90625 49.265625 50.4375 45.09375 
Q 46.96875 40.921875 40.578125 39.3125 
z
" id="DejaVuSans-51"/>
      </defs>
      <g transform="translate(251.236951 322.182437)scale(0.1 -0.1)">
       <use xlink:href="#DejaVuSans-51"/>
       <use x="63.623047" xlink:href="#DejaVuSans-48"/>
      </g>
     </g>
    </g>
    <g id="xtick_5">
     <g id="line2d_5">
      <g>
       <use style="stroke:#000000;stroke-width:0.8;" x="318.855026" xlink:href="#m20febde00a" y="307.584"/>
      </g>
     </g>
     <g id="text_5">
      <!-- 40 -->
      <defs>
       <path d="M 37.796875 64.3125 
L 12.890625 25.390625 
L 37.796875 25.390625 
z
M 35.203125 72.90625 
L 47.609375 72.90625 
L 47.609375 25.390625 
L 58.015625 25.390625 
L 58.015625 17.1875 
L 47.609375 17.1875 
L 47.609375 0 
L 37.796875 0 
L 37.796875 17.1875 
L 4.890625 17.1875 
L 4.890625 26.703125 
z
" id="DejaVuSans-52"/>
      </defs>
      <g transform="translate(312.492526 322.182437)scale(0.1 -0.1)">
       <use xlink:href="#DejaVuSans-52"/>
       <use x="63.623047" xlink:href="#DejaVuSans-48"/>
      </g>
     </g>
    </g>
    <g id="xtick_6">
     <g id="line2d_6">
      <g>
       <use style="stroke:#000000;stroke-width:0.8;" x="380.1106" xlink:href="#m20febde00a" y="307.584"/>
      </g>
     </g>
     <g id="text_6">
      <!-- 50 -->
      <defs>
       <path d="M 10.796875 72.90625 
L 49.515625 72.90625 
L 49.515625 64.59375 
L 19.828125 64.59375 
L 19.828125 46.734375 
Q 21.96875 47.46875 24.109375 47.828125 
Q 26.265625 48.1875 28.421875 48.1875 
Q 40.625 48.1875 47.75 41.5 
Q 54.890625 34.8125 54.890625 23.390625 
Q 54.890625 11.625 47.5625 5.09375 
Q 40.234375 -1.421875 26.90625 -1.421875 
Q 22.3125 -1.421875 17.546875 -0.640625 
Q 12.796875 0.140625 7.71875 1.703125 
L 7.71875 11.625 
Q 12.109375 9.234375 16.796875 8.0625 
Q 21.484375 6.890625 26.703125 6.890625 
Q 35.15625 6.890625 40.078125 11.328125 
Q 45.015625 15.765625 45.015625 23.390625 
Q 45.015625 31 40.078125 35.4375 
Q 35.15625 39.890625 26.703125 39.890625 
Q 22.75 39.890625 18.8125 39.015625 
Q 14.890625 38.140625 10.796875 36.28125 
z
" id="DejaVuSans-53"/>
      </defs>
      <g transform="translate(373.7481 322.182437)scale(0.1 -0.1)">
       <use xlink:href="#DejaVuSans-53"/>
       <use x="63.623047" xlink:href="#DejaVuSans-48"/>
      </g>
     </g>
    </g>
    <g id="text_7">
     <!-- Generations -->
     <defs>
      <path d="M 59.515625 10.40625 
L 59.515625 29.984375 
L 43.40625 29.984375 
L 43.40625 38.09375 
L 69.28125 38.09375 
L 69.28125 6.78125 
Q 63.578125 2.734375 56.6875 0.65625 
Q 49.8125 -1.421875 42 -1.421875 
Q 24.90625 -1.421875 15.25 8.5625 
Q 5.609375 18.5625 5.609375 36.375 
Q 5.609375 54.25 15.25 64.234375 
Q 24.90625 74.21875 42 74.21875 
Q 49.125 74.21875 55.546875 72.453125 
Q 61.96875 70.703125 67.390625 67.28125 
L 67.390625 56.78125 
Q 61.921875 61.421875 55.765625 63.765625 
Q 49.609375 66.109375 42.828125 66.109375 
Q 29.4375 66.109375 22.71875 58.640625 
Q 16.015625 51.171875 16.015625 36.375 
Q 16.015625 21.625 22.71875 14.15625 
Q 29.4375 6.6875 42.828125 6.6875 
Q 48.046875 6.6875 52.140625 7.59375 
Q 56.25 8.5 59.515625 10.40625 
z
" id="DejaVuSans-71"/>
      <path d="M 56.203125 29.59375 
L 56.203125 25.203125 
L 14.890625 25.203125 
Q 15.484375 15.921875 20.484375 11.0625 
Q 25.484375 6.203125 34.421875 6.203125 
Q 39.59375 6.203125 44.453125 7.46875 
Q 49.3125 8.734375 54.109375 11.28125 
L 54.109375 2.78125 
Q 49.265625 0.734375 44.1875 -0.34375 
Q 39.109375 -1.421875 33.890625 -1.421875 
Q 20.796875 -1.421875 13.15625 6.1875 
Q 5.515625 13.8125 5.515625 26.8125 
Q 5.515625 40.234375 12.765625 48.109375 
Q 20.015625 56 32.328125 56 
Q 43.359375 56 49.78125 48.890625 
Q 56.203125 41.796875 56.203125 29.59375 
z
M 47.21875 32.234375 
Q 47.125 39.59375 43.09375 43.984375 
Q 39.0625 48.390625 32.421875 48.390625 
Q 24.90625 48.390625 20.390625 44.140625 
Q 15.875 39.890625 15.1875 32.171875 
z
" id="DejaVuSans-101"/>
      <path d="M 54.890625 33.015625 
L 54.890625 0 
L 45.90625 0 
L 45.90625 32.71875 
Q 45.90625 40.484375 42.875 44.328125 
Q 39.84375 48.1875 33.796875 48.1875 
Q 26.515625 48.1875 22.3125 43.546875 
Q 18.109375 38.921875 18.109375 30.90625 
L 18.109375 0 
L 9.078125 0 
L 9.078125 54.6875 
L 18.109375 54.6875 
L 18.109375 46.1875 
Q 21.34375 51.125 25.703125 53.5625 
Q 30.078125 56 35.796875 56 
Q 45.21875 56 50.046875 50.171875 
Q 54.890625 44.34375 54.890625 33.015625 
z
" id="DejaVuSans-110"/>
      <path d="M 41.109375 46.296875 
Q 39.59375 47.171875 37.8125 47.578125 
Q 36.03125 48 33.890625 48 
Q 26.265625 48 22.1875 43.046875 
Q 18.109375 38.09375 18.109375 28.8125 
L 18.109375 0 
L 9.078125 0 
L 9.078125 54.6875 
L 18.109375 54.6875 
L 18.109375 46.1875 
Q 20.953125 51.171875 25.484375 53.578125 
Q 30.03125 56 36.53125 56 
Q 37.453125 56 38.578125 55.875 
Q 39.703125 55.765625 41.0625 55.515625 
z
" id="DejaVuSans-114"/>
      <path d="M 34.28125 27.484375 
Q 23.390625 27.484375 19.1875 25 
Q 14.984375 22.515625 14.984375 16.5 
Q 14.984375 11.71875 18.140625 8.90625 
Q 21.296875 6.109375 26.703125 6.109375 
Q 34.1875 6.109375 38.703125 11.40625 
Q 43.21875 16.703125 43.21875 25.484375 
L 43.21875 27.484375 
z
M 52.203125 31.203125 
L 52.203125 0 
L 43.21875 0 
L 43.21875 8.296875 
Q 40.140625 3.328125 35.546875 0.953125 
Q 30.953125 -1.421875 24.3125 -1.421875 
Q 15.921875 -1.421875 10.953125 3.296875 
Q 6 8.015625 6 15.921875 
Q 6 25.140625 12.171875 29.828125 
Q 18.359375 34.515625 30.609375 34.515625 
L 43.21875 34.515625 
L 43.21875 35.40625 
Q 43.21875 41.609375 39.140625 45 
Q 35.0625 48.390625 27.6875 48.390625 
Q 23 48.390625 18.546875 47.265625 
Q 14.109375 46.140625 10.015625 43.890625 
L 10.015625 52.203125 
Q 14.9375 54.109375 19.578125 55.046875 
Q 24.21875 56 28.609375 56 
Q 40.484375 56 46.34375 49.84375 
Q 52.203125 43.703125 52.203125 31.203125 
z
" id="DejaVuSans-97"/>
      <path d="M 18.3125 70.21875 
L 18.3125 54.6875 
L 36.8125 54.6875 
L 36.8125 47.703125 
L 18.3125 47.703125 
L 18.3125 18.015625 
Q 18.3125 11.328125 20.140625 9.421875 
Q 21.96875 7.515625 27.59375 7.515625 
L 36.8125 7.515625 
L 36.8125 0 
L 27.59375 0 
Q 17.1875 0 13.234375 3.875 
Q 9.28125 7.765625 9.28125 18.015625 
L 9.28125 47.703125 
L 2.6875 47.703125 
L 2.6875 54.6875 
L 9.28125 54.6875 
L 9.28125 70.21875 
z
" id="DejaVuSans-116"/>
      <path d="M 9.421875 54.6875 
L 18.40625 54.6875 
L 18.40625 0 
L 9.421875 0 
z
M 9.421875 75.984375 
L 18.40625 75.984375 
L 18.40625 64.59375 
L 9.421875 64.59375 
z
" id="DejaVuSans-105"/>
      <path d="M 30.609375 48.390625 
Q 23.390625 48.390625 19.1875 42.75 
Q 14.984375 37.109375 14.984375 27.296875 
Q 14.984375 17.484375 19.15625 11.84375 
Q 23.34375 6.203125 30.609375 6.203125 
Q 37.796875 6.203125 41.984375 11.859375 
Q 46.1875 17.53125 46.1875 27.296875 
Q 46.1875 37.015625 41.984375 42.703125 
Q 37.796875 48.390625 30.609375 48.390625 
z
M 30.609375 56 
Q 42.328125 56 49.015625 48.375 
Q 55.71875 40.765625 55.71875 27.296875 
Q 55.71875 13.875 49.015625 6.21875 
Q 42.328125 -1.421875 30.609375 -1.421875 
Q 18.84375 -1.421875 12.171875 6.21875 
Q 5.515625 13.875 5.515625 27.296875 
Q 5.515625 40.765625 12.171875 48.375 
Q 18.84375 56 30.609375 56 
z
" id="DejaVuSans-111"/>
      <path d="M 44.28125 53.078125 
L 44.28125 44.578125 
Q 40.484375 46.53125 36.375 47.5 
Q 32.28125 48.484375 27.875 48.484375 
Q 21.1875 48.484375 17.84375 46.4375 
Q 14.5 44.390625 14.5 40.28125 
Q 14.5 37.15625 16.890625 35.375 
Q 19.28125 33.59375 26.515625 31.984375 
L 29.59375 31.296875 
Q 39.15625 29.25 43.1875 25.515625 
Q 47.21875 21.78125 47.21875 15.09375 
Q 47.21875 7.46875 41.1875 3.015625 
Q 35.15625 -1.421875 24.609375 -1.421875 
Q 20.21875 -1.421875 15.453125 -0.5625 
Q 10.6875 0.296875 5.421875 2 
L 5.421875 11.28125 
Q 10.40625 8.6875 15.234375 7.390625 
Q 20.0625 6.109375 24.8125 6.109375 
Q 31.15625 6.109375 34.5625 8.28125 
Q 37.984375 10.453125 37.984375 14.40625 
Q 37.984375 18.0625 35.515625 20.015625 
Q 33.0625 21.96875 24.703125 23.78125 
L 21.578125 24.515625 
Q 13.234375 26.265625 9.515625 29.90625 
Q 5.8125 33.546875 5.8125 39.890625 
Q 5.8125 47.609375 11.28125 51.796875 
Q 16.75 56 26.8125 56 
Q 31.78125 56 36.171875 55.265625 
Q 40.578125 54.546875 44.28125 53.078125 
z
" id="DejaVuSans-115"/>
     </defs>
     <g transform="translate(205.662344 335.860562)scale(0.1 -0.1)">
      <use xlink:href="#DejaVuSans-71"/>
      <use x="77.490234" xlink:href="#DejaVuSans-101"/>
      <use x="139.013672" xlink:href="#DejaVuSans-110"/>
      <use x="202.392578" xlink:href="#DejaVuSans-101"/>
      <use x="263.916016" xlink:href="#DejaVuSans-114"/>
      <use x="305.029297" xlink:href="#DejaVuSans-97"/>
      <use x="366.308594" xlink:href="#DejaVuSans-116"/>
      <use x="405.517578" xlink:href="#DejaVuSans-105"/>
      <use x="433.300781" xlink:href="#DejaVuSans-111"/>
      <use x="494.482422" xlink:href="#DejaVuSans-110"/>
      <use x="557.861328" xlink:href="#DejaVuSans-115"/>
     </g>
    </g>
   </g>
   <g id="matplotlib.axis_2">
    <g id="ytick_1">
     <g id="line2d_7">
      <defs>
       <path d="M 0 0 
L -3.5 0 
" id="m71021fc041" style="stroke:#000000;stroke-width:0.8;"/>
      </defs>
      <g>
       <use style="stroke:#000000;stroke-width:0.8;" x="57.6" xlink:href="#m71021fc041" y="307.584"/>
      </g>
     </g>
     <g id="text_8">
      <!-- 0 -->
      <g transform="translate(44.2375 311.383219)scale(0.1 -0.1)">
       <use xlink:href="#DejaVuSans-48"/>
      </g>
     </g>
    </g>
    <g id="ytick_2">
     <g id="line2d_8">
      <g>
       <use style="stroke:#000000;stroke-width:0.8;" x="57.6" xlink:href="#m71021fc041" y="257.694236"/>
      </g>
     </g>
     <g id="text_9">
      <!-- 50 -->
      <g transform="translate(37.875 261.493455)scale(0.1 -0.1)">
       <use xlink:href="#DejaVuSans-53"/>
       <use x="63.623047" xlink:href="#DejaVuSans-48"/>
      </g>
     </g>
    </g>
    <g id="ytick_3">
     <g id="line2d_9">
      <g>
       <use style="stroke:#000000;stroke-width:0.8;" x="57.6" xlink:href="#m71021fc041" y="207.804472"/>
      </g>
     </g>
     <g id="text_10">
      <!-- 100 -->
      <g transform="translate(31.5125 211.603691)scale(0.1 -0.1)">
       <use xlink:href="#DejaVuSans-49"/>
       <use x="63.623047" xlink:href="#DejaVuSans-48"/>
       <use x="127.246094" xlink:href="#DejaVuSans-48"/>
      </g>
     </g>
    </g>
    <g id="ytick_4">
     <g id="line2d_10">
      <g>
       <use style="stroke:#000000;stroke-width:0.8;" x="57.6" xlink:href="#m71021fc041" y="157.914709"/>
      </g>
     </g>
     <g id="text_11">
      <!-- 150 -->
      <g transform="translate(31.5125 161.713927)scale(0.1 -0.1)">
       <use xlink:href="#DejaVuSans-49"/>
       <use x="63.623047" xlink:href="#DejaVuSans-53"/>
       <use x="127.246094" xlink:href="#DejaVuSans-48"/>
      </g>
     </g>
    </g>
    <g id="ytick_5">
     <g id="line2d_11">
      <g>
       <use style="stroke:#000000;stroke-width:0.8;" x="57.6" xlink:href="#m71021fc041" y="108.024945"/>
      </g>
     </g>
     <g id="text_12">
      <!-- 200 -->
      <g transform="translate(31.5125 111.824164)scale(0.1 -0.1)">
       <use xlink:href="#DejaVuSans-50"/>
       <use x="63.623047" xlink:href="#DejaVuSans-48"/>
       <use x="127.246094" xlink:href="#DejaVuSans-48"/>
      </g>
     </g>
    </g>
    <g id="ytick_6">
     <g id="line2d_12">
      <g>
       <use style="stroke:#000000;stroke-width:0.8;" x="57.6" xlink:href="#m71021fc041" y="58.135181"/>
      </g>
     </g>
     <g id="text_13">
      <!-- 250 -->
      <g transform="translate(31.5125 61.9344)scale(0.1 -0.1)">
       <use xlink:href="#DejaVuSans-50"/>
       <use x="63.623047" xlink:href="#DejaVuSans-53"/>
       <use x="127.246094" xlink:href="#DejaVuSans-48"/>
      </g>
     </g>
    </g>
    <g id="text_14">
     <!-- Size per Species -->
     <defs>
      <path d="M 53.515625 70.515625 
L 53.515625 60.890625 
Q 47.90625 63.578125 42.921875 64.890625 
Q 37.9375 66.21875 33.296875 66.21875 
Q 25.25 66.21875 20.875 63.09375 
Q 16.5 59.96875 16.5 54.203125 
Q 16.5 49.359375 19.40625 46.890625 
Q 22.3125 44.4375 30.421875 42.921875 
L 36.375 41.703125 
Q 47.40625 39.59375 52.65625 34.296875 
Q 57.90625 29 57.90625 20.125 
Q 57.90625 9.515625 50.796875 4.046875 
Q 43.703125 -1.421875 29.984375 -1.421875 
Q 24.8125 -1.421875 18.96875 -0.25 
Q 13.140625 0.921875 6.890625 3.21875 
L 6.890625 13.375 
Q 12.890625 10.015625 18.65625 8.296875 
Q 24.421875 6.59375 29.984375 6.59375 
Q 38.421875 6.59375 43.015625 9.90625 
Q 47.609375 13.234375 47.609375 19.390625 
Q 47.609375 24.75 44.3125 27.78125 
Q 41.015625 30.8125 33.5 32.328125 
L 27.484375 33.5 
Q 16.453125 35.6875 11.515625 40.375 
Q 6.59375 45.0625 6.59375 53.421875 
Q 6.59375 63.09375 13.40625 68.65625 
Q 20.21875 74.21875 32.171875 74.21875 
Q 37.3125 74.21875 42.625 73.28125 
Q 47.953125 72.359375 53.515625 70.515625 
z
" id="DejaVuSans-83"/>
      <path d="M 5.515625 54.6875 
L 48.1875 54.6875 
L 48.1875 46.484375 
L 14.40625 7.171875 
L 48.1875 7.171875 
L 48.1875 0 
L 4.296875 0 
L 4.296875 8.203125 
L 38.09375 47.515625 
L 5.515625 47.515625 
z
" id="DejaVuSans-122"/>
      <path id="DejaVuSans-32"/>
      <path d="M 18.109375 8.203125 
L 18.109375 -20.796875 
L 9.078125 -20.796875 
L 9.078125 54.6875 
L 18.109375 54.6875 
L 18.109375 46.390625 
Q 20.953125 51.265625 25.265625 53.625 
Q 29.59375 56 35.59375 56 
Q 45.5625 56 51.78125 48.09375 
Q 58.015625 40.1875 58.015625 27.296875 
Q 58.015625 14.40625 51.78125 6.484375 
Q 45.5625 -1.421875 35.59375 -1.421875 
Q 29.59375 -1.421875 25.265625 0.953125 
Q 20.953125 3.328125 18.109375 8.203125 
z
M 48.6875 27.296875 
Q 48.6875 37.203125 44.609375 42.84375 
Q 40.53125 48.484375 33.40625 48.484375 
Q 26.265625 48.484375 22.1875 42.84375 
Q 18.109375 37.203125 18.109375 27.296875 
Q 18.109375 17.390625 22.1875 11.75 
Q 26.265625 6.109375 33.40625 6.109375 
Q 40.53125 6.109375 44.609375 11.75 
Q 48.6875 17.390625 48.6875 27.296875 
z
" id="DejaVuSans-112"/>
      <path d="M 48.78125 52.59375 
L 48.78125 44.1875 
Q 44.96875 46.296875 41.140625 47.34375 
Q 37.3125 48.390625 33.40625 48.390625 
Q 24.65625 48.390625 19.8125 42.84375 
Q 14.984375 37.3125 14.984375 27.296875 
Q 14.984375 17.28125 19.8125 11.734375 
Q 24.65625 6.203125 33.40625 6.203125 
Q 37.3125 6.203125 41.140625 7.25 
Q 44.96875 8.296875 48.78125 10.40625 
L 48.78125 2.09375 
Q 45.015625 0.34375 40.984375 -0.53125 
Q 36.96875 -1.421875 32.421875 -1.421875 
Q 20.0625 -1.421875 12.78125 6.34375 
Q 5.515625 14.109375 5.515625 27.296875 
Q 5.515625 40.671875 12.859375 48.328125 
Q 20.21875 56 33.015625 56 
Q 37.15625 56 41.109375 55.140625 
Q 45.0625 54.296875 48.78125 52.59375 
z
" id="DejaVuSans-99"/>
     </defs>
     <g transform="translate(25.432812 215.520969)rotate(-90)scale(0.1 -0.1)">
      <use xlink:href="#DejaVuSans-83"/>
      <use x="63.476562" xlink:href="#DejaVuSans-105"/>
      <use x="91.259766" xlink:href="#DejaVuSans-122"/>
      <use x="143.75" xlink:href="#DejaVuSans-101"/>
      <use x="205.273438" xlink:href="#DejaVuSans-32"/>
      <use x="237.060547" xlink:href="#DejaVuSans-112"/>
      <use x="300.537109" xlink:href="#DejaVuSans-101"/>
      <use x="362.060547" xlink:href="#DejaVuSans-114"/>
      <use x="403.173828" xlink:href="#DejaVuSans-32"/>
      <use x="434.960938" xlink:href="#DejaVuSans-83"/>
      <use x="498.4375" xlink:href="#DejaVuSans-112"/>
      <use x="561.914062" xlink:href="#DejaVuSans-101"/>
      <use x="623.4375" xlink:href="#DejaVuSans-99"/>
      <use x="678.417969" xlink:href="#DejaVuSans-105"/>
      <use x="706.201172" xlink:href="#DejaVuSans-101"/>
      <use x="767.724609" xlink:href="#DejaVuSans-115"/>
     </g>
    </g>
   </g>
   <g id="patch_3">
    <path d="M 57.6 307.584 
L 57.6 41.472 
" style="fill:none;stroke:#000000;stroke-linecap:square;stroke-linejoin:miter;stroke-width:0.8;"/>
   </g>
   <g id="patch_4">
    <path d="M 414.72 307.584 
L 414.72 41.472 
" style="fill:none;stroke:#000000;stroke-linecap:square;stroke-linejoin:miter;stroke-width:0.8;"/>
   </g>
   <g id="patch_5">
    <path d="M 57.6 307.584 
L 414.72 307.584 
" style="fill:none;stroke:#000000;stroke-linecap:square;stroke-linejoin:miter;stroke-width:0.8;"/>
   </g>
   <g id="patch_6">
    <path d="M 57.6 41.472 
L 414.72 41.472 
" style="fill:none;stroke:#000000;stroke-linecap:square;stroke-linejoin:miter;stroke-width:0.8;"/>
   </g>
   <g id="text_15">
    <!-- Speciation -->
    <g transform="translate(204.714375 35.472)scale(0.12 -0.12)">
     <use xlink:href="#DejaVuSans-83"/>
     <use x="63.476562" xlink:href="#DejaVuSans-112"/>
     <use x="126.953125" xlink:href="#DejaVuSans-101"/>
     <use x="188.476562" xlink:href="#DejaVuSans-99"/>
     <use x="243.457031" xlink:href="#DejaVuSans-105"/>
     <use x="271.240234" xlink:href="#DejaVuSans-97"/>
     <use x="332.519531" xlink:href="#DejaVuSans-116"/>
     <use x="371.728516" xlink:href="#DejaVuSans-105"/>
     <use x="399.511719" xlink:href="#DejaVuSans-111"/>
     <use x="460.693359" xlink:href="#DejaVuSans-110"/>
    </g>
   </g>
  </g>
 </g>
 <defs>
  <clipPath id="p049f249d3f">
   <rect height="266.112" width="357.12" x="57.6" y="41.472"/>
  </clipPath>
 </defs>
</svg>
