<?xml version="1.0" encoding="utf-8" standalone="no"?>
<!DOCTYPE svg PUBLIC "-//W3C//DTD SVG 1.1//EN"
  "http://www.w3.org/Graphics/SVG/1.1/DTD/svg11.dtd">
<!-- Created with matplotlib (https://matplotlib.org/) -->
<svg height="345.6pt" version="1.1" viewBox="0 0 460.8 345.6" width="460.8pt" xmlns="http://www.w3.org/2000/svg" xmlns:xlink="http://www.w3.org/1999/xlink">
 <defs>
  <style type="text/css">
*{stroke-linecap:butt;stroke-linejoin:round;}
  </style>
 </defs>
 <g id="figure_1">
  <g id="patch_1">
   <path d="M 0 345.6 
L 460.8 345.6 
L 460.8 0 
L 0 0 
z
" style="fill:#ffffff;"/>
  </g>
  <g id="axes_1">
   <g id="patch_2">
    <path d="M 57.6 307.584 
L 414.72 307.584 
L 414.72 41.472 
L 57.6 41.472 
z
" style="fill:#ffffff;"/>
   </g>
   <g id="PolyCollection_1">
    <path clip-path="url(#p4f27fc4bdb)" d="M 73.832727 306.586205 
L 73.832727 307.584 
L 85.027712 307.584 
L 96.222696 307.584 
L 107.41768 307.584 
L 118.612665 307.584 
L 129.807649 307.584 
L 141.002633 307.584 
L 152.197618 307.584 
L 163.392602 307.584 
L 174.587586 307.584 
L 185.782571 307.584 
L 196.977555 307.584 
L 208.172539 307.584 
L 219.367524 307.584 
L 230.562508 307.584 
L 241.757492 307.584 
L 252.952476 307.584 
L 264.147461 307.584 
L 275.342445 307.584 
L 286.537429 307.584 
L 297.732414 307.584 
L 308.927398 307.584 
L 320.122382 307.584 
L 331.317367 307.584 
L 342.512351 307.584 
L 353.707335 307.584 
L 364.90232 307.584 
L 376.097304 307.584 
L 387.292288 307.584 
L 398.487273 307.584 
L 398.487273 290.62148 
L 398.487273 290.62148 
L 387.292288 291.619276 
L 376.097304 292.617071 
L 364.90232 295.610457 
L 353.707335 300.599433 
L 342.512351 293.614866 
L 331.317367 300.599433 
L 320.122382 297.606047 
L 308.927398 303.592819 
L 297.732414 305.588409 
L 286.537429 305.588409 
L 275.342445 304.590614 
L 264.147461 305.588409 
L 252.952476 304.590614 
L 241.757492 304.590614 
L 230.562508 303.592819 
L 219.367524 304.590614 
L 208.172539 305.588409 
L 196.977555 304.590614 
L 185.782571 305.588409 
L 174.587586 305.588409 
L 163.392602 305.588409 
L 152.197618 303.592819 
L 141.002633 303.592819 
L 129.807649 304.590614 
L 118.612665 304.590614 
L 107.41768 303.592819 
L 96.222696 301.597228 
L 85.027712 302.595024 
L 73.832727 306.586205 
z
" style="fill:#1f77b4;"/>
   </g>
   <g id="PolyCollection_2">
    <path clip-path="url(#p4f27fc4bdb)" d="M 73.832727 273.658961 
L 73.832727 306.586205 
L 85.027712 302.595024 
L 96.222696 301.597228 
L 107.41768 303.592819 
L 118.612665 304.590614 
L 129.807649 304.590614 
L 141.002633 303.592819 
L 152.197618 303.592819 
L 163.392602 305.588409 
L 174.587586 305.588409 
L 185.782571 305.588409 
L 196.977555 304.590614 
L 208.172539 305.588409 
L 219.367524 304.590614 
L 230.562508 303.592819 
L 241.757492 304.590614 
L 252.952476 304.590614 
L 264.147461 305.588409 
L 275.342445 304.590614 
L 286.537429 305.588409 
L 297.732414 305.588409 
L 308.927398 303.592819 
L 320.122382 297.606047 
L 331.317367 300.599433 
L 342.512351 293.614866 
L 353.707335 300.599433 
L 364.90232 295.610457 
L 376.097304 292.617071 
L 387.292288 291.619276 
L 398.487273 290.62148 
L 398.487273 267.672189 
L 398.487273 267.672189 
L 387.292288 271.66337 
L 376.097304 274.656756 
L 364.90232 272.661165 
L 353.707335 271.66337 
L 342.512351 262.683213 
L 331.317367 261.685417 
L 320.122382 284.634709 
L 308.927398 294.612661 
L 297.732414 301.597228 
L 286.537429 298.603843 
L 275.342445 300.599433 
L 264.147461 297.606047 
L 252.952476 299.601638 
L 241.757492 291.619276 
L 230.562508 282.639118 
L 219.367524 289.623685 
L 208.172539 281.641323 
L 196.977555 279.645732 
L 185.782571 275.654551 
L 174.587586 286.630299 
L 163.392602 291.619276 
L 152.197618 291.619276 
L 141.002633 290.62148 
L 129.807649 264.678803 
L 118.612665 289.623685 
L 107.41768 287.628094 
L 96.222696 296.608252 
L 85.027712 292.617071 
L 73.832727 273.658961 
z
" style="fill:#ff7f0e;"/>
   </g>
   <g id="PolyCollection_3">
    <path clip-path="url(#p4f27fc4bdb)" d="M 73.832727 240.731717 
L 73.832727 273.658961 
L 85.027712 292.617071 
L 96.222696 296.608252 
L 107.41768 287.628094 
L 118.612665 289.623685 
L 129.807649 264.678803 
L 141.002633 290.62148 
L 152.197618 291.619276 
L 163.392602 291.619276 
L 174.587586 286.630299 
L 185.782571 275.654551 
L 196.977555 279.645732 
L 208.172539 281.641323 
L 219.367524 289.623685 
L 230.562508 282.639118 
L 241.757492 291.619276 
L 252.952476 299.601638 
L 264.147461 297.606047 
L 275.342445 300.599433 
L 286.537429 298.603843 
L 297.732414 301.597228 
L 308.927398 294.612661 
L 320.122382 284.634709 
L 331.317367 261.685417 
L 342.512351 262.683213 
L 353.707335 271.66337 
L 364.90232 272.661165 
L 376.097304 274.656756 
L 387.292288 271.66337 
L 398.487273 267.672189 
L 398.487273 249.711874 
L 398.487273 249.711874 
L 387.292288 255.698646 
L 376.097304 254.70085 
L 364.90232 260.687622 
L 353.707335 255.698646 
L 342.512351 251.707465 
L 331.317367 247.716283 
L 320.122382 269.66778 
L 308.927398 270.665575 
L 297.732414 291.619276 
L 286.537429 278.647937 
L 275.342445 297.606047 
L 264.147461 286.630299 
L 252.952476 290.62148 
L 241.757492 283.636913 
L 230.562508 268.669984 
L 219.367524 251.707465 
L 208.172539 264.678803 
L 196.977555 253.703055 
L 185.782571 253.703055 
L 174.587586 276.652346 
L 163.392602 281.641323 
L 152.197618 273.658961 
L 141.002633 273.658961 
L 129.807649 250.709669 
L 118.612665 278.647937 
L 107.41768 283.636913 
L 96.222696 283.636913 
L 85.027712 259.689827 
L 73.832727 240.731717 
z
" style="fill:#2ca02c;"/>
   </g>
   <g id="PolyCollection_4">
    <path clip-path="url(#p4f27fc4bdb)" d="M 73.832727 211.795654 
L 73.832727 240.731717 
L 85.027712 259.689827 
L 96.222696 283.636913 
L 107.41768 283.636913 
L 118.612665 278.647937 
L 129.807649 250.709669 
L 141.002633 273.658961 
L 152.197618 273.658961 
L 163.392602 281.641323 
L 174.587586 276.652346 
L 185.782571 253.703055 
L 196.977555 253.703055 
L 208.172539 264.678803 
L 219.367524 251.707465 
L 230.562508 268.669984 
L 241.757492 283.636913 
L 252.952476 290.62148 
L 264.147461 286.630299 
L 275.342445 297.606047 
L 286.537429 278.647937 
L 297.732414 291.619276 
L 308.927398 270.665575 
L 320.122382 269.66778 
L 331.317367 247.716283 
L 342.512351 251.707465 
L 353.707335 255.698646 
L 364.90232 260.687622 
L 376.097304 254.70085 
L 387.292288 255.698646 
L 398.487273 249.711874 
L 398.487273 249.711874 
L 398.487273 249.711874 
L 387.292288 255.698646 
L 376.097304 228.758173 
L 364.90232 241.729512 
L 353.707335 238.736126 
L 342.512351 236.740535 
L 331.317367 236.740535 
L 320.122382 253.703055 
L 308.927398 259.689827 
L 297.732414 264.678803 
L 286.537429 267.672189 
L 275.342445 283.636913 
L 264.147461 276.652346 
L 252.952476 273.658961 
L 241.757492 252.70526 
L 230.562508 241.729512 
L 219.367524 240.731717 
L 208.172539 257.694236 
L 196.977555 237.738331 
L 185.782571 243.725102 
L 174.587586 266.674394 
L 163.392602 256.696441 
L 152.197618 242.727307 
L 141.002633 246.718488 
L 129.807649 228.758173 
L 118.612665 257.694236 
L 107.41768 261.685417 
L 96.222696 255.698646 
L 85.027712 240.731717 
L 73.832727 211.795654 
z
" style="fill:#d62728;"/>
   </g>
   <g id="PolyCollection_5">
    <path clip-path="url(#p4f27fc4bdb)" d="M 73.832727 171.883843 
L 73.832727 211.795654 
L 85.027712 240.731717 
L 96.222696 255.698646 
L 107.41768 261.685417 
L 118.612665 257.694236 
L 129.807649 228.758173 
L 141.002633 246.718488 
L 152.197618 242.727307 
L 163.392602 256.696441 
L 174.587586 266.674394 
L 185.782571 243.725102 
L 196.977555 237.738331 
L 208.172539 257.694236 
L 219.367524 240.731717 
L 230.562508 241.729512 
L 241.757492 252.70526 
L 252.952476 273.658961 
L 264.147461 276.652346 
L 275.342445 283.636913 
L 286.537429 267.672189 
L 297.732414 264.678803 
L 308.927398 259.689827 
L 320.122382 253.703055 
L 331.317367 236.740535 
L 342.512351 236.740535 
L 353.707335 238.736126 
L 364.90232 241.729512 
L 376.097304 228.758173 
L 387.292288 255.698646 
L 398.487273 249.711874 
L 398.487273 228.758173 
L 398.487273 228.758173 
L 387.292288 234.744945 
L 376.097304 219.778016 
L 364.90232 223.769197 
L 353.707335 224.766992 
L 342.512351 226.762583 
L 331.317367 225.764787 
L 320.122382 242.727307 
L 308.927398 245.720693 
L 297.732414 257.694236 
L 286.537429 263.681008 
L 275.342445 276.652346 
L 264.147461 270.665575 
L 252.952476 269.66778 
L 241.757492 239.733921 
L 230.562508 205.808882 
L 219.367524 226.762583 
L 208.172539 213.791244 
L 196.977555 216.78463 
L 185.782571 235.74274 
L 174.587586 241.729512 
L 163.392602 226.762583 
L 152.197618 219.778016 
L 141.002633 236.740535 
L 129.807649 227.760378 
L 118.612665 239.733921 
L 107.41768 248.714079 
L 96.222696 226.762583 
L 85.027712 221.773606 
L 73.832727 171.883843 
z
" style="fill:#9467bd;"/>
   </g>
   <g id="PolyCollection_6">
    <path clip-path="url(#p4f27fc4bdb)" d="M 73.832727 153.923528 
L 73.832727 171.883843 
L 85.027712 221.773606 
L 96.222696 226.762583 
L 107.41768 248.714079 
L 118.612665 239.733921 
L 129.807649 227.760378 
L 141.002633 236.740535 
L 152.197618 219.778016 
L 163.392602 226.762583 
L 174.587586 241.729512 
L 185.782571 235.74274 
L 196.977555 216.78463 
L 208.172539 213.791244 
L 219.367524 226.762583 
L 230.562508 205.808882 
L 241.757492 239.733921 
L 252.952476 269.66778 
L 264.147461 270.665575 
L 275.342445 276.652346 
L 286.537429 263.681008 
L 297.732414 257.694236 
L 308.927398 245.720693 
L 320.122382 242.727307 
L 331.317367 225.764787 
L 342.512351 226.762583 
L 353.707335 224.766992 
L 364.90232 223.769197 
L 376.097304 219.778016 
L 387.292288 234.744945 
L 398.487273 228.758173 
L 398.487273 206.806677 
L 398.487273 206.806677 
L 387.292288 202.815496 
L 376.097304 197.82652 
L 364.90232 200.819906 
L 353.707335 194.833134 
L 342.512351 200.819906 
L 331.317367 210.797858 
L 320.122382 234.744945 
L 308.927398 231.751559 
L 297.732414 239.733921 
L 286.537429 247.716283 
L 275.342445 262.683213 
L 264.147461 248.714079 
L 252.952476 255.698646 
L 241.757492 219.778016 
L 230.562508 186.850772 
L 219.367524 213.791244 
L 208.172539 194.833134 
L 196.977555 185.852976 
L 185.782571 218.78022 
L 174.587586 208.802268 
L 163.392602 189.844157 
L 152.197618 207.804472 
L 141.002633 204.811087 
L 129.807649 208.802268 
L 118.612665 213.791244 
L 107.41768 235.74274 
L 96.222696 218.78022 
L 85.027712 215.786835 
L 73.832727 153.923528 
z
" style="fill:#8c564b;"/>
   </g>
   <g id="PolyCollection_7">
    <path clip-path="url(#p4f27fc4bdb)" d="M 73.832727 125.98526 
L 73.832727 153.923528 
L 85.027712 215.786835 
L 96.222696 218.78022 
L 107.41768 235.74274 
L 118.612665 213.791244 
L 129.807649 208.802268 
L 141.002633 204.811087 
L 152.197618 207.804472 
L 163.392602 189.844157 
L 174.587586 208.802268 
L 185.782571 218.78022 
L 196.977555 185.852976 
L 208.172539 194.833134 
L 219.367524 213.791244 
L 230.562508 186.850772 
L 241.757492 219.778016 
L 252.952476 255.698646 
L 264.147461 248.714079 
L 275.342445 262.683213 
L 286.537429 247.716283 
L 297.732414 239.733921 
L 308.927398 231.751559 
L 320.122382 234.744945 
L 331.317367 210.797858 
L 342.512351 200.819906 
L 353.707335 194.833134 
L 364.90232 200.819906 
L 376.097304 197.82652 
L 387.292288 202.815496 
L 398.487273 206.806677 
L 398.487273 191.839748 
L 398.487273 191.839748 
L 387.292288 180.864 
L 376.097304 172.881638 
L 364.90232 174.877228 
L 353.707335 175.875024 
L 342.512351 193.835339 
L 331.317367 202.815496 
L 320.122382 227.760378 
L 308.927398 207.804472 
L 297.732414 219.778016 
L 286.537429 226.762583 
L 275.342445 250.709669 
L 264.147461 231.751559 
L 252.952476 228.758173 
L 241.757492 196.828724 
L 230.562508 158.912504 
L 219.367524 195.830929 
L 208.172539 178.868409 
L 196.977555 170.886047 
L 185.782571 204.811087 
L 174.587586 189.844157 
L 163.392602 171.883843 
L 152.197618 193.835339 
L 141.002633 193.835339 
L 129.807649 197.82652 
L 118.612665 201.817701 
L 107.41768 218.78022 
L 96.222696 207.804472 
L 85.027712 196.828724 
L 73.832727 125.98526 
z
" style="fill:#e377c2;"/>
   </g>
   <g id="PolyCollection_8">
    <path clip-path="url(#p4f27fc4bdb)" d="M 73.832727 124.987465 
L 73.832727 125.98526 
L 85.027712 196.828724 
L 96.222696 207.804472 
L 107.41768 218.78022 
L 118.612665 201.817701 
L 129.807649 197.82652 
L 141.002633 193.835339 
L 152.197618 193.835339 
L 163.392602 171.883843 
L 174.587586 189.844157 
L 185.782571 204.811087 
L 196.977555 170.886047 
L 208.172539 178.868409 
L 219.367524 195.830929 
L 230.562508 158.912504 
L 241.757492 196.828724 
L 252.952476 228.758173 
L 264.147461 231.751559 
L 275.342445 250.709669 
L 286.537429 226.762583 
L 297.732414 219.778016 
L 308.927398 207.804472 
L 320.122382 227.760378 
L 331.317367 202.815496 
L 342.512351 193.835339 
L 353.707335 175.875024 
L 364.90232 174.877228 
L 376.097304 172.881638 
L 387.292288 180.864 
L 398.487273 191.839748 
L 398.487273 191.839748 
L 398.487273 191.839748 
L 387.292288 180.864 
L 376.097304 172.881638 
L 364.90232 174.877228 
L 353.707335 175.875024 
L 342.512351 191.839748 
L 331.317367 200.819906 
L 320.122382 225.764787 
L 308.927398 205.808882 
L 297.732414 217.782425 
L 286.537429 223.769197 
L 275.342445 248.714079 
L 264.147461 229.755969 
L 252.952476 226.762583 
L 241.757492 193.835339 
L 230.562508 156.916913 
L 219.367524 193.835339 
L 208.172539 175.875024 
L 196.977555 167.892661 
L 185.782571 202.815496 
L 174.587586 187.848567 
L 163.392602 169.888252 
L 152.197618 190.841953 
L 141.002633 189.844157 
L 129.807649 194.833134 
L 118.612665 198.824315 
L 107.41768 214.789039 
L 96.222696 203.813291 
L 85.027712 194.833134 
L 73.832727 124.987465 
z
" style="fill:#7f7f7f;"/>
   </g>
   <g id="PolyCollection_9">
    <path clip-path="url(#p4f27fc4bdb)" d="M 73.832727 118.002898 
L 73.832727 124.987465 
L 85.027712 194.833134 
L 96.222696 203.813291 
L 107.41768 214.789039 
L 118.612665 198.824315 
L 129.807649 194.833134 
L 141.002633 189.844157 
L 152.197618 190.841953 
L 163.392602 169.888252 
L 174.587586 187.848567 
L 185.782571 202.815496 
L 196.977555 167.892661 
L 208.172539 175.875024 
L 219.367524 193.835339 
L 230.562508 156.916913 
L 241.757492 193.835339 
L 252.952476 226.762583 
L 264.147461 229.755969 
L 275.342445 248.714079 
L 286.537429 223.769197 
L 297.732414 217.782425 
L 308.927398 205.808882 
L 320.122382 225.764787 
L 331.317367 200.819906 
L 342.512351 191.839748 
L 353.707335 175.875024 
L 364.90232 174.877228 
L 376.097304 172.881638 
L 387.292288 180.864 
L 398.487273 191.839748 
L 398.487273 155.919118 
L 398.487273 155.919118 
L 387.292288 158.912504 
L 376.097304 149.932346 
L 364.90232 164.899276 
L 353.707335 158.912504 
L 342.512351 176.872819 
L 331.317367 187.848567 
L 320.122382 204.811087 
L 308.927398 186.850772 
L 297.732414 200.819906 
L 286.537429 206.806677 
L 275.342445 236.740535 
L 264.147461 215.786835 
L 252.952476 199.82211 
L 241.757492 182.859591 
L 230.562508 147.936756 
L 219.367524 182.859591 
L 208.172539 168.890457 
L 196.977555 165.897071 
L 185.782571 193.835339 
L 174.587586 184.855181 
L 163.392602 167.892661 
L 152.197618 186.850772 
L 141.002633 186.850772 
L 129.807649 190.841953 
L 118.612665 194.833134 
L 107.41768 212.793449 
L 96.222696 200.819906 
L 85.027712 191.839748 
L 73.832727 118.002898 
z
" style="fill:#bcbd22;"/>
   </g>
   <g id="PolyCollection_10">
    <path clip-path="url(#p4f27fc4bdb)" d="M 73.832727 117.005102 
L 73.832727 118.002898 
L 85.027712 191.839748 
L 96.222696 200.819906 
L 107.41768 212.793449 
L 118.612665 194.833134 
L 129.807649 190.841953 
L 141.002633 186.850772 
L 152.197618 186.850772 
L 163.392602 167.892661 
L 174.587586 184.855181 
L 185.782571 193.835339 
L 196.977555 165.897071 
L 208.172539 168.890457 
L 219.367524 182.859591 
L 230.562508 147.936756 
L 241.757492 182.859591 
L 252.952476 199.82211 
L 264.147461 215.786835 
L 275.342445 236.740535 
L 286.537429 206.806677 
L 297.732414 200.819906 
L 308.927398 186.850772 
L 320.122382 204.811087 
L 331.317367 187.848567 
L 342.512351 176.872819 
L 353.707335 158.912504 
L 364.90232 164.899276 
L 376.097304 149.932346 
L 387.292288 158.912504 
L 398.487273 155.919118 
L 398.487273 141.949984 
L 398.487273 141.949984 
L 387.292288 150.930142 
L 376.097304 136.961008 
L 364.90232 154.921323 
L 353.707335 146.938961 
L 342.512351 162.903685 
L 331.317367 176.872819 
L 320.122382 172.881638 
L 308.927398 178.868409 
L 297.732414 194.833134 
L 286.537429 194.833134 
L 275.342445 206.806677 
L 264.147461 212.793449 
L 252.952476 195.830929 
L 241.757492 179.866205 
L 230.562508 145.941165 
L 219.367524 179.866205 
L 208.172539 164.899276 
L 196.977555 162.903685 
L 185.782571 191.839748 
L 174.587586 181.861795 
L 163.392602 163.90148 
L 152.197618 183.857386 
L 141.002633 182.859591 
L 129.807649 187.848567 
L 118.612665 190.841953 
L 107.41768 209.800063 
L 96.222696 196.828724 
L 85.027712 189.844157 
L 73.832727 117.005102 
z
" style="fill:#17becf;"/>
   </g>
   <g id="PolyCollection_11">
    <path clip-path="url(#p4f27fc4bdb)" d="M 73.832727 110.020535 
L 73.832727 117.005102 
L 85.027712 189.844157 
L 96.222696 196.828724 
L 107.41768 209.800063 
L 118.612665 190.841953 
L 129.807649 187.848567 
L 141.002633 182.859591 
L 152.197618 183.857386 
L 163.392602 163.90148 
L 174.587586 181.861795 
L 185.782571 191.839748 
L 196.977555 162.903685 
L 208.172539 164.899276 
L 219.367524 179.866205 
L 230.562508 145.941165 
L 241.757492 179.866205 
L 252.952476 195.830929 
L 264.147461 212.793449 
L 275.342445 206.806677 
L 286.537429 194.833134 
L 297.732414 194.833134 
L 308.927398 178.868409 
L 320.122382 172.881638 
L 331.317367 176.872819 
L 342.512351 162.903685 
L 353.707335 146.938961 
L 364.90232 154.921323 
L 376.097304 136.961008 
L 387.292288 150.930142 
L 398.487273 141.949984 
L 398.487273 141.949984 
L 398.487273 141.949984 
L 387.292288 150.930142 
L 376.097304 136.961008 
L 364.90232 154.921323 
L 353.707335 146.938961 
L 342.512351 162.903685 
L 331.317367 176.872819 
L 320.122382 172.881638 
L 308.927398 178.868409 
L 297.732414 192.837543 
L 286.537429 192.837543 
L 275.342445 204.811087 
L 264.147461 209.800063 
L 252.952476 193.835339 
L 241.757492 176.872819 
L 230.562508 143.945575 
L 219.367524 176.872819 
L 208.172539 160.908094 
L 196.977555 159.910299 
L 185.782571 187.848567 
L 174.587586 178.868409 
L 163.392602 161.90589 
L 152.197618 180.864 
L 141.002633 180.864 
L 129.807649 186.850772 
L 118.612665 188.846362 
L 107.41768 203.813291 
L 96.222696 188.846362 
L 85.027712 185.852976 
L 73.832727 110.020535 
z
" style="fill:#1f77b4;"/>
   </g>
   <g id="PolyCollection_12">
    <path clip-path="url(#p4f27fc4bdb)" d="M 73.832727 99.044787 
L 73.832727 110.020535 
L 85.027712 185.852976 
L 96.222696 188.846362 
L 107.41768 203.813291 
L 118.612665 188.846362 
L 129.807649 186.850772 
L 141.002633 180.864 
L 152.197618 180.864 
L 163.392602 161.90589 
L 174.587586 178.868409 
L 185.782571 187.848567 
L 196.977555 159.910299 
L 208.172539 160.908094 
L 219.367524 176.872819 
L 230.562508 143.945575 
L 241.757492 176.872819 
L 252.952476 193.835339 
L 264.147461 209.800063 
L 275.342445 204.811087 
L 286.537429 192.837543 
L 297.732414 192.837543 
L 308.927398 178.868409 
L 320.122382 172.881638 
L 331.317367 176.872819 
L 342.512351 162.903685 
L 353.707335 146.938961 
L 364.90232 154.921323 
L 376.097304 136.961008 
L 387.292288 150.930142 
L 398.487273 141.949984 
L 398.487273 141.949984 
L 398.487273 141.949984 
L 387.292288 150.930142 
L 376.097304 136.961008 
L 364.90232 154.921323 
L 353.707335 146.938961 
L 342.512351 162.903685 
L 331.317367 156.916913 
L 320.122382 159.910299 
L 308.927398 171.883843 
L 297.732414 176.872819 
L 286.537429 182.859591 
L 275.342445 187.848567 
L 264.147461 186.850772 
L 252.952476 162.903685 
L 241.757492 153.923528 
L 230.562508 126.983055 
L 219.367524 151.927937 
L 208.172539 139.954394 
L 196.977555 146.938961 
L 185.782571 166.894866 
L 174.587586 161.90589 
L 163.392602 146.938961 
L 152.197618 156.916913 
L 141.002633 166.894866 
L 129.807649 170.886047 
L 118.612665 187.848567 
L 107.41768 187.848567 
L 96.222696 171.883843 
L 85.027712 155.919118 
L 73.832727 99.044787 
z
" style="fill:#ff7f0e;"/>
   </g>
   <g id="PolyCollection_13">
    <path clip-path="url(#p4f27fc4bdb)" d="M 73.832727 98.046992 
L 73.832727 99.044787 
L 85.027712 155.919118 
L 96.222696 171.883843 
L 107.41768 187.848567 
L 118.612665 187.848567 
L 129.807649 170.886047 
L 141.002633 166.894866 
L 152.197618 156.916913 
L 163.392602 146.938961 
L 174.587586 161.90589 
L 185.782571 166.894866 
L 196.977555 146.938961 
L 208.172539 139.954394 
L 219.367524 151.927937 
L 230.562508 126.983055 
L 241.757492 153.923528 
L 252.952476 162.903685 
L 264.147461 186.850772 
L 275.342445 187.848567 
L 286.537429 182.859591 
L 297.732414 176.872819 
L 308.927398 171.883843 
L 320.122382 159.910299 
L 331.317367 156.916913 
L 342.512351 162.903685 
L 353.707335 146.938961 
L 364.90232 154.921323 
L 376.097304 136.961008 
L 387.292288 150.930142 
L 398.487273 141.949984 
L 398.487273 138.956598 
L 398.487273 138.956598 
L 387.292288 148.934551 
L 376.097304 133.967622 
L 364.90232 152.925732 
L 353.707335 143.945575 
L 342.512351 160.908094 
L 331.317367 153.923528 
L 320.122382 157.914709 
L 308.927398 168.890457 
L 297.732414 174.877228 
L 286.537429 180.864 
L 275.342445 185.852976 
L 264.147461 183.857386 
L 252.952476 158.912504 
L 241.757492 150.930142 
L 230.562508 124.987465 
L 219.367524 149.932346 
L 208.172539 136.961008 
L 196.977555 144.94337 
L 185.782571 163.90148 
L 174.587586 157.914709 
L 163.392602 143.945575 
L 152.197618 154.921323 
L 141.002633 163.90148 
L 129.807649 168.890457 
L 118.612665 184.855181 
L 107.41768 185.852976 
L 96.222696 169.888252 
L 85.027712 153.923528 
L 73.832727 98.046992 
z
" style="fill:#2ca02c;"/>
   </g>
   <g id="PolyCollection_14">
    <path clip-path="url(#p4f27fc4bdb)" d="M 73.832727 92.06022 
L 73.832727 98.046992 
L 85.027712 153.923528 
L 96.222696 169.888252 
L 107.41768 185.852976 
L 118.612665 184.855181 
L 129.807649 168.890457 
L 141.002633 163.90148 
L 152.197618 154.921323 
L 163.392602 143.945575 
L 174.587586 157.914709 
L 185.782571 163.90148 
L 196.977555 144.94337 
L 208.172539 136.961008 
L 219.367524 149.932346 
L 230.562508 124.987465 
L 241.757492 150.930142 
L 252.952476 158.912504 
L 264.147461 183.857386 
L 275.342445 185.852976 
L 286.537429 180.864 
L 297.732414 174.877228 
L 308.927398 168.890457 
L 320.122382 157.914709 
L 331.317367 153.923528 
L 342.512351 160.908094 
L 353.707335 143.945575 
L 364.90232 152.925732 
L 376.097304 133.967622 
L 387.292288 148.934551 
L 398.487273 138.956598 
L 398.487273 119.000693 
L 398.487273 119.000693 
L 387.292288 126.983055 
L 376.097304 117.005102 
L 364.90232 122.991874 
L 353.707335 133.967622 
L 342.512351 137.958803 
L 331.317367 136.961008 
L 320.122382 134.965417 
L 308.927398 162.903685 
L 297.732414 170.886047 
L 286.537429 165.897071 
L 275.342445 176.872819 
L 264.147461 173.879433 
L 252.952476 141.949984 
L 241.757492 131.972031 
L 230.562508 119.000693 
L 219.367524 136.961008 
L 208.172539 120.996283 
L 196.977555 127.98085 
L 185.782571 147.936756 
L 174.587586 142.94778 
L 163.392602 138.956598 
L 152.197618 152.925732 
L 141.002633 159.910299 
L 129.807649 165.897071 
L 118.612665 176.872819 
L 107.41768 178.868409 
L 96.222696 165.897071 
L 85.027712 136.961008 
L 73.832727 92.06022 
z
" style="fill:#d62728;"/>
   </g>
   <g id="PolyCollection_15">
    <path clip-path="url(#p4f27fc4bdb)" d="M 73.832727 90.06463 
L 73.832727 92.06022 
L 85.027712 136.961008 
L 96.222696 165.897071 
L 107.41768 178.868409 
L 118.612665 176.872819 
L 129.807649 165.897071 
L 141.002633 159.910299 
L 152.197618 152.925732 
L 163.392602 138.956598 
L 174.587586 142.94778 
L 185.782571 147.936756 
L 196.977555 127.98085 
L 208.172539 120.996283 
L 219.367524 136.961008 
L 230.562508 119.000693 
L 241.757492 131.972031 
L 252.952476 141.949984 
L 264.147461 173.879433 
L 275.342445 176.872819 
L 286.537429 165.897071 
L 297.732414 170.886047 
L 308.927398 162.903685 
L 320.122382 134.965417 
L 331.317367 136.961008 
L 342.512351 137.958803 
L 353.707335 133.967622 
L 364.90232 122.991874 
L 376.097304 117.005102 
L 387.292288 126.983055 
L 398.487273 119.000693 
L 398.487273 109.02274 
L 398.487273 109.02274 
L 387.292288 119.000693 
L 376.097304 104.033764 
L 364.90232 102.038173 
L 353.707335 109.02274 
L 342.512351 117.005102 
L 331.317367 115.009512 
L 320.122382 106.029354 
L 308.927398 157.914709 
L 297.732414 168.890457 
L 286.537429 132.969827 
L 275.342445 147.936756 
L 264.147461 141.949984 
L 252.952476 136.961008 
L 241.757492 127.98085 
L 230.562508 115.009512 
L 219.367524 133.967622 
L 208.172539 117.005102 
L 196.977555 125.98526 
L 185.782571 144.94337 
L 174.587586 138.956598 
L 163.392602 135.963213 
L 152.197618 150.930142 
L 141.002633 155.919118 
L 129.807649 161.90589 
L 118.612665 174.877228 
L 107.41768 175.875024 
L 96.222696 163.90148 
L 85.027712 135.963213 
L 73.832727 90.06463 
z
" style="fill:#9467bd;"/>
   </g>
   <g id="PolyCollection_16">
    <path clip-path="url(#p4f27fc4bdb)" d="M 73.832727 89.066835 
L 73.832727 90.06463 
L 85.027712 135.963213 
L 96.222696 163.90148 
L 107.41768 175.875024 
L 118.612665 174.877228 
L 129.807649 161.90589 
L 141.002633 155.919118 
L 152.197618 150.930142 
L 163.392602 135.963213 
L 174.587586 138.956598 
L 185.782571 144.94337 
L 196.977555 125.98526 
L 208.172539 117.005102 
L 219.367524 133.967622 
L 230.562508 115.009512 
L 241.757492 127.98085 
L 252.952476 136.961008 
L 264.147461 141.949984 
L 275.342445 147.936756 
L 286.537429 132.969827 
L 297.732414 168.890457 
L 308.927398 157.914709 
L 320.122382 106.029354 
L 331.317367 115.009512 
L 342.512351 117.005102 
L 353.707335 109.02274 
L 364.90232 102.038173 
L 376.097304 104.033764 
L 387.292288 119.000693 
L 398.487273 109.02274 
L 398.487273 109.02274 
L 398.487273 109.02274 
L 387.292288 119.000693 
L 376.097304 104.033764 
L 364.90232 100.042583 
L 353.707335 107.02715 
L 342.512351 115.009512 
L 331.317367 113.013921 
L 320.122382 103.035969 
L 308.927398 153.923528 
L 297.732414 165.897071 
L 286.537429 130.974236 
L 275.342445 145.941165 
L 264.147461 139.954394 
L 252.952476 133.967622 
L 241.757492 124.987465 
L 230.562508 113.013921 
L 219.367524 130.974236 
L 208.172539 114.011717 
L 196.977555 123.989669 
L 185.782571 140.952189 
L 174.587586 135.963213 
L 163.392602 132.969827 
L 152.197618 146.938961 
L 141.002633 152.925732 
L 129.807649 157.914709 
L 118.612665 171.883843 
L 107.41768 171.883843 
L 96.222696 158.912504 
L 85.027712 131.972031 
L 73.832727 89.066835 
z
" style="fill:#8c564b;"/>
   </g>
   <g id="PolyCollection_17">
    <path clip-path="url(#p4f27fc4bdb)" d="M 73.832727 88.069039 
L 73.832727 89.066835 
L 85.027712 131.972031 
L 96.222696 158.912504 
L 107.41768 171.883843 
L 118.612665 171.883843 
L 129.807649 157.914709 
L 141.002633 152.925732 
L 152.197618 146.938961 
L 163.392602 132.969827 
L 174.587586 135.963213 
L 185.782571 140.952189 
L 196.977555 123.989669 
L 208.172539 114.011717 
L 219.367524 130.974236 
L 230.562508 113.013921 
L 241.757492 124.987465 
L 252.952476 133.967622 
L 264.147461 139.954394 
L 275.342445 145.941165 
L 286.537429 130.974236 
L 297.732414 165.897071 
L 308.927398 153.923528 
L 320.122382 103.035969 
L 331.317367 113.013921 
L 342.512351 115.009512 
L 353.707335 107.02715 
L 364.90232 100.042583 
L 376.097304 104.033764 
L 387.292288 119.000693 
L 398.487273 109.02274 
L 398.487273 109.02274 
L 398.487273 109.02274 
L 387.292288 119.000693 
L 376.097304 104.033764 
L 364.90232 100.042583 
L 353.707335 107.02715 
L 342.512351 115.009512 
L 331.317367 113.013921 
L 320.122382 102.038173 
L 308.927398 151.927937 
L 297.732414 162.903685 
L 286.537429 128.978646 
L 275.342445 143.945575 
L 264.147461 137.958803 
L 252.952476 130.974236 
L 241.757492 122.991874 
L 230.562508 111.018331 
L 219.367524 127.98085 
L 208.172539 112.016126 
L 196.977555 121.994079 
L 185.782571 137.958803 
L 174.587586 131.972031 
L 163.392602 129.976441 
L 152.197618 144.94337 
L 141.002633 149.932346 
L 129.807649 153.923528 
L 118.612665 168.890457 
L 107.41768 167.892661 
L 96.222696 155.919118 
L 85.027712 129.976441 
L 73.832727 88.069039 
z
" style="fill:#e377c2;"/>
   </g>
   <g id="PolyCollection_18">
    <path clip-path="url(#p4f27fc4bdb)" d="M 73.832727 78.091087 
L 73.832727 88.069039 
L 85.027712 129.976441 
L 96.222696 155.919118 
L 107.41768 167.892661 
L 118.612665 168.890457 
L 129.807649 153.923528 
L 141.002633 149.932346 
L 152.197618 144.94337 
L 163.392602 129.976441 
L 174.587586 131.972031 
L 185.782571 137.958803 
L 196.977555 121.994079 
L 208.172539 112.016126 
L 219.367524 127.98085 
L 230.562508 111.018331 
L 241.757492 122.991874 
L 252.952476 130.974236 
L 264.147461 137.958803 
L 275.342445 143.945575 
L 286.537429 128.978646 
L 297.732414 162.903685 
L 308.927398 151.927937 
L 320.122382 102.038173 
L 331.317367 113.013921 
L 342.512351 115.009512 
L 353.707335 107.02715 
L 364.90232 100.042583 
L 376.097304 104.033764 
L 387.292288 119.000693 
L 398.487273 109.02274 
L 398.487273 109.02274 
L 398.487273 109.02274 
L 387.292288 119.000693 
L 376.097304 104.033764 
L 364.90232 89.066835 
L 353.707335 97.049197 
L 342.512351 105.031559 
L 331.317367 103.035969 
L 320.122382 97.049197 
L 308.927398 138.956598 
L 297.732414 150.930142 
L 286.537429 121.994079 
L 275.342445 131.972031 
L 264.147461 126.983055 
L 252.952476 119.998488 
L 241.757492 109.02274 
L 230.562508 96.051402 
L 219.367524 113.013921 
L 208.172539 98.046992 
L 196.977555 115.009512 
L 185.782571 126.983055 
L 174.587586 124.987465 
L 163.392602 123.989669 
L 152.197618 120.996283 
L 141.002633 143.945575 
L 129.807649 129.976441 
L 118.612665 129.976441 
L 107.41768 136.961008 
L 96.222696 131.972031 
L 85.027712 111.018331 
L 73.832727 78.091087 
z
" style="fill:#7f7f7f;"/>
   </g>
   <g id="PolyCollection_19">
    <path clip-path="url(#p4f27fc4bdb)" d="M 73.832727 77.093291 
L 73.832727 78.091087 
L 85.027712 111.018331 
L 96.222696 131.972031 
L 107.41768 136.961008 
L 118.612665 129.976441 
L 129.807649 129.976441 
L 141.002633 143.945575 
L 152.197618 120.996283 
L 163.392602 123.989669 
L 174.587586 124.987465 
L 185.782571 126.983055 
L 196.977555 115.009512 
L 208.172539 98.046992 
L 219.367524 113.013921 
L 230.562508 96.051402 
L 241.757492 109.02274 
L 252.952476 119.998488 
L 264.147461 126.983055 
L 275.342445 131.972031 
L 286.537429 121.994079 
L 297.732414 150.930142 
L 308.927398 138.956598 
L 320.122382 97.049197 
L 331.317367 103.035969 
L 342.512351 105.031559 
L 353.707335 97.049197 
L 364.90232 89.066835 
L 376.097304 104.033764 
L 387.292288 119.000693 
L 398.487273 109.02274 
L 398.487273 109.02274 
L 398.487273 109.02274 
L 387.292288 119.000693 
L 376.097304 104.033764 
L 364.90232 87.071244 
L 353.707335 95.053606 
L 342.512351 102.038173 
L 331.317367 101.040378 
L 320.122382 95.053606 
L 308.927398 136.961008 
L 297.732414 148.934551 
L 286.537429 119.998488 
L 275.342445 128.978646 
L 264.147461 124.987465 
L 252.952476 117.005102 
L 241.757492 107.02715 
L 230.562508 94.055811 
L 219.367524 110.020535 
L 208.172539 96.051402 
L 196.977555 112.016126 
L 185.782571 122.991874 
L 174.587586 121.994079 
L 163.392602 121.994079 
L 152.197618 117.005102 
L 141.002633 138.956598 
L 129.807649 125.98526 
L 118.612665 126.983055 
L 107.41768 132.969827 
L 96.222696 126.983055 
L 85.027712 108.024945 
L 73.832727 77.093291 
z
" style="fill:#bcbd22;"/>
   </g>
   <g id="PolyCollection_20">
    <path clip-path="url(#p4f27fc4bdb)" d="M 73.832727 76.095496 
L 73.832727 77.093291 
L 85.027712 108.024945 
L 96.222696 126.983055 
L 107.41768 132.969827 
L 118.612665 126.983055 
L 129.807649 125.98526 
L 141.002633 138.956598 
L 152.197618 117.005102 
L 163.392602 121.994079 
L 174.587586 121.994079 
L 185.782571 122.991874 
L 196.977555 112.016126 
L 208.172539 96.051402 
L 219.367524 110.020535 
L 230.562508 94.055811 
L 241.757492 107.02715 
L 252.952476 117.005102 
L 264.147461 124.987465 
L 275.342445 128.978646 
L 286.537429 119.998488 
L 297.732414 148.934551 
L 308.927398 136.961008 
L 320.122382 95.053606 
L 331.317367 101.040378 
L 342.512351 102.038173 
L 353.707335 95.053606 
L 364.90232 87.071244 
L 376.097304 104.033764 
L 387.292288 119.000693 
L 398.487273 109.02274 
L 398.487273 106.029354 
L 398.487273 106.029354 
L 387.292288 117.005102 
L 376.097304 101.040378 
L 364.90232 85.075654 
L 353.707335 94.055811 
L 342.512351 99.044787 
L 331.317367 99.044787 
L 320.122382 93.058016 
L 308.927398 133.967622 
L 297.732414 146.938961 
L 286.537429 118.002898 
L 275.342445 126.983055 
L 264.147461 121.994079 
L 252.952476 115.009512 
L 241.757492 105.031559 
L 230.562508 91.062425 
L 219.367524 108.024945 
L 208.172539 93.058016 
L 196.977555 110.020535 
L 185.782571 119.998488 
L 174.587586 119.000693 
L 163.392602 119.998488 
L 152.197618 114.011717 
L 141.002633 134.965417 
L 129.807649 122.991874 
L 118.612665 124.987465 
L 107.41768 129.976441 
L 96.222696 123.989669 
L 85.027712 106.029354 
L 73.832727 76.095496 
z
" style="fill:#17becf;"/>
   </g>
   <g id="PolyCollection_21">
    <path clip-path="url(#p4f27fc4bdb)" d="M 73.832727 75.097701 
L 73.832727 76.095496 
L 85.027712 106.029354 
L 96.222696 123.989669 
L 107.41768 129.976441 
L 118.612665 124.987465 
L 129.807649 122.991874 
L 141.002633 134.965417 
L 152.197618 114.011717 
L 163.392602 119.998488 
L 174.587586 119.000693 
L 185.782571 119.998488 
L 196.977555 110.020535 
L 208.172539 93.058016 
L 219.367524 108.024945 
L 230.562508 91.062425 
L 241.757492 105.031559 
L 252.952476 115.009512 
L 264.147461 121.994079 
L 275.342445 126.983055 
L 286.537429 118.002898 
L 297.732414 146.938961 
L 308.927398 133.967622 
L 320.122382 93.058016 
L 331.317367 99.044787 
L 342.512351 99.044787 
L 353.707335 94.055811 
L 364.90232 85.075654 
L 376.097304 101.040378 
L 387.292288 117.005102 
L 398.487273 106.029354 
L 398.487273 87.071244 
L 398.487273 87.071244 
L 387.292288 102.038173 
L 376.097304 90.06463 
L 364.90232 76.095496 
L 353.707335 84.077858 
L 342.512351 85.075654 
L 331.317367 85.075654 
L 320.122382 88.069039 
L 308.927398 100.042583 
L 297.732414 107.02715 
L 286.537429 89.066835 
L 275.342445 106.029354 
L 264.147461 99.044787 
L 252.952476 112.016126 
L 241.757492 102.038173 
L 230.562508 89.066835 
L 219.367524 106.029354 
L 208.172539 90.06463 
L 196.977555 107.02715 
L 185.782571 118.002898 
L 174.587586 116.007307 
L 163.392602 118.002898 
L 152.197618 111.018331 
L 141.002633 130.974236 
L 129.807649 119.998488 
L 118.612665 120.996283 
L 107.41768 124.987465 
L 96.222696 119.998488 
L 85.027712 104.033764 
L 73.832727 75.097701 
z
" style="fill:#1f77b4;"/>
   </g>
   <g id="PolyCollection_22">
    <path clip-path="url(#p4f27fc4bdb)" d="M 73.832727 67.115339 
L 73.832727 75.097701 
L 85.027712 104.033764 
L 96.222696 119.998488 
L 107.41768 124.987465 
L 118.612665 120.996283 
L 129.807649 119.998488 
L 141.002633 130.974236 
L 152.197618 111.018331 
L 163.392602 118.002898 
L 174.587586 116.007307 
L 185.782571 118.002898 
L 196.977555 107.02715 
L 208.172539 90.06463 
L 219.367524 106.029354 
L 230.562508 89.066835 
L 241.757492 102.038173 
L 252.952476 112.016126 
L 264.147461 99.044787 
L 275.342445 106.029354 
L 286.537429 89.066835 
L 297.732414 107.02715 
L 308.927398 100.042583 
L 320.122382 88.069039 
L 331.317367 85.075654 
L 342.512351 85.075654 
L 353.707335 84.077858 
L 364.90232 76.095496 
L 376.097304 90.06463 
L 387.292288 102.038173 
L 398.487273 87.071244 
L 398.487273 65.119748 
L 398.487273 65.119748 
L 387.292288 68.113134 
L 376.097304 68.113134 
L 364.90232 72.104315 
L 353.707335 76.095496 
L 342.512351 75.097701 
L 331.317367 73.10211 
L 320.122382 68.113134 
L 308.927398 74.099906 
L 297.732414 69.110929 
L 286.537429 71.10652 
L 275.342445 72.104315 
L 264.147461 84.077858 
L 252.952476 86.073449 
L 241.757492 82.082268 
L 230.562508 73.10211 
L 219.367524 81.084472 
L 208.172539 72.104315 
L 196.977555 84.077858 
L 185.782571 91.062425 
L 174.587586 84.077858 
L 163.392602 91.062425 
L 152.197618 85.075654 
L 141.002633 102.038173 
L 129.807649 94.055811 
L 118.612665 96.051402 
L 107.41768 106.029354 
L 96.222696 108.024945 
L 85.027712 88.069039 
L 73.832727 67.115339 
z
" style="fill:#ff7f0e;"/>
   </g>
   <g id="PolyCollection_23">
    <path clip-path="url(#p4f27fc4bdb)" d="M 73.832727 61.128567 
L 73.832727 67.115339 
L 85.027712 88.069039 
L 96.222696 108.024945 
L 107.41768 106.029354 
L 118.612665 96.051402 
L 129.807649 94.055811 
L 141.002633 102.038173 
L 152.197618 85.075654 
L 163.392602 91.062425 
L 174.587586 84.077858 
L 185.782571 91.062425 
L 196.977555 84.077858 
L 208.172539 72.104315 
L 219.367524 81.084472 
L 230.562508 73.10211 
L 241.757492 82.082268 
L 252.952476 86.073449 
L 264.147461 84.077858 
L 275.342445 72.104315 
L 286.537429 71.10652 
L 297.732414 69.110929 
L 308.927398 74.099906 
L 320.122382 68.113134 
L 331.317367 73.10211 
L 342.512351 75.097701 
L 353.707335 76.095496 
L 364.90232 72.104315 
L 376.097304 68.113134 
L 387.292288 68.113134 
L 398.487273 65.119748 
L 398.487273 65.119748 
L 398.487273 65.119748 
L 387.292288 68.113134 
L 376.097304 68.113134 
L 364.90232 65.119748 
L 353.707335 67.115339 
L 342.512351 68.113134 
L 331.317367 63.124157 
L 320.122382 64.121953 
L 308.927398 63.124157 
L 297.732414 63.124157 
L 286.537429 63.124157 
L 275.342445 65.119748 
L 264.147461 66.117543 
L 252.952476 68.113134 
L 241.757492 62.126362 
L 230.562508 63.124157 
L 219.367524 66.117543 
L 208.172539 62.126362 
L 196.977555 63.124157 
L 185.782571 62.126362 
L 174.587586 63.124157 
L 163.392602 67.115339 
L 152.197618 69.110929 
L 141.002633 67.115339 
L 129.807649 68.113134 
L 118.612665 72.104315 
L 107.41768 70.108724 
L 96.222696 71.10652 
L 85.027712 66.117543 
L 73.832727 61.128567 
z
" style="fill:#2ca02c;"/>
   </g>
   <g id="PolyCollection_24">
    <path clip-path="url(#p4f27fc4bdb)" d="M 73.832727 60.130772 
L 73.832727 61.128567 
L 85.027712 66.117543 
L 96.222696 71.10652 
L 107.41768 70.108724 
L 118.612665 72.104315 
L 129.807649 68.113134 
L 141.002633 67.115339 
L 152.197618 69.110929 
L 163.392602 67.115339 
L 174.587586 63.124157 
L 185.782571 62.126362 
L 196.977555 63.124157 
L 208.172539 62.126362 
L 219.367524 66.117543 
L 230.562508 63.124157 
L 241.757492 62.126362 
L 252.952476 68.113134 
L 264.147461 66.117543 
L 275.342445 65.119748 
L 286.537429 63.124157 
L 297.732414 63.124157 
L 308.927398 63.124157 
L 320.122382 64.121953 
L 331.317367 63.124157 
L 342.512351 68.113134 
L 353.707335 67.115339 
L 364.90232 65.119748 
L 376.097304 68.113134 
L 387.292288 68.113134 
L 398.487273 65.119748 
L 398.487273 62.126362 
L 398.487273 62.126362 
L 387.292288 65.119748 
L 376.097304 66.117543 
L 364.90232 63.124157 
L 353.707335 65.119748 
L 342.512351 66.117543 
L 331.317367 61.128567 
L 320.122382 61.128567 
L 308.927398 61.128567 
L 297.732414 61.128567 
L 286.537429 61.128567 
L 275.342445 62.126362 
L 264.147461 64.121953 
L 252.952476 65.119748 
L 241.757492 60.130772 
L 230.562508 59.132976 
L 219.367524 63.124157 
L 208.172539 59.132976 
L 196.977555 60.130772 
L 185.782571 60.130772 
L 174.587586 61.128567 
L 163.392602 65.119748 
L 152.197618 67.115339 
L 141.002633 64.121953 
L 129.807649 66.117543 
L 118.612665 70.108724 
L 107.41768 66.117543 
L 96.222696 67.115339 
L 85.027712 63.124157 
L 73.832727 60.130772 
z
" style="fill:#d62728;"/>
   </g>
   <g id="PolyCollection_25">
    <path clip-path="url(#p4f27fc4bdb)" d="M 73.832727 59.132976 
L 73.832727 60.130772 
L 85.027712 63.124157 
L 96.222696 67.115339 
L 107.41768 66.117543 
L 118.612665 70.108724 
L 129.807649 66.117543 
L 141.002633 64.121953 
L 152.197618 67.115339 
L 163.392602 65.119748 
L 174.587586 61.128567 
L 185.782571 60.130772 
L 196.977555 60.130772 
L 208.172539 59.132976 
L 219.367524 63.124157 
L 230.562508 59.132976 
L 241.757492 60.130772 
L 252.952476 65.119748 
L 264.147461 64.121953 
L 275.342445 62.126362 
L 286.537429 61.128567 
L 297.732414 61.128567 
L 308.927398 61.128567 
L 320.122382 61.128567 
L 331.317367 61.128567 
L 342.512351 66.117543 
L 353.707335 65.119748 
L 364.90232 63.124157 
L 376.097304 66.117543 
L 387.292288 65.119748 
L 398.487273 62.126362 
L 398.487273 59.132976 
L 398.487273 59.132976 
L 387.292288 62.126362 
L 376.097304 61.128567 
L 364.90232 60.130772 
L 353.707335 63.124157 
L 342.512351 64.121953 
L 331.317367 59.132976 
L 320.122382 59.132976 
L 308.927398 59.132976 
L 297.732414 58.135181 
L 286.537429 59.132976 
L 275.342445 60.130772 
L 264.147461 61.128567 
L 252.952476 61.128567 
L 241.757492 57.137386 
L 230.562508 57.137386 
L 219.367524 61.128567 
L 208.172539 56.139591 
L 196.977555 58.135181 
L 185.782571 58.135181 
L 174.587586 58.135181 
L 163.392602 63.124157 
L 152.197618 64.121953 
L 141.002633 60.130772 
L 129.807649 62.126362 
L 118.612665 65.119748 
L 107.41768 62.126362 
L 96.222696 62.126362 
L 85.027712 61.128567 
L 73.832727 59.132976 
z
" style="fill:#9467bd;"/>
   </g>
   <g id="PolyCollection_26">
    <path clip-path="url(#p4f27fc4bdb)" d="M 73.832727 58.135181 
L 73.832727 59.132976 
L 85.027712 61.128567 
L 96.222696 62.126362 
L 107.41768 62.126362 
L 118.612665 65.119748 
L 129.807649 62.126362 
L 141.002633 60.130772 
L 152.197618 64.121953 
L 163.392602 63.124157 
L 174.587586 58.135181 
L 185.782571 58.135181 
L 196.977555 58.135181 
L 208.172539 56.139591 
L 219.367524 61.128567 
L 230.562508 57.137386 
L 241.757492 57.137386 
L 252.952476 61.128567 
L 264.147461 61.128567 
L 275.342445 60.130772 
L 286.537429 59.132976 
L 297.732414 58.135181 
L 308.927398 59.132976 
L 320.122382 59.132976 
L 331.317367 59.132976 
L 342.512351 64.121953 
L 353.707335 63.124157 
L 364.90232 60.130772 
L 376.097304 61.128567 
L 387.292288 62.126362 
L 398.487273 59.132976 
L 398.487273 55.141795 
L 398.487273 55.141795 
L 387.292288 58.135181 
L 376.097304 57.137386 
L 364.90232 58.135181 
L 353.707335 61.128567 
L 342.512351 61.128567 
L 331.317367 57.137386 
L 320.122382 56.139591 
L 308.927398 57.137386 
L 297.732414 55.141795 
L 286.537429 57.137386 
L 275.342445 58.135181 
L 264.147461 59.132976 
L 252.952476 58.135181 
L 241.757492 54.144 
L 230.562508 55.141795 
L 219.367524 59.132976 
L 208.172539 55.141795 
L 196.977555 55.141795 
L 185.782571 55.141795 
L 174.587586 55.141795 
L 163.392602 61.128567 
L 152.197618 61.128567 
L 141.002633 57.137386 
L 129.807649 59.132976 
L 118.612665 61.128567 
L 107.41768 59.132976 
L 96.222696 58.135181 
L 85.027712 55.141795 
L 73.832727 58.135181 
z
" style="fill:#8c564b;"/>
   </g>
   <g id="matplotlib.axis_1">
    <g id="xtick_1">
     <g id="line2d_1">
      <defs>
       <path d="M 0 0 
L 0 3.5 
" id="m5d9521233a" style="stroke:#000000;stroke-width:0.8;"/>
      </defs>
      <g>
       <use style="stroke:#000000;stroke-width:0.8;" x="73.832727" xlink:href="#m5d9521233a" y="307.584"/>
      </g>
     </g>
     <g id="text_1">
      <!-- 0 -->
      <defs>
       <path d="M 31.78125 66.40625 
Q 24.171875 66.40625 20.328125 58.90625 
Q 16.5 51.421875 16.5 36.375 
Q 16.5 21.390625 20.328125 13.890625 
Q 24.171875 6.390625 31.78125 6.390625 
Q 39.453125 6.390625 43.28125 13.890625 
Q 47.125 21.390625 47.125 36.375 
Q 47.125 51.421875 43.28125 58.90625 
Q 39.453125 66.40625 31.78125 66.40625 
z
M 31.78125 74.21875 
Q 44.046875 74.21875 50.515625 64.515625 
Q 56.984375 54.828125 56.984375 36.375 
Q 56.984375 17.96875 50.515625 8.265625 
Q 44.046875 -1.421875 31.78125 -1.421875 
Q 19.53125 -1.421875 13.0625 8.265625 
Q 6.59375 17.96875 6.59375 36.375 
Q 6.59375 54.828125 13.0625 64.515625 
Q 19.53125 74.21875 31.78125 74.21875 
z
" id="DejaVuSans-48"/>
      </defs>
      <g transform="translate(70.651477 322.182437)scale(0.1 -0.1)">
       <use xlink:href="#DejaVuSans-48"/>
      </g>
     </g>
    </g>
    <g id="xtick_2">
     <g id="line2d_2">
      <g>
       <use style="stroke:#000000;stroke-width:0.8;" x="129.807649" xlink:href="#m5d9521233a" y="307.584"/>
      </g>
     </g>
     <g id="text_2">
      <!-- 5 -->
      <defs>
       <path d="M 10.796875 72.90625 
L 49.515625 72.90625 
L 49.515625 64.59375 
L 19.828125 64.59375 
L 19.828125 46.734375 
Q 21.96875 47.46875 24.109375 47.828125 
Q 26.265625 48.1875 28.421875 48.1875 
Q 40.625 48.1875 47.75 41.5 
Q 54.890625 34.8125 54.890625 23.390625 
Q 54.890625 11.625 47.5625 5.09375 
Q 40.234375 -1.421875 26.90625 -1.421875 
Q 22.3125 -1.421875 17.546875 -0.640625 
Q 12.796875 0.140625 7.71875 1.703125 
L 7.71875 11.625 
Q 12.109375 9.234375 16.796875 8.0625 
Q 21.484375 6.890625 26.703125 6.890625 
Q 35.15625 6.890625 40.078125 11.328125 
Q 45.015625 15.765625 45.015625 23.390625 
Q 45.015625 31 40.078125 35.4375 
Q 35.15625 39.890625 26.703125 39.890625 
Q 22.75 39.890625 18.8125 39.015625 
Q 14.890625 38.140625 10.796875 36.28125 
z
" id="DejaVuSans-53"/>
      </defs>
      <g transform="translate(126.626399 322.182437)scale(0.1 -0.1)">
       <use xlink:href="#DejaVuSans-53"/>
      </g>
     </g>
    </g>
    <g id="xtick_3">
     <g id="line2d_3">
      <g>
       <use style="stroke:#000000;stroke-width:0.8;" x="185.782571" xlink:href="#m5d9521233a" y="307.584"/>
      </g>
     </g>
     <g id="text_3">
      <!-- 10 -->
      <defs>
       <path d="M 12.40625 8.296875 
L 28.515625 8.296875 
L 28.515625 63.921875 
L 10.984375 60.40625 
L 10.984375 69.390625 
L 28.421875 72.90625 
L 38.28125 72.90625 
L 38.28125 8.296875 
L 54.390625 8.296875 
L 54.390625 0 
L 12.40625 0 
z
" id="DejaVuSans-49"/>
      </defs>
      <g transform="translate(179.420071 322.182437)scale(0.1 -0.1)">
       <use xlink:href="#DejaVuSans-49"/>
       <use x="63.623047" xlink:href="#DejaVuSans-48"/>
      </g>
     </g>
    </g>
    <g id="xtick_4">
     <g id="line2d_4">
      <g>
       <use style="stroke:#000000;stroke-width:0.8;" x="241.757492" xlink:href="#m5d9521233a" y="307.584"/>
      </g>
     </g>
     <g id="text_4">
      <!-- 15 -->
      <g transform="translate(235.394992 322.182437)scale(0.1 -0.1)">
       <use xlink:href="#DejaVuSans-49"/>
       <use x="63.623047" xlink:href="#DejaVuSans-53"/>
      </g>
     </g>
    </g>
    <g id="xtick_5">
     <g id="line2d_5">
      <g>
       <use style="stroke:#000000;stroke-width:0.8;" x="297.732414" xlink:href="#m5d9521233a" y="307.584"/>
      </g>
     </g>
     <g id="text_5">
      <!-- 20 -->
      <defs>
       <path d="M 19.1875 8.296875 
L 53.609375 8.296875 
L 53.609375 0 
L 7.328125 0 
L 7.328125 8.296875 
Q 12.9375 14.109375 22.625 23.890625 
Q 32.328125 33.6875 34.8125 36.53125 
Q 39.546875 41.84375 41.421875 45.53125 
Q 43.3125 49.21875 43.3125 52.78125 
Q 43.3125 58.59375 39.234375 62.25 
Q 35.15625 65.921875 28.609375 65.921875 
Q 23.96875 65.921875 18.8125 64.3125 
Q 13.671875 62.703125 7.8125 59.421875 
L 7.8125 69.390625 
Q 13.765625 71.78125 18.9375 73 
Q 24.125 74.21875 28.421875 74.21875 
Q 39.75 74.21875 46.484375 68.546875 
Q 53.21875 62.890625 53.21875 53.421875 
Q 53.21875 48.921875 51.53125 44.890625 
Q 49.859375 40.875 45.40625 35.40625 
Q 44.1875 33.984375 37.640625 27.21875 
Q 31.109375 20.453125 19.1875 8.296875 
z
" id="DejaVuSans-50"/>
      </defs>
      <g transform="translate(291.369914 322.182437)scale(0.1 -0.1)">
       <use xlink:href="#DejaVuSans-50"/>
       <use x="63.623047" xlink:href="#DejaVuSans-48"/>
      </g>
     </g>
    </g>
    <g id="xtick_6">
     <g id="line2d_6">
      <g>
       <use style="stroke:#000000;stroke-width:0.8;" x="353.707335" xlink:href="#m5d9521233a" y="307.584"/>
      </g>
     </g>
     <g id="text_6">
      <!-- 25 -->
      <g transform="translate(347.344835 322.182437)scale(0.1 -0.1)">
       <use xlink:href="#DejaVuSans-50"/>
       <use x="63.623047" xlink:href="#DejaVuSans-53"/>
      </g>
     </g>
    </g>
    <g id="xtick_7">
     <g id="line2d_7">
      <g>
       <use style="stroke:#000000;stroke-width:0.8;" x="409.682257" xlink:href="#m5d9521233a" y="307.584"/>
      </g>
     </g>
     <g id="text_7">
      <!-- 30 -->
      <defs>
       <path d="M 40.578125 39.3125 
Q 47.65625 37.796875 51.625 33 
Q 55.609375 28.21875 55.609375 21.1875 
Q 55.609375 10.40625 48.1875 4.484375 
Q 40.765625 -1.421875 27.09375 -1.421875 
Q 22.515625 -1.421875 17.65625 -0.515625 
Q 12.796875 0.390625 7.625 2.203125 
L 7.625 11.71875 
Q 11.71875 9.328125 16.59375 8.109375 
Q 21.484375 6.890625 26.8125 6.890625 
Q 36.078125 6.890625 40.9375 10.546875 
Q 45.796875 14.203125 45.796875 21.1875 
Q 45.796875 27.640625 41.28125 31.265625 
Q 36.765625 34.90625 28.71875 34.90625 
L 20.21875 34.90625 
L 20.21875 43.015625 
L 29.109375 43.015625 
Q 36.375 43.015625 40.234375 45.921875 
Q 44.09375 48.828125 44.09375 54.296875 
Q 44.09375 59.90625 40.109375 62.90625 
Q 36.140625 65.921875 28.71875 65.921875 
Q 24.65625 65.921875 20.015625 65.03125 
Q 15.375 64.15625 9.8125 62.3125 
L 9.8125 71.09375 
Q 15.4375 72.65625 20.34375 73.4375 
Q 25.25 74.21875 29.59375 74.21875 
Q 40.828125 74.21875 47.359375 69.109375 
Q 53.90625 64.015625 53.90625 55.328125 
Q 53.90625 49.265625 50.4375 45.09375 
Q 46.96875 40.921875 40.578125 39.3125 
z
" id="DejaVuSans-51"/>
      </defs>
      <g transform="translate(403.319757 322.182437)scale(0.1 -0.1)">
       <use xlink:href="#DejaVuSans-51"/>
       <use x="63.623047" xlink:href="#DejaVuSans-48"/>
      </g>
     </g>
    </g>
    <g id="text_8">
     <!-- Generations -->
     <defs>
      <path d="M 59.515625 10.40625 
L 59.515625 29.984375 
L 43.40625 29.984375 
L 43.40625 38.09375 
L 69.28125 38.09375 
L 69.28125 6.78125 
Q 63.578125 2.734375 56.6875 0.65625 
Q 49.8125 -1.421875 42 -1.421875 
Q 24.90625 -1.421875 15.25 8.5625 
Q 5.609375 18.5625 5.609375 36.375 
Q 5.609375 54.25 15.25 64.234375 
Q 24.90625 74.21875 42 74.21875 
Q 49.125 74.21875 55.546875 72.453125 
Q 61.96875 70.703125 67.390625 67.28125 
L 67.390625 56.78125 
Q 61.921875 61.421875 55.765625 63.765625 
Q 49.609375 66.109375 42.828125 66.109375 
Q 29.4375 66.109375 22.71875 58.640625 
Q 16.015625 51.171875 16.015625 36.375 
Q 16.015625 21.625 22.71875 14.15625 
Q 29.4375 6.6875 42.828125 6.6875 
Q 48.046875 6.6875 52.140625 7.59375 
Q 56.25 8.5 59.515625 10.40625 
z
" id="DejaVuSans-71"/>
      <path d="M 56.203125 29.59375 
L 56.203125 25.203125 
L 14.890625 25.203125 
Q 15.484375 15.921875 20.484375 11.0625 
Q 25.484375 6.203125 34.421875 6.203125 
Q 39.59375 6.203125 44.453125 7.46875 
Q 49.3125 8.734375 54.109375 11.28125 
L 54.109375 2.78125 
Q 49.265625 0.734375 44.1875 -0.34375 
Q 39.109375 -1.421875 33.890625 -1.421875 
Q 20.796875 -1.421875 13.15625 6.1875 
Q 5.515625 13.8125 5.515625 26.8125 
Q 5.515625 40.234375 12.765625 48.109375 
Q 20.015625 56 32.328125 56 
Q 43.359375 56 49.78125 48.890625 
Q 56.203125 41.796875 56.203125 29.59375 
z
M 47.21875 32.234375 
Q 47.125 39.59375 43.09375 43.984375 
Q 39.0625 48.390625 32.421875 48.390625 
Q 24.90625 48.390625 20.390625 44.140625 
Q 15.875 39.890625 15.1875 32.171875 
z
" id="DejaVuSans-101"/>
      <path d="M 54.890625 33.015625 
L 54.890625 0 
L 45.90625 0 
L 45.90625 32.71875 
Q 45.90625 40.484375 42.875 44.328125 
Q 39.84375 48.1875 33.796875 48.1875 
Q 26.515625 48.1875 22.3125 43.546875 
Q 18.109375 38.921875 18.109375 30.90625 
L 18.109375 0 
L 9.078125 0 
L 9.078125 54.6875 
L 18.109375 54.6875 
L 18.109375 46.1875 
Q 21.34375 51.125 25.703125 53.5625 
Q 30.078125 56 35.796875 56 
Q 45.21875 56 50.046875 50.171875 
Q 54.890625 44.34375 54.890625 33.015625 
z
" id="DejaVuSans-110"/>
      <path d="M 41.109375 46.296875 
Q 39.59375 47.171875 37.8125 47.578125 
Q 36.03125 48 33.890625 48 
Q 26.265625 48 22.1875 43.046875 
Q 18.109375 38.09375 18.109375 28.8125 
L 18.109375 0 
L 9.078125 0 
L 9.078125 54.6875 
L 18.109375 54.6875 
L 18.109375 46.1875 
Q 20.953125 51.171875 25.484375 53.578125 
Q 30.03125 56 36.53125 56 
Q 37.453125 56 38.578125 55.875 
Q 39.703125 55.765625 41.0625 55.515625 
z
" id="DejaVuSans-114"/>
      <path d="M 34.28125 27.484375 
Q 23.390625 27.484375 19.1875 25 
Q 14.984375 22.515625 14.984375 16.5 
Q 14.984375 11.71875 18.140625 8.90625 
Q 21.296875 6.109375 26.703125 6.109375 
Q 34.1875 6.109375 38.703125 11.40625 
Q 43.21875 16.703125 43.21875 25.484375 
L 43.21875 27.484375 
z
M 52.203125 31.203125 
L 52.203125 0 
L 43.21875 0 
L 43.21875 8.296875 
Q 40.140625 3.328125 35.546875 0.953125 
Q 30.953125 -1.421875 24.3125 -1.421875 
Q 15.921875 -1.421875 10.953125 3.296875 
Q 6 8.015625 6 15.921875 
Q 6 25.140625 12.171875 29.828125 
Q 18.359375 34.515625 30.609375 34.515625 
L 43.21875 34.515625 
L 43.21875 35.40625 
Q 43.21875 41.609375 39.140625 45 
Q 35.0625 48.390625 27.6875 48.390625 
Q 23 48.390625 18.546875 47.265625 
Q 14.109375 46.140625 10.015625 43.890625 
L 10.015625 52.203125 
Q 14.9375 54.109375 19.578125 55.046875 
Q 24.21875 56 28.609375 56 
Q 40.484375 56 46.34375 49.84375 
Q 52.203125 43.703125 52.203125 31.203125 
z
" id="DejaVuSans-97"/>
      <path d="M 18.3125 70.21875 
L 18.3125 54.6875 
L 36.8125 54.6875 
L 36.8125 47.703125 
L 18.3125 47.703125 
L 18.3125 18.015625 
Q 18.3125 11.328125 20.140625 9.421875 
Q 21.96875 7.515625 27.59375 7.515625 
L 36.8125 7.515625 
L 36.8125 0 
L 27.59375 0 
Q 17.1875 0 13.234375 3.875 
Q 9.28125 7.765625 9.28125 18.015625 
L 9.28125 47.703125 
L 2.6875 47.703125 
L 2.6875 54.6875 
L 9.28125 54.6875 
L 9.28125 70.21875 
z
" id="DejaVuSans-116"/>
      <path d="M 9.421875 54.6875 
L 18.40625 54.6875 
L 18.40625 0 
L 9.421875 0 
z
M 9.421875 75.984375 
L 18.40625 75.984375 
L 18.40625 64.59375 
L 9.421875 64.59375 
z
" id="DejaVuSans-105"/>
      <path d="M 30.609375 48.390625 
Q 23.390625 48.390625 19.1875 42.75 
Q 14.984375 37.109375 14.984375 27.296875 
Q 14.984375 17.484375 19.15625 11.84375 
Q 23.34375 6.203125 30.609375 6.203125 
Q 37.796875 6.203125 41.984375 11.859375 
Q 46.1875 17.53125 46.1875 27.296875 
Q 46.1875 37.015625 41.984375 42.703125 
Q 37.796875 48.390625 30.609375 48.390625 
z
M 30.609375 56 
Q 42.328125 56 49.015625 48.375 
Q 55.71875 40.765625 55.71875 27.296875 
Q 55.71875 13.875 49.015625 6.21875 
Q 42.328125 -1.421875 30.609375 -1.421875 
Q 18.84375 -1.421875 12.171875 6.21875 
Q 5.515625 13.875 5.515625 27.296875 
Q 5.515625 40.765625 12.171875 48.375 
Q 18.84375 56 30.609375 56 
z
" id="DejaVuSans-111"/>
      <path d="M 44.28125 53.078125 
L 44.28125 44.578125 
Q 40.484375 46.53125 36.375 47.5 
Q 32.28125 48.484375 27.875 48.484375 
Q 21.1875 48.484375 17.84375 46.4375 
Q 14.5 44.390625 14.5 40.28125 
Q 14.5 37.15625 16.890625 35.375 
Q 19.28125 33.59375 26.515625 31.984375 
L 29.59375 31.296875 
Q 39.15625 29.25 43.1875 25.515625 
Q 47.21875 21.78125 47.21875 15.09375 
Q 47.21875 7.46875 41.1875 3.015625 
Q 35.15625 -1.421875 24.609375 -1.421875 
Q 20.21875 -1.421875 15.453125 -0.5625 
Q 10.6875 0.296875 5.421875 2 
L 5.421875 11.28125 
Q 10.40625 8.6875 15.234375 7.390625 
Q 20.0625 6.109375 24.8125 6.109375 
Q 31.15625 6.109375 34.5625 8.28125 
Q 37.984375 10.453125 37.984375 14.40625 
Q 37.984375 18.0625 35.515625 20.015625 
Q 33.0625 21.96875 24.703125 23.78125 
L 21.578125 24.515625 
Q 13.234375 26.265625 9.515625 29.90625 
Q 5.8125 33.546875 5.8125 39.890625 
Q 5.8125 47.609375 11.28125 51.796875 
Q 16.75 56 26.8125 56 
Q 31.78125 56 36.171875 55.265625 
Q 40.578125 54.546875 44.28125 53.078125 
z
" id="DejaVuSans-115"/>
     </defs>
     <g transform="translate(205.662344 335.860562)scale(0.1 -0.1)">
      <use xlink:href="#DejaVuSans-71"/>
      <use x="77.490234" xlink:href="#DejaVuSans-101"/>
      <use x="139.013672" xlink:href="#DejaVuSans-110"/>
      <use x="202.392578" xlink:href="#DejaVuSans-101"/>
      <use x="263.916016" xlink:href="#DejaVuSans-114"/>
      <use x="305.029297" xlink:href="#DejaVuSans-97"/>
      <use x="366.308594" xlink:href="#DejaVuSans-116"/>
      <use x="405.517578" xlink:href="#DejaVuSans-105"/>
      <use x="433.300781" xlink:href="#DejaVuSans-111"/>
      <use x="494.482422" xlink:href="#DejaVuSans-110"/>
      <use x="557.861328" xlink:href="#DejaVuSans-115"/>
     </g>
    </g>
   </g>
   <g id="matplotlib.axis_2">
    <g id="ytick_1">
     <g id="line2d_8">
      <defs>
       <path d="M 0 0 
L -3.5 0 
" id="m601ff5e558" style="stroke:#000000;stroke-width:0.8;"/>
      </defs>
      <g>
       <use style="stroke:#000000;stroke-width:0.8;" x="57.6" xlink:href="#m601ff5e558" y="307.584"/>
      </g>
     </g>
     <g id="text_9">
      <!-- 0 -->
      <g transform="translate(44.2375 311.383219)scale(0.1 -0.1)">
       <use xlink:href="#DejaVuSans-48"/>
      </g>
     </g>
    </g>
    <g id="ytick_2">
     <g id="line2d_9">
      <g>
       <use style="stroke:#000000;stroke-width:0.8;" x="57.6" xlink:href="#m601ff5e558" y="257.694236"/>
      </g>
     </g>
     <g id="text_10">
      <!-- 50 -->
      <g transform="translate(37.875 261.493455)scale(0.1 -0.1)">
       <use xlink:href="#DejaVuSans-53"/>
       <use x="63.623047" xlink:href="#DejaVuSans-48"/>
      </g>
     </g>
    </g>
    <g id="ytick_3">
     <g id="line2d_10">
      <g>
       <use style="stroke:#000000;stroke-width:0.8;" x="57.6" xlink:href="#m601ff5e558" y="207.804472"/>
      </g>
     </g>
     <g id="text_11">
      <!-- 100 -->
      <g transform="translate(31.5125 211.603691)scale(0.1 -0.1)">
       <use xlink:href="#DejaVuSans-49"/>
       <use x="63.623047" xlink:href="#DejaVuSans-48"/>
       <use x="127.246094" xlink:href="#DejaVuSans-48"/>
      </g>
     </g>
    </g>
    <g id="ytick_4">
     <g id="line2d_11">
      <g>
       <use style="stroke:#000000;stroke-width:0.8;" x="57.6" xlink:href="#m601ff5e558" y="157.914709"/>
      </g>
     </g>
     <g id="text_12">
      <!-- 150 -->
      <g transform="translate(31.5125 161.713927)scale(0.1 -0.1)">
       <use xlink:href="#DejaVuSans-49"/>
       <use x="63.623047" xlink:href="#DejaVuSans-53"/>
       <use x="127.246094" xlink:href="#DejaVuSans-48"/>
      </g>
     </g>
    </g>
    <g id="ytick_5">
     <g id="line2d_12">
      <g>
       <use style="stroke:#000000;stroke-width:0.8;" x="57.6" xlink:href="#m601ff5e558" y="108.024945"/>
      </g>
     </g>
     <g id="text_13">
      <!-- 200 -->
      <g transform="translate(31.5125 111.824164)scale(0.1 -0.1)">
       <use xlink:href="#DejaVuSans-50"/>
       <use x="63.623047" xlink:href="#DejaVuSans-48"/>
       <use x="127.246094" xlink:href="#DejaVuSans-48"/>
      </g>
     </g>
    </g>
    <g id="ytick_6">
     <g id="line2d_13">
      <g>
       <use style="stroke:#000000;stroke-width:0.8;" x="57.6" xlink:href="#m601ff5e558" y="58.135181"/>
      </g>
     </g>
     <g id="text_14">
      <!-- 250 -->
      <g transform="translate(31.5125 61.9344)scale(0.1 -0.1)">
       <use xlink:href="#DejaVuSans-50"/>
       <use x="63.623047" xlink:href="#DejaVuSans-53"/>
       <use x="127.246094" xlink:href="#DejaVuSans-48"/>
      </g>
     </g>
    </g>
    <g id="text_15">
     <!-- Size per Species -->
     <defs>
      <path d="M 53.515625 70.515625 
L 53.515625 60.890625 
Q 47.90625 63.578125 42.921875 64.890625 
Q 37.9375 66.21875 33.296875 66.21875 
Q 25.25 66.21875 20.875 63.09375 
Q 16.5 59.96875 16.5 54.203125 
Q 16.5 49.359375 19.40625 46.890625 
Q 22.3125 44.4375 30.421875 42.921875 
L 36.375 41.703125 
Q 47.40625 39.59375 52.65625 34.296875 
Q 57.90625 29 57.90625 20.125 
Q 57.90625 9.515625 50.796875 4.046875 
Q 43.703125 -1.421875 29.984375 -1.421875 
Q 24.8125 -1.421875 18.96875 -0.25 
Q 13.140625 0.921875 6.890625 3.21875 
L 6.890625 13.375 
Q 12.890625 10.015625 18.65625 8.296875 
Q 24.421875 6.59375 29.984375 6.59375 
Q 38.421875 6.59375 43.015625 9.90625 
Q 47.609375 13.234375 47.609375 19.390625 
Q 47.609375 24.75 44.3125 27.78125 
Q 41.015625 30.8125 33.5 32.328125 
L 27.484375 33.5 
Q 16.453125 35.6875 11.515625 40.375 
Q 6.59375 45.0625 6.59375 53.421875 
Q 6.59375 63.09375 13.40625 68.65625 
Q 20.21875 74.21875 32.171875 74.21875 
Q 37.3125 74.21875 42.625 73.28125 
Q 47.953125 72.359375 53.515625 70.515625 
z
" id="DejaVuSans-83"/>
      <path d="M 5.515625 54.6875 
L 48.1875 54.6875 
L 48.1875 46.484375 
L 14.40625 7.171875 
L 48.1875 7.171875 
L 48.1875 0 
L 4.296875 0 
L 4.296875 8.203125 
L 38.09375 47.515625 
L 5.515625 47.515625 
z
" id="DejaVuSans-122"/>
      <path id="DejaVuSans-32"/>
      <path d="M 18.109375 8.203125 
L 18.109375 -20.796875 
L 9.078125 -20.796875 
L 9.078125 54.6875 
L 18.109375 54.6875 
L 18.109375 46.390625 
Q 20.953125 51.265625 25.265625 53.625 
Q 29.59375 56 35.59375 56 
Q 45.5625 56 51.78125 48.09375 
Q 58.015625 40.1875 58.015625 27.296875 
Q 58.015625 14.40625 51.78125 6.484375 
Q 45.5625 -1.421875 35.59375 -1.421875 
Q 29.59375 -1.421875 25.265625 0.953125 
Q 20.953125 3.328125 18.109375 8.203125 
z
M 48.6875 27.296875 
Q 48.6875 37.203125 44.609375 42.84375 
Q 40.53125 48.484375 33.40625 48.484375 
Q 26.265625 48.484375 22.1875 42.84375 
Q 18.109375 37.203125 18.109375 27.296875 
Q 18.109375 17.390625 22.1875 11.75 
Q 26.265625 6.109375 33.40625 6.109375 
Q 40.53125 6.109375 44.609375 11.75 
Q 48.6875 17.390625 48.6875 27.296875 
z
" id="DejaVuSans-112"/>
      <path d="M 48.78125 52.59375 
L 48.78125 44.1875 
Q 44.96875 46.296875 41.140625 47.34375 
Q 37.3125 48.390625 33.40625 48.390625 
Q 24.65625 48.390625 19.8125 42.84375 
Q 14.984375 37.3125 14.984375 27.296875 
Q 14.984375 17.28125 19.8125 11.734375 
Q 24.65625 6.203125 33.40625 6.203125 
Q 37.3125 6.203125 41.140625 7.25 
Q 44.96875 8.296875 48.78125 10.40625 
L 48.78125 2.09375 
Q 45.015625 0.34375 40.984375 -0.53125 
Q 36.96875 -1.421875 32.421875 -1.421875 
Q 20.0625 -1.421875 12.78125 6.34375 
Q 5.515625 14.109375 5.515625 27.296875 
Q 5.515625 40.671875 12.859375 48.328125 
Q 20.21875 56 33.015625 56 
Q 37.15625 56 41.109375 55.140625 
Q 45.0625 54.296875 48.78125 52.59375 
z
" id="DejaVuSans-99"/>
     </defs>
     <g transform="translate(25.432812 215.520969)rotate(-90)scale(0.1 -0.1)">
      <use xlink:href="#DejaVuSans-83"/>
      <use x="63.476562" xlink:href="#DejaVuSans-105"/>
      <use x="91.259766" xlink:href="#DejaVuSans-122"/>
      <use x="143.75" xlink:href="#DejaVuSans-101"/>
      <use x="205.273438" xlink:href="#DejaVuSans-32"/>
      <use x="237.060547" xlink:href="#DejaVuSans-112"/>
      <use x="300.537109" xlink:href="#DejaVuSans-101"/>
      <use x="362.060547" xlink:href="#DejaVuSans-114"/>
      <use x="403.173828" xlink:href="#DejaVuSans-32"/>
      <use x="434.960938" xlink:href="#DejaVuSans-83"/>
      <use x="498.4375" xlink:href="#DejaVuSans-112"/>
      <use x="561.914062" xlink:href="#DejaVuSans-101"/>
      <use x="623.4375" xlink:href="#DejaVuSans-99"/>
      <use x="678.417969" xlink:href="#DejaVuSans-105"/>
      <use x="706.201172" xlink:href="#DejaVuSans-101"/>
      <use x="767.724609" xlink:href="#DejaVuSans-115"/>
     </g>
    </g>
   </g>
   <g id="patch_3">
    <path d="M 57.6 307.584 
L 57.6 41.472 
" style="fill:none;stroke:#000000;stroke-linecap:square;stroke-linejoin:miter;stroke-width:0.8;"/>
   </g>
   <g id="patch_4">
    <path d="M 414.72 307.584 
L 414.72 41.472 
" style="fill:none;stroke:#000000;stroke-linecap:square;stroke-linejoin:miter;stroke-width:0.8;"/>
   </g>
   <g id="patch_5">
    <path d="M 57.6 307.584 
L 414.72 307.584 
" style="fill:none;stroke:#000000;stroke-linecap:square;stroke-linejoin:miter;stroke-width:0.8;"/>
   </g>
   <g id="patch_6">
    <path d="M 57.6 41.472 
L 414.72 41.472 
" style="fill:none;stroke:#000000;stroke-linecap:square;stroke-linejoin:miter;stroke-width:0.8;"/>
   </g>
   <g id="text_16">
    <!-- Speciation -->
    <g transform="translate(204.714375 35.472)scale(0.12 -0.12)">
     <use xlink:href="#DejaVuSans-83"/>
     <use x="63.476562" xlink:href="#DejaVuSans-112"/>
     <use x="126.953125" xlink:href="#DejaVuSans-101"/>
     <use x="188.476562" xlink:href="#DejaVuSans-99"/>
     <use x="243.457031" xlink:href="#DejaVuSans-105"/>
     <use x="271.240234" xlink:href="#DejaVuSans-97"/>
     <use x="332.519531" xlink:href="#DejaVuSans-116"/>
     <use x="371.728516" xlink:href="#DejaVuSans-105"/>
     <use x="399.511719" xlink:href="#DejaVuSans-111"/>
     <use x="460.693359" xlink:href="#DejaVuSans-110"/>
    </g>
   </g>
  </g>
 </g>
 <defs>
  <clipPath id="p4f27fc4bdb">
   <rect height="266.112" width="357.12" x="57.6" y="41.472"/>
  </clipPath>
 </defs>
</svg>
