<?xml version="1.0" encoding="UTF-8" standalone="no"?>
<!DOCTYPE svg PUBLIC "-//W3C//DTD SVG 1.1//EN"
 "http://www.w3.org/Graphics/SVG/1.1/DTD/svg11.dtd">
<!-- Generated by graphviz version 2.38.0 (20140413.2041)
 -->
<!-- Title: %3 Pages: 1 -->
<svg width="182pt" height="121pt"
 viewBox="0.00 0.00 181.50 121.40" xmlns="http://www.w3.org/2000/svg" xmlns:xlink="http://www.w3.org/1999/xlink">
<g id="graph0" class="graph" transform="scale(1 1) rotate(0) translate(4 117.397)">
<title>%3</title>
<polygon fill="white" stroke="none" points="-4,4 -4,-117.397 177.5,-117.397 177.5,4 -4,4"/>
<!-- x -->
<g id="node1" class="node"><title>x</title>
<polygon fill="lightgray" stroke="black" points="20,-113.397 0,-113.397 0,-95.397 20,-95.397 20,-113.397"/>
<text text-anchor="middle" x="10" y="-102.197" font-family="Times New Roman,serif" font-size="9.00">x</text>
</g>
<!-- control -->
<g id="node5" class="node"><title>control</title>
<ellipse fill="lightblue" stroke="black" cx="56" cy="-29.6985" rx="29.8983" ry="29.8983"/>
<text text-anchor="middle" x="56" y="-27.4985" font-family="Times New Roman,serif" font-size="9.00">control</text>
</g>
<!-- x&#45;&gt;control -->
<g id="edge1" class="edge"><title>x&#45;&gt;control</title>
<path fill="none" stroke="green" stroke-width="0.249655" d="M15.0986,-95.3392C19.9451,-87.6798 27.5669,-75.6342 34.9242,-64.0067"/>
<polygon fill="green" stroke="green" stroke-width="0.249655" points="38.0592,-65.5979 40.4485,-55.276 32.1438,-61.855 38.0592,-65.5979"/>
</g>
<!-- dx -->
<g id="node2" class="node"><title>dx</title>
<polygon fill="lightgray" stroke="black" points="173.5,-113.397 148.5,-113.397 148.5,-95.397 173.5,-95.397 173.5,-113.397"/>
<text text-anchor="middle" x="161" y="-102.197" font-family="Times New Roman,serif" font-size="9.00">dx</text>
</g>
<!-- theta -->
<g id="node3" class="node"><title>theta</title>
<polygon fill="lightgray" stroke="black" points="73.5,-113.397 38.5,-113.397 38.5,-95.397 73.5,-95.397 73.5,-113.397"/>
<text text-anchor="middle" x="56" y="-102.197" font-family="Times New Roman,serif" font-size="9.00">theta</text>
</g>
<!-- theta&#45;&gt;control -->
<g id="edge2" class="edge"><title>theta&#45;&gt;control</title>
<path fill="none" stroke="green" stroke-width="0.857978" d="M56,-95.3392C56,-88.9188 56,-79.4165 56,-69.6619"/>
<polygon fill="green" stroke="green" stroke-width="0.857978" points="59.5001,-69.5238 56,-59.5238 52.5001,-69.5239 59.5001,-69.5238"/>
</g>
<!-- dtheta -->
<g id="node4" class="node"><title>dtheta</title>
<polygon fill="lightgray" stroke="black" points="130.5,-113.397 91.5,-113.397 91.5,-95.397 130.5,-95.397 130.5,-113.397"/>
<text text-anchor="middle" x="111" y="-102.197" font-family="Times New Roman,serif" font-size="9.00">dtheta</text>
</g>
<!-- dtheta&#45;&gt;control -->
<g id="edge3" class="edge"><title>dtheta&#45;&gt;control</title>
<path fill="none" stroke="green" stroke-width="0.114198" d="M104.904,-95.3392C98.8137,-87.2893 89.0583,-74.3947 79.8568,-62.2322"/>
<polygon fill="green" stroke="green" stroke-width="0.114198" points="82.4515,-59.8608 73.6269,-53.9976 76.8691,-64.0842 82.4515,-59.8608"/>
</g>
</g>
</svg>
