<?xml version="1.0" encoding="UTF-8" standalone="no"?>
<!DOCTYPE svg PUBLIC "-//W3C//DTD SVG 1.1//EN"
 "http://www.w3.org/Graphics/SVG/1.1/DTD/svg11.dtd">
<!-- Generated by graphviz version 2.38.0 (20140413.2041)
 -->
<!-- Title: %3 Pages: 1 -->
<svg width="139pt" height="301pt"
 viewBox="0.00 0.00 139.25 300.88" xmlns="http://www.w3.org/2000/svg" xmlns:xlink="http://www.w3.org/1999/xlink">
<g id="graph0" class="graph" transform="scale(1 1) rotate(0) translate(4 296.877)">
<title>%3</title>
<polygon fill="white" stroke="none" points="-4,4 -4,-296.877 135.249,-296.877 135.249,4 -4,4"/>
<!-- A -->
<g id="node1" class="node"><title>A</title>
<polygon fill="lightgray" stroke="black" points="62.2487,-292.877 39.2487,-292.877 39.2487,-274.877 62.2487,-274.877 62.2487,-292.877"/>
<text text-anchor="middle" x="50.7487" y="-281.677" font-family="Times New Roman,serif" font-size="9.00">A</text>
</g>
<!-- 1267 -->
<g id="node4" class="node"><title>1267</title>
<ellipse fill="white" stroke="black" cx="24.7487" cy="-214.128" rx="25" ry="25"/>
<text text-anchor="middle" x="24.7487" y="-211.928" font-family="Times New Roman,serif" font-size="9.00">1267</text>
</g>
<!-- A&#45;&gt;1267 -->
<g id="edge5" class="edge"><title>A&#45;&gt;1267</title>
<path fill="none" stroke="green" stroke-width="0.383752" d="M47.6641,-274.839C44.9658,-267.809 40.8644,-257.121 36.8735,-246.722"/>
<polygon fill="green" stroke="green" stroke-width="0.383752" points="40.1335,-245.448 33.2829,-237.366 33.5983,-247.956 40.1335,-245.448"/>
</g>
<!-- 197 -->
<g id="node5" class="node"><title>197</title>
<ellipse fill="white" stroke="black" cx="73.7487" cy="-132.167" rx="21.4286" ry="21.4286"/>
<text text-anchor="middle" x="73.7487" y="-129.967" font-family="Times New Roman,serif" font-size="9.00">197</text>
</g>
<!-- A&#45;&gt;197 -->
<g id="edge1" class="edge"><title>A&#45;&gt;197</title>
<path fill="none" stroke="green" stroke-width="0.184881" d="M52.3178,-274.784C54.0038,-265.969 56.715,-251.447 58.7487,-238.877 62.8517,-213.518 66.9083,-184.636 69.7663,-163.476"/>
<polygon fill="green" stroke="green" stroke-width="0.184881" points="73.2483,-163.844 71.1067,-153.467 66.3102,-162.914 73.2483,-163.844"/>
</g>
<!-- B -->
<g id="node2" class="node"><title>B</title>
<polygon fill="lightgray" stroke="black" points="131.249,-223.128 108.249,-223.128 108.249,-205.128 131.249,-205.128 131.249,-223.128"/>
<text text-anchor="middle" x="119.749" y="-211.928" font-family="Times New Roman,serif" font-size="9.00">B</text>
</g>
<!-- A XOR B -->
<g id="node3" class="node"><title>A XOR B</title>
<ellipse fill="lightblue" stroke="black" cx="73.7487" cy="-37.4767" rx="37.4533" ry="37.4533"/>
<text text-anchor="middle" x="73.7487" y="-35.2767" font-family="Times New Roman,serif" font-size="9.00">A XOR B</text>
</g>
<!-- B&#45;&gt;A XOR B -->
<g id="edge4" class="edge"><title>B&#45;&gt;A XOR B</title>
<path fill="none" stroke="green" stroke-width="0.351948" d="M119.138,-205.041C117.677,-187.584 113.365,-145.179 103.749,-110.953 100.986,-101.12 97.2674,-90.8283 93.3897,-81.19"/>
<polygon fill="green" stroke="green" stroke-width="0.351948" points="96.5607,-79.6999 89.4887,-71.8108 90.0974,-82.3881 96.5607,-79.6999"/>
</g>
<!-- B&#45;&gt;197 -->
<g id="edge3" class="edge"><title>B&#45;&gt;197</title>
<path fill="none" stroke="red" stroke-width="1.17237" d="M114.999,-204.872C108.935,-194.332 98.1485,-175.581 89.126,-159.897"/>
<polygon fill="red" stroke="red" stroke-width="1.17237" points="92.087,-158.025 84.0667,-151.102 86.0194,-161.516 92.087,-158.025"/>
</g>
<!-- 1267&#45;&gt;A XOR B -->
<g id="edge7" class="edge"><title>1267&#45;&gt;A XOR B</title>
<path fill="none" stroke="red" stroke-width="0.347383" d="M27.7493,-189.26C30.7181,-168.338 35.955,-137.248 43.7487,-110.953 46.6513,-101.161 50.428,-90.8854 54.3176,-81.2506"/>
<polygon fill="red" stroke="red" stroke-width="0.347383" points="57.6101,-82.4482 58.2166,-71.8708 51.1463,-79.7613 57.6101,-82.4482"/>
</g>
<!-- 1267&#45;&gt;197 -->
<g id="edge6" class="edge"><title>1267&#45;&gt;197</title>
<path fill="none" stroke="green" stroke-width="0.385363" d="M37.3675,-192.536C43.5704,-182.414 51.1139,-170.104 57.7203,-159.323"/>
<polygon fill="green" stroke="green" stroke-width="0.385363" points="60.7585,-161.064 62.9993,-150.708 54.79,-157.406 60.7585,-161.064"/>
</g>
<!-- 197&#45;&gt;A XOR B -->
<g id="edge2" class="edge"><title>197&#45;&gt;A XOR B</title>
<path fill="none" stroke="green" stroke-width="0.965494" d="M73.7487,-110.596C73.7487,-103 73.7487,-94.0512 73.7487,-85.0886"/>
<polygon fill="green" stroke="green" stroke-width="0.965494" points="77.2488,-85.0353 73.7487,-75.0353 70.2488,-85.0353 77.2488,-85.0353"/>
</g>
</g>
</svg>
