<?xml version="1.0" encoding="utf-8" standalone="no"?>
<!DOCTYPE svg PUBLIC "-//W3C//DTD SVG 1.1//EN"
  "http://www.w3.org/Graphics/SVG/1.1/DTD/svg11.dtd">
<!-- Created with matplotlib (https://matplotlib.org/) -->
<svg height="345.6pt" version="1.1" viewBox="0 0 460.8 345.6" width="460.8pt" xmlns="http://www.w3.org/2000/svg" xmlns:xlink="http://www.w3.org/1999/xlink">
 <defs>
  <style type="text/css">
*{stroke-linecap:butt;stroke-linejoin:round;}
  </style>
 </defs>
 <g id="figure_1">
  <g id="patch_1">
   <path d="M 0 345.6 
L 460.8 345.6 
L 460.8 0 
L 0 0 
z
" style="fill:#ffffff;"/>
  </g>
  <g id="axes_1">
   <g id="patch_2">
    <path d="M 57.6 307.584 
L 414.72 307.584 
L 414.72 41.472 
L 57.6 41.472 
z
" style="fill:#ffffff;"/>
   </g>
   <g id="PolyCollection_1">
    <path clip-path="url(#pc3a8d434f1)" d="M 73.832727 280.537043 
L 73.832727 307.584 
L 82.376268 307.584 
L 90.919809 307.584 
L 99.463349 307.584 
L 108.00689 307.584 
L 116.550431 307.584 
L 125.093971 307.584 
L 133.637512 307.584 
L 142.181053 307.584 
L 150.724593 307.584 
L 159.268134 307.584 
L 167.811675 307.584 
L 176.355215 307.584 
L 184.898756 307.584 
L 193.442297 307.584 
L 201.985837 307.584 
L 210.529378 307.584 
L 219.072919 307.584 
L 227.616459 307.584 
L 236.16 307.584 
L 244.703541 307.584 
L 253.247081 307.584 
L 261.790622 307.584 
L 270.334163 307.584 
L 278.877703 307.584 
L 287.421244 307.584 
L 295.964785 307.584 
L 304.508325 307.584 
L 313.051866 307.584 
L 321.595407 307.584 
L 330.138947 307.584 
L 338.682488 307.584 
L 347.226029 307.584 
L 355.769569 307.584 
L 364.31311 307.584 
L 372.856651 307.584 
L 381.400191 307.584 
L 389.943732 307.584 
L 398.487273 307.584 
L 398.487273 307.584 
L 398.487273 307.584 
L 389.943732 307.584 
L 381.400191 307.584 
L 372.856651 307.584 
L 364.31311 307.584 
L 355.769569 307.584 
L 347.226029 307.584 
L 338.682488 307.584 
L 330.138947 307.584 
L 321.595407 307.584 
L 313.051866 297.566609 
L 304.508325 299.570087 
L 295.964785 298.568348 
L 287.421244 297.566609 
L 278.877703 285.545739 
L 270.334163 300.571826 
L 261.790622 301.573565 
L 253.247081 302.575304 
L 244.703541 292.557913 
L 236.16 288.550957 
L 227.616459 288.550957 
L 219.072919 289.552696 
L 210.529378 286.547478 
L 201.985837 289.552696 
L 193.442297 289.552696 
L 184.898756 288.550957 
L 176.355215 289.552696 
L 167.811675 288.550957 
L 159.268134 295.56313 
L 150.724593 289.552696 
L 142.181053 292.557913 
L 133.637512 300.571826 
L 125.093971 300.571826 
L 116.550431 282.540522 
L 108.00689 238.464 
L 99.463349 263.507478 
L 90.919809 291.556174 
L 82.376268 268.516174 
L 73.832727 280.537043 
z
" style="fill:#1f77b4;"/>
   </g>
   <g id="PolyCollection_2">
    <path clip-path="url(#pc3a8d434f1)" d="M 73.832727 234.457043 
L 73.832727 280.537043 
L 82.376268 268.516174 
L 90.919809 291.556174 
L 99.463349 263.507478 
L 108.00689 238.464 
L 116.550431 282.540522 
L 125.093971 300.571826 
L 133.637512 300.571826 
L 142.181053 292.557913 
L 150.724593 289.552696 
L 159.268134 295.56313 
L 167.811675 288.550957 
L 176.355215 289.552696 
L 184.898756 288.550957 
L 193.442297 289.552696 
L 201.985837 289.552696 
L 210.529378 286.547478 
L 219.072919 289.552696 
L 227.616459 288.550957 
L 236.16 288.550957 
L 244.703541 292.557913 
L 253.247081 302.575304 
L 261.790622 301.573565 
L 270.334163 300.571826 
L 278.877703 285.545739 
L 287.421244 297.566609 
L 295.964785 298.568348 
L 304.508325 299.570087 
L 313.051866 297.566609 
L 321.595407 307.584 
L 330.138947 307.584 
L 338.682488 307.584 
L 347.226029 307.584 
L 355.769569 307.584 
L 364.31311 307.584 
L 372.856651 307.584 
L 381.400191 307.584 
L 389.943732 307.584 
L 398.487273 307.584 
L 398.487273 296.56487 
L 398.487273 296.56487 
L 389.943732 299.570087 
L 381.400191 295.56313 
L 372.856651 302.575304 
L 364.31311 302.575304 
L 355.769569 294.561391 
L 347.226029 299.570087 
L 338.682488 293.559652 
L 330.138947 291.556174 
L 321.595407 295.56313 
L 313.051866 282.540522 
L 304.508325 292.557913 
L 295.964785 279.535304 
L 287.421244 271.521391 
L 278.877703 266.512696 
L 270.334163 285.545739 
L 261.790622 276.530087 
L 253.247081 286.547478 
L 244.703541 288.550957 
L 236.16 281.538783 
L 227.616459 282.540522 
L 219.072919 287.549217 
L 210.529378 278.533565 
L 201.985837 274.526609 
L 193.442297 277.531826 
L 184.898756 273.52487 
L 176.355215 266.512696 
L 167.811675 258.498783 
L 159.268134 264.509217 
L 150.724593 261.504 
L 142.181053 280.537043 
L 133.637512 289.552696 
L 125.093971 251.486609 
L 116.550431 277.531826 
L 108.00689 213.420522 
L 99.463349 249.48313 
L 90.919809 271.521391 
L 82.376268 223.437913 
L 73.832727 234.457043 
z
" style="fill:#ff7f0e;"/>
   </g>
   <g id="PolyCollection_3">
    <path clip-path="url(#pc3a8d434f1)" d="M 73.832727 165.337043 
L 73.832727 234.457043 
L 82.376268 223.437913 
L 90.919809 271.521391 
L 99.463349 249.48313 
L 108.00689 213.420522 
L 116.550431 277.531826 
L 125.093971 251.486609 
L 133.637512 289.552696 
L 142.181053 280.537043 
L 150.724593 261.504 
L 159.268134 264.509217 
L 167.811675 258.498783 
L 176.355215 266.512696 
L 184.898756 273.52487 
L 193.442297 277.531826 
L 201.985837 274.526609 
L 210.529378 278.533565 
L 219.072919 287.549217 
L 227.616459 282.540522 
L 236.16 281.538783 
L 244.703541 288.550957 
L 253.247081 286.547478 
L 261.790622 276.530087 
L 270.334163 285.545739 
L 278.877703 266.512696 
L 287.421244 271.521391 
L 295.964785 279.535304 
L 304.508325 292.557913 
L 313.051866 282.540522 
L 321.595407 295.56313 
L 330.138947 291.556174 
L 338.682488 293.559652 
L 347.226029 299.570087 
L 355.769569 294.561391 
L 364.31311 302.575304 
L 372.856651 302.575304 
L 381.400191 295.56313 
L 389.943732 299.570087 
L 398.487273 296.56487 
L 398.487273 290.554435 
L 398.487273 290.554435 
L 389.943732 289.552696 
L 381.400191 271.521391 
L 372.856651 283.542261 
L 364.31311 286.547478 
L 355.769569 284.544 
L 347.226029 293.559652 
L 338.682488 276.530087 
L 330.138947 284.544 
L 321.595407 279.535304 
L 313.051866 262.505739 
L 304.508325 265.510957 
L 295.964785 254.491826 
L 287.421244 256.495304 
L 278.877703 251.486609 
L 270.334163 261.504 
L 261.790622 254.491826 
L 253.247081 266.512696 
L 244.703541 268.516174 
L 236.16 260.502261 
L 227.616459 272.52313 
L 219.072919 272.52313 
L 210.529378 261.504 
L 201.985837 245.476174 
L 193.442297 244.474435 
L 184.898756 244.474435 
L 176.355215 222.436174 
L 167.811675 242.470957 
L 159.268134 234.457043 
L 150.724593 239.465739 
L 142.181053 254.491826 
L 133.637512 264.509217 
L 125.093971 225.441391 
L 116.550431 255.493565 
L 108.00689 189.378783 
L 99.463349 232.453565 
L 90.919809 250.48487 
L 82.376268 220.432696 
L 73.832727 165.337043 
z
" style="fill:#2ca02c;"/>
   </g>
   <g id="PolyCollection_4">
    <path clip-path="url(#pc3a8d434f1)" d="M 73.832727 127.270957 
L 73.832727 165.337043 
L 82.376268 220.432696 
L 90.919809 250.48487 
L 99.463349 232.453565 
L 108.00689 189.378783 
L 116.550431 255.493565 
L 125.093971 225.441391 
L 133.637512 264.509217 
L 142.181053 254.491826 
L 150.724593 239.465739 
L 159.268134 234.457043 
L 167.811675 242.470957 
L 176.355215 222.436174 
L 184.898756 244.474435 
L 193.442297 244.474435 
L 201.985837 245.476174 
L 210.529378 261.504 
L 219.072919 272.52313 
L 227.616459 272.52313 
L 236.16 260.502261 
L 244.703541 268.516174 
L 253.247081 266.512696 
L 261.790622 254.491826 
L 270.334163 261.504 
L 278.877703 251.486609 
L 287.421244 256.495304 
L 295.964785 254.491826 
L 304.508325 265.510957 
L 313.051866 262.505739 
L 321.595407 279.535304 
L 330.138947 284.544 
L 338.682488 276.530087 
L 347.226029 293.559652 
L 355.769569 284.544 
L 364.31311 286.547478 
L 372.856651 283.542261 
L 381.400191 271.521391 
L 389.943732 289.552696 
L 398.487273 290.554435 
L 398.487273 290.554435 
L 398.487273 290.554435 
L 389.943732 266.512696 
L 381.400191 255.493565 
L 372.856651 276.530087 
L 364.31311 284.544 
L 355.769569 263.507478 
L 347.226029 282.540522 
L 338.682488 254.491826 
L 330.138947 273.52487 
L 321.595407 265.510957 
L 313.051866 248.481391 
L 304.508325 250.48487 
L 295.964785 237.462261 
L 287.421244 247.479652 
L 278.877703 242.470957 
L 270.334163 227.44487 
L 261.790622 235.458783 
L 253.247081 251.486609 
L 244.703541 248.481391 
L 236.16 237.462261 
L 227.616459 247.479652 
L 219.072919 249.48313 
L 210.529378 234.457043 
L 201.985837 220.432696 
L 193.442297 218.429217 
L 184.898756 228.446609 
L 176.355215 211.417043 
L 167.811675 221.434435 
L 159.268134 221.434435 
L 150.724593 200.397913 
L 142.181053 237.462261 
L 133.637512 241.469217 
L 125.093971 210.415304 
L 116.550431 243.472696 
L 108.00689 181.36487 
L 99.463349 211.417043 
L 90.919809 226.44313 
L 82.376268 205.406609 
L 73.832727 127.270957 
z
" style="fill:#d62728;"/>
   </g>
   <g id="PolyCollection_5">
    <path clip-path="url(#pc3a8d434f1)" d="M 73.832727 116.251826 
L 73.832727 127.270957 
L 82.376268 205.406609 
L 90.919809 226.44313 
L 99.463349 211.417043 
L 108.00689 181.36487 
L 116.550431 243.472696 
L 125.093971 210.415304 
L 133.637512 241.469217 
L 142.181053 237.462261 
L 150.724593 200.397913 
L 159.268134 221.434435 
L 167.811675 221.434435 
L 176.355215 211.417043 
L 184.898756 228.446609 
L 193.442297 218.429217 
L 201.985837 220.432696 
L 210.529378 234.457043 
L 219.072919 249.48313 
L 227.616459 247.479652 
L 236.16 237.462261 
L 244.703541 248.481391 
L 253.247081 251.486609 
L 261.790622 235.458783 
L 270.334163 227.44487 
L 278.877703 242.470957 
L 287.421244 247.479652 
L 295.964785 237.462261 
L 304.508325 250.48487 
L 313.051866 248.481391 
L 321.595407 265.510957 
L 330.138947 273.52487 
L 338.682488 254.491826 
L 347.226029 282.540522 
L 355.769569 263.507478 
L 364.31311 284.544 
L 372.856651 276.530087 
L 381.400191 255.493565 
L 389.943732 266.512696 
L 398.487273 290.554435 
L 398.487273 290.554435 
L 398.487273 290.554435 
L 389.943732 266.512696 
L 381.400191 255.493565 
L 372.856651 276.530087 
L 364.31311 284.544 
L 355.769569 263.507478 
L 347.226029 282.540522 
L 338.682488 254.491826 
L 330.138947 246.477913 
L 321.595407 229.448348 
L 313.051866 233.455304 
L 304.508325 238.464 
L 295.964785 218.429217 
L 287.421244 223.437913 
L 278.877703 213.420522 
L 270.334163 211.417043 
L 261.790622 221.434435 
L 253.247081 238.464 
L 244.703541 235.458783 
L 236.16 223.437913 
L 227.616459 234.457043 
L 219.072919 231.451826 
L 210.529378 213.420522 
L 201.985837 198.394435 
L 193.442297 197.392696 
L 184.898756 208.411826 
L 176.355215 203.40313 
L 167.811675 201.399652 
L 159.268134 190.380522 
L 150.724593 166.338783 
L 142.181053 212.418783 
L 133.637512 208.411826 
L 125.093971 187.375304 
L 116.550431 194.387478 
L 108.00689 171.347478 
L 99.463349 176.356174 
L 90.919809 193.385739 
L 82.376268 181.36487 
L 73.832727 116.251826 
z
" style="fill:#9467bd;"/>
   </g>
   <g id="PolyCollection_6">
    <path clip-path="url(#pc3a8d434f1)" d="M 73.832727 115.250087 
L 73.832727 116.251826 
L 82.376268 181.36487 
L 90.919809 193.385739 
L 99.463349 176.356174 
L 108.00689 171.347478 
L 116.550431 194.387478 
L 125.093971 187.375304 
L 133.637512 208.411826 
L 142.181053 212.418783 
L 150.724593 166.338783 
L 159.268134 190.380522 
L 167.811675 201.399652 
L 176.355215 203.40313 
L 184.898756 208.411826 
L 193.442297 197.392696 
L 201.985837 198.394435 
L 210.529378 213.420522 
L 219.072919 231.451826 
L 227.616459 234.457043 
L 236.16 223.437913 
L 244.703541 235.458783 
L 253.247081 238.464 
L 261.790622 221.434435 
L 270.334163 211.417043 
L 278.877703 213.420522 
L 287.421244 223.437913 
L 295.964785 218.429217 
L 304.508325 238.464 
L 313.051866 233.455304 
L 321.595407 229.448348 
L 330.138947 246.477913 
L 338.682488 254.491826 
L 347.226029 282.540522 
L 355.769569 263.507478 
L 364.31311 284.544 
L 372.856651 276.530087 
L 381.400191 255.493565 
L 389.943732 266.512696 
L 398.487273 290.554435 
L 398.487273 290.554435 
L 398.487273 290.554435 
L 389.943732 266.512696 
L 381.400191 255.493565 
L 372.856651 276.530087 
L 364.31311 284.544 
L 355.769569 263.507478 
L 347.226029 282.540522 
L 338.682488 254.491826 
L 330.138947 246.477913 
L 321.595407 229.448348 
L 313.051866 233.455304 
L 304.508325 235.458783 
L 295.964785 216.425739 
L 287.421244 220.432696 
L 278.877703 211.417043 
L 270.334163 208.411826 
L 261.790622 219.430957 
L 253.247081 236.460522 
L 244.703541 233.455304 
L 236.16 220.432696 
L 227.616459 232.453565 
L 219.072919 228.446609 
L 210.529378 211.417043 
L 201.985837 196.390957 
L 193.442297 194.387478 
L 184.898756 206.408348 
L 176.355215 201.399652 
L 167.811675 198.394435 
L 159.268134 188.377043 
L 150.724593 163.333565 
L 142.181053 208.411826 
L 133.637512 205.406609 
L 125.093971 183.368348 
L 116.550431 191.382261 
L 108.00689 166.338783 
L 99.463349 172.349217 
L 90.919809 188.377043 
L 82.376268 178.359652 
L 73.832727 115.250087 
z
" style="fill:#8c564b;"/>
   </g>
   <g id="PolyCollection_7">
    <path clip-path="url(#pc3a8d434f1)" d="M 73.832727 96.217043 
L 73.832727 115.250087 
L 82.376268 178.359652 
L 90.919809 188.377043 
L 99.463349 172.349217 
L 108.00689 166.338783 
L 116.550431 191.382261 
L 125.093971 183.368348 
L 133.637512 205.406609 
L 142.181053 208.411826 
L 150.724593 163.333565 
L 159.268134 188.377043 
L 167.811675 198.394435 
L 176.355215 201.399652 
L 184.898756 206.408348 
L 193.442297 194.387478 
L 201.985837 196.390957 
L 210.529378 211.417043 
L 219.072919 228.446609 
L 227.616459 232.453565 
L 236.16 220.432696 
L 244.703541 233.455304 
L 253.247081 236.460522 
L 261.790622 219.430957 
L 270.334163 208.411826 
L 278.877703 211.417043 
L 287.421244 220.432696 
L 295.964785 216.425739 
L 304.508325 235.458783 
L 313.051866 233.455304 
L 321.595407 229.448348 
L 330.138947 246.477913 
L 338.682488 254.491826 
L 347.226029 282.540522 
L 355.769569 263.507478 
L 364.31311 284.544 
L 372.856651 276.530087 
L 381.400191 255.493565 
L 389.943732 266.512696 
L 398.487273 290.554435 
L 398.487273 264.509217 
L 398.487273 264.509217 
L 389.943732 257.497043 
L 381.400191 243.472696 
L 372.856651 266.512696 
L 364.31311 243.472696 
L 355.769569 234.457043 
L 347.226029 257.497043 
L 338.682488 226.44313 
L 330.138947 225.441391 
L 321.595407 208.411826 
L 313.051866 208.411826 
L 304.508325 213.420522 
L 295.964785 189.378783 
L 287.421244 193.385739 
L 278.877703 195.389217 
L 270.334163 195.389217 
L 261.790622 187.375304 
L 253.247081 195.389217 
L 244.703541 217.427478 
L 236.16 189.378783 
L 227.616459 203.40313 
L 219.072919 191.382261 
L 210.529378 166.338783 
L 201.985837 166.338783 
L 193.442297 173.350957 
L 184.898756 168.342261 
L 176.355215 158.32487 
L 167.811675 158.32487 
L 159.268134 147.305739 
L 150.724593 134.28313 
L 142.181053 183.368348 
L 133.637512 191.382261 
L 125.093971 150.310957 
L 116.550431 161.330087 
L 108.00689 142.297043 
L 99.463349 147.305739 
L 90.919809 149.309217 
L 82.376268 153.316174 
L 73.832727 96.217043 
z
" style="fill:#e377c2;"/>
   </g>
   <g id="PolyCollection_8">
    <path clip-path="url(#pc3a8d434f1)" d="M 73.832727 83.194435 
L 73.832727 96.217043 
L 82.376268 153.316174 
L 90.919809 149.309217 
L 99.463349 147.305739 
L 108.00689 142.297043 
L 116.550431 161.330087 
L 125.093971 150.310957 
L 133.637512 191.382261 
L 142.181053 183.368348 
L 150.724593 134.28313 
L 159.268134 147.305739 
L 167.811675 158.32487 
L 176.355215 158.32487 
L 184.898756 168.342261 
L 193.442297 173.350957 
L 201.985837 166.338783 
L 210.529378 166.338783 
L 219.072919 191.382261 
L 227.616459 203.40313 
L 236.16 189.378783 
L 244.703541 217.427478 
L 253.247081 195.389217 
L 261.790622 187.375304 
L 270.334163 195.389217 
L 278.877703 195.389217 
L 287.421244 193.385739 
L 295.964785 189.378783 
L 304.508325 213.420522 
L 313.051866 208.411826 
L 321.595407 208.411826 
L 330.138947 225.441391 
L 338.682488 226.44313 
L 347.226029 257.497043 
L 355.769569 234.457043 
L 364.31311 243.472696 
L 372.856651 266.512696 
L 381.400191 243.472696 
L 389.943732 257.497043 
L 398.487273 264.509217 
L 398.487273 238.464 
L 398.487273 238.464 
L 389.943732 234.457043 
L 381.400191 217.427478 
L 372.856651 228.446609 
L 364.31311 213.420522 
L 355.769569 201.399652 
L 347.226029 233.455304 
L 338.682488 207.410087 
L 330.138947 194.387478 
L 321.595407 194.387478 
L 313.051866 153.316174 
L 304.508325 163.333565 
L 295.964785 181.36487 
L 287.421244 191.382261 
L 278.877703 186.373565 
L 270.334163 164.335304 
L 261.790622 162.331826 
L 253.247081 152.314435 
L 244.703541 146.304 
L 236.16 146.304 
L 227.616459 166.338783 
L 219.072919 151.312696 
L 210.529378 134.28313 
L 201.985837 136.286609 
L 193.442297 133.281391 
L 184.898756 139.291826 
L 176.355215 131.277913 
L 167.811675 139.291826 
L 159.268134 134.28313 
L 150.724593 125.267478 
L 142.181053 156.321391 
L 133.637512 142.297043 
L 125.093971 144.300522 
L 116.550431 149.309217 
L 108.00689 131.277913 
L 99.463349 144.300522 
L 90.919809 138.290087 
L 82.376268 129.274435 
L 73.832727 83.194435 
z
" style="fill:#7f7f7f;"/>
   </g>
   <g id="PolyCollection_9">
    <path clip-path="url(#pc3a8d434f1)" d="M 73.832727 82.192696 
L 73.832727 83.194435 
L 82.376268 129.274435 
L 90.919809 138.290087 
L 99.463349 144.300522 
L 108.00689 131.277913 
L 116.550431 149.309217 
L 125.093971 144.300522 
L 133.637512 142.297043 
L 142.181053 156.321391 
L 150.724593 125.267478 
L 159.268134 134.28313 
L 167.811675 139.291826 
L 176.355215 131.277913 
L 184.898756 139.291826 
L 193.442297 133.281391 
L 201.985837 136.286609 
L 210.529378 134.28313 
L 219.072919 151.312696 
L 227.616459 166.338783 
L 236.16 146.304 
L 244.703541 146.304 
L 253.247081 152.314435 
L 261.790622 162.331826 
L 270.334163 164.335304 
L 278.877703 186.373565 
L 287.421244 191.382261 
L 295.964785 181.36487 
L 304.508325 163.333565 
L 313.051866 153.316174 
L 321.595407 194.387478 
L 330.138947 194.387478 
L 338.682488 207.410087 
L 347.226029 233.455304 
L 355.769569 201.399652 
L 364.31311 213.420522 
L 372.856651 228.446609 
L 381.400191 217.427478 
L 389.943732 234.457043 
L 398.487273 238.464 
L 398.487273 236.460522 
L 398.487273 236.460522 
L 389.943732 231.451826 
L 381.400191 215.424 
L 372.856651 226.44313 
L 364.31311 211.417043 
L 355.769569 199.396174 
L 347.226029 230.450087 
L 338.682488 205.406609 
L 330.138947 191.382261 
L 321.595407 190.380522 
L 313.051866 150.310957 
L 304.508325 159.326609 
L 295.964785 179.361391 
L 287.421244 189.378783 
L 278.877703 183.368348 
L 270.334163 160.328348 
L 261.790622 159.326609 
L 253.247081 149.309217 
L 244.703541 143.298783 
L 236.16 145.302261 
L 227.616459 163.333565 
L 219.072919 147.305739 
L 210.529378 131.277913 
L 201.985837 134.28313 
L 193.442297 130.276174 
L 184.898756 137.288348 
L 176.355215 128.272696 
L 167.811675 135.28487 
L 159.268134 131.277913 
L 150.724593 122.262261 
L 142.181053 154.317913 
L 133.637512 140.293565 
L 125.093971 142.297043 
L 116.550431 147.305739 
L 108.00689 127.270957 
L 99.463349 138.290087 
L 90.919809 131.277913 
L 82.376268 123.264 
L 73.832727 82.192696 
z
" style="fill:#bcbd22;"/>
   </g>
   <g id="PolyCollection_10">
    <path clip-path="url(#pc3a8d434f1)" d="M 73.832727 81.190957 
L 73.832727 82.192696 
L 82.376268 123.264 
L 90.919809 131.277913 
L 99.463349 138.290087 
L 108.00689 127.270957 
L 116.550431 147.305739 
L 125.093971 142.297043 
L 133.637512 140.293565 
L 142.181053 154.317913 
L 150.724593 122.262261 
L 159.268134 131.277913 
L 167.811675 135.28487 
L 176.355215 128.272696 
L 184.898756 137.288348 
L 193.442297 130.276174 
L 201.985837 134.28313 
L 210.529378 131.277913 
L 219.072919 147.305739 
L 227.616459 163.333565 
L 236.16 145.302261 
L 244.703541 143.298783 
L 253.247081 149.309217 
L 261.790622 159.326609 
L 270.334163 160.328348 
L 278.877703 183.368348 
L 287.421244 189.378783 
L 295.964785 179.361391 
L 304.508325 159.326609 
L 313.051866 150.310957 
L 321.595407 190.380522 
L 330.138947 191.382261 
L 338.682488 205.406609 
L 347.226029 230.450087 
L 355.769569 199.396174 
L 364.31311 211.417043 
L 372.856651 226.44313 
L 381.400191 215.424 
L 389.943732 231.451826 
L 398.487273 236.460522 
L 398.487273 224.439652 
L 398.487273 224.439652 
L 389.943732 208.411826 
L 381.400191 195.389217 
L 372.856651 209.413565 
L 364.31311 194.387478 
L 355.769569 173.350957 
L 347.226029 202.401391 
L 338.682488 182.366609 
L 330.138947 179.361391 
L 321.595407 181.36487 
L 313.051866 125.267478 
L 304.508325 127.270957 
L 295.964785 121.260522 
L 287.421244 126.269217 
L 278.877703 140.293565 
L 270.334163 136.286609 
L 261.790622 136.286609 
L 253.247081 131.277913 
L 244.703541 128.272696 
L 236.16 132.279652 
L 227.616459 151.312696 
L 219.072919 134.28313 
L 210.529378 121.260522 
L 201.985837 123.264 
L 193.442297 118.255304 
L 184.898756 122.262261 
L 176.355215 110.241391 
L 167.811675 113.246609 
L 159.268134 111.24313 
L 150.724593 109.239652 
L 142.181053 104.230957 
L 133.637512 111.24313 
L 125.093971 119.257043 
L 116.550431 128.272696 
L 108.00689 123.264 
L 99.463349 133.281391 
L 90.919809 125.267478 
L 82.376268 121.260522 
L 73.832727 81.190957 
z
" style="fill:#17becf;"/>
   </g>
   <g id="PolyCollection_11">
    <path clip-path="url(#pc3a8d434f1)" d="M 73.832727 80.189217 
L 73.832727 81.190957 
L 82.376268 121.260522 
L 90.919809 125.267478 
L 99.463349 133.281391 
L 108.00689 123.264 
L 116.550431 128.272696 
L 125.093971 119.257043 
L 133.637512 111.24313 
L 142.181053 104.230957 
L 150.724593 109.239652 
L 159.268134 111.24313 
L 167.811675 113.246609 
L 176.355215 110.241391 
L 184.898756 122.262261 
L 193.442297 118.255304 
L 201.985837 123.264 
L 210.529378 121.260522 
L 219.072919 134.28313 
L 227.616459 151.312696 
L 236.16 132.279652 
L 244.703541 128.272696 
L 253.247081 131.277913 
L 261.790622 136.286609 
L 270.334163 136.286609 
L 278.877703 140.293565 
L 287.421244 126.269217 
L 295.964785 121.260522 
L 304.508325 127.270957 
L 313.051866 125.267478 
L 321.595407 181.36487 
L 330.138947 179.361391 
L 338.682488 182.366609 
L 347.226029 202.401391 
L 355.769569 173.350957 
L 364.31311 194.387478 
L 372.856651 209.413565 
L 381.400191 195.389217 
L 389.943732 208.411826 
L 398.487273 224.439652 
L 398.487273 213.420522 
L 398.487273 213.420522 
L 389.943732 198.394435 
L 381.400191 187.375304 
L 372.856651 199.396174 
L 364.31311 188.377043 
L 355.769569 166.338783 
L 347.226029 193.385739 
L 338.682488 173.350957 
L 330.138947 170.345739 
L 321.595407 171.347478 
L 313.051866 117.253565 
L 304.508325 120.258783 
L 295.964785 110.241391 
L 287.421244 115.250087 
L 278.877703 125.267478 
L 270.334163 122.262261 
L 261.790622 123.264 
L 253.247081 115.250087 
L 244.703541 114.248348 
L 236.16 120.258783 
L 227.616459 136.286609 
L 219.072919 117.253565 
L 210.529378 108.237913 
L 201.985837 106.234435 
L 193.442297 102.227478 
L 184.898756 111.24313 
L 176.355215 97.218783 
L 167.811675 100.224 
L 159.268134 101.225739 
L 150.724593 99.222261 
L 142.181053 93.211826 
L 133.637512 100.224 
L 125.093971 104.230957 
L 116.550431 118.255304 
L 108.00689 114.248348 
L 99.463349 130.276174 
L 90.919809 122.262261 
L 82.376268 118.255304 
L 73.832727 80.189217 
z
" style="fill:#1f77b4;"/>
   </g>
   <g id="PolyCollection_12">
    <path clip-path="url(#pc3a8d434f1)" d="M 73.832727 79.187478 
L 73.832727 80.189217 
L 82.376268 118.255304 
L 90.919809 122.262261 
L 99.463349 130.276174 
L 108.00689 114.248348 
L 116.550431 118.255304 
L 125.093971 104.230957 
L 133.637512 100.224 
L 142.181053 93.211826 
L 150.724593 99.222261 
L 159.268134 101.225739 
L 167.811675 100.224 
L 176.355215 97.218783 
L 184.898756 111.24313 
L 193.442297 102.227478 
L 201.985837 106.234435 
L 210.529378 108.237913 
L 219.072919 117.253565 
L 227.616459 136.286609 
L 236.16 120.258783 
L 244.703541 114.248348 
L 253.247081 115.250087 
L 261.790622 123.264 
L 270.334163 122.262261 
L 278.877703 125.267478 
L 287.421244 115.250087 
L 295.964785 110.241391 
L 304.508325 120.258783 
L 313.051866 117.253565 
L 321.595407 171.347478 
L 330.138947 170.345739 
L 338.682488 173.350957 
L 347.226029 193.385739 
L 355.769569 166.338783 
L 364.31311 188.377043 
L 372.856651 199.396174 
L 381.400191 187.375304 
L 389.943732 198.394435 
L 398.487273 213.420522 
L 398.487273 213.420522 
L 398.487273 213.420522 
L 389.943732 198.394435 
L 381.400191 187.375304 
L 372.856651 199.396174 
L 364.31311 188.377043 
L 355.769569 166.338783 
L 347.226029 193.385739 
L 338.682488 173.350957 
L 330.138947 170.345739 
L 321.595407 171.347478 
L 313.051866 117.253565 
L 304.508325 120.258783 
L 295.964785 107.236174 
L 287.421244 113.246609 
L 278.877703 122.262261 
L 270.334163 120.258783 
L 261.790622 120.258783 
L 253.247081 113.246609 
L 244.703541 111.24313 
L 236.16 118.255304 
L 227.616459 133.281391 
L 219.072919 113.246609 
L 210.529378 105.232696 
L 201.985837 104.230957 
L 193.442297 99.222261 
L 184.898756 107.236174 
L 176.355215 94.213565 
L 167.811675 98.220522 
L 159.268134 98.220522 
L 150.724593 96.217043 
L 142.181053 89.20487 
L 133.637512 97.218783 
L 125.093971 101.225739 
L 116.550431 114.248348 
L 108.00689 111.24313 
L 99.463349 128.272696 
L 90.919809 117.253565 
L 82.376268 112.24487 
L 73.832727 79.187478 
z
" style="fill:#ff7f0e;"/>
   </g>
   <g id="PolyCollection_13">
    <path clip-path="url(#pc3a8d434f1)" d="M 73.832727 78.185739 
L 73.832727 79.187478 
L 82.376268 112.24487 
L 90.919809 117.253565 
L 99.463349 128.272696 
L 108.00689 111.24313 
L 116.550431 114.248348 
L 125.093971 101.225739 
L 133.637512 97.218783 
L 142.181053 89.20487 
L 150.724593 96.217043 
L 159.268134 98.220522 
L 167.811675 98.220522 
L 176.355215 94.213565 
L 184.898756 107.236174 
L 193.442297 99.222261 
L 201.985837 104.230957 
L 210.529378 105.232696 
L 219.072919 113.246609 
L 227.616459 133.281391 
L 236.16 118.255304 
L 244.703541 111.24313 
L 253.247081 113.246609 
L 261.790622 120.258783 
L 270.334163 120.258783 
L 278.877703 122.262261 
L 287.421244 113.246609 
L 295.964785 107.236174 
L 304.508325 120.258783 
L 313.051866 117.253565 
L 321.595407 171.347478 
L 330.138947 170.345739 
L 338.682488 173.350957 
L 347.226029 193.385739 
L 355.769569 166.338783 
L 364.31311 188.377043 
L 372.856651 199.396174 
L 381.400191 187.375304 
L 389.943732 198.394435 
L 398.487273 213.420522 
L 398.487273 191.382261 
L 398.487273 191.382261 
L 389.943732 181.36487 
L 381.400191 171.347478 
L 372.856651 182.366609 
L 364.31311 171.347478 
L 355.769569 159.326609 
L 347.226029 178.359652 
L 338.682488 163.333565 
L 330.138947 156.321391 
L 321.595407 156.321391 
L 313.051866 101.225739 
L 304.508325 102.227478 
L 295.964785 95.215304 
L 287.421244 108.237913 
L 278.877703 118.255304 
L 270.334163 116.251826 
L 261.790622 106.234435 
L 253.247081 109.239652 
L 244.703541 108.237913 
L 236.16 115.250087 
L 227.616459 130.276174 
L 219.072919 108.237913 
L 210.529378 101.225739 
L 201.985837 99.222261 
L 193.442297 95.215304 
L 184.898756 102.227478 
L 176.355215 91.208348 
L 167.811675 94.213565 
L 159.268134 93.211826 
L 150.724593 91.208348 
L 142.181053 83.194435 
L 133.637512 92.210087 
L 125.093971 95.215304 
L 116.550431 107.236174 
L 108.00689 103.229217 
L 99.463349 121.260522 
L 90.919809 109.239652 
L 82.376268 105.232696 
L 73.832727 78.185739 
z
" style="fill:#2ca02c;"/>
   </g>
   <g id="PolyCollection_14">
    <path clip-path="url(#pc3a8d434f1)" d="M 73.832727 73.177043 
L 73.832727 78.185739 
L 82.376268 105.232696 
L 90.919809 109.239652 
L 99.463349 121.260522 
L 108.00689 103.229217 
L 116.550431 107.236174 
L 125.093971 95.215304 
L 133.637512 92.210087 
L 142.181053 83.194435 
L 150.724593 91.208348 
L 159.268134 93.211826 
L 167.811675 94.213565 
L 176.355215 91.208348 
L 184.898756 102.227478 
L 193.442297 95.215304 
L 201.985837 99.222261 
L 210.529378 101.225739 
L 219.072919 108.237913 
L 227.616459 130.276174 
L 236.16 115.250087 
L 244.703541 108.237913 
L 253.247081 109.239652 
L 261.790622 106.234435 
L 270.334163 116.251826 
L 278.877703 118.255304 
L 287.421244 108.237913 
L 295.964785 95.215304 
L 304.508325 102.227478 
L 313.051866 101.225739 
L 321.595407 156.321391 
L 330.138947 156.321391 
L 338.682488 163.333565 
L 347.226029 178.359652 
L 355.769569 159.326609 
L 364.31311 171.347478 
L 372.856651 182.366609 
L 381.400191 171.347478 
L 389.943732 181.36487 
L 398.487273 191.382261 
L 398.487273 191.382261 
L 398.487273 191.382261 
L 389.943732 181.36487 
L 381.400191 171.347478 
L 372.856651 170.345739 
L 364.31311 160.328348 
L 355.769569 145.302261 
L 347.226029 162.331826 
L 338.682488 148.307478 
L 330.138947 143.298783 
L 321.595407 142.297043 
L 313.051866 88.20313 
L 304.508325 88.20313 
L 295.964785 82.192696 
L 287.421244 93.211826 
L 278.877703 105.232696 
L 270.334163 101.225739 
L 261.790622 95.215304 
L 253.247081 95.215304 
L 244.703541 95.215304 
L 236.16 100.224 
L 227.616459 117.253565 
L 219.072919 96.217043 
L 210.529378 87.201391 
L 201.985837 86.199652 
L 193.442297 83.194435 
L 184.898756 87.201391 
L 176.355215 81.190957 
L 167.811675 83.194435 
L 159.268134 85.197913 
L 150.724593 86.199652 
L 142.181053 78.185739 
L 133.637512 87.201391 
L 125.093971 88.20313 
L 116.550431 99.222261 
L 108.00689 96.217043 
L 99.463349 112.24487 
L 90.919809 99.222261 
L 82.376268 102.227478 
L 73.832727 73.177043 
z
" style="fill:#d62728;"/>
   </g>
   <g id="PolyCollection_15">
    <path clip-path="url(#pc3a8d434f1)" d="M 73.832727 72.175304 
L 73.832727 73.177043 
L 82.376268 102.227478 
L 90.919809 99.222261 
L 99.463349 112.24487 
L 108.00689 96.217043 
L 116.550431 99.222261 
L 125.093971 88.20313 
L 133.637512 87.201391 
L 142.181053 78.185739 
L 150.724593 86.199652 
L 159.268134 85.197913 
L 167.811675 83.194435 
L 176.355215 81.190957 
L 184.898756 87.201391 
L 193.442297 83.194435 
L 201.985837 86.199652 
L 210.529378 87.201391 
L 219.072919 96.217043 
L 227.616459 117.253565 
L 236.16 100.224 
L 244.703541 95.215304 
L 253.247081 95.215304 
L 261.790622 95.215304 
L 270.334163 101.225739 
L 278.877703 105.232696 
L 287.421244 93.211826 
L 295.964785 82.192696 
L 304.508325 88.20313 
L 313.051866 88.20313 
L 321.595407 142.297043 
L 330.138947 143.298783 
L 338.682488 148.307478 
L 347.226029 162.331826 
L 355.769569 145.302261 
L 364.31311 160.328348 
L 372.856651 170.345739 
L 381.400191 171.347478 
L 389.943732 181.36487 
L 398.487273 191.382261 
L 398.487273 191.382261 
L 398.487273 191.382261 
L 389.943732 181.36487 
L 381.400191 171.347478 
L 372.856651 170.345739 
L 364.31311 160.328348 
L 355.769569 145.302261 
L 347.226029 162.331826 
L 338.682488 148.307478 
L 330.138947 143.298783 
L 321.595407 142.297043 
L 313.051866 88.20313 
L 304.508325 88.20313 
L 295.964785 82.192696 
L 287.421244 93.211826 
L 278.877703 102.227478 
L 270.334163 99.222261 
L 261.790622 94.213565 
L 253.247081 92.210087 
L 244.703541 93.211826 
L 236.16 97.218783 
L 227.616459 115.250087 
L 219.072919 93.211826 
L 210.529378 83.194435 
L 201.985837 83.194435 
L 193.442297 81.190957 
L 184.898756 85.197913 
L 176.355215 78.185739 
L 167.811675 79.187478 
L 159.268134 82.192696 
L 150.724593 82.192696 
L 142.181053 75.180522 
L 133.637512 83.194435 
L 125.093971 83.194435 
L 116.550431 93.211826 
L 108.00689 94.213565 
L 99.463349 111.24313 
L 90.919809 94.213565 
L 82.376268 98.220522 
L 73.832727 72.175304 
z
" style="fill:#9467bd;"/>
   </g>
   <g id="PolyCollection_16">
    <path clip-path="url(#pc3a8d434f1)" d="M 73.832727 61.156174 
L 73.832727 72.175304 
L 82.376268 98.220522 
L 90.919809 94.213565 
L 99.463349 111.24313 
L 108.00689 94.213565 
L 116.550431 93.211826 
L 125.093971 83.194435 
L 133.637512 83.194435 
L 142.181053 75.180522 
L 150.724593 82.192696 
L 159.268134 82.192696 
L 167.811675 79.187478 
L 176.355215 78.185739 
L 184.898756 85.197913 
L 193.442297 81.190957 
L 201.985837 83.194435 
L 210.529378 83.194435 
L 219.072919 93.211826 
L 227.616459 115.250087 
L 236.16 97.218783 
L 244.703541 93.211826 
L 253.247081 92.210087 
L 261.790622 94.213565 
L 270.334163 99.222261 
L 278.877703 102.227478 
L 287.421244 93.211826 
L 295.964785 82.192696 
L 304.508325 88.20313 
L 313.051866 88.20313 
L 321.595407 142.297043 
L 330.138947 143.298783 
L 338.682488 148.307478 
L 347.226029 162.331826 
L 355.769569 145.302261 
L 364.31311 160.328348 
L 372.856651 170.345739 
L 381.400191 171.347478 
L 389.943732 181.36487 
L 398.487273 191.382261 
L 398.487273 167.340522 
L 398.487273 167.340522 
L 389.943732 165.337043 
L 381.400191 166.338783 
L 372.856651 150.310957 
L 364.31311 150.310957 
L 355.769569 141.295304 
L 347.226029 144.300522 
L 338.682488 133.281391 
L 330.138947 133.281391 
L 321.595407 132.279652 
L 313.051866 78.185739 
L 304.508325 77.184 
L 295.964785 77.184 
L 287.421244 79.187478 
L 278.877703 78.185739 
L 270.334163 76.182261 
L 261.790622 73.177043 
L 253.247081 74.178783 
L 244.703541 72.175304 
L 236.16 73.177043 
L 227.616459 76.182261 
L 219.072919 72.175304 
L 210.529378 70.171826 
L 201.985837 71.173565 
L 193.442297 73.177043 
L 184.898756 71.173565 
L 176.355215 71.173565 
L 167.811675 67.166609 
L 159.268134 68.168348 
L 150.724593 68.168348 
L 142.181053 66.16487 
L 133.637512 70.171826 
L 125.093971 72.175304 
L 116.550431 71.173565 
L 108.00689 70.171826 
L 99.463349 69.170087 
L 90.919809 69.170087 
L 82.376268 76.182261 
L 73.832727 61.156174 
z
" style="fill:#8c564b;"/>
   </g>
   <g id="PolyCollection_17">
    <path clip-path="url(#pc3a8d434f1)" d="M 73.832727 60.154435 
L 73.832727 61.156174 
L 82.376268 76.182261 
L 90.919809 69.170087 
L 99.463349 69.170087 
L 108.00689 70.171826 
L 116.550431 71.173565 
L 125.093971 72.175304 
L 133.637512 70.171826 
L 142.181053 66.16487 
L 150.724593 68.168348 
L 159.268134 68.168348 
L 167.811675 67.166609 
L 176.355215 71.173565 
L 184.898756 71.173565 
L 193.442297 73.177043 
L 201.985837 71.173565 
L 210.529378 70.171826 
L 219.072919 72.175304 
L 227.616459 76.182261 
L 236.16 73.177043 
L 244.703541 72.175304 
L 253.247081 74.178783 
L 261.790622 73.177043 
L 270.334163 76.182261 
L 278.877703 78.185739 
L 287.421244 79.187478 
L 295.964785 77.184 
L 304.508325 77.184 
L 313.051866 78.185739 
L 321.595407 132.279652 
L 330.138947 133.281391 
L 338.682488 133.281391 
L 347.226029 144.300522 
L 355.769569 141.295304 
L 364.31311 150.310957 
L 372.856651 150.310957 
L 381.400191 166.338783 
L 389.943732 165.337043 
L 398.487273 167.340522 
L 398.487273 167.340522 
L 398.487273 167.340522 
L 389.943732 165.337043 
L 381.400191 166.338783 
L 372.856651 150.310957 
L 364.31311 150.310957 
L 355.769569 141.295304 
L 347.226029 144.300522 
L 338.682488 133.281391 
L 330.138947 133.281391 
L 321.595407 132.279652 
L 313.051866 78.185739 
L 304.508325 77.184 
L 295.964785 77.184 
L 287.421244 75.180522 
L 278.877703 75.180522 
L 270.334163 72.175304 
L 261.790622 69.170087 
L 253.247081 71.173565 
L 244.703541 70.171826 
L 236.16 71.173565 
L 227.616459 72.175304 
L 219.072919 67.166609 
L 210.529378 67.166609 
L 201.985837 67.166609 
L 193.442297 70.171826 
L 184.898756 67.166609 
L 176.355215 68.168348 
L 167.811675 65.16313 
L 159.268134 64.161391 
L 150.724593 65.16313 
L 142.181053 63.159652 
L 133.637512 68.168348 
L 125.093971 69.170087 
L 116.550431 67.166609 
L 108.00689 67.166609 
L 99.463349 66.16487 
L 90.919809 66.16487 
L 82.376268 72.175304 
L 73.832727 60.154435 
z
" style="fill:#e377c2;"/>
   </g>
   <g id="PolyCollection_18">
    <path clip-path="url(#pc3a8d434f1)" d="M 73.832727 59.152696 
L 73.832727 60.154435 
L 82.376268 72.175304 
L 90.919809 66.16487 
L 99.463349 66.16487 
L 108.00689 67.166609 
L 116.550431 67.166609 
L 125.093971 69.170087 
L 133.637512 68.168348 
L 142.181053 63.159652 
L 150.724593 65.16313 
L 159.268134 64.161391 
L 167.811675 65.16313 
L 176.355215 68.168348 
L 184.898756 67.166609 
L 193.442297 70.171826 
L 201.985837 67.166609 
L 210.529378 67.166609 
L 219.072919 67.166609 
L 227.616459 72.175304 
L 236.16 71.173565 
L 244.703541 70.171826 
L 253.247081 71.173565 
L 261.790622 69.170087 
L 270.334163 72.175304 
L 278.877703 75.180522 
L 287.421244 75.180522 
L 295.964785 77.184 
L 304.508325 77.184 
L 313.051866 78.185739 
L 321.595407 132.279652 
L 330.138947 133.281391 
L 338.682488 133.281391 
L 347.226029 144.300522 
L 355.769569 141.295304 
L 364.31311 150.310957 
L 372.856651 150.310957 
L 381.400191 166.338783 
L 389.943732 165.337043 
L 398.487273 167.340522 
L 398.487273 165.337043 
L 398.487273 165.337043 
L 389.943732 163.333565 
L 381.400191 163.333565 
L 372.856651 148.307478 
L 364.31311 148.307478 
L 355.769569 139.291826 
L 347.226029 142.297043 
L 338.682488 131.277913 
L 330.138947 130.276174 
L 321.595407 130.276174 
L 313.051866 76.182261 
L 304.508325 75.180522 
L 295.964785 74.178783 
L 287.421244 73.177043 
L 278.877703 73.177043 
L 270.334163 70.171826 
L 261.790622 67.166609 
L 253.247081 68.168348 
L 244.703541 66.16487 
L 236.16 66.16487 
L 227.616459 68.168348 
L 219.072919 64.161391 
L 210.529378 65.16313 
L 201.985837 64.161391 
L 193.442297 67.166609 
L 184.898756 65.16313 
L 176.355215 65.16313 
L 167.811675 61.156174 
L 159.268134 61.156174 
L 150.724593 63.159652 
L 142.181053 60.154435 
L 133.637512 66.16487 
L 125.093971 66.16487 
L 116.550431 65.16313 
L 108.00689 65.16313 
L 99.463349 64.161391 
L 90.919809 64.161391 
L 82.376268 70.171826 
L 73.832727 59.152696 
z
" style="fill:#7f7f7f;"/>
   </g>
   <g id="PolyCollection_19">
    <path clip-path="url(#pc3a8d434f1)" d="M 73.832727 58.150957 
L 73.832727 59.152696 
L 82.376268 70.171826 
L 90.919809 64.161391 
L 99.463349 64.161391 
L 108.00689 65.16313 
L 116.550431 65.16313 
L 125.093971 66.16487 
L 133.637512 66.16487 
L 142.181053 60.154435 
L 150.724593 63.159652 
L 159.268134 61.156174 
L 167.811675 61.156174 
L 176.355215 65.16313 
L 184.898756 65.16313 
L 193.442297 67.166609 
L 201.985837 64.161391 
L 210.529378 65.16313 
L 219.072919 64.161391 
L 227.616459 68.168348 
L 236.16 66.16487 
L 244.703541 66.16487 
L 253.247081 68.168348 
L 261.790622 67.166609 
L 270.334163 70.171826 
L 278.877703 73.177043 
L 287.421244 73.177043 
L 295.964785 74.178783 
L 304.508325 75.180522 
L 313.051866 76.182261 
L 321.595407 130.276174 
L 330.138947 130.276174 
L 338.682488 131.277913 
L 347.226029 142.297043 
L 355.769569 139.291826 
L 364.31311 148.307478 
L 372.856651 148.307478 
L 381.400191 163.333565 
L 389.943732 163.333565 
L 398.487273 165.337043 
L 398.487273 130.276174 
L 398.487273 130.276174 
L 389.943732 129.274435 
L 381.400191 132.279652 
L 372.856651 118.255304 
L 364.31311 120.258783 
L 355.769569 124.265739 
L 347.226029 94.213565 
L 338.682488 114.248348 
L 330.138947 107.236174 
L 321.595407 111.24313 
L 313.051866 70.171826 
L 304.508325 67.166609 
L 295.964785 69.170087 
L 287.421244 69.170087 
L 278.877703 70.171826 
L 270.334163 66.16487 
L 261.790622 64.161391 
L 253.247081 65.16313 
L 244.703541 64.161391 
L 236.16 64.161391 
L 227.616459 65.16313 
L 219.072919 62.157913 
L 210.529378 62.157913 
L 201.985837 60.154435 
L 193.442297 64.161391 
L 184.898756 61.156174 
L 176.355215 61.156174 
L 167.811675 58.150957 
L 159.268134 57.149217 
L 150.724593 60.154435 
L 142.181053 58.150957 
L 133.637512 62.157913 
L 125.093971 63.159652 
L 116.550431 60.154435 
L 108.00689 61.156174 
L 99.463349 61.156174 
L 90.919809 60.154435 
L 82.376268 65.16313 
L 73.832727 58.150957 
z
" style="fill:#bcbd22;"/>
   </g>
   <g id="PolyCollection_20">
    <path clip-path="url(#pc3a8d434f1)" d="M 73.832727 57.149217 
L 73.832727 58.150957 
L 82.376268 65.16313 
L 90.919809 60.154435 
L 99.463349 61.156174 
L 108.00689 61.156174 
L 116.550431 60.154435 
L 125.093971 63.159652 
L 133.637512 62.157913 
L 142.181053 58.150957 
L 150.724593 60.154435 
L 159.268134 57.149217 
L 167.811675 58.150957 
L 176.355215 61.156174 
L 184.898756 61.156174 
L 193.442297 64.161391 
L 201.985837 60.154435 
L 210.529378 62.157913 
L 219.072919 62.157913 
L 227.616459 65.16313 
L 236.16 64.161391 
L 244.703541 64.161391 
L 253.247081 65.16313 
L 261.790622 64.161391 
L 270.334163 66.16487 
L 278.877703 70.171826 
L 287.421244 69.170087 
L 295.964785 69.170087 
L 304.508325 67.166609 
L 313.051866 70.171826 
L 321.595407 111.24313 
L 330.138947 107.236174 
L 338.682488 114.248348 
L 347.226029 94.213565 
L 355.769569 124.265739 
L 364.31311 120.258783 
L 372.856651 118.255304 
L 381.400191 132.279652 
L 389.943732 129.274435 
L 398.487273 130.276174 
L 398.487273 111.24313 
L 398.487273 111.24313 
L 389.943732 114.248348 
L 381.400191 115.250087 
L 372.856651 102.227478 
L 364.31311 107.236174 
L 355.769569 110.241391 
L 347.226029 79.187478 
L 338.682488 98.220522 
L 330.138947 93.211826 
L 321.595407 101.225739 
L 313.051866 59.152696 
L 304.508325 57.149217 
L 295.964785 57.149217 
L 287.421244 58.150957 
L 278.877703 58.150957 
L 270.334163 55.145739 
L 261.790622 55.145739 
L 253.247081 57.149217 
L 244.703541 56.147478 
L 236.16 56.147478 
L 227.616459 57.149217 
L 219.072919 54.144 
L 210.529378 56.147478 
L 201.985837 55.145739 
L 193.442297 58.150957 
L 184.898756 56.147478 
L 176.355215 56.147478 
L 167.811675 55.145739 
L 159.268134 54.144 
L 150.724593 56.147478 
L 142.181053 54.144 
L 133.637512 57.149217 
L 125.093971 59.152696 
L 116.550431 57.149217 
L 108.00689 57.149217 
L 99.463349 56.147478 
L 90.919809 54.144 
L 82.376268 57.149217 
L 73.832727 57.149217 
z
" style="fill:#17becf;"/>
   </g>
   <g id="PolyCollection_21">
    <path clip-path="url(#pc3a8d434f1)" d="M 73.832727 57.149217 
L 73.832727 57.149217 
L 82.376268 57.149217 
L 90.919809 54.144 
L 99.463349 56.147478 
L 108.00689 57.149217 
L 116.550431 57.149217 
L 125.093971 59.152696 
L 133.637512 57.149217 
L 142.181053 54.144 
L 150.724593 56.147478 
L 159.268134 54.144 
L 167.811675 55.145739 
L 176.355215 56.147478 
L 184.898756 56.147478 
L 193.442297 58.150957 
L 201.985837 55.145739 
L 210.529378 56.147478 
L 219.072919 54.144 
L 227.616459 57.149217 
L 236.16 56.147478 
L 244.703541 56.147478 
L 253.247081 57.149217 
L 261.790622 55.145739 
L 270.334163 55.145739 
L 278.877703 58.150957 
L 287.421244 58.150957 
L 295.964785 57.149217 
L 304.508325 57.149217 
L 313.051866 59.152696 
L 321.595407 101.225739 
L 330.138947 93.211826 
L 338.682488 98.220522 
L 347.226029 79.187478 
L 355.769569 110.241391 
L 364.31311 107.236174 
L 372.856651 102.227478 
L 381.400191 115.250087 
L 389.943732 114.248348 
L 398.487273 111.24313 
L 398.487273 57.149217 
L 398.487273 57.149217 
L 389.943732 58.150957 
L 381.400191 59.152696 
L 372.856651 55.145739 
L 364.31311 57.149217 
L 355.769569 58.150957 
L 347.226029 55.145739 
L 338.682488 57.149217 
L 330.138947 58.150957 
L 321.595407 60.154435 
L 313.051866 59.152696 
L 304.508325 57.149217 
L 295.964785 57.149217 
L 287.421244 58.150957 
L 278.877703 58.150957 
L 270.334163 55.145739 
L 261.790622 55.145739 
L 253.247081 57.149217 
L 244.703541 56.147478 
L 236.16 56.147478 
L 227.616459 57.149217 
L 219.072919 54.144 
L 210.529378 56.147478 
L 201.985837 55.145739 
L 193.442297 58.150957 
L 184.898756 56.147478 
L 176.355215 56.147478 
L 167.811675 55.145739 
L 159.268134 54.144 
L 150.724593 56.147478 
L 142.181053 54.144 
L 133.637512 57.149217 
L 125.093971 59.152696 
L 116.550431 57.149217 
L 108.00689 57.149217 
L 99.463349 56.147478 
L 90.919809 54.144 
L 82.376268 57.149217 
L 73.832727 57.149217 
z
" style="fill:#1f77b4;"/>
   </g>
   <g id="matplotlib.axis_1">
    <g id="xtick_1">
     <g id="line2d_1">
      <defs>
       <path d="M 0 0 
L 0 3.5 
" id="m16d238926a" style="stroke:#000000;stroke-width:0.8;"/>
      </defs>
      <g>
       <use style="stroke:#000000;stroke-width:0.8;" x="73.832727" xlink:href="#m16d238926a" y="307.584"/>
      </g>
     </g>
     <g id="text_1">
      <!-- 0 -->
      <defs>
       <path d="M 31.78125 66.40625 
Q 24.171875 66.40625 20.328125 58.90625 
Q 16.5 51.421875 16.5 36.375 
Q 16.5 21.390625 20.328125 13.890625 
Q 24.171875 6.390625 31.78125 6.390625 
Q 39.453125 6.390625 43.28125 13.890625 
Q 47.125 21.390625 47.125 36.375 
Q 47.125 51.421875 43.28125 58.90625 
Q 39.453125 66.40625 31.78125 66.40625 
z
M 31.78125 74.21875 
Q 44.046875 74.21875 50.515625 64.515625 
Q 56.984375 54.828125 56.984375 36.375 
Q 56.984375 17.96875 50.515625 8.265625 
Q 44.046875 -1.421875 31.78125 -1.421875 
Q 19.53125 -1.421875 13.0625 8.265625 
Q 6.59375 17.96875 6.59375 36.375 
Q 6.59375 54.828125 13.0625 64.515625 
Q 19.53125 74.21875 31.78125 74.21875 
z
" id="DejaVuSans-48"/>
      </defs>
      <g transform="translate(70.651477 322.182437)scale(0.1 -0.1)">
       <use xlink:href="#DejaVuSans-48"/>
      </g>
     </g>
    </g>
    <g id="xtick_2">
     <g id="line2d_2">
      <g>
       <use style="stroke:#000000;stroke-width:0.8;" x="116.550431" xlink:href="#m16d238926a" y="307.584"/>
      </g>
     </g>
     <g id="text_2">
      <!-- 5 -->
      <defs>
       <path d="M 10.796875 72.90625 
L 49.515625 72.90625 
L 49.515625 64.59375 
L 19.828125 64.59375 
L 19.828125 46.734375 
Q 21.96875 47.46875 24.109375 47.828125 
Q 26.265625 48.1875 28.421875 48.1875 
Q 40.625 48.1875 47.75 41.5 
Q 54.890625 34.8125 54.890625 23.390625 
Q 54.890625 11.625 47.5625 5.09375 
Q 40.234375 -1.421875 26.90625 -1.421875 
Q 22.3125 -1.421875 17.546875 -0.640625 
Q 12.796875 0.140625 7.71875 1.703125 
L 7.71875 11.625 
Q 12.109375 9.234375 16.796875 8.0625 
Q 21.484375 6.890625 26.703125 6.890625 
Q 35.15625 6.890625 40.078125 11.328125 
Q 45.015625 15.765625 45.015625 23.390625 
Q 45.015625 31 40.078125 35.4375 
Q 35.15625 39.890625 26.703125 39.890625 
Q 22.75 39.890625 18.8125 39.015625 
Q 14.890625 38.140625 10.796875 36.28125 
z
" id="DejaVuSans-53"/>
      </defs>
      <g transform="translate(113.369181 322.182437)scale(0.1 -0.1)">
       <use xlink:href="#DejaVuSans-53"/>
      </g>
     </g>
    </g>
    <g id="xtick_3">
     <g id="line2d_3">
      <g>
       <use style="stroke:#000000;stroke-width:0.8;" x="159.268134" xlink:href="#m16d238926a" y="307.584"/>
      </g>
     </g>
     <g id="text_3">
      <!-- 10 -->
      <defs>
       <path d="M 12.40625 8.296875 
L 28.515625 8.296875 
L 28.515625 63.921875 
L 10.984375 60.40625 
L 10.984375 69.390625 
L 28.421875 72.90625 
L 38.28125 72.90625 
L 38.28125 8.296875 
L 54.390625 8.296875 
L 54.390625 0 
L 12.40625 0 
z
" id="DejaVuSans-49"/>
      </defs>
      <g transform="translate(152.905634 322.182437)scale(0.1 -0.1)">
       <use xlink:href="#DejaVuSans-49"/>
       <use x="63.623047" xlink:href="#DejaVuSans-48"/>
      </g>
     </g>
    </g>
    <g id="xtick_4">
     <g id="line2d_4">
      <g>
       <use style="stroke:#000000;stroke-width:0.8;" x="201.985837" xlink:href="#m16d238926a" y="307.584"/>
      </g>
     </g>
     <g id="text_4">
      <!-- 15 -->
      <g transform="translate(195.623337 322.182437)scale(0.1 -0.1)">
       <use xlink:href="#DejaVuSans-49"/>
       <use x="63.623047" xlink:href="#DejaVuSans-53"/>
      </g>
     </g>
    </g>
    <g id="xtick_5">
     <g id="line2d_5">
      <g>
       <use style="stroke:#000000;stroke-width:0.8;" x="244.703541" xlink:href="#m16d238926a" y="307.584"/>
      </g>
     </g>
     <g id="text_5">
      <!-- 20 -->
      <defs>
       <path d="M 19.1875 8.296875 
L 53.609375 8.296875 
L 53.609375 0 
L 7.328125 0 
L 7.328125 8.296875 
Q 12.9375 14.109375 22.625 23.890625 
Q 32.328125 33.6875 34.8125 36.53125 
Q 39.546875 41.84375 41.421875 45.53125 
Q 43.3125 49.21875 43.3125 52.78125 
Q 43.3125 58.59375 39.234375 62.25 
Q 35.15625 65.921875 28.609375 65.921875 
Q 23.96875 65.921875 18.8125 64.3125 
Q 13.671875 62.703125 7.8125 59.421875 
L 7.8125 69.390625 
Q 13.765625 71.78125 18.9375 73 
Q 24.125 74.21875 28.421875 74.21875 
Q 39.75 74.21875 46.484375 68.546875 
Q 53.21875 62.890625 53.21875 53.421875 
Q 53.21875 48.921875 51.53125 44.890625 
Q 49.859375 40.875 45.40625 35.40625 
Q 44.1875 33.984375 37.640625 27.21875 
Q 31.109375 20.453125 19.1875 8.296875 
z
" id="DejaVuSans-50"/>
      </defs>
      <g transform="translate(238.341041 322.182437)scale(0.1 -0.1)">
       <use xlink:href="#DejaVuSans-50"/>
       <use x="63.623047" xlink:href="#DejaVuSans-48"/>
      </g>
     </g>
    </g>
    <g id="xtick_6">
     <g id="line2d_6">
      <g>
       <use style="stroke:#000000;stroke-width:0.8;" x="287.421244" xlink:href="#m16d238926a" y="307.584"/>
      </g>
     </g>
     <g id="text_6">
      <!-- 25 -->
      <g transform="translate(281.058744 322.182437)scale(0.1 -0.1)">
       <use xlink:href="#DejaVuSans-50"/>
       <use x="63.623047" xlink:href="#DejaVuSans-53"/>
      </g>
     </g>
    </g>
    <g id="xtick_7">
     <g id="line2d_7">
      <g>
       <use style="stroke:#000000;stroke-width:0.8;" x="330.138947" xlink:href="#m16d238926a" y="307.584"/>
      </g>
     </g>
     <g id="text_7">
      <!-- 30 -->
      <defs>
       <path d="M 40.578125 39.3125 
Q 47.65625 37.796875 51.625 33 
Q 55.609375 28.21875 55.609375 21.1875 
Q 55.609375 10.40625 48.1875 4.484375 
Q 40.765625 -1.421875 27.09375 -1.421875 
Q 22.515625 -1.421875 17.65625 -0.515625 
Q 12.796875 0.390625 7.625 2.203125 
L 7.625 11.71875 
Q 11.71875 9.328125 16.59375 8.109375 
Q 21.484375 6.890625 26.8125 6.890625 
Q 36.078125 6.890625 40.9375 10.546875 
Q 45.796875 14.203125 45.796875 21.1875 
Q 45.796875 27.640625 41.28125 31.265625 
Q 36.765625 34.90625 28.71875 34.90625 
L 20.21875 34.90625 
L 20.21875 43.015625 
L 29.109375 43.015625 
Q 36.375 43.015625 40.234375 45.921875 
Q 44.09375 48.828125 44.09375 54.296875 
Q 44.09375 59.90625 40.109375 62.90625 
Q 36.140625 65.921875 28.71875 65.921875 
Q 24.65625 65.921875 20.015625 65.03125 
Q 15.375 64.15625 9.8125 62.3125 
L 9.8125 71.09375 
Q 15.4375 72.65625 20.34375 73.4375 
Q 25.25 74.21875 29.59375 74.21875 
Q 40.828125 74.21875 47.359375 69.109375 
Q 53.90625 64.015625 53.90625 55.328125 
Q 53.90625 49.265625 50.4375 45.09375 
Q 46.96875 40.921875 40.578125 39.3125 
z
" id="DejaVuSans-51"/>
      </defs>
      <g transform="translate(323.776447 322.182437)scale(0.1 -0.1)">
       <use xlink:href="#DejaVuSans-51"/>
       <use x="63.623047" xlink:href="#DejaVuSans-48"/>
      </g>
     </g>
    </g>
    <g id="xtick_8">
     <g id="line2d_8">
      <g>
       <use style="stroke:#000000;stroke-width:0.8;" x="372.856651" xlink:href="#m16d238926a" y="307.584"/>
      </g>
     </g>
     <g id="text_8">
      <!-- 35 -->
      <g transform="translate(366.494151 322.182437)scale(0.1 -0.1)">
       <use xlink:href="#DejaVuSans-51"/>
       <use x="63.623047" xlink:href="#DejaVuSans-53"/>
      </g>
     </g>
    </g>
    <g id="text_9">
     <!-- Generations -->
     <defs>
      <path d="M 59.515625 10.40625 
L 59.515625 29.984375 
L 43.40625 29.984375 
L 43.40625 38.09375 
L 69.28125 38.09375 
L 69.28125 6.78125 
Q 63.578125 2.734375 56.6875 0.65625 
Q 49.8125 -1.421875 42 -1.421875 
Q 24.90625 -1.421875 15.25 8.5625 
Q 5.609375 18.5625 5.609375 36.375 
Q 5.609375 54.25 15.25 64.234375 
Q 24.90625 74.21875 42 74.21875 
Q 49.125 74.21875 55.546875 72.453125 
Q 61.96875 70.703125 67.390625 67.28125 
L 67.390625 56.78125 
Q 61.921875 61.421875 55.765625 63.765625 
Q 49.609375 66.109375 42.828125 66.109375 
Q 29.4375 66.109375 22.71875 58.640625 
Q 16.015625 51.171875 16.015625 36.375 
Q 16.015625 21.625 22.71875 14.15625 
Q 29.4375 6.6875 42.828125 6.6875 
Q 48.046875 6.6875 52.140625 7.59375 
Q 56.25 8.5 59.515625 10.40625 
z
" id="DejaVuSans-71"/>
      <path d="M 56.203125 29.59375 
L 56.203125 25.203125 
L 14.890625 25.203125 
Q 15.484375 15.921875 20.484375 11.0625 
Q 25.484375 6.203125 34.421875 6.203125 
Q 39.59375 6.203125 44.453125 7.46875 
Q 49.3125 8.734375 54.109375 11.28125 
L 54.109375 2.78125 
Q 49.265625 0.734375 44.1875 -0.34375 
Q 39.109375 -1.421875 33.890625 -1.421875 
Q 20.796875 -1.421875 13.15625 6.1875 
Q 5.515625 13.8125 5.515625 26.8125 
Q 5.515625 40.234375 12.765625 48.109375 
Q 20.015625 56 32.328125 56 
Q 43.359375 56 49.78125 48.890625 
Q 56.203125 41.796875 56.203125 29.59375 
z
M 47.21875 32.234375 
Q 47.125 39.59375 43.09375 43.984375 
Q 39.0625 48.390625 32.421875 48.390625 
Q 24.90625 48.390625 20.390625 44.140625 
Q 15.875 39.890625 15.1875 32.171875 
z
" id="DejaVuSans-101"/>
      <path d="M 54.890625 33.015625 
L 54.890625 0 
L 45.90625 0 
L 45.90625 32.71875 
Q 45.90625 40.484375 42.875 44.328125 
Q 39.84375 48.1875 33.796875 48.1875 
Q 26.515625 48.1875 22.3125 43.546875 
Q 18.109375 38.921875 18.109375 30.90625 
L 18.109375 0 
L 9.078125 0 
L 9.078125 54.6875 
L 18.109375 54.6875 
L 18.109375 46.1875 
Q 21.34375 51.125 25.703125 53.5625 
Q 30.078125 56 35.796875 56 
Q 45.21875 56 50.046875 50.171875 
Q 54.890625 44.34375 54.890625 33.015625 
z
" id="DejaVuSans-110"/>
      <path d="M 41.109375 46.296875 
Q 39.59375 47.171875 37.8125 47.578125 
Q 36.03125 48 33.890625 48 
Q 26.265625 48 22.1875 43.046875 
Q 18.109375 38.09375 18.109375 28.8125 
L 18.109375 0 
L 9.078125 0 
L 9.078125 54.6875 
L 18.109375 54.6875 
L 18.109375 46.1875 
Q 20.953125 51.171875 25.484375 53.578125 
Q 30.03125 56 36.53125 56 
Q 37.453125 56 38.578125 55.875 
Q 39.703125 55.765625 41.0625 55.515625 
z
" id="DejaVuSans-114"/>
      <path d="M 34.28125 27.484375 
Q 23.390625 27.484375 19.1875 25 
Q 14.984375 22.515625 14.984375 16.5 
Q 14.984375 11.71875 18.140625 8.90625 
Q 21.296875 6.109375 26.703125 6.109375 
Q 34.1875 6.109375 38.703125 11.40625 
Q 43.21875 16.703125 43.21875 25.484375 
L 43.21875 27.484375 
z
M 52.203125 31.203125 
L 52.203125 0 
L 43.21875 0 
L 43.21875 8.296875 
Q 40.140625 3.328125 35.546875 0.953125 
Q 30.953125 -1.421875 24.3125 -1.421875 
Q 15.921875 -1.421875 10.953125 3.296875 
Q 6 8.015625 6 15.921875 
Q 6 25.140625 12.171875 29.828125 
Q 18.359375 34.515625 30.609375 34.515625 
L 43.21875 34.515625 
L 43.21875 35.40625 
Q 43.21875 41.609375 39.140625 45 
Q 35.0625 48.390625 27.6875 48.390625 
Q 23 48.390625 18.546875 47.265625 
Q 14.109375 46.140625 10.015625 43.890625 
L 10.015625 52.203125 
Q 14.9375 54.109375 19.578125 55.046875 
Q 24.21875 56 28.609375 56 
Q 40.484375 56 46.34375 49.84375 
Q 52.203125 43.703125 52.203125 31.203125 
z
" id="DejaVuSans-97"/>
      <path d="M 18.3125 70.21875 
L 18.3125 54.6875 
L 36.8125 54.6875 
L 36.8125 47.703125 
L 18.3125 47.703125 
L 18.3125 18.015625 
Q 18.3125 11.328125 20.140625 9.421875 
Q 21.96875 7.515625 27.59375 7.515625 
L 36.8125 7.515625 
L 36.8125 0 
L 27.59375 0 
Q 17.1875 0 13.234375 3.875 
Q 9.28125 7.765625 9.28125 18.015625 
L 9.28125 47.703125 
L 2.6875 47.703125 
L 2.6875 54.6875 
L 9.28125 54.6875 
L 9.28125 70.21875 
z
" id="DejaVuSans-116"/>
      <path d="M 9.421875 54.6875 
L 18.40625 54.6875 
L 18.40625 0 
L 9.421875 0 
z
M 9.421875 75.984375 
L 18.40625 75.984375 
L 18.40625 64.59375 
L 9.421875 64.59375 
z
" id="DejaVuSans-105"/>
      <path d="M 30.609375 48.390625 
Q 23.390625 48.390625 19.1875 42.75 
Q 14.984375 37.109375 14.984375 27.296875 
Q 14.984375 17.484375 19.15625 11.84375 
Q 23.34375 6.203125 30.609375 6.203125 
Q 37.796875 6.203125 41.984375 11.859375 
Q 46.1875 17.53125 46.1875 27.296875 
Q 46.1875 37.015625 41.984375 42.703125 
Q 37.796875 48.390625 30.609375 48.390625 
z
M 30.609375 56 
Q 42.328125 56 49.015625 48.375 
Q 55.71875 40.765625 55.71875 27.296875 
Q 55.71875 13.875 49.015625 6.21875 
Q 42.328125 -1.421875 30.609375 -1.421875 
Q 18.84375 -1.421875 12.171875 6.21875 
Q 5.515625 13.875 5.515625 27.296875 
Q 5.515625 40.765625 12.171875 48.375 
Q 18.84375 56 30.609375 56 
z
" id="DejaVuSans-111"/>
      <path d="M 44.28125 53.078125 
L 44.28125 44.578125 
Q 40.484375 46.53125 36.375 47.5 
Q 32.28125 48.484375 27.875 48.484375 
Q 21.1875 48.484375 17.84375 46.4375 
Q 14.5 44.390625 14.5 40.28125 
Q 14.5 37.15625 16.890625 35.375 
Q 19.28125 33.59375 26.515625 31.984375 
L 29.59375 31.296875 
Q 39.15625 29.25 43.1875 25.515625 
Q 47.21875 21.78125 47.21875 15.09375 
Q 47.21875 7.46875 41.1875 3.015625 
Q 35.15625 -1.421875 24.609375 -1.421875 
Q 20.21875 -1.421875 15.453125 -0.5625 
Q 10.6875 0.296875 5.421875 2 
L 5.421875 11.28125 
Q 10.40625 8.6875 15.234375 7.390625 
Q 20.0625 6.109375 24.8125 6.109375 
Q 31.15625 6.109375 34.5625 8.28125 
Q 37.984375 10.453125 37.984375 14.40625 
Q 37.984375 18.0625 35.515625 20.015625 
Q 33.0625 21.96875 24.703125 23.78125 
L 21.578125 24.515625 
Q 13.234375 26.265625 9.515625 29.90625 
Q 5.8125 33.546875 5.8125 39.890625 
Q 5.8125 47.609375 11.28125 51.796875 
Q 16.75 56 26.8125 56 
Q 31.78125 56 36.171875 55.265625 
Q 40.578125 54.546875 44.28125 53.078125 
z
" id="DejaVuSans-115"/>
     </defs>
     <g transform="translate(205.662344 335.860562)scale(0.1 -0.1)">
      <use xlink:href="#DejaVuSans-71"/>
      <use x="77.490234" xlink:href="#DejaVuSans-101"/>
      <use x="139.013672" xlink:href="#DejaVuSans-110"/>
      <use x="202.392578" xlink:href="#DejaVuSans-101"/>
      <use x="263.916016" xlink:href="#DejaVuSans-114"/>
      <use x="305.029297" xlink:href="#DejaVuSans-97"/>
      <use x="366.308594" xlink:href="#DejaVuSans-116"/>
      <use x="405.517578" xlink:href="#DejaVuSans-105"/>
      <use x="433.300781" xlink:href="#DejaVuSans-111"/>
      <use x="494.482422" xlink:href="#DejaVuSans-110"/>
      <use x="557.861328" xlink:href="#DejaVuSans-115"/>
     </g>
    </g>
   </g>
   <g id="matplotlib.axis_2">
    <g id="ytick_1">
     <g id="line2d_9">
      <defs>
       <path d="M 0 0 
L -3.5 0 
" id="m3a73853d63" style="stroke:#000000;stroke-width:0.8;"/>
      </defs>
      <g>
       <use style="stroke:#000000;stroke-width:0.8;" x="57.6" xlink:href="#m3a73853d63" y="307.584"/>
      </g>
     </g>
     <g id="text_10">
      <!-- 0 -->
      <g transform="translate(44.2375 311.383219)scale(0.1 -0.1)">
       <use xlink:href="#DejaVuSans-48"/>
      </g>
     </g>
    </g>
    <g id="ytick_2">
     <g id="line2d_10">
      <g>
       <use style="stroke:#000000;stroke-width:0.8;" x="57.6" xlink:href="#m3a73853d63" y="257.497043"/>
      </g>
     </g>
     <g id="text_11">
      <!-- 50 -->
      <g transform="translate(37.875 261.296262)scale(0.1 -0.1)">
       <use xlink:href="#DejaVuSans-53"/>
       <use x="63.623047" xlink:href="#DejaVuSans-48"/>
      </g>
     </g>
    </g>
    <g id="ytick_3">
     <g id="line2d_11">
      <g>
       <use style="stroke:#000000;stroke-width:0.8;" x="57.6" xlink:href="#m3a73853d63" y="207.410087"/>
      </g>
     </g>
     <g id="text_12">
      <!-- 100 -->
      <g transform="translate(31.5125 211.209306)scale(0.1 -0.1)">
       <use xlink:href="#DejaVuSans-49"/>
       <use x="63.623047" xlink:href="#DejaVuSans-48"/>
       <use x="127.246094" xlink:href="#DejaVuSans-48"/>
      </g>
     </g>
    </g>
    <g id="ytick_4">
     <g id="line2d_12">
      <g>
       <use style="stroke:#000000;stroke-width:0.8;" x="57.6" xlink:href="#m3a73853d63" y="157.32313"/>
      </g>
     </g>
     <g id="text_13">
      <!-- 150 -->
      <g transform="translate(31.5125 161.122349)scale(0.1 -0.1)">
       <use xlink:href="#DejaVuSans-49"/>
       <use x="63.623047" xlink:href="#DejaVuSans-53"/>
       <use x="127.246094" xlink:href="#DejaVuSans-48"/>
      </g>
     </g>
    </g>
    <g id="ytick_5">
     <g id="line2d_13">
      <g>
       <use style="stroke:#000000;stroke-width:0.8;" x="57.6" xlink:href="#m3a73853d63" y="107.236174"/>
      </g>
     </g>
     <g id="text_14">
      <!-- 200 -->
      <g transform="translate(31.5125 111.035393)scale(0.1 -0.1)">
       <use xlink:href="#DejaVuSans-50"/>
       <use x="63.623047" xlink:href="#DejaVuSans-48"/>
       <use x="127.246094" xlink:href="#DejaVuSans-48"/>
      </g>
     </g>
    </g>
    <g id="ytick_6">
     <g id="line2d_14">
      <g>
       <use style="stroke:#000000;stroke-width:0.8;" x="57.6" xlink:href="#m3a73853d63" y="57.149217"/>
      </g>
     </g>
     <g id="text_15">
      <!-- 250 -->
      <g transform="translate(31.5125 60.948436)scale(0.1 -0.1)">
       <use xlink:href="#DejaVuSans-50"/>
       <use x="63.623047" xlink:href="#DejaVuSans-53"/>
       <use x="127.246094" xlink:href="#DejaVuSans-48"/>
      </g>
     </g>
    </g>
    <g id="text_16">
     <!-- Size per Species -->
     <defs>
      <path d="M 53.515625 70.515625 
L 53.515625 60.890625 
Q 47.90625 63.578125 42.921875 64.890625 
Q 37.9375 66.21875 33.296875 66.21875 
Q 25.25 66.21875 20.875 63.09375 
Q 16.5 59.96875 16.5 54.203125 
Q 16.5 49.359375 19.40625 46.890625 
Q 22.3125 44.4375 30.421875 42.921875 
L 36.375 41.703125 
Q 47.40625 39.59375 52.65625 34.296875 
Q 57.90625 29 57.90625 20.125 
Q 57.90625 9.515625 50.796875 4.046875 
Q 43.703125 -1.421875 29.984375 -1.421875 
Q 24.8125 -1.421875 18.96875 -0.25 
Q 13.140625 0.921875 6.890625 3.21875 
L 6.890625 13.375 
Q 12.890625 10.015625 18.65625 8.296875 
Q 24.421875 6.59375 29.984375 6.59375 
Q 38.421875 6.59375 43.015625 9.90625 
Q 47.609375 13.234375 47.609375 19.390625 
Q 47.609375 24.75 44.3125 27.78125 
Q 41.015625 30.8125 33.5 32.328125 
L 27.484375 33.5 
Q 16.453125 35.6875 11.515625 40.375 
Q 6.59375 45.0625 6.59375 53.421875 
Q 6.59375 63.09375 13.40625 68.65625 
Q 20.21875 74.21875 32.171875 74.21875 
Q 37.3125 74.21875 42.625 73.28125 
Q 47.953125 72.359375 53.515625 70.515625 
z
" id="DejaVuSans-83"/>
      <path d="M 5.515625 54.6875 
L 48.1875 54.6875 
L 48.1875 46.484375 
L 14.40625 7.171875 
L 48.1875 7.171875 
L 48.1875 0 
L 4.296875 0 
L 4.296875 8.203125 
L 38.09375 47.515625 
L 5.515625 47.515625 
z
" id="DejaVuSans-122"/>
      <path id="DejaVuSans-32"/>
      <path d="M 18.109375 8.203125 
L 18.109375 -20.796875 
L 9.078125 -20.796875 
L 9.078125 54.6875 
L 18.109375 54.6875 
L 18.109375 46.390625 
Q 20.953125 51.265625 25.265625 53.625 
Q 29.59375 56 35.59375 56 
Q 45.5625 56 51.78125 48.09375 
Q 58.015625 40.1875 58.015625 27.296875 
Q 58.015625 14.40625 51.78125 6.484375 
Q 45.5625 -1.421875 35.59375 -1.421875 
Q 29.59375 -1.421875 25.265625 0.953125 
Q 20.953125 3.328125 18.109375 8.203125 
z
M 48.6875 27.296875 
Q 48.6875 37.203125 44.609375 42.84375 
Q 40.53125 48.484375 33.40625 48.484375 
Q 26.265625 48.484375 22.1875 42.84375 
Q 18.109375 37.203125 18.109375 27.296875 
Q 18.109375 17.390625 22.1875 11.75 
Q 26.265625 6.109375 33.40625 6.109375 
Q 40.53125 6.109375 44.609375 11.75 
Q 48.6875 17.390625 48.6875 27.296875 
z
" id="DejaVuSans-112"/>
      <path d="M 48.78125 52.59375 
L 48.78125 44.1875 
Q 44.96875 46.296875 41.140625 47.34375 
Q 37.3125 48.390625 33.40625 48.390625 
Q 24.65625 48.390625 19.8125 42.84375 
Q 14.984375 37.3125 14.984375 27.296875 
Q 14.984375 17.28125 19.8125 11.734375 
Q 24.65625 6.203125 33.40625 6.203125 
Q 37.3125 6.203125 41.140625 7.25 
Q 44.96875 8.296875 48.78125 10.40625 
L 48.78125 2.09375 
Q 45.015625 0.34375 40.984375 -0.53125 
Q 36.96875 -1.421875 32.421875 -1.421875 
Q 20.0625 -1.421875 12.78125 6.34375 
Q 5.515625 14.109375 5.515625 27.296875 
Q 5.515625 40.671875 12.859375 48.328125 
Q 20.21875 56 33.015625 56 
Q 37.15625 56 41.109375 55.140625 
Q 45.0625 54.296875 48.78125 52.59375 
z
" id="DejaVuSans-99"/>
     </defs>
     <g transform="translate(25.432812 215.520969)rotate(-90)scale(0.1 -0.1)">
      <use xlink:href="#DejaVuSans-83"/>
      <use x="63.476562" xlink:href="#DejaVuSans-105"/>
      <use x="91.259766" xlink:href="#DejaVuSans-122"/>
      <use x="143.75" xlink:href="#DejaVuSans-101"/>
      <use x="205.273438" xlink:href="#DejaVuSans-32"/>
      <use x="237.060547" xlink:href="#DejaVuSans-112"/>
      <use x="300.537109" xlink:href="#DejaVuSans-101"/>
      <use x="362.060547" xlink:href="#DejaVuSans-114"/>
      <use x="403.173828" xlink:href="#DejaVuSans-32"/>
      <use x="434.960938" xlink:href="#DejaVuSans-83"/>
      <use x="498.4375" xlink:href="#DejaVuSans-112"/>
      <use x="561.914062" xlink:href="#DejaVuSans-101"/>
      <use x="623.4375" xlink:href="#DejaVuSans-99"/>
      <use x="678.417969" xlink:href="#DejaVuSans-105"/>
      <use x="706.201172" xlink:href="#DejaVuSans-101"/>
      <use x="767.724609" xlink:href="#DejaVuSans-115"/>
     </g>
    </g>
   </g>
   <g id="patch_3">
    <path d="M 57.6 307.584 
L 57.6 41.472 
" style="fill:none;stroke:#000000;stroke-linecap:square;stroke-linejoin:miter;stroke-width:0.8;"/>
   </g>
   <g id="patch_4">
    <path d="M 414.72 307.584 
L 414.72 41.472 
" style="fill:none;stroke:#000000;stroke-linecap:square;stroke-linejoin:miter;stroke-width:0.8;"/>
   </g>
   <g id="patch_5">
    <path d="M 57.6 307.584 
L 414.72 307.584 
" style="fill:none;stroke:#000000;stroke-linecap:square;stroke-linejoin:miter;stroke-width:0.8;"/>
   </g>
   <g id="patch_6">
    <path d="M 57.6 41.472 
L 414.72 41.472 
" style="fill:none;stroke:#000000;stroke-linecap:square;stroke-linejoin:miter;stroke-width:0.8;"/>
   </g>
   <g id="text_17">
    <!-- Speciation -->
    <g transform="translate(204.714375 35.472)scale(0.12 -0.12)">
     <use xlink:href="#DejaVuSans-83"/>
     <use x="63.476562" xlink:href="#DejaVuSans-112"/>
     <use x="126.953125" xlink:href="#DejaVuSans-101"/>
     <use x="188.476562" xlink:href="#DejaVuSans-99"/>
     <use x="243.457031" xlink:href="#DejaVuSans-105"/>
     <use x="271.240234" xlink:href="#DejaVuSans-97"/>
     <use x="332.519531" xlink:href="#DejaVuSans-116"/>
     <use x="371.728516" xlink:href="#DejaVuSans-105"/>
     <use x="399.511719" xlink:href="#DejaVuSans-111"/>
     <use x="460.693359" xlink:href="#DejaVuSans-110"/>
    </g>
   </g>
  </g>
 </g>
 <defs>
  <clipPath id="pc3a8d434f1">
   <rect height="266.112" width="357.12" x="57.6" y="41.472"/>
  </clipPath>
 </defs>
</svg>
