<?xml version="1.0" encoding="UTF-8" standalone="no"?>
<!DOCTYPE svg PUBLIC "-//W3C//DTD SVG 1.1//EN"
 "http://www.w3.org/Graphics/SVG/1.1/DTD/svg11.dtd">
<!-- Generated by graphviz version 2.38.0 (20140413.2041)
 -->
<!-- Title: %3 Pages: 1 -->
<svg width="295pt" height="449pt"
 viewBox="0.00 0.00 294.75 449.24" xmlns="http://www.w3.org/2000/svg" xmlns:xlink="http://www.w3.org/1999/xlink">
<g id="graph0" class="graph" transform="scale(1 1) rotate(0) translate(4 445.245)">
<title>%3</title>
<polygon fill="white" stroke="none" points="-4,4 -4,-445.245 290.749,-445.245 290.749,4 -4,4"/>
<!-- x -->
<g id="node1" class="node"><title>x</title>
<polygon fill="lightgray" stroke="black" points="20,-441.245 0,-441.245 0,-423.245 20,-423.245 20,-441.245"/>
<text text-anchor="middle" x="10" y="-430.045" font-family="Times New Roman,serif" font-size="9.00">x</text>
</g>
<!-- control -->
<g id="node5" class="node"><title>control</title>
<ellipse fill="lightblue" stroke="black" cx="56" cy="-357.546" rx="29.8983" ry="29.8983"/>
<text text-anchor="middle" x="56" y="-355.346" font-family="Times New Roman,serif" font-size="9.00">control</text>
</g>
<!-- x&#45;&gt;control -->
<g id="edge1" class="edge"><title>x&#45;&gt;control</title>
<path fill="none" stroke="green" stroke-width="0.261377" d="M15.0986,-423.187C19.9451,-415.528 27.5669,-403.482 34.9242,-391.854"/>
<polygon fill="green" stroke="green" stroke-width="0.261377" points="38.0592,-393.446 40.4485,-383.124 32.1438,-389.703 38.0592,-393.446"/>
</g>
<!-- dx -->
<g id="node2" class="node"><title>dx</title>
<polygon fill="lightgray" stroke="black" points="190.5,-441.245 165.5,-441.245 165.5,-423.245 190.5,-423.245 190.5,-441.245"/>
<text text-anchor="middle" x="178" y="-430.045" font-family="Times New Roman,serif" font-size="9.00">dx</text>
</g>
<!-- dx&#45;&gt;control -->
<g id="edge3" class="edge"><title>dx&#45;&gt;control</title>
<path fill="none" stroke="green" stroke-width="0.441993" d="M165.403,-425.448C148.654,-417.562 118.338,-402.662 94,-387.245 91.8001,-385.851 89.5662,-384.366 87.34,-382.833"/>
<polygon fill="green" stroke="green" stroke-width="0.441993" points="89.0483,-379.751 78.8802,-376.775 84.9727,-385.443 89.0483,-379.751"/>
</g>
<!-- 1227 -->
<g id="node6" class="node"><title>1227</title>
<ellipse fill="none" stroke="black" cx="128" cy="-357.546" rx="25" ry="25"/>
<text text-anchor="middle" x="128" y="-355.346" font-family="Times New Roman,serif" font-size="9.00">1227</text>
</g>
<!-- dx&#45;&gt;1227 -->
<g id="edge5" class="edge"><title>dx&#45;&gt;1227</title>
<path fill="none" stroke="red" stroke-width="0.248477" d="M172.458,-423.187C166.409,-414.392 156.384,-399.816 147.383,-386.728"/>
<polygon fill="red" stroke="red" stroke-width="0.248477" points="150.219,-384.675 141.668,-378.419 144.451,-388.642 150.219,-384.675"/>
</g>
<!-- 1371 -->
<g id="node8" class="node"><title>1371</title>
<ellipse fill="none" stroke="black" cx="262" cy="-357.546" rx="25" ry="25"/>
<text text-anchor="middle" x="262" y="-355.346" font-family="Times New Roman,serif" font-size="9.00">1371</text>
</g>
<!-- dx&#45;&gt;1371 -->
<g id="edge7" class="edge"><title>dx&#45;&gt;1371</title>
<path fill="none" stroke="red" stroke-width="0.373302" d="M187.409,-423.146C197.651,-414.327 214.504,-399.801 229,-387.245 231.206,-385.334 233.493,-383.35 235.788,-381.358"/>
<polygon fill="red" stroke="red" stroke-width="0.373302" points="238.257,-383.849 243.51,-374.648 233.666,-378.565 238.257,-383.849"/>
</g>
<!-- 1578 -->
<g id="node11" class="node"><title>1578</title>
<ellipse fill="none" stroke="black" cx="195" cy="-357.546" rx="25" ry="25"/>
<text text-anchor="middle" x="195" y="-355.346" font-family="Times New Roman,serif" font-size="9.00">1578</text>
</g>
<!-- dx&#45;&gt;1578 -->
<g id="edge10" class="edge"><title>dx&#45;&gt;1578</title>
<path fill="none" stroke="red" stroke-width="0.563148" d="M179.884,-423.187C181.676,-415.524 184.495,-403.471 187.215,-391.839"/>
<polygon fill="red" stroke="red" stroke-width="0.563148" points="190.683,-392.38 189.552,-381.845 183.867,-390.786 190.683,-392.38"/>
</g>
<!-- theta -->
<g id="node3" class="node"><title>theta</title>
<polygon fill="lightgray" stroke="black" points="73.5,-441.245 38.5,-441.245 38.5,-423.245 73.5,-423.245 73.5,-441.245"/>
<text text-anchor="middle" x="56" y="-430.045" font-family="Times New Roman,serif" font-size="9.00">theta</text>
</g>
<!-- theta&#45;&gt;control -->
<g id="edge4" class="edge"><title>theta&#45;&gt;control</title>
<path fill="none" stroke="green" stroke-width="0.464459" d="M56,-423.187C56,-416.767 56,-407.264 56,-397.51"/>
<polygon fill="green" stroke="green" stroke-width="0.464459" points="59.5001,-397.372 56,-387.372 52.5001,-397.372 59.5001,-397.372"/>
</g>
<!-- dtheta -->
<g id="node4" class="node"><title>dtheta</title>
<polygon fill="lightgray" stroke="black" points="130.5,-441.245 91.5,-441.245 91.5,-423.245 130.5,-423.245 130.5,-441.245"/>
<text text-anchor="middle" x="111" y="-430.045" font-family="Times New Roman,serif" font-size="9.00">dtheta</text>
</g>
<!-- dtheta&#45;&gt;control -->
<g id="edge2" class="edge"><title>dtheta&#45;&gt;control</title>
<path fill="none" stroke="green" stroke-width="1.13228" d="M104.904,-423.187C98.8137,-415.137 89.0583,-402.242 79.8568,-390.08"/>
<polygon fill="green" stroke="green" stroke-width="1.13228" points="82.4515,-387.709 73.6269,-381.845 76.8691,-391.932 82.4515,-387.709"/>
</g>
<!-- 532 -->
<g id="node7" class="node"><title>532</title>
<ellipse fill="none" stroke="black" cx="162" cy="-267.099" rx="21.4286" ry="21.4286"/>
<text text-anchor="middle" x="162" y="-264.899" font-family="Times New Roman,serif" font-size="9.00">532</text>
</g>
<!-- 1227&#45;&gt;532 -->
<g id="edge6" class="edge"><title>1227&#45;&gt;532</title>
<path fill="none" stroke="green" stroke-width="0.167336" d="M136.58,-334.227C140.944,-322.873 146.3,-308.941 150.968,-296.798"/>
<polygon fill="green" stroke="green" stroke-width="0.167336" points="154.369,-297.704 154.69,-287.114 147.835,-295.192 154.369,-297.704"/>
</g>
<!-- 1415 -->
<g id="node9" class="node"><title>1415</title>
<ellipse fill="none" stroke="black" cx="262" cy="-267.099" rx="25" ry="25"/>
<text text-anchor="middle" x="262" y="-264.899" font-family="Times New Roman,serif" font-size="9.00">1415</text>
</g>
<!-- 1371&#45;&gt;1415 -->
<g id="edge8" class="edge"><title>1371&#45;&gt;1415</title>
<path fill="none" stroke="green" stroke-width="0.477756" d="M262,-332.378C262,-323.039 262,-312.187 262,-302.088"/>
<polygon fill="green" stroke="green" stroke-width="0.477756" points="265.5,-301.932 262,-291.932 258.5,-301.932 265.5,-301.932"/>
</g>
<!-- 834 -->
<g id="node10" class="node"><title>834</title>
<ellipse fill="none" stroke="black" cx="262" cy="-185.137" rx="21.4286" ry="21.4286"/>
<text text-anchor="middle" x="262" y="-182.937" font-family="Times New Roman,serif" font-size="9.00">834</text>
</g>
<!-- 1415&#45;&gt;834 -->
<g id="edge9" class="edge"><title>1415&#45;&gt;834</title>
<path fill="none" stroke="green" stroke-width="0.372455" d="M262,-242.108C262,-234.151 262,-225.182 262,-216.794"/>
<polygon fill="green" stroke="green" stroke-width="0.372455" points="265.5,-216.598 262,-206.598 258.5,-216.598 265.5,-216.598"/>
</g>
<!-- 1635 -->
<g id="node12" class="node"><title>1635</title>
<ellipse fill="none" stroke="black" cx="262" cy="-103.175" rx="25" ry="25"/>
<text text-anchor="middle" x="262" y="-100.975" font-family="Times New Roman,serif" font-size="9.00">1635</text>
</g>
<!-- 834&#45;&gt;1635 -->
<g id="edge12" class="edge"><title>834&#45;&gt;1635</title>
<path fill="none" stroke="green" stroke-width="0.149262" d="M262,-163.545C262,-155.847 262,-146.883 262,-138.29"/>
<polygon fill="green" stroke="green" stroke-width="0.149262" points="265.5,-138.1 262,-128.1 258.5,-138.1 265.5,-138.1"/>
</g>
<!-- 1578&#45;&gt;532 -->
<g id="edge11" class="edge"><title>1578&#45;&gt;532</title>
<path fill="none" stroke="green" stroke-width="0.181587" d="M186.673,-334.227C182.436,-322.873 177.238,-308.941 172.708,-296.798"/>
<polygon fill="green" stroke="green" stroke-width="0.181587" points="175.869,-295.26 169.095,-287.114 169.311,-297.707 175.869,-295.26"/>
</g>
<!-- 366 -->
<g id="node13" class="node"><title>366</title>
<ellipse fill="none" stroke="black" cx="262" cy="-21.2132" rx="21.4286" ry="21.4286"/>
<text text-anchor="middle" x="262" y="-19.0132" font-family="Times New Roman,serif" font-size="9.00">366</text>
</g>
<!-- 1635&#45;&gt;366 -->
<g id="edge13" class="edge"><title>1635&#45;&gt;366</title>
<path fill="none" stroke="red" stroke-width="1.04619" d="M262,-78.1839C262,-70.2269 262,-61.2583 262,-52.8696"/>
<polygon fill="red" stroke="red" stroke-width="1.04619" points="265.5,-52.674 262,-42.674 258.5,-52.674 265.5,-52.674"/>
</g>
</g>
</svg>
