<?xml version="1.0" encoding="utf-8" standalone="no"?>
<!DOCTYPE svg PUBLIC "-//W3C//DTD SVG 1.1//EN"
  "http://www.w3.org/Graphics/SVG/1.1/DTD/svg11.dtd">
<!-- Created with matplotlib (https://matplotlib.org/) -->
<svg height="345.6pt" version="1.1" viewBox="0 0 460.8 345.6" width="460.8pt" xmlns="http://www.w3.org/2000/svg" xmlns:xlink="http://www.w3.org/1999/xlink">
 <defs>
  <style type="text/css">
*{stroke-linecap:butt;stroke-linejoin:round;}
  </style>
 </defs>
 <g id="figure_1">
  <g id="patch_1">
   <path d="M 0 345.6 
L 460.8 345.6 
L 460.8 0 
L 0 0 
z
" style="fill:#ffffff;"/>
  </g>
  <g id="axes_1">
   <g id="patch_2">
    <path d="M 57.6 307.584 
L 414.72 307.584 
L 414.72 41.472 
L 57.6 41.472 
z
" style="fill:#ffffff;"/>
   </g>
   <g id="PolyCollection_1">
    <path clip-path="url(#p918e0d8527)" d="M 73.832727 300.544 
L 73.832727 307.584 
L 79.958285 307.584 
L 86.083842 307.584 
L 92.2094 307.584 
L 98.334957 307.584 
L 104.460515 307.584 
L 110.586072 307.584 
L 116.71163 307.584 
L 122.837187 307.584 
L 128.962744 307.584 
L 135.088302 307.584 
L 141.213859 307.584 
L 147.339417 307.584 
L 153.464974 307.584 
L 159.590532 307.584 
L 165.716089 307.584 
L 171.841647 307.584 
L 177.967204 307.584 
L 184.092762 307.584 
L 190.218319 307.584 
L 196.343877 307.584 
L 202.469434 307.584 
L 208.594991 307.584 
L 214.720549 307.584 
L 220.846106 307.584 
L 226.971664 307.584 
L 233.097221 307.584 
L 239.222779 307.584 
L 245.348336 307.584 
L 251.473894 307.584 
L 257.599451 307.584 
L 263.725009 307.584 
L 269.850566 307.584 
L 275.976123 307.584 
L 282.101681 307.584 
L 288.227238 307.584 
L 294.352796 307.584 
L 300.478353 307.584 
L 306.603911 307.584 
L 312.729468 307.584 
L 318.855026 307.584 
L 324.980583 307.584 
L 331.106141 307.584 
L 337.231698 307.584 
L 343.357256 307.584 
L 349.482813 307.584 
L 355.60837 307.584 
L 361.733928 307.584 
L 367.859485 307.584 
L 373.985043 307.584 
L 380.1106 307.584 
L 386.236158 307.584 
L 392.361715 307.584 
L 398.487273 307.584 
L 398.487273 307.584 
L 398.487273 307.584 
L 392.361715 307.584 
L 386.236158 307.584 
L 380.1106 307.584 
L 373.985043 307.584 
L 367.859485 307.584 
L 361.733928 307.584 
L 355.60837 307.584 
L 349.482813 307.584 
L 343.357256 307.584 
L 337.231698 307.584 
L 331.106141 307.584 
L 324.980583 307.584 
L 318.855026 307.584 
L 312.729468 307.584 
L 306.603911 307.584 
L 300.478353 307.584 
L 294.352796 307.584 
L 288.227238 307.584 
L 282.101681 307.584 
L 275.976123 307.584 
L 269.850566 307.584 
L 263.725009 307.584 
L 257.599451 307.584 
L 251.473894 307.584 
L 245.348336 307.584 
L 239.222779 307.584 
L 233.097221 307.584 
L 226.971664 307.584 
L 220.846106 307.584 
L 214.720549 307.584 
L 208.594991 282.441143 
L 202.469434 277.412571 
L 196.343877 287.469714 
L 190.218319 281.435429 
L 184.092762 292.498286 
L 177.967204 286.464 
L 171.841647 297.526857 
L 165.716089 295.515429 
L 159.590532 294.509714 
L 153.464974 291.492571 
L 147.339417 298.532571 
L 141.213859 268.361143 
L 135.088302 280.429714 
L 128.962744 267.355429 
L 122.837187 286.464 
L 116.71163 289.481143 
L 110.586072 281.435429 
L 104.460515 296.521143 
L 98.334957 276.406857 
L 92.2094 263.332571 
L 86.083842 265.344 
L 79.958285 273.389714 
L 73.832727 300.544 
z
" style="fill:#1f77b4;"/>
   </g>
   <g id="PolyCollection_2">
    <path clip-path="url(#p918e0d8527)" d="M 73.832727 254.281143 
L 73.832727 300.544 
L 79.958285 273.389714 
L 86.083842 265.344 
L 92.2094 263.332571 
L 98.334957 276.406857 
L 104.460515 296.521143 
L 110.586072 281.435429 
L 116.71163 289.481143 
L 122.837187 286.464 
L 128.962744 267.355429 
L 135.088302 280.429714 
L 141.213859 268.361143 
L 147.339417 298.532571 
L 153.464974 291.492571 
L 159.590532 294.509714 
L 165.716089 295.515429 
L 171.841647 297.526857 
L 177.967204 286.464 
L 184.092762 292.498286 
L 190.218319 281.435429 
L 196.343877 287.469714 
L 202.469434 277.412571 
L 208.594991 282.441143 
L 214.720549 307.584 
L 220.846106 307.584 
L 226.971664 307.584 
L 233.097221 307.584 
L 239.222779 307.584 
L 245.348336 307.584 
L 251.473894 307.584 
L 257.599451 307.584 
L 263.725009 307.584 
L 269.850566 307.584 
L 275.976123 307.584 
L 282.101681 307.584 
L 288.227238 307.584 
L 294.352796 307.584 
L 300.478353 307.584 
L 306.603911 307.584 
L 312.729468 307.584 
L 318.855026 307.584 
L 324.980583 307.584 
L 331.106141 307.584 
L 337.231698 307.584 
L 343.357256 307.584 
L 349.482813 307.584 
L 355.60837 307.584 
L 361.733928 307.584 
L 367.859485 307.584 
L 373.985043 307.584 
L 380.1106 307.584 
L 386.236158 307.584 
L 392.361715 307.584 
L 398.487273 307.584 
L 398.487273 307.584 
L 398.487273 307.584 
L 392.361715 307.584 
L 386.236158 307.584 
L 380.1106 307.584 
L 373.985043 307.584 
L 367.859485 307.584 
L 361.733928 307.584 
L 355.60837 307.584 
L 349.482813 307.584 
L 343.357256 307.584 
L 337.231698 307.584 
L 331.106141 307.584 
L 324.980583 307.584 
L 318.855026 307.584 
L 312.729468 307.584 
L 306.603911 307.584 
L 300.478353 307.584 
L 294.352796 307.584 
L 288.227238 307.584 
L 282.101681 307.584 
L 275.976123 307.584 
L 269.850566 307.584 
L 263.725009 307.584 
L 257.599451 307.584 
L 251.473894 307.584 
L 245.348336 274.395429 
L 239.222779 290.486857 
L 233.097221 288.475429 
L 226.971664 282.441143 
L 220.846106 292.498286 
L 214.720549 283.446857 
L 208.594991 261.321143 
L 202.469434 258.304 
L 196.343877 275.401143 
L 190.218319 266.349714 
L 184.092762 284.452571 
L 177.967204 265.344 
L 171.841647 278.418286 
L 165.716089 266.349714 
L 159.590532 274.395429 
L 153.464974 280.429714 
L 147.339417 295.515429 
L 141.213859 257.298286 
L 135.088302 249.252571 
L 128.962744 233.161143 
L 122.837187 253.275429 
L 116.71163 255.286857 
L 110.586072 238.189714 
L 104.460515 255.286857 
L 98.334957 238.189714 
L 92.2094 202.989714 
L 86.083842 240.201143 
L 79.958285 252.269714 
L 73.832727 254.281143 
z
" style="fill:#ff7f0e;"/>
   </g>
   <g id="PolyCollection_3">
    <path clip-path="url(#p918e0d8527)" d="M 73.832727 145.664 
L 73.832727 254.281143 
L 79.958285 252.269714 
L 86.083842 240.201143 
L 92.2094 202.989714 
L 98.334957 238.189714 
L 104.460515 255.286857 
L 110.586072 238.189714 
L 116.71163 255.286857 
L 122.837187 253.275429 
L 128.962744 233.161143 
L 135.088302 249.252571 
L 141.213859 257.298286 
L 147.339417 295.515429 
L 153.464974 280.429714 
L 159.590532 274.395429 
L 165.716089 266.349714 
L 171.841647 278.418286 
L 177.967204 265.344 
L 184.092762 284.452571 
L 190.218319 266.349714 
L 196.343877 275.401143 
L 202.469434 258.304 
L 208.594991 261.321143 
L 214.720549 283.446857 
L 220.846106 292.498286 
L 226.971664 282.441143 
L 233.097221 288.475429 
L 239.222779 290.486857 
L 245.348336 274.395429 
L 251.473894 307.584 
L 257.599451 307.584 
L 263.725009 307.584 
L 269.850566 307.584 
L 275.976123 307.584 
L 282.101681 307.584 
L 288.227238 307.584 
L 294.352796 307.584 
L 300.478353 307.584 
L 306.603911 307.584 
L 312.729468 307.584 
L 318.855026 307.584 
L 324.980583 307.584 
L 331.106141 307.584 
L 337.231698 307.584 
L 343.357256 307.584 
L 349.482813 307.584 
L 355.60837 307.584 
L 361.733928 307.584 
L 367.859485 307.584 
L 373.985043 307.584 
L 380.1106 307.584 
L 386.236158 307.584 
L 392.361715 307.584 
L 398.487273 307.584 
L 398.487273 307.584 
L 398.487273 307.584 
L 392.361715 307.584 
L 386.236158 307.584 
L 380.1106 307.584 
L 373.985043 307.584 
L 367.859485 307.584 
L 361.733928 307.584 
L 355.60837 307.584 
L 349.482813 307.584 
L 343.357256 307.584 
L 337.231698 307.584 
L 331.106141 307.584 
L 324.980583 307.584 
L 318.855026 307.584 
L 312.729468 307.584 
L 306.603911 307.584 
L 300.478353 307.584 
L 294.352796 307.584 
L 288.227238 307.584 
L 282.101681 307.584 
L 275.976123 307.584 
L 269.850566 307.584 
L 263.725009 307.584 
L 257.599451 307.584 
L 251.473894 307.584 
L 245.348336 274.395429 
L 239.222779 290.486857 
L 233.097221 288.475429 
L 226.971664 282.441143 
L 220.846106 292.498286 
L 214.720549 283.446857 
L 208.594991 261.321143 
L 202.469434 258.304 
L 196.343877 265.344 
L 190.218319 254.281143 
L 184.092762 259.309714 
L 177.967204 233.161143 
L 171.841647 231.149714 
L 165.716089 231.149714 
L 159.590532 219.081143 
L 153.464974 213.046857 
L 147.339417 240.201143 
L 141.213859 225.115429 
L 135.088302 211.035429 
L 128.962744 217.069714 
L 122.837187 242.212571 
L 116.71163 239.195429 
L 110.586072 213.046857 
L 104.460515 199.972571 
L 98.334957 203.995429 
L 92.2094 177.846857 
L 86.083842 201.984 
L 79.958285 225.115429 
L 73.832727 145.664 
z
" style="fill:#2ca02c;"/>
   </g>
   <g id="PolyCollection_4">
    <path clip-path="url(#p918e0d8527)" d="M 73.832727 129.572571 
L 73.832727 145.664 
L 79.958285 225.115429 
L 86.083842 201.984 
L 92.2094 177.846857 
L 98.334957 203.995429 
L 104.460515 199.972571 
L 110.586072 213.046857 
L 116.71163 239.195429 
L 122.837187 242.212571 
L 128.962744 217.069714 
L 135.088302 211.035429 
L 141.213859 225.115429 
L 147.339417 240.201143 
L 153.464974 213.046857 
L 159.590532 219.081143 
L 165.716089 231.149714 
L 171.841647 231.149714 
L 177.967204 233.161143 
L 184.092762 259.309714 
L 190.218319 254.281143 
L 196.343877 265.344 
L 202.469434 258.304 
L 208.594991 261.321143 
L 214.720549 283.446857 
L 220.846106 292.498286 
L 226.971664 282.441143 
L 233.097221 288.475429 
L 239.222779 290.486857 
L 245.348336 274.395429 
L 251.473894 307.584 
L 257.599451 307.584 
L 263.725009 307.584 
L 269.850566 307.584 
L 275.976123 307.584 
L 282.101681 307.584 
L 288.227238 307.584 
L 294.352796 307.584 
L 300.478353 307.584 
L 306.603911 307.584 
L 312.729468 307.584 
L 318.855026 307.584 
L 324.980583 307.584 
L 331.106141 307.584 
L 337.231698 307.584 
L 343.357256 307.584 
L 349.482813 307.584 
L 355.60837 307.584 
L 361.733928 307.584 
L 367.859485 307.584 
L 373.985043 307.584 
L 380.1106 307.584 
L 386.236158 307.584 
L 392.361715 307.584 
L 398.487273 307.584 
L 398.487273 250.258286 
L 398.487273 250.258286 
L 392.361715 270.372571 
L 386.236158 282.441143 
L 380.1106 252.269714 
L 373.985043 282.441143 
L 367.859485 279.424 
L 361.733928 257.298286 
L 355.60837 260.315429 
L 349.482813 260.315429 
L 343.357256 250.258286 
L 337.231698 249.252571 
L 331.106141 287.469714 
L 324.980583 295.515429 
L 318.855026 297.526857 
L 312.729468 267.355429 
L 306.603911 259.309714 
L 300.478353 265.344 
L 294.352796 250.258286 
L 288.227238 265.344 
L 282.101681 270.372571 
L 275.976123 284.452571 
L 269.850566 267.355429 
L 263.725009 271.378286 
L 257.599451 276.406857 
L 251.473894 278.418286 
L 245.348336 241.206857 
L 239.222779 258.304 
L 233.097221 254.281143 
L 226.971664 240.201143 
L 220.846106 254.281143 
L 214.720549 239.195429 
L 208.594991 222.098286 
L 202.469434 213.046857 
L 196.343877 216.064 
L 190.218319 202.989714 
L 184.092762 223.104 
L 177.967204 199.972571 
L 171.841647 193.938286 
L 165.716089 207.012571 
L 159.590532 198.966857 
L 153.464974 188.909714 
L 147.339417 207.012571 
L 141.213859 198.966857 
L 135.088302 190.921143 
L 128.962744 192.932571 
L 122.837187 217.069714 
L 116.71163 201.984 
L 110.586072 173.824 
L 104.460515 177.846857 
L 98.334957 176.841143 
L 92.2094 166.784 
L 86.083842 188.909714 
L 79.958285 207.012571 
L 73.832727 129.572571 
z
" style="fill:#d62728;"/>
   </g>
   <g id="PolyCollection_5">
    <path clip-path="url(#p918e0d8527)" d="M 73.832727 128.566857 
L 73.832727 129.572571 
L 79.958285 207.012571 
L 86.083842 188.909714 
L 92.2094 166.784 
L 98.334957 176.841143 
L 104.460515 177.846857 
L 110.586072 173.824 
L 116.71163 201.984 
L 122.837187 217.069714 
L 128.962744 192.932571 
L 135.088302 190.921143 
L 141.213859 198.966857 
L 147.339417 207.012571 
L 153.464974 188.909714 
L 159.590532 198.966857 
L 165.716089 207.012571 
L 171.841647 193.938286 
L 177.967204 199.972571 
L 184.092762 223.104 
L 190.218319 202.989714 
L 196.343877 216.064 
L 202.469434 213.046857 
L 208.594991 222.098286 
L 214.720549 239.195429 
L 220.846106 254.281143 
L 226.971664 240.201143 
L 233.097221 254.281143 
L 239.222779 258.304 
L 245.348336 241.206857 
L 251.473894 278.418286 
L 257.599451 276.406857 
L 263.725009 271.378286 
L 269.850566 267.355429 
L 275.976123 284.452571 
L 282.101681 270.372571 
L 288.227238 265.344 
L 294.352796 250.258286 
L 300.478353 265.344 
L 306.603911 259.309714 
L 312.729468 267.355429 
L 318.855026 297.526857 
L 324.980583 295.515429 
L 331.106141 287.469714 
L 337.231698 249.252571 
L 343.357256 250.258286 
L 349.482813 260.315429 
L 355.60837 260.315429 
L 361.733928 257.298286 
L 367.859485 279.424 
L 373.985043 282.441143 
L 380.1106 252.269714 
L 386.236158 282.441143 
L 392.361715 270.372571 
L 398.487273 250.258286 
L 398.487273 250.258286 
L 398.487273 250.258286 
L 392.361715 270.372571 
L 386.236158 282.441143 
L 380.1106 252.269714 
L 373.985043 282.441143 
L 367.859485 279.424 
L 361.733928 257.298286 
L 355.60837 260.315429 
L 349.482813 260.315429 
L 343.357256 250.258286 
L 337.231698 249.252571 
L 331.106141 287.469714 
L 324.980583 295.515429 
L 318.855026 297.526857 
L 312.729468 267.355429 
L 306.603911 259.309714 
L 300.478353 265.344 
L 294.352796 250.258286 
L 288.227238 265.344 
L 282.101681 270.372571 
L 275.976123 284.452571 
L 269.850566 267.355429 
L 263.725009 271.378286 
L 257.599451 276.406857 
L 251.473894 278.418286 
L 245.348336 241.206857 
L 239.222779 258.304 
L 233.097221 252.269714 
L 226.971664 237.184 
L 220.846106 252.269714 
L 214.720549 236.178286 
L 208.594991 220.086857 
L 202.469434 210.029714 
L 196.343877 214.052571 
L 190.218319 199.972571 
L 184.092762 221.092571 
L 177.967204 197.961143 
L 171.841647 191.926857 
L 165.716089 203.995429 
L 159.590532 196.955429 
L 153.464974 186.898286 
L 147.339417 202.989714 
L 141.213859 194.944 
L 135.088302 187.904 
L 128.962744 190.921143 
L 122.837187 214.052571 
L 116.71163 197.961143 
L 110.586072 169.801143 
L 104.460515 174.829714 
L 98.334957 174.829714 
L 92.2094 162.761143 
L 86.083842 185.892571 
L 79.958285 202.989714 
L 73.832727 128.566857 
z
" style="fill:#9467bd;"/>
   </g>
   <g id="PolyCollection_6">
    <path clip-path="url(#p918e0d8527)" d="M 73.832727 111.469714 
L 73.832727 128.566857 
L 79.958285 202.989714 
L 86.083842 185.892571 
L 92.2094 162.761143 
L 98.334957 174.829714 
L 104.460515 174.829714 
L 110.586072 169.801143 
L 116.71163 197.961143 
L 122.837187 214.052571 
L 128.962744 190.921143 
L 135.088302 187.904 
L 141.213859 194.944 
L 147.339417 202.989714 
L 153.464974 186.898286 
L 159.590532 196.955429 
L 165.716089 203.995429 
L 171.841647 191.926857 
L 177.967204 197.961143 
L 184.092762 221.092571 
L 190.218319 199.972571 
L 196.343877 214.052571 
L 202.469434 210.029714 
L 208.594991 220.086857 
L 214.720549 236.178286 
L 220.846106 252.269714 
L 226.971664 237.184 
L 233.097221 252.269714 
L 239.222779 258.304 
L 245.348336 241.206857 
L 251.473894 278.418286 
L 257.599451 276.406857 
L 263.725009 271.378286 
L 269.850566 267.355429 
L 275.976123 284.452571 
L 282.101681 270.372571 
L 288.227238 265.344 
L 294.352796 250.258286 
L 300.478353 265.344 
L 306.603911 259.309714 
L 312.729468 267.355429 
L 318.855026 297.526857 
L 324.980583 295.515429 
L 331.106141 287.469714 
L 337.231698 249.252571 
L 343.357256 250.258286 
L 349.482813 260.315429 
L 355.60837 260.315429 
L 361.733928 257.298286 
L 367.859485 279.424 
L 373.985043 282.441143 
L 380.1106 252.269714 
L 386.236158 282.441143 
L 392.361715 270.372571 
L 398.487273 250.258286 
L 398.487273 190.921143 
L 398.487273 190.921143 
L 392.361715 255.286857 
L 386.236158 251.264 
L 380.1106 236.178286 
L 373.985043 267.355429 
L 367.859485 260.315429 
L 361.733928 231.149714 
L 355.60837 222.098286 
L 349.482813 220.086857 
L 343.357256 222.098286 
L 337.231698 220.086857 
L 331.106141 259.309714 
L 324.980583 264.338286 
L 318.855026 266.349714 
L 312.729468 248.246857 
L 306.603911 242.212571 
L 300.478353 245.229714 
L 294.352796 227.126857 
L 288.227238 234.166857 
L 282.101681 250.258286 
L 275.976123 262.326857 
L 269.850566 250.258286 
L 263.725009 253.275429 
L 257.599451 257.298286 
L 251.473894 260.315429 
L 245.348336 214.052571 
L 239.222779 227.126857 
L 233.097221 221.092571 
L 226.971664 207.012571 
L 220.846106 231.149714 
L 214.720549 217.069714 
L 208.594991 191.926857 
L 202.469434 187.904 
L 196.343877 202.989714 
L 190.218319 167.789714 
L 184.092762 206.006857 
L 177.967204 180.864 
L 171.841647 173.824 
L 165.716089 186.898286 
L 159.590532 186.898286 
L 153.464974 156.726857 
L 147.339417 186.898286 
L 141.213859 172.818286 
L 135.088302 167.789714 
L 128.962744 171.812571 
L 122.837187 201.984 
L 116.71163 170.806857 
L 110.586072 149.686857 
L 104.460515 160.749714 
L 98.334957 167.789714 
L 92.2094 144.658286 
L 86.083842 176.841143 
L 79.958285 189.915429 
L 73.832727 111.469714 
z
" style="fill:#8c564b;"/>
   </g>
   <g id="PolyCollection_7">
    <path clip-path="url(#p918e0d8527)" d="M 73.832727 100.406857 
L 73.832727 111.469714 
L 79.958285 189.915429 
L 86.083842 176.841143 
L 92.2094 144.658286 
L 98.334957 167.789714 
L 104.460515 160.749714 
L 110.586072 149.686857 
L 116.71163 170.806857 
L 122.837187 201.984 
L 128.962744 171.812571 
L 135.088302 167.789714 
L 141.213859 172.818286 
L 147.339417 186.898286 
L 153.464974 156.726857 
L 159.590532 186.898286 
L 165.716089 186.898286 
L 171.841647 173.824 
L 177.967204 180.864 
L 184.092762 206.006857 
L 190.218319 167.789714 
L 196.343877 202.989714 
L 202.469434 187.904 
L 208.594991 191.926857 
L 214.720549 217.069714 
L 220.846106 231.149714 
L 226.971664 207.012571 
L 233.097221 221.092571 
L 239.222779 227.126857 
L 245.348336 214.052571 
L 251.473894 260.315429 
L 257.599451 257.298286 
L 263.725009 253.275429 
L 269.850566 250.258286 
L 275.976123 262.326857 
L 282.101681 250.258286 
L 288.227238 234.166857 
L 294.352796 227.126857 
L 300.478353 245.229714 
L 306.603911 242.212571 
L 312.729468 248.246857 
L 318.855026 266.349714 
L 324.980583 264.338286 
L 331.106141 259.309714 
L 337.231698 220.086857 
L 343.357256 222.098286 
L 349.482813 220.086857 
L 355.60837 222.098286 
L 361.733928 231.149714 
L 367.859485 260.315429 
L 373.985043 267.355429 
L 380.1106 236.178286 
L 386.236158 251.264 
L 392.361715 255.286857 
L 398.487273 190.921143 
L 398.487273 162.761143 
L 398.487273 162.761143 
L 392.361715 236.178286 
L 386.236158 217.069714 
L 380.1106 198.966857 
L 373.985043 231.149714 
L 367.859485 231.149714 
L 361.733928 200.978286 
L 355.60837 191.926857 
L 349.482813 191.926857 
L 343.357256 193.938286 
L 337.231698 186.898286 
L 331.106141 235.172571 
L 324.980583 243.218286 
L 318.855026 246.235429 
L 312.729468 227.126857 
L 306.603911 222.098286 
L 300.478353 226.121143 
L 294.352796 214.052571 
L 288.227238 218.075429 
L 282.101681 234.166857 
L 275.976123 239.195429 
L 269.850566 229.138286 
L 263.725009 236.178286 
L 257.599451 242.212571 
L 251.473894 240.201143 
L 245.348336 192.932571 
L 239.222779 205.001143 
L 233.097221 200.978286 
L 226.971664 190.921143 
L 220.846106 210.029714 
L 214.720549 199.972571 
L 208.594991 184.886857 
L 202.469434 175.835429 
L 196.343877 187.904 
L 190.218319 158.738286 
L 184.092762 203.995429 
L 177.967204 163.766857 
L 171.841647 163.766857 
L 165.716089 177.846857 
L 159.590532 183.881143 
L 153.464974 151.698286 
L 147.339417 183.881143 
L 141.213859 170.806857 
L 135.088302 164.772571 
L 128.962744 167.789714 
L 122.837187 196.955429 
L 116.71163 166.784 
L 110.586072 145.664 
L 104.460515 155.721143 
L 98.334957 163.766857 
L 92.2094 139.629714 
L 86.083842 172.818286 
L 79.958285 180.864 
L 73.832727 100.406857 
z
" style="fill:#e377c2;"/>
   </g>
   <g id="PolyCollection_8">
    <path clip-path="url(#p918e0d8527)" d="M 73.832727 92.361143 
L 73.832727 100.406857 
L 79.958285 180.864 
L 86.083842 172.818286 
L 92.2094 139.629714 
L 98.334957 163.766857 
L 104.460515 155.721143 
L 110.586072 145.664 
L 116.71163 166.784 
L 122.837187 196.955429 
L 128.962744 167.789714 
L 135.088302 164.772571 
L 141.213859 170.806857 
L 147.339417 183.881143 
L 153.464974 151.698286 
L 159.590532 183.881143 
L 165.716089 177.846857 
L 171.841647 163.766857 
L 177.967204 163.766857 
L 184.092762 203.995429 
L 190.218319 158.738286 
L 196.343877 187.904 
L 202.469434 175.835429 
L 208.594991 184.886857 
L 214.720549 199.972571 
L 220.846106 210.029714 
L 226.971664 190.921143 
L 233.097221 200.978286 
L 239.222779 205.001143 
L 245.348336 192.932571 
L 251.473894 240.201143 
L 257.599451 242.212571 
L 263.725009 236.178286 
L 269.850566 229.138286 
L 275.976123 239.195429 
L 282.101681 234.166857 
L 288.227238 218.075429 
L 294.352796 214.052571 
L 300.478353 226.121143 
L 306.603911 222.098286 
L 312.729468 227.126857 
L 318.855026 246.235429 
L 324.980583 243.218286 
L 331.106141 235.172571 
L 337.231698 186.898286 
L 343.357256 193.938286 
L 349.482813 191.926857 
L 355.60837 191.926857 
L 361.733928 200.978286 
L 367.859485 231.149714 
L 373.985043 231.149714 
L 380.1106 198.966857 
L 386.236158 217.069714 
L 392.361715 236.178286 
L 398.487273 162.761143 
L 398.487273 162.761143 
L 398.487273 162.761143 
L 392.361715 236.178286 
L 386.236158 217.069714 
L 380.1106 198.966857 
L 373.985043 231.149714 
L 367.859485 231.149714 
L 361.733928 200.978286 
L 355.60837 191.926857 
L 349.482813 191.926857 
L 343.357256 193.938286 
L 337.231698 186.898286 
L 331.106141 235.172571 
L 324.980583 243.218286 
L 318.855026 246.235429 
L 312.729468 227.126857 
L 306.603911 191.926857 
L 300.478353 202.989714 
L 294.352796 192.932571 
L 288.227238 205.001143 
L 282.101681 219.081143 
L 275.976123 207.012571 
L 269.850566 191.926857 
L 263.725009 206.006857 
L 257.599451 201.984 
L 251.473894 197.961143 
L 245.348336 174.829714 
L 239.222779 184.886857 
L 233.097221 168.795429 
L 226.971664 152.704 
L 220.846106 158.738286 
L 214.720549 148.681143 
L 208.594991 147.675429 
L 202.469434 157.732571 
L 196.343877 151.698286 
L 190.218319 136.612571 
L 184.092762 178.852571 
L 177.967204 138.624 
L 171.841647 133.595429 
L 165.716089 148.681143 
L 159.590532 159.744 
L 153.464974 140.635429 
L 147.339417 163.766857 
L 141.213859 159.744 
L 135.088302 144.658286 
L 128.962744 143.652571 
L 122.837187 166.784 
L 116.71163 154.715429 
L 110.586072 127.561143 
L 104.460515 136.612571 
L 98.334957 140.635429 
L 92.2094 129.572571 
L 86.083842 158.738286 
L 79.958285 165.778286 
L 73.832727 92.361143 
z
" style="fill:#7f7f7f;"/>
   </g>
   <g id="PolyCollection_9">
    <path clip-path="url(#p918e0d8527)" d="M 73.832727 91.355429 
L 73.832727 92.361143 
L 79.958285 165.778286 
L 86.083842 158.738286 
L 92.2094 129.572571 
L 98.334957 140.635429 
L 104.460515 136.612571 
L 110.586072 127.561143 
L 116.71163 154.715429 
L 122.837187 166.784 
L 128.962744 143.652571 
L 135.088302 144.658286 
L 141.213859 159.744 
L 147.339417 163.766857 
L 153.464974 140.635429 
L 159.590532 159.744 
L 165.716089 148.681143 
L 171.841647 133.595429 
L 177.967204 138.624 
L 184.092762 178.852571 
L 190.218319 136.612571 
L 196.343877 151.698286 
L 202.469434 157.732571 
L 208.594991 147.675429 
L 214.720549 148.681143 
L 220.846106 158.738286 
L 226.971664 152.704 
L 233.097221 168.795429 
L 239.222779 184.886857 
L 245.348336 174.829714 
L 251.473894 197.961143 
L 257.599451 201.984 
L 263.725009 206.006857 
L 269.850566 191.926857 
L 275.976123 207.012571 
L 282.101681 219.081143 
L 288.227238 205.001143 
L 294.352796 192.932571 
L 300.478353 202.989714 
L 306.603911 191.926857 
L 312.729468 227.126857 
L 318.855026 246.235429 
L 324.980583 243.218286 
L 331.106141 235.172571 
L 337.231698 186.898286 
L 343.357256 193.938286 
L 349.482813 191.926857 
L 355.60837 191.926857 
L 361.733928 200.978286 
L 367.859485 231.149714 
L 373.985043 231.149714 
L 380.1106 198.966857 
L 386.236158 217.069714 
L 392.361715 236.178286 
L 398.487273 162.761143 
L 398.487273 141.641143 
L 398.487273 141.641143 
L 392.361715 199.972571 
L 386.236158 194.944 
L 380.1106 192.932571 
L 373.985043 211.035429 
L 367.859485 214.052571 
L 361.733928 184.886857 
L 355.60837 170.806857 
L 349.482813 169.801143 
L 343.357256 174.829714 
L 337.231698 173.824 
L 331.106141 213.046857 
L 324.980583 220.086857 
L 318.855026 244.224 
L 312.729468 211.035429 
L 306.603911 179.858286 
L 300.478353 185.892571 
L 294.352796 171.812571 
L 288.227238 185.892571 
L 282.101681 197.961143 
L 275.976123 189.915429 
L 269.850566 182.875429 
L 263.725009 177.846857 
L 257.599451 173.824 
L 251.473894 176.841143 
L 245.348336 155.721143 
L 239.222779 164.772571 
L 233.097221 156.726857 
L 226.971664 145.664 
L 220.846106 145.664 
L 214.720549 144.658286 
L 208.594991 145.664 
L 202.469434 153.709714 
L 196.343877 147.675429 
L 190.218319 133.595429 
L 184.092762 176.841143 
L 177.967204 135.606857 
L 171.841647 131.584 
L 165.716089 147.675429 
L 159.590532 157.732571 
L 153.464974 138.624 
L 147.339417 159.744 
L 141.213859 157.732571 
L 135.088302 141.641143 
L 128.962744 141.641143 
L 122.837187 163.766857 
L 116.71163 152.704 
L 110.586072 125.549714 
L 104.460515 134.601143 
L 98.334957 138.624 
L 92.2094 125.549714 
L 86.083842 152.704 
L 79.958285 158.738286 
L 73.832727 91.355429 
z
" style="fill:#bcbd22;"/>
   </g>
   <g id="PolyCollection_10">
    <path clip-path="url(#p918e0d8527)" d="M 73.832727 79.286857 
L 73.832727 91.355429 
L 79.958285 158.738286 
L 86.083842 152.704 
L 92.2094 125.549714 
L 98.334957 138.624 
L 104.460515 134.601143 
L 110.586072 125.549714 
L 116.71163 152.704 
L 122.837187 163.766857 
L 128.962744 141.641143 
L 135.088302 141.641143 
L 141.213859 157.732571 
L 147.339417 159.744 
L 153.464974 138.624 
L 159.590532 157.732571 
L 165.716089 147.675429 
L 171.841647 131.584 
L 177.967204 135.606857 
L 184.092762 176.841143 
L 190.218319 133.595429 
L 196.343877 147.675429 
L 202.469434 153.709714 
L 208.594991 145.664 
L 214.720549 144.658286 
L 220.846106 145.664 
L 226.971664 145.664 
L 233.097221 156.726857 
L 239.222779 164.772571 
L 245.348336 155.721143 
L 251.473894 176.841143 
L 257.599451 173.824 
L 263.725009 177.846857 
L 269.850566 182.875429 
L 275.976123 189.915429 
L 282.101681 197.961143 
L 288.227238 185.892571 
L 294.352796 171.812571 
L 300.478353 185.892571 
L 306.603911 179.858286 
L 312.729468 211.035429 
L 318.855026 244.224 
L 324.980583 220.086857 
L 331.106141 213.046857 
L 337.231698 173.824 
L 343.357256 174.829714 
L 349.482813 169.801143 
L 355.60837 170.806857 
L 361.733928 184.886857 
L 367.859485 214.052571 
L 373.985043 211.035429 
L 380.1106 192.932571 
L 386.236158 194.944 
L 392.361715 199.972571 
L 398.487273 141.641143 
L 398.487273 141.641143 
L 398.487273 141.641143 
L 392.361715 199.972571 
L 386.236158 194.944 
L 380.1106 192.932571 
L 373.985043 211.035429 
L 367.859485 214.052571 
L 361.733928 184.886857 
L 355.60837 170.806857 
L 349.482813 169.801143 
L 343.357256 174.829714 
L 337.231698 173.824 
L 331.106141 213.046857 
L 324.980583 220.086857 
L 318.855026 244.224 
L 312.729468 211.035429 
L 306.603911 179.858286 
L 300.478353 185.892571 
L 294.352796 171.812571 
L 288.227238 185.892571 
L 282.101681 197.961143 
L 275.976123 189.915429 
L 269.850566 182.875429 
L 263.725009 177.846857 
L 257.599451 173.824 
L 251.473894 176.841143 
L 245.348336 155.721143 
L 239.222779 164.772571 
L 233.097221 156.726857 
L 226.971664 145.664 
L 220.846106 145.664 
L 214.720549 144.658286 
L 208.594991 145.664 
L 202.469434 127.561143 
L 196.343877 121.526857 
L 190.218319 128.566857 
L 184.092762 131.584 
L 177.967204 122.532571 
L 171.841647 114.486857 
L 165.716089 123.538286 
L 159.590532 126.555429 
L 153.464974 120.521143 
L 147.339417 147.675429 
L 141.213859 109.458286 
L 135.088302 117.504 
L 128.962744 130.578286 
L 122.837187 118.509714 
L 116.71163 123.538286 
L 110.586072 99.401143 
L 104.460515 109.458286 
L 98.334957 119.515429 
L 92.2094 109.458286 
L 86.083842 112.475429 
L 79.958285 119.515429 
L 73.832727 79.286857 
z
" style="fill:#17becf;"/>
   </g>
   <g id="PolyCollection_11">
    <path clip-path="url(#p918e0d8527)" d="M 73.832727 72.246857 
L 73.832727 79.286857 
L 79.958285 119.515429 
L 86.083842 112.475429 
L 92.2094 109.458286 
L 98.334957 119.515429 
L 104.460515 109.458286 
L 110.586072 99.401143 
L 116.71163 123.538286 
L 122.837187 118.509714 
L 128.962744 130.578286 
L 135.088302 117.504 
L 141.213859 109.458286 
L 147.339417 147.675429 
L 153.464974 120.521143 
L 159.590532 126.555429 
L 165.716089 123.538286 
L 171.841647 114.486857 
L 177.967204 122.532571 
L 184.092762 131.584 
L 190.218319 128.566857 
L 196.343877 121.526857 
L 202.469434 127.561143 
L 208.594991 145.664 
L 214.720549 144.658286 
L 220.846106 145.664 
L 226.971664 145.664 
L 233.097221 156.726857 
L 239.222779 164.772571 
L 245.348336 155.721143 
L 251.473894 176.841143 
L 257.599451 173.824 
L 263.725009 177.846857 
L 269.850566 182.875429 
L 275.976123 189.915429 
L 282.101681 197.961143 
L 288.227238 185.892571 
L 294.352796 171.812571 
L 300.478353 185.892571 
L 306.603911 179.858286 
L 312.729468 211.035429 
L 318.855026 244.224 
L 324.980583 220.086857 
L 331.106141 213.046857 
L 337.231698 173.824 
L 343.357256 174.829714 
L 349.482813 169.801143 
L 355.60837 170.806857 
L 361.733928 184.886857 
L 367.859485 214.052571 
L 373.985043 211.035429 
L 380.1106 192.932571 
L 386.236158 194.944 
L 392.361715 199.972571 
L 398.487273 141.641143 
L 398.487273 102.418286 
L 398.487273 102.418286 
L 392.361715 143.652571 
L 386.236158 162.761143 
L 380.1106 161.755429 
L 373.985043 150.692571 
L 367.859485 168.795429 
L 361.733928 150.692571 
L 355.60837 131.584 
L 349.482813 144.658286 
L 343.357256 147.675429 
L 337.231698 155.721143 
L 331.106141 196.955429 
L 324.980583 197.961143 
L 318.855026 225.115429 
L 312.729468 186.898286 
L 306.603911 164.772571 
L 300.478353 167.789714 
L 294.352796 138.624 
L 288.227238 152.704 
L 282.101681 171.812571 
L 275.976123 153.709714 
L 269.850566 151.698286 
L 263.725009 153.709714 
L 257.599451 161.755429 
L 251.473894 160.749714 
L 245.348336 133.595429 
L 239.222779 138.624 
L 233.097221 133.595429 
L 226.971664 127.561143 
L 220.846106 136.612571 
L 214.720549 135.606857 
L 208.594991 141.641143 
L 202.469434 125.549714 
L 196.343877 119.515429 
L 190.218319 126.555429 
L 184.092762 128.566857 
L 177.967204 120.521143 
L 171.841647 112.475429 
L 165.716089 122.532571 
L 159.590532 123.538286 
L 153.464974 118.509714 
L 147.339417 145.664 
L 141.213859 106.441143 
L 135.088302 115.492571 
L 128.962744 126.555429 
L 122.837187 116.498286 
L 116.71163 122.532571 
L 110.586072 96.384 
L 104.460515 105.435429 
L 98.334957 114.486857 
L 92.2094 103.424 
L 86.083842 108.452571 
L 79.958285 113.481143 
L 73.832727 72.246857 
z
" style="fill:#1f77b4;"/>
   </g>
   <g id="PolyCollection_12">
    <path clip-path="url(#p918e0d8527)" d="M 73.832727 71.241143 
L 73.832727 72.246857 
L 79.958285 113.481143 
L 86.083842 108.452571 
L 92.2094 103.424 
L 98.334957 114.486857 
L 104.460515 105.435429 
L 110.586072 96.384 
L 116.71163 122.532571 
L 122.837187 116.498286 
L 128.962744 126.555429 
L 135.088302 115.492571 
L 141.213859 106.441143 
L 147.339417 145.664 
L 153.464974 118.509714 
L 159.590532 123.538286 
L 165.716089 122.532571 
L 171.841647 112.475429 
L 177.967204 120.521143 
L 184.092762 128.566857 
L 190.218319 126.555429 
L 196.343877 119.515429 
L 202.469434 125.549714 
L 208.594991 141.641143 
L 214.720549 135.606857 
L 220.846106 136.612571 
L 226.971664 127.561143 
L 233.097221 133.595429 
L 239.222779 138.624 
L 245.348336 133.595429 
L 251.473894 160.749714 
L 257.599451 161.755429 
L 263.725009 153.709714 
L 269.850566 151.698286 
L 275.976123 153.709714 
L 282.101681 171.812571 
L 288.227238 152.704 
L 294.352796 138.624 
L 300.478353 167.789714 
L 306.603911 164.772571 
L 312.729468 186.898286 
L 318.855026 225.115429 
L 324.980583 197.961143 
L 331.106141 196.955429 
L 337.231698 155.721143 
L 343.357256 147.675429 
L 349.482813 144.658286 
L 355.60837 131.584 
L 361.733928 150.692571 
L 367.859485 168.795429 
L 373.985043 150.692571 
L 380.1106 161.755429 
L 386.236158 162.761143 
L 392.361715 143.652571 
L 398.487273 102.418286 
L 398.487273 102.418286 
L 398.487273 102.418286 
L 392.361715 143.652571 
L 386.236158 162.761143 
L 380.1106 161.755429 
L 373.985043 150.692571 
L 367.859485 168.795429 
L 361.733928 150.692571 
L 355.60837 131.584 
L 349.482813 144.658286 
L 343.357256 147.675429 
L 337.231698 155.721143 
L 331.106141 196.955429 
L 324.980583 197.961143 
L 318.855026 225.115429 
L 312.729468 186.898286 
L 306.603911 149.686857 
L 300.478353 154.715429 
L 294.352796 123.538286 
L 288.227238 137.618286 
L 282.101681 154.715429 
L 275.976123 136.612571 
L 269.850566 133.595429 
L 263.725009 136.612571 
L 257.599451 142.646857 
L 251.473894 141.641143 
L 245.348336 116.498286 
L 239.222779 120.521143 
L 233.097221 119.515429 
L 226.971664 112.475429 
L 220.846106 119.515429 
L 214.720549 117.504 
L 208.594991 122.532571 
L 202.469434 111.469714 
L 196.343877 103.424 
L 190.218319 111.469714 
L 184.092762 111.469714 
L 177.967204 101.412571 
L 171.841647 92.361143 
L 165.716089 106.441143 
L 159.590532 104.429714 
L 153.464974 102.418286 
L 147.339417 128.566857 
L 141.213859 86.326857 
L 135.088302 99.401143 
L 128.962744 107.446857 
L 122.837187 94.372571 
L 116.71163 103.424 
L 110.586072 91.355429 
L 104.460515 93.366857 
L 98.334957 102.418286 
L 92.2094 89.344 
L 86.083842 87.332571 
L 79.958285 76.269714 
L 73.832727 71.241143 
z
" style="fill:#ff7f0e;"/>
   </g>
   <g id="PolyCollection_13">
    <path clip-path="url(#p918e0d8527)" d="M 73.832727 62.189714 
L 73.832727 71.241143 
L 79.958285 76.269714 
L 86.083842 87.332571 
L 92.2094 89.344 
L 98.334957 102.418286 
L 104.460515 93.366857 
L 110.586072 91.355429 
L 116.71163 103.424 
L 122.837187 94.372571 
L 128.962744 107.446857 
L 135.088302 99.401143 
L 141.213859 86.326857 
L 147.339417 128.566857 
L 153.464974 102.418286 
L 159.590532 104.429714 
L 165.716089 106.441143 
L 171.841647 92.361143 
L 177.967204 101.412571 
L 184.092762 111.469714 
L 190.218319 111.469714 
L 196.343877 103.424 
L 202.469434 111.469714 
L 208.594991 122.532571 
L 214.720549 117.504 
L 220.846106 119.515429 
L 226.971664 112.475429 
L 233.097221 119.515429 
L 239.222779 120.521143 
L 245.348336 116.498286 
L 251.473894 141.641143 
L 257.599451 142.646857 
L 263.725009 136.612571 
L 269.850566 133.595429 
L 275.976123 136.612571 
L 282.101681 154.715429 
L 288.227238 137.618286 
L 294.352796 123.538286 
L 300.478353 154.715429 
L 306.603911 149.686857 
L 312.729468 186.898286 
L 318.855026 225.115429 
L 324.980583 197.961143 
L 331.106141 196.955429 
L 337.231698 155.721143 
L 343.357256 147.675429 
L 349.482813 144.658286 
L 355.60837 131.584 
L 361.733928 150.692571 
L 367.859485 168.795429 
L 373.985043 150.692571 
L 380.1106 161.755429 
L 386.236158 162.761143 
L 392.361715 143.652571 
L 398.487273 102.418286 
L 398.487273 87.332571 
L 398.487273 87.332571 
L 392.361715 85.321143 
L 386.236158 103.424 
L 380.1106 120.521143 
L 373.985043 103.424 
L 367.859485 121.526857 
L 361.733928 120.521143 
L 355.60837 109.458286 
L 349.482813 112.475429 
L 343.357256 131.584 
L 337.231698 114.486857 
L 331.106141 123.538286 
L 324.980583 122.532571 
L 318.855026 129.572571 
L 312.729468 143.652571 
L 306.603911 129.572571 
L 300.478353 111.469714 
L 294.352796 87.332571 
L 288.227238 84.315429 
L 282.101681 104.429714 
L 275.976123 96.384 
L 269.850566 96.384 
L 263.725009 93.366857 
L 257.599451 100.406857 
L 251.473894 107.446857 
L 245.348336 86.326857 
L 239.222779 86.326857 
L 233.097221 91.355429 
L 226.971664 87.332571 
L 220.846106 86.326857 
L 214.720549 85.321143 
L 208.594991 82.304 
L 202.469434 88.338286 
L 196.343877 93.366857 
L 190.218319 81.298286 
L 184.092762 80.292571 
L 177.967204 78.281143 
L 171.841647 75.264 
L 165.716089 83.309714 
L 159.590532 83.309714 
L 153.464974 85.321143 
L 147.339417 81.298286 
L 141.213859 75.264 
L 135.088302 78.281143 
L 128.962744 86.326857 
L 122.837187 82.304 
L 116.71163 82.304 
L 110.586072 75.264 
L 104.460515 71.241143 
L 98.334957 73.252571 
L 92.2094 71.241143 
L 86.083842 73.252571 
L 79.958285 67.218286 
L 73.832727 62.189714 
z
" style="fill:#2ca02c;"/>
   </g>
   <g id="PolyCollection_14">
    <path clip-path="url(#p918e0d8527)" d="M 73.832727 61.184 
L 73.832727 62.189714 
L 79.958285 67.218286 
L 86.083842 73.252571 
L 92.2094 71.241143 
L 98.334957 73.252571 
L 104.460515 71.241143 
L 110.586072 75.264 
L 116.71163 82.304 
L 122.837187 82.304 
L 128.962744 86.326857 
L 135.088302 78.281143 
L 141.213859 75.264 
L 147.339417 81.298286 
L 153.464974 85.321143 
L 159.590532 83.309714 
L 165.716089 83.309714 
L 171.841647 75.264 
L 177.967204 78.281143 
L 184.092762 80.292571 
L 190.218319 81.298286 
L 196.343877 93.366857 
L 202.469434 88.338286 
L 208.594991 82.304 
L 214.720549 85.321143 
L 220.846106 86.326857 
L 226.971664 87.332571 
L 233.097221 91.355429 
L 239.222779 86.326857 
L 245.348336 86.326857 
L 251.473894 107.446857 
L 257.599451 100.406857 
L 263.725009 93.366857 
L 269.850566 96.384 
L 275.976123 96.384 
L 282.101681 104.429714 
L 288.227238 84.315429 
L 294.352796 87.332571 
L 300.478353 111.469714 
L 306.603911 129.572571 
L 312.729468 143.652571 
L 318.855026 129.572571 
L 324.980583 122.532571 
L 331.106141 123.538286 
L 337.231698 114.486857 
L 343.357256 131.584 
L 349.482813 112.475429 
L 355.60837 109.458286 
L 361.733928 120.521143 
L 367.859485 121.526857 
L 373.985043 103.424 
L 380.1106 120.521143 
L 386.236158 103.424 
L 392.361715 85.321143 
L 398.487273 87.332571 
L 398.487273 87.332571 
L 398.487273 87.332571 
L 392.361715 85.321143 
L 386.236158 103.424 
L 380.1106 120.521143 
L 373.985043 103.424 
L 367.859485 121.526857 
L 361.733928 120.521143 
L 355.60837 109.458286 
L 349.482813 112.475429 
L 343.357256 131.584 
L 337.231698 114.486857 
L 331.106141 123.538286 
L 324.980583 122.532571 
L 318.855026 129.572571 
L 312.729468 143.652571 
L 306.603911 129.572571 
L 300.478353 111.469714 
L 294.352796 87.332571 
L 288.227238 84.315429 
L 282.101681 104.429714 
L 275.976123 96.384 
L 269.850566 96.384 
L 263.725009 93.366857 
L 257.599451 100.406857 
L 251.473894 107.446857 
L 245.348336 86.326857 
L 239.222779 86.326857 
L 233.097221 91.355429 
L 226.971664 87.332571 
L 220.846106 86.326857 
L 214.720549 85.321143 
L 208.594991 82.304 
L 202.469434 85.321143 
L 196.343877 89.344 
L 190.218319 78.281143 
L 184.092762 78.281143 
L 177.967204 76.269714 
L 171.841647 73.252571 
L 165.716089 81.298286 
L 159.590532 79.286857 
L 153.464974 82.304 
L 147.339417 77.275429 
L 141.213859 70.235429 
L 135.088302 74.258286 
L 128.962744 83.309714 
L 122.837187 80.292571 
L 116.71163 78.281143 
L 110.586072 72.246857 
L 104.460515 69.229714 
L 98.334957 70.235429 
L 92.2094 66.212571 
L 86.083842 66.212571 
L 79.958285 63.195429 
L 73.832727 61.184 
z
" style="fill:#d62728;"/>
   </g>
   <g id="PolyCollection_15">
    <path clip-path="url(#p918e0d8527)" d="M 73.832727 59.172571 
L 73.832727 61.184 
L 79.958285 63.195429 
L 86.083842 66.212571 
L 92.2094 66.212571 
L 98.334957 70.235429 
L 104.460515 69.229714 
L 110.586072 72.246857 
L 116.71163 78.281143 
L 122.837187 80.292571 
L 128.962744 83.309714 
L 135.088302 74.258286 
L 141.213859 70.235429 
L 147.339417 77.275429 
L 153.464974 82.304 
L 159.590532 79.286857 
L 165.716089 81.298286 
L 171.841647 73.252571 
L 177.967204 76.269714 
L 184.092762 78.281143 
L 190.218319 78.281143 
L 196.343877 89.344 
L 202.469434 85.321143 
L 208.594991 82.304 
L 214.720549 85.321143 
L 220.846106 86.326857 
L 226.971664 87.332571 
L 233.097221 91.355429 
L 239.222779 86.326857 
L 245.348336 86.326857 
L 251.473894 107.446857 
L 257.599451 100.406857 
L 263.725009 93.366857 
L 269.850566 96.384 
L 275.976123 96.384 
L 282.101681 104.429714 
L 288.227238 84.315429 
L 294.352796 87.332571 
L 300.478353 111.469714 
L 306.603911 129.572571 
L 312.729468 143.652571 
L 318.855026 129.572571 
L 324.980583 122.532571 
L 331.106141 123.538286 
L 337.231698 114.486857 
L 343.357256 131.584 
L 349.482813 112.475429 
L 355.60837 109.458286 
L 361.733928 120.521143 
L 367.859485 121.526857 
L 373.985043 103.424 
L 380.1106 120.521143 
L 386.236158 103.424 
L 392.361715 85.321143 
L 398.487273 87.332571 
L 398.487273 87.332571 
L 398.487273 87.332571 
L 392.361715 85.321143 
L 386.236158 103.424 
L 380.1106 120.521143 
L 373.985043 103.424 
L 367.859485 121.526857 
L 361.733928 120.521143 
L 355.60837 109.458286 
L 349.482813 112.475429 
L 343.357256 131.584 
L 337.231698 114.486857 
L 331.106141 123.538286 
L 324.980583 122.532571 
L 318.855026 129.572571 
L 312.729468 143.652571 
L 306.603911 129.572571 
L 300.478353 111.469714 
L 294.352796 87.332571 
L 288.227238 84.315429 
L 282.101681 104.429714 
L 275.976123 96.384 
L 269.850566 96.384 
L 263.725009 90.349714 
L 257.599451 98.395429 
L 251.473894 105.435429 
L 245.348336 83.309714 
L 239.222779 84.315429 
L 233.097221 88.338286 
L 226.971664 85.321143 
L 220.846106 83.309714 
L 214.720549 81.298286 
L 208.594991 79.286857 
L 202.469434 83.309714 
L 196.343877 86.326857 
L 190.218319 76.269714 
L 184.092762 74.258286 
L 177.967204 71.241143 
L 171.841647 69.229714 
L 165.716089 78.281143 
L 159.590532 77.275429 
L 153.464974 79.286857 
L 147.339417 73.252571 
L 141.213859 67.218286 
L 135.088302 72.246857 
L 128.962744 80.292571 
L 122.837187 78.281143 
L 116.71163 75.264 
L 110.586072 70.235429 
L 104.460515 66.212571 
L 98.334957 67.218286 
L 92.2094 64.201143 
L 86.083842 64.201143 
L 79.958285 61.184 
L 73.832727 59.172571 
z
" style="fill:#9467bd;"/>
   </g>
   <g id="PolyCollection_16">
    <path clip-path="url(#p918e0d8527)" d="M 73.832727 58.166857 
L 73.832727 59.172571 
L 79.958285 61.184 
L 86.083842 64.201143 
L 92.2094 64.201143 
L 98.334957 67.218286 
L 104.460515 66.212571 
L 110.586072 70.235429 
L 116.71163 75.264 
L 122.837187 78.281143 
L 128.962744 80.292571 
L 135.088302 72.246857 
L 141.213859 67.218286 
L 147.339417 73.252571 
L 153.464974 79.286857 
L 159.590532 77.275429 
L 165.716089 78.281143 
L 171.841647 69.229714 
L 177.967204 71.241143 
L 184.092762 74.258286 
L 190.218319 76.269714 
L 196.343877 86.326857 
L 202.469434 83.309714 
L 208.594991 79.286857 
L 214.720549 81.298286 
L 220.846106 83.309714 
L 226.971664 85.321143 
L 233.097221 88.338286 
L 239.222779 84.315429 
L 245.348336 83.309714 
L 251.473894 105.435429 
L 257.599451 98.395429 
L 263.725009 90.349714 
L 269.850566 96.384 
L 275.976123 96.384 
L 282.101681 104.429714 
L 288.227238 84.315429 
L 294.352796 87.332571 
L 300.478353 111.469714 
L 306.603911 129.572571 
L 312.729468 143.652571 
L 318.855026 129.572571 
L 324.980583 122.532571 
L 331.106141 123.538286 
L 337.231698 114.486857 
L 343.357256 131.584 
L 349.482813 112.475429 
L 355.60837 109.458286 
L 361.733928 120.521143 
L 367.859485 121.526857 
L 373.985043 103.424 
L 380.1106 120.521143 
L 386.236158 103.424 
L 392.361715 85.321143 
L 398.487273 87.332571 
L 398.487273 83.309714 
L 398.487273 83.309714 
L 392.361715 83.309714 
L 386.236158 90.349714 
L 380.1106 96.384 
L 373.985043 89.344 
L 367.859485 98.395429 
L 361.733928 93.366857 
L 355.60837 84.315429 
L 349.482813 86.326857 
L 343.357256 101.412571 
L 337.231698 81.298286 
L 331.106141 92.361143 
L 324.980583 91.355429 
L 318.855026 97.389714 
L 312.729468 100.406857 
L 306.603911 100.406857 
L 300.478353 92.361143 
L 294.352796 69.229714 
L 288.227238 65.206857 
L 282.101681 80.292571 
L 275.976123 63.195429 
L 269.850566 64.201143 
L 263.725009 63.195429 
L 257.599451 63.195429 
L 251.473894 67.218286 
L 245.348336 61.184 
L 239.222779 63.195429 
L 233.097221 62.189714 
L 226.971664 63.195429 
L 220.846106 63.195429 
L 214.720549 62.189714 
L 208.594991 63.195429 
L 202.469434 64.201143 
L 196.343877 58.166857 
L 190.218319 60.178286 
L 184.092762 59.172571 
L 177.967204 60.178286 
L 171.841647 58.166857 
L 165.716089 59.172571 
L 159.590532 60.178286 
L 153.464974 64.201143 
L 147.339417 63.195429 
L 141.213859 61.184 
L 135.088302 61.184 
L 128.962744 62.189714 
L 122.837187 62.189714 
L 116.71163 61.184 
L 110.586072 60.178286 
L 104.460515 60.178286 
L 98.334957 62.189714 
L 92.2094 61.184 
L 86.083842 59.172571 
L 79.958285 60.178286 
L 73.832727 58.166857 
z
" style="fill:#8c564b;"/>
   </g>
   <g id="PolyCollection_17">
    <path clip-path="url(#p918e0d8527)" d="M 73.832727 57.161143 
L 73.832727 58.166857 
L 79.958285 60.178286 
L 86.083842 59.172571 
L 92.2094 61.184 
L 98.334957 62.189714 
L 104.460515 60.178286 
L 110.586072 60.178286 
L 116.71163 61.184 
L 122.837187 62.189714 
L 128.962744 62.189714 
L 135.088302 61.184 
L 141.213859 61.184 
L 147.339417 63.195429 
L 153.464974 64.201143 
L 159.590532 60.178286 
L 165.716089 59.172571 
L 171.841647 58.166857 
L 177.967204 60.178286 
L 184.092762 59.172571 
L 190.218319 60.178286 
L 196.343877 58.166857 
L 202.469434 64.201143 
L 208.594991 63.195429 
L 214.720549 62.189714 
L 220.846106 63.195429 
L 226.971664 63.195429 
L 233.097221 62.189714 
L 239.222779 63.195429 
L 245.348336 61.184 
L 251.473894 67.218286 
L 257.599451 63.195429 
L 263.725009 63.195429 
L 269.850566 64.201143 
L 275.976123 63.195429 
L 282.101681 80.292571 
L 288.227238 65.206857 
L 294.352796 69.229714 
L 300.478353 92.361143 
L 306.603911 100.406857 
L 312.729468 100.406857 
L 318.855026 97.389714 
L 324.980583 91.355429 
L 331.106141 92.361143 
L 337.231698 81.298286 
L 343.357256 101.412571 
L 349.482813 86.326857 
L 355.60837 84.315429 
L 361.733928 93.366857 
L 367.859485 98.395429 
L 373.985043 89.344 
L 380.1106 96.384 
L 386.236158 90.349714 
L 392.361715 83.309714 
L 398.487273 83.309714 
L 398.487273 67.218286 
L 398.487273 67.218286 
L 392.361715 68.224 
L 386.236158 77.275429 
L 380.1106 78.281143 
L 373.985043 74.258286 
L 367.859485 78.281143 
L 361.733928 77.275429 
L 355.60837 70.235429 
L 349.482813 71.241143 
L 343.357256 90.349714 
L 337.231698 72.246857 
L 331.106141 87.332571 
L 324.980583 87.332571 
L 318.855026 92.361143 
L 312.729468 96.384 
L 306.603911 97.389714 
L 300.478353 88.338286 
L 294.352796 65.206857 
L 288.227238 63.195429 
L 282.101681 77.275429 
L 275.976123 59.172571 
L 269.850566 59.172571 
L 263.725009 59.172571 
L 257.599451 60.178286 
L 251.473894 62.189714 
L 245.348336 58.166857 
L 239.222779 59.172571 
L 233.097221 57.161143 
L 226.971664 58.166857 
L 220.846106 59.172571 
L 214.720549 59.172571 
L 208.594991 59.172571 
L 202.469434 61.184 
L 196.343877 56.155429 
L 190.218319 58.166857 
L 184.092762 56.155429 
L 177.967204 56.155429 
L 171.841647 57.161143 
L 165.716089 56.155429 
L 159.590532 56.155429 
L 153.464974 61.184 
L 147.339417 59.172571 
L 141.213859 58.166857 
L 135.088302 57.161143 
L 128.962744 59.172571 
L 122.837187 58.166857 
L 116.71163 58.166857 
L 110.586072 56.155429 
L 104.460515 56.155429 
L 98.334957 59.172571 
L 92.2094 59.172571 
L 86.083842 57.161143 
L 79.958285 57.161143 
L 73.832727 57.161143 
z
" style="fill:#e377c2;"/>
   </g>
   <g id="PolyCollection_18">
    <path clip-path="url(#p918e0d8527)" d="M 73.832727 56.155429 
L 73.832727 57.161143 
L 79.958285 57.161143 
L 86.083842 57.161143 
L 92.2094 59.172571 
L 98.334957 59.172571 
L 104.460515 56.155429 
L 110.586072 56.155429 
L 116.71163 58.166857 
L 122.837187 58.166857 
L 128.962744 59.172571 
L 135.088302 57.161143 
L 141.213859 58.166857 
L 147.339417 59.172571 
L 153.464974 61.184 
L 159.590532 56.155429 
L 165.716089 56.155429 
L 171.841647 57.161143 
L 177.967204 56.155429 
L 184.092762 56.155429 
L 190.218319 58.166857 
L 196.343877 56.155429 
L 202.469434 61.184 
L 208.594991 59.172571 
L 214.720549 59.172571 
L 220.846106 59.172571 
L 226.971664 58.166857 
L 233.097221 57.161143 
L 239.222779 59.172571 
L 245.348336 58.166857 
L 251.473894 62.189714 
L 257.599451 60.178286 
L 263.725009 59.172571 
L 269.850566 59.172571 
L 275.976123 59.172571 
L 282.101681 77.275429 
L 288.227238 63.195429 
L 294.352796 65.206857 
L 300.478353 88.338286 
L 306.603911 97.389714 
L 312.729468 96.384 
L 318.855026 92.361143 
L 324.980583 87.332571 
L 331.106141 87.332571 
L 337.231698 72.246857 
L 343.357256 90.349714 
L 349.482813 71.241143 
L 355.60837 70.235429 
L 361.733928 77.275429 
L 367.859485 78.281143 
L 373.985043 74.258286 
L 380.1106 78.281143 
L 386.236158 77.275429 
L 392.361715 68.224 
L 398.487273 67.218286 
L 398.487273 55.149714 
L 398.487273 55.149714 
L 392.361715 57.161143 
L 386.236158 56.155429 
L 380.1106 56.155429 
L 373.985043 56.155429 
L 367.859485 56.155429 
L 361.733928 56.155429 
L 355.60837 58.166857 
L 349.482813 57.161143 
L 343.357256 56.155429 
L 337.231698 56.155429 
L 331.106141 57.161143 
L 324.980583 57.161143 
L 318.855026 56.155429 
L 312.729468 56.155429 
L 306.603911 58.166857 
L 300.478353 56.155429 
L 294.352796 56.155429 
L 288.227238 56.155429 
L 282.101681 55.149714 
L 275.976123 56.155429 
L 269.850566 57.161143 
L 263.725009 55.149714 
L 257.599451 58.166857 
L 251.473894 58.166857 
L 245.348336 55.149714 
L 239.222779 57.161143 
L 233.097221 56.155429 
L 226.971664 56.155429 
L 220.846106 57.161143 
L 214.720549 57.161143 
L 208.594991 57.161143 
L 202.469434 58.166857 
L 196.343877 54.144 
L 190.218319 55.149714 
L 184.092762 54.144 
L 177.967204 54.144 
L 171.841647 54.144 
L 165.716089 54.144 
L 159.590532 54.144 
L 153.464974 58.166857 
L 147.339417 56.155429 
L 141.213859 56.155429 
L 135.088302 54.144 
L 128.962744 57.161143 
L 122.837187 56.155429 
L 116.71163 56.155429 
L 110.586072 54.144 
L 104.460515 54.144 
L 98.334957 57.161143 
L 92.2094 55.149714 
L 86.083842 54.144 
L 79.958285 55.149714 
L 73.832727 56.155429 
z
" style="fill:#7f7f7f;"/>
   </g>
   <g id="matplotlib.axis_1">
    <g id="xtick_1">
     <g id="line2d_1">
      <defs>
       <path d="M 0 0 
L 0 3.5 
" id="mc195d017d7" style="stroke:#000000;stroke-width:0.8;"/>
      </defs>
      <g>
       <use style="stroke:#000000;stroke-width:0.8;" x="73.832727" xlink:href="#mc195d017d7" y="307.584"/>
      </g>
     </g>
     <g id="text_1">
      <!-- 0 -->
      <defs>
       <path d="M 31.78125 66.40625 
Q 24.171875 66.40625 20.328125 58.90625 
Q 16.5 51.421875 16.5 36.375 
Q 16.5 21.390625 20.328125 13.890625 
Q 24.171875 6.390625 31.78125 6.390625 
Q 39.453125 6.390625 43.28125 13.890625 
Q 47.125 21.390625 47.125 36.375 
Q 47.125 51.421875 43.28125 58.90625 
Q 39.453125 66.40625 31.78125 66.40625 
z
M 31.78125 74.21875 
Q 44.046875 74.21875 50.515625 64.515625 
Q 56.984375 54.828125 56.984375 36.375 
Q 56.984375 17.96875 50.515625 8.265625 
Q 44.046875 -1.421875 31.78125 -1.421875 
Q 19.53125 -1.421875 13.0625 8.265625 
Q 6.59375 17.96875 6.59375 36.375 
Q 6.59375 54.828125 13.0625 64.515625 
Q 19.53125 74.21875 31.78125 74.21875 
z
" id="DejaVuSans-48"/>
      </defs>
      <g transform="translate(70.651477 322.182437)scale(0.1 -0.1)">
       <use xlink:href="#DejaVuSans-48"/>
      </g>
     </g>
    </g>
    <g id="xtick_2">
     <g id="line2d_2">
      <g>
       <use style="stroke:#000000;stroke-width:0.8;" x="135.088302" xlink:href="#mc195d017d7" y="307.584"/>
      </g>
     </g>
     <g id="text_2">
      <!-- 10 -->
      <defs>
       <path d="M 12.40625 8.296875 
L 28.515625 8.296875 
L 28.515625 63.921875 
L 10.984375 60.40625 
L 10.984375 69.390625 
L 28.421875 72.90625 
L 38.28125 72.90625 
L 38.28125 8.296875 
L 54.390625 8.296875 
L 54.390625 0 
L 12.40625 0 
z
" id="DejaVuSans-49"/>
      </defs>
      <g transform="translate(128.725802 322.182437)scale(0.1 -0.1)">
       <use xlink:href="#DejaVuSans-49"/>
       <use x="63.623047" xlink:href="#DejaVuSans-48"/>
      </g>
     </g>
    </g>
    <g id="xtick_3">
     <g id="line2d_3">
      <g>
       <use style="stroke:#000000;stroke-width:0.8;" x="196.343877" xlink:href="#mc195d017d7" y="307.584"/>
      </g>
     </g>
     <g id="text_3">
      <!-- 20 -->
      <defs>
       <path d="M 19.1875 8.296875 
L 53.609375 8.296875 
L 53.609375 0 
L 7.328125 0 
L 7.328125 8.296875 
Q 12.9375 14.109375 22.625 23.890625 
Q 32.328125 33.6875 34.8125 36.53125 
Q 39.546875 41.84375 41.421875 45.53125 
Q 43.3125 49.21875 43.3125 52.78125 
Q 43.3125 58.59375 39.234375 62.25 
Q 35.15625 65.921875 28.609375 65.921875 
Q 23.96875 65.921875 18.8125 64.3125 
Q 13.671875 62.703125 7.8125 59.421875 
L 7.8125 69.390625 
Q 13.765625 71.78125 18.9375 73 
Q 24.125 74.21875 28.421875 74.21875 
Q 39.75 74.21875 46.484375 68.546875 
Q 53.21875 62.890625 53.21875 53.421875 
Q 53.21875 48.921875 51.53125 44.890625 
Q 49.859375 40.875 45.40625 35.40625 
Q 44.1875 33.984375 37.640625 27.21875 
Q 31.109375 20.453125 19.1875 8.296875 
z
" id="DejaVuSans-50"/>
      </defs>
      <g transform="translate(189.981377 322.182437)scale(0.1 -0.1)">
       <use xlink:href="#DejaVuSans-50"/>
       <use x="63.623047" xlink:href="#DejaVuSans-48"/>
      </g>
     </g>
    </g>
    <g id="xtick_4">
     <g id="line2d_4">
      <g>
       <use style="stroke:#000000;stroke-width:0.8;" x="257.599451" xlink:href="#mc195d017d7" y="307.584"/>
      </g>
     </g>
     <g id="text_4">
      <!-- 30 -->
      <defs>
       <path d="M 40.578125 39.3125 
Q 47.65625 37.796875 51.625 33 
Q 55.609375 28.21875 55.609375 21.1875 
Q 55.609375 10.40625 48.1875 4.484375 
Q 40.765625 -1.421875 27.09375 -1.421875 
Q 22.515625 -1.421875 17.65625 -0.515625 
Q 12.796875 0.390625 7.625 2.203125 
L 7.625 11.71875 
Q 11.71875 9.328125 16.59375 8.109375 
Q 21.484375 6.890625 26.8125 6.890625 
Q 36.078125 6.890625 40.9375 10.546875 
Q 45.796875 14.203125 45.796875 21.1875 
Q 45.796875 27.640625 41.28125 31.265625 
Q 36.765625 34.90625 28.71875 34.90625 
L 20.21875 34.90625 
L 20.21875 43.015625 
L 29.109375 43.015625 
Q 36.375 43.015625 40.234375 45.921875 
Q 44.09375 48.828125 44.09375 54.296875 
Q 44.09375 59.90625 40.109375 62.90625 
Q 36.140625 65.921875 28.71875 65.921875 
Q 24.65625 65.921875 20.015625 65.03125 
Q 15.375 64.15625 9.8125 62.3125 
L 9.8125 71.09375 
Q 15.4375 72.65625 20.34375 73.4375 
Q 25.25 74.21875 29.59375 74.21875 
Q 40.828125 74.21875 47.359375 69.109375 
Q 53.90625 64.015625 53.90625 55.328125 
Q 53.90625 49.265625 50.4375 45.09375 
Q 46.96875 40.921875 40.578125 39.3125 
z
" id="DejaVuSans-51"/>
      </defs>
      <g transform="translate(251.236951 322.182437)scale(0.1 -0.1)">
       <use xlink:href="#DejaVuSans-51"/>
       <use x="63.623047" xlink:href="#DejaVuSans-48"/>
      </g>
     </g>
    </g>
    <g id="xtick_5">
     <g id="line2d_5">
      <g>
       <use style="stroke:#000000;stroke-width:0.8;" x="318.855026" xlink:href="#mc195d017d7" y="307.584"/>
      </g>
     </g>
     <g id="text_5">
      <!-- 40 -->
      <defs>
       <path d="M 37.796875 64.3125 
L 12.890625 25.390625 
L 37.796875 25.390625 
z
M 35.203125 72.90625 
L 47.609375 72.90625 
L 47.609375 25.390625 
L 58.015625 25.390625 
L 58.015625 17.1875 
L 47.609375 17.1875 
L 47.609375 0 
L 37.796875 0 
L 37.796875 17.1875 
L 4.890625 17.1875 
L 4.890625 26.703125 
z
" id="DejaVuSans-52"/>
      </defs>
      <g transform="translate(312.492526 322.182437)scale(0.1 -0.1)">
       <use xlink:href="#DejaVuSans-52"/>
       <use x="63.623047" xlink:href="#DejaVuSans-48"/>
      </g>
     </g>
    </g>
    <g id="xtick_6">
     <g id="line2d_6">
      <g>
       <use style="stroke:#000000;stroke-width:0.8;" x="380.1106" xlink:href="#mc195d017d7" y="307.584"/>
      </g>
     </g>
     <g id="text_6">
      <!-- 50 -->
      <defs>
       <path d="M 10.796875 72.90625 
L 49.515625 72.90625 
L 49.515625 64.59375 
L 19.828125 64.59375 
L 19.828125 46.734375 
Q 21.96875 47.46875 24.109375 47.828125 
Q 26.265625 48.1875 28.421875 48.1875 
Q 40.625 48.1875 47.75 41.5 
Q 54.890625 34.8125 54.890625 23.390625 
Q 54.890625 11.625 47.5625 5.09375 
Q 40.234375 -1.421875 26.90625 -1.421875 
Q 22.3125 -1.421875 17.546875 -0.640625 
Q 12.796875 0.140625 7.71875 1.703125 
L 7.71875 11.625 
Q 12.109375 9.234375 16.796875 8.0625 
Q 21.484375 6.890625 26.703125 6.890625 
Q 35.15625 6.890625 40.078125 11.328125 
Q 45.015625 15.765625 45.015625 23.390625 
Q 45.015625 31 40.078125 35.4375 
Q 35.15625 39.890625 26.703125 39.890625 
Q 22.75 39.890625 18.8125 39.015625 
Q 14.890625 38.140625 10.796875 36.28125 
z
" id="DejaVuSans-53"/>
      </defs>
      <g transform="translate(373.7481 322.182437)scale(0.1 -0.1)">
       <use xlink:href="#DejaVuSans-53"/>
       <use x="63.623047" xlink:href="#DejaVuSans-48"/>
      </g>
     </g>
    </g>
    <g id="text_7">
     <!-- Generations -->
     <defs>
      <path d="M 59.515625 10.40625 
L 59.515625 29.984375 
L 43.40625 29.984375 
L 43.40625 38.09375 
L 69.28125 38.09375 
L 69.28125 6.78125 
Q 63.578125 2.734375 56.6875 0.65625 
Q 49.8125 -1.421875 42 -1.421875 
Q 24.90625 -1.421875 15.25 8.5625 
Q 5.609375 18.5625 5.609375 36.375 
Q 5.609375 54.25 15.25 64.234375 
Q 24.90625 74.21875 42 74.21875 
Q 49.125 74.21875 55.546875 72.453125 
Q 61.96875 70.703125 67.390625 67.28125 
L 67.390625 56.78125 
Q 61.921875 61.421875 55.765625 63.765625 
Q 49.609375 66.109375 42.828125 66.109375 
Q 29.4375 66.109375 22.71875 58.640625 
Q 16.015625 51.171875 16.015625 36.375 
Q 16.015625 21.625 22.71875 14.15625 
Q 29.4375 6.6875 42.828125 6.6875 
Q 48.046875 6.6875 52.140625 7.59375 
Q 56.25 8.5 59.515625 10.40625 
z
" id="DejaVuSans-71"/>
      <path d="M 56.203125 29.59375 
L 56.203125 25.203125 
L 14.890625 25.203125 
Q 15.484375 15.921875 20.484375 11.0625 
Q 25.484375 6.203125 34.421875 6.203125 
Q 39.59375 6.203125 44.453125 7.46875 
Q 49.3125 8.734375 54.109375 11.28125 
L 54.109375 2.78125 
Q 49.265625 0.734375 44.1875 -0.34375 
Q 39.109375 -1.421875 33.890625 -1.421875 
Q 20.796875 -1.421875 13.15625 6.1875 
Q 5.515625 13.8125 5.515625 26.8125 
Q 5.515625 40.234375 12.765625 48.109375 
Q 20.015625 56 32.328125 56 
Q 43.359375 56 49.78125 48.890625 
Q 56.203125 41.796875 56.203125 29.59375 
z
M 47.21875 32.234375 
Q 47.125 39.59375 43.09375 43.984375 
Q 39.0625 48.390625 32.421875 48.390625 
Q 24.90625 48.390625 20.390625 44.140625 
Q 15.875 39.890625 15.1875 32.171875 
z
" id="DejaVuSans-101"/>
      <path d="M 54.890625 33.015625 
L 54.890625 0 
L 45.90625 0 
L 45.90625 32.71875 
Q 45.90625 40.484375 42.875 44.328125 
Q 39.84375 48.1875 33.796875 48.1875 
Q 26.515625 48.1875 22.3125 43.546875 
Q 18.109375 38.921875 18.109375 30.90625 
L 18.109375 0 
L 9.078125 0 
L 9.078125 54.6875 
L 18.109375 54.6875 
L 18.109375 46.1875 
Q 21.34375 51.125 25.703125 53.5625 
Q 30.078125 56 35.796875 56 
Q 45.21875 56 50.046875 50.171875 
Q 54.890625 44.34375 54.890625 33.015625 
z
" id="DejaVuSans-110"/>
      <path d="M 41.109375 46.296875 
Q 39.59375 47.171875 37.8125 47.578125 
Q 36.03125 48 33.890625 48 
Q 26.265625 48 22.1875 43.046875 
Q 18.109375 38.09375 18.109375 28.8125 
L 18.109375 0 
L 9.078125 0 
L 9.078125 54.6875 
L 18.109375 54.6875 
L 18.109375 46.1875 
Q 20.953125 51.171875 25.484375 53.578125 
Q 30.03125 56 36.53125 56 
Q 37.453125 56 38.578125 55.875 
Q 39.703125 55.765625 41.0625 55.515625 
z
" id="DejaVuSans-114"/>
      <path d="M 34.28125 27.484375 
Q 23.390625 27.484375 19.1875 25 
Q 14.984375 22.515625 14.984375 16.5 
Q 14.984375 11.71875 18.140625 8.90625 
Q 21.296875 6.109375 26.703125 6.109375 
Q 34.1875 6.109375 38.703125 11.40625 
Q 43.21875 16.703125 43.21875 25.484375 
L 43.21875 27.484375 
z
M 52.203125 31.203125 
L 52.203125 0 
L 43.21875 0 
L 43.21875 8.296875 
Q 40.140625 3.328125 35.546875 0.953125 
Q 30.953125 -1.421875 24.3125 -1.421875 
Q 15.921875 -1.421875 10.953125 3.296875 
Q 6 8.015625 6 15.921875 
Q 6 25.140625 12.171875 29.828125 
Q 18.359375 34.515625 30.609375 34.515625 
L 43.21875 34.515625 
L 43.21875 35.40625 
Q 43.21875 41.609375 39.140625 45 
Q 35.0625 48.390625 27.6875 48.390625 
Q 23 48.390625 18.546875 47.265625 
Q 14.109375 46.140625 10.015625 43.890625 
L 10.015625 52.203125 
Q 14.9375 54.109375 19.578125 55.046875 
Q 24.21875 56 28.609375 56 
Q 40.484375 56 46.34375 49.84375 
Q 52.203125 43.703125 52.203125 31.203125 
z
" id="DejaVuSans-97"/>
      <path d="M 18.3125 70.21875 
L 18.3125 54.6875 
L 36.8125 54.6875 
L 36.8125 47.703125 
L 18.3125 47.703125 
L 18.3125 18.015625 
Q 18.3125 11.328125 20.140625 9.421875 
Q 21.96875 7.515625 27.59375 7.515625 
L 36.8125 7.515625 
L 36.8125 0 
L 27.59375 0 
Q 17.1875 0 13.234375 3.875 
Q 9.28125 7.765625 9.28125 18.015625 
L 9.28125 47.703125 
L 2.6875 47.703125 
L 2.6875 54.6875 
L 9.28125 54.6875 
L 9.28125 70.21875 
z
" id="DejaVuSans-116"/>
      <path d="M 9.421875 54.6875 
L 18.40625 54.6875 
L 18.40625 0 
L 9.421875 0 
z
M 9.421875 75.984375 
L 18.40625 75.984375 
L 18.40625 64.59375 
L 9.421875 64.59375 
z
" id="DejaVuSans-105"/>
      <path d="M 30.609375 48.390625 
Q 23.390625 48.390625 19.1875 42.75 
Q 14.984375 37.109375 14.984375 27.296875 
Q 14.984375 17.484375 19.15625 11.84375 
Q 23.34375 6.203125 30.609375 6.203125 
Q 37.796875 6.203125 41.984375 11.859375 
Q 46.1875 17.53125 46.1875 27.296875 
Q 46.1875 37.015625 41.984375 42.703125 
Q 37.796875 48.390625 30.609375 48.390625 
z
M 30.609375 56 
Q 42.328125 56 49.015625 48.375 
Q 55.71875 40.765625 55.71875 27.296875 
Q 55.71875 13.875 49.015625 6.21875 
Q 42.328125 -1.421875 30.609375 -1.421875 
Q 18.84375 -1.421875 12.171875 6.21875 
Q 5.515625 13.875 5.515625 27.296875 
Q 5.515625 40.765625 12.171875 48.375 
Q 18.84375 56 30.609375 56 
z
" id="DejaVuSans-111"/>
      <path d="M 44.28125 53.078125 
L 44.28125 44.578125 
Q 40.484375 46.53125 36.375 47.5 
Q 32.28125 48.484375 27.875 48.484375 
Q 21.1875 48.484375 17.84375 46.4375 
Q 14.5 44.390625 14.5 40.28125 
Q 14.5 37.15625 16.890625 35.375 
Q 19.28125 33.59375 26.515625 31.984375 
L 29.59375 31.296875 
Q 39.15625 29.25 43.1875 25.515625 
Q 47.21875 21.78125 47.21875 15.09375 
Q 47.21875 7.46875 41.1875 3.015625 
Q 35.15625 -1.421875 24.609375 -1.421875 
Q 20.21875 -1.421875 15.453125 -0.5625 
Q 10.6875 0.296875 5.421875 2 
L 5.421875 11.28125 
Q 10.40625 8.6875 15.234375 7.390625 
Q 20.0625 6.109375 24.8125 6.109375 
Q 31.15625 6.109375 34.5625 8.28125 
Q 37.984375 10.453125 37.984375 14.40625 
Q 37.984375 18.0625 35.515625 20.015625 
Q 33.0625 21.96875 24.703125 23.78125 
L 21.578125 24.515625 
Q 13.234375 26.265625 9.515625 29.90625 
Q 5.8125 33.546875 5.8125 39.890625 
Q 5.8125 47.609375 11.28125 51.796875 
Q 16.75 56 26.8125 56 
Q 31.78125 56 36.171875 55.265625 
Q 40.578125 54.546875 44.28125 53.078125 
z
" id="DejaVuSans-115"/>
     </defs>
     <g transform="translate(205.662344 335.860562)scale(0.1 -0.1)">
      <use xlink:href="#DejaVuSans-71"/>
      <use x="77.490234" xlink:href="#DejaVuSans-101"/>
      <use x="139.013672" xlink:href="#DejaVuSans-110"/>
      <use x="202.392578" xlink:href="#DejaVuSans-101"/>
      <use x="263.916016" xlink:href="#DejaVuSans-114"/>
      <use x="305.029297" xlink:href="#DejaVuSans-97"/>
      <use x="366.308594" xlink:href="#DejaVuSans-116"/>
      <use x="405.517578" xlink:href="#DejaVuSans-105"/>
      <use x="433.300781" xlink:href="#DejaVuSans-111"/>
      <use x="494.482422" xlink:href="#DejaVuSans-110"/>
      <use x="557.861328" xlink:href="#DejaVuSans-115"/>
     </g>
    </g>
   </g>
   <g id="matplotlib.axis_2">
    <g id="ytick_1">
     <g id="line2d_7">
      <defs>
       <path d="M 0 0 
L -3.5 0 
" id="m004e88c868" style="stroke:#000000;stroke-width:0.8;"/>
      </defs>
      <g>
       <use style="stroke:#000000;stroke-width:0.8;" x="57.6" xlink:href="#m004e88c868" y="307.584"/>
      </g>
     </g>
     <g id="text_8">
      <!-- 0 -->
      <g transform="translate(44.2375 311.383219)scale(0.1 -0.1)">
       <use xlink:href="#DejaVuSans-48"/>
      </g>
     </g>
    </g>
    <g id="ytick_2">
     <g id="line2d_8">
      <g>
       <use style="stroke:#000000;stroke-width:0.8;" x="57.6" xlink:href="#m004e88c868" y="257.298286"/>
      </g>
     </g>
     <g id="text_9">
      <!-- 50 -->
      <g transform="translate(37.875 261.097504)scale(0.1 -0.1)">
       <use xlink:href="#DejaVuSans-53"/>
       <use x="63.623047" xlink:href="#DejaVuSans-48"/>
      </g>
     </g>
    </g>
    <g id="ytick_3">
     <g id="line2d_9">
      <g>
       <use style="stroke:#000000;stroke-width:0.8;" x="57.6" xlink:href="#m004e88c868" y="207.012571"/>
      </g>
     </g>
     <g id="text_10">
      <!-- 100 -->
      <g transform="translate(31.5125 210.81179)scale(0.1 -0.1)">
       <use xlink:href="#DejaVuSans-49"/>
       <use x="63.623047" xlink:href="#DejaVuSans-48"/>
       <use x="127.246094" xlink:href="#DejaVuSans-48"/>
      </g>
     </g>
    </g>
    <g id="ytick_4">
     <g id="line2d_10">
      <g>
       <use style="stroke:#000000;stroke-width:0.8;" x="57.6" xlink:href="#m004e88c868" y="156.726857"/>
      </g>
     </g>
     <g id="text_11">
      <!-- 150 -->
      <g transform="translate(31.5125 160.526076)scale(0.1 -0.1)">
       <use xlink:href="#DejaVuSans-49"/>
       <use x="63.623047" xlink:href="#DejaVuSans-53"/>
       <use x="127.246094" xlink:href="#DejaVuSans-48"/>
      </g>
     </g>
    </g>
    <g id="ytick_5">
     <g id="line2d_11">
      <g>
       <use style="stroke:#000000;stroke-width:0.8;" x="57.6" xlink:href="#m004e88c868" y="106.441143"/>
      </g>
     </g>
     <g id="text_12">
      <!-- 200 -->
      <g transform="translate(31.5125 110.240362)scale(0.1 -0.1)">
       <use xlink:href="#DejaVuSans-50"/>
       <use x="63.623047" xlink:href="#DejaVuSans-48"/>
       <use x="127.246094" xlink:href="#DejaVuSans-48"/>
      </g>
     </g>
    </g>
    <g id="ytick_6">
     <g id="line2d_12">
      <g>
       <use style="stroke:#000000;stroke-width:0.8;" x="57.6" xlink:href="#m004e88c868" y="56.155429"/>
      </g>
     </g>
     <g id="text_13">
      <!-- 250 -->
      <g transform="translate(31.5125 59.954647)scale(0.1 -0.1)">
       <use xlink:href="#DejaVuSans-50"/>
       <use x="63.623047" xlink:href="#DejaVuSans-53"/>
       <use x="127.246094" xlink:href="#DejaVuSans-48"/>
      </g>
     </g>
    </g>
    <g id="text_14">
     <!-- Size per Species -->
     <defs>
      <path d="M 53.515625 70.515625 
L 53.515625 60.890625 
Q 47.90625 63.578125 42.921875 64.890625 
Q 37.9375 66.21875 33.296875 66.21875 
Q 25.25 66.21875 20.875 63.09375 
Q 16.5 59.96875 16.5 54.203125 
Q 16.5 49.359375 19.40625 46.890625 
Q 22.3125 44.4375 30.421875 42.921875 
L 36.375 41.703125 
Q 47.40625 39.59375 52.65625 34.296875 
Q 57.90625 29 57.90625 20.125 
Q 57.90625 9.515625 50.796875 4.046875 
Q 43.703125 -1.421875 29.984375 -1.421875 
Q 24.8125 -1.421875 18.96875 -0.25 
Q 13.140625 0.921875 6.890625 3.21875 
L 6.890625 13.375 
Q 12.890625 10.015625 18.65625 8.296875 
Q 24.421875 6.59375 29.984375 6.59375 
Q 38.421875 6.59375 43.015625 9.90625 
Q 47.609375 13.234375 47.609375 19.390625 
Q 47.609375 24.75 44.3125 27.78125 
Q 41.015625 30.8125 33.5 32.328125 
L 27.484375 33.5 
Q 16.453125 35.6875 11.515625 40.375 
Q 6.59375 45.0625 6.59375 53.421875 
Q 6.59375 63.09375 13.40625 68.65625 
Q 20.21875 74.21875 32.171875 74.21875 
Q 37.3125 74.21875 42.625 73.28125 
Q 47.953125 72.359375 53.515625 70.515625 
z
" id="DejaVuSans-83"/>
      <path d="M 5.515625 54.6875 
L 48.1875 54.6875 
L 48.1875 46.484375 
L 14.40625 7.171875 
L 48.1875 7.171875 
L 48.1875 0 
L 4.296875 0 
L 4.296875 8.203125 
L 38.09375 47.515625 
L 5.515625 47.515625 
z
" id="DejaVuSans-122"/>
      <path id="DejaVuSans-32"/>
      <path d="M 18.109375 8.203125 
L 18.109375 -20.796875 
L 9.078125 -20.796875 
L 9.078125 54.6875 
L 18.109375 54.6875 
L 18.109375 46.390625 
Q 20.953125 51.265625 25.265625 53.625 
Q 29.59375 56 35.59375 56 
Q 45.5625 56 51.78125 48.09375 
Q 58.015625 40.1875 58.015625 27.296875 
Q 58.015625 14.40625 51.78125 6.484375 
Q 45.5625 -1.421875 35.59375 -1.421875 
Q 29.59375 -1.421875 25.265625 0.953125 
Q 20.953125 3.328125 18.109375 8.203125 
z
M 48.6875 27.296875 
Q 48.6875 37.203125 44.609375 42.84375 
Q 40.53125 48.484375 33.40625 48.484375 
Q 26.265625 48.484375 22.1875 42.84375 
Q 18.109375 37.203125 18.109375 27.296875 
Q 18.109375 17.390625 22.1875 11.75 
Q 26.265625 6.109375 33.40625 6.109375 
Q 40.53125 6.109375 44.609375 11.75 
Q 48.6875 17.390625 48.6875 27.296875 
z
" id="DejaVuSans-112"/>
      <path d="M 48.78125 52.59375 
L 48.78125 44.1875 
Q 44.96875 46.296875 41.140625 47.34375 
Q 37.3125 48.390625 33.40625 48.390625 
Q 24.65625 48.390625 19.8125 42.84375 
Q 14.984375 37.3125 14.984375 27.296875 
Q 14.984375 17.28125 19.8125 11.734375 
Q 24.65625 6.203125 33.40625 6.203125 
Q 37.3125 6.203125 41.140625 7.25 
Q 44.96875 8.296875 48.78125 10.40625 
L 48.78125 2.09375 
Q 45.015625 0.34375 40.984375 -0.53125 
Q 36.96875 -1.421875 32.421875 -1.421875 
Q 20.0625 -1.421875 12.78125 6.34375 
Q 5.515625 14.109375 5.515625 27.296875 
Q 5.515625 40.671875 12.859375 48.328125 
Q 20.21875 56 33.015625 56 
Q 37.15625 56 41.109375 55.140625 
Q 45.0625 54.296875 48.78125 52.59375 
z
" id="DejaVuSans-99"/>
     </defs>
     <g transform="translate(25.432812 215.520969)rotate(-90)scale(0.1 -0.1)">
      <use xlink:href="#DejaVuSans-83"/>
      <use x="63.476562" xlink:href="#DejaVuSans-105"/>
      <use x="91.259766" xlink:href="#DejaVuSans-122"/>
      <use x="143.75" xlink:href="#DejaVuSans-101"/>
      <use x="205.273438" xlink:href="#DejaVuSans-32"/>
      <use x="237.060547" xlink:href="#DejaVuSans-112"/>
      <use x="300.537109" xlink:href="#DejaVuSans-101"/>
      <use x="362.060547" xlink:href="#DejaVuSans-114"/>
      <use x="403.173828" xlink:href="#DejaVuSans-32"/>
      <use x="434.960938" xlink:href="#DejaVuSans-83"/>
      <use x="498.4375" xlink:href="#DejaVuSans-112"/>
      <use x="561.914062" xlink:href="#DejaVuSans-101"/>
      <use x="623.4375" xlink:href="#DejaVuSans-99"/>
      <use x="678.417969" xlink:href="#DejaVuSans-105"/>
      <use x="706.201172" xlink:href="#DejaVuSans-101"/>
      <use x="767.724609" xlink:href="#DejaVuSans-115"/>
     </g>
    </g>
   </g>
   <g id="patch_3">
    <path d="M 57.6 307.584 
L 57.6 41.472 
" style="fill:none;stroke:#000000;stroke-linecap:square;stroke-linejoin:miter;stroke-width:0.8;"/>
   </g>
   <g id="patch_4">
    <path d="M 414.72 307.584 
L 414.72 41.472 
" style="fill:none;stroke:#000000;stroke-linecap:square;stroke-linejoin:miter;stroke-width:0.8;"/>
   </g>
   <g id="patch_5">
    <path d="M 57.6 307.584 
L 414.72 307.584 
" style="fill:none;stroke:#000000;stroke-linecap:square;stroke-linejoin:miter;stroke-width:0.8;"/>
   </g>
   <g id="patch_6">
    <path d="M 57.6 41.472 
L 414.72 41.472 
" style="fill:none;stroke:#000000;stroke-linecap:square;stroke-linejoin:miter;stroke-width:0.8;"/>
   </g>
   <g id="text_15">
    <!-- Speciation -->
    <g transform="translate(204.714375 35.472)scale(0.12 -0.12)">
     <use xlink:href="#DejaVuSans-83"/>
     <use x="63.476562" xlink:href="#DejaVuSans-112"/>
     <use x="126.953125" xlink:href="#DejaVuSans-101"/>
     <use x="188.476562" xlink:href="#DejaVuSans-99"/>
     <use x="243.457031" xlink:href="#DejaVuSans-105"/>
     <use x="271.240234" xlink:href="#DejaVuSans-97"/>
     <use x="332.519531" xlink:href="#DejaVuSans-116"/>
     <use x="371.728516" xlink:href="#DejaVuSans-105"/>
     <use x="399.511719" xlink:href="#DejaVuSans-111"/>
     <use x="460.693359" xlink:href="#DejaVuSans-110"/>
    </g>
   </g>
  </g>
 </g>
 <defs>
  <clipPath id="p918e0d8527">
   <rect height="266.112" width="357.12" x="57.6" y="41.472"/>
  </clipPath>
 </defs>
</svg>
