<?xml version="1.0" encoding="UTF-8" standalone="no"?>
<!DOCTYPE svg PUBLIC "-//W3C//DTD SVG 1.1//EN"
 "http://www.w3.org/Graphics/SVG/1.1/DTD/svg11.dtd">
<!-- Generated by graphviz version 2.38.0 (20140413.2041)
 -->
<!-- Title: %3 Pages: 1 -->
<svg width="187pt" height="207pt"
 viewBox="0.00 0.00 186.50 206.89" xmlns="http://www.w3.org/2000/svg" xmlns:xlink="http://www.w3.org/1999/xlink">
<g id="graph0" class="graph" transform="scale(1 1) rotate(0) translate(4 202.894)">
<title>%3</title>
<polygon fill="white" stroke="none" points="-4,4 -4,-202.894 182.5,-202.894 182.5,4 -4,4"/>
<!-- x -->
<g id="node1" class="node"><title>x</title>
<polygon fill="lightgray" stroke="black" points="20,-198.894 0,-198.894 0,-180.894 20,-180.894 20,-198.894"/>
<text text-anchor="middle" x="10" y="-187.694" font-family="Times New Roman,serif" font-size="9.00">x</text>
</g>
<!-- dx -->
<g id="node2" class="node"><title>dx</title>
<polygon fill="lightgray" stroke="black" points="63.5,-198.894 38.5,-198.894 38.5,-180.894 63.5,-180.894 63.5,-198.894"/>
<text text-anchor="middle" x="51" y="-187.694" font-family="Times New Roman,serif" font-size="9.00">dx</text>
</g>
<!-- control -->
<g id="node5" class="node"><title>control</title>
<ellipse fill="lightblue" stroke="black" cx="105" cy="-115.196" rx="29.8983" ry="29.8983"/>
<text text-anchor="middle" x="105" y="-112.996" font-family="Times New Roman,serif" font-size="9.00">control</text>
</g>
<!-- dx&#45;&gt;control -->
<g id="edge2" class="edge"><title>dx&#45;&gt;control</title>
<path fill="none" stroke="green" stroke-width="0.341877" d="M56.9853,-180.837C62.9647,-172.787 72.5427,-159.892 81.5769,-147.73"/>
<polygon fill="green" stroke="green" stroke-width="0.341877" points="84.5403,-149.61 87.6936,-139.495 78.9209,-145.436 84.5403,-149.61"/>
</g>
<!-- 2236 -->
<g id="node6" class="node"><title>2236</title>
<ellipse fill="none" stroke="black" cx="105" cy="-24.7487" rx="25" ry="25"/>
<text text-anchor="middle" x="105" y="-22.5487" font-family="Times New Roman,serif" font-size="9.00">2236</text>
</g>
<!-- dx&#45;&gt;2236 -->
<g id="edge6" class="edge"><title>dx&#45;&gt;2236</title>
<path fill="none" stroke="red" stroke-width="0.171191" d="M51.0026,-180.821C51.2558,-163.013 53.2444,-119.265 66,-85.4975 70.3336,-74.0253 77.148,-62.4906 83.8762,-52.6575"/>
<polygon fill="red" stroke="red" stroke-width="0.171191" points="86.7394,-54.6707 89.7023,-44.4986 81.0427,-50.6028 86.7394,-54.6707"/>
</g>
<!-- theta -->
<g id="node3" class="node"><title>theta</title>
<polygon fill="lightgray" stroke="black" points="178.5,-198.894 143.5,-198.894 143.5,-180.894 178.5,-180.894 178.5,-198.894"/>
<text text-anchor="middle" x="161" y="-187.694" font-family="Times New Roman,serif" font-size="9.00">theta</text>
</g>
<!-- theta&#45;&gt;control -->
<g id="edge3" class="edge"><title>theta&#45;&gt;control</title>
<path fill="none" stroke="green" stroke-width="0.478256" d="M154.793,-180.837C148.486,-172.649 138.318,-159.448 128.809,-147.105"/>
<polygon fill="green" stroke="green" stroke-width="0.478256" points="131.578,-144.964 122.703,-139.178 126.033,-149.236 131.578,-144.964"/>
</g>
<!-- theta&#45;&gt;2236 -->
<g id="edge4" class="edge"><title>theta&#45;&gt;2236</title>
<path fill="none" stroke="green" stroke-width="0.241768" d="M160.797,-180.818C160.112,-163.003 157.112,-119.241 144,-85.4975 139.558,-74.0668 132.719,-62.5415 126.002,-52.7043"/>
<polygon fill="green" stroke="green" stroke-width="0.241768" points="128.842,-50.6584 120.193,-44.5388 123.138,-54.7161 128.842,-50.6584"/>
</g>
<!-- dtheta -->
<g id="node4" class="node"><title>dtheta</title>
<polygon fill="lightgray" stroke="black" points="124.5,-198.894 85.5,-198.894 85.5,-180.894 124.5,-180.894 124.5,-198.894"/>
<text text-anchor="middle" x="105" y="-187.694" font-family="Times New Roman,serif" font-size="9.00">dtheta</text>
</g>
<!-- dtheta&#45;&gt;control -->
<g id="edge1" class="edge"><title>dtheta&#45;&gt;control</title>
<path fill="none" stroke="green" stroke-width="0.830408" d="M105,-180.837C105,-174.416 105,-164.914 105,-155.159"/>
<polygon fill="green" stroke="green" stroke-width="0.830408" points="108.5,-155.021 105,-145.021 101.5,-155.021 108.5,-155.021"/>
</g>
<!-- control&#45;&gt;2236 -->
<g id="edge5" class="edge"><title>control&#45;&gt;2236</title>
<path fill="none" stroke="green" stroke-width="0.507723" d="M105,-85.235C105,-77.1584 105,-68.3076 105,-59.9592"/>
<polygon fill="green" stroke="green" stroke-width="0.507723" points="108.5,-59.7494 105,-49.7494 101.5,-59.7495 108.5,-59.7494"/>
</g>
</g>
</svg>
