<?xml version="1.0" encoding="UTF-8" standalone="no"?>
<!DOCTYPE svg PUBLIC "-//W3C//DTD SVG 1.1//EN"
 "http://www.w3.org/Graphics/SVG/1.1/DTD/svg11.dtd">
<!-- Generated by graphviz version 2.38.0 (20140413.2041)
 -->
<!-- Title: %3 Pages: 1 -->
<svg width="192pt" height="301pt"
 viewBox="0.00 0.00 191.94 300.88" xmlns="http://www.w3.org/2000/svg" xmlns:xlink="http://www.w3.org/1999/xlink">
<g id="graph0" class="graph" transform="scale(1 1) rotate(0) translate(4 296.877)">
<title>%3</title>
<polygon fill="white" stroke="none" points="-4,4 -4,-296.877 187.939,-296.877 187.939,4 -4,4"/>
<!-- A -->
<g id="node1" class="node"><title>A</title>
<polygon fill="lightgray" stroke="black" points="79.7595,-292.877 56.7595,-292.877 56.7595,-274.877 79.7595,-274.877 79.7595,-292.877"/>
<text text-anchor="middle" x="68.2595" y="-281.677" font-family="Times New Roman,serif" font-size="9.00">A</text>
</g>
<!-- A XOR B -->
<g id="node3" class="node"><title>A XOR B</title>
<ellipse fill="lightblue" stroke="black" cx="97.2595" cy="-37.4767" rx="37.4533" ry="37.4533"/>
<text text-anchor="middle" x="97.2595" y="-35.2767" font-family="Times New Roman,serif" font-size="9.00">A XOR B</text>
</g>
<!-- A&#45;&gt;A XOR B -->
<g id="edge1" class="edge"><title>A&#45;&gt;A XOR B</title>
<path fill="none" stroke="red" stroke-width="0.611629" d="M56.7502,-278.613C41.9404,-272.425 16.8603,-259.399 6.25954,-238.877 -3.83664,-219.332 0.363669,-210.574 6.25954,-189.38 18.1251,-146.726 45.6552,-104.074 67.348,-75.0522"/>
<polygon fill="red" stroke="red" stroke-width="0.611629" points="70.3058,-76.9452 73.5807,-66.8692 64.7371,-72.7037 70.3058,-76.9452"/>
</g>
<!-- 530 -->
<g id="node5" class="node"><title>530</title>
<ellipse fill="white" stroke="black" cx="36.2595" cy="-214.128" rx="21.4286" ry="21.4286"/>
<text text-anchor="middle" x="36.2595" y="-211.928" font-family="Times New Roman,serif" font-size="9.00">530</text>
</g>
<!-- A&#45;&gt;530 -->
<g id="edge4" class="edge"><title>A&#45;&gt;530</title>
<path fill="none" stroke="green" stroke-width="0.388876" d="M64.4631,-274.839C60.738,-266.953 54.8403,-254.467 49.3989,-242.946"/>
<polygon fill="green" stroke="green" stroke-width="0.388876" points="52.4288,-241.166 44.9931,-233.619 46.0993,-244.156 52.4288,-241.166"/>
</g>
<!-- 540 -->
<g id="node6" class="node"><title>540</title>
<ellipse fill="white" stroke="black" cx="157.26" cy="-132.167" rx="21.4286" ry="21.4286"/>
<text text-anchor="middle" x="157.26" y="-129.967" font-family="Times New Roman,serif" font-size="9.00">540</text>
</g>
<!-- A&#45;&gt;540 -->
<g id="edge6" class="edge"><title>A&#45;&gt;540</title>
<path fill="none" stroke="green" stroke-width="0.414022" d="M79.8764,-282.115C102.787,-279.913 153.458,-271.416 175.26,-238.877 190.946,-215.466 181.788,-182.78 171.682,-159.973"/>
<polygon fill="green" stroke="green" stroke-width="0.414022" points="174.808,-158.397 167.362,-150.86 168.483,-161.395 174.808,-158.397"/>
</g>
<!-- 1055 -->
<g id="node7" class="node"><title>1055</title>
<ellipse fill="white" stroke="black" cx="100.26" cy="-214.128" rx="25" ry="25"/>
<text text-anchor="middle" x="100.26" y="-211.928" font-family="Times New Roman,serif" font-size="9.00">1055</text>
</g>
<!-- A&#45;&gt;1055 -->
<g id="edge8" class="edge"><title>A&#45;&gt;1055</title>
<path fill="none" stroke="green" stroke-width="0.307714" d="M72.056,-274.839C75.4621,-267.628 80.6847,-256.571 85.714,-245.923"/>
<polygon fill="green" stroke="green" stroke-width="0.307714" points="88.9273,-247.315 90.0335,-236.779 82.5978,-244.326 88.9273,-247.315"/>
</g>
<!-- B -->
<g id="node2" class="node"><title>B</title>
<polygon fill="lightgray" stroke="black" points="165.76,-223.128 142.76,-223.128 142.76,-205.128 165.76,-205.128 165.76,-223.128"/>
<text text-anchor="middle" x="154.26" y="-211.928" font-family="Times New Roman,serif" font-size="9.00">B</text>
</g>
<!-- 325 -->
<g id="node4" class="node"><title>325</title>
<ellipse fill="white" stroke="black" cx="97.2595" cy="-132.167" rx="21.4286" ry="21.4286"/>
<text text-anchor="middle" x="97.2595" y="-129.967" font-family="Times New Roman,serif" font-size="9.00">325</text>
</g>
<!-- B&#45;&gt;325 -->
<g id="edge2" class="edge"><title>B&#45;&gt;325</title>
<path fill="none" stroke="green" stroke-width="0.775631" d="M148.374,-204.872C140.598,-193.964 126.554,-174.262 115.152,-158.267"/>
<polygon fill="green" stroke="green" stroke-width="0.775631" points="117.8,-155.952 109.146,-149.841 112.1,-160.015 117.8,-155.952"/>
</g>
<!-- B&#45;&gt;540 -->
<g id="edge10" class="edge"><title>B&#45;&gt;540</title>
<path fill="none" stroke="red" stroke-width="0.762815" d="M154.569,-204.872C154.933,-195.175 155.558,-178.529 156.113,-163.716"/>
<polygon fill="red" stroke="red" stroke-width="0.762815" points="159.624,-163.502 156.501,-153.378 152.629,-163.24 159.624,-163.502"/>
</g>
<!-- 325&#45;&gt;A XOR B -->
<g id="edge3" class="edge"><title>325&#45;&gt;A XOR B</title>
<path fill="none" stroke="green" stroke-width="0.594866" d="M97.2595,-110.596C97.2595,-103 97.2595,-94.0512 97.2595,-85.0886"/>
<polygon fill="green" stroke="green" stroke-width="0.594866" points="100.76,-85.0353 97.2595,-75.0353 93.7596,-85.0353 100.76,-85.0353"/>
</g>
<!-- 530&#45;&gt;325 -->
<g id="edge5" class="edge"><title>530&#45;&gt;325</title>
<path fill="none" stroke="green" stroke-width="0.967168" d="M48.8988,-196.56C57.4616,-185.336 68.9245,-170.31 78.5409,-157.704"/>
<polygon fill="green" stroke="green" stroke-width="0.967168" points="81.5626,-159.513 84.8452,-149.44 75.9972,-155.268 81.5626,-159.513"/>
</g>
<!-- 540&#45;&gt;A XOR B -->
<g id="edge7" class="edge"><title>540&#45;&gt;A XOR B</title>
<path fill="none" stroke="green" stroke-width="0.840252" d="M145.974,-113.732C139.41,-103.591 130.855,-90.3757 122.75,-77.8544"/>
<polygon fill="green" stroke="green" stroke-width="0.840252" points="125.612,-75.8358 117.24,-69.3431 119.736,-79.6397 125.612,-75.8358"/>
</g>
<!-- 1055&#45;&gt;325 -->
<g id="edge9" class="edge"><title>1055&#45;&gt;325</title>
<path fill="none" stroke="green" stroke-width="0.123112" d="M99.3594,-189.137C99.0609,-181.18 98.7244,-172.212 98.4097,-163.823"/>
<polygon fill="green" stroke="green" stroke-width="0.123112" points="101.9,-163.489 98.0272,-153.627 94.9047,-163.752 101.9,-163.489"/>
</g>
</g>
</svg>
