<?xml version="1.0" encoding="UTF-8" standalone="no"?>
<!DOCTYPE svg PUBLIC "-//W3C//DTD SVG 1.1//EN"
 "http://www.w3.org/Graphics/SVG/1.1/DTD/svg11.dtd">
<!-- Generated by graphviz version 2.38.0 (20140413.2041)
 -->
<!-- Title: %3 Pages: 1 -->
<svg width="180pt" height="273pt"
 viewBox="0.00 0.00 179.88 272.59" xmlns="http://www.w3.org/2000/svg" xmlns:xlink="http://www.w3.org/1999/xlink">
<g id="graph0" class="graph" transform="scale(1 1) rotate(0) translate(4 268.593)">
<title>%3</title>
<polygon fill="white" stroke="none" points="-4,4 -4,-268.593 175.885,-268.593 175.885,4 -4,4"/>
<!-- x -->
<g id="node1" class="node"><title>x</title>
<polygon fill="lightgray" stroke="black" points="28.3848,-264.593 8.38478,-264.593 8.38478,-246.593 28.3848,-246.593 28.3848,-264.593"/>
<text text-anchor="middle" x="18.3848" y="-253.393" font-family="Times New Roman,serif" font-size="9.00">x</text>
</g>
<!-- 59 -->
<g id="node6" class="node"><title>59</title>
<ellipse fill="white" stroke="black" cx="18.3848" cy="-192.208" rx="18.2703" ry="18.2703"/>
<text text-anchor="middle" x="18.3848" y="-190.008" font-family="Times New Roman,serif" font-size="9.00">59</text>
</g>
<!-- x&#45;&gt;59 -->
<g id="edge5" class="edge"><title>x&#45;&gt;59</title>
<path fill="none" stroke="green" stroke-width="0.61833" d="M18.3848,-246.568C18.3848,-240.004 18.3848,-230.314 18.3848,-220.987"/>
<polygon fill="green" stroke="green" stroke-width="0.61833" points="21.8849,-220.796 18.3848,-210.796 14.8849,-220.796 21.8849,-220.796"/>
</g>
<!-- dx -->
<g id="node2" class="node"><title>dx</title>
<polygon fill="lightgray" stroke="black" points="79.8848,-201.208 54.8848,-201.208 54.8848,-183.208 79.8848,-183.208 79.8848,-201.208"/>
<text text-anchor="middle" x="67.3848" y="-190.008" font-family="Times New Roman,serif" font-size="9.00">dx</text>
</g>
<!-- control -->
<g id="node5" class="node"><title>control</title>
<ellipse fill="lightblue" stroke="black" cx="91.3848" cy="-108.125" rx="29.8983" ry="29.8983"/>
<text text-anchor="middle" x="91.3848" y="-105.925" font-family="Times New Roman,serif" font-size="9.00">control</text>
</g>
<!-- dx&#45;&gt;control -->
<g id="edge4" class="edge"><title>dx&#45;&gt;control</title>
<path fill="none" stroke="green" stroke-width="0.429364" d="M69.7737,-183.038C72.2925,-174.423 76.4416,-160.233 80.4345,-146.576"/>
<polygon fill="green" stroke="green" stroke-width="0.429364" points="83.8417,-147.395 83.2887,-136.814 77.123,-145.43 83.8417,-147.395"/>
</g>
<!-- theta -->
<g id="node3" class="node"><title>theta</title>
<polygon fill="lightgray" stroke="black" points="171.885,-201.208 136.885,-201.208 136.885,-183.208 171.885,-183.208 171.885,-201.208"/>
<text text-anchor="middle" x="154.385" y="-190.008" font-family="Times New Roman,serif" font-size="9.00">theta</text>
</g>
<!-- theta&#45;&gt;control -->
<g id="edge1" class="edge"><title>theta&#45;&gt;control</title>
<path fill="none" stroke="green" stroke-width="0.346988" d="M148.114,-183.038C140.498,-173.115 127.205,-155.796 115.401,-140.415"/>
<polygon fill="green" stroke="green" stroke-width="0.346988" points="117.906,-137.931 109.041,-132.13 112.353,-142.193 117.906,-137.931"/>
</g>
<!-- 429 -->
<g id="node7" class="node"><title>429</title>
<ellipse fill="white" stroke="black" cx="91.3848" cy="-21.2132" rx="21.4286" ry="21.4286"/>
<text text-anchor="middle" x="91.3848" y="-19.0132" font-family="Times New Roman,serif" font-size="9.00">429</text>
</g>
<!-- theta&#45;&gt;429 -->
<g id="edge10" class="edge"><title>theta&#45;&gt;429</title>
<path fill="none" stroke="green" stroke-width="0.41199" d="M153.749,-182.942C152.042,-163.823 146.354,-115.359 130.385,-78.4264 125.476,-67.0742 118.109,-55.657 111.095,-46.1058"/>
<polygon fill="green" stroke="green" stroke-width="0.41199" points="113.687,-43.7336 104.833,-37.9143 108.125,-47.9847 113.687,-43.7336"/>
</g>
<!-- dtheta -->
<g id="node4" class="node"><title>dtheta</title>
<polygon fill="lightgray" stroke="black" points="106.885,-264.593 67.8848,-264.593 67.8848,-246.593 106.885,-246.593 106.885,-264.593"/>
<text text-anchor="middle" x="87.3848" y="-253.393" font-family="Times New Roman,serif" font-size="9.00">dtheta</text>
</g>
<!-- dtheta&#45;&gt;control -->
<g id="edge6" class="edge"><title>dtheta&#45;&gt;control</title>
<path fill="none" stroke="green" stroke-width="0.713928" d="M87.6113,-246.355C88.122,-227.781 89.3909,-181.635 90.3167,-147.968"/>
<polygon fill="green" stroke="green" stroke-width="0.713928" points="93.8155,-148.056 90.5918,-137.964 86.8181,-147.864 93.8155,-148.056"/>
</g>
<!-- dtheta&#45;&gt;59 -->
<g id="edge2" class="edge"><title>dtheta&#45;&gt;59</title>
<path fill="none" stroke="green" stroke-width="0.11207" d="M78.3642,-246.568C68.5023,-237.794 52.3645,-223.438 39.3111,-211.825"/>
<polygon fill="green" stroke="green" stroke-width="0.11207" points="41.4634,-209.055 31.6657,-205.023 36.8107,-214.285 41.4634,-209.055"/>
</g>
<!-- control&#45;&gt;429 -->
<g id="edge9" class="edge"><title>control&#45;&gt;429</title>
<path fill="none" stroke="green" stroke-width="0.297281" d="M84.9813,-78.8505C84.5437,-70.2073 84.5206,-60.6782 84.9119,-51.9414"/>
<polygon fill="green" stroke="green" stroke-width="0.297281" points="88.4156,-52.0027 85.5948,-41.7903 81.4314,-51.5328 88.4156,-52.0027"/>
</g>
<!-- 59&#45;&gt;control -->
<g id="edge3" class="edge"><title>59&#45;&gt;control</title>
<path fill="none" stroke="green" stroke-width="0.335582" stroke-dasharray="1,5" d="M30.1135,-178.02C39.547,-167.413 53.1605,-152.105 65.1606,-138.612"/>
<polygon fill="green" stroke="green" stroke-width="0.335582" points="67.9656,-140.725 71.9958,-130.926 62.7349,-136.073 67.9656,-140.725"/>
</g>
<!-- 59&#45;&gt;429 -->
<g id="edge7" class="edge"><title>59&#45;&gt;429</title>
<path fill="none" stroke="red" stroke-width="0.165283" d="M21.8544,-173.771C26.7689,-151.059 36.9174,-110.473 52.3848,-78.4264 57.7608,-67.2879 65.2155,-55.9107 72.1686,-46.3316"/>
<polygon fill="red" stroke="red" stroke-width="0.165283" points="75.1425,-48.1995 78.3391,-38.0984 69.5411,-44.0014 75.1425,-48.1995"/>
</g>
<!-- 429&#45;&gt;control -->
<g id="edge8" class="edge"><title>429&#45;&gt;control</title>
<path fill="none" stroke="red" stroke-width="0.380339" d="M97.1747,-41.7903C97.9191,-49.777 98.2306,-59.304 98.1093,-68.5799"/>
<polygon fill="red" stroke="red" stroke-width="0.380339" points="94.6024,-68.7461 97.7883,-78.8505 101.599,-68.9648 94.6024,-68.7461"/>
</g>
</g>
</svg>
