<?xml version="1.0" encoding="UTF-8" standalone="no"?>
<!DOCTYPE svg PUBLIC "-//W3C//DTD SVG 1.1//EN"
 "http://www.w3.org/Graphics/SVG/1.1/DTD/svg11.dtd">
<!-- Generated by graphviz version 2.38.0 (20140413.2041)
 -->
<!-- Title: %3 Pages: 1 -->
<svg width="182pt" height="292pt"
 viewBox="0.00 0.00 181.50 292.39" xmlns="http://www.w3.org/2000/svg" xmlns:xlink="http://www.w3.org/1999/xlink">
<g id="graph0" class="graph" transform="scale(1 1) rotate(0) translate(4 288.392)">
<title>%3</title>
<polygon fill="white" stroke="none" points="-4,4 -4,-288.392 177.5,-288.392 177.5,4 -4,4"/>
<!-- x -->
<g id="node1" class="node"><title>x</title>
<polygon fill="lightgray" stroke="black" points="173.5,-284.392 153.5,-284.392 153.5,-266.392 173.5,-266.392 173.5,-284.392"/>
<text text-anchor="middle" x="163.5" y="-273.192" font-family="Times New Roman,serif" font-size="9.00">x</text>
</g>
<!-- control -->
<g id="node5" class="node"><title>control</title>
<ellipse fill="lightblue" stroke="black" cx="105.5" cy="-200.693" rx="29.8983" ry="29.8983"/>
<text text-anchor="middle" x="105.5" y="-198.493" font-family="Times New Roman,serif" font-size="9.00">control</text>
</g>
<!-- x&#45;&gt;control -->
<g id="edge2" class="edge"><title>x&#45;&gt;control</title>
<path fill="none" stroke="red" stroke-width="0.247593" stroke-dasharray="1,5" d="M157.071,-266.334C150.49,-258.086 139.851,-244.75 129.941,-232.328"/>
<polygon fill="red" stroke="red" stroke-width="0.247593" points="132.556,-229.994 123.583,-224.359 127.084,-234.359 132.556,-229.994"/>
</g>
<!-- 1418 -->
<g id="node6" class="node"><title>1418</title>
<ellipse fill="white" stroke="black" cx="132.5" cy="-110.246" rx="25" ry="25"/>
<text text-anchor="middle" x="132.5" y="-108.046" font-family="Times New Roman,serif" font-size="9.00">1418</text>
</g>
<!-- x&#45;&gt;1418 -->
<g id="edge5" class="edge"><title>x&#45;&gt;1418</title>
<path fill="none" stroke="green" stroke-width="0.122395" d="M162.067,-266.339C158.958,-248.928 151.324,-206.483 144.5,-170.995 142.867,-162.5 141.053,-153.338 139.34,-144.8"/>
<polygon fill="green" stroke="green" stroke-width="0.122395" points="142.728,-143.893 137.32,-134.782 135.866,-145.277 142.728,-143.893"/>
</g>
<!-- dx -->
<g id="node2" class="node"><title>dx</title>
<polygon fill="lightgray" stroke="black" points="25,-284.392 0,-284.392 0,-266.392 25,-266.392 25,-284.392"/>
<text text-anchor="middle" x="12.5" y="-273.192" font-family="Times New Roman,serif" font-size="9.00">dx</text>
</g>
<!-- dx&#45;&gt;control -->
<g id="edge4" class="edge"><title>dx&#45;&gt;control</title>
<path fill="none" stroke="green" stroke-width="0.354807" d="M22.808,-266.334C35.1934,-256.652 56.5437,-239.963 74.4473,-225.967"/>
<polygon fill="green" stroke="green" stroke-width="0.354807" points="76.6632,-228.678 82.3861,-219.762 72.3521,-223.163 76.6632,-228.678"/>
</g>
<!-- theta -->
<g id="node3" class="node"><title>theta</title>
<polygon fill="lightgray" stroke="black" points="78,-284.392 43,-284.392 43,-266.392 78,-266.392 78,-284.392"/>
<text text-anchor="middle" x="60.5" y="-273.192" font-family="Times New Roman,serif" font-size="9.00">theta</text>
</g>
<!-- theta&#45;&gt;control -->
<g id="edge3" class="edge"><title>theta&#45;&gt;control</title>
<path fill="none" stroke="green" stroke-width="0.734768" d="M65.4877,-266.334C70.2289,-258.675 77.685,-246.629 84.8824,-235.002"/>
<polygon fill="green" stroke="green" stroke-width="0.734768" points="87.9994,-236.616 90.2866,-226.271 82.0474,-232.932 87.9994,-236.616"/>
</g>
<!-- dtheta -->
<g id="node4" class="node"><title>dtheta</title>
<polygon fill="lightgray" stroke="black" points="135,-284.392 96,-284.392 96,-266.392 135,-266.392 135,-284.392"/>
<text text-anchor="middle" x="115.5" y="-273.192" font-family="Times New Roman,serif" font-size="9.00">dtheta</text>
</g>
<!-- dtheta&#45;&gt;control -->
<g id="edge1" class="edge"><title>dtheta&#45;&gt;control</title>
<path fill="none" stroke="green" stroke-width="0.496828" d="M114.392,-266.334C113.492,-259.791 112.151,-250.046 110.782,-240.096"/>
<polygon fill="green" stroke="green" stroke-width="0.496828" points="114.25,-239.618 109.42,-230.188 107.315,-240.572 114.25,-239.618"/>
</g>
<!-- control&#45;&gt;1418 -->
<g id="edge7" class="edge"><title>control&#45;&gt;1418</title>
<path fill="none" stroke="green" stroke-width="0.19545" d="M107.962,-170.733C110.362,-161.31 113.543,-150.833 116.883,-141.33"/>
<polygon fill="green" stroke="green" stroke-width="0.19545" points="120.198,-142.458 120.396,-131.865 113.635,-140.022 120.198,-142.458"/>
</g>
<!-- 1418&#45;&gt;control -->
<g id="edge6" class="edge"><title>1418&#45;&gt;control</title>
<path fill="none" stroke="red" stroke-width="0.315841" stroke-dasharray="1,5" d="M131.251,-135.254C129.138,-144.279 126.127,-154.736 122.845,-164.566"/>
<polygon fill="red" stroke="red" stroke-width="0.315841" points="119.504,-163.516 119.496,-174.111 126.109,-165.834 119.504,-163.516"/>
</g>
<!-- 1514 -->
<g id="node7" class="node"><title>1514</title>
<ellipse fill="white" stroke="black" cx="105.5" cy="-24.7487" rx="25" ry="25"/>
<text text-anchor="middle" x="105.5" y="-22.5487" font-family="Times New Roman,serif" font-size="9.00">1514</text>
</g>
<!-- 1418&#45;&gt;1514 -->
<g id="edge8" class="edge"><title>1418&#45;&gt;1514</title>
<path fill="none" stroke="green" stroke-width="0.311606" d="M125.122,-86.4302C122.295,-77.686 119.012,-67.536 115.951,-58.0686"/>
<polygon fill="green" stroke="green" stroke-width="0.311606" points="119.276,-56.9752 112.869,-48.5372 112.616,-59.129 119.276,-56.9752"/>
</g>
<!-- 1514&#45;&gt;control -->
<g id="edge9" class="edge"><title>1514&#45;&gt;control</title>
<path fill="none" stroke="red" stroke-width="0.123799" d="M102.069,-49.5337C100.658,-60.4632 99.1939,-73.6116 98.5,-85.4975 97.2179,-107.459 97.3151,-113.028 98.5,-134.995 98.9543,-143.416 99.7388,-152.428 100.622,-160.969"/>
<polygon fill="red" stroke="red" stroke-width="0.123799" points="97.1623,-161.525 101.734,-171.083 104.12,-160.76 97.1623,-161.525"/>
</g>
</g>
</svg>
