<?xml version="1.0" encoding="UTF-8" standalone="no"?>
<!DOCTYPE svg PUBLIC "-//W3C//DTD SVG 1.1//EN"
 "http://www.w3.org/Graphics/SVG/1.1/DTD/svg11.dtd">
<!-- Generated by graphviz version 2.38.0 (20140413.2041)
 -->
<!-- Title: %3 Pages: 1 -->
<svg width="237pt" height="292pt"
 viewBox="0.00 0.00 237.25 292.39" xmlns="http://www.w3.org/2000/svg" xmlns:xlink="http://www.w3.org/1999/xlink">
<g id="graph0" class="graph" transform="scale(1 1) rotate(0) translate(4 288.392)">
<title>%3</title>
<polygon fill="white" stroke="none" points="-4,4 -4,-288.392 233.249,-288.392 233.249,4 -4,4"/>
<!-- x -->
<g id="node1" class="node"><title>x</title>
<polygon fill="lightgray" stroke="black" points="34.7487,-284.392 14.7487,-284.392 14.7487,-266.392 34.7487,-266.392 34.7487,-284.392"/>
<text text-anchor="middle" x="24.7487" y="-273.192" font-family="Times New Roman,serif" font-size="9.00">x</text>
</g>
<!-- 1418 -->
<g id="node7" class="node"><title>1418</title>
<ellipse fill="white" stroke="black" cx="24.7487" cy="-205.643" rx="25" ry="25"/>
<text text-anchor="middle" x="24.7487" y="-203.443" font-family="Times New Roman,serif" font-size="9.00">1418</text>
</g>
<!-- x&#45;&gt;1418 -->
<g id="edge4" class="edge"><title>x&#45;&gt;1418</title>
<path fill="none" stroke="green" stroke-width="0.122395" d="M24.7487,-266.354C24.7487,-259.919 24.7487,-250.421 24.7487,-240.885"/>
<polygon fill="green" stroke="green" stroke-width="0.122395" points="28.2488,-240.664 24.7487,-230.664 21.2488,-240.664 28.2488,-240.664"/>
</g>
<!-- dx -->
<g id="node2" class="node"><title>dx</title>
<polygon fill="lightgray" stroke="black" points="119.249,-129.146 94.2487,-129.146 94.2487,-111.146 119.249,-111.146 119.249,-129.146"/>
<text text-anchor="middle" x="106.749" y="-117.946" font-family="Times New Roman,serif" font-size="9.00">dx</text>
</g>
<!-- control -->
<g id="node5" class="node"><title>control</title>
<ellipse fill="lightblue" stroke="black" cx="106.749" cy="-29.6985" rx="29.8983" ry="29.8983"/>
<text text-anchor="middle" x="106.749" y="-27.4985" font-family="Times New Roman,serif" font-size="9.00">control</text>
</g>
<!-- dx&#45;&gt;control -->
<g id="edge3" class="edge"><title>dx&#45;&gt;control</title>
<path fill="none" stroke="green" stroke-width="0.354807" d="M106.749,-110.983C106.749,-101.441 106.749,-84.9687 106.749,-69.4183"/>
<polygon fill="green" stroke="green" stroke-width="0.354807" points="110.249,-69.4147 106.749,-59.4148 103.249,-69.4148 110.249,-69.4147"/>
</g>
<!-- theta -->
<g id="node3" class="node"><title>theta</title>
<polygon fill="lightgray" stroke="black" points="172.249,-129.146 137.249,-129.146 137.249,-111.146 172.249,-111.146 172.249,-129.146"/>
<text text-anchor="middle" x="154.749" y="-117.946" font-family="Times New Roman,serif" font-size="9.00">theta</text>
</g>
<!-- theta&#45;&gt;control -->
<g id="edge2" class="edge"><title>theta&#45;&gt;control</title>
<path fill="none" stroke="green" stroke-width="0.734768" d="M150.319,-110.983C144.679,-100.591 134.579,-81.9791 125.522,-65.2903"/>
<polygon fill="green" stroke="green" stroke-width="0.734768" points="128.478,-63.4008 120.632,-56.2811 122.326,-66.7397 128.478,-63.4008"/>
</g>
<!-- dtheta -->
<g id="node4" class="node"><title>dtheta</title>
<polygon fill="lightgray" stroke="black" points="229.249,-129.146 190.249,-129.146 190.249,-111.146 229.249,-111.146 229.249,-129.146"/>
<text text-anchor="middle" x="209.749" y="-117.946" font-family="Times New Roman,serif" font-size="9.00">dtheta</text>
</g>
<!-- dtheta&#45;&gt;control -->
<g id="edge1" class="edge"><title>dtheta&#45;&gt;control</title>
<path fill="none" stroke="green" stroke-width="0.496828" d="M200.243,-110.983C185.872,-98.6429 158.002,-74.7106 136.414,-56.1726"/>
<polygon fill="green" stroke="green" stroke-width="0.496828" points="138.649,-53.4778 128.782,-49.6184 134.088,-58.7885 138.649,-53.4778"/>
</g>
<!-- control&#45;&gt;1418 -->
<g id="edge5" class="edge"><title>control&#45;&gt;1418</title>
<path fill="none" stroke="green" stroke-width="0.19545" d="M79.4449,-42.0766C58.3219,-52.517 30.5806,-70.2048 17.7487,-95.397 5.70543,-119.041 8.88054,-149.389 14.2566,-172.096"/>
<polygon fill="green" stroke="green" stroke-width="0.19545" points="10.9153,-173.153 16.8348,-181.94 17.6869,-171.379 10.9153,-173.153"/>
</g>
<!-- 1514 -->
<g id="node6" class="node"><title>1514</title>
<ellipse fill="white" stroke="black" cx="51.7487" cy="-120.146" rx="25" ry="25"/>
<text text-anchor="middle" x="51.7487" y="-117.946" font-family="Times New Roman,serif" font-size="9.00">1514</text>
</g>
<!-- 1514&#45;&gt;control -->
<g id="edge7" class="edge"><title>1514&#45;&gt;control</title>
<path fill="none" stroke="red" stroke-width="0.123799" d="M64.5051,-98.6318C70.8776,-88.384 78.7497,-75.7247 85.9648,-64.1218"/>
<polygon fill="red" stroke="red" stroke-width="0.123799" points="89.0099,-65.8527 91.3184,-55.5124 83.0655,-62.1562 89.0099,-65.8527"/>
</g>
<!-- 1418&#45;&gt;1514 -->
<g id="edge6" class="edge"><title>1418&#45;&gt;1514</title>
<path fill="none" stroke="green" stroke-width="0.311606" d="M32.1266,-181.827C34.9541,-173.083 38.2363,-162.933 41.2977,-153.466"/>
<polygon fill="green" stroke="green" stroke-width="0.311606" points="44.6332,-154.526 44.3798,-143.934 37.9727,-152.372 44.6332,-154.526"/>
</g>
</g>
</svg>
