<?xml version="1.0" encoding="UTF-8" standalone="no"?>
<!DOCTYPE svg PUBLIC "-//W3C//DTD SVG 1.1//EN"
 "http://www.w3.org/Graphics/SVG/1.1/DTD/svg11.dtd">
<!-- Generated by graphviz version 2.38.0 (20140413.2041)
 -->
<!-- Title: %3 Pages: 1 -->
<svg width="247pt" height="435pt"
 viewBox="0.00 0.00 246.71 435.10" xmlns="http://www.w3.org/2000/svg" xmlns:xlink="http://www.w3.org/1999/xlink">
<g id="graph0" class="graph" transform="scale(1 1) rotate(0) translate(4 431.103)">
<title>%3</title>
<polygon fill="white" stroke="none" points="-4,4 -4,-431.103 242.713,-431.103 242.713,4 -4,4"/>
<!-- x -->
<g id="node1" class="node"><title>x</title>
<polygon fill="lightgray" stroke="black" points="31.2132,-427.103 11.2132,-427.103 11.2132,-409.103 31.2132,-409.103 31.2132,-427.103"/>
<text text-anchor="middle" x="21.2132" y="-415.903" font-family="Times New Roman,serif" font-size="9.00">x</text>
</g>
<!-- 975 -->
<g id="node8" class="node"><title>975</title>
<ellipse fill="white" stroke="black" cx="21.2132" cy="-351.889" rx="21.4286" ry="21.4286"/>
<text text-anchor="middle" x="21.2132" y="-349.689" font-family="Times New Roman,serif" font-size="9.00">975</text>
</g>
<!-- x&#45;&gt;975 -->
<g id="edge9" class="edge"><title>x&#45;&gt;975</title>
<path fill="none" stroke="red" stroke-width="0.306854" d="M21.2132,-408.97C21.2132,-402.427 21.2132,-392.798 21.2132,-383.359"/>
<polygon fill="red" stroke="red" stroke-width="0.306854" points="24.7133,-383.345 21.2132,-373.345 17.7133,-383.345 24.7133,-383.345"/>
</g>
<!-- dx -->
<g id="node2" class="node"><title>dx</title>
<polygon fill="lightgray" stroke="black" points="128.713,-125.61 103.713,-125.61 103.713,-107.61 128.713,-107.61 128.713,-125.61"/>
<text text-anchor="middle" x="116.213" y="-114.41" font-family="Times New Roman,serif" font-size="9.00">dx</text>
</g>
<!-- control -->
<g id="node5" class="node"><title>control</title>
<ellipse fill="lightblue" stroke="black" cx="116.213" cy="-29.6985" rx="29.8983" ry="29.8983"/>
<text text-anchor="middle" x="116.213" y="-27.4985" font-family="Times New Roman,serif" font-size="9.00">control</text>
</g>
<!-- dx&#45;&gt;control -->
<g id="edge8" class="edge"><title>dx&#45;&gt;control</title>
<path fill="none" stroke="green" stroke-width="0.347496" d="M116.213,-107.468C116.213,-98.6504 116.213,-83.9334 116.213,-69.7307"/>
<polygon fill="green" stroke="green" stroke-width="0.347496" points="119.713,-69.5716 116.213,-59.5716 112.713,-69.5716 119.713,-69.5716"/>
</g>
<!-- theta -->
<g id="node3" class="node"><title>theta</title>
<polygon fill="lightgray" stroke="black" points="181.713,-125.61 146.713,-125.61 146.713,-107.61 181.713,-107.61 181.713,-125.61"/>
<text text-anchor="middle" x="164.213" y="-114.41" font-family="Times New Roman,serif" font-size="9.00">theta</text>
</g>
<!-- theta&#45;&gt;control -->
<g id="edge4" class="edge"><title>theta&#45;&gt;control</title>
<path fill="none" stroke="green" stroke-width="0.844618" d="M159.611,-107.468C154.04,-97.6139 144.305,-80.3924 135.465,-64.7546"/>
<polygon fill="green" stroke="green" stroke-width="0.844618" points="138.37,-62.7809 130.402,-55.7979 132.276,-66.2256 138.37,-62.7809"/>
</g>
<!-- dtheta -->
<g id="node4" class="node"><title>dtheta</title>
<polygon fill="lightgray" stroke="black" points="238.713,-125.61 199.713,-125.61 199.713,-107.61 238.713,-107.61 238.713,-125.61"/>
<text text-anchor="middle" x="219.213" y="-114.41" font-family="Times New Roman,serif" font-size="9.00">dtheta</text>
</g>
<!-- dtheta&#45;&gt;control -->
<g id="edge2" class="edge"><title>dtheta&#45;&gt;control</title>
<path fill="none" stroke="green" stroke-width="0.651678" d="M209.337,-107.468C195.05,-95.6902 167.997,-73.3881 146.716,-55.8443"/>
<polygon fill="green" stroke="green" stroke-width="0.651678" points="148.823,-53.0457 138.881,-49.3852 144.37,-58.4469 148.823,-53.0457"/>
</g>
<!-- 133 -->
<g id="node6" class="node"><title>133</title>
<ellipse fill="white" stroke="black" cx="46.2132" cy="-116.61" rx="21.4286" ry="21.4286"/>
<text text-anchor="middle" x="46.2132" y="-114.41" font-family="Times New Roman,serif" font-size="9.00">133</text>
</g>
<!-- 133&#45;&gt;control -->
<g id="edge3" class="edge"><title>133&#45;&gt;control</title>
<path fill="none" stroke="red" stroke-width="0.555379" d="M59.3797,-99.6389C68.3005,-88.8178 80.3721,-74.1746 91.0955,-61.1669"/>
<polygon fill="red" stroke="red" stroke-width="0.555379" points="93.8975,-63.2702 97.5579,-53.3278 88.4963,-58.8175 93.8975,-63.2702"/>
</g>
<!-- 133&#45;&gt;133 -->
<g id="edge1" class="edge"><title>133&#45;&gt;133</title>
<path fill="none" stroke="red" stroke-width="0.476471" d="M63.1418,-129.946C74.4344,-133.7 85.4264,-129.255 85.4264,-116.61 85.4264,-107.917 80.231,-103.099 73.3143,-102.157"/>
<polygon fill="red" stroke="red" stroke-width="0.476471" points="72.7,-98.7034 63.1418,-103.274 73.4642,-105.662 72.7,-98.7034"/>
</g>
<!-- 614 -->
<g id="node7" class="node"><title>614</title>
<ellipse fill="white" stroke="black" cx="21.2132" cy="-273.463" rx="21.4286" ry="21.4286"/>
<text text-anchor="middle" x="21.2132" y="-271.263" font-family="Times New Roman,serif" font-size="9.00">614</text>
</g>
<!-- 614&#45;&gt;control -->
<g id="edge6" class="edge"><title>614&#45;&gt;control</title>
<path fill="none" stroke="red" stroke-width="0.475911" d="M14.7383,-253.189C4.48352,-219.015 -11.6377,-146.588 16.2132,-95.397 29.4429,-71.0804 56.1833,-54.503 78.6855,-44.2204"/>
<polygon fill="red" stroke="red" stroke-width="0.475911" points="80.2222,-47.3693 88.0181,-40.1948 77.4496,-40.9418 80.2222,-47.3693"/>
</g>
<!-- 377 -->
<g id="node9" class="node"><title>377</title>
<ellipse fill="white" stroke="black" cx="46.2132" cy="-195.037" rx="21.4286" ry="21.4286"/>
<text text-anchor="middle" x="46.2132" y="-192.837" font-family="Times New Roman,serif" font-size="9.00">377</text>
</g>
<!-- 614&#45;&gt;377 -->
<g id="edge7" class="edge"><title>614&#45;&gt;377</title>
<path fill="none" stroke="green" stroke-width="0.202228" d="M27.5218,-253.177C30.3049,-244.669 33.6359,-234.486 36.7099,-225.089"/>
<polygon fill="green" stroke="green" stroke-width="0.202228" points="40.1241,-225.909 39.9067,-215.316 33.471,-223.732 40.1241,-225.909"/>
</g>
<!-- 975&#45;&gt;614 -->
<g id="edge10" class="edge"><title>975&#45;&gt;614</title>
<path fill="none" stroke="green" stroke-width="0.453061" d="M21.2132,-330.409C21.2132,-322.55 21.2132,-313.406 21.2132,-304.815"/>
<polygon fill="green" stroke="green" stroke-width="0.453061" points="24.7133,-304.735 21.2132,-294.735 17.7133,-304.735 24.7133,-304.735"/>
</g>
<!-- 377&#45;&gt;133 -->
<g id="edge5" class="edge"><title>377&#45;&gt;133</title>
<path fill="none" stroke="green" stroke-width="0.330029" d="M46.2132,-173.556C46.2132,-165.697 46.2132,-156.553 46.2132,-147.962"/>
<polygon fill="green" stroke="green" stroke-width="0.330029" points="49.7133,-147.883 46.2132,-137.883 42.7133,-147.883 49.7133,-147.883"/>
</g>
</g>
</svg>
