<?xml version="1.0" encoding="UTF-8" standalone="no"?>
<!DOCTYPE svg PUBLIC "-//W3C//DTD SVG 1.1//EN"
 "http://www.w3.org/Graphics/SVG/1.1/DTD/svg11.dtd">
<!-- Generated by graphviz version 2.38.0 (20140413.2041)
 -->
<!-- Title: %3 Pages: 1 -->
<svg width="274pt" height="435pt"
 viewBox="0.00 0.00 273.50 435.10" xmlns="http://www.w3.org/2000/svg" xmlns:xlink="http://www.w3.org/1999/xlink">
<g id="graph0" class="graph" transform="scale(1 1) rotate(0) translate(4 431.103)">
<title>%3</title>
<polygon fill="white" stroke="none" points="-4,4 -4,-431.103 269.5,-431.103 269.5,4 -4,4"/>
<!-- x -->
<g id="node1" class="node"><title>x</title>
<polygon fill="lightgray" stroke="black" points="48,-427.103 28,-427.103 28,-409.103 48,-409.103 48,-427.103"/>
<text text-anchor="middle" x="38" y="-415.903" font-family="Times New Roman,serif" font-size="9.00">x</text>
</g>
<!-- control -->
<g id="node5" class="node"><title>control</title>
<ellipse fill="lightblue" stroke="black" cx="122" cy="-29.6985" rx="29.8983" ry="29.8983"/>
<text text-anchor="middle" x="122" y="-27.4985" font-family="Times New Roman,serif" font-size="9.00">control</text>
</g>
<!-- x&#45;&gt;control -->
<g id="edge6" class="edge"><title>x&#45;&gt;control</title>
<path fill="none" stroke="red" stroke-width="0.692705" stroke-dasharray="1,5" d="M34.2175,-408.946C24.6058,-387.447 0,-327.256 0,-274.463 0,-274.463 0,-274.463 0,-194.037 0,-146.033 14.9885,-133.642 44,-95.397 56.4705,-78.9574 73.8857,-64.0016 89.0975,-52.6205"/>
<polygon fill="red" stroke="red" stroke-width="0.692705" points="91.2432,-55.3879 97.2765,-46.6787 87.1289,-49.7246 91.2432,-55.3879"/>
</g>
<!-- 614 -->
<g id="node7" class="node"><title>614</title>
<ellipse fill="white" stroke="black" cx="68" cy="-273.463" rx="21.4286" ry="21.4286"/>
<text text-anchor="middle" x="68" y="-271.263" font-family="Times New Roman,serif" font-size="9.00">614</text>
</g>
<!-- x&#45;&gt;614 -->
<g id="edge8" class="edge"><title>x&#45;&gt;614</title>
<path fill="none" stroke="green" stroke-width="0.235055" stroke-dasharray="1,5" d="M39.6989,-409.025C43.8484,-389.295 54.6708,-337.839 61.666,-304.579"/>
<polygon fill="green" stroke="green" stroke-width="0.235055" points="65.1562,-304.989 63.7894,-294.483 58.3061,-303.549 65.1562,-304.989"/>
</g>
<!-- 975 -->
<g id="node8" class="node"><title>975</title>
<ellipse fill="white" stroke="black" cx="87" cy="-351.889" rx="21.4286" ry="21.4286"/>
<text text-anchor="middle" x="87" y="-349.689" font-family="Times New Roman,serif" font-size="9.00">975</text>
</g>
<!-- x&#45;&gt;975 -->
<g id="edge12" class="edge"><title>x&#45;&gt;975</title>
<path fill="none" stroke="red" stroke-width="0.306854" d="M44.2059,-408.97C50.2392,-401.063 59.7113,-388.651 68.2119,-377.511"/>
<polygon fill="red" stroke="red" stroke-width="0.306854" points="71.1659,-379.409 74.4499,-369.336 65.601,-375.163 71.1659,-379.409"/>
</g>
<!-- dx -->
<g id="node2" class="node"><title>dx</title>
<polygon fill="lightgray" stroke="black" points="169.5,-125.61 144.5,-125.61 144.5,-107.61 169.5,-107.61 169.5,-125.61"/>
<text text-anchor="middle" x="157" y="-114.41" font-family="Times New Roman,serif" font-size="9.00">dx</text>
</g>
<!-- dx&#45;&gt;control -->
<g id="edge11" class="edge"><title>dx&#45;&gt;control</title>
<path fill="none" stroke="green" stroke-width="0.347496" d="M153.644,-107.468C149.798,-98.1386 143.231,-82.2054 137.072,-67.2646"/>
<polygon fill="green" stroke="green" stroke-width="0.347496" points="140.164,-65.5805 133.117,-57.669 133.692,-68.2482 140.164,-65.5805"/>
</g>
<!-- theta -->
<g id="node3" class="node"><title>theta</title>
<polygon fill="lightgray" stroke="black" points="188.5,-204.037 153.5,-204.037 153.5,-186.037 188.5,-186.037 188.5,-204.037"/>
<text text-anchor="middle" x="171" y="-192.837" font-family="Times New Roman,serif" font-size="9.00">theta</text>
</g>
<!-- theta&#45;&gt;control -->
<g id="edge5" class="edge"><title>theta&#45;&gt;control</title>
<path fill="none" stroke="green" stroke-width="0.844618" d="M173.826,-185.784C179.299,-168.417 189.811,-127.089 178,-95.397 172.563,-80.8067 162.19,-67.3184 151.836,-56.4754"/>
<polygon fill="green" stroke="green" stroke-width="0.844618" points="154.29,-53.9797 144.731,-49.4103 149.354,-58.9434 154.29,-53.9797"/>
</g>
<!-- 133 -->
<g id="node6" class="node"><title>133</title>
<ellipse fill="white" stroke="black" cx="87" cy="-116.61" rx="21.4286" ry="21.4286"/>
<text text-anchor="middle" x="87" y="-114.41" font-family="Times New Roman,serif" font-size="9.00">133</text>
</g>
<!-- theta&#45;&gt;133 -->
<g id="edge2" class="edge"><title>theta&#45;&gt;133</title>
<path fill="none" stroke="green" stroke-width="0.524296" stroke-dasharray="1,5" d="M162.011,-185.858C149.678,-174.637 127.089,-154.085 109.911,-138.456"/>
<polygon fill="green" stroke="green" stroke-width="0.524296" points="112.208,-135.813 102.456,-131.672 107.497,-140.991 112.208,-135.813"/>
</g>
<!-- dtheta -->
<g id="node4" class="node"><title>dtheta</title>
<polygon fill="lightgray" stroke="black" points="265.5,-125.61 226.5,-125.61 226.5,-107.61 265.5,-107.61 265.5,-125.61"/>
<text text-anchor="middle" x="246" y="-114.41" font-family="Times New Roman,serif" font-size="9.00">dtheta</text>
</g>
<!-- dtheta&#45;&gt;control -->
<g id="edge3" class="edge"><title>dtheta&#45;&gt;control</title>
<path fill="none" stroke="green" stroke-width="0.651678" d="M234.11,-107.468C216.029,-95.0871 180.965,-71.0762 154.843,-53.1884"/>
<polygon fill="green" stroke="green" stroke-width="0.651678" points="156.593,-50.1447 146.364,-47.3825 152.638,-55.9203 156.593,-50.1447"/>
</g>
<!-- 133&#45;&gt;control -->
<g id="edge4" class="edge"><title>133&#45;&gt;control</title>
<path fill="none" stroke="red" stroke-width="0.555379" d="M94.7676,-96.7655C98.4065,-87.9374 102.869,-77.1121 107.12,-66.7987"/>
<polygon fill="red" stroke="red" stroke-width="0.555379" points="110.36,-68.1224 110.935,-57.5432 103.888,-65.4548 110.36,-68.1224"/>
</g>
<!-- 133&#45;&gt;133 -->
<g id="edge1" class="edge"><title>133&#45;&gt;133</title>
<path fill="none" stroke="red" stroke-width="0.476471" d="M103.929,-129.946C115.221,-133.7 126.213,-129.255 126.213,-116.61 126.213,-107.917 121.018,-103.099 114.101,-102.157"/>
<polygon fill="red" stroke="red" stroke-width="0.476471" points="113.487,-98.7034 103.929,-103.274 114.251,-105.662 113.487,-98.7034"/>
</g>
<!-- 614&#45;&gt;control -->
<g id="edge9" class="edge"><title>614&#45;&gt;control</title>
<path fill="none" stroke="red" stroke-width="0.475911" d="M61.4621,-253.206C51.2147,-219.671 34.7199,-149.01 57,-95.397 63.831,-78.9595 77.092,-64.5399 89.8643,-53.5106"/>
<polygon fill="red" stroke="red" stroke-width="0.475911" points="92.1772,-56.1403 97.6918,-47.0937 87.7393,-50.7269 92.1772,-56.1403"/>
</g>
<!-- 377 -->
<g id="node9" class="node"><title>377</title>
<ellipse fill="white" stroke="black" cx="87" cy="-195.037" rx="21.4286" ry="21.4286"/>
<text text-anchor="middle" x="87" y="-192.837" font-family="Times New Roman,serif" font-size="9.00">377</text>
</g>
<!-- 614&#45;&gt;377 -->
<g id="edge10" class="edge"><title>614&#45;&gt;377</title>
<path fill="none" stroke="green" stroke-width="0.202228" d="M72.893,-252.781C74.9381,-244.555 77.359,-234.817 79.6129,-225.751"/>
<polygon fill="green" stroke="green" stroke-width="0.202228" points="83.0415,-226.466 82.0576,-215.917 76.2483,-224.777 83.0415,-226.466"/>
</g>
<!-- 975&#45;&gt;614 -->
<g id="edge13" class="edge"><title>975&#45;&gt;614</title>
<path fill="none" stroke="green" stroke-width="0.453061" d="M82.107,-331.208C80.0619,-322.981 77.641,-313.243 75.3871,-304.177"/>
<polygon fill="green" stroke="green" stroke-width="0.453061" points="78.7517,-303.204 72.9424,-294.344 71.9585,-304.893 78.7517,-303.204"/>
</g>
<!-- 377&#45;&gt;133 -->
<g id="edge7" class="edge"><title>377&#45;&gt;133</title>
<path fill="none" stroke="green" stroke-width="0.330029" d="M87,-173.556C87,-165.697 87,-156.553 87,-147.962"/>
<polygon fill="green" stroke="green" stroke-width="0.330029" points="90.5001,-147.883 87,-137.883 83.5001,-147.883 90.5001,-147.883"/>
</g>
</g>
</svg>
