<?xml version="1.0" encoding="UTF-8" standalone="no"?>
<!DOCTYPE svg PUBLIC "-//W3C//DTD SVG 1.1//EN"
 "http://www.w3.org/Graphics/SVG/1.1/DTD/svg11.dtd">
<!-- Generated by graphviz version 2.38.0 (20140413.2041)
 -->
<!-- Title: %3 Pages: 1 -->
<svg width="196pt" height="273pt"
 viewBox="0.00 0.00 196.25 272.59" xmlns="http://www.w3.org/2000/svg" xmlns:xlink="http://www.w3.org/1999/xlink">
<g id="graph0" class="graph" transform="scale(1 1) rotate(0) translate(4 268.593)">
<title>%3</title>
<polygon fill="white" stroke="none" points="-4,4 -4,-268.593 192.249,-268.593 192.249,4 -4,4"/>
<!-- x -->
<g id="node1" class="node"><title>x</title>
<polygon fill="lightgray" stroke="black" points="34.7487,-264.593 14.7487,-264.593 14.7487,-246.593 34.7487,-246.593 34.7487,-264.593"/>
<text text-anchor="middle" x="24.7487" y="-253.393" font-family="Times New Roman,serif" font-size="9.00">x</text>
</g>
<!-- 345 -->
<g id="node6" class="node"><title>345</title>
<ellipse fill="white" stroke="black" cx="24.7487" cy="-180.894" rx="21.4286" ry="21.4286"/>
<text text-anchor="middle" x="24.7487" y="-178.694" font-family="Times New Roman,serif" font-size="9.00">345</text>
</g>
<!-- x&#45;&gt;345 -->
<g id="edge2" class="edge"><title>x&#45;&gt;345</title>
<path fill="none" stroke="red" stroke-width="1.2922" d="M24.7487,-246.535C24.7487,-238.275 24.7487,-224.914 24.7487,-212.477"/>
<polygon fill="red" stroke="red" stroke-width="1.2922" points="28.2488,-212.379 24.7487,-202.379 21.2488,-212.379 28.2488,-212.379"/>
</g>
<!-- dx -->
<g id="node2" class="node"><title>dx</title>
<polygon fill="lightgray" stroke="black" points="78.2487,-264.593 53.2487,-264.593 53.2487,-246.593 78.2487,-246.593 78.2487,-264.593"/>
<text text-anchor="middle" x="65.7487" y="-253.393" font-family="Times New Roman,serif" font-size="9.00">dx</text>
</g>
<!-- control -->
<g id="node5" class="node"><title>control</title>
<ellipse fill="lightblue" stroke="black" cx="113.749" cy="-180.894" rx="29.8983" ry="29.8983"/>
<text text-anchor="middle" x="113.749" y="-178.694" font-family="Times New Roman,serif" font-size="9.00">control</text>
</g>
<!-- dx&#45;&gt;control -->
<g id="edge6" class="edge"><title>dx&#45;&gt;control</title>
<path fill="none" stroke="green" stroke-width="0.432472" d="M71.069,-246.535C76.2151,-238.741 84.3598,-226.406 92.1611,-214.59"/>
<polygon fill="green" stroke="green" stroke-width="0.432472" points="95.1439,-216.425 97.7331,-206.151 89.3023,-212.568 95.1439,-216.425"/>
</g>
<!-- theta -->
<g id="node3" class="node"><title>theta</title>
<polygon fill="lightgray" stroke="black" points="131.249,-264.593 96.2487,-264.593 96.2487,-246.593 131.249,-246.593 131.249,-264.593"/>
<text text-anchor="middle" x="113.749" y="-253.393" font-family="Times New Roman,serif" font-size="9.00">theta</text>
</g>
<!-- theta&#45;&gt;control -->
<g id="edge1" class="edge"><title>theta&#45;&gt;control</title>
<path fill="none" stroke="green" stroke-width="0.320106" d="M113.749,-246.535C113.749,-240.115 113.749,-230.613 113.749,-220.858"/>
<polygon fill="green" stroke="green" stroke-width="0.320106" points="117.249,-220.72 113.749,-210.72 110.249,-220.72 117.249,-220.72"/>
</g>
<!-- dtheta -->
<g id="node4" class="node"><title>dtheta</title>
<polygon fill="lightgray" stroke="black" points="188.249,-264.593 149.249,-264.593 149.249,-246.593 188.249,-246.593 188.249,-264.593"/>
<text text-anchor="middle" x="168.749" y="-253.393" font-family="Times New Roman,serif" font-size="9.00">dtheta</text>
</g>
<!-- dtheta&#45;&gt;control -->
<g id="edge3" class="edge"><title>dtheta&#45;&gt;control</title>
<path fill="none" stroke="green" stroke-width="0.825467" d="M162.653,-246.535C156.562,-238.485 146.807,-225.591 137.606,-213.428"/>
<polygon fill="green" stroke="green" stroke-width="0.825467" points="140.2,-211.057 131.376,-205.194 134.618,-215.28 140.2,-211.057"/>
</g>
<!-- 1173 -->
<g id="node8" class="node"><title>1173</title>
<ellipse fill="white" stroke="black" cx="24.7487" cy="-90.4472" rx="25" ry="25"/>
<text text-anchor="middle" x="24.7487" y="-88.2472" font-family="Times New Roman,serif" font-size="9.00">1173</text>
</g>
<!-- 345&#45;&gt;1173 -->
<g id="edge4" class="edge"><title>345&#45;&gt;1173</title>
<path fill="none" stroke="green" stroke-width="0.254796" d="M24.7487,-159.381C24.7487,-149.3 24.7487,-136.886 24.7487,-125.44"/>
<polygon fill="green" stroke="green" stroke-width="0.254796" points="28.2488,-125.295 24.7487,-115.295 21.2488,-125.295 28.2488,-125.295"/>
</g>
<!-- 2 -->
<g id="node7" class="node"><title>2</title>
<ellipse fill="white" stroke="black" cx="24.7487" cy="-14.8492" rx="14.7" ry="14.7"/>
<text text-anchor="middle" x="24.7487" y="-12.6492" font-family="Times New Roman,serif" font-size="9.00">2</text>
</g>
<!-- 1173&#45;&gt;2 -->
<g id="edge5" class="edge"><title>1173&#45;&gt;2</title>
<path fill="none" stroke="red" stroke-width="0.27217" d="M24.7487,-65.3485C24.7487,-57.1867 24.7487,-48.0749 24.7487,-39.9156"/>
<polygon fill="red" stroke="red" stroke-width="0.27217" points="28.2488,-39.8982 24.7487,-29.8983 21.2488,-39.8983 28.2488,-39.8982"/>
</g>
</g>
</svg>
