<?xml version="1.0" encoding="UTF-8" standalone="no"?>
<!DOCTYPE svg PUBLIC "-//W3C//DTD SVG 1.1//EN"
 "http://www.w3.org/Graphics/SVG/1.1/DTD/svg11.dtd">
<!-- Generated by graphviz version 2.38.0 (20140413.2041)
 -->
<!-- Title: %3 Pages: 1 -->
<svg width="249pt" height="324pt"
 viewBox="0.00 0.00 248.75 323.89" xmlns="http://www.w3.org/2000/svg" xmlns:xlink="http://www.w3.org/1999/xlink">
<g id="graph0" class="graph" transform="scale(1 1) rotate(0) translate(4 319.889)">
<title>%3</title>
<polygon fill="white" stroke="none" points="-4,4 -4,-319.889 244.749,-319.889 244.749,4 -4,4"/>
<!-- x -->
<g id="node1" class="node"><title>x</title>
<polygon fill="lightgray" stroke="black" points="20,-300.141 0,-300.141 0,-282.141 20,-282.141 20,-300.141"/>
<text text-anchor="middle" x="10" y="-288.941" font-family="Times New Roman,serif" font-size="9.00">x</text>
</g>
<!-- dx -->
<g id="node2" class="node"><title>dx</title>
<polygon fill="lightgray" stroke="black" points="63.5,-300.141 38.5,-300.141 38.5,-282.141 63.5,-282.141 63.5,-300.141"/>
<text text-anchor="middle" x="51" y="-288.941" font-family="Times New Roman,serif" font-size="9.00">dx</text>
</g>
<!-- control -->
<g id="node5" class="node"><title>control</title>
<ellipse fill="lightblue" stroke="black" cx="99" cy="-200.693" rx="29.8983" ry="29.8983"/>
<text text-anchor="middle" x="99" y="-198.493" font-family="Times New Roman,serif" font-size="9.00">control</text>
</g>
<!-- dx&#45;&gt;control -->
<g id="edge6" class="edge"><title>dx&#45;&gt;control</title>
<path fill="none" stroke="green" stroke-width="0.29356" d="M55.4297,-281.978C61.0694,-271.586 71.1702,-252.974 80.2271,-236.285"/>
<polygon fill="green" stroke="green" stroke-width="0.29356" points="83.4227,-237.735 85.1164,-227.276 77.2703,-234.396 83.4227,-237.735"/>
</g>
<!-- theta -->
<g id="node3" class="node"><title>theta</title>
<polygon fill="lightgray" stroke="black" points="116.5,-300.141 81.5,-300.141 81.5,-282.141 116.5,-282.141 116.5,-300.141"/>
<text text-anchor="middle" x="99" y="-288.941" font-family="Times New Roman,serif" font-size="9.00">theta</text>
</g>
<!-- theta&#45;&gt;control -->
<g id="edge2" class="edge"><title>theta&#45;&gt;control</title>
<path fill="none" stroke="green" stroke-width="1.25556" d="M99,-281.978C99,-272.436 99,-255.964 99,-240.413"/>
<polygon fill="green" stroke="green" stroke-width="1.25556" points="102.5,-240.41 99,-230.41 95.5001,-240.41 102.5,-240.41"/>
</g>
<!-- dtheta -->
<g id="node4" class="node"><title>dtheta</title>
<polygon fill="lightgray" stroke="black" points="173.5,-300.141 134.5,-300.141 134.5,-282.141 173.5,-282.141 173.5,-300.141"/>
<text text-anchor="middle" x="154" y="-288.941" font-family="Times New Roman,serif" font-size="9.00">dtheta</text>
</g>
<!-- dtheta&#45;&gt;control -->
<g id="edge1" class="edge"><title>dtheta&#45;&gt;control</title>
<path fill="none" stroke="green" stroke-width="0.488317" d="M148.924,-281.978C142.312,-271.344 130.347,-252.103 119.788,-235.123"/>
<polygon fill="green" stroke="green" stroke-width="0.488317" points="122.683,-233.151 114.43,-226.507 116.739,-236.848 122.683,-233.151"/>
</g>
<!-- 1954 -->
<g id="node6" class="node"><title>1954</title>
<ellipse fill="white" stroke="black" cx="57" cy="-110.246" rx="25" ry="25"/>
<text text-anchor="middle" x="57" y="-108.046" font-family="Times New Roman,serif" font-size="9.00">1954</text>
</g>
<!-- control&#45;&gt;1954 -->
<g id="edge3" class="edge"><title>control&#45;&gt;1954</title>
<path fill="none" stroke="green" stroke-width="0.101643" d="M86.6258,-173.635C81.9202,-163.725 76.5152,-152.343 71.621,-142.036"/>
<polygon fill="green" stroke="green" stroke-width="0.101643" points="74.7558,-140.478 67.3046,-132.947 68.4325,-143.481 74.7558,-140.478"/>
</g>
<!-- 4148 -->
<g id="node9" class="node"><title>4148</title>
<ellipse fill="white" stroke="black" cx="142" cy="-110.246" rx="25" ry="25"/>
<text text-anchor="middle" x="142" y="-108.046" font-family="Times New Roman,serif" font-size="9.00">4148</text>
</g>
<!-- control&#45;&gt;4148 -->
<g id="edge5" class="edge"><title>control&#45;&gt;4148</title>
<path fill="none" stroke="green" stroke-width="0.39208" d="M111.669,-173.635C116.486,-163.725 122.02,-152.343 127.031,-142.036"/>
<polygon fill="green" stroke="green" stroke-width="0.39208" points="130.225,-143.47 131.45,-132.947 123.93,-140.41 130.225,-143.47"/>
</g>
<!-- 1954&#45;&gt;1954 -->
<g id="edge4" class="edge"><title>1954&#45;&gt;1954</title>
<path fill="none" stroke="red" stroke-width="0.114809" d="M77.2312,-125.131C88.8928,-128.169 99.7487,-123.207 99.7487,-110.246 99.7487,-101.336 94.6176,-96.2059 87.6212,-94.8571"/>
<polygon fill="red" stroke="red" stroke-width="0.114809" points="87.0497,-91.3806 77.2312,-95.3614 87.3892,-98.3724 87.0497,-91.3806"/>
</g>
<!-- 3970 -->
<g id="node7" class="node"><title>3970</title>
<ellipse fill="white" stroke="black" cx="216" cy="-291.141" rx="25" ry="25"/>
<text text-anchor="middle" x="216" y="-288.941" font-family="Times New Roman,serif" font-size="9.00">3970</text>
</g>
<!-- 1616 -->
<g id="node8" class="node"><title>1616</title>
<ellipse fill="white" stroke="black" cx="142" cy="-24.7487" rx="25" ry="25"/>
<text text-anchor="middle" x="142" y="-22.5487" font-family="Times New Roman,serif" font-size="9.00">1616</text>
</g>
<!-- 4148&#45;&gt;1616 -->
<g id="edge7" class="edge"><title>4148&#45;&gt;1616</title>
<path fill="none" stroke="green" stroke-width="0.282708" d="M142,-85.0953C142,-77.1512 142,-68.1667 142,-59.6364"/>
<polygon fill="green" stroke="green" stroke-width="0.282708" points="145.5,-59.557 142,-49.557 138.5,-59.5571 145.5,-59.557"/>
</g>
</g>
</svg>
