<?xml version="1.0" encoding="UTF-8" standalone="no"?>
<!DOCTYPE svg PUBLIC "-//W3C//DTD SVG 1.1//EN"
 "http://www.w3.org/Graphics/SVG/1.1/DTD/svg11.dtd">
<!-- Generated by graphviz version 2.38.0 (20140413.2041)
 -->
<!-- Title: %3 Pages: 1 -->
<svg width="137pt" height="301pt"
 viewBox="0.00 0.00 137.00 300.88" xmlns="http://www.w3.org/2000/svg" xmlns:xlink="http://www.w3.org/1999/xlink">
<g id="graph0" class="graph" transform="scale(1 1) rotate(0) translate(4 296.877)">
<title>%3</title>
<polygon fill="white" stroke="none" points="-4,4 -4,-296.877 133,-296.877 133,4 -4,4"/>
<!-- A -->
<g id="node1" class="node"><title>A</title>
<polygon fill="lightgray" stroke="black" points="23,-292.877 0,-292.877 0,-274.877 23,-274.877 23,-292.877"/>
<text text-anchor="middle" x="11.5" y="-281.677" font-family="Times New Roman,serif" font-size="9.00">A</text>
</g>
<!-- A XOR B -->
<g id="node3" class="node"><title>A XOR B</title>
<ellipse fill="lightblue" stroke="black" cx="67.5" cy="-37.4767" rx="37.4533" ry="37.4533"/>
<text text-anchor="middle" x="67.5" y="-35.2767" font-family="Times New Roman,serif" font-size="9.00">A XOR B</text>
</g>
<!-- A&#45;&gt;A XOR B -->
<g id="edge1" class="edge"><title>A&#45;&gt;A XOR B</title>
<path fill="none" stroke="green" stroke-width="1.48283" stroke-dasharray="1,5" d="M9.86095,-274.699C5.16216,-249.465 -6.76548,-170.902 13.5,-110.953 18.1501,-97.1975 26.4944,-83.9162 35.2546,-72.5638"/>
<polygon fill="green" stroke="green" stroke-width="1.48283" points="38.0834,-74.6321 41.66,-64.6592 32.6449,-70.225 38.0834,-74.6321"/>
</g>
<!-- 426 -->
<g id="node4" class="node"><title>426</title>
<ellipse fill="white" stroke="black" cx="43.5" cy="-132.167" rx="21.4286" ry="21.4286"/>
<text text-anchor="middle" x="43.5" y="-129.967" font-family="Times New Roman,serif" font-size="9.00">426</text>
</g>
<!-- A&#45;&gt;426 -->
<g id="edge2" class="edge"><title>A&#45;&gt;426</title>
<path fill="none" stroke="green" stroke-width="0.204507" d="M13.1034,-274.607C16.285,-258.284 23.6796,-220.782 30.5,-189.38 32.3743,-180.75 34.4993,-171.398 36.4801,-162.845"/>
<polygon fill="green" stroke="green" stroke-width="0.204507" points="39.9345,-163.443 38.7982,-152.909 33.1175,-161.852 39.9345,-163.443"/>
</g>
<!-- 1626 -->
<g id="node5" class="node"><title>1626</title>
<ellipse fill="white" stroke="black" cx="64.5" cy="-214.128" rx="25" ry="25"/>
<text text-anchor="middle" x="64.5" y="-211.928" font-family="Times New Roman,serif" font-size="9.00">1626</text>
</g>
<!-- A&#45;&gt;1626 -->
<g id="edge8" class="edge"><title>A&#45;&gt;1626</title>
<path fill="none" stroke="red" stroke-width="0.545278" d="M17.7879,-274.839C24.1151,-266.752 34.2272,-253.826 43.4273,-242.065"/>
<polygon fill="red" stroke="red" stroke-width="0.545278" points="46.1884,-244.216 49.5933,-234.183 40.675,-239.903 46.1884,-244.216"/>
</g>
<!-- B -->
<g id="node2" class="node"><title>B</title>
<polygon fill="lightgray" stroke="black" points="129,-292.877 106,-292.877 106,-274.877 129,-274.877 129,-292.877"/>
<text text-anchor="middle" x="117.5" y="-281.677" font-family="Times New Roman,serif" font-size="9.00">B</text>
</g>
<!-- B&#45;&gt;A XOR B -->
<g id="edge5" class="edge"><title>B&#45;&gt;A XOR B</title>
<path fill="none" stroke="red" stroke-width="0.355919" d="M118.836,-274.799C121.296,-258.506 125.823,-220.598 120.5,-189.38 114.057,-151.59 99.1487,-110.672 86.7799,-80.9898"/>
<polygon fill="red" stroke="red" stroke-width="0.355919" points="89.9945,-79.6051 82.8673,-71.7659 83.5503,-82.3387 89.9945,-79.6051"/>
</g>
<!-- B&#45;&gt;426 -->
<g id="edge4" class="edge"><title>B&#45;&gt;426</title>
<path fill="none" stroke="green" stroke-width="0.189359" stroke-dasharray="1,5" d="M117.373,-274.862C116.797,-258.036 113.785,-218.21 98.5,-189.38 90.9864,-175.208 78.7855,-162.204 67.7821,-152.282"/>
<polygon fill="green" stroke="green" stroke-width="0.189359" points="69.9247,-149.508 60.0656,-145.628 65.3536,-154.809 69.9247,-149.508"/>
</g>
<!-- B&#45;&gt;1626 -->
<g id="edge6" class="edge"><title>B&#45;&gt;1626</title>
<path fill="none" stroke="green" stroke-width="0.261348" d="M111.212,-274.839C104.885,-266.752 94.7728,-253.826 85.5727,-242.065"/>
<polygon fill="green" stroke="green" stroke-width="0.261348" points="88.325,-239.903 79.4067,-234.183 82.8116,-244.216 88.325,-239.903"/>
</g>
<!-- 426&#45;&gt;A XOR B -->
<g id="edge3" class="edge"><title>426&#45;&gt;A XOR B</title>
<path fill="none" stroke="green" stroke-width="0.702595" d="M48.5898,-111.509C50.7157,-103.299 53.2805,-93.3936 55.8257,-83.5637"/>
<polygon fill="green" stroke="green" stroke-width="0.702595" points="59.229,-84.3826 58.3475,-73.8245 52.4525,-82.6279 59.229,-84.3826"/>
</g>
<!-- 1626&#45;&gt;A XOR B -->
<g id="edge9" class="edge"><title>1626&#45;&gt;A XOR B</title>
<path fill="none" stroke="green" stroke-width="0.438651" d="M68.8632,-189.667C70.6914,-178.689 72.599,-165.41 73.5,-153.38 75.1846,-130.886 74.2157,-105.879 72.6063,-84.9537"/>
<polygon fill="green" stroke="green" stroke-width="0.438651" points="76.0722,-84.3998 71.7455,-74.7287 69.0968,-84.9871 76.0722,-84.3998"/>
</g>
<!-- 1626&#45;&gt;426 -->
<g id="edge7" class="edge"><title>1626&#45;&gt;426</title>
<path fill="none" stroke="green" stroke-width="0.428997" d="M58.4259,-190C56.1904,-181.488 53.6273,-171.728 51.2632,-162.726"/>
<polygon fill="green" stroke="green" stroke-width="0.428997" points="54.632,-161.775 48.7066,-152.992 47.8616,-163.553 54.632,-161.775"/>
</g>
</g>
</svg>
