<?xml version="1.0" encoding="utf-8" standalone="no"?>
<!DOCTYPE svg PUBLIC "-//W3C//DTD SVG 1.1//EN"
  "http://www.w3.org/Graphics/SVG/1.1/DTD/svg11.dtd">
<!-- Created with matplotlib (https://matplotlib.org/) -->
<svg height="345.6pt" version="1.1" viewBox="0 0 460.8 345.6" width="460.8pt" xmlns="http://www.w3.org/2000/svg" xmlns:xlink="http://www.w3.org/1999/xlink">
 <defs>
  <style type="text/css">
*{stroke-linecap:butt;stroke-linejoin:round;}
  </style>
 </defs>
 <g id="figure_1">
  <g id="patch_1">
   <path d="M 0 345.6 
L 460.8 345.6 
L 460.8 0 
L 0 0 
z
" style="fill:#ffffff;"/>
  </g>
  <g id="axes_1">
   <g id="patch_2">
    <path d="M 57.6 307.584 
L 414.72 307.584 
L 414.72 41.472 
L 57.6 41.472 
z
" style="fill:#ffffff;"/>
   </g>
   <g id="PolyCollection_1">
    <path clip-path="url(#p45a9db5624)" d="M 73.832727 244.474435 
L 73.832727 307.584 
L 95.476364 307.584 
L 117.12 307.584 
L 138.763636 307.584 
L 160.407273 307.584 
L 182.050909 307.584 
L 203.694545 307.584 
L 225.338182 307.584 
L 246.981818 307.584 
L 268.625455 307.584 
L 290.269091 307.584 
L 311.912727 307.584 
L 333.556364 307.584 
L 355.2 307.584 
L 376.843636 307.584 
L 398.487273 307.584 
L 398.487273 282.540522 
L 398.487273 282.540522 
L 376.843636 290.554435 
L 355.2 295.56313 
L 333.556364 299.570087 
L 311.912727 289.552696 
L 290.269091 306.582261 
L 268.625455 297.566609 
L 246.981818 288.550957 
L 225.338182 289.552696 
L 203.694545 288.550957 
L 182.050909 300.571826 
L 160.407273 299.570087 
L 138.763636 262.505739 
L 117.12 280.537043 
L 95.476364 290.554435 
L 73.832727 244.474435 
z
" style="fill:#1f77b4;"/>
   </g>
   <g id="PolyCollection_2">
    <path clip-path="url(#p45a9db5624)" d="M 73.832727 183.368348 
L 73.832727 244.474435 
L 95.476364 290.554435 
L 117.12 280.537043 
L 138.763636 262.505739 
L 160.407273 299.570087 
L 182.050909 300.571826 
L 203.694545 288.550957 
L 225.338182 289.552696 
L 246.981818 288.550957 
L 268.625455 297.566609 
L 290.269091 306.582261 
L 311.912727 289.552696 
L 333.556364 299.570087 
L 355.2 295.56313 
L 376.843636 290.554435 
L 398.487273 282.540522 
L 398.487273 270.519652 
L 398.487273 270.519652 
L 376.843636 278.533565 
L 355.2 276.530087 
L 333.556364 259.500522 
L 311.912727 262.505739 
L 290.269091 268.516174 
L 268.625455 258.498783 
L 246.981818 252.488348 
L 225.338182 237.462261 
L 203.694545 246.477913 
L 182.050909 243.472696 
L 160.407273 257.497043 
L 138.763636 243.472696 
L 117.12 269.517913 
L 95.476364 272.52313 
L 73.832727 183.368348 
z
" style="fill:#ff7f0e;"/>
   </g>
   <g id="PolyCollection_3">
    <path clip-path="url(#p45a9db5624)" d="M 73.832727 160.328348 
L 73.832727 183.368348 
L 95.476364 272.52313 
L 117.12 269.517913 
L 138.763636 243.472696 
L 160.407273 257.497043 
L 182.050909 243.472696 
L 203.694545 246.477913 
L 225.338182 237.462261 
L 246.981818 252.488348 
L 268.625455 258.498783 
L 290.269091 268.516174 
L 311.912727 262.505739 
L 333.556364 259.500522 
L 355.2 276.530087 
L 376.843636 278.533565 
L 398.487273 270.519652 
L 398.487273 244.474435 
L 398.487273 244.474435 
L 376.843636 255.493565 
L 355.2 258.498783 
L 333.556364 243.472696 
L 311.912727 250.48487 
L 290.269091 245.476174 
L 268.625455 246.477913 
L 246.981818 234.457043 
L 225.338182 222.436174 
L 203.694545 223.437913 
L 182.050909 224.439652 
L 160.407273 230.450087 
L 138.763636 219.430957 
L 117.12 235.458783 
L 95.476364 246.477913 
L 73.832727 160.328348 
z
" style="fill:#2ca02c;"/>
   </g>
   <g id="PolyCollection_4">
    <path clip-path="url(#p45a9db5624)" d="M 73.832727 159.326609 
L 73.832727 160.328348 
L 95.476364 246.477913 
L 117.12 235.458783 
L 138.763636 219.430957 
L 160.407273 230.450087 
L 182.050909 224.439652 
L 203.694545 223.437913 
L 225.338182 222.436174 
L 246.981818 234.457043 
L 268.625455 246.477913 
L 290.269091 245.476174 
L 311.912727 250.48487 
L 333.556364 243.472696 
L 355.2 258.498783 
L 376.843636 255.493565 
L 398.487273 244.474435 
L 398.487273 242.470957 
L 398.487273 242.470957 
L 376.843636 252.488348 
L 355.2 256.495304 
L 333.556364 240.467478 
L 311.912727 246.477913 
L 290.269091 242.470957 
L 268.625455 242.470957 
L 246.981818 231.451826 
L 225.338182 218.429217 
L 203.694545 218.429217 
L 182.050909 220.432696 
L 160.407273 227.44487 
L 138.763636 216.425739 
L 117.12 231.451826 
L 95.476364 243.472696 
L 73.832727 159.326609 
z
" style="fill:#d62728;"/>
   </g>
   <g id="PolyCollection_5">
    <path clip-path="url(#p45a9db5624)" d="M 73.832727 140.293565 
L 73.832727 159.326609 
L 95.476364 243.472696 
L 117.12 231.451826 
L 138.763636 216.425739 
L 160.407273 227.44487 
L 182.050909 220.432696 
L 203.694545 218.429217 
L 225.338182 218.429217 
L 246.981818 231.451826 
L 268.625455 242.470957 
L 290.269091 242.470957 
L 311.912727 246.477913 
L 333.556364 240.467478 
L 355.2 256.495304 
L 376.843636 252.488348 
L 398.487273 242.470957 
L 398.487273 221.434435 
L 398.487273 221.434435 
L 376.843636 237.462261 
L 355.2 240.467478 
L 333.556364 231.451826 
L 311.912727 228.446609 
L 290.269091 233.455304 
L 268.625455 228.446609 
L 246.981818 216.425739 
L 225.338182 204.40487 
L 203.694545 210.415304 
L 182.050909 203.40313 
L 160.407273 218.429217 
L 138.763636 201.399652 
L 117.12 214.422261 
L 95.476364 221.434435 
L 73.832727 140.293565 
z
" style="fill:#9467bd;"/>
   </g>
   <g id="PolyCollection_6">
    <path clip-path="url(#p45a9db5624)" d="M 73.832727 134.28313 
L 73.832727 140.293565 
L 95.476364 221.434435 
L 117.12 214.422261 
L 138.763636 201.399652 
L 160.407273 218.429217 
L 182.050909 203.40313 
L 203.694545 210.415304 
L 225.338182 204.40487 
L 246.981818 216.425739 
L 268.625455 228.446609 
L 290.269091 233.455304 
L 311.912727 228.446609 
L 333.556364 231.451826 
L 355.2 240.467478 
L 376.843636 237.462261 
L 398.487273 221.434435 
L 398.487273 209.413565 
L 398.487273 209.413565 
L 376.843636 220.432696 
L 355.2 231.451826 
L 333.556364 219.430957 
L 311.912727 206.408348 
L 290.269091 224.439652 
L 268.625455 207.410087 
L 246.981818 211.417043 
L 225.338182 201.399652 
L 203.694545 208.411826 
L 182.050909 190.380522 
L 160.407273 196.390957 
L 138.763636 190.380522 
L 117.12 210.415304 
L 95.476364 214.422261 
L 73.832727 134.28313 
z
" style="fill:#8c564b;"/>
   </g>
   <g id="PolyCollection_7">
    <path clip-path="url(#p45a9db5624)" d="M 73.832727 107.236174 
L 73.832727 134.28313 
L 95.476364 214.422261 
L 117.12 210.415304 
L 138.763636 190.380522 
L 160.407273 196.390957 
L 182.050909 190.380522 
L 203.694545 208.411826 
L 225.338182 201.399652 
L 246.981818 211.417043 
L 268.625455 207.410087 
L 290.269091 224.439652 
L 311.912727 206.408348 
L 333.556364 219.430957 
L 355.2 231.451826 
L 376.843636 220.432696 
L 398.487273 209.413565 
L 398.487273 200.397913 
L 398.487273 200.397913 
L 376.843636 204.40487 
L 355.2 217.427478 
L 333.556364 204.40487 
L 311.912727 192.384 
L 290.269091 209.413565 
L 268.625455 192.384 
L 246.981818 196.390957 
L 225.338182 188.377043 
L 203.694545 191.382261 
L 182.050909 175.354435 
L 160.407273 177.357913 
L 138.763636 173.350957 
L 117.12 197.392696 
L 95.476364 211.417043 
L 73.832727 107.236174 
z
" style="fill:#e377c2;"/>
   </g>
   <g id="PolyCollection_8">
    <path clip-path="url(#p45a9db5624)" d="M 73.832727 106.234435 
L 73.832727 107.236174 
L 95.476364 211.417043 
L 117.12 197.392696 
L 138.763636 173.350957 
L 160.407273 177.357913 
L 182.050909 175.354435 
L 203.694545 191.382261 
L 225.338182 188.377043 
L 246.981818 196.390957 
L 268.625455 192.384 
L 290.269091 209.413565 
L 311.912727 192.384 
L 333.556364 204.40487 
L 355.2 217.427478 
L 376.843636 204.40487 
L 398.487273 200.397913 
L 398.487273 198.394435 
L 398.487273 198.394435 
L 376.843636 202.401391 
L 355.2 215.424 
L 333.556364 202.401391 
L 311.912727 189.378783 
L 290.269091 207.410087 
L 268.625455 189.378783 
L 246.981818 192.384 
L 225.338182 183.368348 
L 203.694545 187.375304 
L 182.050909 173.350957 
L 160.407273 175.354435 
L 138.763636 170.345739 
L 117.12 196.390957 
L 95.476364 208.411826 
L 73.832727 106.234435 
z
" style="fill:#7f7f7f;"/>
   </g>
   <g id="PolyCollection_9">
    <path clip-path="url(#p45a9db5624)" d="M 73.832727 101.225739 
L 73.832727 106.234435 
L 95.476364 208.411826 
L 117.12 196.390957 
L 138.763636 170.345739 
L 160.407273 175.354435 
L 182.050909 173.350957 
L 203.694545 187.375304 
L 225.338182 183.368348 
L 246.981818 192.384 
L 268.625455 189.378783 
L 290.269091 207.410087 
L 311.912727 189.378783 
L 333.556364 202.401391 
L 355.2 215.424 
L 376.843636 202.401391 
L 398.487273 198.394435 
L 398.487273 179.361391 
L 398.487273 179.361391 
L 376.843636 180.36313 
L 355.2 189.378783 
L 333.556364 170.345739 
L 311.912727 161.330087 
L 290.269091 179.361391 
L 268.625455 175.354435 
L 246.981818 182.366609 
L 225.338182 175.354435 
L 203.694545 182.366609 
L 182.050909 168.342261 
L 160.407273 172.349217 
L 138.763636 167.340522 
L 117.12 191.382261 
L 95.476364 204.40487 
L 73.832727 101.225739 
z
" style="fill:#bcbd22;"/>
   </g>
   <g id="PolyCollection_10">
    <path clip-path="url(#p45a9db5624)" d="M 73.832727 97.218783 
L 73.832727 101.225739 
L 95.476364 204.40487 
L 117.12 191.382261 
L 138.763636 167.340522 
L 160.407273 172.349217 
L 182.050909 168.342261 
L 203.694545 182.366609 
L 225.338182 175.354435 
L 246.981818 182.366609 
L 268.625455 175.354435 
L 290.269091 179.361391 
L 311.912727 161.330087 
L 333.556364 170.345739 
L 355.2 189.378783 
L 376.843636 180.36313 
L 398.487273 179.361391 
L 398.487273 177.357913 
L 398.487273 177.357913 
L 376.843636 177.357913 
L 355.2 187.375304 
L 333.556364 167.340522 
L 311.912727 159.326609 
L 290.269091 176.356174 
L 268.625455 172.349217 
L 246.981818 180.36313 
L 225.338182 172.349217 
L 203.694545 180.36313 
L 182.050909 165.337043 
L 160.407273 170.345739 
L 138.763636 163.333565 
L 117.12 186.373565 
L 95.476364 202.401391 
L 73.832727 97.218783 
z
" style="fill:#17becf;"/>
   </g>
   <g id="PolyCollection_11">
    <path clip-path="url(#p45a9db5624)" d="M 73.832727 92.210087 
L 73.832727 97.218783 
L 95.476364 202.401391 
L 117.12 186.373565 
L 138.763636 163.333565 
L 160.407273 170.345739 
L 182.050909 165.337043 
L 203.694545 180.36313 
L 225.338182 172.349217 
L 246.981818 180.36313 
L 268.625455 172.349217 
L 290.269091 176.356174 
L 311.912727 159.326609 
L 333.556364 167.340522 
L 355.2 187.375304 
L 376.843636 177.357913 
L 398.487273 177.357913 
L 398.487273 169.344 
L 398.487273 169.344 
L 376.843636 171.347478 
L 355.2 150.310957 
L 333.556364 158.32487 
L 311.912727 155.319652 
L 290.269091 166.338783 
L 268.625455 167.340522 
L 246.981818 159.326609 
L 225.338182 164.335304 
L 203.694545 164.335304 
L 182.050909 155.319652 
L 160.407273 156.321391 
L 138.763636 136.286609 
L 117.12 170.345739 
L 95.476364 184.370087 
L 73.832727 92.210087 
z
" style="fill:#1f77b4;"/>
   </g>
   <g id="PolyCollection_12">
    <path clip-path="url(#p45a9db5624)" d="M 73.832727 91.208348 
L 73.832727 92.210087 
L 95.476364 184.370087 
L 117.12 170.345739 
L 138.763636 136.286609 
L 160.407273 156.321391 
L 182.050909 155.319652 
L 203.694545 164.335304 
L 225.338182 164.335304 
L 246.981818 159.326609 
L 268.625455 167.340522 
L 290.269091 166.338783 
L 311.912727 155.319652 
L 333.556364 158.32487 
L 355.2 150.310957 
L 376.843636 171.347478 
L 398.487273 169.344 
L 398.487273 167.340522 
L 398.487273 167.340522 
L 376.843636 169.344 
L 355.2 148.307478 
L 333.556364 156.321391 
L 311.912727 152.314435 
L 290.269091 164.335304 
L 268.625455 165.337043 
L 246.981818 157.32313 
L 225.338182 161.330087 
L 203.694545 162.331826 
L 182.050909 152.314435 
L 160.407273 152.314435 
L 138.763636 131.277913 
L 117.12 166.338783 
L 95.476364 179.361391 
L 73.832727 91.208348 
z
" style="fill:#ff7f0e;"/>
   </g>
   <g id="PolyCollection_13">
    <path clip-path="url(#p45a9db5624)" d="M 73.832727 90.206609 
L 73.832727 91.208348 
L 95.476364 179.361391 
L 117.12 166.338783 
L 138.763636 131.277913 
L 160.407273 152.314435 
L 182.050909 152.314435 
L 203.694545 162.331826 
L 225.338182 161.330087 
L 246.981818 157.32313 
L 268.625455 165.337043 
L 290.269091 164.335304 
L 311.912727 152.314435 
L 333.556364 156.321391 
L 355.2 148.307478 
L 376.843636 169.344 
L 398.487273 167.340522 
L 398.487273 163.333565 
L 398.487273 163.333565 
L 376.843636 166.338783 
L 355.2 144.300522 
L 333.556364 153.316174 
L 311.912727 150.310957 
L 290.269091 162.331826 
L 268.625455 162.331826 
L 246.981818 155.319652 
L 225.338182 158.32487 
L 203.694545 160.328348 
L 182.050909 149.309217 
L 160.407273 148.307478 
L 138.763636 129.274435 
L 117.12 163.333565 
L 95.476364 177.357913 
L 73.832727 90.206609 
z
" style="fill:#2ca02c;"/>
   </g>
   <g id="PolyCollection_14">
    <path clip-path="url(#p45a9db5624)" d="M 73.832727 89.20487 
L 73.832727 90.206609 
L 95.476364 177.357913 
L 117.12 163.333565 
L 138.763636 129.274435 
L 160.407273 148.307478 
L 182.050909 149.309217 
L 203.694545 160.328348 
L 225.338182 158.32487 
L 246.981818 155.319652 
L 268.625455 162.331826 
L 290.269091 162.331826 
L 311.912727 150.310957 
L 333.556364 153.316174 
L 355.2 144.300522 
L 376.843636 166.338783 
L 398.487273 163.333565 
L 398.487273 151.312696 
L 398.487273 151.312696 
L 376.843636 154.317913 
L 355.2 136.286609 
L 333.556364 136.286609 
L 311.912727 144.300522 
L 290.269091 147.305739 
L 268.625455 124.265739 
L 246.981818 150.310957 
L 225.338182 154.317913 
L 203.694545 158.32487 
L 182.050909 147.305739 
L 160.407273 145.302261 
L 138.763636 127.270957 
L 117.12 159.326609 
L 95.476364 174.352696 
L 73.832727 89.20487 
z
" style="fill:#d62728;"/>
   </g>
   <g id="PolyCollection_15">
    <path clip-path="url(#p45a9db5624)" d="M 73.832727 85.197913 
L 73.832727 89.20487 
L 95.476364 174.352696 
L 117.12 159.326609 
L 138.763636 127.270957 
L 160.407273 145.302261 
L 182.050909 147.305739 
L 203.694545 158.32487 
L 225.338182 154.317913 
L 246.981818 150.310957 
L 268.625455 124.265739 
L 290.269091 147.305739 
L 311.912727 144.300522 
L 333.556364 136.286609 
L 355.2 136.286609 
L 376.843636 154.317913 
L 398.487273 151.312696 
L 398.487273 149.309217 
L 398.487273 149.309217 
L 376.843636 151.312696 
L 355.2 134.28313 
L 333.556364 133.281391 
L 311.912727 139.291826 
L 290.269091 143.298783 
L 268.625455 120.258783 
L 246.981818 148.307478 
L 225.338182 151.312696 
L 203.694545 155.319652 
L 182.050909 143.298783 
L 160.407273 142.297043 
L 138.763636 123.264 
L 117.12 154.317913 
L 95.476364 170.345739 
L 73.832727 85.197913 
z
" style="fill:#9467bd;"/>
   </g>
   <g id="PolyCollection_16">
    <path clip-path="url(#p45a9db5624)" d="M 73.832727 74.178783 
L 73.832727 85.197913 
L 95.476364 170.345739 
L 117.12 154.317913 
L 138.763636 123.264 
L 160.407273 142.297043 
L 182.050909 143.298783 
L 203.694545 155.319652 
L 225.338182 151.312696 
L 246.981818 148.307478 
L 268.625455 120.258783 
L 290.269091 143.298783 
L 311.912727 139.291826 
L 333.556364 133.281391 
L 355.2 134.28313 
L 376.843636 151.312696 
L 398.487273 149.309217 
L 398.487273 129.274435 
L 398.487273 129.274435 
L 376.843636 134.28313 
L 355.2 107.236174 
L 333.556364 113.246609 
L 311.912727 121.260522 
L 290.269091 112.24487 
L 268.625455 102.227478 
L 246.981818 106.234435 
L 225.338182 109.239652 
L 203.694545 108.237913 
L 182.050909 95.215304 
L 160.407273 118.255304 
L 138.763636 119.257043 
L 117.12 125.267478 
L 95.476364 118.255304 
L 73.832727 74.178783 
z
" style="fill:#8c564b;"/>
   </g>
   <g id="PolyCollection_17">
    <path clip-path="url(#p45a9db5624)" d="M 73.832727 73.177043 
L 73.832727 74.178783 
L 95.476364 118.255304 
L 117.12 125.267478 
L 138.763636 119.257043 
L 160.407273 118.255304 
L 182.050909 95.215304 
L 203.694545 108.237913 
L 225.338182 109.239652 
L 246.981818 106.234435 
L 268.625455 102.227478 
L 290.269091 112.24487 
L 311.912727 121.260522 
L 333.556364 113.246609 
L 355.2 107.236174 
L 376.843636 134.28313 
L 398.487273 129.274435 
L 398.487273 127.270957 
L 398.487273 127.270957 
L 376.843636 132.279652 
L 355.2 105.232696 
L 333.556364 111.24313 
L 311.912727 118.255304 
L 290.269091 110.241391 
L 268.625455 100.224 
L 246.981818 104.230957 
L 225.338182 106.234435 
L 203.694545 106.234435 
L 182.050909 92.210087 
L 160.407273 116.251826 
L 138.763636 116.251826 
L 117.12 121.260522 
L 95.476364 116.251826 
L 73.832727 73.177043 
z
" style="fill:#e377c2;"/>
   </g>
   <g id="PolyCollection_18">
    <path clip-path="url(#p45a9db5624)" d="M 73.832727 72.175304 
L 73.832727 73.177043 
L 95.476364 116.251826 
L 117.12 121.260522 
L 138.763636 116.251826 
L 160.407273 116.251826 
L 182.050909 92.210087 
L 203.694545 106.234435 
L 225.338182 106.234435 
L 246.981818 104.230957 
L 268.625455 100.224 
L 290.269091 110.241391 
L 311.912727 118.255304 
L 333.556364 111.24313 
L 355.2 105.232696 
L 376.843636 132.279652 
L 398.487273 127.270957 
L 398.487273 125.267478 
L 398.487273 125.267478 
L 376.843636 129.274435 
L 355.2 103.229217 
L 333.556364 109.239652 
L 311.912727 115.250087 
L 290.269091 108.237913 
L 268.625455 98.220522 
L 246.981818 101.225739 
L 225.338182 102.227478 
L 203.694545 102.227478 
L 182.050909 89.20487 
L 160.407273 112.24487 
L 138.763636 114.248348 
L 117.12 118.255304 
L 95.476364 112.24487 
L 73.832727 72.175304 
z
" style="fill:#7f7f7f;"/>
   </g>
   <g id="PolyCollection_19">
    <path clip-path="url(#p45a9db5624)" d="M 73.832727 64.161391 
L 73.832727 72.175304 
L 95.476364 112.24487 
L 117.12 118.255304 
L 138.763636 114.248348 
L 160.407273 112.24487 
L 182.050909 89.20487 
L 203.694545 102.227478 
L 225.338182 102.227478 
L 246.981818 101.225739 
L 268.625455 98.220522 
L 290.269091 108.237913 
L 311.912727 115.250087 
L 333.556364 109.239652 
L 355.2 103.229217 
L 376.843636 129.274435 
L 398.487273 125.267478 
L 398.487273 123.264 
L 398.487273 123.264 
L 376.843636 101.225739 
L 355.2 93.211826 
L 333.556364 101.225739 
L 311.912727 103.229217 
L 290.269091 92.210087 
L 268.625455 79.187478 
L 246.981818 96.217043 
L 225.338182 89.20487 
L 203.694545 91.208348 
L 182.050909 86.199652 
L 160.407273 87.201391 
L 138.763636 82.192696 
L 117.12 83.194435 
L 95.476364 80.189217 
L 73.832727 64.161391 
z
" style="fill:#bcbd22;"/>
   </g>
   <g id="PolyCollection_20">
    <path clip-path="url(#p45a9db5624)" d="M 73.832727 63.159652 
L 73.832727 64.161391 
L 95.476364 80.189217 
L 117.12 83.194435 
L 138.763636 82.192696 
L 160.407273 87.201391 
L 182.050909 86.199652 
L 203.694545 91.208348 
L 225.338182 89.20487 
L 246.981818 96.217043 
L 268.625455 79.187478 
L 290.269091 92.210087 
L 311.912727 103.229217 
L 333.556364 101.225739 
L 355.2 93.211826 
L 376.843636 101.225739 
L 398.487273 123.264 
L 398.487273 121.260522 
L 398.487273 121.260522 
L 376.843636 98.220522 
L 355.2 91.208348 
L 333.556364 99.222261 
L 311.912727 100.224 
L 290.269091 90.206609 
L 268.625455 77.184 
L 246.981818 93.211826 
L 225.338182 87.201391 
L 203.694545 88.20313 
L 182.050909 84.196174 
L 160.407273 84.196174 
L 138.763636 78.185739 
L 117.12 80.189217 
L 95.476364 77.184 
L 73.832727 63.159652 
z
" style="fill:#17becf;"/>
   </g>
   <g id="PolyCollection_21">
    <path clip-path="url(#p45a9db5624)" d="M 73.832727 62.157913 
L 73.832727 63.159652 
L 95.476364 77.184 
L 117.12 80.189217 
L 138.763636 78.185739 
L 160.407273 84.196174 
L 182.050909 84.196174 
L 203.694545 88.20313 
L 225.338182 87.201391 
L 246.981818 93.211826 
L 268.625455 77.184 
L 290.269091 90.206609 
L 311.912727 100.224 
L 333.556364 99.222261 
L 355.2 91.208348 
L 376.843636 98.220522 
L 398.487273 121.260522 
L 398.487273 109.239652 
L 398.487273 109.239652 
L 376.843636 80.189217 
L 355.2 78.185739 
L 333.556364 77.184 
L 311.912727 92.210087 
L 290.269091 77.184 
L 268.625455 76.182261 
L 246.981818 88.20313 
L 225.338182 85.197913 
L 203.694545 85.197913 
L 182.050909 80.189217 
L 160.407273 81.190957 
L 138.763636 76.182261 
L 117.12 77.184 
L 95.476364 75.180522 
L 73.832727 62.157913 
z
" style="fill:#1f77b4;"/>
   </g>
   <g id="PolyCollection_22">
    <path clip-path="url(#p45a9db5624)" d="M 73.832727 61.156174 
L 73.832727 62.157913 
L 95.476364 75.180522 
L 117.12 77.184 
L 138.763636 76.182261 
L 160.407273 81.190957 
L 182.050909 80.189217 
L 203.694545 85.197913 
L 225.338182 85.197913 
L 246.981818 88.20313 
L 268.625455 76.182261 
L 290.269091 77.184 
L 311.912727 92.210087 
L 333.556364 77.184 
L 355.2 78.185739 
L 376.843636 80.189217 
L 398.487273 109.239652 
L 398.487273 66.16487 
L 398.487273 66.16487 
L 376.843636 67.166609 
L 355.2 70.171826 
L 333.556364 72.175304 
L 311.912727 70.171826 
L 290.269091 63.159652 
L 268.625455 64.161391 
L 246.981818 71.173565 
L 225.338182 67.166609 
L 203.694545 67.166609 
L 182.050909 67.166609 
L 160.407273 68.168348 
L 138.763636 71.173565 
L 117.12 71.173565 
L 95.476364 70.171826 
L 73.832727 61.156174 
z
" style="fill:#ff7f0e;"/>
   </g>
   <g id="PolyCollection_23">
    <path clip-path="url(#p45a9db5624)" d="M 73.832727 60.154435 
L 73.832727 61.156174 
L 95.476364 70.171826 
L 117.12 71.173565 
L 138.763636 71.173565 
L 160.407273 68.168348 
L 182.050909 67.166609 
L 203.694545 67.166609 
L 225.338182 67.166609 
L 246.981818 71.173565 
L 268.625455 64.161391 
L 290.269091 63.159652 
L 311.912727 70.171826 
L 333.556364 72.175304 
L 355.2 70.171826 
L 376.843636 67.166609 
L 398.487273 66.16487 
L 398.487273 64.161391 
L 398.487273 64.161391 
L 376.843636 65.16313 
L 355.2 67.166609 
L 333.556364 68.168348 
L 311.912727 67.166609 
L 290.269091 61.156174 
L 268.625455 62.157913 
L 246.981818 68.168348 
L 225.338182 65.16313 
L 203.694545 64.161391 
L 182.050909 65.16313 
L 160.407273 66.16487 
L 138.763636 68.168348 
L 117.12 67.166609 
L 95.476364 67.166609 
L 73.832727 60.154435 
z
" style="fill:#2ca02c;"/>
   </g>
   <g id="PolyCollection_24">
    <path clip-path="url(#p45a9db5624)" d="M 73.832727 59.152696 
L 73.832727 60.154435 
L 95.476364 67.166609 
L 117.12 67.166609 
L 138.763636 68.168348 
L 160.407273 66.16487 
L 182.050909 65.16313 
L 203.694545 64.161391 
L 225.338182 65.16313 
L 246.981818 68.168348 
L 268.625455 62.157913 
L 290.269091 61.156174 
L 311.912727 67.166609 
L 333.556364 68.168348 
L 355.2 67.166609 
L 376.843636 65.16313 
L 398.487273 64.161391 
L 398.487273 59.152696 
L 398.487273 59.152696 
L 376.843636 60.154435 
L 355.2 62.157913 
L 333.556364 64.161391 
L 311.912727 62.157913 
L 290.269091 59.152696 
L 268.625455 59.152696 
L 246.981818 62.157913 
L 225.338182 61.156174 
L 203.694545 62.157913 
L 182.050909 62.157913 
L 160.407273 64.161391 
L 138.763636 65.16313 
L 117.12 63.159652 
L 95.476364 65.16313 
L 73.832727 59.152696 
z
" style="fill:#d62728;"/>
   </g>
   <g id="PolyCollection_25">
    <path clip-path="url(#p45a9db5624)" d="M 73.832727 58.150957 
L 73.832727 59.152696 
L 95.476364 65.16313 
L 117.12 63.159652 
L 138.763636 65.16313 
L 160.407273 64.161391 
L 182.050909 62.157913 
L 203.694545 62.157913 
L 225.338182 61.156174 
L 246.981818 62.157913 
L 268.625455 59.152696 
L 290.269091 59.152696 
L 311.912727 62.157913 
L 333.556364 64.161391 
L 355.2 62.157913 
L 376.843636 60.154435 
L 398.487273 59.152696 
L 398.487273 57.149217 
L 398.487273 57.149217 
L 376.843636 58.150957 
L 355.2 59.152696 
L 333.556364 62.157913 
L 311.912727 59.152696 
L 290.269091 57.149217 
L 268.625455 56.147478 
L 246.981818 60.154435 
L 225.338182 59.152696 
L 203.694545 59.152696 
L 182.050909 58.150957 
L 160.407273 61.156174 
L 138.763636 63.159652 
L 117.12 60.154435 
L 95.476364 63.159652 
L 73.832727 58.150957 
z
" style="fill:#9467bd;"/>
   </g>
   <g id="PolyCollection_26">
    <path clip-path="url(#p45a9db5624)" d="M 73.832727 57.149217 
L 73.832727 58.150957 
L 95.476364 63.159652 
L 117.12 60.154435 
L 138.763636 63.159652 
L 160.407273 61.156174 
L 182.050909 58.150957 
L 203.694545 59.152696 
L 225.338182 59.152696 
L 246.981818 60.154435 
L 268.625455 56.147478 
L 290.269091 57.149217 
L 311.912727 59.152696 
L 333.556364 62.157913 
L 355.2 59.152696 
L 376.843636 58.150957 
L 398.487273 57.149217 
L 398.487273 55.145739 
L 398.487273 55.145739 
L 376.843636 55.145739 
L 355.2 57.149217 
L 333.556364 59.152696 
L 311.912727 55.145739 
L 290.269091 54.144 
L 268.625455 54.144 
L 246.981818 57.149217 
L 225.338182 57.149217 
L 203.694545 56.147478 
L 182.050909 55.145739 
L 160.407273 59.152696 
L 138.763636 60.154435 
L 117.12 55.145739 
L 95.476364 59.152696 
L 73.832727 57.149217 
z
" style="fill:#8c564b;"/>
   </g>
   <g id="matplotlib.axis_1">
    <g id="xtick_1">
     <g id="line2d_1">
      <defs>
       <path d="M 0 0 
L 0 3.5 
" id="madae8ad690" style="stroke:#000000;stroke-width:0.8;"/>
      </defs>
      <g>
       <use style="stroke:#000000;stroke-width:0.8;" x="73.832727" xlink:href="#madae8ad690" y="307.584"/>
      </g>
     </g>
     <g id="text_1">
      <!-- 0 -->
      <defs>
       <path d="M 31.78125 66.40625 
Q 24.171875 66.40625 20.328125 58.90625 
Q 16.5 51.421875 16.5 36.375 
Q 16.5 21.390625 20.328125 13.890625 
Q 24.171875 6.390625 31.78125 6.390625 
Q 39.453125 6.390625 43.28125 13.890625 
Q 47.125 21.390625 47.125 36.375 
Q 47.125 51.421875 43.28125 58.90625 
Q 39.453125 66.40625 31.78125 66.40625 
z
M 31.78125 74.21875 
Q 44.046875 74.21875 50.515625 64.515625 
Q 56.984375 54.828125 56.984375 36.375 
Q 56.984375 17.96875 50.515625 8.265625 
Q 44.046875 -1.421875 31.78125 -1.421875 
Q 19.53125 -1.421875 13.0625 8.265625 
Q 6.59375 17.96875 6.59375 36.375 
Q 6.59375 54.828125 13.0625 64.515625 
Q 19.53125 74.21875 31.78125 74.21875 
z
" id="DejaVuSans-48"/>
      </defs>
      <g transform="translate(70.651477 322.182437)scale(0.1 -0.1)">
       <use xlink:href="#DejaVuSans-48"/>
      </g>
     </g>
    </g>
    <g id="xtick_2">
     <g id="line2d_2">
      <g>
       <use style="stroke:#000000;stroke-width:0.8;" x="117.12" xlink:href="#madae8ad690" y="307.584"/>
      </g>
     </g>
     <g id="text_2">
      <!-- 2 -->
      <defs>
       <path d="M 19.1875 8.296875 
L 53.609375 8.296875 
L 53.609375 0 
L 7.328125 0 
L 7.328125 8.296875 
Q 12.9375 14.109375 22.625 23.890625 
Q 32.328125 33.6875 34.8125 36.53125 
Q 39.546875 41.84375 41.421875 45.53125 
Q 43.3125 49.21875 43.3125 52.78125 
Q 43.3125 58.59375 39.234375 62.25 
Q 35.15625 65.921875 28.609375 65.921875 
Q 23.96875 65.921875 18.8125 64.3125 
Q 13.671875 62.703125 7.8125 59.421875 
L 7.8125 69.390625 
Q 13.765625 71.78125 18.9375 73 
Q 24.125 74.21875 28.421875 74.21875 
Q 39.75 74.21875 46.484375 68.546875 
Q 53.21875 62.890625 53.21875 53.421875 
Q 53.21875 48.921875 51.53125 44.890625 
Q 49.859375 40.875 45.40625 35.40625 
Q 44.1875 33.984375 37.640625 27.21875 
Q 31.109375 20.453125 19.1875 8.296875 
z
" id="DejaVuSans-50"/>
      </defs>
      <g transform="translate(113.93875 322.182437)scale(0.1 -0.1)">
       <use xlink:href="#DejaVuSans-50"/>
      </g>
     </g>
    </g>
    <g id="xtick_3">
     <g id="line2d_3">
      <g>
       <use style="stroke:#000000;stroke-width:0.8;" x="160.407273" xlink:href="#madae8ad690" y="307.584"/>
      </g>
     </g>
     <g id="text_3">
      <!-- 4 -->
      <defs>
       <path d="M 37.796875 64.3125 
L 12.890625 25.390625 
L 37.796875 25.390625 
z
M 35.203125 72.90625 
L 47.609375 72.90625 
L 47.609375 25.390625 
L 58.015625 25.390625 
L 58.015625 17.1875 
L 47.609375 17.1875 
L 47.609375 0 
L 37.796875 0 
L 37.796875 17.1875 
L 4.890625 17.1875 
L 4.890625 26.703125 
z
" id="DejaVuSans-52"/>
      </defs>
      <g transform="translate(157.226023 322.182437)scale(0.1 -0.1)">
       <use xlink:href="#DejaVuSans-52"/>
      </g>
     </g>
    </g>
    <g id="xtick_4">
     <g id="line2d_4">
      <g>
       <use style="stroke:#000000;stroke-width:0.8;" x="203.694545" xlink:href="#madae8ad690" y="307.584"/>
      </g>
     </g>
     <g id="text_4">
      <!-- 6 -->
      <defs>
       <path d="M 33.015625 40.375 
Q 26.375 40.375 22.484375 35.828125 
Q 18.609375 31.296875 18.609375 23.390625 
Q 18.609375 15.53125 22.484375 10.953125 
Q 26.375 6.390625 33.015625 6.390625 
Q 39.65625 6.390625 43.53125 10.953125 
Q 47.40625 15.53125 47.40625 23.390625 
Q 47.40625 31.296875 43.53125 35.828125 
Q 39.65625 40.375 33.015625 40.375 
z
M 52.59375 71.296875 
L 52.59375 62.3125 
Q 48.875 64.0625 45.09375 64.984375 
Q 41.3125 65.921875 37.59375 65.921875 
Q 27.828125 65.921875 22.671875 59.328125 
Q 17.53125 52.734375 16.796875 39.40625 
Q 19.671875 43.65625 24.015625 45.921875 
Q 28.375 48.1875 33.59375 48.1875 
Q 44.578125 48.1875 50.953125 41.515625 
Q 57.328125 34.859375 57.328125 23.390625 
Q 57.328125 12.15625 50.6875 5.359375 
Q 44.046875 -1.421875 33.015625 -1.421875 
Q 20.359375 -1.421875 13.671875 8.265625 
Q 6.984375 17.96875 6.984375 36.375 
Q 6.984375 53.65625 15.1875 63.9375 
Q 23.390625 74.21875 37.203125 74.21875 
Q 40.921875 74.21875 44.703125 73.484375 
Q 48.484375 72.75 52.59375 71.296875 
z
" id="DejaVuSans-54"/>
      </defs>
      <g transform="translate(200.513295 322.182437)scale(0.1 -0.1)">
       <use xlink:href="#DejaVuSans-54"/>
      </g>
     </g>
    </g>
    <g id="xtick_5">
     <g id="line2d_5">
      <g>
       <use style="stroke:#000000;stroke-width:0.8;" x="246.981818" xlink:href="#madae8ad690" y="307.584"/>
      </g>
     </g>
     <g id="text_5">
      <!-- 8 -->
      <defs>
       <path d="M 31.78125 34.625 
Q 24.75 34.625 20.71875 30.859375 
Q 16.703125 27.09375 16.703125 20.515625 
Q 16.703125 13.921875 20.71875 10.15625 
Q 24.75 6.390625 31.78125 6.390625 
Q 38.8125 6.390625 42.859375 10.171875 
Q 46.921875 13.96875 46.921875 20.515625 
Q 46.921875 27.09375 42.890625 30.859375 
Q 38.875 34.625 31.78125 34.625 
z
M 21.921875 38.8125 
Q 15.578125 40.375 12.03125 44.71875 
Q 8.5 49.078125 8.5 55.328125 
Q 8.5 64.0625 14.71875 69.140625 
Q 20.953125 74.21875 31.78125 74.21875 
Q 42.671875 74.21875 48.875 69.140625 
Q 55.078125 64.0625 55.078125 55.328125 
Q 55.078125 49.078125 51.53125 44.71875 
Q 48 40.375 41.703125 38.8125 
Q 48.828125 37.15625 52.796875 32.3125 
Q 56.78125 27.484375 56.78125 20.515625 
Q 56.78125 9.90625 50.3125 4.234375 
Q 43.84375 -1.421875 31.78125 -1.421875 
Q 19.734375 -1.421875 13.25 4.234375 
Q 6.78125 9.90625 6.78125 20.515625 
Q 6.78125 27.484375 10.78125 32.3125 
Q 14.796875 37.15625 21.921875 38.8125 
z
M 18.3125 54.390625 
Q 18.3125 48.734375 21.84375 45.5625 
Q 25.390625 42.390625 31.78125 42.390625 
Q 38.140625 42.390625 41.71875 45.5625 
Q 45.3125 48.734375 45.3125 54.390625 
Q 45.3125 60.0625 41.71875 63.234375 
Q 38.140625 66.40625 31.78125 66.40625 
Q 25.390625 66.40625 21.84375 63.234375 
Q 18.3125 60.0625 18.3125 54.390625 
z
" id="DejaVuSans-56"/>
      </defs>
      <g transform="translate(243.800568 322.182437)scale(0.1 -0.1)">
       <use xlink:href="#DejaVuSans-56"/>
      </g>
     </g>
    </g>
    <g id="xtick_6">
     <g id="line2d_6">
      <g>
       <use style="stroke:#000000;stroke-width:0.8;" x="290.269091" xlink:href="#madae8ad690" y="307.584"/>
      </g>
     </g>
     <g id="text_6">
      <!-- 10 -->
      <defs>
       <path d="M 12.40625 8.296875 
L 28.515625 8.296875 
L 28.515625 63.921875 
L 10.984375 60.40625 
L 10.984375 69.390625 
L 28.421875 72.90625 
L 38.28125 72.90625 
L 38.28125 8.296875 
L 54.390625 8.296875 
L 54.390625 0 
L 12.40625 0 
z
" id="DejaVuSans-49"/>
      </defs>
      <g transform="translate(283.906591 322.182437)scale(0.1 -0.1)">
       <use xlink:href="#DejaVuSans-49"/>
       <use x="63.623047" xlink:href="#DejaVuSans-48"/>
      </g>
     </g>
    </g>
    <g id="xtick_7">
     <g id="line2d_7">
      <g>
       <use style="stroke:#000000;stroke-width:0.8;" x="333.556364" xlink:href="#madae8ad690" y="307.584"/>
      </g>
     </g>
     <g id="text_7">
      <!-- 12 -->
      <g transform="translate(327.193864 322.182437)scale(0.1 -0.1)">
       <use xlink:href="#DejaVuSans-49"/>
       <use x="63.623047" xlink:href="#DejaVuSans-50"/>
      </g>
     </g>
    </g>
    <g id="xtick_8">
     <g id="line2d_8">
      <g>
       <use style="stroke:#000000;stroke-width:0.8;" x="376.843636" xlink:href="#madae8ad690" y="307.584"/>
      </g>
     </g>
     <g id="text_8">
      <!-- 14 -->
      <g transform="translate(370.481136 322.182437)scale(0.1 -0.1)">
       <use xlink:href="#DejaVuSans-49"/>
       <use x="63.623047" xlink:href="#DejaVuSans-52"/>
      </g>
     </g>
    </g>
    <g id="text_9">
     <!-- Generations -->
     <defs>
      <path d="M 59.515625 10.40625 
L 59.515625 29.984375 
L 43.40625 29.984375 
L 43.40625 38.09375 
L 69.28125 38.09375 
L 69.28125 6.78125 
Q 63.578125 2.734375 56.6875 0.65625 
Q 49.8125 -1.421875 42 -1.421875 
Q 24.90625 -1.421875 15.25 8.5625 
Q 5.609375 18.5625 5.609375 36.375 
Q 5.609375 54.25 15.25 64.234375 
Q 24.90625 74.21875 42 74.21875 
Q 49.125 74.21875 55.546875 72.453125 
Q 61.96875 70.703125 67.390625 67.28125 
L 67.390625 56.78125 
Q 61.921875 61.421875 55.765625 63.765625 
Q 49.609375 66.109375 42.828125 66.109375 
Q 29.4375 66.109375 22.71875 58.640625 
Q 16.015625 51.171875 16.015625 36.375 
Q 16.015625 21.625 22.71875 14.15625 
Q 29.4375 6.6875 42.828125 6.6875 
Q 48.046875 6.6875 52.140625 7.59375 
Q 56.25 8.5 59.515625 10.40625 
z
" id="DejaVuSans-71"/>
      <path d="M 56.203125 29.59375 
L 56.203125 25.203125 
L 14.890625 25.203125 
Q 15.484375 15.921875 20.484375 11.0625 
Q 25.484375 6.203125 34.421875 6.203125 
Q 39.59375 6.203125 44.453125 7.46875 
Q 49.3125 8.734375 54.109375 11.28125 
L 54.109375 2.78125 
Q 49.265625 0.734375 44.1875 -0.34375 
Q 39.109375 -1.421875 33.890625 -1.421875 
Q 20.796875 -1.421875 13.15625 6.1875 
Q 5.515625 13.8125 5.515625 26.8125 
Q 5.515625 40.234375 12.765625 48.109375 
Q 20.015625 56 32.328125 56 
Q 43.359375 56 49.78125 48.890625 
Q 56.203125 41.796875 56.203125 29.59375 
z
M 47.21875 32.234375 
Q 47.125 39.59375 43.09375 43.984375 
Q 39.0625 48.390625 32.421875 48.390625 
Q 24.90625 48.390625 20.390625 44.140625 
Q 15.875 39.890625 15.1875 32.171875 
z
" id="DejaVuSans-101"/>
      <path d="M 54.890625 33.015625 
L 54.890625 0 
L 45.90625 0 
L 45.90625 32.71875 
Q 45.90625 40.484375 42.875 44.328125 
Q 39.84375 48.1875 33.796875 48.1875 
Q 26.515625 48.1875 22.3125 43.546875 
Q 18.109375 38.921875 18.109375 30.90625 
L 18.109375 0 
L 9.078125 0 
L 9.078125 54.6875 
L 18.109375 54.6875 
L 18.109375 46.1875 
Q 21.34375 51.125 25.703125 53.5625 
Q 30.078125 56 35.796875 56 
Q 45.21875 56 50.046875 50.171875 
Q 54.890625 44.34375 54.890625 33.015625 
z
" id="DejaVuSans-110"/>
      <path d="M 41.109375 46.296875 
Q 39.59375 47.171875 37.8125 47.578125 
Q 36.03125 48 33.890625 48 
Q 26.265625 48 22.1875 43.046875 
Q 18.109375 38.09375 18.109375 28.8125 
L 18.109375 0 
L 9.078125 0 
L 9.078125 54.6875 
L 18.109375 54.6875 
L 18.109375 46.1875 
Q 20.953125 51.171875 25.484375 53.578125 
Q 30.03125 56 36.53125 56 
Q 37.453125 56 38.578125 55.875 
Q 39.703125 55.765625 41.0625 55.515625 
z
" id="DejaVuSans-114"/>
      <path d="M 34.28125 27.484375 
Q 23.390625 27.484375 19.1875 25 
Q 14.984375 22.515625 14.984375 16.5 
Q 14.984375 11.71875 18.140625 8.90625 
Q 21.296875 6.109375 26.703125 6.109375 
Q 34.1875 6.109375 38.703125 11.40625 
Q 43.21875 16.703125 43.21875 25.484375 
L 43.21875 27.484375 
z
M 52.203125 31.203125 
L 52.203125 0 
L 43.21875 0 
L 43.21875 8.296875 
Q 40.140625 3.328125 35.546875 0.953125 
Q 30.953125 -1.421875 24.3125 -1.421875 
Q 15.921875 -1.421875 10.953125 3.296875 
Q 6 8.015625 6 15.921875 
Q 6 25.140625 12.171875 29.828125 
Q 18.359375 34.515625 30.609375 34.515625 
L 43.21875 34.515625 
L 43.21875 35.40625 
Q 43.21875 41.609375 39.140625 45 
Q 35.0625 48.390625 27.6875 48.390625 
Q 23 48.390625 18.546875 47.265625 
Q 14.109375 46.140625 10.015625 43.890625 
L 10.015625 52.203125 
Q 14.9375 54.109375 19.578125 55.046875 
Q 24.21875 56 28.609375 56 
Q 40.484375 56 46.34375 49.84375 
Q 52.203125 43.703125 52.203125 31.203125 
z
" id="DejaVuSans-97"/>
      <path d="M 18.3125 70.21875 
L 18.3125 54.6875 
L 36.8125 54.6875 
L 36.8125 47.703125 
L 18.3125 47.703125 
L 18.3125 18.015625 
Q 18.3125 11.328125 20.140625 9.421875 
Q 21.96875 7.515625 27.59375 7.515625 
L 36.8125 7.515625 
L 36.8125 0 
L 27.59375 0 
Q 17.1875 0 13.234375 3.875 
Q 9.28125 7.765625 9.28125 18.015625 
L 9.28125 47.703125 
L 2.6875 47.703125 
L 2.6875 54.6875 
L 9.28125 54.6875 
L 9.28125 70.21875 
z
" id="DejaVuSans-116"/>
      <path d="M 9.421875 54.6875 
L 18.40625 54.6875 
L 18.40625 0 
L 9.421875 0 
z
M 9.421875 75.984375 
L 18.40625 75.984375 
L 18.40625 64.59375 
L 9.421875 64.59375 
z
" id="DejaVuSans-105"/>
      <path d="M 30.609375 48.390625 
Q 23.390625 48.390625 19.1875 42.75 
Q 14.984375 37.109375 14.984375 27.296875 
Q 14.984375 17.484375 19.15625 11.84375 
Q 23.34375 6.203125 30.609375 6.203125 
Q 37.796875 6.203125 41.984375 11.859375 
Q 46.1875 17.53125 46.1875 27.296875 
Q 46.1875 37.015625 41.984375 42.703125 
Q 37.796875 48.390625 30.609375 48.390625 
z
M 30.609375 56 
Q 42.328125 56 49.015625 48.375 
Q 55.71875 40.765625 55.71875 27.296875 
Q 55.71875 13.875 49.015625 6.21875 
Q 42.328125 -1.421875 30.609375 -1.421875 
Q 18.84375 -1.421875 12.171875 6.21875 
Q 5.515625 13.875 5.515625 27.296875 
Q 5.515625 40.765625 12.171875 48.375 
Q 18.84375 56 30.609375 56 
z
" id="DejaVuSans-111"/>
      <path d="M 44.28125 53.078125 
L 44.28125 44.578125 
Q 40.484375 46.53125 36.375 47.5 
Q 32.28125 48.484375 27.875 48.484375 
Q 21.1875 48.484375 17.84375 46.4375 
Q 14.5 44.390625 14.5 40.28125 
Q 14.5 37.15625 16.890625 35.375 
Q 19.28125 33.59375 26.515625 31.984375 
L 29.59375 31.296875 
Q 39.15625 29.25 43.1875 25.515625 
Q 47.21875 21.78125 47.21875 15.09375 
Q 47.21875 7.46875 41.1875 3.015625 
Q 35.15625 -1.421875 24.609375 -1.421875 
Q 20.21875 -1.421875 15.453125 -0.5625 
Q 10.6875 0.296875 5.421875 2 
L 5.421875 11.28125 
Q 10.40625 8.6875 15.234375 7.390625 
Q 20.0625 6.109375 24.8125 6.109375 
Q 31.15625 6.109375 34.5625 8.28125 
Q 37.984375 10.453125 37.984375 14.40625 
Q 37.984375 18.0625 35.515625 20.015625 
Q 33.0625 21.96875 24.703125 23.78125 
L 21.578125 24.515625 
Q 13.234375 26.265625 9.515625 29.90625 
Q 5.8125 33.546875 5.8125 39.890625 
Q 5.8125 47.609375 11.28125 51.796875 
Q 16.75 56 26.8125 56 
Q 31.78125 56 36.171875 55.265625 
Q 40.578125 54.546875 44.28125 53.078125 
z
" id="DejaVuSans-115"/>
     </defs>
     <g transform="translate(205.662344 335.860562)scale(0.1 -0.1)">
      <use xlink:href="#DejaVuSans-71"/>
      <use x="77.490234" xlink:href="#DejaVuSans-101"/>
      <use x="139.013672" xlink:href="#DejaVuSans-110"/>
      <use x="202.392578" xlink:href="#DejaVuSans-101"/>
      <use x="263.916016" xlink:href="#DejaVuSans-114"/>
      <use x="305.029297" xlink:href="#DejaVuSans-97"/>
      <use x="366.308594" xlink:href="#DejaVuSans-116"/>
      <use x="405.517578" xlink:href="#DejaVuSans-105"/>
      <use x="433.300781" xlink:href="#DejaVuSans-111"/>
      <use x="494.482422" xlink:href="#DejaVuSans-110"/>
      <use x="557.861328" xlink:href="#DejaVuSans-115"/>
     </g>
    </g>
   </g>
   <g id="matplotlib.axis_2">
    <g id="ytick_1">
     <g id="line2d_9">
      <defs>
       <path d="M 0 0 
L -3.5 0 
" id="mfaf4c3c819" style="stroke:#000000;stroke-width:0.8;"/>
      </defs>
      <g>
       <use style="stroke:#000000;stroke-width:0.8;" x="57.6" xlink:href="#mfaf4c3c819" y="307.584"/>
      </g>
     </g>
     <g id="text_10">
      <!-- 0 -->
      <g transform="translate(44.2375 311.383219)scale(0.1 -0.1)">
       <use xlink:href="#DejaVuSans-48"/>
      </g>
     </g>
    </g>
    <g id="ytick_2">
     <g id="line2d_10">
      <g>
       <use style="stroke:#000000;stroke-width:0.8;" x="57.6" xlink:href="#mfaf4c3c819" y="257.497043"/>
      </g>
     </g>
     <g id="text_11">
      <!-- 50 -->
      <defs>
       <path d="M 10.796875 72.90625 
L 49.515625 72.90625 
L 49.515625 64.59375 
L 19.828125 64.59375 
L 19.828125 46.734375 
Q 21.96875 47.46875 24.109375 47.828125 
Q 26.265625 48.1875 28.421875 48.1875 
Q 40.625 48.1875 47.75 41.5 
Q 54.890625 34.8125 54.890625 23.390625 
Q 54.890625 11.625 47.5625 5.09375 
Q 40.234375 -1.421875 26.90625 -1.421875 
Q 22.3125 -1.421875 17.546875 -0.640625 
Q 12.796875 0.140625 7.71875 1.703125 
L 7.71875 11.625 
Q 12.109375 9.234375 16.796875 8.0625 
Q 21.484375 6.890625 26.703125 6.890625 
Q 35.15625 6.890625 40.078125 11.328125 
Q 45.015625 15.765625 45.015625 23.390625 
Q 45.015625 31 40.078125 35.4375 
Q 35.15625 39.890625 26.703125 39.890625 
Q 22.75 39.890625 18.8125 39.015625 
Q 14.890625 38.140625 10.796875 36.28125 
z
" id="DejaVuSans-53"/>
      </defs>
      <g transform="translate(37.875 261.296262)scale(0.1 -0.1)">
       <use xlink:href="#DejaVuSans-53"/>
       <use x="63.623047" xlink:href="#DejaVuSans-48"/>
      </g>
     </g>
    </g>
    <g id="ytick_3">
     <g id="line2d_11">
      <g>
       <use style="stroke:#000000;stroke-width:0.8;" x="57.6" xlink:href="#mfaf4c3c819" y="207.410087"/>
      </g>
     </g>
     <g id="text_12">
      <!-- 100 -->
      <g transform="translate(31.5125 211.209306)scale(0.1 -0.1)">
       <use xlink:href="#DejaVuSans-49"/>
       <use x="63.623047" xlink:href="#DejaVuSans-48"/>
       <use x="127.246094" xlink:href="#DejaVuSans-48"/>
      </g>
     </g>
    </g>
    <g id="ytick_4">
     <g id="line2d_12">
      <g>
       <use style="stroke:#000000;stroke-width:0.8;" x="57.6" xlink:href="#mfaf4c3c819" y="157.32313"/>
      </g>
     </g>
     <g id="text_13">
      <!-- 150 -->
      <g transform="translate(31.5125 161.122349)scale(0.1 -0.1)">
       <use xlink:href="#DejaVuSans-49"/>
       <use x="63.623047" xlink:href="#DejaVuSans-53"/>
       <use x="127.246094" xlink:href="#DejaVuSans-48"/>
      </g>
     </g>
    </g>
    <g id="ytick_5">
     <g id="line2d_13">
      <g>
       <use style="stroke:#000000;stroke-width:0.8;" x="57.6" xlink:href="#mfaf4c3c819" y="107.236174"/>
      </g>
     </g>
     <g id="text_14">
      <!-- 200 -->
      <g transform="translate(31.5125 111.035393)scale(0.1 -0.1)">
       <use xlink:href="#DejaVuSans-50"/>
       <use x="63.623047" xlink:href="#DejaVuSans-48"/>
       <use x="127.246094" xlink:href="#DejaVuSans-48"/>
      </g>
     </g>
    </g>
    <g id="ytick_6">
     <g id="line2d_14">
      <g>
       <use style="stroke:#000000;stroke-width:0.8;" x="57.6" xlink:href="#mfaf4c3c819" y="57.149217"/>
      </g>
     </g>
     <g id="text_15">
      <!-- 250 -->
      <g transform="translate(31.5125 60.948436)scale(0.1 -0.1)">
       <use xlink:href="#DejaVuSans-50"/>
       <use x="63.623047" xlink:href="#DejaVuSans-53"/>
       <use x="127.246094" xlink:href="#DejaVuSans-48"/>
      </g>
     </g>
    </g>
    <g id="text_16">
     <!-- Size per Species -->
     <defs>
      <path d="M 53.515625 70.515625 
L 53.515625 60.890625 
Q 47.90625 63.578125 42.921875 64.890625 
Q 37.9375 66.21875 33.296875 66.21875 
Q 25.25 66.21875 20.875 63.09375 
Q 16.5 59.96875 16.5 54.203125 
Q 16.5 49.359375 19.40625 46.890625 
Q 22.3125 44.4375 30.421875 42.921875 
L 36.375 41.703125 
Q 47.40625 39.59375 52.65625 34.296875 
Q 57.90625 29 57.90625 20.125 
Q 57.90625 9.515625 50.796875 4.046875 
Q 43.703125 -1.421875 29.984375 -1.421875 
Q 24.8125 -1.421875 18.96875 -0.25 
Q 13.140625 0.921875 6.890625 3.21875 
L 6.890625 13.375 
Q 12.890625 10.015625 18.65625 8.296875 
Q 24.421875 6.59375 29.984375 6.59375 
Q 38.421875 6.59375 43.015625 9.90625 
Q 47.609375 13.234375 47.609375 19.390625 
Q 47.609375 24.75 44.3125 27.78125 
Q 41.015625 30.8125 33.5 32.328125 
L 27.484375 33.5 
Q 16.453125 35.6875 11.515625 40.375 
Q 6.59375 45.0625 6.59375 53.421875 
Q 6.59375 63.09375 13.40625 68.65625 
Q 20.21875 74.21875 32.171875 74.21875 
Q 37.3125 74.21875 42.625 73.28125 
Q 47.953125 72.359375 53.515625 70.515625 
z
" id="DejaVuSans-83"/>
      <path d="M 5.515625 54.6875 
L 48.1875 54.6875 
L 48.1875 46.484375 
L 14.40625 7.171875 
L 48.1875 7.171875 
L 48.1875 0 
L 4.296875 0 
L 4.296875 8.203125 
L 38.09375 47.515625 
L 5.515625 47.515625 
z
" id="DejaVuSans-122"/>
      <path id="DejaVuSans-32"/>
      <path d="M 18.109375 8.203125 
L 18.109375 -20.796875 
L 9.078125 -20.796875 
L 9.078125 54.6875 
L 18.109375 54.6875 
L 18.109375 46.390625 
Q 20.953125 51.265625 25.265625 53.625 
Q 29.59375 56 35.59375 56 
Q 45.5625 56 51.78125 48.09375 
Q 58.015625 40.1875 58.015625 27.296875 
Q 58.015625 14.40625 51.78125 6.484375 
Q 45.5625 -1.421875 35.59375 -1.421875 
Q 29.59375 -1.421875 25.265625 0.953125 
Q 20.953125 3.328125 18.109375 8.203125 
z
M 48.6875 27.296875 
Q 48.6875 37.203125 44.609375 42.84375 
Q 40.53125 48.484375 33.40625 48.484375 
Q 26.265625 48.484375 22.1875 42.84375 
Q 18.109375 37.203125 18.109375 27.296875 
Q 18.109375 17.390625 22.1875 11.75 
Q 26.265625 6.109375 33.40625 6.109375 
Q 40.53125 6.109375 44.609375 11.75 
Q 48.6875 17.390625 48.6875 27.296875 
z
" id="DejaVuSans-112"/>
      <path d="M 48.78125 52.59375 
L 48.78125 44.1875 
Q 44.96875 46.296875 41.140625 47.34375 
Q 37.3125 48.390625 33.40625 48.390625 
Q 24.65625 48.390625 19.8125 42.84375 
Q 14.984375 37.3125 14.984375 27.296875 
Q 14.984375 17.28125 19.8125 11.734375 
Q 24.65625 6.203125 33.40625 6.203125 
Q 37.3125 6.203125 41.140625 7.25 
Q 44.96875 8.296875 48.78125 10.40625 
L 48.78125 2.09375 
Q 45.015625 0.34375 40.984375 -0.53125 
Q 36.96875 -1.421875 32.421875 -1.421875 
Q 20.0625 -1.421875 12.78125 6.34375 
Q 5.515625 14.109375 5.515625 27.296875 
Q 5.515625 40.671875 12.859375 48.328125 
Q 20.21875 56 33.015625 56 
Q 37.15625 56 41.109375 55.140625 
Q 45.0625 54.296875 48.78125 52.59375 
z
" id="DejaVuSans-99"/>
     </defs>
     <g transform="translate(25.432812 215.520969)rotate(-90)scale(0.1 -0.1)">
      <use xlink:href="#DejaVuSans-83"/>
      <use x="63.476562" xlink:href="#DejaVuSans-105"/>
      <use x="91.259766" xlink:href="#DejaVuSans-122"/>
      <use x="143.75" xlink:href="#DejaVuSans-101"/>
      <use x="205.273438" xlink:href="#DejaVuSans-32"/>
      <use x="237.060547" xlink:href="#DejaVuSans-112"/>
      <use x="300.537109" xlink:href="#DejaVuSans-101"/>
      <use x="362.060547" xlink:href="#DejaVuSans-114"/>
      <use x="403.173828" xlink:href="#DejaVuSans-32"/>
      <use x="434.960938" xlink:href="#DejaVuSans-83"/>
      <use x="498.4375" xlink:href="#DejaVuSans-112"/>
      <use x="561.914062" xlink:href="#DejaVuSans-101"/>
      <use x="623.4375" xlink:href="#DejaVuSans-99"/>
      <use x="678.417969" xlink:href="#DejaVuSans-105"/>
      <use x="706.201172" xlink:href="#DejaVuSans-101"/>
      <use x="767.724609" xlink:href="#DejaVuSans-115"/>
     </g>
    </g>
   </g>
   <g id="patch_3">
    <path d="M 57.6 307.584 
L 57.6 41.472 
" style="fill:none;stroke:#000000;stroke-linecap:square;stroke-linejoin:miter;stroke-width:0.8;"/>
   </g>
   <g id="patch_4">
    <path d="M 414.72 307.584 
L 414.72 41.472 
" style="fill:none;stroke:#000000;stroke-linecap:square;stroke-linejoin:miter;stroke-width:0.8;"/>
   </g>
   <g id="patch_5">
    <path d="M 57.6 307.584 
L 414.72 307.584 
" style="fill:none;stroke:#000000;stroke-linecap:square;stroke-linejoin:miter;stroke-width:0.8;"/>
   </g>
   <g id="patch_6">
    <path d="M 57.6 41.472 
L 414.72 41.472 
" style="fill:none;stroke:#000000;stroke-linecap:square;stroke-linejoin:miter;stroke-width:0.8;"/>
   </g>
   <g id="text_17">
    <!-- Speciation -->
    <g transform="translate(204.714375 35.472)scale(0.12 -0.12)">
     <use xlink:href="#DejaVuSans-83"/>
     <use x="63.476562" xlink:href="#DejaVuSans-112"/>
     <use x="126.953125" xlink:href="#DejaVuSans-101"/>
     <use x="188.476562" xlink:href="#DejaVuSans-99"/>
     <use x="243.457031" xlink:href="#DejaVuSans-105"/>
     <use x="271.240234" xlink:href="#DejaVuSans-97"/>
     <use x="332.519531" xlink:href="#DejaVuSans-116"/>
     <use x="371.728516" xlink:href="#DejaVuSans-105"/>
     <use x="399.511719" xlink:href="#DejaVuSans-111"/>
     <use x="460.693359" xlink:href="#DejaVuSans-110"/>
    </g>
   </g>
  </g>
 </g>
 <defs>
  <clipPath id="p45a9db5624">
   <rect height="266.112" width="357.12" x="57.6" y="41.472"/>
  </clipPath>
 </defs>
</svg>
