<?xml version="1.0" encoding="UTF-8" standalone="no"?>
<!DOCTYPE svg PUBLIC "-//W3C//DTD SVG 1.1//EN"
 "http://www.w3.org/Graphics/SVG/1.1/DTD/svg11.dtd">
<!-- Generated by graphviz version 2.38.0 (20140413.2041)
 -->
<!-- Title: %3 Pages: 1 -->
<svg width="247pt" height="273pt"
 viewBox="0.00 0.00 247.06 272.59" xmlns="http://www.w3.org/2000/svg" xmlns:xlink="http://www.w3.org/1999/xlink">
<g id="graph0" class="graph" transform="scale(1 1) rotate(0) translate(4 268.593)">
<title>%3</title>
<polygon fill="white" stroke="none" points="-4,4 -4,-268.593 243.061,-268.593 243.061,4 -4,4"/>
<!-- x -->
<g id="node1" class="node"><title>x</title>
<polygon fill="lightgray" stroke="black" points="67.5607,-264.593 47.5607,-264.593 47.5607,-246.593 67.5607,-246.593 67.5607,-264.593"/>
<text text-anchor="middle" x="57.5607" y="-253.393" font-family="Times New Roman,serif" font-size="9.00">x</text>
</g>
<!-- 345 -->
<g id="node6" class="node"><title>345</title>
<ellipse fill="white" stroke="black" cx="38.5607" cy="-180.894" rx="21.4286" ry="21.4286"/>
<text text-anchor="middle" x="38.5607" y="-178.694" font-family="Times New Roman,serif" font-size="9.00">345</text>
</g>
<!-- x&#45;&gt;345 -->
<g id="edge3" class="edge"><title>x&#45;&gt;345</title>
<path fill="none" stroke="red" stroke-width="1.2922" d="M55.4548,-246.535C53.2438,-238.076 49.6346,-224.266 46.3187,-211.578"/>
<polygon fill="red" stroke="red" stroke-width="1.2922" points="49.6694,-210.557 43.7545,-201.767 42.8969,-212.327 49.6694,-210.557"/>
</g>
<!-- 2 -->
<g id="node7" class="node"><title>2</title>
<ellipse fill="white" stroke="black" cx="38.5607" cy="-14.8492" rx="14.7" ry="14.7"/>
<text text-anchor="middle" x="38.5607" y="-12.6492" font-family="Times New Roman,serif" font-size="9.00">2</text>
</g>
<!-- x&#45;&gt;2 -->
<g id="edge1" class="edge"><title>x&#45;&gt;2</title>
<path fill="none" stroke="green" stroke-width="0.109672" stroke-dasharray="1,5" d="M60.3156,-246.44C68.8897,-219.77 93.3177,-132.969 72.5607,-65.6985 69.0029,-54.1682 61.7633,-42.9217 54.8754,-34.0381"/>
<polygon fill="green" stroke="green" stroke-width="0.109672" points="57.5708,-31.8054 48.511,-26.3126 52.1681,-36.2563 57.5708,-31.8054"/>
</g>
<!-- dx -->
<g id="node2" class="node"><title>dx</title>
<polygon fill="lightgray" stroke="black" points="129.061,-264.593 104.061,-264.593 104.061,-246.593 129.061,-246.593 129.061,-264.593"/>
<text text-anchor="middle" x="116.561" y="-253.393" font-family="Times New Roman,serif" font-size="9.00">dx</text>
</g>
<!-- control -->
<g id="node5" class="node"><title>control</title>
<ellipse fill="lightblue" stroke="black" cx="164.561" cy="-180.894" rx="29.8983" ry="29.8983"/>
<text text-anchor="middle" x="164.561" y="-178.694" font-family="Times New Roman,serif" font-size="9.00">control</text>
</g>
<!-- dx&#45;&gt;control -->
<g id="edge8" class="edge"><title>dx&#45;&gt;control</title>
<path fill="none" stroke="green" stroke-width="0.432472" d="M121.881,-246.535C127.027,-238.741 135.172,-226.406 142.973,-214.59"/>
<polygon fill="green" stroke="green" stroke-width="0.432472" points="145.956,-216.425 148.545,-206.151 140.114,-212.568 145.956,-216.425"/>
</g>
<!-- theta -->
<g id="node3" class="node"><title>theta</title>
<polygon fill="lightgray" stroke="black" points="182.061,-264.593 147.061,-264.593 147.061,-246.593 182.061,-246.593 182.061,-264.593"/>
<text text-anchor="middle" x="164.561" y="-253.393" font-family="Times New Roman,serif" font-size="9.00">theta</text>
</g>
<!-- theta&#45;&gt;control -->
<g id="edge2" class="edge"><title>theta&#45;&gt;control</title>
<path fill="none" stroke="green" stroke-width="0.320106" d="M164.561,-246.535C164.561,-240.115 164.561,-230.613 164.561,-220.858"/>
<polygon fill="green" stroke="green" stroke-width="0.320106" points="168.061,-220.72 164.561,-210.72 161.061,-220.72 168.061,-220.72"/>
</g>
<!-- dtheta -->
<g id="node4" class="node"><title>dtheta</title>
<polygon fill="lightgray" stroke="black" points="239.061,-264.593 200.061,-264.593 200.061,-246.593 239.061,-246.593 239.061,-264.593"/>
<text text-anchor="middle" x="219.561" y="-253.393" font-family="Times New Roman,serif" font-size="9.00">dtheta</text>
</g>
<!-- dtheta&#45;&gt;control -->
<g id="edge5" class="edge"><title>dtheta&#45;&gt;control</title>
<path fill="none" stroke="green" stroke-width="0.825467" d="M213.465,-246.535C207.374,-238.485 197.619,-225.591 188.418,-213.428"/>
<polygon fill="green" stroke="green" stroke-width="0.825467" points="191.012,-211.057 182.188,-205.194 185.43,-215.28 191.012,-211.057"/>
</g>
<!-- 345&#45;&gt;2 -->
<g id="edge4" class="edge"><title>345&#45;&gt;2</title>
<path fill="none" stroke="green" stroke-width="0.193823" stroke-dasharray="1,5" d="M26.7365,-162.972C18.7259,-150.429 8.84696,-132.566 4.56068,-115.196 -0.709636,-93.8377 -1.92552,-86.7194 4.56068,-65.6985 8.11847,-54.1682 15.3581,-42.9217 22.246,-34.0381"/>
<polygon fill="green" stroke="green" stroke-width="0.193823" points="24.9533,-36.2563 28.6104,-26.3126 19.5506,-31.8054 24.9533,-36.2563"/>
</g>
<!-- 1173 -->
<g id="node8" class="node"><title>1173</title>
<ellipse fill="white" stroke="black" cx="38.5607" cy="-90.4472" rx="25" ry="25"/>
<text text-anchor="middle" x="38.5607" y="-88.2472" font-family="Times New Roman,serif" font-size="9.00">1173</text>
</g>
<!-- 345&#45;&gt;1173 -->
<g id="edge6" class="edge"><title>345&#45;&gt;1173</title>
<path fill="none" stroke="green" stroke-width="0.254796" d="M38.5607,-159.381C38.5607,-149.3 38.5607,-136.886 38.5607,-125.44"/>
<polygon fill="green" stroke="green" stroke-width="0.254796" points="42.0608,-125.295 38.5607,-115.295 35.0608,-125.295 42.0608,-125.295"/>
</g>
<!-- 1173&#45;&gt;2 -->
<g id="edge7" class="edge"><title>1173&#45;&gt;2</title>
<path fill="none" stroke="red" stroke-width="0.27217" d="M38.5607,-65.3485C38.5607,-57.1867 38.5607,-48.0749 38.5607,-39.9156"/>
<polygon fill="red" stroke="red" stroke-width="0.27217" points="42.0608,-39.8982 38.5607,-29.8983 35.0608,-39.8983 42.0608,-39.8982"/>
</g>
</g>
</svg>
