<?xml version="1.0" encoding="utf-8" standalone="no"?>
<!DOCTYPE svg PUBLIC "-//W3C//DTD SVG 1.1//EN"
  "http://www.w3.org/Graphics/SVG/1.1/DTD/svg11.dtd">
<!-- Created with matplotlib (https://matplotlib.org/) -->
<svg height="345.6pt" version="1.1" viewBox="0 0 460.8 345.6" width="460.8pt" xmlns="http://www.w3.org/2000/svg" xmlns:xlink="http://www.w3.org/1999/xlink">
 <defs>
  <style type="text/css">
*{stroke-linecap:butt;stroke-linejoin:round;}
  </style>
 </defs>
 <g id="figure_1">
  <g id="patch_1">
   <path d="M 0 345.6 
L 460.8 345.6 
L 460.8 0 
L 0 0 
z
" style="fill:#ffffff;"/>
  </g>
  <g id="axes_1">
   <g id="patch_2">
    <path d="M 57.6 307.584 
L 414.72 307.584 
L 414.72 41.472 
L 57.6 41.472 
z
" style="fill:#ffffff;"/>
   </g>
   <g id="PolyCollection_1">
    <path clip-path="url(#p109e3dfd1a)" d="M 73.832727 229.448348 
L 73.832727 307.584 
L 83.38139 307.584 
L 92.930053 307.584 
L 102.478717 307.584 
L 112.02738 307.584 
L 121.576043 307.584 
L 131.124706 307.584 
L 140.673369 307.584 
L 150.222032 307.584 
L 159.770695 307.584 
L 169.319358 307.584 
L 178.868021 307.584 
L 188.416684 307.584 
L 197.965348 307.584 
L 207.514011 307.584 
L 217.062674 307.584 
L 226.611337 307.584 
L 236.16 307.584 
L 245.708663 307.584 
L 255.257326 307.584 
L 264.805989 307.584 
L 274.354652 307.584 
L 283.903316 307.584 
L 293.451979 307.584 
L 303.000642 307.584 
L 312.549305 307.584 
L 322.097968 307.584 
L 331.646631 307.584 
L 341.195294 307.584 
L 350.743957 307.584 
L 360.29262 307.584 
L 369.841283 307.584 
L 379.389947 307.584 
L 388.93861 307.584 
L 398.487273 307.584 
L 398.487273 307.584 
L 398.487273 307.584 
L 388.93861 307.584 
L 379.389947 307.584 
L 369.841283 305.580522 
L 360.29262 306.582261 
L 350.743957 305.580522 
L 341.195294 305.580522 
L 331.646631 304.578783 
L 322.097968 304.578783 
L 312.549305 303.577043 
L 303.000642 303.577043 
L 293.451979 305.580522 
L 283.903316 291.556174 
L 274.354652 292.557913 
L 264.805989 292.557913 
L 255.257326 293.559652 
L 245.708663 293.559652 
L 236.16 295.56313 
L 226.611337 297.566609 
L 217.062674 300.571826 
L 207.514011 295.56313 
L 197.965348 286.547478 
L 188.416684 291.556174 
L 178.868021 286.547478 
L 169.319358 292.557913 
L 159.770695 296.56487 
L 150.222032 282.540522 
L 140.673369 283.542261 
L 131.124706 293.559652 
L 121.576043 287.549217 
L 112.02738 288.550957 
L 102.478717 294.561391 
L 92.930053 291.556174 
L 83.38139 301.573565 
L 73.832727 229.448348 
z
" style="fill:#1f77b4;"/>
   </g>
   <g id="PolyCollection_2">
    <path clip-path="url(#p109e3dfd1a)" d="M 73.832727 222.436174 
L 73.832727 229.448348 
L 83.38139 301.573565 
L 92.930053 291.556174 
L 102.478717 294.561391 
L 112.02738 288.550957 
L 121.576043 287.549217 
L 131.124706 293.559652 
L 140.673369 283.542261 
L 150.222032 282.540522 
L 159.770695 296.56487 
L 169.319358 292.557913 
L 178.868021 286.547478 
L 188.416684 291.556174 
L 197.965348 286.547478 
L 207.514011 295.56313 
L 217.062674 300.571826 
L 226.611337 297.566609 
L 236.16 295.56313 
L 245.708663 293.559652 
L 255.257326 293.559652 
L 264.805989 292.557913 
L 274.354652 292.557913 
L 283.903316 291.556174 
L 293.451979 305.580522 
L 303.000642 303.577043 
L 312.549305 303.577043 
L 322.097968 304.578783 
L 331.646631 304.578783 
L 341.195294 305.580522 
L 350.743957 305.580522 
L 360.29262 306.582261 
L 369.841283 305.580522 
L 379.389947 307.584 
L 388.93861 307.584 
L 398.487273 307.584 
L 398.487273 255.493565 
L 398.487273 255.493565 
L 388.93861 232.453565 
L 379.389947 218.429217 
L 369.841283 212.418783 
L 360.29262 259.500522 
L 350.743957 292.557913 
L 341.195294 270.519652 
L 331.646631 255.493565 
L 322.097968 281.538783 
L 312.549305 276.530087 
L 303.000642 290.554435 
L 293.451979 289.552696 
L 283.903316 278.533565 
L 274.354652 273.52487 
L 264.805989 273.52487 
L 255.257326 274.526609 
L 245.708663 266.512696 
L 236.16 270.519652 
L 226.611337 275.528348 
L 217.062674 285.545739 
L 207.514011 280.537043 
L 197.965348 266.512696 
L 188.416684 267.514435 
L 178.868021 274.526609 
L 169.319358 270.519652 
L 159.770695 279.535304 
L 150.222032 269.517913 
L 140.673369 273.52487 
L 131.124706 287.549217 
L 121.576043 280.537043 
L 112.02738 281.538783 
L 102.478717 287.549217 
L 92.930053 283.542261 
L 83.38139 294.561391 
L 73.832727 222.436174 
z
" style="fill:#ff7f0e;"/>
   </g>
   <g id="PolyCollection_3">
    <path clip-path="url(#p109e3dfd1a)" d="M 73.832727 163.333565 
L 73.832727 222.436174 
L 83.38139 294.561391 
L 92.930053 283.542261 
L 102.478717 287.549217 
L 112.02738 281.538783 
L 121.576043 280.537043 
L 131.124706 287.549217 
L 140.673369 273.52487 
L 150.222032 269.517913 
L 159.770695 279.535304 
L 169.319358 270.519652 
L 178.868021 274.526609 
L 188.416684 267.514435 
L 197.965348 266.512696 
L 207.514011 280.537043 
L 217.062674 285.545739 
L 226.611337 275.528348 
L 236.16 270.519652 
L 245.708663 266.512696 
L 255.257326 274.526609 
L 264.805989 273.52487 
L 274.354652 273.52487 
L 283.903316 278.533565 
L 293.451979 289.552696 
L 303.000642 290.554435 
L 312.549305 276.530087 
L 322.097968 281.538783 
L 331.646631 255.493565 
L 341.195294 270.519652 
L 350.743957 292.557913 
L 360.29262 259.500522 
L 369.841283 212.418783 
L 379.389947 218.429217 
L 388.93861 232.453565 
L 398.487273 255.493565 
L 398.487273 245.476174 
L 398.487273 245.476174 
L 388.93861 221.434435 
L 379.389947 209.413565 
L 369.841283 196.390957 
L 360.29262 252.488348 
L 350.743957 254.491826 
L 341.195294 244.474435 
L 331.646631 231.451826 
L 322.097968 253.490087 
L 312.549305 255.493565 
L 303.000642 256.495304 
L 293.451979 243.472696 
L 283.903316 241.469217 
L 274.354652 233.455304 
L 264.805989 227.44487 
L 255.257326 239.465739 
L 245.708663 245.476174 
L 236.16 228.446609 
L 226.611337 240.467478 
L 217.062674 237.462261 
L 207.514011 245.476174 
L 197.965348 216.425739 
L 188.416684 216.425739 
L 178.868021 244.474435 
L 169.319358 226.44313 
L 159.770695 222.436174 
L 150.222032 238.464 
L 140.673369 221.434435 
L 131.124706 279.535304 
L 121.576043 263.507478 
L 112.02738 257.497043 
L 102.478717 266.512696 
L 92.930053 263.507478 
L 83.38139 252.488348 
L 73.832727 163.333565 
z
" style="fill:#2ca02c;"/>
   </g>
   <g id="PolyCollection_4">
    <path clip-path="url(#p109e3dfd1a)" d="M 73.832727 115.250087 
L 73.832727 163.333565 
L 83.38139 252.488348 
L 92.930053 263.507478 
L 102.478717 266.512696 
L 112.02738 257.497043 
L 121.576043 263.507478 
L 131.124706 279.535304 
L 140.673369 221.434435 
L 150.222032 238.464 
L 159.770695 222.436174 
L 169.319358 226.44313 
L 178.868021 244.474435 
L 188.416684 216.425739 
L 197.965348 216.425739 
L 207.514011 245.476174 
L 217.062674 237.462261 
L 226.611337 240.467478 
L 236.16 228.446609 
L 245.708663 245.476174 
L 255.257326 239.465739 
L 264.805989 227.44487 
L 274.354652 233.455304 
L 283.903316 241.469217 
L 293.451979 243.472696 
L 303.000642 256.495304 
L 312.549305 255.493565 
L 322.097968 253.490087 
L 331.646631 231.451826 
L 341.195294 244.474435 
L 350.743957 254.491826 
L 360.29262 252.488348 
L 369.841283 196.390957 
L 379.389947 209.413565 
L 388.93861 221.434435 
L 398.487273 245.476174 
L 398.487273 233.455304 
L 398.487273 233.455304 
L 388.93861 209.413565 
L 379.389947 197.392696 
L 369.841283 182.366609 
L 360.29262 185.371826 
L 350.743957 192.384 
L 341.195294 218.429217 
L 331.646631 219.430957 
L 322.097968 214.422261 
L 312.549305 220.432696 
L 303.000642 212.418783 
L 293.451979 210.415304 
L 283.903316 212.418783 
L 274.354652 208.411826 
L 264.805989 207.410087 
L 255.257326 226.44313 
L 245.708663 220.432696 
L 236.16 214.422261 
L 226.611337 229.448348 
L 217.062674 212.418783 
L 207.514011 231.451826 
L 197.965348 207.410087 
L 188.416684 207.410087 
L 178.868021 226.44313 
L 169.319358 201.399652 
L 159.770695 215.424 
L 150.222032 204.40487 
L 140.673369 195.389217 
L 131.124706 264.509217 
L 121.576043 245.476174 
L 112.02738 250.48487 
L 102.478717 264.509217 
L 92.930053 250.48487 
L 83.38139 245.476174 
L 73.832727 115.250087 
z
" style="fill:#d62728;"/>
   </g>
   <g id="PolyCollection_5">
    <path clip-path="url(#p109e3dfd1a)" d="M 73.832727 94.213565 
L 73.832727 115.250087 
L 83.38139 245.476174 
L 92.930053 250.48487 
L 102.478717 264.509217 
L 112.02738 250.48487 
L 121.576043 245.476174 
L 131.124706 264.509217 
L 140.673369 195.389217 
L 150.222032 204.40487 
L 159.770695 215.424 
L 169.319358 201.399652 
L 178.868021 226.44313 
L 188.416684 207.410087 
L 197.965348 207.410087 
L 207.514011 231.451826 
L 217.062674 212.418783 
L 226.611337 229.448348 
L 236.16 214.422261 
L 245.708663 220.432696 
L 255.257326 226.44313 
L 264.805989 207.410087 
L 274.354652 208.411826 
L 283.903316 212.418783 
L 293.451979 210.415304 
L 303.000642 212.418783 
L 312.549305 220.432696 
L 322.097968 214.422261 
L 331.646631 219.430957 
L 341.195294 218.429217 
L 350.743957 192.384 
L 360.29262 185.371826 
L 369.841283 182.366609 
L 379.389947 197.392696 
L 388.93861 209.413565 
L 398.487273 233.455304 
L 398.487273 219.430957 
L 398.487273 219.430957 
L 388.93861 199.396174 
L 379.389947 193.385739 
L 369.841283 174.352696 
L 360.29262 156.321391 
L 350.743957 178.359652 
L 341.195294 192.384 
L 331.646631 205.406609 
L 322.097968 207.410087 
L 312.549305 203.40313 
L 303.000642 198.394435 
L 293.451979 190.380522 
L 283.903316 189.378783 
L 274.354652 181.36487 
L 264.805989 187.375304 
L 255.257326 196.390957 
L 245.708663 197.392696 
L 236.16 196.390957 
L 226.611337 216.425739 
L 217.062674 200.397913 
L 207.514011 221.434435 
L 197.965348 188.377043 
L 188.416684 180.36313 
L 178.868021 190.380522 
L 169.319358 197.392696 
L 159.770695 204.40487 
L 150.222032 197.392696 
L 140.673369 190.380522 
L 131.124706 204.40487 
L 121.576043 179.361391 
L 112.02738 179.361391 
L 102.478717 204.40487 
L 92.930053 188.377043 
L 83.38139 206.408348 
L 73.832727 94.213565 
z
" style="fill:#9467bd;"/>
   </g>
   <g id="PolyCollection_6">
    <path clip-path="url(#p109e3dfd1a)" d="M 73.832727 82.192696 
L 73.832727 94.213565 
L 83.38139 206.408348 
L 92.930053 188.377043 
L 102.478717 204.40487 
L 112.02738 179.361391 
L 121.576043 179.361391 
L 131.124706 204.40487 
L 140.673369 190.380522 
L 150.222032 197.392696 
L 159.770695 204.40487 
L 169.319358 197.392696 
L 178.868021 190.380522 
L 188.416684 180.36313 
L 197.965348 188.377043 
L 207.514011 221.434435 
L 217.062674 200.397913 
L 226.611337 216.425739 
L 236.16 196.390957 
L 245.708663 197.392696 
L 255.257326 196.390957 
L 264.805989 187.375304 
L 274.354652 181.36487 
L 283.903316 189.378783 
L 293.451979 190.380522 
L 303.000642 198.394435 
L 312.549305 203.40313 
L 322.097968 207.410087 
L 331.646631 205.406609 
L 341.195294 192.384 
L 350.743957 178.359652 
L 360.29262 156.321391 
L 369.841283 174.352696 
L 379.389947 193.385739 
L 388.93861 199.396174 
L 398.487273 219.430957 
L 398.487273 190.380522 
L 398.487273 190.380522 
L 388.93861 191.382261 
L 379.389947 180.36313 
L 369.841283 157.32313 
L 360.29262 145.302261 
L 350.743957 165.337043 
L 341.195294 158.32487 
L 331.646631 180.36313 
L 322.097968 185.371826 
L 312.549305 191.382261 
L 303.000642 188.377043 
L 293.451979 163.333565 
L 283.903316 158.32487 
L 274.354652 157.32313 
L 264.805989 168.342261 
L 255.257326 173.350957 
L 245.708663 175.354435 
L 236.16 160.328348 
L 226.611337 200.397913 
L 217.062674 169.344 
L 207.514011 181.36487 
L 197.965348 173.350957 
L 188.416684 155.319652 
L 178.868021 154.317913 
L 169.319358 165.337043 
L 159.770695 158.32487 
L 150.222032 153.316174 
L 140.673369 163.333565 
L 131.124706 189.378783 
L 121.576043 172.349217 
L 112.02738 165.337043 
L 102.478717 171.347478 
L 92.930053 174.352696 
L 83.38139 170.345739 
L 73.832727 82.192696 
z
" style="fill:#8c564b;"/>
   </g>
   <g id="PolyCollection_7">
    <path clip-path="url(#p109e3dfd1a)" d="M 73.832727 76.182261 
L 73.832727 82.192696 
L 83.38139 170.345739 
L 92.930053 174.352696 
L 102.478717 171.347478 
L 112.02738 165.337043 
L 121.576043 172.349217 
L 131.124706 189.378783 
L 140.673369 163.333565 
L 150.222032 153.316174 
L 159.770695 158.32487 
L 169.319358 165.337043 
L 178.868021 154.317913 
L 188.416684 155.319652 
L 197.965348 173.350957 
L 207.514011 181.36487 
L 217.062674 169.344 
L 226.611337 200.397913 
L 236.16 160.328348 
L 245.708663 175.354435 
L 255.257326 173.350957 
L 264.805989 168.342261 
L 274.354652 157.32313 
L 283.903316 158.32487 
L 293.451979 163.333565 
L 303.000642 188.377043 
L 312.549305 191.382261 
L 322.097968 185.371826 
L 331.646631 180.36313 
L 341.195294 158.32487 
L 350.743957 165.337043 
L 360.29262 145.302261 
L 369.841283 157.32313 
L 379.389947 180.36313 
L 388.93861 191.382261 
L 398.487273 190.380522 
L 398.487273 180.36313 
L 398.487273 180.36313 
L 388.93861 147.305739 
L 379.389947 139.291826 
L 369.841283 118.255304 
L 360.29262 135.28487 
L 350.743957 141.295304 
L 341.195294 142.297043 
L 331.646631 154.317913 
L 322.097968 159.326609 
L 312.549305 172.349217 
L 303.000642 168.342261 
L 293.451979 130.276174 
L 283.903316 130.276174 
L 274.354652 149.309217 
L 264.805989 152.314435 
L 255.257326 147.305739 
L 245.708663 149.309217 
L 236.16 143.298783 
L 226.611337 164.335304 
L 217.062674 139.291826 
L 207.514011 165.337043 
L 197.965348 148.307478 
L 188.416684 142.297043 
L 178.868021 150.310957 
L 169.319358 127.270957 
L 159.770695 121.260522 
L 150.222032 127.270957 
L 140.673369 125.267478 
L 131.124706 156.321391 
L 121.576043 143.298783 
L 112.02738 133.281391 
L 102.478717 145.302261 
L 92.930053 150.310957 
L 83.38139 129.274435 
L 73.832727 76.182261 
z
" style="fill:#e377c2;"/>
   </g>
   <g id="PolyCollection_8">
    <path clip-path="url(#p109e3dfd1a)" d="M 73.832727 75.180522 
L 73.832727 76.182261 
L 83.38139 129.274435 
L 92.930053 150.310957 
L 102.478717 145.302261 
L 112.02738 133.281391 
L 121.576043 143.298783 
L 131.124706 156.321391 
L 140.673369 125.267478 
L 150.222032 127.270957 
L 159.770695 121.260522 
L 169.319358 127.270957 
L 178.868021 150.310957 
L 188.416684 142.297043 
L 197.965348 148.307478 
L 207.514011 165.337043 
L 217.062674 139.291826 
L 226.611337 164.335304 
L 236.16 143.298783 
L 245.708663 149.309217 
L 255.257326 147.305739 
L 264.805989 152.314435 
L 274.354652 149.309217 
L 283.903316 130.276174 
L 293.451979 130.276174 
L 303.000642 168.342261 
L 312.549305 172.349217 
L 322.097968 159.326609 
L 331.646631 154.317913 
L 341.195294 142.297043 
L 350.743957 141.295304 
L 360.29262 135.28487 
L 369.841283 118.255304 
L 379.389947 139.291826 
L 388.93861 147.305739 
L 398.487273 180.36313 
L 398.487273 177.357913 
L 398.487273 177.357913 
L 388.93861 143.298783 
L 379.389947 136.286609 
L 369.841283 116.251826 
L 360.29262 133.281391 
L 350.743957 136.286609 
L 341.195294 137.288348 
L 331.646631 150.310957 
L 322.097968 154.317913 
L 312.549305 168.342261 
L 303.000642 165.337043 
L 293.451979 126.269217 
L 283.903316 125.267478 
L 274.354652 146.304 
L 264.805989 148.307478 
L 255.257326 144.300522 
L 245.708663 147.305739 
L 236.16 141.295304 
L 226.611337 160.328348 
L 217.062674 137.288348 
L 207.514011 163.333565 
L 197.965348 146.304 
L 188.416684 139.291826 
L 178.868021 146.304 
L 169.319358 124.265739 
L 159.770695 117.253565 
L 150.222032 124.265739 
L 140.673369 120.258783 
L 131.124706 150.310957 
L 121.576043 138.290087 
L 112.02738 127.270957 
L 102.478717 138.290087 
L 92.930053 144.300522 
L 83.38139 127.270957 
L 73.832727 75.180522 
z
" style="fill:#7f7f7f;"/>
   </g>
   <g id="PolyCollection_9">
    <path clip-path="url(#p109e3dfd1a)" d="M 73.832727 74.178783 
L 73.832727 75.180522 
L 83.38139 127.270957 
L 92.930053 144.300522 
L 102.478717 138.290087 
L 112.02738 127.270957 
L 121.576043 138.290087 
L 131.124706 150.310957 
L 140.673369 120.258783 
L 150.222032 124.265739 
L 159.770695 117.253565 
L 169.319358 124.265739 
L 178.868021 146.304 
L 188.416684 139.291826 
L 197.965348 146.304 
L 207.514011 163.333565 
L 217.062674 137.288348 
L 226.611337 160.328348 
L 236.16 141.295304 
L 245.708663 147.305739 
L 255.257326 144.300522 
L 264.805989 148.307478 
L 274.354652 146.304 
L 283.903316 125.267478 
L 293.451979 126.269217 
L 303.000642 165.337043 
L 312.549305 168.342261 
L 322.097968 154.317913 
L 331.646631 150.310957 
L 341.195294 137.288348 
L 350.743957 136.286609 
L 360.29262 133.281391 
L 369.841283 116.251826 
L 379.389947 136.286609 
L 388.93861 143.298783 
L 398.487273 177.357913 
L 398.487273 171.347478 
L 398.487273 171.347478 
L 388.93861 127.270957 
L 379.389947 125.267478 
L 369.841283 111.24313 
L 360.29262 121.260522 
L 350.743957 119.257043 
L 341.195294 113.246609 
L 331.646631 104.230957 
L 322.097968 118.255304 
L 312.549305 131.277913 
L 303.000642 144.300522 
L 293.451979 114.248348 
L 283.903316 111.24313 
L 274.354652 117.253565 
L 264.805989 132.279652 
L 255.257326 121.260522 
L 245.708663 124.265739 
L 236.16 121.260522 
L 226.611337 125.267478 
L 217.062674 122.262261 
L 207.514011 119.257043 
L 197.965348 125.267478 
L 188.416684 126.269217 
L 178.868021 132.279652 
L 169.319358 121.260522 
L 159.770695 114.248348 
L 150.222032 118.255304 
L 140.673369 116.251826 
L 131.124706 145.302261 
L 121.576043 134.28313 
L 112.02738 122.262261 
L 102.478717 135.28487 
L 92.930053 139.291826 
L 83.38139 121.260522 
L 73.832727 74.178783 
z
" style="fill:#bcbd22;"/>
   </g>
   <g id="PolyCollection_10">
    <path clip-path="url(#p109e3dfd1a)" d="M 73.832727 73.177043 
L 73.832727 74.178783 
L 83.38139 121.260522 
L 92.930053 139.291826 
L 102.478717 135.28487 
L 112.02738 122.262261 
L 121.576043 134.28313 
L 131.124706 145.302261 
L 140.673369 116.251826 
L 150.222032 118.255304 
L 159.770695 114.248348 
L 169.319358 121.260522 
L 178.868021 132.279652 
L 188.416684 126.269217 
L 197.965348 125.267478 
L 207.514011 119.257043 
L 217.062674 122.262261 
L 226.611337 125.267478 
L 236.16 121.260522 
L 245.708663 124.265739 
L 255.257326 121.260522 
L 264.805989 132.279652 
L 274.354652 117.253565 
L 283.903316 111.24313 
L 293.451979 114.248348 
L 303.000642 144.300522 
L 312.549305 131.277913 
L 322.097968 118.255304 
L 331.646631 104.230957 
L 341.195294 113.246609 
L 350.743957 119.257043 
L 360.29262 121.260522 
L 369.841283 111.24313 
L 379.389947 125.267478 
L 388.93861 127.270957 
L 398.487273 171.347478 
L 398.487273 171.347478 
L 398.487273 171.347478 
L 388.93861 127.270957 
L 379.389947 125.267478 
L 369.841283 111.24313 
L 360.29262 121.260522 
L 350.743957 119.257043 
L 341.195294 113.246609 
L 331.646631 104.230957 
L 322.097968 118.255304 
L 312.549305 131.277913 
L 303.000642 144.300522 
L 293.451979 112.24487 
L 283.903316 109.239652 
L 274.354652 115.250087 
L 264.805989 130.276174 
L 255.257326 119.257043 
L 245.708663 121.260522 
L 236.16 117.253565 
L 226.611337 122.262261 
L 217.062674 120.258783 
L 207.514011 117.253565 
L 197.965348 122.262261 
L 188.416684 124.265739 
L 178.868021 130.276174 
L 169.319358 119.257043 
L 159.770695 111.24313 
L 150.222032 117.253565 
L 140.673369 113.246609 
L 131.124706 141.295304 
L 121.576043 128.272696 
L 112.02738 115.250087 
L 102.478717 127.270957 
L 92.930053 129.274435 
L 83.38139 112.24487 
L 73.832727 73.177043 
z
" style="fill:#17becf;"/>
   </g>
   <g id="PolyCollection_11">
    <path clip-path="url(#p109e3dfd1a)" d="M 73.832727 72.175304 
L 73.832727 73.177043 
L 83.38139 112.24487 
L 92.930053 129.274435 
L 102.478717 127.270957 
L 112.02738 115.250087 
L 121.576043 128.272696 
L 131.124706 141.295304 
L 140.673369 113.246609 
L 150.222032 117.253565 
L 159.770695 111.24313 
L 169.319358 119.257043 
L 178.868021 130.276174 
L 188.416684 124.265739 
L 197.965348 122.262261 
L 207.514011 117.253565 
L 217.062674 120.258783 
L 226.611337 122.262261 
L 236.16 117.253565 
L 245.708663 121.260522 
L 255.257326 119.257043 
L 264.805989 130.276174 
L 274.354652 115.250087 
L 283.903316 109.239652 
L 293.451979 112.24487 
L 303.000642 144.300522 
L 312.549305 131.277913 
L 322.097968 118.255304 
L 331.646631 104.230957 
L 341.195294 113.246609 
L 350.743957 119.257043 
L 360.29262 121.260522 
L 369.841283 111.24313 
L 379.389947 125.267478 
L 388.93861 127.270957 
L 398.487273 171.347478 
L 398.487273 171.347478 
L 398.487273 171.347478 
L 388.93861 127.270957 
L 379.389947 125.267478 
L 369.841283 111.24313 
L 360.29262 121.260522 
L 350.743957 119.257043 
L 341.195294 113.246609 
L 331.646631 104.230957 
L 322.097968 118.255304 
L 312.549305 131.277913 
L 303.000642 144.300522 
L 293.451979 109.239652 
L 283.903316 106.234435 
L 274.354652 113.246609 
L 264.805989 127.270957 
L 255.257326 115.250087 
L 245.708663 118.255304 
L 236.16 115.250087 
L 226.611337 119.257043 
L 217.062674 118.255304 
L 207.514011 114.248348 
L 197.965348 120.258783 
L 188.416684 121.260522 
L 178.868021 128.272696 
L 169.319358 117.253565 
L 159.770695 108.237913 
L 150.222032 115.250087 
L 140.673369 110.241391 
L 131.124706 139.291826 
L 121.576043 125.267478 
L 112.02738 109.239652 
L 102.478717 121.260522 
L 92.930053 124.265739 
L 83.38139 111.24313 
L 73.832727 72.175304 
z
" style="fill:#1f77b4;"/>
   </g>
   <g id="PolyCollection_12">
    <path clip-path="url(#p109e3dfd1a)" d="M 73.832727 71.173565 
L 73.832727 72.175304 
L 83.38139 111.24313 
L 92.930053 124.265739 
L 102.478717 121.260522 
L 112.02738 109.239652 
L 121.576043 125.267478 
L 131.124706 139.291826 
L 140.673369 110.241391 
L 150.222032 115.250087 
L 159.770695 108.237913 
L 169.319358 117.253565 
L 178.868021 128.272696 
L 188.416684 121.260522 
L 197.965348 120.258783 
L 207.514011 114.248348 
L 217.062674 118.255304 
L 226.611337 119.257043 
L 236.16 115.250087 
L 245.708663 118.255304 
L 255.257326 115.250087 
L 264.805989 127.270957 
L 274.354652 113.246609 
L 283.903316 106.234435 
L 293.451979 109.239652 
L 303.000642 144.300522 
L 312.549305 131.277913 
L 322.097968 118.255304 
L 331.646631 104.230957 
L 341.195294 113.246609 
L 350.743957 119.257043 
L 360.29262 121.260522 
L 369.841283 111.24313 
L 379.389947 125.267478 
L 388.93861 127.270957 
L 398.487273 171.347478 
L 398.487273 129.274435 
L 398.487273 129.274435 
L 388.93861 112.24487 
L 379.389947 111.24313 
L 369.841283 95.215304 
L 360.29262 109.239652 
L 350.743957 103.229217 
L 341.195294 95.215304 
L 331.646631 91.208348 
L 322.097968 102.227478 
L 312.549305 112.24487 
L 303.000642 118.255304 
L 293.451979 96.217043 
L 283.903316 95.215304 
L 274.354652 105.232696 
L 264.805989 112.24487 
L 255.257326 105.232696 
L 245.708663 99.222261 
L 236.16 101.225739 
L 226.611337 105.232696 
L 217.062674 105.232696 
L 207.514011 99.222261 
L 197.965348 101.225739 
L 188.416684 101.225739 
L 178.868021 115.250087 
L 169.319358 99.222261 
L 159.770695 90.206609 
L 150.222032 100.224 
L 140.673369 93.211826 
L 131.124706 122.262261 
L 121.576043 109.239652 
L 112.02738 98.220522 
L 102.478717 111.24313 
L 92.930053 119.257043 
L 83.38139 109.239652 
L 73.832727 71.173565 
z
" style="fill:#ff7f0e;"/>
   </g>
   <g id="PolyCollection_13">
    <path clip-path="url(#p109e3dfd1a)" d="M 73.832727 63.159652 
L 73.832727 71.173565 
L 83.38139 109.239652 
L 92.930053 119.257043 
L 102.478717 111.24313 
L 112.02738 98.220522 
L 121.576043 109.239652 
L 131.124706 122.262261 
L 140.673369 93.211826 
L 150.222032 100.224 
L 159.770695 90.206609 
L 169.319358 99.222261 
L 178.868021 115.250087 
L 188.416684 101.225739 
L 197.965348 101.225739 
L 207.514011 99.222261 
L 217.062674 105.232696 
L 226.611337 105.232696 
L 236.16 101.225739 
L 245.708663 99.222261 
L 255.257326 105.232696 
L 264.805989 112.24487 
L 274.354652 105.232696 
L 283.903316 95.215304 
L 293.451979 96.217043 
L 303.000642 118.255304 
L 312.549305 112.24487 
L 322.097968 102.227478 
L 331.646631 91.208348 
L 341.195294 95.215304 
L 350.743957 103.229217 
L 360.29262 109.239652 
L 369.841283 95.215304 
L 379.389947 111.24313 
L 388.93861 112.24487 
L 398.487273 129.274435 
L 398.487273 129.274435 
L 398.487273 129.274435 
L 388.93861 112.24487 
L 379.389947 111.24313 
L 369.841283 95.215304 
L 360.29262 109.239652 
L 350.743957 103.229217 
L 341.195294 95.215304 
L 331.646631 91.208348 
L 322.097968 91.208348 
L 312.549305 89.20487 
L 303.000642 91.208348 
L 293.451979 86.199652 
L 283.903316 87.201391 
L 274.354652 87.201391 
L 264.805989 87.201391 
L 255.257326 87.201391 
L 245.708663 89.20487 
L 236.16 90.206609 
L 226.611337 89.20487 
L 217.062674 91.208348 
L 207.514011 87.201391 
L 197.965348 80.189217 
L 188.416684 81.190957 
L 178.868021 90.206609 
L 169.319358 88.20313 
L 159.770695 86.199652 
L 150.222032 85.197913 
L 140.673369 91.208348 
L 131.124706 82.192696 
L 121.576043 87.201391 
L 112.02738 86.199652 
L 102.478717 93.211826 
L 92.930053 94.213565 
L 83.38139 97.218783 
L 73.832727 63.159652 
z
" style="fill:#2ca02c;"/>
   </g>
   <g id="PolyCollection_14">
    <path clip-path="url(#p109e3dfd1a)" d="M 73.832727 62.157913 
L 73.832727 63.159652 
L 83.38139 97.218783 
L 92.930053 94.213565 
L 102.478717 93.211826 
L 112.02738 86.199652 
L 121.576043 87.201391 
L 131.124706 82.192696 
L 140.673369 91.208348 
L 150.222032 85.197913 
L 159.770695 86.199652 
L 169.319358 88.20313 
L 178.868021 90.206609 
L 188.416684 81.190957 
L 197.965348 80.189217 
L 207.514011 87.201391 
L 217.062674 91.208348 
L 226.611337 89.20487 
L 236.16 90.206609 
L 245.708663 89.20487 
L 255.257326 87.201391 
L 264.805989 87.201391 
L 274.354652 87.201391 
L 283.903316 87.201391 
L 293.451979 86.199652 
L 303.000642 91.208348 
L 312.549305 89.20487 
L 322.097968 91.208348 
L 331.646631 91.208348 
L 341.195294 95.215304 
L 350.743957 103.229217 
L 360.29262 109.239652 
L 369.841283 95.215304 
L 379.389947 111.24313 
L 388.93861 112.24487 
L 398.487273 129.274435 
L 398.487273 125.267478 
L 398.487273 125.267478 
L 388.93861 107.236174 
L 379.389947 106.234435 
L 369.841283 91.208348 
L 360.29262 103.229217 
L 350.743957 100.224 
L 341.195294 91.208348 
L 331.646631 88.20313 
L 322.097968 87.201391 
L 312.549305 86.199652 
L 303.000642 89.20487 
L 293.451979 83.194435 
L 283.903316 85.197913 
L 274.354652 84.196174 
L 264.805989 85.197913 
L 255.257326 84.196174 
L 245.708663 85.197913 
L 236.16 85.197913 
L 226.611337 85.197913 
L 217.062674 88.20313 
L 207.514011 83.194435 
L 197.965348 77.184 
L 188.416684 79.187478 
L 178.868021 88.20313 
L 169.319358 85.197913 
L 159.770695 83.194435 
L 150.222032 81.190957 
L 140.673369 88.20313 
L 131.124706 80.189217 
L 121.576043 84.196174 
L 112.02738 83.194435 
L 102.478717 88.20313 
L 92.930053 86.199652 
L 83.38139 91.208348 
L 73.832727 62.157913 
z
" style="fill:#d62728;"/>
   </g>
   <g id="PolyCollection_15">
    <path clip-path="url(#p109e3dfd1a)" d="M 73.832727 61.156174 
L 73.832727 62.157913 
L 83.38139 91.208348 
L 92.930053 86.199652 
L 102.478717 88.20313 
L 112.02738 83.194435 
L 121.576043 84.196174 
L 131.124706 80.189217 
L 140.673369 88.20313 
L 150.222032 81.190957 
L 159.770695 83.194435 
L 169.319358 85.197913 
L 178.868021 88.20313 
L 188.416684 79.187478 
L 197.965348 77.184 
L 207.514011 83.194435 
L 217.062674 88.20313 
L 226.611337 85.197913 
L 236.16 85.197913 
L 245.708663 85.197913 
L 255.257326 84.196174 
L 264.805989 85.197913 
L 274.354652 84.196174 
L 283.903316 85.197913 
L 293.451979 83.194435 
L 303.000642 89.20487 
L 312.549305 86.199652 
L 322.097968 87.201391 
L 331.646631 88.20313 
L 341.195294 91.208348 
L 350.743957 100.224 
L 360.29262 103.229217 
L 369.841283 91.208348 
L 379.389947 106.234435 
L 388.93861 107.236174 
L 398.487273 125.267478 
L 398.487273 112.24487 
L 398.487273 112.24487 
L 388.93861 100.224 
L 379.389947 100.224 
L 369.841283 72.175304 
L 360.29262 79.187478 
L 350.743957 77.184 
L 341.195294 82.192696 
L 331.646631 83.194435 
L 322.097968 81.190957 
L 312.549305 81.190957 
L 303.000642 85.197913 
L 293.451979 77.184 
L 283.903316 81.190957 
L 274.354652 79.187478 
L 264.805989 80.189217 
L 255.257326 79.187478 
L 245.708663 81.190957 
L 236.16 83.194435 
L 226.611337 83.194435 
L 217.062674 86.199652 
L 207.514011 80.189217 
L 197.965348 75.180522 
L 188.416684 77.184 
L 178.868021 86.199652 
L 169.319358 82.192696 
L 159.770695 81.190957 
L 150.222032 78.185739 
L 140.673369 85.197913 
L 131.124706 77.184 
L 121.576043 81.190957 
L 112.02738 78.185739 
L 102.478717 83.194435 
L 92.930053 80.189217 
L 83.38139 80.189217 
L 73.832727 61.156174 
z
" style="fill:#9467bd;"/>
   </g>
   <g id="PolyCollection_16">
    <path clip-path="url(#p109e3dfd1a)" d="M 73.832727 60.154435 
L 73.832727 61.156174 
L 83.38139 80.189217 
L 92.930053 80.189217 
L 102.478717 83.194435 
L 112.02738 78.185739 
L 121.576043 81.190957 
L 131.124706 77.184 
L 140.673369 85.197913 
L 150.222032 78.185739 
L 159.770695 81.190957 
L 169.319358 82.192696 
L 178.868021 86.199652 
L 188.416684 77.184 
L 197.965348 75.180522 
L 207.514011 80.189217 
L 217.062674 86.199652 
L 226.611337 83.194435 
L 236.16 83.194435 
L 245.708663 81.190957 
L 255.257326 79.187478 
L 264.805989 80.189217 
L 274.354652 79.187478 
L 283.903316 81.190957 
L 293.451979 77.184 
L 303.000642 85.197913 
L 312.549305 81.190957 
L 322.097968 81.190957 
L 331.646631 83.194435 
L 341.195294 82.192696 
L 350.743957 77.184 
L 360.29262 79.187478 
L 369.841283 72.175304 
L 379.389947 100.224 
L 388.93861 100.224 
L 398.487273 112.24487 
L 398.487273 112.24487 
L 398.487273 112.24487 
L 388.93861 100.224 
L 379.389947 100.224 
L 369.841283 72.175304 
L 360.29262 79.187478 
L 350.743957 77.184 
L 341.195294 82.192696 
L 331.646631 83.194435 
L 322.097968 79.187478 
L 312.549305 78.185739 
L 303.000642 83.194435 
L 293.451979 74.178783 
L 283.903316 79.187478 
L 274.354652 78.185739 
L 264.805989 78.185739 
L 255.257326 77.184 
L 245.708663 79.187478 
L 236.16 80.189217 
L 226.611337 79.187478 
L 217.062674 84.196174 
L 207.514011 77.184 
L 197.965348 71.173565 
L 188.416684 75.180522 
L 178.868021 83.194435 
L 169.319358 80.189217 
L 159.770695 78.185739 
L 150.222032 74.178783 
L 140.673369 82.192696 
L 131.124706 73.177043 
L 121.576043 79.187478 
L 112.02738 75.180522 
L 102.478717 79.187478 
L 92.930053 75.180522 
L 83.38139 73.177043 
L 73.832727 60.154435 
z
" style="fill:#8c564b;"/>
   </g>
   <g id="PolyCollection_17">
    <path clip-path="url(#p109e3dfd1a)" d="M 73.832727 59.152696 
L 73.832727 60.154435 
L 83.38139 73.177043 
L 92.930053 75.180522 
L 102.478717 79.187478 
L 112.02738 75.180522 
L 121.576043 79.187478 
L 131.124706 73.177043 
L 140.673369 82.192696 
L 150.222032 74.178783 
L 159.770695 78.185739 
L 169.319358 80.189217 
L 178.868021 83.194435 
L 188.416684 75.180522 
L 197.965348 71.173565 
L 207.514011 77.184 
L 217.062674 84.196174 
L 226.611337 79.187478 
L 236.16 80.189217 
L 245.708663 79.187478 
L 255.257326 77.184 
L 264.805989 78.185739 
L 274.354652 78.185739 
L 283.903316 79.187478 
L 293.451979 74.178783 
L 303.000642 83.194435 
L 312.549305 78.185739 
L 322.097968 79.187478 
L 331.646631 83.194435 
L 341.195294 82.192696 
L 350.743957 77.184 
L 360.29262 79.187478 
L 369.841283 72.175304 
L 379.389947 100.224 
L 388.93861 100.224 
L 398.487273 112.24487 
L 398.487273 71.173565 
L 398.487273 71.173565 
L 388.93861 71.173565 
L 379.389947 71.173565 
L 369.841283 69.170087 
L 360.29262 75.180522 
L 350.743957 73.177043 
L 341.195294 79.187478 
L 331.646631 79.187478 
L 322.097968 77.184 
L 312.549305 75.180522 
L 303.000642 79.187478 
L 293.451979 72.175304 
L 283.903316 77.184 
L 274.354652 76.182261 
L 264.805989 75.180522 
L 255.257326 75.180522 
L 245.708663 76.182261 
L 236.16 78.185739 
L 226.611337 76.182261 
L 217.062674 82.192696 
L 207.514011 74.178783 
L 197.965348 69.170087 
L 188.416684 73.177043 
L 178.868021 80.189217 
L 169.319358 76.182261 
L 159.770695 75.180522 
L 150.222032 72.175304 
L 140.673369 79.187478 
L 131.124706 69.170087 
L 121.576043 73.177043 
L 112.02738 70.171826 
L 102.478717 74.178783 
L 92.930053 69.170087 
L 83.38139 67.166609 
L 73.832727 59.152696 
z
" style="fill:#e377c2;"/>
   </g>
   <g id="PolyCollection_18">
    <path clip-path="url(#p109e3dfd1a)" d="M 73.832727 58.150957 
L 73.832727 59.152696 
L 83.38139 67.166609 
L 92.930053 69.170087 
L 102.478717 74.178783 
L 112.02738 70.171826 
L 121.576043 73.177043 
L 131.124706 69.170087 
L 140.673369 79.187478 
L 150.222032 72.175304 
L 159.770695 75.180522 
L 169.319358 76.182261 
L 178.868021 80.189217 
L 188.416684 73.177043 
L 197.965348 69.170087 
L 207.514011 74.178783 
L 217.062674 82.192696 
L 226.611337 76.182261 
L 236.16 78.185739 
L 245.708663 76.182261 
L 255.257326 75.180522 
L 264.805989 75.180522 
L 274.354652 76.182261 
L 283.903316 77.184 
L 293.451979 72.175304 
L 303.000642 79.187478 
L 312.549305 75.180522 
L 322.097968 77.184 
L 331.646631 79.187478 
L 341.195294 79.187478 
L 350.743957 73.177043 
L 360.29262 75.180522 
L 369.841283 69.170087 
L 379.389947 71.173565 
L 388.93861 71.173565 
L 398.487273 71.173565 
L 398.487273 59.152696 
L 398.487273 59.152696 
L 388.93861 57.149217 
L 379.389947 58.150957 
L 369.841283 55.145739 
L 360.29262 57.149217 
L 350.743957 58.150957 
L 341.195294 60.154435 
L 331.646631 61.156174 
L 322.097968 60.154435 
L 312.549305 60.154435 
L 303.000642 63.159652 
L 293.451979 56.147478 
L 283.903316 58.150957 
L 274.354652 56.147478 
L 264.805989 56.147478 
L 255.257326 57.149217 
L 245.708663 59.152696 
L 236.16 60.154435 
L 226.611337 59.152696 
L 217.062674 62.157913 
L 207.514011 60.154435 
L 197.965348 57.149217 
L 188.416684 59.152696 
L 178.868021 62.157913 
L 169.319358 62.157913 
L 159.770695 61.156174 
L 150.222032 61.156174 
L 140.673369 61.156174 
L 131.124706 62.157913 
L 121.576043 63.159652 
L 112.02738 61.156174 
L 102.478717 65.16313 
L 92.930053 62.157913 
L 83.38139 62.157913 
L 73.832727 58.150957 
z
" style="fill:#7f7f7f;"/>
   </g>
   <g id="PolyCollection_19">
    <path clip-path="url(#p109e3dfd1a)" d="M 73.832727 57.149217 
L 73.832727 58.150957 
L 83.38139 62.157913 
L 92.930053 62.157913 
L 102.478717 65.16313 
L 112.02738 61.156174 
L 121.576043 63.159652 
L 131.124706 62.157913 
L 140.673369 61.156174 
L 150.222032 61.156174 
L 159.770695 61.156174 
L 169.319358 62.157913 
L 178.868021 62.157913 
L 188.416684 59.152696 
L 197.965348 57.149217 
L 207.514011 60.154435 
L 217.062674 62.157913 
L 226.611337 59.152696 
L 236.16 60.154435 
L 245.708663 59.152696 
L 255.257326 57.149217 
L 264.805989 56.147478 
L 274.354652 56.147478 
L 283.903316 58.150957 
L 293.451979 56.147478 
L 303.000642 63.159652 
L 312.549305 60.154435 
L 322.097968 60.154435 
L 331.646631 61.156174 
L 341.195294 60.154435 
L 350.743957 58.150957 
L 360.29262 57.149217 
L 369.841283 55.145739 
L 379.389947 58.150957 
L 388.93861 57.149217 
L 398.487273 59.152696 
L 398.487273 59.152696 
L 398.487273 59.152696 
L 388.93861 57.149217 
L 379.389947 58.150957 
L 369.841283 55.145739 
L 360.29262 57.149217 
L 350.743957 56.147478 
L 341.195294 57.149217 
L 331.646631 57.149217 
L 322.097968 57.149217 
L 312.549305 56.147478 
L 303.000642 60.154435 
L 293.451979 54.144 
L 283.903316 55.145739 
L 274.354652 54.144 
L 264.805989 54.144 
L 255.257326 54.144 
L 245.708663 55.145739 
L 236.16 57.149217 
L 226.611337 55.145739 
L 217.062674 60.154435 
L 207.514011 58.150957 
L 197.965348 55.145739 
L 188.416684 57.149217 
L 178.868021 60.154435 
L 169.319358 59.152696 
L 159.770695 57.149217 
L 150.222032 56.147478 
L 140.673369 57.149217 
L 131.124706 59.152696 
L 121.576043 59.152696 
L 112.02738 56.147478 
L 102.478717 59.152696 
L 92.930053 55.145739 
L 83.38139 55.145739 
L 73.832727 57.149217 
z
" style="fill:#bcbd22;"/>
   </g>
   <g id="matplotlib.axis_1">
    <g id="xtick_1">
     <g id="line2d_1">
      <defs>
       <path d="M 0 0 
L 0 3.5 
" id="mb6db8162e0" style="stroke:#000000;stroke-width:0.8;"/>
      </defs>
      <g>
       <use style="stroke:#000000;stroke-width:0.8;" x="73.832727" xlink:href="#mb6db8162e0" y="307.584"/>
      </g>
     </g>
     <g id="text_1">
      <!-- 0 -->
      <defs>
       <path d="M 31.78125 66.40625 
Q 24.171875 66.40625 20.328125 58.90625 
Q 16.5 51.421875 16.5 36.375 
Q 16.5 21.390625 20.328125 13.890625 
Q 24.171875 6.390625 31.78125 6.390625 
Q 39.453125 6.390625 43.28125 13.890625 
Q 47.125 21.390625 47.125 36.375 
Q 47.125 51.421875 43.28125 58.90625 
Q 39.453125 66.40625 31.78125 66.40625 
z
M 31.78125 74.21875 
Q 44.046875 74.21875 50.515625 64.515625 
Q 56.984375 54.828125 56.984375 36.375 
Q 56.984375 17.96875 50.515625 8.265625 
Q 44.046875 -1.421875 31.78125 -1.421875 
Q 19.53125 -1.421875 13.0625 8.265625 
Q 6.59375 17.96875 6.59375 36.375 
Q 6.59375 54.828125 13.0625 64.515625 
Q 19.53125 74.21875 31.78125 74.21875 
z
" id="DejaVuSans-48"/>
      </defs>
      <g transform="translate(70.651477 322.182437)scale(0.1 -0.1)">
       <use xlink:href="#DejaVuSans-48"/>
      </g>
     </g>
    </g>
    <g id="xtick_2">
     <g id="line2d_2">
      <g>
       <use style="stroke:#000000;stroke-width:0.8;" x="121.576043" xlink:href="#mb6db8162e0" y="307.584"/>
      </g>
     </g>
     <g id="text_2">
      <!-- 5 -->
      <defs>
       <path d="M 10.796875 72.90625 
L 49.515625 72.90625 
L 49.515625 64.59375 
L 19.828125 64.59375 
L 19.828125 46.734375 
Q 21.96875 47.46875 24.109375 47.828125 
Q 26.265625 48.1875 28.421875 48.1875 
Q 40.625 48.1875 47.75 41.5 
Q 54.890625 34.8125 54.890625 23.390625 
Q 54.890625 11.625 47.5625 5.09375 
Q 40.234375 -1.421875 26.90625 -1.421875 
Q 22.3125 -1.421875 17.546875 -0.640625 
Q 12.796875 0.140625 7.71875 1.703125 
L 7.71875 11.625 
Q 12.109375 9.234375 16.796875 8.0625 
Q 21.484375 6.890625 26.703125 6.890625 
Q 35.15625 6.890625 40.078125 11.328125 
Q 45.015625 15.765625 45.015625 23.390625 
Q 45.015625 31 40.078125 35.4375 
Q 35.15625 39.890625 26.703125 39.890625 
Q 22.75 39.890625 18.8125 39.015625 
Q 14.890625 38.140625 10.796875 36.28125 
z
" id="DejaVuSans-53"/>
      </defs>
      <g transform="translate(118.394793 322.182437)scale(0.1 -0.1)">
       <use xlink:href="#DejaVuSans-53"/>
      </g>
     </g>
    </g>
    <g id="xtick_3">
     <g id="line2d_3">
      <g>
       <use style="stroke:#000000;stroke-width:0.8;" x="169.319358" xlink:href="#mb6db8162e0" y="307.584"/>
      </g>
     </g>
     <g id="text_3">
      <!-- 10 -->
      <defs>
       <path d="M 12.40625 8.296875 
L 28.515625 8.296875 
L 28.515625 63.921875 
L 10.984375 60.40625 
L 10.984375 69.390625 
L 28.421875 72.90625 
L 38.28125 72.90625 
L 38.28125 8.296875 
L 54.390625 8.296875 
L 54.390625 0 
L 12.40625 0 
z
" id="DejaVuSans-49"/>
      </defs>
      <g transform="translate(162.956858 322.182437)scale(0.1 -0.1)">
       <use xlink:href="#DejaVuSans-49"/>
       <use x="63.623047" xlink:href="#DejaVuSans-48"/>
      </g>
     </g>
    </g>
    <g id="xtick_4">
     <g id="line2d_4">
      <g>
       <use style="stroke:#000000;stroke-width:0.8;" x="217.062674" xlink:href="#mb6db8162e0" y="307.584"/>
      </g>
     </g>
     <g id="text_4">
      <!-- 15 -->
      <g transform="translate(210.700174 322.182437)scale(0.1 -0.1)">
       <use xlink:href="#DejaVuSans-49"/>
       <use x="63.623047" xlink:href="#DejaVuSans-53"/>
      </g>
     </g>
    </g>
    <g id="xtick_5">
     <g id="line2d_5">
      <g>
       <use style="stroke:#000000;stroke-width:0.8;" x="264.805989" xlink:href="#mb6db8162e0" y="307.584"/>
      </g>
     </g>
     <g id="text_5">
      <!-- 20 -->
      <defs>
       <path d="M 19.1875 8.296875 
L 53.609375 8.296875 
L 53.609375 0 
L 7.328125 0 
L 7.328125 8.296875 
Q 12.9375 14.109375 22.625 23.890625 
Q 32.328125 33.6875 34.8125 36.53125 
Q 39.546875 41.84375 41.421875 45.53125 
Q 43.3125 49.21875 43.3125 52.78125 
Q 43.3125 58.59375 39.234375 62.25 
Q 35.15625 65.921875 28.609375 65.921875 
Q 23.96875 65.921875 18.8125 64.3125 
Q 13.671875 62.703125 7.8125 59.421875 
L 7.8125 69.390625 
Q 13.765625 71.78125 18.9375 73 
Q 24.125 74.21875 28.421875 74.21875 
Q 39.75 74.21875 46.484375 68.546875 
Q 53.21875 62.890625 53.21875 53.421875 
Q 53.21875 48.921875 51.53125 44.890625 
Q 49.859375 40.875 45.40625 35.40625 
Q 44.1875 33.984375 37.640625 27.21875 
Q 31.109375 20.453125 19.1875 8.296875 
z
" id="DejaVuSans-50"/>
      </defs>
      <g transform="translate(258.443489 322.182437)scale(0.1 -0.1)">
       <use xlink:href="#DejaVuSans-50"/>
       <use x="63.623047" xlink:href="#DejaVuSans-48"/>
      </g>
     </g>
    </g>
    <g id="xtick_6">
     <g id="line2d_6">
      <g>
       <use style="stroke:#000000;stroke-width:0.8;" x="312.549305" xlink:href="#mb6db8162e0" y="307.584"/>
      </g>
     </g>
     <g id="text_6">
      <!-- 25 -->
      <g transform="translate(306.186805 322.182437)scale(0.1 -0.1)">
       <use xlink:href="#DejaVuSans-50"/>
       <use x="63.623047" xlink:href="#DejaVuSans-53"/>
      </g>
     </g>
    </g>
    <g id="xtick_7">
     <g id="line2d_7">
      <g>
       <use style="stroke:#000000;stroke-width:0.8;" x="360.29262" xlink:href="#mb6db8162e0" y="307.584"/>
      </g>
     </g>
     <g id="text_7">
      <!-- 30 -->
      <defs>
       <path d="M 40.578125 39.3125 
Q 47.65625 37.796875 51.625 33 
Q 55.609375 28.21875 55.609375 21.1875 
Q 55.609375 10.40625 48.1875 4.484375 
Q 40.765625 -1.421875 27.09375 -1.421875 
Q 22.515625 -1.421875 17.65625 -0.515625 
Q 12.796875 0.390625 7.625 2.203125 
L 7.625 11.71875 
Q 11.71875 9.328125 16.59375 8.109375 
Q 21.484375 6.890625 26.8125 6.890625 
Q 36.078125 6.890625 40.9375 10.546875 
Q 45.796875 14.203125 45.796875 21.1875 
Q 45.796875 27.640625 41.28125 31.265625 
Q 36.765625 34.90625 28.71875 34.90625 
L 20.21875 34.90625 
L 20.21875 43.015625 
L 29.109375 43.015625 
Q 36.375 43.015625 40.234375 45.921875 
Q 44.09375 48.828125 44.09375 54.296875 
Q 44.09375 59.90625 40.109375 62.90625 
Q 36.140625 65.921875 28.71875 65.921875 
Q 24.65625 65.921875 20.015625 65.03125 
Q 15.375 64.15625 9.8125 62.3125 
L 9.8125 71.09375 
Q 15.4375 72.65625 20.34375 73.4375 
Q 25.25 74.21875 29.59375 74.21875 
Q 40.828125 74.21875 47.359375 69.109375 
Q 53.90625 64.015625 53.90625 55.328125 
Q 53.90625 49.265625 50.4375 45.09375 
Q 46.96875 40.921875 40.578125 39.3125 
z
" id="DejaVuSans-51"/>
      </defs>
      <g transform="translate(353.93012 322.182437)scale(0.1 -0.1)">
       <use xlink:href="#DejaVuSans-51"/>
       <use x="63.623047" xlink:href="#DejaVuSans-48"/>
      </g>
     </g>
    </g>
    <g id="xtick_8">
     <g id="line2d_8">
      <g>
       <use style="stroke:#000000;stroke-width:0.8;" x="408.035936" xlink:href="#mb6db8162e0" y="307.584"/>
      </g>
     </g>
     <g id="text_8">
      <!-- 35 -->
      <g transform="translate(401.673436 322.182437)scale(0.1 -0.1)">
       <use xlink:href="#DejaVuSans-51"/>
       <use x="63.623047" xlink:href="#DejaVuSans-53"/>
      </g>
     </g>
    </g>
    <g id="text_9">
     <!-- Generations -->
     <defs>
      <path d="M 59.515625 10.40625 
L 59.515625 29.984375 
L 43.40625 29.984375 
L 43.40625 38.09375 
L 69.28125 38.09375 
L 69.28125 6.78125 
Q 63.578125 2.734375 56.6875 0.65625 
Q 49.8125 -1.421875 42 -1.421875 
Q 24.90625 -1.421875 15.25 8.5625 
Q 5.609375 18.5625 5.609375 36.375 
Q 5.609375 54.25 15.25 64.234375 
Q 24.90625 74.21875 42 74.21875 
Q 49.125 74.21875 55.546875 72.453125 
Q 61.96875 70.703125 67.390625 67.28125 
L 67.390625 56.78125 
Q 61.921875 61.421875 55.765625 63.765625 
Q 49.609375 66.109375 42.828125 66.109375 
Q 29.4375 66.109375 22.71875 58.640625 
Q 16.015625 51.171875 16.015625 36.375 
Q 16.015625 21.625 22.71875 14.15625 
Q 29.4375 6.6875 42.828125 6.6875 
Q 48.046875 6.6875 52.140625 7.59375 
Q 56.25 8.5 59.515625 10.40625 
z
" id="DejaVuSans-71"/>
      <path d="M 56.203125 29.59375 
L 56.203125 25.203125 
L 14.890625 25.203125 
Q 15.484375 15.921875 20.484375 11.0625 
Q 25.484375 6.203125 34.421875 6.203125 
Q 39.59375 6.203125 44.453125 7.46875 
Q 49.3125 8.734375 54.109375 11.28125 
L 54.109375 2.78125 
Q 49.265625 0.734375 44.1875 -0.34375 
Q 39.109375 -1.421875 33.890625 -1.421875 
Q 20.796875 -1.421875 13.15625 6.1875 
Q 5.515625 13.8125 5.515625 26.8125 
Q 5.515625 40.234375 12.765625 48.109375 
Q 20.015625 56 32.328125 56 
Q 43.359375 56 49.78125 48.890625 
Q 56.203125 41.796875 56.203125 29.59375 
z
M 47.21875 32.234375 
Q 47.125 39.59375 43.09375 43.984375 
Q 39.0625 48.390625 32.421875 48.390625 
Q 24.90625 48.390625 20.390625 44.140625 
Q 15.875 39.890625 15.1875 32.171875 
z
" id="DejaVuSans-101"/>
      <path d="M 54.890625 33.015625 
L 54.890625 0 
L 45.90625 0 
L 45.90625 32.71875 
Q 45.90625 40.484375 42.875 44.328125 
Q 39.84375 48.1875 33.796875 48.1875 
Q 26.515625 48.1875 22.3125 43.546875 
Q 18.109375 38.921875 18.109375 30.90625 
L 18.109375 0 
L 9.078125 0 
L 9.078125 54.6875 
L 18.109375 54.6875 
L 18.109375 46.1875 
Q 21.34375 51.125 25.703125 53.5625 
Q 30.078125 56 35.796875 56 
Q 45.21875 56 50.046875 50.171875 
Q 54.890625 44.34375 54.890625 33.015625 
z
" id="DejaVuSans-110"/>
      <path d="M 41.109375 46.296875 
Q 39.59375 47.171875 37.8125 47.578125 
Q 36.03125 48 33.890625 48 
Q 26.265625 48 22.1875 43.046875 
Q 18.109375 38.09375 18.109375 28.8125 
L 18.109375 0 
L 9.078125 0 
L 9.078125 54.6875 
L 18.109375 54.6875 
L 18.109375 46.1875 
Q 20.953125 51.171875 25.484375 53.578125 
Q 30.03125 56 36.53125 56 
Q 37.453125 56 38.578125 55.875 
Q 39.703125 55.765625 41.0625 55.515625 
z
" id="DejaVuSans-114"/>
      <path d="M 34.28125 27.484375 
Q 23.390625 27.484375 19.1875 25 
Q 14.984375 22.515625 14.984375 16.5 
Q 14.984375 11.71875 18.140625 8.90625 
Q 21.296875 6.109375 26.703125 6.109375 
Q 34.1875 6.109375 38.703125 11.40625 
Q 43.21875 16.703125 43.21875 25.484375 
L 43.21875 27.484375 
z
M 52.203125 31.203125 
L 52.203125 0 
L 43.21875 0 
L 43.21875 8.296875 
Q 40.140625 3.328125 35.546875 0.953125 
Q 30.953125 -1.421875 24.3125 -1.421875 
Q 15.921875 -1.421875 10.953125 3.296875 
Q 6 8.015625 6 15.921875 
Q 6 25.140625 12.171875 29.828125 
Q 18.359375 34.515625 30.609375 34.515625 
L 43.21875 34.515625 
L 43.21875 35.40625 
Q 43.21875 41.609375 39.140625 45 
Q 35.0625 48.390625 27.6875 48.390625 
Q 23 48.390625 18.546875 47.265625 
Q 14.109375 46.140625 10.015625 43.890625 
L 10.015625 52.203125 
Q 14.9375 54.109375 19.578125 55.046875 
Q 24.21875 56 28.609375 56 
Q 40.484375 56 46.34375 49.84375 
Q 52.203125 43.703125 52.203125 31.203125 
z
" id="DejaVuSans-97"/>
      <path d="M 18.3125 70.21875 
L 18.3125 54.6875 
L 36.8125 54.6875 
L 36.8125 47.703125 
L 18.3125 47.703125 
L 18.3125 18.015625 
Q 18.3125 11.328125 20.140625 9.421875 
Q 21.96875 7.515625 27.59375 7.515625 
L 36.8125 7.515625 
L 36.8125 0 
L 27.59375 0 
Q 17.1875 0 13.234375 3.875 
Q 9.28125 7.765625 9.28125 18.015625 
L 9.28125 47.703125 
L 2.6875 47.703125 
L 2.6875 54.6875 
L 9.28125 54.6875 
L 9.28125 70.21875 
z
" id="DejaVuSans-116"/>
      <path d="M 9.421875 54.6875 
L 18.40625 54.6875 
L 18.40625 0 
L 9.421875 0 
z
M 9.421875 75.984375 
L 18.40625 75.984375 
L 18.40625 64.59375 
L 9.421875 64.59375 
z
" id="DejaVuSans-105"/>
      <path d="M 30.609375 48.390625 
Q 23.390625 48.390625 19.1875 42.75 
Q 14.984375 37.109375 14.984375 27.296875 
Q 14.984375 17.484375 19.15625 11.84375 
Q 23.34375 6.203125 30.609375 6.203125 
Q 37.796875 6.203125 41.984375 11.859375 
Q 46.1875 17.53125 46.1875 27.296875 
Q 46.1875 37.015625 41.984375 42.703125 
Q 37.796875 48.390625 30.609375 48.390625 
z
M 30.609375 56 
Q 42.328125 56 49.015625 48.375 
Q 55.71875 40.765625 55.71875 27.296875 
Q 55.71875 13.875 49.015625 6.21875 
Q 42.328125 -1.421875 30.609375 -1.421875 
Q 18.84375 -1.421875 12.171875 6.21875 
Q 5.515625 13.875 5.515625 27.296875 
Q 5.515625 40.765625 12.171875 48.375 
Q 18.84375 56 30.609375 56 
z
" id="DejaVuSans-111"/>
      <path d="M 44.28125 53.078125 
L 44.28125 44.578125 
Q 40.484375 46.53125 36.375 47.5 
Q 32.28125 48.484375 27.875 48.484375 
Q 21.1875 48.484375 17.84375 46.4375 
Q 14.5 44.390625 14.5 40.28125 
Q 14.5 37.15625 16.890625 35.375 
Q 19.28125 33.59375 26.515625 31.984375 
L 29.59375 31.296875 
Q 39.15625 29.25 43.1875 25.515625 
Q 47.21875 21.78125 47.21875 15.09375 
Q 47.21875 7.46875 41.1875 3.015625 
Q 35.15625 -1.421875 24.609375 -1.421875 
Q 20.21875 -1.421875 15.453125 -0.5625 
Q 10.6875 0.296875 5.421875 2 
L 5.421875 11.28125 
Q 10.40625 8.6875 15.234375 7.390625 
Q 20.0625 6.109375 24.8125 6.109375 
Q 31.15625 6.109375 34.5625 8.28125 
Q 37.984375 10.453125 37.984375 14.40625 
Q 37.984375 18.0625 35.515625 20.015625 
Q 33.0625 21.96875 24.703125 23.78125 
L 21.578125 24.515625 
Q 13.234375 26.265625 9.515625 29.90625 
Q 5.8125 33.546875 5.8125 39.890625 
Q 5.8125 47.609375 11.28125 51.796875 
Q 16.75 56 26.8125 56 
Q 31.78125 56 36.171875 55.265625 
Q 40.578125 54.546875 44.28125 53.078125 
z
" id="DejaVuSans-115"/>
     </defs>
     <g transform="translate(205.662344 335.860562)scale(0.1 -0.1)">
      <use xlink:href="#DejaVuSans-71"/>
      <use x="77.490234" xlink:href="#DejaVuSans-101"/>
      <use x="139.013672" xlink:href="#DejaVuSans-110"/>
      <use x="202.392578" xlink:href="#DejaVuSans-101"/>
      <use x="263.916016" xlink:href="#DejaVuSans-114"/>
      <use x="305.029297" xlink:href="#DejaVuSans-97"/>
      <use x="366.308594" xlink:href="#DejaVuSans-116"/>
      <use x="405.517578" xlink:href="#DejaVuSans-105"/>
      <use x="433.300781" xlink:href="#DejaVuSans-111"/>
      <use x="494.482422" xlink:href="#DejaVuSans-110"/>
      <use x="557.861328" xlink:href="#DejaVuSans-115"/>
     </g>
    </g>
   </g>
   <g id="matplotlib.axis_2">
    <g id="ytick_1">
     <g id="line2d_9">
      <defs>
       <path d="M 0 0 
L -3.5 0 
" id="m4e2ca9f8bc" style="stroke:#000000;stroke-width:0.8;"/>
      </defs>
      <g>
       <use style="stroke:#000000;stroke-width:0.8;" x="57.6" xlink:href="#m4e2ca9f8bc" y="307.584"/>
      </g>
     </g>
     <g id="text_10">
      <!-- 0 -->
      <g transform="translate(44.2375 311.383219)scale(0.1 -0.1)">
       <use xlink:href="#DejaVuSans-48"/>
      </g>
     </g>
    </g>
    <g id="ytick_2">
     <g id="line2d_10">
      <g>
       <use style="stroke:#000000;stroke-width:0.8;" x="57.6" xlink:href="#m4e2ca9f8bc" y="257.497043"/>
      </g>
     </g>
     <g id="text_11">
      <!-- 50 -->
      <g transform="translate(37.875 261.296262)scale(0.1 -0.1)">
       <use xlink:href="#DejaVuSans-53"/>
       <use x="63.623047" xlink:href="#DejaVuSans-48"/>
      </g>
     </g>
    </g>
    <g id="ytick_3">
     <g id="line2d_11">
      <g>
       <use style="stroke:#000000;stroke-width:0.8;" x="57.6" xlink:href="#m4e2ca9f8bc" y="207.410087"/>
      </g>
     </g>
     <g id="text_12">
      <!-- 100 -->
      <g transform="translate(31.5125 211.209306)scale(0.1 -0.1)">
       <use xlink:href="#DejaVuSans-49"/>
       <use x="63.623047" xlink:href="#DejaVuSans-48"/>
       <use x="127.246094" xlink:href="#DejaVuSans-48"/>
      </g>
     </g>
    </g>
    <g id="ytick_4">
     <g id="line2d_12">
      <g>
       <use style="stroke:#000000;stroke-width:0.8;" x="57.6" xlink:href="#m4e2ca9f8bc" y="157.32313"/>
      </g>
     </g>
     <g id="text_13">
      <!-- 150 -->
      <g transform="translate(31.5125 161.122349)scale(0.1 -0.1)">
       <use xlink:href="#DejaVuSans-49"/>
       <use x="63.623047" xlink:href="#DejaVuSans-53"/>
       <use x="127.246094" xlink:href="#DejaVuSans-48"/>
      </g>
     </g>
    </g>
    <g id="ytick_5">
     <g id="line2d_13">
      <g>
       <use style="stroke:#000000;stroke-width:0.8;" x="57.6" xlink:href="#m4e2ca9f8bc" y="107.236174"/>
      </g>
     </g>
     <g id="text_14">
      <!-- 200 -->
      <g transform="translate(31.5125 111.035393)scale(0.1 -0.1)">
       <use xlink:href="#DejaVuSans-50"/>
       <use x="63.623047" xlink:href="#DejaVuSans-48"/>
       <use x="127.246094" xlink:href="#DejaVuSans-48"/>
      </g>
     </g>
    </g>
    <g id="ytick_6">
     <g id="line2d_14">
      <g>
       <use style="stroke:#000000;stroke-width:0.8;" x="57.6" xlink:href="#m4e2ca9f8bc" y="57.149217"/>
      </g>
     </g>
     <g id="text_15">
      <!-- 250 -->
      <g transform="translate(31.5125 60.948436)scale(0.1 -0.1)">
       <use xlink:href="#DejaVuSans-50"/>
       <use x="63.623047" xlink:href="#DejaVuSans-53"/>
       <use x="127.246094" xlink:href="#DejaVuSans-48"/>
      </g>
     </g>
    </g>
    <g id="text_16">
     <!-- Size per Species -->
     <defs>
      <path d="M 53.515625 70.515625 
L 53.515625 60.890625 
Q 47.90625 63.578125 42.921875 64.890625 
Q 37.9375 66.21875 33.296875 66.21875 
Q 25.25 66.21875 20.875 63.09375 
Q 16.5 59.96875 16.5 54.203125 
Q 16.5 49.359375 19.40625 46.890625 
Q 22.3125 44.4375 30.421875 42.921875 
L 36.375 41.703125 
Q 47.40625 39.59375 52.65625 34.296875 
Q 57.90625 29 57.90625 20.125 
Q 57.90625 9.515625 50.796875 4.046875 
Q 43.703125 -1.421875 29.984375 -1.421875 
Q 24.8125 -1.421875 18.96875 -0.25 
Q 13.140625 0.921875 6.890625 3.21875 
L 6.890625 13.375 
Q 12.890625 10.015625 18.65625 8.296875 
Q 24.421875 6.59375 29.984375 6.59375 
Q 38.421875 6.59375 43.015625 9.90625 
Q 47.609375 13.234375 47.609375 19.390625 
Q 47.609375 24.75 44.3125 27.78125 
Q 41.015625 30.8125 33.5 32.328125 
L 27.484375 33.5 
Q 16.453125 35.6875 11.515625 40.375 
Q 6.59375 45.0625 6.59375 53.421875 
Q 6.59375 63.09375 13.40625 68.65625 
Q 20.21875 74.21875 32.171875 74.21875 
Q 37.3125 74.21875 42.625 73.28125 
Q 47.953125 72.359375 53.515625 70.515625 
z
" id="DejaVuSans-83"/>
      <path d="M 5.515625 54.6875 
L 48.1875 54.6875 
L 48.1875 46.484375 
L 14.40625 7.171875 
L 48.1875 7.171875 
L 48.1875 0 
L 4.296875 0 
L 4.296875 8.203125 
L 38.09375 47.515625 
L 5.515625 47.515625 
z
" id="DejaVuSans-122"/>
      <path id="DejaVuSans-32"/>
      <path d="M 18.109375 8.203125 
L 18.109375 -20.796875 
L 9.078125 -20.796875 
L 9.078125 54.6875 
L 18.109375 54.6875 
L 18.109375 46.390625 
Q 20.953125 51.265625 25.265625 53.625 
Q 29.59375 56 35.59375 56 
Q 45.5625 56 51.78125 48.09375 
Q 58.015625 40.1875 58.015625 27.296875 
Q 58.015625 14.40625 51.78125 6.484375 
Q 45.5625 -1.421875 35.59375 -1.421875 
Q 29.59375 -1.421875 25.265625 0.953125 
Q 20.953125 3.328125 18.109375 8.203125 
z
M 48.6875 27.296875 
Q 48.6875 37.203125 44.609375 42.84375 
Q 40.53125 48.484375 33.40625 48.484375 
Q 26.265625 48.484375 22.1875 42.84375 
Q 18.109375 37.203125 18.109375 27.296875 
Q 18.109375 17.390625 22.1875 11.75 
Q 26.265625 6.109375 33.40625 6.109375 
Q 40.53125 6.109375 44.609375 11.75 
Q 48.6875 17.390625 48.6875 27.296875 
z
" id="DejaVuSans-112"/>
      <path d="M 48.78125 52.59375 
L 48.78125 44.1875 
Q 44.96875 46.296875 41.140625 47.34375 
Q 37.3125 48.390625 33.40625 48.390625 
Q 24.65625 48.390625 19.8125 42.84375 
Q 14.984375 37.3125 14.984375 27.296875 
Q 14.984375 17.28125 19.8125 11.734375 
Q 24.65625 6.203125 33.40625 6.203125 
Q 37.3125 6.203125 41.140625 7.25 
Q 44.96875 8.296875 48.78125 10.40625 
L 48.78125 2.09375 
Q 45.015625 0.34375 40.984375 -0.53125 
Q 36.96875 -1.421875 32.421875 -1.421875 
Q 20.0625 -1.421875 12.78125 6.34375 
Q 5.515625 14.109375 5.515625 27.296875 
Q 5.515625 40.671875 12.859375 48.328125 
Q 20.21875 56 33.015625 56 
Q 37.15625 56 41.109375 55.140625 
Q 45.0625 54.296875 48.78125 52.59375 
z
" id="DejaVuSans-99"/>
     </defs>
     <g transform="translate(25.432812 215.520969)rotate(-90)scale(0.1 -0.1)">
      <use xlink:href="#DejaVuSans-83"/>
      <use x="63.476562" xlink:href="#DejaVuSans-105"/>
      <use x="91.259766" xlink:href="#DejaVuSans-122"/>
      <use x="143.75" xlink:href="#DejaVuSans-101"/>
      <use x="205.273438" xlink:href="#DejaVuSans-32"/>
      <use x="237.060547" xlink:href="#DejaVuSans-112"/>
      <use x="300.537109" xlink:href="#DejaVuSans-101"/>
      <use x="362.060547" xlink:href="#DejaVuSans-114"/>
      <use x="403.173828" xlink:href="#DejaVuSans-32"/>
      <use x="434.960938" xlink:href="#DejaVuSans-83"/>
      <use x="498.4375" xlink:href="#DejaVuSans-112"/>
      <use x="561.914062" xlink:href="#DejaVuSans-101"/>
      <use x="623.4375" xlink:href="#DejaVuSans-99"/>
      <use x="678.417969" xlink:href="#DejaVuSans-105"/>
      <use x="706.201172" xlink:href="#DejaVuSans-101"/>
      <use x="767.724609" xlink:href="#DejaVuSans-115"/>
     </g>
    </g>
   </g>
   <g id="patch_3">
    <path d="M 57.6 307.584 
L 57.6 41.472 
" style="fill:none;stroke:#000000;stroke-linecap:square;stroke-linejoin:miter;stroke-width:0.8;"/>
   </g>
   <g id="patch_4">
    <path d="M 414.72 307.584 
L 414.72 41.472 
" style="fill:none;stroke:#000000;stroke-linecap:square;stroke-linejoin:miter;stroke-width:0.8;"/>
   </g>
   <g id="patch_5">
    <path d="M 57.6 307.584 
L 414.72 307.584 
" style="fill:none;stroke:#000000;stroke-linecap:square;stroke-linejoin:miter;stroke-width:0.8;"/>
   </g>
   <g id="patch_6">
    <path d="M 57.6 41.472 
L 414.72 41.472 
" style="fill:none;stroke:#000000;stroke-linecap:square;stroke-linejoin:miter;stroke-width:0.8;"/>
   </g>
   <g id="text_17">
    <!-- Speciation -->
    <g transform="translate(204.714375 35.472)scale(0.12 -0.12)">
     <use xlink:href="#DejaVuSans-83"/>
     <use x="63.476562" xlink:href="#DejaVuSans-112"/>
     <use x="126.953125" xlink:href="#DejaVuSans-101"/>
     <use x="188.476562" xlink:href="#DejaVuSans-99"/>
     <use x="243.457031" xlink:href="#DejaVuSans-105"/>
     <use x="271.240234" xlink:href="#DejaVuSans-97"/>
     <use x="332.519531" xlink:href="#DejaVuSans-116"/>
     <use x="371.728516" xlink:href="#DejaVuSans-105"/>
     <use x="399.511719" xlink:href="#DejaVuSans-111"/>
     <use x="460.693359" xlink:href="#DejaVuSans-110"/>
    </g>
   </g>
  </g>
 </g>
 <defs>
  <clipPath id="p109e3dfd1a">
   <rect height="266.112" width="357.12" x="57.6" y="41.472"/>
  </clipPath>
 </defs>
</svg>
