<?xml version="1.0" encoding="UTF-8" standalone="no"?>
<!DOCTYPE svg PUBLIC "-//W3C//DTD SVG 1.1//EN"
 "http://www.w3.org/Graphics/SVG/1.1/DTD/svg11.dtd">
<!-- Generated by graphviz version 2.38.0 (20140413.2041)
 -->
<!-- Title: %3 Pages: 1 -->
<svg width="139pt" height="207pt"
 viewBox="0.00 0.00 138.50 206.89" xmlns="http://www.w3.org/2000/svg" xmlns:xlink="http://www.w3.org/1999/xlink">
<g id="graph0" class="graph" transform="scale(1 1) rotate(0) translate(4 202.894)">
<title>%3</title>
<polygon fill="white" stroke="none" points="-4,4 -4,-202.894 134.5,-202.894 134.5,4 -4,4"/>
<!-- x -->
<g id="node1" class="node"><title>x</title>
<polygon fill="lightgray" stroke="black" points="20,-198.894 0,-198.894 0,-180.894 20,-180.894 20,-198.894"/>
<text text-anchor="middle" x="10" y="-187.694" font-family="Times New Roman,serif" font-size="9.00">x</text>
</g>
<!-- control -->
<g id="node5" class="node"><title>control</title>
<ellipse fill="lightblue" stroke="black" cx="56" cy="-115.196" rx="29.8983" ry="29.8983"/>
<text text-anchor="middle" x="56" y="-112.996" font-family="Times New Roman,serif" font-size="9.00">control</text>
</g>
<!-- x&#45;&gt;control -->
<g id="edge6" class="edge"><title>x&#45;&gt;control</title>
<path fill="none" stroke="green" stroke-width="0.193181" d="M15.0986,-180.837C19.9451,-173.177 27.5669,-161.132 34.9242,-149.504"/>
<polygon fill="green" stroke="green" stroke-width="0.193181" points="38.0592,-151.095 40.4485,-140.774 32.1438,-147.352 38.0592,-151.095"/>
</g>
<!-- dx -->
<g id="node2" class="node"><title>dx</title>
<polygon fill="lightgray" stroke="black" points="128.5,-124.196 103.5,-124.196 103.5,-106.196 128.5,-106.196 128.5,-124.196"/>
<text text-anchor="middle" x="116" y="-112.996" font-family="Times New Roman,serif" font-size="9.00">dx</text>
</g>
<!-- 2607 -->
<g id="node6" class="node"><title>2607</title>
<ellipse fill="white" stroke="black" cx="56" cy="-24.7487" rx="25" ry="25"/>
<text text-anchor="middle" x="56" y="-22.5487" font-family="Times New Roman,serif" font-size="9.00">2607</text>
</g>
<!-- dx&#45;&gt;2607 -->
<g id="edge5" class="edge"><title>dx&#45;&gt;2607</title>
<path fill="none" stroke="red" stroke-width="0.310759" d="M110.463,-106.034C102.535,-94.3466 87.554,-72.2631 75.3079,-54.2108"/>
<polygon fill="red" stroke="red" stroke-width="0.310759" points="78.0691,-52.0466 69.5587,-45.7359 72.2762,-55.9763 78.0691,-52.0466"/>
</g>
<!-- theta -->
<g id="node3" class="node"><title>theta</title>
<polygon fill="lightgray" stroke="black" points="73.5,-198.894 38.5,-198.894 38.5,-180.894 73.5,-180.894 73.5,-198.894"/>
<text text-anchor="middle" x="56" y="-187.694" font-family="Times New Roman,serif" font-size="9.00">theta</text>
</g>
<!-- theta&#45;&gt;control -->
<g id="edge2" class="edge"><title>theta&#45;&gt;control</title>
<path fill="none" stroke="green" stroke-width="0.805865" d="M56,-180.837C56,-174.416 56,-164.914 56,-155.159"/>
<polygon fill="green" stroke="green" stroke-width="0.805865" points="59.5001,-155.021 56,-145.021 52.5001,-155.021 59.5001,-155.021"/>
</g>
<!-- dtheta -->
<g id="node4" class="node"><title>dtheta</title>
<polygon fill="lightgray" stroke="black" points="130.5,-198.894 91.5,-198.894 91.5,-180.894 130.5,-180.894 130.5,-198.894"/>
<text text-anchor="middle" x="111" y="-187.694" font-family="Times New Roman,serif" font-size="9.00">dtheta</text>
</g>
<!-- dtheta&#45;&gt;control -->
<g id="edge1" class="edge"><title>dtheta&#45;&gt;control</title>
<path fill="none" stroke="green" stroke-width="0.292938" d="M104.904,-180.837C98.8137,-172.787 89.0583,-159.892 79.8568,-147.73"/>
<polygon fill="green" stroke="green" stroke-width="0.292938" points="82.4515,-145.358 73.6269,-139.495 76.8691,-149.582 82.4515,-145.358"/>
</g>
<!-- control&#45;&gt;2607 -->
<g id="edge3" class="edge"><title>control&#45;&gt;2607</title>
<path fill="none" stroke="green" stroke-width="0.279396" d="M49.6459,-85.7238C49.1974,-77.1578 49.13,-67.6848 49.4436,-58.846"/>
<polygon fill="green" stroke="green" stroke-width="0.279396" points="52.9387,-59.0289 49.9868,-48.8536 45.949,-58.6489 52.9387,-59.0289"/>
</g>
<!-- 2607&#45;&gt;control -->
<g id="edge4" class="edge"><title>2607&#45;&gt;control</title>
<path fill="none" stroke="red" stroke-width="0.350011" d="M62.0132,-48.8536C62.6317,-57.0483 62.8608,-66.5072 62.7005,-75.6384"/>
<polygon fill="red" stroke="red" stroke-width="0.350011" points="59.1995,-75.6096 62.3541,-85.7238 66.1954,-75.8499 59.1995,-75.6096"/>
</g>
</g>
</svg>
