<?xml version="1.0" encoding="UTF-8" standalone="no"?>
<!DOCTYPE svg PUBLIC "-//W3C//DTD SVG 1.1//EN"
 "http://www.w3.org/Graphics/SVG/1.1/DTD/svg11.dtd">
<!-- Generated by graphviz version 2.38.0 (20140413.2041)
 -->
<!-- Title: %3 Pages: 1 -->
<svg width="140pt" height="247pt"
 viewBox="0.00 0.00 139.69 246.88" xmlns="http://www.w3.org/2000/svg" xmlns:xlink="http://www.w3.org/1999/xlink">
<g id="graph0" class="graph" transform="scale(1 1) rotate(0) translate(4 242.877)">
<title>%3</title>
<polygon fill="white" stroke="none" points="-4,4 -4,-242.877 135.69,-242.877 135.69,4 -4,4"/>
<!-- A -->
<g id="node1" class="node"><title>A</title>
<polygon fill="lightgray" stroke="black" points="25.9767,-226.664 2.97666,-226.664 2.97666,-208.664 25.9767,-208.664 25.9767,-226.664"/>
<text text-anchor="middle" x="14.4767" y="-215.464" font-family="Times New Roman,serif" font-size="9.00">A</text>
</g>
<!-- A XOR B -->
<g id="node3" class="node"><title>A XOR B</title>
<ellipse fill="lightblue" stroke="black" cx="37.4767" cy="-37.4767" rx="37.4533" ry="37.4533"/>
<text text-anchor="middle" x="37.4767" y="-35.2767" font-family="Times New Roman,serif" font-size="9.00">A XOR B</text>
</g>
<!-- A&#45;&gt;A XOR B -->
<g id="edge4" class="edge"><title>A&#45;&gt;A XOR B</title>
<path fill="none" stroke="red" stroke-width="0.327399" d="M12.5288,-208.615C8.52866,-190.817 0.340451,-146.852 7.47666,-110.953 9.48791,-100.836 12.9356,-90.3597 16.7935,-80.6236"/>
<polygon fill="red" stroke="red" stroke-width="0.327399" points="20.1161,-81.7505 20.7502,-71.1746 13.6593,-79.0467 20.1161,-81.7505"/>
</g>
<!-- 196 -->
<g id="node5" class="node"><title>196</title>
<ellipse fill="white" stroke="black" cx="37.4767" cy="-135.702" rx="21.4286" ry="21.4286"/>
<text text-anchor="middle" x="37.4767" y="-133.502" font-family="Times New Roman,serif" font-size="9.00">196</text>
</g>
<!-- A&#45;&gt;196 -->
<g id="edge3" class="edge"><title>A&#45;&gt;196</title>
<path fill="none" stroke="green" stroke-width="1.93296" d="M16.8514,-208.408C19.705,-198.487 24.6507,-181.293 28.9838,-166.228"/>
<polygon fill="green" stroke="green" stroke-width="1.93296" points="32.4518,-166.833 31.8525,-156.255 25.7245,-164.898 32.4518,-166.833"/>
</g>
<!-- B -->
<g id="node2" class="node"><title>B</title>
<polygon fill="lightgray" stroke="black" points="70.9767,-226.664 47.9767,-226.664 47.9767,-208.664 70.9767,-208.664 70.9767,-226.664"/>
<text text-anchor="middle" x="59.4767" y="-215.464" font-family="Times New Roman,serif" font-size="9.00">B</text>
</g>
<!-- B&#45;&gt;196 -->
<g id="edge1" class="edge"><title>B&#45;&gt;196</title>
<path fill="none" stroke="green" stroke-width="0.40812" d="M57.2051,-208.408C54.4756,-198.487 49.7449,-181.293 45.6003,-166.228"/>
<polygon fill="green" stroke="green" stroke-width="0.40812" points="48.8837,-164.968 42.8563,-156.255 42.1345,-166.825 48.8837,-164.968"/>
</g>
<!-- 1240 -->
<g id="node6" class="node"><title>1240</title>
<ellipse fill="white" stroke="black" cx="101.477" cy="-135.702" rx="25" ry="25"/>
<text text-anchor="middle" x="101.477" y="-133.502" font-family="Times New Roman,serif" font-size="9.00">1240</text>
</g>
<!-- B&#45;&gt;1240 -->
<g id="edge5" class="edge"><title>B&#45;&gt;1240</title>
<path fill="none" stroke="green" stroke-width="0.339611" d="M63.8132,-208.408C68.9507,-198.627 77.8019,-181.775 85.6332,-166.866"/>
<polygon fill="green" stroke="green" stroke-width="0.339611" points="88.7836,-168.395 90.3351,-157.914 82.5864,-165.139 88.7836,-168.395"/>
</g>
<!-- 707 -->
<g id="node4" class="node"><title>707</title>
<ellipse fill="white" stroke="black" cx="110.477" cy="-217.664" rx="21.4286" ry="21.4286"/>
<text text-anchor="middle" x="110.477" y="-215.464" font-family="Times New Roman,serif" font-size="9.00">707</text>
</g>
<!-- 196&#45;&gt;A XOR B -->
<g id="edge2" class="edge"><title>196&#45;&gt;A XOR B</title>
<path fill="none" stroke="green" stroke-width="0.947126" d="M37.4767,-114.295C37.4767,-105.772 37.4767,-95.4884 37.4767,-85.2835"/>
<polygon fill="green" stroke="green" stroke-width="0.947126" points="40.9768,-85.1727 37.4767,-75.1728 33.9768,-85.1728 40.9768,-85.1727"/>
</g>
<!-- 1240&#45;&gt;A XOR B -->
<g id="edge6" class="edge"><title>1240&#45;&gt;A XOR B</title>
<path fill="none" stroke="red" stroke-width="0.5119" d="M88.2158,-114.764C81.0762,-104.03 72.0151,-90.4059 63.5317,-77.651"/>
<polygon fill="red" stroke="red" stroke-width="0.5119" points="66.2339,-75.3938 57.7816,-69.0056 60.4054,-79.2704 66.2339,-75.3938"/>
</g>
</g>
</svg>
