<?xml version="1.0" encoding="UTF-8" standalone="no"?>
<!DOCTYPE svg PUBLIC "-//W3C//DTD SVG 1.1//EN"
 "http://www.w3.org/Graphics/SVG/1.1/DTD/svg11.dtd">
<!-- Generated by graphviz version 2.38.0 (20140413.2041)
 -->
<!-- Title: %3 Pages: 1 -->
<svg width="146pt" height="273pt"
 viewBox="0.00 0.00 145.71 272.59" xmlns="http://www.w3.org/2000/svg" xmlns:xlink="http://www.w3.org/1999/xlink">
<g id="graph0" class="graph" transform="scale(1 1) rotate(0) translate(4 268.593)">
<title>%3</title>
<polygon fill="white" stroke="none" points="-4,4 -4,-268.593 141.713,-268.593 141.713,4 -4,4"/>
<!-- x -->
<g id="node1" class="node"><title>x</title>
<polygon fill="lightgray" stroke="black" points="39.2132,-264.593 19.2132,-264.593 19.2132,-246.593 39.2132,-246.593 39.2132,-264.593"/>
<text text-anchor="middle" x="29.2132" y="-253.393" font-family="Times New Roman,serif" font-size="9.00">x</text>
</g>
<!-- 59 -->
<g id="node6" class="node"><title>59</title>
<ellipse fill="white" stroke="black" cx="29.2132" cy="-192.208" rx="18.2703" ry="18.2703"/>
<text text-anchor="middle" x="29.2132" y="-190.008" font-family="Times New Roman,serif" font-size="9.00">59</text>
</g>
<!-- x&#45;&gt;59 -->
<g id="edge4" class="edge"><title>x&#45;&gt;59</title>
<path fill="none" stroke="green" stroke-width="0.61833" d="M29.2132,-246.568C29.2132,-240.004 29.2132,-230.314 29.2132,-220.987"/>
<polygon fill="green" stroke="green" stroke-width="0.61833" points="32.7133,-220.796 29.2132,-210.796 25.7133,-220.796 32.7133,-220.796"/>
</g>
<!-- dx -->
<g id="node2" class="node"><title>dx</title>
<polygon fill="lightgray" stroke="black" points="85.7132,-125.61 60.7132,-125.61 60.7132,-107.61 85.7132,-107.61 85.7132,-125.61"/>
<text text-anchor="middle" x="73.2132" y="-114.41" font-family="Times New Roman,serif" font-size="9.00">dx</text>
</g>
<!-- control -->
<g id="node5" class="node"><title>control</title>
<ellipse fill="lightblue" stroke="black" cx="73.2132" cy="-29.6985" rx="29.8983" ry="29.8983"/>
<text text-anchor="middle" x="73.2132" y="-27.4985" font-family="Times New Roman,serif" font-size="9.00">control</text>
</g>
<!-- dx&#45;&gt;control -->
<g id="edge3" class="edge"><title>dx&#45;&gt;control</title>
<path fill="none" stroke="green" stroke-width="0.429364" d="M73.2132,-107.468C73.2132,-98.6504 73.2132,-83.9334 73.2132,-69.7307"/>
<polygon fill="green" stroke="green" stroke-width="0.429364" points="76.7133,-69.5716 73.2132,-59.5716 69.7133,-69.5716 76.7133,-69.5716"/>
</g>
<!-- theta -->
<g id="node3" class="node"><title>theta</title>
<polygon fill="lightgray" stroke="black" points="108.713,-201.208 73.7132,-201.208 73.7132,-183.208 108.713,-183.208 108.713,-201.208"/>
<text text-anchor="middle" x="91.2132" y="-190.008" font-family="Times New Roman,serif" font-size="9.00">theta</text>
</g>
<!-- theta&#45;&gt;control -->
<g id="edge1" class="edge"><title>theta&#45;&gt;control</title>
<path fill="none" stroke="green" stroke-width="0.346988" d="M91.8255,-182.892C92.5649,-172.396 93.7651,-153.784 94.2132,-137.823 94.7424,-118.975 97.1601,-114.021 94.2132,-95.397 92.7359,-86.0602 90.1292,-76.2367 87.2439,-67.1437"/>
<polygon fill="green" stroke="green" stroke-width="0.346988" points="90.5471,-65.9854 84.044,-57.6212 83.9117,-68.2152 90.5471,-65.9854"/>
</g>
<!-- 429 -->
<g id="node7" class="node"><title>429</title>
<ellipse fill="white" stroke="black" cx="21.2132" cy="-116.61" rx="21.4286" ry="21.4286"/>
<text text-anchor="middle" x="21.2132" y="-114.41" font-family="Times New Roman,serif" font-size="9.00">429</text>
</g>
<!-- theta&#45;&gt;429 -->
<g id="edge9" class="edge"><title>theta&#45;&gt;429</title>
<path fill="none" stroke="green" stroke-width="0.41199" d="M83.4545,-183.051C73.7234,-172.819 56.6396,-154.857 42.8291,-140.337"/>
<polygon fill="green" stroke="green" stroke-width="0.41199" points="44.9887,-137.529 35.5609,-132.695 39.9166,-142.353 44.9887,-137.529"/>
</g>
<!-- dtheta -->
<g id="node4" class="node"><title>dtheta</title>
<polygon fill="lightgray" stroke="black" points="137.713,-264.593 98.7132,-264.593 98.7132,-246.593 137.713,-246.593 137.713,-264.593"/>
<text text-anchor="middle" x="118.213" y="-253.393" font-family="Times New Roman,serif" font-size="9.00">dtheta</text>
</g>
<!-- dtheta&#45;&gt;control -->
<g id="edge5" class="edge"><title>dtheta&#45;&gt;control</title>
<path fill="none" stroke="green" stroke-width="0.713928" d="M119.135,-246.391C121.537,-222.451 126.654,-150.852 109.213,-95.397 105.759,-84.4129 100.314,-73.1941 94.6946,-63.2498"/>
<polygon fill="green" stroke="green" stroke-width="0.713928" points="97.6367,-61.3487 89.5371,-54.5188 91.6097,-64.9089 97.6367,-61.3487"/>
</g>
<!-- dtheta&#45;&gt;59 -->
<g id="edge2" class="edge"><title>dtheta&#45;&gt;59</title>
<path fill="none" stroke="green" stroke-width="0.11207" d="M106.578,-246.568C92.9358,-237.159 69.983,-221.328 52.6122,-209.347"/>
<polygon fill="green" stroke="green" stroke-width="0.11207" points="54.3352,-206.283 44.1161,-203.487 50.3608,-212.046 54.3352,-206.283"/>
</g>
<!-- control&#45;&gt;429 -->
<g id="edge8" class="edge"><title>control&#45;&gt;429</title>
<path fill="none" stroke="green" stroke-width="0.297281" d="M63.0355,-57.6599C56.8276,-68.8196 48.8996,-81.6347 41.5381,-92.3715"/>
<polygon fill="green" stroke="green" stroke-width="0.297281" points="38.4748,-90.6401 35.5378,-100.82 44.1819,-94.6935 38.4748,-90.6401"/>
</g>
<!-- 59&#45;&gt;429 -->
<g id="edge6" class="edge"><title>59&#45;&gt;429</title>
<path fill="none" stroke="red" stroke-width="0.165283" d="M27.3173,-173.766C26.4738,-166.006 25.4557,-156.64 24.4948,-147.8"/>
<polygon fill="red" stroke="red" stroke-width="0.165283" points="27.9672,-147.356 23.407,-137.793 21.0082,-148.112 27.9672,-147.356"/>
</g>
<!-- 429&#45;&gt;control -->
<g id="edge7" class="edge"><title>429&#45;&gt;control</title>
<path fill="none" stroke="red" stroke-width="0.380339" d="M27.473,-95.9163C32.872,-85.5316 40.5798,-72.5673 48.1984,-60.9392"/>
<polygon fill="red" stroke="red" stroke-width="0.380339" points="51.2848,-62.6221 53.9674,-52.3725 45.4785,-58.7121 51.2848,-62.6221"/>
</g>
</g>
</svg>
