<?xml version="1.0" encoding="UTF-8" standalone="no"?>
<!DOCTYPE svg PUBLIC "-//W3C//DTD SVG 1.1//EN"
 "http://www.w3.org/Graphics/SVG/1.1/DTD/svg11.dtd">
<!-- Generated by graphviz version 2.38.0 (20140413.2041)
 -->
<!-- Title: %3 Pages: 1 -->
<svg width="265pt" height="463pt"
 viewBox="0.00 0.00 265.25 463.39" xmlns="http://www.w3.org/2000/svg" xmlns:xlink="http://www.w3.org/1999/xlink">
<g id="graph0" class="graph" transform="scale(1 1) rotate(0) translate(4 459.387)">
<title>%3</title>
<polygon fill="white" stroke="none" points="-4,4 -4,-459.387 261.249,-459.387 261.249,4 -4,4"/>
<!-- x -->
<g id="node1" class="node"><title>x</title>
<polygon fill="lightgray" stroke="black" points="60.7487,-385.638 40.7487,-385.638 40.7487,-367.638 60.7487,-367.638 60.7487,-385.638"/>
<text text-anchor="middle" x="50.7487" y="-374.438" font-family="Times New Roman,serif" font-size="9.00">x</text>
</g>
<!-- control -->
<g id="node5" class="node"><title>control</title>
<ellipse fill="lightblue" stroke="black" cx="103.749" cy="-286.191" rx="29.8983" ry="29.8983"/>
<text text-anchor="middle" x="103.749" y="-283.991" font-family="Times New Roman,serif" font-size="9.00">control</text>
</g>
<!-- x&#45;&gt;control -->
<g id="edge3" class="edge"><title>x&#45;&gt;control</title>
<path fill="none" stroke="green" stroke-width="0.954198" d="M55.6399,-367.476C62.012,-356.842 73.5418,-337.601 83.7167,-320.621"/>
<polygon fill="green" stroke="green" stroke-width="0.954198" points="86.7417,-322.382 88.8795,-312.005 80.7371,-318.784 86.7417,-322.382"/>
</g>
<!-- dx -->
<g id="node2" class="node"><title>dx</title>
<polygon fill="lightgray" stroke="black" points="257.249,-455.387 232.249,-455.387 232.249,-437.387 257.249,-437.387 257.249,-455.387"/>
<text text-anchor="middle" x="244.749" y="-444.187" font-family="Times New Roman,serif" font-size="9.00">dx</text>
</g>
<!-- theta -->
<g id="node3" class="node"><title>theta</title>
<polygon fill="lightgray" stroke="black" points="214.249,-455.387 179.249,-455.387 179.249,-437.387 214.249,-437.387 214.249,-455.387"/>
<text text-anchor="middle" x="196.749" y="-444.187" font-family="Times New Roman,serif" font-size="9.00">theta</text>
</g>
<!-- theta&#45;&gt;control -->
<g id="edge1" class="edge"><title>theta&#45;&gt;control</title>
<path fill="none" stroke="green" stroke-width="2.64168" d="M200.282,-437.264C207.111,-420.235 220.151,-380.047 204.749,-351.889 191.283,-327.272 164.01,-310.644 141.195,-300.416"/>
<polygon fill="green" stroke="green" stroke-width="2.64168" points="142.318,-297.091 131.744,-296.42 139.592,-303.538 142.318,-297.091"/>
</g>
<!-- 3272 -->
<g id="node6" class="node"><title>3272</title>
<ellipse fill="white" stroke="black" cx="170.749" cy="-376.638" rx="25" ry="25"/>
<text text-anchor="middle" x="170.749" y="-374.438" font-family="Times New Roman,serif" font-size="9.00">3272</text>
</g>
<!-- theta&#45;&gt;3272 -->
<g id="edge6" class="edge"><title>theta&#45;&gt;3272</title>
<path fill="none" stroke="red" stroke-width="0.399532" d="M193.664,-437.349C190.966,-430.318 186.864,-419.631 182.874,-409.232"/>
<polygon fill="red" stroke="red" stroke-width="0.399532" points="186.134,-407.958 179.283,-399.876 179.598,-410.466 186.134,-407.958"/>
</g>
<!-- dtheta -->
<g id="node4" class="node"><title>dtheta</title>
<polygon fill="lightgray" stroke="black" points="78.2487,-455.387 39.2487,-455.387 39.2487,-437.387 78.2487,-437.387 78.2487,-455.387"/>
<text text-anchor="middle" x="58.7487" y="-444.187" font-family="Times New Roman,serif" font-size="9.00">dtheta</text>
</g>
<!-- 6414 -->
<g id="node7" class="node"><title>6414</title>
<ellipse fill="white" stroke="black" cx="103.749" cy="-376.638" rx="25" ry="25"/>
<text text-anchor="middle" x="103.749" y="-374.438" font-family="Times New Roman,serif" font-size="9.00">6414</text>
</g>
<!-- dtheta&#45;&gt;6414 -->
<g id="edge9" class="edge"><title>dtheta&#45;&gt;6414</title>
<path fill="none" stroke="green" stroke-width="0.329298" d="M64.0875,-437.349C69.208,-429.64 77.2478,-417.536 84.7541,-406.235"/>
<polygon fill="green" stroke="green" stroke-width="0.329298" points="87.7155,-408.102 90.333,-397.836 81.8846,-404.229 87.7155,-408.102"/>
</g>
<!-- 4484 -->
<g id="node8" class="node"><title>4484</title>
<ellipse fill="none" stroke="black" cx="57.7487" cy="-195.744" rx="25" ry="25"/>
<text text-anchor="middle" x="57.7487" y="-193.544" font-family="Times New Roman,serif" font-size="9.00">4484</text>
</g>
<!-- dtheta&#45;&gt;4484 -->
<g id="edge4" class="edge"><title>dtheta&#45;&gt;4484</title>
<path fill="none" stroke="red" stroke-width="0.172294" d="M51.8497,-437.287C45.2181,-428.925 35.6454,-415.187 31.7487,-401.387 14.972,-341.97 32.5804,-269.777 45.8717,-228.958"/>
<polygon fill="red" stroke="red" stroke-width="0.172294" points="49.2553,-229.877 49.1343,-219.283 42.6223,-227.64 49.2553,-229.877"/>
</g>
<!-- control&#45;&gt;4484 -->
<g id="edge11" class="edge"><title>control&#45;&gt;4484</title>
<path fill="none" stroke="red" stroke-width="0.229588" d="M90.4436,-259.608C85.1488,-249.428 79.0149,-237.634 73.5003,-227.03"/>
<polygon fill="red" stroke="red" stroke-width="0.229588" points="76.5695,-225.346 68.8501,-218.089 70.3592,-228.576 76.5695,-225.346"/>
</g>
<!-- 3272&#45;&gt;control -->
<g id="edge2" class="edge"><title>3272&#45;&gt;control</title>
<path fill="none" stroke="green" stroke-width="0.104954" d="M156.211,-356.446C147.813,-345.36 137.044,-331.145 127.451,-318.481"/>
<polygon fill="green" stroke="green" stroke-width="0.104954" points="130.182,-316.289 121.354,-310.431 124.602,-320.516 130.182,-316.289"/>
</g>
<!-- 6414&#45;&gt;control -->
<g id="edge10" class="edge"><title>6414&#45;&gt;control</title>
<path fill="none" stroke="green" stroke-width="0.396527" d="M103.749,-351.47C103.749,-343.688 103.749,-334.855 103.749,-326.283"/>
<polygon fill="green" stroke="green" stroke-width="0.396527" points="107.249,-326.045 103.749,-316.045 100.249,-326.045 107.249,-326.045"/>
</g>
<!-- 5120 -->
<g id="node9" class="node"><title>5120</title>
<ellipse fill="none" stroke="black" cx="24.7487" cy="-110.246" rx="25" ry="25"/>
<text text-anchor="middle" x="24.7487" y="-108.046" font-family="Times New Roman,serif" font-size="9.00">5120</text>
</g>
<!-- 4484&#45;&gt;5120 -->
<g id="edge5" class="edge"><title>4484&#45;&gt;5120</title>
<path fill="none" stroke="green" stroke-width="0.289143" d="M48.9053,-172.368C45.3543,-163.383 41.1952,-152.86 37.3386,-143.102"/>
<polygon fill="green" stroke="green" stroke-width="0.289143" points="40.5472,-141.697 33.6165,-133.684 34.0372,-144.27 40.5472,-141.697"/>
</g>
<!-- 6006 -->
<g id="node10" class="node"><title>6006</title>
<ellipse fill="none" stroke="black" cx="91.7487" cy="-110.246" rx="25" ry="25"/>
<text text-anchor="middle" x="91.7487" y="-108.046" font-family="Times New Roman,serif" font-size="9.00">6006</text>
</g>
<!-- 4484&#45;&gt;6006 -->
<g id="edge7" class="edge"><title>4484&#45;&gt;6006</title>
<path fill="none" stroke="green" stroke-width="0.464778" d="M66.8601,-172.368C70.5483,-163.31 74.873,-152.69 78.8734,-142.866"/>
<polygon fill="green" stroke="green" stroke-width="0.464778" points="82.2003,-143.976 82.7301,-133.394 75.7172,-141.336 82.2003,-143.976"/>
</g>
<!-- 5629 -->
<g id="node11" class="node"><title>5629</title>
<ellipse fill="none" stroke="black" cx="91.7487" cy="-24.7487" rx="25" ry="25"/>
<text text-anchor="middle" x="91.7487" y="-22.5487" font-family="Times New Roman,serif" font-size="9.00">5629</text>
</g>
<!-- 6006&#45;&gt;5629 -->
<g id="edge8" class="edge"><title>6006&#45;&gt;5629</title>
<path fill="none" stroke="green" stroke-width="0.107966" d="M91.7487,-85.0953C91.7487,-77.1512 91.7487,-68.1667 91.7487,-59.6364"/>
<polygon fill="green" stroke="green" stroke-width="0.107966" points="95.2488,-59.557 91.7487,-49.557 88.2488,-59.5571 95.2488,-59.557"/>
</g>
</g>
</svg>
