<?xml version="1.0" encoding="utf-8" standalone="no"?>
<!DOCTYPE svg PUBLIC "-//W3C//DTD SVG 1.1//EN"
  "http://www.w3.org/Graphics/SVG/1.1/DTD/svg11.dtd">
<!-- Created with matplotlib (https://matplotlib.org/) -->
<svg height="345.6pt" version="1.1" viewBox="0 0 460.8 345.6" width="460.8pt" xmlns="http://www.w3.org/2000/svg" xmlns:xlink="http://www.w3.org/1999/xlink">
 <defs>
  <style type="text/css">
*{stroke-linecap:butt;stroke-linejoin:round;}
  </style>
 </defs>
 <g id="figure_1">
  <g id="patch_1">
   <path d="M 0 345.6 
L 460.8 345.6 
L 460.8 0 
L 0 0 
z
" style="fill:#ffffff;"/>
  </g>
  <g id="axes_1">
   <g id="patch_2">
    <path d="M 57.6 307.584 
L 414.72 307.584 
L 414.72 41.472 
L 57.6 41.472 
z
" style="fill:#ffffff;"/>
   </g>
   <g id="PolyCollection_1">
    <path clip-path="url(#paeb7f827aa)" d="M 73.832727 206.806677 
L 73.832727 307.584 
L 91.869091 307.584 
L 109.905455 307.584 
L 127.941818 307.584 
L 145.978182 307.584 
L 164.014545 307.584 
L 182.050909 307.584 
L 200.087273 307.584 
L 218.123636 307.584 
L 236.16 307.584 
L 254.196364 307.584 
L 272.232727 307.584 
L 290.269091 307.584 
L 308.305455 307.584 
L 326.341818 307.584 
L 344.378182 307.584 
L 362.414545 307.584 
L 380.450909 307.584 
L 398.487273 307.584 
L 398.487273 298.603843 
L 398.487273 298.603843 
L 380.450909 300.599433 
L 362.414545 299.601638 
L 344.378182 304.590614 
L 326.341818 299.601638 
L 308.305455 304.590614 
L 290.269091 272.661165 
L 272.232727 269.66778 
L 254.196364 284.634709 
L 236.16 288.62589 
L 218.123636 268.669984 
L 200.087273 275.654551 
L 182.050909 288.62589 
L 164.014545 299.601638 
L 145.978182 302.595024 
L 127.941818 304.590614 
L 109.905455 300.599433 
L 91.869091 294.612661 
L 73.832727 206.806677 
z
" style="fill:#1f77b4;"/>
   </g>
   <g id="PolyCollection_2">
    <path clip-path="url(#paeb7f827aa)" d="M 73.832727 203.813291 
L 73.832727 206.806677 
L 91.869091 294.612661 
L 109.905455 300.599433 
L 127.941818 304.590614 
L 145.978182 302.595024 
L 164.014545 299.601638 
L 182.050909 288.62589 
L 200.087273 275.654551 
L 218.123636 268.669984 
L 236.16 288.62589 
L 254.196364 284.634709 
L 272.232727 269.66778 
L 290.269091 272.661165 
L 308.305455 304.590614 
L 326.341818 299.601638 
L 344.378182 304.590614 
L 362.414545 299.601638 
L 380.450909 300.599433 
L 398.487273 298.603843 
L 398.487273 284.634709 
L 398.487273 284.634709 
L 380.450909 282.639118 
L 362.414545 287.628094 
L 344.378182 284.634709 
L 326.341818 281.641323 
L 308.305455 292.617071 
L 290.269091 248.714079 
L 272.232727 234.744945 
L 254.196364 252.70526 
L 236.16 266.674394 
L 218.123636 263.681008 
L 200.087273 262.683213 
L 182.050909 260.687622 
L 164.014545 261.685417 
L 145.978182 282.639118 
L 127.941818 290.62148 
L 109.905455 287.628094 
L 91.869091 283.636913 
L 73.832727 203.813291 
z
" style="fill:#ff7f0e;"/>
   </g>
   <g id="PolyCollection_3">
    <path clip-path="url(#paeb7f827aa)" d="M 73.832727 162.903685 
L 73.832727 203.813291 
L 91.869091 283.636913 
L 109.905455 287.628094 
L 127.941818 290.62148 
L 145.978182 282.639118 
L 164.014545 261.685417 
L 182.050909 260.687622 
L 200.087273 262.683213 
L 218.123636 263.681008 
L 236.16 266.674394 
L 254.196364 252.70526 
L 272.232727 234.744945 
L 290.269091 248.714079 
L 308.305455 292.617071 
L 326.341818 281.641323 
L 344.378182 284.634709 
L 362.414545 287.628094 
L 380.450909 282.639118 
L 398.487273 284.634709 
L 398.487273 275.654551 
L 398.487273 275.654551 
L 380.450909 274.656756 
L 362.414545 276.652346 
L 344.378182 267.672189 
L 326.341818 272.661165 
L 308.305455 282.639118 
L 290.269091 232.749354 
L 272.232727 225.764787 
L 254.196364 248.714079 
L 236.16 256.696441 
L 218.123636 241.729512 
L 200.087273 257.694236 
L 182.050909 247.716283 
L 164.014545 252.70526 
L 145.978182 274.656756 
L 127.941818 281.641323 
L 109.905455 275.654551 
L 91.869091 256.696441 
L 73.832727 162.903685 
z
" style="fill:#2ca02c;"/>
   </g>
   <g id="PolyCollection_4">
    <path clip-path="url(#paeb7f827aa)" d="M 73.832727 138.956598 
L 73.832727 162.903685 
L 91.869091 256.696441 
L 109.905455 275.654551 
L 127.941818 281.641323 
L 145.978182 274.656756 
L 164.014545 252.70526 
L 182.050909 247.716283 
L 200.087273 257.694236 
L 218.123636 241.729512 
L 236.16 256.696441 
L 254.196364 248.714079 
L 272.232727 225.764787 
L 290.269091 232.749354 
L 308.305455 282.639118 
L 326.341818 272.661165 
L 344.378182 267.672189 
L 362.414545 276.652346 
L 380.450909 274.656756 
L 398.487273 275.654551 
L 398.487273 254.70085 
L 398.487273 254.70085 
L 380.450909 257.694236 
L 362.414545 273.658961 
L 344.378182 238.736126 
L 326.341818 251.707465 
L 308.305455 265.676598 
L 290.269091 222.771402 
L 272.232727 213.791244 
L 254.196364 227.760378 
L 236.16 233.74715 
L 218.123636 219.778016 
L 200.087273 228.758173 
L 182.050909 191.839748 
L 164.014545 236.740535 
L 145.978182 253.703055 
L 127.941818 246.718488 
L 109.905455 231.751559 
L 91.869091 238.736126 
L 73.832727 138.956598 
z
" style="fill:#d62728;"/>
   </g>
   <g id="PolyCollection_5">
    <path clip-path="url(#paeb7f827aa)" d="M 73.832727 132.969827 
L 73.832727 138.956598 
L 91.869091 238.736126 
L 109.905455 231.751559 
L 127.941818 246.718488 
L 145.978182 253.703055 
L 164.014545 236.740535 
L 182.050909 191.839748 
L 200.087273 228.758173 
L 218.123636 219.778016 
L 236.16 233.74715 
L 254.196364 227.760378 
L 272.232727 213.791244 
L 290.269091 222.771402 
L 308.305455 265.676598 
L 326.341818 251.707465 
L 344.378182 238.736126 
L 362.414545 273.658961 
L 380.450909 257.694236 
L 398.487273 254.70085 
L 398.487273 223.769197 
L 398.487273 223.769197 
L 380.450909 189.844157 
L 362.414545 261.685417 
L 344.378182 214.789039 
L 326.341818 224.766992 
L 308.305455 240.731717 
L 290.269091 193.835339 
L 272.232727 189.844157 
L 254.196364 212.793449 
L 236.16 213.791244 
L 218.123636 206.806677 
L 200.087273 220.775811 
L 182.050909 184.855181 
L 164.014545 211.795654 
L 145.978182 221.773606 
L 127.941818 210.797858 
L 109.905455 193.835339 
L 91.869091 182.859591 
L 73.832727 132.969827 
z
" style="fill:#9467bd;"/>
   </g>
   <g id="PolyCollection_6">
    <path clip-path="url(#paeb7f827aa)" d="M 73.832727 131.972031 
L 73.832727 132.969827 
L 91.869091 182.859591 
L 109.905455 193.835339 
L 127.941818 210.797858 
L 145.978182 221.773606 
L 164.014545 211.795654 
L 182.050909 184.855181 
L 200.087273 220.775811 
L 218.123636 206.806677 
L 236.16 213.791244 
L 254.196364 212.793449 
L 272.232727 189.844157 
L 290.269091 193.835339 
L 308.305455 240.731717 
L 326.341818 224.766992 
L 344.378182 214.789039 
L 362.414545 261.685417 
L 380.450909 189.844157 
L 398.487273 223.769197 
L 398.487273 218.78022 
L 398.487273 218.78022 
L 380.450909 185.852976 
L 362.414545 256.696441 
L 344.378182 210.797858 
L 326.341818 221.773606 
L 308.305455 236.740535 
L 290.269091 191.839748 
L 272.232727 186.850772 
L 254.196364 210.797858 
L 236.16 210.797858 
L 218.123636 204.811087 
L 200.087273 217.782425 
L 182.050909 182.859591 
L 164.014545 208.802268 
L 145.978182 217.782425 
L 127.941818 204.811087 
L 109.905455 185.852976 
L 91.869091 171.883843 
L 73.832727 131.972031 
z
" style="fill:#8c564b;"/>
   </g>
   <g id="PolyCollection_7">
    <path clip-path="url(#paeb7f827aa)" d="M 73.832727 109.02274 
L 73.832727 131.972031 
L 91.869091 171.883843 
L 109.905455 185.852976 
L 127.941818 204.811087 
L 145.978182 217.782425 
L 164.014545 208.802268 
L 182.050909 182.859591 
L 200.087273 217.782425 
L 218.123636 204.811087 
L 236.16 210.797858 
L 254.196364 210.797858 
L 272.232727 186.850772 
L 290.269091 191.839748 
L 308.305455 236.740535 
L 326.341818 221.773606 
L 344.378182 210.797858 
L 362.414545 256.696441 
L 380.450909 185.852976 
L 398.487273 218.78022 
L 398.487273 208.802268 
L 398.487273 208.802268 
L 380.450909 181.861795 
L 362.414545 237.738331 
L 344.378182 203.813291 
L 326.341818 200.819906 
L 308.305455 219.778016 
L 290.269091 177.870614 
L 272.232727 165.897071 
L 254.196364 181.861795 
L 236.16 189.844157 
L 218.123636 185.852976 
L 200.087273 195.830929 
L 182.050909 163.90148 
L 164.014545 195.830929 
L 145.978182 190.841953 
L 127.941818 183.857386 
L 109.905455 164.899276 
L 91.869091 144.94337 
L 73.832727 109.02274 
z
" style="fill:#e377c2;"/>
   </g>
   <g id="PolyCollection_8">
    <path clip-path="url(#paeb7f827aa)" d="M 73.832727 108.024945 
L 73.832727 109.02274 
L 91.869091 144.94337 
L 109.905455 164.899276 
L 127.941818 183.857386 
L 145.978182 190.841953 
L 164.014545 195.830929 
L 182.050909 163.90148 
L 200.087273 195.830929 
L 218.123636 185.852976 
L 236.16 189.844157 
L 254.196364 181.861795 
L 272.232727 165.897071 
L 290.269091 177.870614 
L 308.305455 219.778016 
L 326.341818 200.819906 
L 344.378182 203.813291 
L 362.414545 237.738331 
L 380.450909 181.861795 
L 398.487273 208.802268 
L 398.487273 198.824315 
L 398.487273 198.824315 
L 380.450909 172.881638 
L 362.414545 230.753764 
L 344.378182 193.835339 
L 326.341818 191.839748 
L 308.305455 211.795654 
L 290.269091 169.888252 
L 272.232727 157.914709 
L 254.196364 177.870614 
L 236.16 185.852976 
L 218.123636 181.861795 
L 200.087273 189.844157 
L 182.050909 154.921323 
L 164.014545 187.848567 
L 145.978182 181.861795 
L 127.941818 176.872819 
L 109.905455 158.912504 
L 91.869091 140.952189 
L 73.832727 108.024945 
z
" style="fill:#7f7f7f;"/>
   </g>
   <g id="PolyCollection_9">
    <path clip-path="url(#paeb7f827aa)" d="M 73.832727 103.035969 
L 73.832727 108.024945 
L 91.869091 140.952189 
L 109.905455 158.912504 
L 127.941818 176.872819 
L 145.978182 181.861795 
L 164.014545 187.848567 
L 182.050909 154.921323 
L 200.087273 189.844157 
L 218.123636 181.861795 
L 236.16 185.852976 
L 254.196364 177.870614 
L 272.232727 157.914709 
L 290.269091 169.888252 
L 308.305455 211.795654 
L 326.341818 191.839748 
L 344.378182 193.835339 
L 362.414545 230.753764 
L 380.450909 172.881638 
L 398.487273 198.824315 
L 398.487273 157.914709 
L 398.487273 157.914709 
L 380.450909 150.930142 
L 362.414545 191.839748 
L 344.378182 170.886047 
L 326.341818 170.886047 
L 308.305455 189.844157 
L 290.269091 156.916913 
L 272.232727 149.932346 
L 254.196364 131.972031 
L 236.16 175.875024 
L 218.123636 179.866205 
L 200.087273 185.852976 
L 182.050909 146.938961 
L 164.014545 184.855181 
L 145.978182 172.881638 
L 127.941818 162.903685 
L 109.905455 146.938961 
L 91.869091 128.978646 
L 73.832727 103.035969 
z
" style="fill:#bcbd22;"/>
   </g>
   <g id="PolyCollection_10">
    <path clip-path="url(#paeb7f827aa)" d="M 73.832727 102.038173 
L 73.832727 103.035969 
L 91.869091 128.978646 
L 109.905455 146.938961 
L 127.941818 162.903685 
L 145.978182 172.881638 
L 164.014545 184.855181 
L 182.050909 146.938961 
L 200.087273 185.852976 
L 218.123636 179.866205 
L 236.16 175.875024 
L 254.196364 131.972031 
L 272.232727 149.932346 
L 290.269091 156.916913 
L 308.305455 189.844157 
L 326.341818 170.886047 
L 344.378182 170.886047 
L 362.414545 191.839748 
L 380.450909 150.930142 
L 398.487273 157.914709 
L 398.487273 154.921323 
L 398.487273 154.921323 
L 380.450909 148.934551 
L 362.414545 189.844157 
L 344.378182 167.892661 
L 326.341818 168.890457 
L 308.305455 186.850772 
L 290.269091 151.927937 
L 272.232727 145.941165 
L 254.196364 128.978646 
L 236.16 173.879433 
L 218.123636 177.870614 
L 200.087273 182.859591 
L 182.050909 142.94778 
L 164.014545 181.861795 
L 145.978182 168.890457 
L 127.941818 157.914709 
L 109.905455 144.94337 
L 91.869091 127.98085 
L 73.832727 102.038173 
z
" style="fill:#17becf;"/>
   </g>
   <g id="PolyCollection_11">
    <path clip-path="url(#paeb7f827aa)" d="M 73.832727 78.091087 
L 73.832727 102.038173 
L 91.869091 127.98085 
L 109.905455 144.94337 
L 127.941818 157.914709 
L 145.978182 168.890457 
L 164.014545 181.861795 
L 182.050909 142.94778 
L 200.087273 182.859591 
L 218.123636 177.870614 
L 236.16 173.879433 
L 254.196364 128.978646 
L 272.232727 145.941165 
L 290.269091 151.927937 
L 308.305455 186.850772 
L 326.341818 168.890457 
L 344.378182 167.892661 
L 362.414545 189.844157 
L 380.450909 148.934551 
L 398.487273 154.921323 
L 398.487273 145.941165 
L 398.487273 145.941165 
L 380.450909 146.938961 
L 362.414545 177.870614 
L 344.378182 153.923528 
L 326.341818 150.930142 
L 308.305455 169.888252 
L 290.269091 134.965417 
L 272.232727 135.963213 
L 254.196364 121.994079 
L 236.16 154.921323 
L 218.123636 155.919118 
L 200.087273 163.90148 
L 182.050909 119.000693 
L 164.014545 136.961008 
L 145.978182 122.991874 
L 127.941818 116.007307 
L 109.905455 115.009512 
L 91.869091 103.035969 
L 73.832727 78.091087 
z
" style="fill:#1f77b4;"/>
   </g>
   <g id="PolyCollection_12">
    <path clip-path="url(#paeb7f827aa)" d="M 73.832727 77.093291 
L 73.832727 78.091087 
L 91.869091 103.035969 
L 109.905455 115.009512 
L 127.941818 116.007307 
L 145.978182 122.991874 
L 164.014545 136.961008 
L 182.050909 119.000693 
L 200.087273 163.90148 
L 218.123636 155.919118 
L 236.16 154.921323 
L 254.196364 121.994079 
L 272.232727 135.963213 
L 290.269091 134.965417 
L 308.305455 169.888252 
L 326.341818 150.930142 
L 344.378182 153.923528 
L 362.414545 177.870614 
L 380.450909 146.938961 
L 398.487273 145.941165 
L 398.487273 141.949984 
L 398.487273 141.949984 
L 380.450909 144.94337 
L 362.414545 173.879433 
L 344.378182 150.930142 
L 326.341818 148.934551 
L 308.305455 167.892661 
L 290.269091 132.969827 
L 272.232727 132.969827 
L 254.196364 119.998488 
L 236.16 152.925732 
L 218.123636 152.925732 
L 200.087273 160.908094 
L 182.050909 114.011717 
L 164.014545 132.969827 
L 145.978182 119.998488 
L 127.941818 112.016126 
L 109.905455 110.020535 
L 91.869091 96.051402 
L 73.832727 77.093291 
z
" style="fill:#ff7f0e;"/>
   </g>
   <g id="PolyCollection_13">
    <path clip-path="url(#paeb7f827aa)" d="M 73.832727 68.113134 
L 73.832727 77.093291 
L 91.869091 96.051402 
L 109.905455 110.020535 
L 127.941818 112.016126 
L 145.978182 119.998488 
L 164.014545 132.969827 
L 182.050909 114.011717 
L 200.087273 160.908094 
L 218.123636 152.925732 
L 236.16 152.925732 
L 254.196364 119.998488 
L 272.232727 132.969827 
L 290.269091 132.969827 
L 308.305455 167.892661 
L 326.341818 148.934551 
L 344.378182 150.930142 
L 362.414545 173.879433 
L 380.450909 144.94337 
L 398.487273 141.949984 
L 398.487273 88.069039 
L 398.487273 88.069039 
L 380.450909 101.040378 
L 362.414545 96.051402 
L 344.378182 88.069039 
L 326.341818 130.974236 
L 308.305455 112.016126 
L 290.269091 125.98526 
L 272.232727 125.98526 
L 254.196364 119.000693 
L 236.16 119.998488 
L 218.123636 136.961008 
L 200.087273 147.936756 
L 182.050909 107.02715 
L 164.014545 85.075654 
L 145.978182 81.084472 
L 127.941818 89.066835 
L 109.905455 91.062425 
L 91.869091 81.084472 
L 73.832727 68.113134 
z
" style="fill:#2ca02c;"/>
   </g>
   <g id="PolyCollection_14">
    <path clip-path="url(#paeb7f827aa)" d="M 73.832727 65.119748 
L 73.832727 68.113134 
L 91.869091 81.084472 
L 109.905455 91.062425 
L 127.941818 89.066835 
L 145.978182 81.084472 
L 164.014545 85.075654 
L 182.050909 107.02715 
L 200.087273 147.936756 
L 218.123636 136.961008 
L 236.16 119.998488 
L 254.196364 119.000693 
L 272.232727 125.98526 
L 290.269091 125.98526 
L 308.305455 112.016126 
L 326.341818 130.974236 
L 344.378182 88.069039 
L 362.414545 96.051402 
L 380.450909 101.040378 
L 398.487273 88.069039 
L 398.487273 82.082268 
L 398.487273 82.082268 
L 380.450909 97.049197 
L 362.414545 91.062425 
L 344.378182 81.084472 
L 326.341818 122.991874 
L 308.305455 106.029354 
L 290.269091 119.998488 
L 272.232727 119.998488 
L 254.196364 115.009512 
L 236.16 114.011717 
L 218.123636 133.967622 
L 200.087273 143.945575 
L 182.050909 102.038173 
L 164.014545 81.084472 
L 145.978182 75.097701 
L 127.941818 82.082268 
L 109.905455 86.073449 
L 91.869091 80.086677 
L 73.832727 65.119748 
z
" style="fill:#d62728;"/>
   </g>
   <g id="PolyCollection_15">
    <path clip-path="url(#paeb7f827aa)" d="M 73.832727 64.121953 
L 73.832727 65.119748 
L 91.869091 80.086677 
L 109.905455 86.073449 
L 127.941818 82.082268 
L 145.978182 75.097701 
L 164.014545 81.084472 
L 182.050909 102.038173 
L 200.087273 143.945575 
L 218.123636 133.967622 
L 236.16 114.011717 
L 254.196364 115.009512 
L 272.232727 119.998488 
L 290.269091 119.998488 
L 308.305455 106.029354 
L 326.341818 122.991874 
L 344.378182 81.084472 
L 362.414545 91.062425 
L 380.450909 97.049197 
L 398.487273 82.082268 
L 398.487273 71.10652 
L 398.487273 71.10652 
L 380.450909 85.075654 
L 362.414545 77.093291 
L 344.378182 67.115339 
L 326.341818 107.02715 
L 308.305455 90.06463 
L 290.269091 106.029354 
L 272.232727 105.031559 
L 254.196364 98.046992 
L 236.16 99.044787 
L 218.123636 122.991874 
L 200.087273 132.969827 
L 182.050909 87.071244 
L 164.014545 73.10211 
L 145.978182 69.110929 
L 127.941818 74.099906 
L 109.905455 76.095496 
L 91.869091 72.104315 
L 73.832727 64.121953 
z
" style="fill:#9467bd;"/>
   </g>
   <g id="PolyCollection_16">
    <path clip-path="url(#paeb7f827aa)" d="M 73.832727 62.126362 
L 73.832727 64.121953 
L 91.869091 72.104315 
L 109.905455 76.095496 
L 127.941818 74.099906 
L 145.978182 69.110929 
L 164.014545 73.10211 
L 182.050909 87.071244 
L 200.087273 132.969827 
L 218.123636 122.991874 
L 236.16 99.044787 
L 254.196364 98.046992 
L 272.232727 105.031559 
L 290.269091 106.029354 
L 308.305455 90.06463 
L 326.341818 107.02715 
L 344.378182 67.115339 
L 362.414545 77.093291 
L 380.450909 85.075654 
L 398.487273 71.10652 
L 398.487273 62.126362 
L 398.487273 62.126362 
L 380.450909 63.124157 
L 362.414545 61.128567 
L 344.378182 58.135181 
L 326.341818 62.126362 
L 308.305455 62.126362 
L 290.269091 61.128567 
L 272.232727 61.128567 
L 254.196364 63.124157 
L 236.16 65.119748 
L 218.123636 67.115339 
L 200.087273 67.115339 
L 182.050909 64.121953 
L 164.014545 68.113134 
L 145.978182 67.115339 
L 127.941818 67.115339 
L 109.905455 67.115339 
L 91.869091 68.113134 
L 73.832727 62.126362 
z
" style="fill:#8c564b;"/>
   </g>
   <g id="PolyCollection_17">
    <path clip-path="url(#paeb7f827aa)" d="M 73.832727 59.132976 
L 73.832727 62.126362 
L 91.869091 68.113134 
L 109.905455 67.115339 
L 127.941818 67.115339 
L 145.978182 67.115339 
L 164.014545 68.113134 
L 182.050909 64.121953 
L 200.087273 67.115339 
L 218.123636 67.115339 
L 236.16 65.119748 
L 254.196364 63.124157 
L 272.232727 61.128567 
L 290.269091 61.128567 
L 308.305455 62.126362 
L 326.341818 62.126362 
L 344.378182 58.135181 
L 362.414545 61.128567 
L 380.450909 63.124157 
L 398.487273 62.126362 
L 398.487273 59.132976 
L 398.487273 59.132976 
L 380.450909 61.128567 
L 362.414545 59.132976 
L 344.378182 56.139591 
L 326.341818 59.132976 
L 308.305455 58.135181 
L 290.269091 58.135181 
L 272.232727 59.132976 
L 254.196364 60.130772 
L 236.16 63.124157 
L 218.123636 65.119748 
L 200.087273 64.121953 
L 182.050909 62.126362 
L 164.014545 66.117543 
L 145.978182 64.121953 
L 127.941818 65.119748 
L 109.905455 63.124157 
L 91.869091 63.124157 
L 73.832727 59.132976 
z
" style="fill:#e377c2;"/>
   </g>
   <g id="PolyCollection_18">
    <path clip-path="url(#paeb7f827aa)" d="M 73.832727 58.135181 
L 73.832727 59.132976 
L 91.869091 63.124157 
L 109.905455 63.124157 
L 127.941818 65.119748 
L 145.978182 64.121953 
L 164.014545 66.117543 
L 182.050909 62.126362 
L 200.087273 64.121953 
L 218.123636 65.119748 
L 236.16 63.124157 
L 254.196364 60.130772 
L 272.232727 59.132976 
L 290.269091 58.135181 
L 308.305455 58.135181 
L 326.341818 59.132976 
L 344.378182 56.139591 
L 362.414545 59.132976 
L 380.450909 61.128567 
L 398.487273 59.132976 
L 398.487273 57.137386 
L 398.487273 57.137386 
L 380.450909 59.132976 
L 362.414545 57.137386 
L 344.378182 55.141795 
L 326.341818 56.139591 
L 308.305455 54.144 
L 290.269091 55.141795 
L 272.232727 55.141795 
L 254.196364 57.137386 
L 236.16 59.132976 
L 218.123636 60.130772 
L 200.087273 61.128567 
L 182.050909 58.135181 
L 164.014545 61.128567 
L 145.978182 60.130772 
L 127.941818 60.130772 
L 109.905455 57.137386 
L 91.869091 58.135181 
L 73.832727 58.135181 
z
" style="fill:#7f7f7f;"/>
   </g>
   <g id="matplotlib.axis_1">
    <g id="xtick_1">
     <g id="line2d_1">
      <defs>
       <path d="M 0 0 
L 0 3.5 
" id="m6a60a0e1a8" style="stroke:#000000;stroke-width:0.8;"/>
      </defs>
      <g>
       <use style="stroke:#000000;stroke-width:0.8;" x="73.832727" xlink:href="#m6a60a0e1a8" y="307.584"/>
      </g>
     </g>
     <g id="text_1">
      <!-- 0.0 -->
      <defs>
       <path d="M 31.78125 66.40625 
Q 24.171875 66.40625 20.328125 58.90625 
Q 16.5 51.421875 16.5 36.375 
Q 16.5 21.390625 20.328125 13.890625 
Q 24.171875 6.390625 31.78125 6.390625 
Q 39.453125 6.390625 43.28125 13.890625 
Q 47.125 21.390625 47.125 36.375 
Q 47.125 51.421875 43.28125 58.90625 
Q 39.453125 66.40625 31.78125 66.40625 
z
M 31.78125 74.21875 
Q 44.046875 74.21875 50.515625 64.515625 
Q 56.984375 54.828125 56.984375 36.375 
Q 56.984375 17.96875 50.515625 8.265625 
Q 44.046875 -1.421875 31.78125 -1.421875 
Q 19.53125 -1.421875 13.0625 8.265625 
Q 6.59375 17.96875 6.59375 36.375 
Q 6.59375 54.828125 13.0625 64.515625 
Q 19.53125 74.21875 31.78125 74.21875 
z
" id="DejaVuSans-48"/>
       <path d="M 10.6875 12.40625 
L 21 12.40625 
L 21 0 
L 10.6875 0 
z
" id="DejaVuSans-46"/>
      </defs>
      <g transform="translate(65.881165 322.182437)scale(0.1 -0.1)">
       <use xlink:href="#DejaVuSans-48"/>
       <use x="63.623047" xlink:href="#DejaVuSans-46"/>
       <use x="95.410156" xlink:href="#DejaVuSans-48"/>
      </g>
     </g>
    </g>
    <g id="xtick_2">
     <g id="line2d_2">
      <g>
       <use style="stroke:#000000;stroke-width:0.8;" x="118.923636" xlink:href="#m6a60a0e1a8" y="307.584"/>
      </g>
     </g>
     <g id="text_2">
      <!-- 2.5 -->
      <defs>
       <path d="M 19.1875 8.296875 
L 53.609375 8.296875 
L 53.609375 0 
L 7.328125 0 
L 7.328125 8.296875 
Q 12.9375 14.109375 22.625 23.890625 
Q 32.328125 33.6875 34.8125 36.53125 
Q 39.546875 41.84375 41.421875 45.53125 
Q 43.3125 49.21875 43.3125 52.78125 
Q 43.3125 58.59375 39.234375 62.25 
Q 35.15625 65.921875 28.609375 65.921875 
Q 23.96875 65.921875 18.8125 64.3125 
Q 13.671875 62.703125 7.8125 59.421875 
L 7.8125 69.390625 
Q 13.765625 71.78125 18.9375 73 
Q 24.125 74.21875 28.421875 74.21875 
Q 39.75 74.21875 46.484375 68.546875 
Q 53.21875 62.890625 53.21875 53.421875 
Q 53.21875 48.921875 51.53125 44.890625 
Q 49.859375 40.875 45.40625 35.40625 
Q 44.1875 33.984375 37.640625 27.21875 
Q 31.109375 20.453125 19.1875 8.296875 
z
" id="DejaVuSans-50"/>
       <path d="M 10.796875 72.90625 
L 49.515625 72.90625 
L 49.515625 64.59375 
L 19.828125 64.59375 
L 19.828125 46.734375 
Q 21.96875 47.46875 24.109375 47.828125 
Q 26.265625 48.1875 28.421875 48.1875 
Q 40.625 48.1875 47.75 41.5 
Q 54.890625 34.8125 54.890625 23.390625 
Q 54.890625 11.625 47.5625 5.09375 
Q 40.234375 -1.421875 26.90625 -1.421875 
Q 22.3125 -1.421875 17.546875 -0.640625 
Q 12.796875 0.140625 7.71875 1.703125 
L 7.71875 11.625 
Q 12.109375 9.234375 16.796875 8.0625 
Q 21.484375 6.890625 26.703125 6.890625 
Q 35.15625 6.890625 40.078125 11.328125 
Q 45.015625 15.765625 45.015625 23.390625 
Q 45.015625 31 40.078125 35.4375 
Q 35.15625 39.890625 26.703125 39.890625 
Q 22.75 39.890625 18.8125 39.015625 
Q 14.890625 38.140625 10.796875 36.28125 
z
" id="DejaVuSans-53"/>
      </defs>
      <g transform="translate(110.972074 322.182437)scale(0.1 -0.1)">
       <use xlink:href="#DejaVuSans-50"/>
       <use x="63.623047" xlink:href="#DejaVuSans-46"/>
       <use x="95.410156" xlink:href="#DejaVuSans-53"/>
      </g>
     </g>
    </g>
    <g id="xtick_3">
     <g id="line2d_3">
      <g>
       <use style="stroke:#000000;stroke-width:0.8;" x="164.014545" xlink:href="#m6a60a0e1a8" y="307.584"/>
      </g>
     </g>
     <g id="text_3">
      <!-- 5.0 -->
      <g transform="translate(156.062983 322.182437)scale(0.1 -0.1)">
       <use xlink:href="#DejaVuSans-53"/>
       <use x="63.623047" xlink:href="#DejaVuSans-46"/>
       <use x="95.410156" xlink:href="#DejaVuSans-48"/>
      </g>
     </g>
    </g>
    <g id="xtick_4">
     <g id="line2d_4">
      <g>
       <use style="stroke:#000000;stroke-width:0.8;" x="209.105455" xlink:href="#m6a60a0e1a8" y="307.584"/>
      </g>
     </g>
     <g id="text_4">
      <!-- 7.5 -->
      <defs>
       <path d="M 8.203125 72.90625 
L 55.078125 72.90625 
L 55.078125 68.703125 
L 28.609375 0 
L 18.3125 0 
L 43.21875 64.59375 
L 8.203125 64.59375 
z
" id="DejaVuSans-55"/>
      </defs>
      <g transform="translate(201.153892 322.182437)scale(0.1 -0.1)">
       <use xlink:href="#DejaVuSans-55"/>
       <use x="63.623047" xlink:href="#DejaVuSans-46"/>
       <use x="95.410156" xlink:href="#DejaVuSans-53"/>
      </g>
     </g>
    </g>
    <g id="xtick_5">
     <g id="line2d_5">
      <g>
       <use style="stroke:#000000;stroke-width:0.8;" x="254.196364" xlink:href="#m6a60a0e1a8" y="307.584"/>
      </g>
     </g>
     <g id="text_5">
      <!-- 10.0 -->
      <defs>
       <path d="M 12.40625 8.296875 
L 28.515625 8.296875 
L 28.515625 63.921875 
L 10.984375 60.40625 
L 10.984375 69.390625 
L 28.421875 72.90625 
L 38.28125 72.90625 
L 38.28125 8.296875 
L 54.390625 8.296875 
L 54.390625 0 
L 12.40625 0 
z
" id="DejaVuSans-49"/>
      </defs>
      <g transform="translate(243.063551 322.182437)scale(0.1 -0.1)">
       <use xlink:href="#DejaVuSans-49"/>
       <use x="63.623047" xlink:href="#DejaVuSans-48"/>
       <use x="127.246094" xlink:href="#DejaVuSans-46"/>
       <use x="159.033203" xlink:href="#DejaVuSans-48"/>
      </g>
     </g>
    </g>
    <g id="xtick_6">
     <g id="line2d_6">
      <g>
       <use style="stroke:#000000;stroke-width:0.8;" x="299.287273" xlink:href="#m6a60a0e1a8" y="307.584"/>
      </g>
     </g>
     <g id="text_6">
      <!-- 12.5 -->
      <g transform="translate(288.15446 322.182437)scale(0.1 -0.1)">
       <use xlink:href="#DejaVuSans-49"/>
       <use x="63.623047" xlink:href="#DejaVuSans-50"/>
       <use x="127.246094" xlink:href="#DejaVuSans-46"/>
       <use x="159.033203" xlink:href="#DejaVuSans-53"/>
      </g>
     </g>
    </g>
    <g id="xtick_7">
     <g id="line2d_7">
      <g>
       <use style="stroke:#000000;stroke-width:0.8;" x="344.378182" xlink:href="#m6a60a0e1a8" y="307.584"/>
      </g>
     </g>
     <g id="text_7">
      <!-- 15.0 -->
      <g transform="translate(333.245369 322.182437)scale(0.1 -0.1)">
       <use xlink:href="#DejaVuSans-49"/>
       <use x="63.623047" xlink:href="#DejaVuSans-53"/>
       <use x="127.246094" xlink:href="#DejaVuSans-46"/>
       <use x="159.033203" xlink:href="#DejaVuSans-48"/>
      </g>
     </g>
    </g>
    <g id="xtick_8">
     <g id="line2d_8">
      <g>
       <use style="stroke:#000000;stroke-width:0.8;" x="389.469091" xlink:href="#m6a60a0e1a8" y="307.584"/>
      </g>
     </g>
     <g id="text_8">
      <!-- 17.5 -->
      <g transform="translate(378.336278 322.182437)scale(0.1 -0.1)">
       <use xlink:href="#DejaVuSans-49"/>
       <use x="63.623047" xlink:href="#DejaVuSans-55"/>
       <use x="127.246094" xlink:href="#DejaVuSans-46"/>
       <use x="159.033203" xlink:href="#DejaVuSans-53"/>
      </g>
     </g>
    </g>
    <g id="text_9">
     <!-- Generations -->
     <defs>
      <path d="M 59.515625 10.40625 
L 59.515625 29.984375 
L 43.40625 29.984375 
L 43.40625 38.09375 
L 69.28125 38.09375 
L 69.28125 6.78125 
Q 63.578125 2.734375 56.6875 0.65625 
Q 49.8125 -1.421875 42 -1.421875 
Q 24.90625 -1.421875 15.25 8.5625 
Q 5.609375 18.5625 5.609375 36.375 
Q 5.609375 54.25 15.25 64.234375 
Q 24.90625 74.21875 42 74.21875 
Q 49.125 74.21875 55.546875 72.453125 
Q 61.96875 70.703125 67.390625 67.28125 
L 67.390625 56.78125 
Q 61.921875 61.421875 55.765625 63.765625 
Q 49.609375 66.109375 42.828125 66.109375 
Q 29.4375 66.109375 22.71875 58.640625 
Q 16.015625 51.171875 16.015625 36.375 
Q 16.015625 21.625 22.71875 14.15625 
Q 29.4375 6.6875 42.828125 6.6875 
Q 48.046875 6.6875 52.140625 7.59375 
Q 56.25 8.5 59.515625 10.40625 
z
" id="DejaVuSans-71"/>
      <path d="M 56.203125 29.59375 
L 56.203125 25.203125 
L 14.890625 25.203125 
Q 15.484375 15.921875 20.484375 11.0625 
Q 25.484375 6.203125 34.421875 6.203125 
Q 39.59375 6.203125 44.453125 7.46875 
Q 49.3125 8.734375 54.109375 11.28125 
L 54.109375 2.78125 
Q 49.265625 0.734375 44.1875 -0.34375 
Q 39.109375 -1.421875 33.890625 -1.421875 
Q 20.796875 -1.421875 13.15625 6.1875 
Q 5.515625 13.8125 5.515625 26.8125 
Q 5.515625 40.234375 12.765625 48.109375 
Q 20.015625 56 32.328125 56 
Q 43.359375 56 49.78125 48.890625 
Q 56.203125 41.796875 56.203125 29.59375 
z
M 47.21875 32.234375 
Q 47.125 39.59375 43.09375 43.984375 
Q 39.0625 48.390625 32.421875 48.390625 
Q 24.90625 48.390625 20.390625 44.140625 
Q 15.875 39.890625 15.1875 32.171875 
z
" id="DejaVuSans-101"/>
      <path d="M 54.890625 33.015625 
L 54.890625 0 
L 45.90625 0 
L 45.90625 32.71875 
Q 45.90625 40.484375 42.875 44.328125 
Q 39.84375 48.1875 33.796875 48.1875 
Q 26.515625 48.1875 22.3125 43.546875 
Q 18.109375 38.921875 18.109375 30.90625 
L 18.109375 0 
L 9.078125 0 
L 9.078125 54.6875 
L 18.109375 54.6875 
L 18.109375 46.1875 
Q 21.34375 51.125 25.703125 53.5625 
Q 30.078125 56 35.796875 56 
Q 45.21875 56 50.046875 50.171875 
Q 54.890625 44.34375 54.890625 33.015625 
z
" id="DejaVuSans-110"/>
      <path d="M 41.109375 46.296875 
Q 39.59375 47.171875 37.8125 47.578125 
Q 36.03125 48 33.890625 48 
Q 26.265625 48 22.1875 43.046875 
Q 18.109375 38.09375 18.109375 28.8125 
L 18.109375 0 
L 9.078125 0 
L 9.078125 54.6875 
L 18.109375 54.6875 
L 18.109375 46.1875 
Q 20.953125 51.171875 25.484375 53.578125 
Q 30.03125 56 36.53125 56 
Q 37.453125 56 38.578125 55.875 
Q 39.703125 55.765625 41.0625 55.515625 
z
" id="DejaVuSans-114"/>
      <path d="M 34.28125 27.484375 
Q 23.390625 27.484375 19.1875 25 
Q 14.984375 22.515625 14.984375 16.5 
Q 14.984375 11.71875 18.140625 8.90625 
Q 21.296875 6.109375 26.703125 6.109375 
Q 34.1875 6.109375 38.703125 11.40625 
Q 43.21875 16.703125 43.21875 25.484375 
L 43.21875 27.484375 
z
M 52.203125 31.203125 
L 52.203125 0 
L 43.21875 0 
L 43.21875 8.296875 
Q 40.140625 3.328125 35.546875 0.953125 
Q 30.953125 -1.421875 24.3125 -1.421875 
Q 15.921875 -1.421875 10.953125 3.296875 
Q 6 8.015625 6 15.921875 
Q 6 25.140625 12.171875 29.828125 
Q 18.359375 34.515625 30.609375 34.515625 
L 43.21875 34.515625 
L 43.21875 35.40625 
Q 43.21875 41.609375 39.140625 45 
Q 35.0625 48.390625 27.6875 48.390625 
Q 23 48.390625 18.546875 47.265625 
Q 14.109375 46.140625 10.015625 43.890625 
L 10.015625 52.203125 
Q 14.9375 54.109375 19.578125 55.046875 
Q 24.21875 56 28.609375 56 
Q 40.484375 56 46.34375 49.84375 
Q 52.203125 43.703125 52.203125 31.203125 
z
" id="DejaVuSans-97"/>
      <path d="M 18.3125 70.21875 
L 18.3125 54.6875 
L 36.8125 54.6875 
L 36.8125 47.703125 
L 18.3125 47.703125 
L 18.3125 18.015625 
Q 18.3125 11.328125 20.140625 9.421875 
Q 21.96875 7.515625 27.59375 7.515625 
L 36.8125 7.515625 
L 36.8125 0 
L 27.59375 0 
Q 17.1875 0 13.234375 3.875 
Q 9.28125 7.765625 9.28125 18.015625 
L 9.28125 47.703125 
L 2.6875 47.703125 
L 2.6875 54.6875 
L 9.28125 54.6875 
L 9.28125 70.21875 
z
" id="DejaVuSans-116"/>
      <path d="M 9.421875 54.6875 
L 18.40625 54.6875 
L 18.40625 0 
L 9.421875 0 
z
M 9.421875 75.984375 
L 18.40625 75.984375 
L 18.40625 64.59375 
L 9.421875 64.59375 
z
" id="DejaVuSans-105"/>
      <path d="M 30.609375 48.390625 
Q 23.390625 48.390625 19.1875 42.75 
Q 14.984375 37.109375 14.984375 27.296875 
Q 14.984375 17.484375 19.15625 11.84375 
Q 23.34375 6.203125 30.609375 6.203125 
Q 37.796875 6.203125 41.984375 11.859375 
Q 46.1875 17.53125 46.1875 27.296875 
Q 46.1875 37.015625 41.984375 42.703125 
Q 37.796875 48.390625 30.609375 48.390625 
z
M 30.609375 56 
Q 42.328125 56 49.015625 48.375 
Q 55.71875 40.765625 55.71875 27.296875 
Q 55.71875 13.875 49.015625 6.21875 
Q 42.328125 -1.421875 30.609375 -1.421875 
Q 18.84375 -1.421875 12.171875 6.21875 
Q 5.515625 13.875 5.515625 27.296875 
Q 5.515625 40.765625 12.171875 48.375 
Q 18.84375 56 30.609375 56 
z
" id="DejaVuSans-111"/>
      <path d="M 44.28125 53.078125 
L 44.28125 44.578125 
Q 40.484375 46.53125 36.375 47.5 
Q 32.28125 48.484375 27.875 48.484375 
Q 21.1875 48.484375 17.84375 46.4375 
Q 14.5 44.390625 14.5 40.28125 
Q 14.5 37.15625 16.890625 35.375 
Q 19.28125 33.59375 26.515625 31.984375 
L 29.59375 31.296875 
Q 39.15625 29.25 43.1875 25.515625 
Q 47.21875 21.78125 47.21875 15.09375 
Q 47.21875 7.46875 41.1875 3.015625 
Q 35.15625 -1.421875 24.609375 -1.421875 
Q 20.21875 -1.421875 15.453125 -0.5625 
Q 10.6875 0.296875 5.421875 2 
L 5.421875 11.28125 
Q 10.40625 8.6875 15.234375 7.390625 
Q 20.0625 6.109375 24.8125 6.109375 
Q 31.15625 6.109375 34.5625 8.28125 
Q 37.984375 10.453125 37.984375 14.40625 
Q 37.984375 18.0625 35.515625 20.015625 
Q 33.0625 21.96875 24.703125 23.78125 
L 21.578125 24.515625 
Q 13.234375 26.265625 9.515625 29.90625 
Q 5.8125 33.546875 5.8125 39.890625 
Q 5.8125 47.609375 11.28125 51.796875 
Q 16.75 56 26.8125 56 
Q 31.78125 56 36.171875 55.265625 
Q 40.578125 54.546875 44.28125 53.078125 
z
" id="DejaVuSans-115"/>
     </defs>
     <g transform="translate(205.662344 335.860562)scale(0.1 -0.1)">
      <use xlink:href="#DejaVuSans-71"/>
      <use x="77.490234" xlink:href="#DejaVuSans-101"/>
      <use x="139.013672" xlink:href="#DejaVuSans-110"/>
      <use x="202.392578" xlink:href="#DejaVuSans-101"/>
      <use x="263.916016" xlink:href="#DejaVuSans-114"/>
      <use x="305.029297" xlink:href="#DejaVuSans-97"/>
      <use x="366.308594" xlink:href="#DejaVuSans-116"/>
      <use x="405.517578" xlink:href="#DejaVuSans-105"/>
      <use x="433.300781" xlink:href="#DejaVuSans-111"/>
      <use x="494.482422" xlink:href="#DejaVuSans-110"/>
      <use x="557.861328" xlink:href="#DejaVuSans-115"/>
     </g>
    </g>
   </g>
   <g id="matplotlib.axis_2">
    <g id="ytick_1">
     <g id="line2d_9">
      <defs>
       <path d="M 0 0 
L -3.5 0 
" id="m5f2074e70e" style="stroke:#000000;stroke-width:0.8;"/>
      </defs>
      <g>
       <use style="stroke:#000000;stroke-width:0.8;" x="57.6" xlink:href="#m5f2074e70e" y="307.584"/>
      </g>
     </g>
     <g id="text_10">
      <!-- 0 -->
      <g transform="translate(44.2375 311.383219)scale(0.1 -0.1)">
       <use xlink:href="#DejaVuSans-48"/>
      </g>
     </g>
    </g>
    <g id="ytick_2">
     <g id="line2d_10">
      <g>
       <use style="stroke:#000000;stroke-width:0.8;" x="57.6" xlink:href="#m5f2074e70e" y="257.694236"/>
      </g>
     </g>
     <g id="text_11">
      <!-- 50 -->
      <g transform="translate(37.875 261.493455)scale(0.1 -0.1)">
       <use xlink:href="#DejaVuSans-53"/>
       <use x="63.623047" xlink:href="#DejaVuSans-48"/>
      </g>
     </g>
    </g>
    <g id="ytick_3">
     <g id="line2d_11">
      <g>
       <use style="stroke:#000000;stroke-width:0.8;" x="57.6" xlink:href="#m5f2074e70e" y="207.804472"/>
      </g>
     </g>
     <g id="text_12">
      <!-- 100 -->
      <g transform="translate(31.5125 211.603691)scale(0.1 -0.1)">
       <use xlink:href="#DejaVuSans-49"/>
       <use x="63.623047" xlink:href="#DejaVuSans-48"/>
       <use x="127.246094" xlink:href="#DejaVuSans-48"/>
      </g>
     </g>
    </g>
    <g id="ytick_4">
     <g id="line2d_12">
      <g>
       <use style="stroke:#000000;stroke-width:0.8;" x="57.6" xlink:href="#m5f2074e70e" y="157.914709"/>
      </g>
     </g>
     <g id="text_13">
      <!-- 150 -->
      <g transform="translate(31.5125 161.713927)scale(0.1 -0.1)">
       <use xlink:href="#DejaVuSans-49"/>
       <use x="63.623047" xlink:href="#DejaVuSans-53"/>
       <use x="127.246094" xlink:href="#DejaVuSans-48"/>
      </g>
     </g>
    </g>
    <g id="ytick_5">
     <g id="line2d_13">
      <g>
       <use style="stroke:#000000;stroke-width:0.8;" x="57.6" xlink:href="#m5f2074e70e" y="108.024945"/>
      </g>
     </g>
     <g id="text_14">
      <!-- 200 -->
      <g transform="translate(31.5125 111.824164)scale(0.1 -0.1)">
       <use xlink:href="#DejaVuSans-50"/>
       <use x="63.623047" xlink:href="#DejaVuSans-48"/>
       <use x="127.246094" xlink:href="#DejaVuSans-48"/>
      </g>
     </g>
    </g>
    <g id="ytick_6">
     <g id="line2d_14">
      <g>
       <use style="stroke:#000000;stroke-width:0.8;" x="57.6" xlink:href="#m5f2074e70e" y="58.135181"/>
      </g>
     </g>
     <g id="text_15">
      <!-- 250 -->
      <g transform="translate(31.5125 61.9344)scale(0.1 -0.1)">
       <use xlink:href="#DejaVuSans-50"/>
       <use x="63.623047" xlink:href="#DejaVuSans-53"/>
       <use x="127.246094" xlink:href="#DejaVuSans-48"/>
      </g>
     </g>
    </g>
    <g id="text_16">
     <!-- Size per Species -->
     <defs>
      <path d="M 53.515625 70.515625 
L 53.515625 60.890625 
Q 47.90625 63.578125 42.921875 64.890625 
Q 37.9375 66.21875 33.296875 66.21875 
Q 25.25 66.21875 20.875 63.09375 
Q 16.5 59.96875 16.5 54.203125 
Q 16.5 49.359375 19.40625 46.890625 
Q 22.3125 44.4375 30.421875 42.921875 
L 36.375 41.703125 
Q 47.40625 39.59375 52.65625 34.296875 
Q 57.90625 29 57.90625 20.125 
Q 57.90625 9.515625 50.796875 4.046875 
Q 43.703125 -1.421875 29.984375 -1.421875 
Q 24.8125 -1.421875 18.96875 -0.25 
Q 13.140625 0.921875 6.890625 3.21875 
L 6.890625 13.375 
Q 12.890625 10.015625 18.65625 8.296875 
Q 24.421875 6.59375 29.984375 6.59375 
Q 38.421875 6.59375 43.015625 9.90625 
Q 47.609375 13.234375 47.609375 19.390625 
Q 47.609375 24.75 44.3125 27.78125 
Q 41.015625 30.8125 33.5 32.328125 
L 27.484375 33.5 
Q 16.453125 35.6875 11.515625 40.375 
Q 6.59375 45.0625 6.59375 53.421875 
Q 6.59375 63.09375 13.40625 68.65625 
Q 20.21875 74.21875 32.171875 74.21875 
Q 37.3125 74.21875 42.625 73.28125 
Q 47.953125 72.359375 53.515625 70.515625 
z
" id="DejaVuSans-83"/>
      <path d="M 5.515625 54.6875 
L 48.1875 54.6875 
L 48.1875 46.484375 
L 14.40625 7.171875 
L 48.1875 7.171875 
L 48.1875 0 
L 4.296875 0 
L 4.296875 8.203125 
L 38.09375 47.515625 
L 5.515625 47.515625 
z
" id="DejaVuSans-122"/>
      <path id="DejaVuSans-32"/>
      <path d="M 18.109375 8.203125 
L 18.109375 -20.796875 
L 9.078125 -20.796875 
L 9.078125 54.6875 
L 18.109375 54.6875 
L 18.109375 46.390625 
Q 20.953125 51.265625 25.265625 53.625 
Q 29.59375 56 35.59375 56 
Q 45.5625 56 51.78125 48.09375 
Q 58.015625 40.1875 58.015625 27.296875 
Q 58.015625 14.40625 51.78125 6.484375 
Q 45.5625 -1.421875 35.59375 -1.421875 
Q 29.59375 -1.421875 25.265625 0.953125 
Q 20.953125 3.328125 18.109375 8.203125 
z
M 48.6875 27.296875 
Q 48.6875 37.203125 44.609375 42.84375 
Q 40.53125 48.484375 33.40625 48.484375 
Q 26.265625 48.484375 22.1875 42.84375 
Q 18.109375 37.203125 18.109375 27.296875 
Q 18.109375 17.390625 22.1875 11.75 
Q 26.265625 6.109375 33.40625 6.109375 
Q 40.53125 6.109375 44.609375 11.75 
Q 48.6875 17.390625 48.6875 27.296875 
z
" id="DejaVuSans-112"/>
      <path d="M 48.78125 52.59375 
L 48.78125 44.1875 
Q 44.96875 46.296875 41.140625 47.34375 
Q 37.3125 48.390625 33.40625 48.390625 
Q 24.65625 48.390625 19.8125 42.84375 
Q 14.984375 37.3125 14.984375 27.296875 
Q 14.984375 17.28125 19.8125 11.734375 
Q 24.65625 6.203125 33.40625 6.203125 
Q 37.3125 6.203125 41.140625 7.25 
Q 44.96875 8.296875 48.78125 10.40625 
L 48.78125 2.09375 
Q 45.015625 0.34375 40.984375 -0.53125 
Q 36.96875 -1.421875 32.421875 -1.421875 
Q 20.0625 -1.421875 12.78125 6.34375 
Q 5.515625 14.109375 5.515625 27.296875 
Q 5.515625 40.671875 12.859375 48.328125 
Q 20.21875 56 33.015625 56 
Q 37.15625 56 41.109375 55.140625 
Q 45.0625 54.296875 48.78125 52.59375 
z
" id="DejaVuSans-99"/>
     </defs>
     <g transform="translate(25.432812 215.520969)rotate(-90)scale(0.1 -0.1)">
      <use xlink:href="#DejaVuSans-83"/>
      <use x="63.476562" xlink:href="#DejaVuSans-105"/>
      <use x="91.259766" xlink:href="#DejaVuSans-122"/>
      <use x="143.75" xlink:href="#DejaVuSans-101"/>
      <use x="205.273438" xlink:href="#DejaVuSans-32"/>
      <use x="237.060547" xlink:href="#DejaVuSans-112"/>
      <use x="300.537109" xlink:href="#DejaVuSans-101"/>
      <use x="362.060547" xlink:href="#DejaVuSans-114"/>
      <use x="403.173828" xlink:href="#DejaVuSans-32"/>
      <use x="434.960938" xlink:href="#DejaVuSans-83"/>
      <use x="498.4375" xlink:href="#DejaVuSans-112"/>
      <use x="561.914062" xlink:href="#DejaVuSans-101"/>
      <use x="623.4375" xlink:href="#DejaVuSans-99"/>
      <use x="678.417969" xlink:href="#DejaVuSans-105"/>
      <use x="706.201172" xlink:href="#DejaVuSans-101"/>
      <use x="767.724609" xlink:href="#DejaVuSans-115"/>
     </g>
    </g>
   </g>
   <g id="patch_3">
    <path d="M 57.6 307.584 
L 57.6 41.472 
" style="fill:none;stroke:#000000;stroke-linecap:square;stroke-linejoin:miter;stroke-width:0.8;"/>
   </g>
   <g id="patch_4">
    <path d="M 414.72 307.584 
L 414.72 41.472 
" style="fill:none;stroke:#000000;stroke-linecap:square;stroke-linejoin:miter;stroke-width:0.8;"/>
   </g>
   <g id="patch_5">
    <path d="M 57.6 307.584 
L 414.72 307.584 
" style="fill:none;stroke:#000000;stroke-linecap:square;stroke-linejoin:miter;stroke-width:0.8;"/>
   </g>
   <g id="patch_6">
    <path d="M 57.6 41.472 
L 414.72 41.472 
" style="fill:none;stroke:#000000;stroke-linecap:square;stroke-linejoin:miter;stroke-width:0.8;"/>
   </g>
   <g id="text_17">
    <!-- Speciation -->
    <g transform="translate(204.714375 35.472)scale(0.12 -0.12)">
     <use xlink:href="#DejaVuSans-83"/>
     <use x="63.476562" xlink:href="#DejaVuSans-112"/>
     <use x="126.953125" xlink:href="#DejaVuSans-101"/>
     <use x="188.476562" xlink:href="#DejaVuSans-99"/>
     <use x="243.457031" xlink:href="#DejaVuSans-105"/>
     <use x="271.240234" xlink:href="#DejaVuSans-97"/>
     <use x="332.519531" xlink:href="#DejaVuSans-116"/>
     <use x="371.728516" xlink:href="#DejaVuSans-105"/>
     <use x="399.511719" xlink:href="#DejaVuSans-111"/>
     <use x="460.693359" xlink:href="#DejaVuSans-110"/>
    </g>
   </g>
  </g>
 </g>
 <defs>
  <clipPath id="paeb7f827aa">
   <rect height="266.112" width="357.12" x="57.6" y="41.472"/>
  </clipPath>
 </defs>
</svg>
