<?xml version="1.0" encoding="UTF-8" standalone="no"?>
<!DOCTYPE svg PUBLIC "-//W3C//DTD SVG 1.1//EN"
 "http://www.w3.org/Graphics/SVG/1.1/DTD/svg11.dtd">
<!-- Generated by graphviz version 2.38.0 (20140413.2041)
 -->
<!-- Title: %3 Pages: 1 -->
<svg width="182pt" height="207pt"
 viewBox="0.00 0.00 181.50 206.89" xmlns="http://www.w3.org/2000/svg" xmlns:xlink="http://www.w3.org/1999/xlink">
<g id="graph0" class="graph" transform="scale(1 1) rotate(0) translate(4 202.894)">
<title>%3</title>
<polygon fill="white" stroke="none" points="-4,4 -4,-202.894 177.5,-202.894 177.5,4 -4,4"/>
<!-- x -->
<g id="node1" class="node"><title>x</title>
<polygon fill="lightgray" stroke="black" points="20,-198.894 0,-198.894 0,-180.894 20,-180.894 20,-198.894"/>
<text text-anchor="middle" x="10" y="-187.694" font-family="Times New Roman,serif" font-size="9.00">x</text>
</g>
<!-- control -->
<g id="node5" class="node"><title>control</title>
<ellipse fill="lightblue" stroke="black" cx="75" cy="-115.196" rx="29.8983" ry="29.8983"/>
<text text-anchor="middle" x="75" y="-112.996" font-family="Times New Roman,serif" font-size="9.00">control</text>
</g>
<!-- x&#45;&gt;control -->
<g id="edge6" class="edge"><title>x&#45;&gt;control</title>
<path fill="none" stroke="green" stroke-width="0.642758" d="M17.2045,-180.837C24.8141,-172.326 37.2656,-158.4 48.6663,-145.649"/>
<polygon fill="green" stroke="green" stroke-width="0.642758" points="51.5201,-147.708 55.5763,-137.92 46.3017,-143.042 51.5201,-147.708"/>
</g>
<!-- dx -->
<g id="node2" class="node"><title>dx</title>
<polygon fill="lightgray" stroke="black" points="63.5,-198.894 38.5,-198.894 38.5,-180.894 63.5,-180.894 63.5,-198.894"/>
<text text-anchor="middle" x="51" y="-187.694" font-family="Times New Roman,serif" font-size="9.00">dx</text>
</g>
<!-- dx&#45;&gt;control -->
<g id="edge3" class="edge"><title>dx&#45;&gt;control</title>
<path fill="none" stroke="green" stroke-width="0.578799" d="M53.6601,-180.837C55.9214,-173.987 59.3406,-163.63 62.7836,-153.201"/>
<polygon fill="green" stroke="green" stroke-width="0.578799" points="66.1083,-154.294 65.9197,-143.701 59.4611,-152.1 66.1083,-154.294"/>
</g>
<!-- theta -->
<g id="node3" class="node"><title>theta</title>
<polygon fill="lightgray" stroke="black" points="116.5,-198.894 81.5,-198.894 81.5,-180.894 116.5,-180.894 116.5,-198.894"/>
<text text-anchor="middle" x="99" y="-187.694" font-family="Times New Roman,serif" font-size="9.00">theta</text>
</g>
<!-- theta&#45;&gt;control -->
<g id="edge1" class="edge"><title>theta&#45;&gt;control</title>
<path fill="none" stroke="green" stroke-width="1.098" d="M96.3399,-180.837C94.0786,-173.987 90.6594,-163.63 87.2164,-153.201"/>
<polygon fill="green" stroke="green" stroke-width="1.098" points="90.5389,-152.1 84.0803,-143.701 83.8917,-154.294 90.5389,-152.1"/>
</g>
<!-- dtheta -->
<g id="node4" class="node"><title>dtheta</title>
<polygon fill="lightgray" stroke="black" points="173.5,-198.894 134.5,-198.894 134.5,-180.894 173.5,-180.894 173.5,-198.894"/>
<text text-anchor="middle" x="154" y="-187.694" font-family="Times New Roman,serif" font-size="9.00">dtheta</text>
</g>
<!-- dtheta&#45;&gt;control -->
<g id="edge2" class="edge"><title>dtheta&#45;&gt;control</title>
<path fill="none" stroke="green" stroke-width="1.49026" d="M145.244,-180.837C135.323,-171.707 118.631,-156.346 104.007,-142.889"/>
<polygon fill="green" stroke="green" stroke-width="1.49026" points="106.324,-140.265 96.5953,-136.069 101.584,-145.416 106.324,-140.265"/>
</g>
<!-- 1575 -->
<g id="node6" class="node"><title>1575</title>
<ellipse fill="white" stroke="black" cx="75" cy="-24.7487" rx="25" ry="25"/>
<text text-anchor="middle" x="75" y="-22.5487" font-family="Times New Roman,serif" font-size="9.00">1575</text>
</g>
<!-- control&#45;&gt;1575 -->
<g id="edge4" class="edge"><title>control&#45;&gt;1575</title>
<path fill="none" stroke="green" stroke-width="0.117645" d="M68.6459,-85.7238C68.1974,-77.1578 68.13,-67.6848 68.4436,-58.846"/>
<polygon fill="green" stroke="green" stroke-width="0.117645" points="71.9387,-59.0289 68.9868,-48.8536 64.949,-58.6489 71.9387,-59.0289"/>
</g>
<!-- 1575&#45;&gt;control -->
<g id="edge5" class="edge"><title>1575&#45;&gt;control</title>
<path fill="none" stroke="red" stroke-width="0.699315" d="M81.0132,-48.8536C81.6317,-57.0483 81.8608,-66.5072 81.7005,-75.6384"/>
<polygon fill="red" stroke="red" stroke-width="0.699315" points="78.1995,-75.6096 81.3541,-85.7238 85.1954,-75.8499 78.1995,-75.6096"/>
</g>
</g>
</svg>
