<?xml version="1.0" encoding="UTF-8" standalone="no"?>
<!DOCTYPE svg PUBLIC "-//W3C//DTD SVG 1.1//EN"
 "http://www.w3.org/Graphics/SVG/1.1/DTD/svg11.dtd">
<!-- Generated by graphviz version 2.38.0 (20140413.2041)
 -->
<!-- Title: %3 Pages: 1 -->
<svg width="201pt" height="121pt"
 viewBox="0.00 0.00 200.75 121.40" xmlns="http://www.w3.org/2000/svg" xmlns:xlink="http://www.w3.org/1999/xlink">
<g id="graph0" class="graph" transform="scale(1 1) rotate(0) translate(4 117.397)">
<title>%3</title>
<polygon fill="white" stroke="none" points="-4,4 -4,-117.397 196.749,-117.397 196.749,4 -4,4"/>
<!-- x -->
<g id="node1" class="node"><title>x</title>
<polygon fill="lightgray" stroke="black" points="20,-113.397 0,-113.397 0,-95.397 20,-95.397 20,-113.397"/>
<text text-anchor="middle" x="10" y="-102.197" font-family="Times New Roman,serif" font-size="9.00">x</text>
</g>
<!-- dx -->
<g id="node2" class="node"><title>dx</title>
<polygon fill="lightgray" stroke="black" points="63.5,-113.397 38.5,-113.397 38.5,-95.397 63.5,-95.397 63.5,-113.397"/>
<text text-anchor="middle" x="51" y="-102.197" font-family="Times New Roman,serif" font-size="9.00">dx</text>
</g>
<!-- control -->
<g id="node5" class="node"><title>control</title>
<ellipse fill="lightblue" stroke="black" cx="96" cy="-29.6985" rx="29.8983" ry="29.8983"/>
<text text-anchor="middle" x="96" y="-27.4985" font-family="Times New Roman,serif" font-size="9.00">control</text>
</g>
<!-- dx&#45;&gt;control -->
<g id="edge3" class="edge"><title>dx&#45;&gt;control</title>
<path fill="none" stroke="green" stroke-width="0.265486" d="M55.9877,-95.3392C60.7289,-87.6798 68.185,-75.6342 75.3824,-64.0067"/>
<polygon fill="green" stroke="green" stroke-width="0.265486" points="78.4994,-65.621 80.7866,-55.276 72.5474,-61.9367 78.4994,-65.621"/>
</g>
<!-- theta -->
<g id="node3" class="node"><title>theta</title>
<polygon fill="lightgray" stroke="black" points="177.5,-113.397 142.5,-113.397 142.5,-95.397 177.5,-95.397 177.5,-113.397"/>
<text text-anchor="middle" x="160" y="-102.197" font-family="Times New Roman,serif" font-size="9.00">theta</text>
</g>
<!-- theta&#45;&gt;control -->
<g id="edge1" class="edge"><title>theta&#45;&gt;control</title>
<path fill="none" stroke="green" stroke-width="0.516885" d="M152.906,-95.3392C145.414,-86.8283 133.154,-72.9021 121.929,-60.1511"/>
<polygon fill="green" stroke="green" stroke-width="0.516885" points="124.36,-57.6159 115.125,-52.4227 119.106,-62.2413 124.36,-57.6159"/>
</g>
<!-- 1307 -->
<g id="node6" class="node"><title>1307</title>
<ellipse fill="none" stroke="black" cx="168" cy="-29.6985" rx="25" ry="25"/>
<text text-anchor="middle" x="168" y="-27.4985" font-family="Times New Roman,serif" font-size="9.00">1307</text>
</g>
<!-- theta&#45;&gt;1307 -->
<g id="edge4" class="edge"><title>theta&#45;&gt;1307</title>
<path fill="none" stroke="green" stroke-width="0.521673" d="M160.887,-95.3392C161.715,-87.8103 163.01,-76.0436 164.269,-64.6015"/>
<polygon fill="green" stroke="green" stroke-width="0.521673" points="167.786,-64.6386 165.401,-54.3157 160.828,-63.8729 167.786,-64.6386"/>
</g>
<!-- dtheta -->
<g id="node4" class="node"><title>dtheta</title>
<polygon fill="lightgray" stroke="black" points="120.5,-113.397 81.5,-113.397 81.5,-95.397 120.5,-95.397 120.5,-113.397"/>
<text text-anchor="middle" x="101" y="-102.197" font-family="Times New Roman,serif" font-size="9.00">dtheta</text>
</g>
<!-- dtheta&#45;&gt;control -->
<g id="edge2" class="edge"><title>dtheta&#45;&gt;control</title>
<path fill="none" stroke="green" stroke-width="0.650294" d="M100.446,-95.3392C100.004,-88.9188 99.3507,-79.4165 98.6798,-69.6619"/>
<polygon fill="green" stroke="green" stroke-width="0.650294" points="102.161,-69.2601 97.9825,-59.5238 95.177,-69.7405 102.161,-69.2601"/>
</g>
</g>
</svg>
