<?xml version="1.0" encoding="UTF-8" standalone="no"?>
<!DOCTYPE svg PUBLIC "-//W3C//DTD SVG 1.1//EN"
 "http://www.w3.org/Graphics/SVG/1.1/DTD/svg11.dtd">
<!-- Generated by graphviz version 2.38.0 (20140413.2041)
 -->
<!-- Title: %3 Pages: 1 -->
<svg width="272pt" height="194pt"
 viewBox="0.00 0.00 272.21 194.17" xmlns="http://www.w3.org/2000/svg" xmlns:xlink="http://www.w3.org/1999/xlink">
<g id="graph0" class="graph" transform="scale(1 1) rotate(0) translate(4 190.167)">
<title>%3</title>
<polygon fill="white" stroke="none" points="-4,4 -4,-190.167 268.213,-190.167 268.213,4 -4,4"/>
<!-- x -->
<g id="node1" class="node"><title>x</title>
<polygon fill="lightgray" stroke="black" points="20,-111.468 0,-111.468 0,-93.468 20,-93.468 20,-111.468"/>
<text text-anchor="middle" x="10" y="-100.268" font-family="Times New Roman,serif" font-size="9.00">x</text>
</g>
<!-- 90 -->
<g id="node6" class="node"><title>90</title>
<ellipse fill="white" stroke="black" cx="126" cy="-18.3848" rx="18.2703" ry="18.2703"/>
<text text-anchor="middle" x="126" y="-16.1848" font-family="Times New Roman,serif" font-size="9.00">90</text>
</g>
<!-- x&#45;&gt;90 -->
<g id="edge2" class="edge"><title>x&#45;&gt;90</title>
<path fill="none" stroke="green" stroke-width="0.156775" stroke-dasharray="1,5" d="M13.9558,-93.4001C17.3068,-87.1844 22.5844,-78.6813 29,-72.7696 49.8675,-53.5406 78.9231,-38.7368 99.7847,-29.6486"/>
<polygon fill="green" stroke="green" stroke-width="0.156775" points="101.154,-32.8696 109.015,-25.7658 98.4399,-26.4173 101.154,-32.8696"/>
</g>
<!-- dx -->
<g id="node2" class="node"><title>dx</title>
<polygon fill="lightgray" stroke="black" points="57.5,-186.167 32.5,-186.167 32.5,-168.167 57.5,-168.167 57.5,-186.167"/>
<text text-anchor="middle" x="45" y="-174.967" font-family="Times New Roman,serif" font-size="9.00">dx</text>
</g>
<!-- control -->
<g id="node5" class="node"><title>control</title>
<ellipse fill="lightblue" stroke="black" cx="68" cy="-102.468" rx="29.8983" ry="29.8983"/>
<text text-anchor="middle" x="68" y="-100.268" font-family="Times New Roman,serif" font-size="9.00">control</text>
</g>
<!-- dx&#45;&gt;control -->
<g id="edge7" class="edge"><title>dx&#45;&gt;control</title>
<path fill="none" stroke="green" stroke-width="0.265486" d="M47.5493,-168.109C49.6942,-161.329 52.9263,-151.113 56.1916,-140.792"/>
<polygon fill="green" stroke="green" stroke-width="0.265486" points="59.6185,-141.563 59.298,-130.973 52.9446,-139.452 59.6185,-141.563"/>
</g>
<!-- theta -->
<g id="node3" class="node"><title>theta</title>
<polygon fill="lightgray" stroke="black" points="181.5,-186.167 146.5,-186.167 146.5,-168.167 181.5,-168.167 181.5,-186.167"/>
<text text-anchor="middle" x="164" y="-174.967" font-family="Times New Roman,serif" font-size="9.00">theta</text>
</g>
<!-- theta&#45;&gt;control -->
<g id="edge1" class="edge"><title>theta&#45;&gt;control</title>
<path fill="none" stroke="green" stroke-width="0.516885" d="M153.36,-168.109C140.49,-158.363 118.243,-141.516 99.6877,-127.464"/>
<polygon fill="green" stroke="green" stroke-width="0.516885" points="101.554,-124.487 91.4689,-121.24 97.328,-130.068 101.554,-124.487"/>
</g>
<!-- theta&#45;&gt;90 -->
<g id="edge3" class="edge"><title>theta&#45;&gt;90</title>
<path fill="none" stroke="red" stroke-width="0.134181" stroke-dasharray="1,5" d="M159.741,-167.955C155.413,-159.28 148.819,-145.094 145,-132.167 136.598,-103.727 131.533,-70.0857 128.771,-46.9911"/>
<polygon fill="red" stroke="red" stroke-width="0.134181" points="132.228,-46.4183 127.627,-36.8746 125.272,-47.2044 132.228,-46.4183"/>
</g>
<!-- 1307 -->
<g id="node7" class="node"><title>1307</title>
<ellipse fill="white" stroke="black" cx="179" cy="-102.468" rx="25" ry="25"/>
<text text-anchor="middle" x="179" y="-100.268" font-family="Times New Roman,serif" font-size="9.00">1307</text>
</g>
<!-- theta&#45;&gt;1307 -->
<g id="edge8" class="edge"><title>theta&#45;&gt;1307</title>
<path fill="none" stroke="green" stroke-width="0.521673" d="M165.663,-168.109C167.244,-160.446 169.731,-148.393 172.131,-136.76"/>
<polygon fill="green" stroke="green" stroke-width="0.521673" points="175.6,-137.268 174.193,-126.767 168.744,-135.854 175.6,-137.268"/>
</g>
<!-- 820 -->
<g id="node8" class="node"><title>820</title>
<ellipse fill="white" stroke="black" cx="243" cy="-102.468" rx="21.4286" ry="21.4286"/>
<text text-anchor="middle" x="243" y="-100.268" font-family="Times New Roman,serif" font-size="9.00">820</text>
</g>
<!-- theta&#45;&gt;820 -->
<g id="edge5" class="edge"><title>theta&#45;&gt;820</title>
<path fill="none" stroke="red" stroke-width="0.214508" stroke-dasharray="1,5" d="M173.108,-168.142C183.006,-159.386 199.248,-144.913 213,-132.167 215.485,-129.864 218.068,-127.439 220.63,-125.015"/>
<polygon fill="red" stroke="red" stroke-width="0.214508" points="223.307,-127.299 228.134,-117.867 218.479,-122.231 223.307,-127.299"/>
</g>
<!-- dtheta -->
<g id="node4" class="node"><title>dtheta</title>
<polygon fill="lightgray" stroke="black" points="114.5,-186.167 75.5,-186.167 75.5,-168.167 114.5,-168.167 114.5,-186.167"/>
<text text-anchor="middle" x="95" y="-174.967" font-family="Times New Roman,serif" font-size="9.00">dtheta</text>
</g>
<!-- dtheta&#45;&gt;control -->
<g id="edge4" class="edge"><title>dtheta&#45;&gt;control</title>
<path fill="none" stroke="green" stroke-width="0.650294" d="M92.0074,-168.109C89.4424,-161.203 85.5531,-150.731 81.6474,-140.214"/>
<polygon fill="green" stroke="green" stroke-width="0.650294" points="84.8561,-138.801 78.0934,-130.645 78.294,-141.238 84.8561,-138.801"/>
</g>
<!-- 820&#45;&gt;90 -->
<g id="edge6" class="edge"><title>820&#45;&gt;90</title>
<path fill="none" stroke="green" stroke-width="0.552044" stroke-dasharray="1,5" d="M228.61,-86.5058C223.836,-81.8746 218.366,-76.9064 213,-72.7696 193.343,-57.6145 169.153,-43.0625 151.274,-32.9902"/>
<polygon fill="green" stroke="green" stroke-width="0.552044" points="152.503,-29.6691 142.06,-27.88 149.108,-35.7908 152.503,-29.6691"/>
</g>
</g>
</svg>
