<?xml version="1.0" encoding="UTF-8" standalone="no"?>
<!DOCTYPE svg PUBLIC "-//W3C//DTD SVG 1.1//EN"
 "http://www.w3.org/Graphics/SVG/1.1/DTD/svg11.dtd">
<!-- Generated by graphviz version 2.38.0 (20140413.2041)
 -->
<!-- Title: %3 Pages: 1 -->
<svg width="398pt" height="207pt"
 viewBox="0.00 0.00 398.44 206.89" xmlns="http://www.w3.org/2000/svg" xmlns:xlink="http://www.w3.org/1999/xlink">
<g id="graph0" class="graph" transform="scale(1 1) rotate(0) translate(4 202.894)">
<title>%3</title>
<polygon fill="white" stroke="none" points="-4,4 -4,-202.894 394.443,-202.894 394.443,4 -4,4"/>
<!-- x -->
<g id="node1" class="node"><title>x</title>
<polygon fill="lightgray" stroke="black" points="290.695,-198.894 270.695,-198.894 270.695,-180.894 290.695,-180.894 290.695,-198.894"/>
<text text-anchor="middle" x="280.695" y="-187.694" font-family="Times New Roman,serif" font-size="9.00">x</text>
</g>
<!-- 352 -->
<g id="node6" class="node"><title>352</title>
<ellipse fill="white" stroke="black" cx="163.695" cy="-120.146" rx="21.4286" ry="21.4286"/>
<text text-anchor="middle" x="163.695" y="-117.946" font-family="Times New Roman,serif" font-size="9.00">352</text>
</g>
<!-- x&#45;&gt;352 -->
<g id="edge2" class="edge"><title>x&#45;&gt;352</title>
<path fill="none" stroke="red" stroke-width="0.34197" stroke-dasharray="1,5" d="M270.572,-184.442C254.158,-177.063 220.927,-161.462 194.695,-144.894 192.488,-143.501 190.243,-141.989 188.023,-140.426"/>
<polygon fill="red" stroke="red" stroke-width="0.34197" points="189.831,-137.411 179.706,-134.289 185.674,-143.043 189.831,-137.411"/>
</g>
<!-- 1071 -->
<g id="node7" class="node"><title>1071</title>
<ellipse fill="white" stroke="black" cx="280.695" cy="-120.146" rx="25" ry="25"/>
<text text-anchor="middle" x="280.695" y="-117.946" font-family="Times New Roman,serif" font-size="9.00">1071</text>
</g>
<!-- x&#45;&gt;1071 -->
<g id="edge7" class="edge"><title>x&#45;&gt;1071</title>
<path fill="none" stroke="red" stroke-width="0.135091" stroke-dasharray="1,5" d="M280.695,-180.857C280.695,-174.422 280.695,-164.924 280.695,-155.387"/>
<polygon fill="red" stroke="red" stroke-width="0.135091" points="284.195,-155.167 280.695,-145.167 277.195,-155.167 284.195,-155.167"/>
</g>
<!-- 1813 -->
<g id="node10" class="node"><title>1813</title>
<ellipse fill="white" stroke="black" cx="365.695" cy="-120.146" rx="25" ry="25"/>
<text text-anchor="middle" x="365.695" y="-117.946" font-family="Times New Roman,serif" font-size="9.00">1813</text>
</g>
<!-- x&#45;&gt;1813 -->
<g id="edge14" class="edge"><title>x&#45;&gt;1813</title>
<path fill="none" stroke="green" stroke-width="0.231448" d="M290.779,-180.857C302.463,-171.544 322.194,-155.818 338.474,-142.842"/>
<polygon fill="green" stroke="green" stroke-width="0.231448" points="340.974,-145.325 346.612,-136.355 336.611,-139.851 340.974,-145.325"/>
</g>
<!-- dx -->
<g id="node2" class="node"><title>dx</title>
<polygon fill="lightgray" stroke="black" points="144.195,-198.894 119.195,-198.894 119.195,-180.894 144.195,-180.894 144.195,-198.894"/>
<text text-anchor="middle" x="131.695" y="-187.694" font-family="Times New Roman,serif" font-size="9.00">dx</text>
</g>
<!-- control -->
<g id="node5" class="node"><title>control</title>
<ellipse fill="lightblue" stroke="black" cx="99.6946" cy="-29.6985" rx="29.8983" ry="29.8983"/>
<text text-anchor="middle" x="99.6946" y="-27.4985" font-family="Times New Roman,serif" font-size="9.00">control</text>
</g>
<!-- dx&#45;&gt;control -->
<g id="edge5" class="edge"><title>dx&#45;&gt;control</title>
<path fill="none" stroke="green" stroke-width="0.347549" stroke-dasharray="1,5" d="M118.81,-188.765C92.7935,-187.722 34.2915,-181.236 8.69458,-144.894 -3.9732,-126.909 -1.39318,-114.947 8.69458,-95.397 20.1801,-73.1386 43.2539,-56.867 63.2922,-46.2093"/>
<polygon fill="green" stroke="green" stroke-width="0.347549" points="64.8761,-49.3304 72.2328,-41.7061 61.7272,-43.0786 64.8761,-49.3304"/>
</g>
<!-- dx&#45;&gt;352 -->
<g id="edge6" class="edge"><title>dx&#45;&gt;352</title>
<path fill="none" stroke="red" stroke-width="0.414994" d="M135.491,-180.857C139.216,-172.97 145.114,-160.484 150.555,-148.964"/>
<polygon fill="red" stroke="red" stroke-width="0.414994" points="153.855,-150.173 154.961,-139.636 147.525,-147.183 153.855,-150.173"/>
</g>
<!-- dx&#45;&gt;1071 -->
<g id="edge8" class="edge"><title>dx&#45;&gt;1071</title>
<path fill="none" stroke="green" stroke-width="0.216084" d="M144.35,-185.288C166.186,-178.808 212.027,-164.065 247.695,-144.894 249.467,-143.942 251.253,-142.907 253.029,-141.821"/>
<polygon fill="green" stroke="green" stroke-width="0.216084" points="255.287,-144.524 261.701,-136.091 251.428,-138.683 255.287,-144.524"/>
</g>
<!-- 1617 -->
<g id="node8" class="node"><title>1617</title>
<ellipse fill="white" stroke="black" cx="99.6946" cy="-120.146" rx="25" ry="25"/>
<text text-anchor="middle" x="99.6946" y="-117.946" font-family="Times New Roman,serif" font-size="9.00">1617</text>
</g>
<!-- dx&#45;&gt;1617 -->
<g id="edge12" class="edge"><title>dx&#45;&gt;1617</title>
<path fill="none" stroke="green" stroke-width="0.431851" d="M127.898,-180.857C124.492,-173.646 119.269,-162.589 114.24,-151.941"/>
<polygon fill="green" stroke="green" stroke-width="0.431851" points="117.356,-150.343 109.921,-142.796 111.027,-153.333 117.356,-150.343"/>
</g>
<!-- theta -->
<g id="node3" class="node"><title>theta</title>
<polygon fill="lightgray" stroke="black" points="238.195,-129.146 203.195,-129.146 203.195,-111.146 238.195,-111.146 238.195,-129.146"/>
<text text-anchor="middle" x="220.695" y="-117.946" font-family="Times New Roman,serif" font-size="9.00">theta</text>
</g>
<!-- theta&#45;&gt;control -->
<g id="edge4" class="edge"><title>theta&#45;&gt;control</title>
<path fill="none" stroke="green" stroke-width="1.86785" d="M211.921,-110.956C206.747,-106.247 199.997,-100.31 193.695,-95.397 174.224,-80.2198 151.437,-64.4887 133.175,-52.3389"/>
<polygon fill="green" stroke="green" stroke-width="1.86785" points="134.881,-49.2712 124.608,-46.6802 131.023,-55.1121 134.881,-49.2712"/>
</g>
<!-- dtheta -->
<g id="node4" class="node"><title>dtheta</title>
<polygon fill="lightgray" stroke="black" points="57.1946,-129.146 18.1946,-129.146 18.1946,-111.146 57.1946,-111.146 57.1946,-129.146"/>
<text text-anchor="middle" x="37.6946" y="-117.946" font-family="Times New Roman,serif" font-size="9.00">dtheta</text>
</g>
<!-- dtheta&#45;&gt;control -->
<g id="edge1" class="edge"><title>dtheta&#45;&gt;control</title>
<path fill="none" stroke="green" stroke-width="0.968822" d="M43.4163,-110.983C51.0934,-100.031 65.1705,-79.9495 77.3245,-62.6109"/>
<polygon fill="green" stroke="green" stroke-width="0.968822" points="80.226,-64.5692 83.1001,-54.3717 74.494,-60.5512 80.226,-64.5692"/>
</g>
<!-- 352&#45;&gt;control -->
<g id="edge3" class="edge"><title>352&#45;&gt;control</title>
<path fill="none" stroke="red" stroke-width="0.856027" d="M151.657,-102.509C143.5,-91.2377 132.464,-75.9849 122.659,-62.4355"/>
<polygon fill="red" stroke="red" stroke-width="0.856027" points="125.449,-60.3198 116.751,-54.27 119.778,-64.4233 125.449,-60.3198"/>
</g>
<!-- 1071&#45;&gt;1071 -->
<g id="edge9" class="edge"><title>1071&#45;&gt;1071</title>
<path fill="none" stroke="green" stroke-width="0.363596" stroke-dasharray="1,5" d="M302.25,-132.447C313.396,-134.34 323.443,-130.239 323.443,-120.146 323.443,-113.364 318.908,-109.288 312.551,-107.917"/>
<polygon fill="green" stroke="green" stroke-width="0.363596" points="312.275,-104.415 302.25,-107.844 312.225,-111.415 312.275,-104.415"/>
</g>
<!-- 1586 -->
<g id="node9" class="node"><title>1586</title>
<ellipse fill="white" stroke="black" cx="280.695" cy="-29.6985" rx="25" ry="25"/>
<text text-anchor="middle" x="280.695" y="-27.4985" font-family="Times New Roman,serif" font-size="9.00">1586</text>
</g>
<!-- 1071&#45;&gt;1586 -->
<g id="edge10" class="edge"><title>1071&#45;&gt;1586</title>
<path fill="none" stroke="green" stroke-width="0.372075" d="M274.671,-95.9072C273.942,-86.157 273.761,-74.635 274.131,-64.0096"/>
<polygon fill="green" stroke="green" stroke-width="0.372075" points="277.639,-63.956 274.683,-53.7817 270.649,-63.5784 277.639,-63.956"/>
</g>
<!-- 1617&#45;&gt;control -->
<g id="edge13" class="edge"><title>1617&#45;&gt;control</title>
<path fill="none" stroke="red" stroke-width="0.15777" d="M99.6946,-94.9771C99.6946,-87.1955 99.6946,-78.3628 99.6946,-69.7908"/>
<polygon fill="red" stroke="red" stroke-width="0.15777" points="103.195,-69.5523 99.6946,-59.5523 96.1947,-69.5524 103.195,-69.5523"/>
</g>
<!-- 1586&#45;&gt;1071 -->
<g id="edge11" class="edge"><title>1586&#45;&gt;1071</title>
<path fill="none" stroke="green" stroke-width="0.491915" d="M286.706,-53.7817C287.442,-63.5131 287.628,-75.0303 287.264,-85.6652"/>
<polygon fill="green" stroke="green" stroke-width="0.491915" points="283.756,-85.7349 286.718,-95.9072 290.746,-86.108 283.756,-85.7349"/>
</g>
</g>
</svg>
