<?xml version="1.0" encoding="UTF-8" standalone="no"?>
<!DOCTYPE svg PUBLIC "-//W3C//DTD SVG 1.1//EN"
 "http://www.w3.org/Graphics/SVG/1.1/DTD/svg11.dtd">
<!-- Generated by graphviz version 2.38.0 (20140413.2041)
 -->
<!-- Title: %3 Pages: 1 -->
<svg width="217pt" height="224pt"
 viewBox="0.00 0.00 216.50 224.25" xmlns="http://www.w3.org/2000/svg" xmlns:xlink="http://www.w3.org/1999/xlink">
<g id="graph0" class="graph" transform="scale(1 1) rotate(0) translate(4 220.25)">
<title>%3</title>
<polygon fill="white" stroke="none" points="-4,4 -4,-220.25 212.5,-220.25 212.5,4 -4,4"/>
<!-- x -->
<g id="node1" class="node"><title>x</title>
<polygon fill="lightgray" stroke="black" points="20,-204.037 0,-204.037 0,-186.037 20,-186.037 20,-204.037"/>
<text text-anchor="middle" x="10" y="-192.837" font-family="Times New Roman,serif" font-size="9.00">x</text>
</g>
<!-- dx -->
<g id="node2" class="node"><title>dx</title>
<polygon fill="lightgray" stroke="black" points="63.5,-204.037 38.5,-204.037 38.5,-186.037 63.5,-186.037 63.5,-204.037"/>
<text text-anchor="middle" x="51" y="-192.837" font-family="Times New Roman,serif" font-size="9.00">dx</text>
</g>
<!-- 496 -->
<g id="node7" class="node"><title>496</title>
<ellipse fill="white" stroke="black" cx="77" cy="-116.61" rx="21.4286" ry="21.4286"/>
<text text-anchor="middle" x="77" y="-114.41" font-family="Times New Roman,serif" font-size="9.00">496</text>
</g>
<!-- dx&#45;&gt;496 -->
<g id="edge5" class="edge"><title>dx&#45;&gt;496</title>
<path fill="none" stroke="red" stroke-width="0.143622" d="M53.7825,-185.858C56.9449,-176.562 62.2867,-160.86 67.0496,-146.859"/>
<polygon fill="red" stroke="red" stroke-width="0.143622" points="70.4688,-147.676 70.376,-137.081 63.8418,-145.421 70.4688,-147.676"/>
</g>
<!-- theta -->
<g id="node3" class="node"><title>theta</title>
<polygon fill="lightgray" stroke="black" points="151.5,-125.61 116.5,-125.61 116.5,-107.61 151.5,-107.61 151.5,-125.61"/>
<text text-anchor="middle" x="134" y="-114.41" font-family="Times New Roman,serif" font-size="9.00">theta</text>
</g>
<!-- control -->
<g id="node5" class="node"><title>control</title>
<ellipse fill="lightblue" stroke="black" cx="134" cy="-29.6985" rx="29.8983" ry="29.8983"/>
<text text-anchor="middle" x="134" y="-27.4985" font-family="Times New Roman,serif" font-size="9.00">control</text>
</g>
<!-- theta&#45;&gt;control -->
<g id="edge2" class="edge"><title>theta&#45;&gt;control</title>
<path fill="none" stroke="green" stroke-width="1.25363" d="M134,-107.468C134,-98.6504 134,-83.9334 134,-69.7307"/>
<polygon fill="green" stroke="green" stroke-width="1.25363" points="137.5,-69.5716 134,-59.5716 130.5,-69.5716 137.5,-69.5716"/>
</g>
<!-- dtheta -->
<g id="node4" class="node"><title>dtheta</title>
<polygon fill="lightgray" stroke="black" points="208.5,-125.61 169.5,-125.61 169.5,-107.61 208.5,-107.61 208.5,-125.61"/>
<text text-anchor="middle" x="189" y="-114.41" font-family="Times New Roman,serif" font-size="9.00">dtheta</text>
</g>
<!-- dtheta&#45;&gt;control -->
<g id="edge1" class="edge"><title>dtheta&#45;&gt;control</title>
<path fill="none" stroke="green" stroke-width="0.416417" d="M183.726,-107.468C177.193,-97.3817 165.66,-79.5768 155.345,-63.6519"/>
<polygon fill="green" stroke="green" stroke-width="0.416417" points="158.153,-61.5495 149.779,-55.0592 152.278,-65.3551 158.153,-61.5495"/>
</g>
<!-- 676 -->
<g id="node6" class="node"><title>676</title>
<ellipse fill="white" stroke="black" cx="103" cy="-195.037" rx="21.4286" ry="21.4286"/>
<text text-anchor="middle" x="103" y="-192.837" font-family="Times New Roman,serif" font-size="9.00">676</text>
</g>
<!-- 676&#45;&gt;496 -->
<g id="edge4" class="edge"><title>676&#45;&gt;496</title>
<path fill="none" stroke="red" stroke-width="0.316543" d="M96.4391,-174.751C93.5138,-166.152 90.0066,-155.843 86.7815,-146.363"/>
<polygon fill="red" stroke="red" stroke-width="0.316543" points="90.0931,-145.23 83.5588,-136.89 83.4661,-147.484 90.0931,-145.23"/>
</g>
<!-- 496&#45;&gt;control -->
<g id="edge3" class="edge"><title>496&#45;&gt;control</title>
<path fill="none" stroke="red" stroke-width="0.821212" d="M88.5348,-98.427C95.2884,-88.3663 104.04,-75.3287 112.06,-63.3825"/>
<polygon fill="red" stroke="red" stroke-width="0.821212" points="115.063,-65.1884 117.73,-54.9349 109.251,-61.2869 115.063,-65.1884"/>
</g>
</g>
</svg>
