<?xml version="1.0" encoding="UTF-8" standalone="no"?>
<!DOCTYPE svg PUBLIC "-//W3C//DTD SVG 1.1//EN"
 "http://www.w3.org/Graphics/SVG/1.1/DTD/svg11.dtd">
<!-- Generated by graphviz version 2.38.0 (20140413.2041)
 -->
<!-- Title: %3 Pages: 1 -->
<svg width="222pt" height="200pt"
 viewBox="0.00 0.00 221.50 199.82" xmlns="http://www.w3.org/2000/svg" xmlns:xlink="http://www.w3.org/1999/xlink">
<g id="graph0" class="graph" transform="scale(1 1) rotate(0) translate(4 195.823)">
<title>%3</title>
<polygon fill="white" stroke="none" points="-4,4 -4,-195.823 217.5,-195.823 217.5,4 -4,4"/>
<!-- x -->
<g id="node1" class="node"><title>x</title>
<polygon fill="lightgray" stroke="black" points="20,-125.61 0,-125.61 0,-107.61 20,-107.61 20,-125.61"/>
<text text-anchor="middle" x="10" y="-114.41" font-family="Times New Roman,serif" font-size="9.00">x</text>
</g>
<!-- control -->
<g id="node5" class="node"><title>control</title>
<ellipse fill="lightblue" stroke="black" cx="97" cy="-29.6985" rx="29.8983" ry="29.8983"/>
<text text-anchor="middle" x="97" y="-27.4985" font-family="Times New Roman,serif" font-size="9.00">control</text>
</g>
<!-- x&#45;&gt;control -->
<g id="edge3" class="edge"><title>x&#45;&gt;control</title>
<path fill="none" stroke="green" stroke-width="0.185939" d="M18.3419,-107.468C29.8782,-96.2091 51.2681,-75.3326 68.8332,-58.1892"/>
<polygon fill="green" stroke="green" stroke-width="0.185939" points="71.3751,-60.599 76.087,-51.1095 66.4859,-55.5895 71.3751,-60.599"/>
</g>
<!-- dx -->
<g id="node2" class="node"><title>dx</title>
<polygon fill="lightgray" stroke="black" points="85.5,-191.823 60.5,-191.823 60.5,-173.823 85.5,-173.823 85.5,-191.823"/>
<text text-anchor="middle" x="73" y="-180.623" font-family="Times New Roman,serif" font-size="9.00">dx</text>
</g>
<!-- dx&#45;&gt;control -->
<g id="edge1" class="edge"><title>dx&#45;&gt;control</title>
<path fill="none" stroke="green" stroke-width="0.279699" d="M70.8962,-173.607C67.265,-158.112 60.78,-123.597 67,-95.397 69.2801,-85.0595 73.3835,-74.4104 77.838,-64.8108"/>
<polygon fill="green" stroke="green" stroke-width="0.279699" points="81.0892,-66.1304 82.355,-55.6115 74.8057,-63.0451 81.0892,-66.1304"/>
</g>
<!-- 421 -->
<g id="node6" class="node"><title>421</title>
<ellipse fill="white" stroke="black" cx="97" cy="-116.61" rx="21.4286" ry="21.4286"/>
<text text-anchor="middle" x="97" y="-114.41" font-family="Times New Roman,serif" font-size="9.00">421</text>
</g>
<!-- dx&#45;&gt;421 -->
<g id="edge5" class="edge"><title>dx&#45;&gt;421</title>
<path fill="none" stroke="red" stroke-width="0.152001" d="M76.0396,-173.691C78.6587,-166.683 82.6008,-156.136 86.362,-146.073"/>
<polygon fill="red" stroke="red" stroke-width="0.152001" points="89.6411,-147.296 89.8637,-136.704 83.0841,-144.846 89.6411,-147.296"/>
</g>
<!-- theta -->
<g id="node3" class="node"><title>theta</title>
<polygon fill="lightgray" stroke="black" points="138.5,-191.823 103.5,-191.823 103.5,-173.823 138.5,-173.823 138.5,-191.823"/>
<text text-anchor="middle" x="121" y="-180.623" font-family="Times New Roman,serif" font-size="9.00">theta</text>
</g>
<!-- theta&#45;&gt;control -->
<g id="edge2" class="edge"><title>theta&#45;&gt;control</title>
<path fill="none" stroke="green" stroke-width="0.42507" d="M123.104,-173.607C126.735,-158.112 133.22,-123.597 127,-95.397 124.72,-85.0595 120.616,-74.4104 116.162,-64.8108"/>
<polygon fill="green" stroke="green" stroke-width="0.42507" points="119.194,-63.0451 111.645,-55.6115 112.911,-66.1304 119.194,-63.0451"/>
</g>
<!-- theta&#45;&gt;421 -->
<g id="edge7" class="edge"><title>theta&#45;&gt;421</title>
<path fill="none" stroke="red" stroke-width="0.203941" d="M117.96,-173.691C115.341,-166.683 111.399,-156.136 107.638,-146.073"/>
<polygon fill="red" stroke="red" stroke-width="0.203941" points="110.916,-144.846 104.136,-136.704 104.359,-147.296 110.916,-144.846"/>
</g>
<!-- dtheta -->
<g id="node4" class="node"><title>dtheta</title>
<polygon fill="lightgray" stroke="black" points="213.5,-125.61 174.5,-125.61 174.5,-107.61 213.5,-107.61 213.5,-125.61"/>
<text text-anchor="middle" x="194" y="-114.41" font-family="Times New Roman,serif" font-size="9.00">dtheta</text>
</g>
<!-- dtheta&#45;&gt;control -->
<g id="edge4" class="edge"><title>dtheta&#45;&gt;control</title>
<path fill="none" stroke="green" stroke-width="0.54837" d="M184.699,-107.468C171.471,-95.8887 146.622,-74.1367 126.743,-56.7351"/>
<polygon fill="green" stroke="green" stroke-width="0.54837" points="128.958,-54.0223 119.128,-50.0692 124.347,-59.2894 128.958,-54.0223"/>
</g>
<!-- 421&#45;&gt;control -->
<g id="edge6" class="edge"><title>421&#45;&gt;control</title>
<path fill="none" stroke="green" stroke-width="0.27614" d="M97,-95.0554C97,-87.3649 97,-78.3542 97,-69.5515"/>
<polygon fill="green" stroke="green" stroke-width="0.27614" points="100.5,-69.405 97,-59.405 93.5001,-69.405 100.5,-69.405"/>
</g>
</g>
</svg>
