<?xml version="1.0" encoding="UTF-8" standalone="no"?>
<!DOCTYPE svg PUBLIC "-//W3C//DTD SVG 1.1//EN"
 "http://www.w3.org/Graphics/SVG/1.1/DTD/svg11.dtd">
<!-- Generated by graphviz version 2.38.0 (20140413.2041)
 -->
<!-- Title: %3 Pages: 1 -->
<svg width="254pt" height="153pt"
 viewBox="0.00 0.00 253.75 152.89" xmlns="http://www.w3.org/2000/svg" xmlns:xlink="http://www.w3.org/1999/xlink">
<g id="graph0" class="graph" transform="scale(1 1) rotate(0) translate(4 148.894)">
<title>%3</title>
<polygon fill="white" stroke="none" points="-4,4 -4,-148.894 249.749,-148.894 249.749,4 -4,4"/>
<!-- x -->
<g id="node1" class="node"><title>x</title>
<polygon fill="lightgray" stroke="black" points="20,-129.146 0,-129.146 0,-111.146 20,-111.146 20,-129.146"/>
<text text-anchor="middle" x="10" y="-117.946" font-family="Times New Roman,serif" font-size="9.00">x</text>
</g>
<!-- dx -->
<g id="node2" class="node"><title>dx</title>
<polygon fill="lightgray" stroke="black" points="178.5,-129.146 153.5,-129.146 153.5,-111.146 178.5,-111.146 178.5,-129.146"/>
<text text-anchor="middle" x="166" y="-117.946" font-family="Times New Roman,serif" font-size="9.00">dx</text>
</g>
<!-- control -->
<g id="node5" class="node"><title>control</title>
<ellipse fill="lightblue" stroke="black" cx="106" cy="-29.6985" rx="29.8983" ry="29.8983"/>
<text text-anchor="middle" x="106" y="-27.4985" font-family="Times New Roman,serif" font-size="9.00">control</text>
</g>
<!-- dx&#45;&gt;control -->
<g id="edge2" class="edge"><title>dx&#45;&gt;control</title>
<path fill="none" stroke="green" stroke-width="0.593398" d="M160.463,-110.983C153.15,-100.204 139.838,-80.5795 128.205,-63.4317"/>
<polygon fill="green" stroke="green" stroke-width="0.593398" points="130.826,-61.0609 122.316,-54.7502 125.033,-64.9907 130.826,-61.0609"/>
</g>
<!-- 975 -->
<g id="node7" class="node"><title>975</title>
<ellipse fill="white" stroke="black" cx="175" cy="-29.6985" rx="21.4286" ry="21.4286"/>
<text text-anchor="middle" x="175" y="-27.4985" font-family="Times New Roman,serif" font-size="9.00">975</text>
</g>
<!-- dx&#45;&gt;975 -->
<g id="edge3" class="edge"><title>dx&#45;&gt;975</title>
<path fill="none" stroke="red" stroke-width="0.124611" stroke-dasharray="1,5" d="M166.831,-110.983C167.969,-99.7922 170.078,-79.0679 171.868,-61.4788"/>
<polygon fill="red" stroke="red" stroke-width="0.124611" points="175.399,-61.3485 172.93,-51.0456 168.435,-60.6399 175.399,-61.3485"/>
</g>
<!-- theta -->
<g id="node3" class="node"><title>theta</title>
<polygon fill="lightgray" stroke="black" points="73.5,-129.146 38.5,-129.146 38.5,-111.146 73.5,-111.146 73.5,-129.146"/>
<text text-anchor="middle" x="56" y="-117.946" font-family="Times New Roman,serif" font-size="9.00">theta</text>
</g>
<!-- theta&#45;&gt;control -->
<g id="edge4" class="edge"><title>theta&#45;&gt;control</title>
<path fill="none" stroke="green" stroke-width="0.342463" d="M60.6143,-110.983C66.5297,-100.519 77.1569,-81.7202 86.6413,-64.9429"/>
<polygon fill="green" stroke="green" stroke-width="0.342463" points="89.8813,-66.3237 91.7556,-55.896 83.7876,-62.8788 89.8813,-66.3237"/>
</g>
<!-- dtheta -->
<g id="node4" class="node"><title>dtheta</title>
<polygon fill="lightgray" stroke="black" points="130.5,-129.146 91.5,-129.146 91.5,-111.146 130.5,-111.146 130.5,-129.146"/>
<text text-anchor="middle" x="111" y="-117.946" font-family="Times New Roman,serif" font-size="9.00">dtheta</text>
</g>
<!-- dtheta&#45;&gt;control -->
<g id="edge1" class="edge"><title>dtheta&#45;&gt;control</title>
<path fill="none" stroke="green" stroke-width="1.37298" d="M110.539,-110.983C109.999,-101.441 109.068,-84.9687 108.189,-69.4183"/>
<polygon fill="green" stroke="green" stroke-width="1.37298" points="111.682,-69.2012 107.623,-59.4148 104.693,-69.5964 111.682,-69.2012"/>
</g>
<!-- 1270 -->
<g id="node6" class="node"><title>1270</title>
<ellipse fill="white" stroke="black" cx="221" cy="-120.146" rx="25" ry="25"/>
<text text-anchor="middle" x="221" y="-117.946" font-family="Times New Roman,serif" font-size="9.00">1270</text>
</g>
</g>
</svg>
