<?xml version="1.0" encoding="utf-8" standalone="no"?>
<!DOCTYPE svg PUBLIC "-//W3C//DTD SVG 1.1//EN"
  "http://www.w3.org/Graphics/SVG/1.1/DTD/svg11.dtd">
<!-- Created with matplotlib (https://matplotlib.org/) -->
<svg height="345.6pt" version="1.1" viewBox="0 0 460.8 345.6" width="460.8pt" xmlns="http://www.w3.org/2000/svg" xmlns:xlink="http://www.w3.org/1999/xlink">
 <defs>
  <style type="text/css">
*{stroke-linecap:butt;stroke-linejoin:round;}
  </style>
 </defs>
 <g id="figure_1">
  <g id="patch_1">
   <path d="M 0 345.6 
L 460.8 345.6 
L 460.8 0 
L 0 0 
z
" style="fill:#ffffff;"/>
  </g>
  <g id="axes_1">
   <g id="patch_2">
    <path d="M 57.6 307.584 
L 414.72 307.584 
L 414.72 41.472 
L 57.6 41.472 
z
" style="fill:#ffffff;"/>
   </g>
   <g id="PolyCollection_1">
    <path clip-path="url(#p8d91b34939)" d="M 73.832727 306.582261 
L 73.832727 307.584 
L 82.157203 307.584 
L 90.481678 307.584 
L 98.806154 307.584 
L 107.130629 307.584 
L 115.455105 307.584 
L 123.77958 307.584 
L 132.104056 307.584 
L 140.428531 307.584 
L 148.753007 307.584 
L 157.077483 307.584 
L 165.401958 307.584 
L 173.726434 307.584 
L 182.050909 307.584 
L 190.375385 307.584 
L 198.69986 307.584 
L 207.024336 307.584 
L 215.348811 307.584 
L 223.673287 307.584 
L 231.997762 307.584 
L 240.322238 307.584 
L 248.646713 307.584 
L 256.971189 307.584 
L 265.295664 307.584 
L 273.62014 307.584 
L 281.944615 307.584 
L 290.269091 307.584 
L 298.593566 307.584 
L 306.918042 307.584 
L 315.242517 307.584 
L 323.566993 307.584 
L 331.891469 307.584 
L 340.215944 307.584 
L 348.54042 307.584 
L 356.864895 307.584 
L 365.189371 307.584 
L 373.513846 307.584 
L 381.838322 307.584 
L 390.162797 307.584 
L 398.487273 307.584 
L 398.487273 289.552696 
L 398.487273 289.552696 
L 390.162797 282.540522 
L 381.838322 281.538783 
L 373.513846 269.517913 
L 365.189371 296.56487 
L 356.864895 293.559652 
L 348.54042 298.568348 
L 340.215944 260.502261 
L 331.891469 273.52487 
L 323.566993 274.526609 
L 315.242517 280.537043 
L 306.918042 274.526609 
L 298.593566 284.544 
L 290.269091 288.550957 
L 281.944615 290.554435 
L 273.62014 278.533565 
L 265.295664 274.526609 
L 256.971189 287.549217 
L 248.646713 286.547478 
L 240.322238 286.547478 
L 231.997762 283.542261 
L 223.673287 275.528348 
L 215.348811 274.526609 
L 207.024336 290.554435 
L 198.69986 298.568348 
L 190.375385 291.556174 
L 182.050909 296.56487 
L 173.726434 279.535304 
L 165.401958 274.526609 
L 157.077483 270.519652 
L 148.753007 260.502261 
L 140.428531 262.505739 
L 132.104056 296.56487 
L 123.77958 295.56313 
L 115.455105 301.573565 
L 107.130629 302.575304 
L 98.806154 301.573565 
L 90.481678 300.571826 
L 82.157203 300.571826 
L 73.832727 306.582261 
z
" style="fill:#1f77b4;"/>
   </g>
   <g id="PolyCollection_2">
    <path clip-path="url(#p8d91b34939)" d="M 73.832727 214.422261 
L 73.832727 306.582261 
L 82.157203 300.571826 
L 90.481678 300.571826 
L 98.806154 301.573565 
L 107.130629 302.575304 
L 115.455105 301.573565 
L 123.77958 295.56313 
L 132.104056 296.56487 
L 140.428531 262.505739 
L 148.753007 260.502261 
L 157.077483 270.519652 
L 165.401958 274.526609 
L 173.726434 279.535304 
L 182.050909 296.56487 
L 190.375385 291.556174 
L 198.69986 298.568348 
L 207.024336 290.554435 
L 215.348811 274.526609 
L 223.673287 275.528348 
L 231.997762 283.542261 
L 240.322238 286.547478 
L 248.646713 286.547478 
L 256.971189 287.549217 
L 265.295664 274.526609 
L 273.62014 278.533565 
L 281.944615 290.554435 
L 290.269091 288.550957 
L 298.593566 284.544 
L 306.918042 274.526609 
L 315.242517 280.537043 
L 323.566993 274.526609 
L 331.891469 273.52487 
L 340.215944 260.502261 
L 348.54042 298.568348 
L 356.864895 293.559652 
L 365.189371 296.56487 
L 373.513846 269.517913 
L 381.838322 281.538783 
L 390.162797 282.540522 
L 398.487273 289.552696 
L 398.487273 272.52313 
L 398.487273 272.52313 
L 390.162797 268.516174 
L 381.838322 265.510957 
L 373.513846 256.495304 
L 365.189371 288.550957 
L 356.864895 278.533565 
L 348.54042 276.530087 
L 340.215944 243.472696 
L 331.891469 264.509217 
L 323.566993 265.510957 
L 315.242517 267.514435 
L 306.918042 266.512696 
L 298.593566 268.516174 
L 290.269091 281.538783 
L 281.944615 276.530087 
L 273.62014 267.514435 
L 265.295664 271.521391 
L 256.971189 272.52313 
L 248.646713 278.533565 
L 240.322238 281.538783 
L 231.997762 269.517913 
L 223.673287 266.512696 
L 215.348811 258.498783 
L 207.024336 277.531826 
L 198.69986 289.552696 
L 190.375385 289.552696 
L 182.050909 280.537043 
L 173.726434 271.521391 
L 165.401958 252.488348 
L 157.077483 253.490087 
L 148.753007 249.48313 
L 140.428531 218.429217 
L 132.104056 237.462261 
L 123.77958 242.470957 
L 115.455105 260.502261 
L 107.130629 277.531826 
L 98.806154 250.48487 
L 90.481678 272.52313 
L 82.157203 273.52487 
L 73.832727 214.422261 
z
" style="fill:#ff7f0e;"/>
   </g>
   <g id="PolyCollection_3">
    <path clip-path="url(#p8d91b34939)" d="M 73.832727 169.344 
L 73.832727 214.422261 
L 82.157203 273.52487 
L 90.481678 272.52313 
L 98.806154 250.48487 
L 107.130629 277.531826 
L 115.455105 260.502261 
L 123.77958 242.470957 
L 132.104056 237.462261 
L 140.428531 218.429217 
L 148.753007 249.48313 
L 157.077483 253.490087 
L 165.401958 252.488348 
L 173.726434 271.521391 
L 182.050909 280.537043 
L 190.375385 289.552696 
L 198.69986 289.552696 
L 207.024336 277.531826 
L 215.348811 258.498783 
L 223.673287 266.512696 
L 231.997762 269.517913 
L 240.322238 281.538783 
L 248.646713 278.533565 
L 256.971189 272.52313 
L 265.295664 271.521391 
L 273.62014 267.514435 
L 281.944615 276.530087 
L 290.269091 281.538783 
L 298.593566 268.516174 
L 306.918042 266.512696 
L 315.242517 267.514435 
L 323.566993 265.510957 
L 331.891469 264.509217 
L 340.215944 243.472696 
L 348.54042 276.530087 
L 356.864895 278.533565 
L 365.189371 288.550957 
L 373.513846 256.495304 
L 381.838322 265.510957 
L 390.162797 268.516174 
L 398.487273 272.52313 
L 398.487273 272.52313 
L 398.487273 272.52313 
L 390.162797 268.516174 
L 381.838322 265.510957 
L 373.513846 256.495304 
L 365.189371 288.550957 
L 356.864895 278.533565 
L 348.54042 276.530087 
L 340.215944 243.472696 
L 331.891469 264.509217 
L 323.566993 265.510957 
L 315.242517 267.514435 
L 306.918042 266.512696 
L 298.593566 266.512696 
L 290.269091 273.52487 
L 281.944615 265.510957 
L 273.62014 255.493565 
L 265.295664 255.493565 
L 256.971189 261.504 
L 248.646713 260.502261 
L 240.322238 269.517913 
L 231.997762 258.498783 
L 223.673287 243.472696 
L 215.348811 246.477913 
L 207.024336 270.519652 
L 198.69986 281.538783 
L 190.375385 287.549217 
L 182.050909 270.519652 
L 173.726434 253.490087 
L 165.401958 235.458783 
L 157.077483 215.424 
L 148.753007 230.450087 
L 140.428531 183.368348 
L 132.104056 218.429217 
L 123.77958 229.448348 
L 115.455105 245.476174 
L 107.130629 241.469217 
L 98.806154 230.450087 
L 90.481678 241.469217 
L 82.157203 268.516174 
L 73.832727 169.344 
z
" style="fill:#2ca02c;"/>
   </g>
   <g id="PolyCollection_4">
    <path clip-path="url(#p8d91b34939)" d="M 73.832727 151.312696 
L 73.832727 169.344 
L 82.157203 268.516174 
L 90.481678 241.469217 
L 98.806154 230.450087 
L 107.130629 241.469217 
L 115.455105 245.476174 
L 123.77958 229.448348 
L 132.104056 218.429217 
L 140.428531 183.368348 
L 148.753007 230.450087 
L 157.077483 215.424 
L 165.401958 235.458783 
L 173.726434 253.490087 
L 182.050909 270.519652 
L 190.375385 287.549217 
L 198.69986 281.538783 
L 207.024336 270.519652 
L 215.348811 246.477913 
L 223.673287 243.472696 
L 231.997762 258.498783 
L 240.322238 269.517913 
L 248.646713 260.502261 
L 256.971189 261.504 
L 265.295664 255.493565 
L 273.62014 255.493565 
L 281.944615 265.510957 
L 290.269091 273.52487 
L 298.593566 266.512696 
L 306.918042 266.512696 
L 315.242517 267.514435 
L 323.566993 265.510957 
L 331.891469 264.509217 
L 340.215944 243.472696 
L 348.54042 276.530087 
L 356.864895 278.533565 
L 365.189371 288.550957 
L 373.513846 256.495304 
L 381.838322 265.510957 
L 390.162797 268.516174 
L 398.487273 272.52313 
L 398.487273 272.52313 
L 398.487273 272.52313 
L 390.162797 268.516174 
L 381.838322 265.510957 
L 373.513846 256.495304 
L 365.189371 288.550957 
L 356.864895 278.533565 
L 348.54042 276.530087 
L 340.215944 243.472696 
L 331.891469 264.509217 
L 323.566993 265.510957 
L 315.242517 267.514435 
L 306.918042 266.512696 
L 298.593566 266.512696 
L 290.269091 273.52487 
L 281.944615 265.510957 
L 273.62014 255.493565 
L 265.295664 255.493565 
L 256.971189 261.504 
L 248.646713 249.48313 
L 240.322238 260.502261 
L 231.997762 242.470957 
L 223.673287 233.455304 
L 215.348811 228.446609 
L 207.024336 241.469217 
L 198.69986 242.470957 
L 190.375385 262.505739 
L 182.050909 256.495304 
L 173.726434 231.451826 
L 165.401958 224.439652 
L 157.077483 208.411826 
L 148.753007 211.417043 
L 140.428531 174.352696 
L 132.104056 198.394435 
L 123.77958 173.350957 
L 115.455105 163.333565 
L 107.130629 189.378783 
L 98.806154 172.349217 
L 90.481678 153.316174 
L 82.157203 176.356174 
L 73.832727 151.312696 
z
" style="fill:#d62728;"/>
   </g>
   <g id="PolyCollection_5">
    <path clip-path="url(#p8d91b34939)" d="M 73.832727 143.298783 
L 73.832727 151.312696 
L 82.157203 176.356174 
L 90.481678 153.316174 
L 98.806154 172.349217 
L 107.130629 189.378783 
L 115.455105 163.333565 
L 123.77958 173.350957 
L 132.104056 198.394435 
L 140.428531 174.352696 
L 148.753007 211.417043 
L 157.077483 208.411826 
L 165.401958 224.439652 
L 173.726434 231.451826 
L 182.050909 256.495304 
L 190.375385 262.505739 
L 198.69986 242.470957 
L 207.024336 241.469217 
L 215.348811 228.446609 
L 223.673287 233.455304 
L 231.997762 242.470957 
L 240.322238 260.502261 
L 248.646713 249.48313 
L 256.971189 261.504 
L 265.295664 255.493565 
L 273.62014 255.493565 
L 281.944615 265.510957 
L 290.269091 273.52487 
L 298.593566 266.512696 
L 306.918042 266.512696 
L 315.242517 267.514435 
L 323.566993 265.510957 
L 331.891469 264.509217 
L 340.215944 243.472696 
L 348.54042 276.530087 
L 356.864895 278.533565 
L 365.189371 288.550957 
L 373.513846 256.495304 
L 381.838322 265.510957 
L 390.162797 268.516174 
L 398.487273 272.52313 
L 398.487273 269.517913 
L 398.487273 269.517913 
L 390.162797 265.510957 
L 381.838322 260.502261 
L 373.513846 252.488348 
L 365.189371 285.545739 
L 356.864895 275.528348 
L 348.54042 272.52313 
L 340.215944 239.465739 
L 331.891469 262.505739 
L 323.566993 261.504 
L 315.242517 265.510957 
L 306.918042 260.502261 
L 298.593566 260.502261 
L 290.269091 268.516174 
L 281.944615 261.504 
L 273.62014 252.488348 
L 265.295664 250.48487 
L 256.971189 255.493565 
L 248.646713 244.474435 
L 240.322238 256.495304 
L 231.997762 237.462261 
L 223.673287 230.450087 
L 215.348811 227.44487 
L 207.024336 233.455304 
L 198.69986 237.462261 
L 190.375385 256.495304 
L 182.050909 251.486609 
L 173.726434 227.44487 
L 165.401958 220.432696 
L 157.077483 202.401391 
L 148.753007 206.408348 
L 140.428531 167.340522 
L 132.104056 192.384 
L 123.77958 166.338783 
L 115.455105 154.317913 
L 107.130629 181.36487 
L 98.806154 164.335304 
L 90.481678 147.305739 
L 82.157203 170.345739 
L 73.832727 143.298783 
z
" style="fill:#9467bd;"/>
   </g>
   <g id="PolyCollection_6">
    <path clip-path="url(#p8d91b34939)" d="M 73.832727 121.260522 
L 73.832727 143.298783 
L 82.157203 170.345739 
L 90.481678 147.305739 
L 98.806154 164.335304 
L 107.130629 181.36487 
L 115.455105 154.317913 
L 123.77958 166.338783 
L 132.104056 192.384 
L 140.428531 167.340522 
L 148.753007 206.408348 
L 157.077483 202.401391 
L 165.401958 220.432696 
L 173.726434 227.44487 
L 182.050909 251.486609 
L 190.375385 256.495304 
L 198.69986 237.462261 
L 207.024336 233.455304 
L 215.348811 227.44487 
L 223.673287 230.450087 
L 231.997762 237.462261 
L 240.322238 256.495304 
L 248.646713 244.474435 
L 256.971189 255.493565 
L 265.295664 250.48487 
L 273.62014 252.488348 
L 281.944615 261.504 
L 290.269091 268.516174 
L 298.593566 260.502261 
L 306.918042 260.502261 
L 315.242517 265.510957 
L 323.566993 261.504 
L 331.891469 262.505739 
L 340.215944 239.465739 
L 348.54042 272.52313 
L 356.864895 275.528348 
L 365.189371 285.545739 
L 373.513846 252.488348 
L 381.838322 260.502261 
L 390.162797 265.510957 
L 398.487273 269.517913 
L 398.487273 256.495304 
L 398.487273 256.495304 
L 390.162797 252.488348 
L 381.838322 248.481391 
L 373.513846 241.469217 
L 365.189371 268.516174 
L 356.864895 262.505739 
L 348.54042 261.504 
L 340.215944 227.44487 
L 331.891469 250.48487 
L 323.566993 251.486609 
L 315.242517 257.497043 
L 306.918042 251.486609 
L 298.593566 250.48487 
L 290.269091 254.491826 
L 281.944615 247.479652 
L 273.62014 237.462261 
L 265.295664 237.462261 
L 256.971189 244.474435 
L 248.646713 231.451826 
L 240.322238 243.472696 
L 231.997762 222.436174 
L 223.673287 215.424 
L 215.348811 215.424 
L 207.024336 220.432696 
L 198.69986 229.448348 
L 190.375385 243.472696 
L 182.050909 242.470957 
L 173.726434 216.425739 
L 165.401958 205.406609 
L 157.077483 178.359652 
L 148.753007 189.378783 
L 140.428531 159.326609 
L 132.104056 186.373565 
L 123.77958 157.32313 
L 115.455105 149.309217 
L 107.130629 173.350957 
L 98.806154 156.321391 
L 90.481678 141.295304 
L 82.157203 143.298783 
L 73.832727 121.260522 
z
" style="fill:#8c564b;"/>
   </g>
   <g id="PolyCollection_7">
    <path clip-path="url(#p8d91b34939)" d="M 73.832727 120.258783 
L 73.832727 121.260522 
L 82.157203 143.298783 
L 90.481678 141.295304 
L 98.806154 156.321391 
L 107.130629 173.350957 
L 115.455105 149.309217 
L 123.77958 157.32313 
L 132.104056 186.373565 
L 140.428531 159.326609 
L 148.753007 189.378783 
L 157.077483 178.359652 
L 165.401958 205.406609 
L 173.726434 216.425739 
L 182.050909 242.470957 
L 190.375385 243.472696 
L 198.69986 229.448348 
L 207.024336 220.432696 
L 215.348811 215.424 
L 223.673287 215.424 
L 231.997762 222.436174 
L 240.322238 243.472696 
L 248.646713 231.451826 
L 256.971189 244.474435 
L 265.295664 237.462261 
L 273.62014 237.462261 
L 281.944615 247.479652 
L 290.269091 254.491826 
L 298.593566 250.48487 
L 306.918042 251.486609 
L 315.242517 257.497043 
L 323.566993 251.486609 
L 331.891469 250.48487 
L 340.215944 227.44487 
L 348.54042 261.504 
L 356.864895 262.505739 
L 365.189371 268.516174 
L 373.513846 241.469217 
L 381.838322 248.481391 
L 390.162797 252.488348 
L 398.487273 256.495304 
L 398.487273 253.490087 
L 398.487273 253.490087 
L 390.162797 245.476174 
L 381.838322 234.457043 
L 373.513846 230.450087 
L 365.189371 252.488348 
L 356.864895 247.479652 
L 348.54042 249.48313 
L 340.215944 213.420522 
L 331.891469 239.465739 
L 323.566993 237.462261 
L 315.242517 244.474435 
L 306.918042 240.467478 
L 298.593566 235.458783 
L 290.269091 235.458783 
L 281.944615 233.455304 
L 273.62014 222.436174 
L 265.295664 225.441391 
L 256.971189 228.446609 
L 248.646713 212.418783 
L 240.322238 219.430957 
L 231.997762 204.40487 
L 223.673287 196.390957 
L 215.348811 200.397913 
L 207.024336 207.410087 
L 198.69986 219.430957 
L 190.375385 229.448348 
L 182.050909 229.448348 
L 173.726434 204.40487 
L 165.401958 196.390957 
L 157.077483 168.342261 
L 148.753007 180.36313 
L 140.428531 152.314435 
L 132.104056 177.357913 
L 123.77958 148.307478 
L 115.455105 143.298783 
L 107.130629 166.338783 
L 98.806154 149.309217 
L 90.481678 133.281391 
L 82.157203 133.281391 
L 73.832727 120.258783 
z
" style="fill:#e377c2;"/>
   </g>
   <g id="PolyCollection_8">
    <path clip-path="url(#p8d91b34939)" d="M 73.832727 94.213565 
L 73.832727 120.258783 
L 82.157203 133.281391 
L 90.481678 133.281391 
L 98.806154 149.309217 
L 107.130629 166.338783 
L 115.455105 143.298783 
L 123.77958 148.307478 
L 132.104056 177.357913 
L 140.428531 152.314435 
L 148.753007 180.36313 
L 157.077483 168.342261 
L 165.401958 196.390957 
L 173.726434 204.40487 
L 182.050909 229.448348 
L 190.375385 229.448348 
L 198.69986 219.430957 
L 207.024336 207.410087 
L 215.348811 200.397913 
L 223.673287 196.390957 
L 231.997762 204.40487 
L 240.322238 219.430957 
L 248.646713 212.418783 
L 256.971189 228.446609 
L 265.295664 225.441391 
L 273.62014 222.436174 
L 281.944615 233.455304 
L 290.269091 235.458783 
L 298.593566 235.458783 
L 306.918042 240.467478 
L 315.242517 244.474435 
L 323.566993 237.462261 
L 331.891469 239.465739 
L 340.215944 213.420522 
L 348.54042 249.48313 
L 356.864895 247.479652 
L 365.189371 252.488348 
L 373.513846 230.450087 
L 381.838322 234.457043 
L 390.162797 245.476174 
L 398.487273 253.490087 
L 398.487273 243.472696 
L 398.487273 243.472696 
L 390.162797 234.457043 
L 381.838322 224.439652 
L 373.513846 219.430957 
L 365.189371 240.467478 
L 356.864895 237.462261 
L 348.54042 238.464 
L 340.215944 201.399652 
L 331.891469 226.44313 
L 323.566993 227.44487 
L 315.242517 232.453565 
L 306.918042 230.450087 
L 298.593566 227.44487 
L 290.269091 227.44487 
L 281.944615 224.439652 
L 273.62014 214.422261 
L 265.295664 220.432696 
L 256.971189 222.436174 
L 248.646713 205.406609 
L 240.322238 211.417043 
L 231.997762 198.394435 
L 223.673287 186.373565 
L 215.348811 190.380522 
L 207.024336 201.399652 
L 198.69986 211.417043 
L 190.375385 219.430957 
L 182.050909 224.439652 
L 173.726434 198.394435 
L 165.401958 189.378783 
L 157.077483 161.330087 
L 148.753007 172.349217 
L 140.428531 142.297043 
L 132.104056 165.337043 
L 123.77958 138.290087 
L 115.455105 132.279652 
L 107.130629 156.321391 
L 98.806154 142.297043 
L 90.481678 127.270957 
L 82.157203 130.276174 
L 73.832727 94.213565 
z
" style="fill:#7f7f7f;"/>
   </g>
   <g id="PolyCollection_9">
    <path clip-path="url(#p8d91b34939)" d="M 73.832727 87.201391 
L 73.832727 94.213565 
L 82.157203 130.276174 
L 90.481678 127.270957 
L 98.806154 142.297043 
L 107.130629 156.321391 
L 115.455105 132.279652 
L 123.77958 138.290087 
L 132.104056 165.337043 
L 140.428531 142.297043 
L 148.753007 172.349217 
L 157.077483 161.330087 
L 165.401958 189.378783 
L 173.726434 198.394435 
L 182.050909 224.439652 
L 190.375385 219.430957 
L 198.69986 211.417043 
L 207.024336 201.399652 
L 215.348811 190.380522 
L 223.673287 186.373565 
L 231.997762 198.394435 
L 240.322238 211.417043 
L 248.646713 205.406609 
L 256.971189 222.436174 
L 265.295664 220.432696 
L 273.62014 214.422261 
L 281.944615 224.439652 
L 290.269091 227.44487 
L 298.593566 227.44487 
L 306.918042 230.450087 
L 315.242517 232.453565 
L 323.566993 227.44487 
L 331.891469 226.44313 
L 340.215944 201.399652 
L 348.54042 238.464 
L 356.864895 237.462261 
L 365.189371 240.467478 
L 373.513846 219.430957 
L 381.838322 224.439652 
L 390.162797 234.457043 
L 398.487273 243.472696 
L 398.487273 236.460522 
L 398.487273 236.460522 
L 390.162797 223.437913 
L 381.838322 216.425739 
L 373.513846 206.408348 
L 365.189371 227.44487 
L 356.864895 220.432696 
L 348.54042 228.446609 
L 340.215944 192.384 
L 331.891469 216.425739 
L 323.566993 215.424 
L 315.242517 224.439652 
L 306.918042 220.432696 
L 298.593566 209.413565 
L 290.269091 221.434435 
L 281.944615 197.392696 
L 273.62014 199.396174 
L 265.295664 209.413565 
L 256.971189 214.422261 
L 248.646713 202.401391 
L 240.322238 204.40487 
L 231.997762 192.384 
L 223.673287 183.368348 
L 215.348811 181.36487 
L 207.024336 192.384 
L 198.69986 195.389217 
L 190.375385 212.418783 
L 182.050909 214.422261 
L 173.726434 143.298783 
L 165.401958 174.352696 
L 157.077483 149.309217 
L 148.753007 157.32313 
L 140.428531 137.288348 
L 132.104056 163.333565 
L 123.77958 119.257043 
L 115.455105 119.257043 
L 107.130629 123.264 
L 98.806154 135.28487 
L 90.481678 117.253565 
L 82.157203 117.253565 
L 73.832727 87.201391 
z
" style="fill:#bcbd22;"/>
   </g>
   <g id="PolyCollection_10">
    <path clip-path="url(#p8d91b34939)" d="M 73.832727 82.192696 
L 73.832727 87.201391 
L 82.157203 117.253565 
L 90.481678 117.253565 
L 98.806154 135.28487 
L 107.130629 123.264 
L 115.455105 119.257043 
L 123.77958 119.257043 
L 132.104056 163.333565 
L 140.428531 137.288348 
L 148.753007 157.32313 
L 157.077483 149.309217 
L 165.401958 174.352696 
L 173.726434 143.298783 
L 182.050909 214.422261 
L 190.375385 212.418783 
L 198.69986 195.389217 
L 207.024336 192.384 
L 215.348811 181.36487 
L 223.673287 183.368348 
L 231.997762 192.384 
L 240.322238 204.40487 
L 248.646713 202.401391 
L 256.971189 214.422261 
L 265.295664 209.413565 
L 273.62014 199.396174 
L 281.944615 197.392696 
L 290.269091 221.434435 
L 298.593566 209.413565 
L 306.918042 220.432696 
L 315.242517 224.439652 
L 323.566993 215.424 
L 331.891469 216.425739 
L 340.215944 192.384 
L 348.54042 228.446609 
L 356.864895 220.432696 
L 365.189371 227.44487 
L 373.513846 206.408348 
L 381.838322 216.425739 
L 390.162797 223.437913 
L 398.487273 236.460522 
L 398.487273 224.439652 
L 398.487273 224.439652 
L 390.162797 208.411826 
L 381.838322 195.389217 
L 373.513846 193.385739 
L 365.189371 220.432696 
L 356.864895 207.410087 
L 348.54042 192.384 
L 340.215944 184.370087 
L 331.891469 207.410087 
L 323.566993 204.40487 
L 315.242517 217.427478 
L 306.918042 213.420522 
L 298.593566 197.392696 
L 290.269091 205.406609 
L 281.944615 174.352696 
L 273.62014 192.384 
L 265.295664 199.396174 
L 256.971189 207.410087 
L 248.646713 193.385739 
L 240.322238 200.397913 
L 231.997762 185.371826 
L 223.673287 167.340522 
L 215.348811 161.330087 
L 207.024336 177.357913 
L 198.69986 180.36313 
L 190.375385 146.304 
L 182.050909 188.377043 
L 173.726434 115.250087 
L 165.401958 117.253565 
L 157.077483 142.297043 
L 148.753007 149.309217 
L 140.428531 136.286609 
L 132.104056 140.293565 
L 123.77958 109.239652 
L 115.455105 111.24313 
L 107.130629 106.234435 
L 98.806154 104.230957 
L 90.481678 103.229217 
L 82.157203 110.241391 
L 73.832727 82.192696 
z
" style="fill:#17becf;"/>
   </g>
   <g id="PolyCollection_11">
    <path clip-path="url(#p8d91b34939)" d="M 73.832727 71.173565 
L 73.832727 82.192696 
L 82.157203 110.241391 
L 90.481678 103.229217 
L 98.806154 104.230957 
L 107.130629 106.234435 
L 115.455105 111.24313 
L 123.77958 109.239652 
L 132.104056 140.293565 
L 140.428531 136.286609 
L 148.753007 149.309217 
L 157.077483 142.297043 
L 165.401958 117.253565 
L 173.726434 115.250087 
L 182.050909 188.377043 
L 190.375385 146.304 
L 198.69986 180.36313 
L 207.024336 177.357913 
L 215.348811 161.330087 
L 223.673287 167.340522 
L 231.997762 185.371826 
L 240.322238 200.397913 
L 248.646713 193.385739 
L 256.971189 207.410087 
L 265.295664 199.396174 
L 273.62014 192.384 
L 281.944615 174.352696 
L 290.269091 205.406609 
L 298.593566 197.392696 
L 306.918042 213.420522 
L 315.242517 217.427478 
L 323.566993 204.40487 
L 331.891469 207.410087 
L 340.215944 184.370087 
L 348.54042 192.384 
L 356.864895 207.410087 
L 365.189371 220.432696 
L 373.513846 193.385739 
L 381.838322 195.389217 
L 390.162797 208.411826 
L 398.487273 224.439652 
L 398.487273 224.439652 
L 398.487273 224.439652 
L 390.162797 208.411826 
L 381.838322 195.389217 
L 373.513846 193.385739 
L 365.189371 220.432696 
L 356.864895 207.410087 
L 348.54042 192.384 
L 340.215944 184.370087 
L 331.891469 207.410087 
L 323.566993 204.40487 
L 315.242517 217.427478 
L 306.918042 213.420522 
L 298.593566 197.392696 
L 290.269091 205.406609 
L 281.944615 174.352696 
L 273.62014 189.378783 
L 265.295664 197.392696 
L 256.971189 204.40487 
L 248.646713 191.382261 
L 240.322238 197.392696 
L 231.997762 183.368348 
L 223.673287 163.333565 
L 215.348811 158.32487 
L 207.024336 175.354435 
L 198.69986 178.359652 
L 190.375385 142.297043 
L 182.050909 183.368348 
L 173.726434 111.24313 
L 165.401958 113.246609 
L 157.077483 139.291826 
L 148.753007 145.302261 
L 140.428531 132.279652 
L 132.104056 137.288348 
L 123.77958 107.236174 
L 115.455105 109.239652 
L 107.130629 100.224 
L 98.806154 98.220522 
L 90.481678 98.220522 
L 82.157203 108.237913 
L 73.832727 71.173565 
z
" style="fill:#1f77b4;"/>
   </g>
   <g id="PolyCollection_12">
    <path clip-path="url(#p8d91b34939)" d="M 73.832727 70.171826 
L 73.832727 71.173565 
L 82.157203 108.237913 
L 90.481678 98.220522 
L 98.806154 98.220522 
L 107.130629 100.224 
L 115.455105 109.239652 
L 123.77958 107.236174 
L 132.104056 137.288348 
L 140.428531 132.279652 
L 148.753007 145.302261 
L 157.077483 139.291826 
L 165.401958 113.246609 
L 173.726434 111.24313 
L 182.050909 183.368348 
L 190.375385 142.297043 
L 198.69986 178.359652 
L 207.024336 175.354435 
L 215.348811 158.32487 
L 223.673287 163.333565 
L 231.997762 183.368348 
L 240.322238 197.392696 
L 248.646713 191.382261 
L 256.971189 204.40487 
L 265.295664 197.392696 
L 273.62014 189.378783 
L 281.944615 174.352696 
L 290.269091 205.406609 
L 298.593566 197.392696 
L 306.918042 213.420522 
L 315.242517 217.427478 
L 323.566993 204.40487 
L 331.891469 207.410087 
L 340.215944 184.370087 
L 348.54042 192.384 
L 356.864895 207.410087 
L 365.189371 220.432696 
L 373.513846 193.385739 
L 381.838322 195.389217 
L 390.162797 208.411826 
L 398.487273 224.439652 
L 398.487273 214.422261 
L 398.487273 214.422261 
L 390.162797 199.396174 
L 381.838322 187.375304 
L 373.513846 190.380522 
L 365.189371 196.390957 
L 356.864895 199.396174 
L 348.54042 177.357913 
L 340.215944 174.352696 
L 331.891469 194.387478 
L 323.566993 198.394435 
L 315.242517 212.418783 
L 306.918042 205.406609 
L 298.593566 191.382261 
L 290.269091 202.401391 
L 281.944615 139.291826 
L 273.62014 179.361391 
L 265.295664 176.356174 
L 256.971189 187.375304 
L 248.646713 183.368348 
L 240.322238 185.371826 
L 231.997762 168.342261 
L 223.673287 135.28487 
L 215.348811 126.269217 
L 207.024336 152.314435 
L 198.69986 135.28487 
L 190.375385 137.288348 
L 182.050909 181.36487 
L 173.726434 108.237913 
L 165.401958 109.239652 
L 157.077483 134.28313 
L 148.753007 141.295304 
L 140.428531 129.274435 
L 132.104056 132.279652 
L 123.77958 103.229217 
L 115.455105 104.230957 
L 107.130629 96.217043 
L 98.806154 95.215304 
L 90.481678 94.213565 
L 82.157203 105.232696 
L 73.832727 70.171826 
z
" style="fill:#ff7f0e;"/>
   </g>
   <g id="PolyCollection_13">
    <path clip-path="url(#p8d91b34939)" d="M 73.832727 69.170087 
L 73.832727 70.171826 
L 82.157203 105.232696 
L 90.481678 94.213565 
L 98.806154 95.215304 
L 107.130629 96.217043 
L 115.455105 104.230957 
L 123.77958 103.229217 
L 132.104056 132.279652 
L 140.428531 129.274435 
L 148.753007 141.295304 
L 157.077483 134.28313 
L 165.401958 109.239652 
L 173.726434 108.237913 
L 182.050909 181.36487 
L 190.375385 137.288348 
L 198.69986 135.28487 
L 207.024336 152.314435 
L 215.348811 126.269217 
L 223.673287 135.28487 
L 231.997762 168.342261 
L 240.322238 185.371826 
L 248.646713 183.368348 
L 256.971189 187.375304 
L 265.295664 176.356174 
L 273.62014 179.361391 
L 281.944615 139.291826 
L 290.269091 202.401391 
L 298.593566 191.382261 
L 306.918042 205.406609 
L 315.242517 212.418783 
L 323.566993 198.394435 
L 331.891469 194.387478 
L 340.215944 174.352696 
L 348.54042 177.357913 
L 356.864895 199.396174 
L 365.189371 196.390957 
L 373.513846 190.380522 
L 381.838322 187.375304 
L 390.162797 199.396174 
L 398.487273 214.422261 
L 398.487273 207.410087 
L 398.487273 207.410087 
L 390.162797 195.389217 
L 381.838322 178.359652 
L 373.513846 178.359652 
L 365.189371 189.378783 
L 356.864895 177.357913 
L 348.54042 159.326609 
L 340.215944 158.32487 
L 331.891469 184.370087 
L 323.566993 185.371826 
L 315.242517 204.40487 
L 306.918042 200.397913 
L 298.593566 179.361391 
L 290.269091 177.357913 
L 281.944615 136.286609 
L 273.62014 164.335304 
L 265.295664 166.338783 
L 256.971189 175.354435 
L 248.646713 172.349217 
L 240.322238 175.354435 
L 231.997762 158.32487 
L 223.673287 132.279652 
L 215.348811 117.253565 
L 207.024336 136.286609 
L 198.69986 121.260522 
L 190.375385 129.274435 
L 182.050909 107.236174 
L 173.726434 102.227478 
L 165.401958 104.230957 
L 157.077483 130.276174 
L 148.753007 136.286609 
L 140.428531 125.267478 
L 132.104056 131.277913 
L 123.77958 99.222261 
L 115.455105 101.225739 
L 107.130629 91.208348 
L 98.806154 90.206609 
L 90.481678 89.20487 
L 82.157203 102.227478 
L 73.832727 69.170087 
z
" style="fill:#2ca02c;"/>
   </g>
   <g id="PolyCollection_14">
    <path clip-path="url(#p8d91b34939)" d="M 73.832727 62.157913 
L 73.832727 69.170087 
L 82.157203 102.227478 
L 90.481678 89.20487 
L 98.806154 90.206609 
L 107.130629 91.208348 
L 115.455105 101.225739 
L 123.77958 99.222261 
L 132.104056 131.277913 
L 140.428531 125.267478 
L 148.753007 136.286609 
L 157.077483 130.276174 
L 165.401958 104.230957 
L 173.726434 102.227478 
L 182.050909 107.236174 
L 190.375385 129.274435 
L 198.69986 121.260522 
L 207.024336 136.286609 
L 215.348811 117.253565 
L 223.673287 132.279652 
L 231.997762 158.32487 
L 240.322238 175.354435 
L 248.646713 172.349217 
L 256.971189 175.354435 
L 265.295664 166.338783 
L 273.62014 164.335304 
L 281.944615 136.286609 
L 290.269091 177.357913 
L 298.593566 179.361391 
L 306.918042 200.397913 
L 315.242517 204.40487 
L 323.566993 185.371826 
L 331.891469 184.370087 
L 340.215944 158.32487 
L 348.54042 159.326609 
L 356.864895 177.357913 
L 365.189371 189.378783 
L 373.513846 178.359652 
L 381.838322 178.359652 
L 390.162797 195.389217 
L 398.487273 207.410087 
L 398.487273 183.368348 
L 398.487273 183.368348 
L 390.162797 166.338783 
L 381.838322 158.32487 
L 373.513846 145.302261 
L 365.189371 172.349217 
L 356.864895 167.340522 
L 348.54042 153.316174 
L 340.215944 157.32313 
L 331.891469 177.357913 
L 323.566993 176.356174 
L 315.242517 192.384 
L 306.918042 183.368348 
L 298.593566 168.342261 
L 290.269091 170.345739 
L 281.944615 125.267478 
L 273.62014 135.28487 
L 265.295664 151.312696 
L 256.971189 168.342261 
L 248.646713 163.333565 
L 240.322238 166.338783 
L 231.997762 114.248348 
L 223.673287 119.257043 
L 215.348811 114.248348 
L 207.024336 126.269217 
L 198.69986 109.239652 
L 190.375385 117.253565 
L 182.050909 96.217043 
L 173.726434 93.211826 
L 165.401958 89.20487 
L 157.077483 123.264 
L 148.753007 119.257043 
L 140.428531 99.222261 
L 132.104056 102.227478 
L 123.77958 88.20313 
L 115.455105 73.177043 
L 107.130629 77.184 
L 98.806154 73.177043 
L 90.481678 71.173565 
L 82.157203 71.173565 
L 73.832727 62.157913 
z
" style="fill:#d62728;"/>
   </g>
   <g id="PolyCollection_15">
    <path clip-path="url(#p8d91b34939)" d="M 73.832727 60.154435 
L 73.832727 62.157913 
L 82.157203 71.173565 
L 90.481678 71.173565 
L 98.806154 73.177043 
L 107.130629 77.184 
L 115.455105 73.177043 
L 123.77958 88.20313 
L 132.104056 102.227478 
L 140.428531 99.222261 
L 148.753007 119.257043 
L 157.077483 123.264 
L 165.401958 89.20487 
L 173.726434 93.211826 
L 182.050909 96.217043 
L 190.375385 117.253565 
L 198.69986 109.239652 
L 207.024336 126.269217 
L 215.348811 114.248348 
L 223.673287 119.257043 
L 231.997762 114.248348 
L 240.322238 166.338783 
L 248.646713 163.333565 
L 256.971189 168.342261 
L 265.295664 151.312696 
L 273.62014 135.28487 
L 281.944615 125.267478 
L 290.269091 170.345739 
L 298.593566 168.342261 
L 306.918042 183.368348 
L 315.242517 192.384 
L 323.566993 176.356174 
L 331.891469 177.357913 
L 340.215944 157.32313 
L 348.54042 153.316174 
L 356.864895 167.340522 
L 365.189371 172.349217 
L 373.513846 145.302261 
L 381.838322 158.32487 
L 390.162797 166.338783 
L 398.487273 183.368348 
L 398.487273 169.344 
L 398.487273 169.344 
L 390.162797 143.298783 
L 381.838322 136.286609 
L 373.513846 130.276174 
L 365.189371 153.316174 
L 356.864895 144.300522 
L 348.54042 120.258783 
L 340.215944 136.286609 
L 331.891469 152.314435 
L 323.566993 147.305739 
L 315.242517 157.32313 
L 306.918042 146.304 
L 298.593566 135.28487 
L 290.269091 154.317913 
L 281.944615 117.253565 
L 273.62014 122.262261 
L 265.295664 136.286609 
L 256.971189 143.298783 
L 248.646713 154.317913 
L 240.322238 162.331826 
L 231.997762 109.239652 
L 223.673287 109.239652 
L 215.348811 107.236174 
L 207.024336 108.237913 
L 198.69986 70.171826 
L 190.375385 65.16313 
L 182.050909 66.16487 
L 173.726434 63.159652 
L 165.401958 66.16487 
L 157.077483 69.170087 
L 148.753007 69.170087 
L 140.428531 70.171826 
L 132.104056 73.177043 
L 123.77958 69.170087 
L 115.455105 67.166609 
L 107.130629 70.171826 
L 98.806154 67.166609 
L 90.481678 68.168348 
L 82.157203 69.170087 
L 73.832727 60.154435 
z
" style="fill:#9467bd;"/>
   </g>
   <g id="PolyCollection_16">
    <path clip-path="url(#p8d91b34939)" d="M 73.832727 59.152696 
L 73.832727 60.154435 
L 82.157203 69.170087 
L 90.481678 68.168348 
L 98.806154 67.166609 
L 107.130629 70.171826 
L 115.455105 67.166609 
L 123.77958 69.170087 
L 132.104056 73.177043 
L 140.428531 70.171826 
L 148.753007 69.170087 
L 157.077483 69.170087 
L 165.401958 66.16487 
L 173.726434 63.159652 
L 182.050909 66.16487 
L 190.375385 65.16313 
L 198.69986 70.171826 
L 207.024336 108.237913 
L 215.348811 107.236174 
L 223.673287 109.239652 
L 231.997762 109.239652 
L 240.322238 162.331826 
L 248.646713 154.317913 
L 256.971189 143.298783 
L 265.295664 136.286609 
L 273.62014 122.262261 
L 281.944615 117.253565 
L 290.269091 154.317913 
L 298.593566 135.28487 
L 306.918042 146.304 
L 315.242517 157.32313 
L 323.566993 147.305739 
L 331.891469 152.314435 
L 340.215944 136.286609 
L 348.54042 120.258783 
L 356.864895 144.300522 
L 365.189371 153.316174 
L 373.513846 130.276174 
L 381.838322 136.286609 
L 390.162797 143.298783 
L 398.487273 169.344 
L 398.487273 130.276174 
L 398.487273 130.276174 
L 390.162797 89.20487 
L 381.838322 82.192696 
L 373.513846 71.173565 
L 365.189371 107.236174 
L 356.864895 108.237913 
L 348.54042 100.224 
L 340.215944 110.241391 
L 331.891469 125.267478 
L 323.566993 108.237913 
L 315.242517 105.232696 
L 306.918042 102.227478 
L 298.593566 90.206609 
L 290.269091 100.224 
L 281.944615 90.206609 
L 273.62014 91.208348 
L 265.295664 101.225739 
L 256.971189 114.248348 
L 248.646713 130.276174 
L 240.322238 122.262261 
L 231.997762 84.196174 
L 223.673287 104.230957 
L 215.348811 103.229217 
L 207.024336 106.234435 
L 198.69986 67.166609 
L 190.375385 62.157913 
L 182.050909 62.157913 
L 173.726434 60.154435 
L 165.401958 62.157913 
L 157.077483 64.161391 
L 148.753007 63.159652 
L 140.428531 65.16313 
L 132.104056 67.166609 
L 123.77958 64.161391 
L 115.455105 62.157913 
L 107.130629 66.16487 
L 98.806154 64.161391 
L 90.481678 66.16487 
L 82.157203 67.166609 
L 73.832727 59.152696 
z
" style="fill:#8c564b;"/>
   </g>
   <g id="PolyCollection_17">
    <path clip-path="url(#p8d91b34939)" d="M 73.832727 58.150957 
L 73.832727 59.152696 
L 82.157203 67.166609 
L 90.481678 66.16487 
L 98.806154 64.161391 
L 107.130629 66.16487 
L 115.455105 62.157913 
L 123.77958 64.161391 
L 132.104056 67.166609 
L 140.428531 65.16313 
L 148.753007 63.159652 
L 157.077483 64.161391 
L 165.401958 62.157913 
L 173.726434 60.154435 
L 182.050909 62.157913 
L 190.375385 62.157913 
L 198.69986 67.166609 
L 207.024336 106.234435 
L 215.348811 103.229217 
L 223.673287 104.230957 
L 231.997762 84.196174 
L 240.322238 122.262261 
L 248.646713 130.276174 
L 256.971189 114.248348 
L 265.295664 101.225739 
L 273.62014 91.208348 
L 281.944615 90.206609 
L 290.269091 100.224 
L 298.593566 90.206609 
L 306.918042 102.227478 
L 315.242517 105.232696 
L 323.566993 108.237913 
L 331.891469 125.267478 
L 340.215944 110.241391 
L 348.54042 100.224 
L 356.864895 108.237913 
L 365.189371 107.236174 
L 373.513846 71.173565 
L 381.838322 82.192696 
L 390.162797 89.20487 
L 398.487273 130.276174 
L 398.487273 117.253565 
L 398.487273 117.253565 
L 390.162797 76.182261 
L 381.838322 69.170087 
L 373.513846 66.16487 
L 365.189371 61.156174 
L 356.864895 70.171826 
L 348.54042 60.154435 
L 340.215944 66.16487 
L 331.891469 69.170087 
L 323.566993 68.168348 
L 315.242517 79.187478 
L 306.918042 70.171826 
L 298.593566 64.161391 
L 290.269091 76.182261 
L 281.944615 63.159652 
L 273.62014 66.16487 
L 265.295664 67.166609 
L 256.971189 63.159652 
L 248.646713 88.20313 
L 240.322238 74.178783 
L 231.997762 79.187478 
L 223.673287 101.225739 
L 215.348811 101.225739 
L 207.024336 104.230957 
L 198.69986 65.16313 
L 190.375385 59.152696 
L 182.050909 60.154435 
L 173.726434 58.150957 
L 165.401958 60.154435 
L 157.077483 60.154435 
L 148.753007 61.156174 
L 140.428531 62.157913 
L 132.104056 62.157913 
L 123.77958 61.156174 
L 115.455105 58.150957 
L 107.130629 60.154435 
L 98.806154 59.152696 
L 90.481678 61.156174 
L 82.157203 60.154435 
L 73.832727 58.150957 
z
" style="fill:#e377c2;"/>
   </g>
   <g id="PolyCollection_18">
    <path clip-path="url(#p8d91b34939)" d="M 73.832727 57.149217 
L 73.832727 58.150957 
L 82.157203 60.154435 
L 90.481678 61.156174 
L 98.806154 59.152696 
L 107.130629 60.154435 
L 115.455105 58.150957 
L 123.77958 61.156174 
L 132.104056 62.157913 
L 140.428531 62.157913 
L 148.753007 61.156174 
L 157.077483 60.154435 
L 165.401958 60.154435 
L 173.726434 58.150957 
L 182.050909 60.154435 
L 190.375385 59.152696 
L 198.69986 65.16313 
L 207.024336 104.230957 
L 215.348811 101.225739 
L 223.673287 101.225739 
L 231.997762 79.187478 
L 240.322238 74.178783 
L 248.646713 88.20313 
L 256.971189 63.159652 
L 265.295664 67.166609 
L 273.62014 66.16487 
L 281.944615 63.159652 
L 290.269091 76.182261 
L 298.593566 64.161391 
L 306.918042 70.171826 
L 315.242517 79.187478 
L 323.566993 68.168348 
L 331.891469 69.170087 
L 340.215944 66.16487 
L 348.54042 60.154435 
L 356.864895 70.171826 
L 365.189371 61.156174 
L 373.513846 66.16487 
L 381.838322 69.170087 
L 390.162797 76.182261 
L 398.487273 117.253565 
L 398.487273 117.253565 
L 398.487273 117.253565 
L 390.162797 76.182261 
L 381.838322 57.149217 
L 373.513846 57.149217 
L 365.189371 55.145739 
L 356.864895 58.150957 
L 348.54042 56.147478 
L 340.215944 57.149217 
L 331.891469 57.149217 
L 323.566993 58.150957 
L 315.242517 59.152696 
L 306.918042 61.156174 
L 298.593566 57.149217 
L 290.269091 59.152696 
L 281.944615 59.152696 
L 273.62014 59.152696 
L 265.295664 58.150957 
L 256.971189 60.154435 
L 248.646713 56.147478 
L 240.322238 57.149217 
L 231.997762 57.149217 
L 223.673287 57.149217 
L 215.348811 56.147478 
L 207.024336 55.145739 
L 198.69986 56.147478 
L 190.375385 55.145739 
L 182.050909 55.145739 
L 173.726434 56.147478 
L 165.401958 57.149217 
L 157.077483 55.145739 
L 148.753007 57.149217 
L 140.428531 57.149217 
L 132.104056 58.150957 
L 123.77958 58.150957 
L 115.455105 54.144 
L 107.130629 56.147478 
L 98.806154 55.145739 
L 90.481678 57.149217 
L 82.157203 56.147478 
L 73.832727 57.149217 
z
" style="fill:#7f7f7f;"/>
   </g>
   <g id="PolyCollection_19">
    <path clip-path="url(#p8d91b34939)" d="M 73.832727 57.149217 
L 73.832727 57.149217 
L 82.157203 56.147478 
L 90.481678 57.149217 
L 98.806154 55.145739 
L 107.130629 56.147478 
L 115.455105 54.144 
L 123.77958 58.150957 
L 132.104056 58.150957 
L 140.428531 57.149217 
L 148.753007 57.149217 
L 157.077483 55.145739 
L 165.401958 57.149217 
L 173.726434 56.147478 
L 182.050909 55.145739 
L 190.375385 55.145739 
L 198.69986 56.147478 
L 207.024336 55.145739 
L 215.348811 56.147478 
L 223.673287 57.149217 
L 231.997762 57.149217 
L 240.322238 57.149217 
L 248.646713 56.147478 
L 256.971189 60.154435 
L 265.295664 58.150957 
L 273.62014 59.152696 
L 281.944615 59.152696 
L 290.269091 59.152696 
L 298.593566 57.149217 
L 306.918042 61.156174 
L 315.242517 59.152696 
L 323.566993 58.150957 
L 331.891469 57.149217 
L 340.215944 57.149217 
L 348.54042 56.147478 
L 356.864895 58.150957 
L 365.189371 55.145739 
L 373.513846 57.149217 
L 381.838322 57.149217 
L 390.162797 76.182261 
L 398.487273 117.253565 
L 398.487273 59.152696 
L 398.487273 59.152696 
L 390.162797 61.156174 
L 381.838322 57.149217 
L 373.513846 57.149217 
L 365.189371 55.145739 
L 356.864895 58.150957 
L 348.54042 56.147478 
L 340.215944 57.149217 
L 331.891469 57.149217 
L 323.566993 58.150957 
L 315.242517 59.152696 
L 306.918042 61.156174 
L 298.593566 57.149217 
L 290.269091 59.152696 
L 281.944615 59.152696 
L 273.62014 59.152696 
L 265.295664 58.150957 
L 256.971189 60.154435 
L 248.646713 56.147478 
L 240.322238 57.149217 
L 231.997762 57.149217 
L 223.673287 57.149217 
L 215.348811 56.147478 
L 207.024336 55.145739 
L 198.69986 56.147478 
L 190.375385 55.145739 
L 182.050909 55.145739 
L 173.726434 56.147478 
L 165.401958 57.149217 
L 157.077483 55.145739 
L 148.753007 57.149217 
L 140.428531 57.149217 
L 132.104056 58.150957 
L 123.77958 58.150957 
L 115.455105 54.144 
L 107.130629 56.147478 
L 98.806154 55.145739 
L 90.481678 57.149217 
L 82.157203 56.147478 
L 73.832727 57.149217 
z
" style="fill:#bcbd22;"/>
   </g>
   <g id="matplotlib.axis_1">
    <g id="xtick_1">
     <g id="line2d_1">
      <defs>
       <path d="M 0 0 
L 0 3.5 
" id="ma9f0515202" style="stroke:#000000;stroke-width:0.8;"/>
      </defs>
      <g>
       <use style="stroke:#000000;stroke-width:0.8;" x="73.832727" xlink:href="#ma9f0515202" y="307.584"/>
      </g>
     </g>
     <g id="text_1">
      <!-- 0 -->
      <defs>
       <path d="M 31.78125 66.40625 
Q 24.171875 66.40625 20.328125 58.90625 
Q 16.5 51.421875 16.5 36.375 
Q 16.5 21.390625 20.328125 13.890625 
Q 24.171875 6.390625 31.78125 6.390625 
Q 39.453125 6.390625 43.28125 13.890625 
Q 47.125 21.390625 47.125 36.375 
Q 47.125 51.421875 43.28125 58.90625 
Q 39.453125 66.40625 31.78125 66.40625 
z
M 31.78125 74.21875 
Q 44.046875 74.21875 50.515625 64.515625 
Q 56.984375 54.828125 56.984375 36.375 
Q 56.984375 17.96875 50.515625 8.265625 
Q 44.046875 -1.421875 31.78125 -1.421875 
Q 19.53125 -1.421875 13.0625 8.265625 
Q 6.59375 17.96875 6.59375 36.375 
Q 6.59375 54.828125 13.0625 64.515625 
Q 19.53125 74.21875 31.78125 74.21875 
z
" id="DejaVuSans-48"/>
      </defs>
      <g transform="translate(70.651477 322.182437)scale(0.1 -0.1)">
       <use xlink:href="#DejaVuSans-48"/>
      </g>
     </g>
    </g>
    <g id="xtick_2">
     <g id="line2d_2">
      <g>
       <use style="stroke:#000000;stroke-width:0.8;" x="115.455105" xlink:href="#ma9f0515202" y="307.584"/>
      </g>
     </g>
     <g id="text_2">
      <!-- 5 -->
      <defs>
       <path d="M 10.796875 72.90625 
L 49.515625 72.90625 
L 49.515625 64.59375 
L 19.828125 64.59375 
L 19.828125 46.734375 
Q 21.96875 47.46875 24.109375 47.828125 
Q 26.265625 48.1875 28.421875 48.1875 
Q 40.625 48.1875 47.75 41.5 
Q 54.890625 34.8125 54.890625 23.390625 
Q 54.890625 11.625 47.5625 5.09375 
Q 40.234375 -1.421875 26.90625 -1.421875 
Q 22.3125 -1.421875 17.546875 -0.640625 
Q 12.796875 0.140625 7.71875 1.703125 
L 7.71875 11.625 
Q 12.109375 9.234375 16.796875 8.0625 
Q 21.484375 6.890625 26.703125 6.890625 
Q 35.15625 6.890625 40.078125 11.328125 
Q 45.015625 15.765625 45.015625 23.390625 
Q 45.015625 31 40.078125 35.4375 
Q 35.15625 39.890625 26.703125 39.890625 
Q 22.75 39.890625 18.8125 39.015625 
Q 14.890625 38.140625 10.796875 36.28125 
z
" id="DejaVuSans-53"/>
      </defs>
      <g transform="translate(112.273855 322.182437)scale(0.1 -0.1)">
       <use xlink:href="#DejaVuSans-53"/>
      </g>
     </g>
    </g>
    <g id="xtick_3">
     <g id="line2d_3">
      <g>
       <use style="stroke:#000000;stroke-width:0.8;" x="157.077483" xlink:href="#ma9f0515202" y="307.584"/>
      </g>
     </g>
     <g id="text_3">
      <!-- 10 -->
      <defs>
       <path d="M 12.40625 8.296875 
L 28.515625 8.296875 
L 28.515625 63.921875 
L 10.984375 60.40625 
L 10.984375 69.390625 
L 28.421875 72.90625 
L 38.28125 72.90625 
L 38.28125 8.296875 
L 54.390625 8.296875 
L 54.390625 0 
L 12.40625 0 
z
" id="DejaVuSans-49"/>
      </defs>
      <g transform="translate(150.714983 322.182437)scale(0.1 -0.1)">
       <use xlink:href="#DejaVuSans-49"/>
       <use x="63.623047" xlink:href="#DejaVuSans-48"/>
      </g>
     </g>
    </g>
    <g id="xtick_4">
     <g id="line2d_4">
      <g>
       <use style="stroke:#000000;stroke-width:0.8;" x="198.69986" xlink:href="#ma9f0515202" y="307.584"/>
      </g>
     </g>
     <g id="text_4">
      <!-- 15 -->
      <g transform="translate(192.33736 322.182437)scale(0.1 -0.1)">
       <use xlink:href="#DejaVuSans-49"/>
       <use x="63.623047" xlink:href="#DejaVuSans-53"/>
      </g>
     </g>
    </g>
    <g id="xtick_5">
     <g id="line2d_5">
      <g>
       <use style="stroke:#000000;stroke-width:0.8;" x="240.322238" xlink:href="#ma9f0515202" y="307.584"/>
      </g>
     </g>
     <g id="text_5">
      <!-- 20 -->
      <defs>
       <path d="M 19.1875 8.296875 
L 53.609375 8.296875 
L 53.609375 0 
L 7.328125 0 
L 7.328125 8.296875 
Q 12.9375 14.109375 22.625 23.890625 
Q 32.328125 33.6875 34.8125 36.53125 
Q 39.546875 41.84375 41.421875 45.53125 
Q 43.3125 49.21875 43.3125 52.78125 
Q 43.3125 58.59375 39.234375 62.25 
Q 35.15625 65.921875 28.609375 65.921875 
Q 23.96875 65.921875 18.8125 64.3125 
Q 13.671875 62.703125 7.8125 59.421875 
L 7.8125 69.390625 
Q 13.765625 71.78125 18.9375 73 
Q 24.125 74.21875 28.421875 74.21875 
Q 39.75 74.21875 46.484375 68.546875 
Q 53.21875 62.890625 53.21875 53.421875 
Q 53.21875 48.921875 51.53125 44.890625 
Q 49.859375 40.875 45.40625 35.40625 
Q 44.1875 33.984375 37.640625 27.21875 
Q 31.109375 20.453125 19.1875 8.296875 
z
" id="DejaVuSans-50"/>
      </defs>
      <g transform="translate(233.959738 322.182437)scale(0.1 -0.1)">
       <use xlink:href="#DejaVuSans-50"/>
       <use x="63.623047" xlink:href="#DejaVuSans-48"/>
      </g>
     </g>
    </g>
    <g id="xtick_6">
     <g id="line2d_6">
      <g>
       <use style="stroke:#000000;stroke-width:0.8;" x="281.944615" xlink:href="#ma9f0515202" y="307.584"/>
      </g>
     </g>
     <g id="text_6">
      <!-- 25 -->
      <g transform="translate(275.582115 322.182437)scale(0.1 -0.1)">
       <use xlink:href="#DejaVuSans-50"/>
       <use x="63.623047" xlink:href="#DejaVuSans-53"/>
      </g>
     </g>
    </g>
    <g id="xtick_7">
     <g id="line2d_7">
      <g>
       <use style="stroke:#000000;stroke-width:0.8;" x="323.566993" xlink:href="#ma9f0515202" y="307.584"/>
      </g>
     </g>
     <g id="text_7">
      <!-- 30 -->
      <defs>
       <path d="M 40.578125 39.3125 
Q 47.65625 37.796875 51.625 33 
Q 55.609375 28.21875 55.609375 21.1875 
Q 55.609375 10.40625 48.1875 4.484375 
Q 40.765625 -1.421875 27.09375 -1.421875 
Q 22.515625 -1.421875 17.65625 -0.515625 
Q 12.796875 0.390625 7.625 2.203125 
L 7.625 11.71875 
Q 11.71875 9.328125 16.59375 8.109375 
Q 21.484375 6.890625 26.8125 6.890625 
Q 36.078125 6.890625 40.9375 10.546875 
Q 45.796875 14.203125 45.796875 21.1875 
Q 45.796875 27.640625 41.28125 31.265625 
Q 36.765625 34.90625 28.71875 34.90625 
L 20.21875 34.90625 
L 20.21875 43.015625 
L 29.109375 43.015625 
Q 36.375 43.015625 40.234375 45.921875 
Q 44.09375 48.828125 44.09375 54.296875 
Q 44.09375 59.90625 40.109375 62.90625 
Q 36.140625 65.921875 28.71875 65.921875 
Q 24.65625 65.921875 20.015625 65.03125 
Q 15.375 64.15625 9.8125 62.3125 
L 9.8125 71.09375 
Q 15.4375 72.65625 20.34375 73.4375 
Q 25.25 74.21875 29.59375 74.21875 
Q 40.828125 74.21875 47.359375 69.109375 
Q 53.90625 64.015625 53.90625 55.328125 
Q 53.90625 49.265625 50.4375 45.09375 
Q 46.96875 40.921875 40.578125 39.3125 
z
" id="DejaVuSans-51"/>
      </defs>
      <g transform="translate(317.204493 322.182437)scale(0.1 -0.1)">
       <use xlink:href="#DejaVuSans-51"/>
       <use x="63.623047" xlink:href="#DejaVuSans-48"/>
      </g>
     </g>
    </g>
    <g id="xtick_8">
     <g id="line2d_8">
      <g>
       <use style="stroke:#000000;stroke-width:0.8;" x="365.189371" xlink:href="#ma9f0515202" y="307.584"/>
      </g>
     </g>
     <g id="text_8">
      <!-- 35 -->
      <g transform="translate(358.826871 322.182437)scale(0.1 -0.1)">
       <use xlink:href="#DejaVuSans-51"/>
       <use x="63.623047" xlink:href="#DejaVuSans-53"/>
      </g>
     </g>
    </g>
    <g id="xtick_9">
     <g id="line2d_9">
      <g>
       <use style="stroke:#000000;stroke-width:0.8;" x="406.811748" xlink:href="#ma9f0515202" y="307.584"/>
      </g>
     </g>
     <g id="text_9">
      <!-- 40 -->
      <defs>
       <path d="M 37.796875 64.3125 
L 12.890625 25.390625 
L 37.796875 25.390625 
z
M 35.203125 72.90625 
L 47.609375 72.90625 
L 47.609375 25.390625 
L 58.015625 25.390625 
L 58.015625 17.1875 
L 47.609375 17.1875 
L 47.609375 0 
L 37.796875 0 
L 37.796875 17.1875 
L 4.890625 17.1875 
L 4.890625 26.703125 
z
" id="DejaVuSans-52"/>
      </defs>
      <g transform="translate(400.449248 322.182437)scale(0.1 -0.1)">
       <use xlink:href="#DejaVuSans-52"/>
       <use x="63.623047" xlink:href="#DejaVuSans-48"/>
      </g>
     </g>
    </g>
    <g id="text_10">
     <!-- Generations -->
     <defs>
      <path d="M 59.515625 10.40625 
L 59.515625 29.984375 
L 43.40625 29.984375 
L 43.40625 38.09375 
L 69.28125 38.09375 
L 69.28125 6.78125 
Q 63.578125 2.734375 56.6875 0.65625 
Q 49.8125 -1.421875 42 -1.421875 
Q 24.90625 -1.421875 15.25 8.5625 
Q 5.609375 18.5625 5.609375 36.375 
Q 5.609375 54.25 15.25 64.234375 
Q 24.90625 74.21875 42 74.21875 
Q 49.125 74.21875 55.546875 72.453125 
Q 61.96875 70.703125 67.390625 67.28125 
L 67.390625 56.78125 
Q 61.921875 61.421875 55.765625 63.765625 
Q 49.609375 66.109375 42.828125 66.109375 
Q 29.4375 66.109375 22.71875 58.640625 
Q 16.015625 51.171875 16.015625 36.375 
Q 16.015625 21.625 22.71875 14.15625 
Q 29.4375 6.6875 42.828125 6.6875 
Q 48.046875 6.6875 52.140625 7.59375 
Q 56.25 8.5 59.515625 10.40625 
z
" id="DejaVuSans-71"/>
      <path d="M 56.203125 29.59375 
L 56.203125 25.203125 
L 14.890625 25.203125 
Q 15.484375 15.921875 20.484375 11.0625 
Q 25.484375 6.203125 34.421875 6.203125 
Q 39.59375 6.203125 44.453125 7.46875 
Q 49.3125 8.734375 54.109375 11.28125 
L 54.109375 2.78125 
Q 49.265625 0.734375 44.1875 -0.34375 
Q 39.109375 -1.421875 33.890625 -1.421875 
Q 20.796875 -1.421875 13.15625 6.1875 
Q 5.515625 13.8125 5.515625 26.8125 
Q 5.515625 40.234375 12.765625 48.109375 
Q 20.015625 56 32.328125 56 
Q 43.359375 56 49.78125 48.890625 
Q 56.203125 41.796875 56.203125 29.59375 
z
M 47.21875 32.234375 
Q 47.125 39.59375 43.09375 43.984375 
Q 39.0625 48.390625 32.421875 48.390625 
Q 24.90625 48.390625 20.390625 44.140625 
Q 15.875 39.890625 15.1875 32.171875 
z
" id="DejaVuSans-101"/>
      <path d="M 54.890625 33.015625 
L 54.890625 0 
L 45.90625 0 
L 45.90625 32.71875 
Q 45.90625 40.484375 42.875 44.328125 
Q 39.84375 48.1875 33.796875 48.1875 
Q 26.515625 48.1875 22.3125 43.546875 
Q 18.109375 38.921875 18.109375 30.90625 
L 18.109375 0 
L 9.078125 0 
L 9.078125 54.6875 
L 18.109375 54.6875 
L 18.109375 46.1875 
Q 21.34375 51.125 25.703125 53.5625 
Q 30.078125 56 35.796875 56 
Q 45.21875 56 50.046875 50.171875 
Q 54.890625 44.34375 54.890625 33.015625 
z
" id="DejaVuSans-110"/>
      <path d="M 41.109375 46.296875 
Q 39.59375 47.171875 37.8125 47.578125 
Q 36.03125 48 33.890625 48 
Q 26.265625 48 22.1875 43.046875 
Q 18.109375 38.09375 18.109375 28.8125 
L 18.109375 0 
L 9.078125 0 
L 9.078125 54.6875 
L 18.109375 54.6875 
L 18.109375 46.1875 
Q 20.953125 51.171875 25.484375 53.578125 
Q 30.03125 56 36.53125 56 
Q 37.453125 56 38.578125 55.875 
Q 39.703125 55.765625 41.0625 55.515625 
z
" id="DejaVuSans-114"/>
      <path d="M 34.28125 27.484375 
Q 23.390625 27.484375 19.1875 25 
Q 14.984375 22.515625 14.984375 16.5 
Q 14.984375 11.71875 18.140625 8.90625 
Q 21.296875 6.109375 26.703125 6.109375 
Q 34.1875 6.109375 38.703125 11.40625 
Q 43.21875 16.703125 43.21875 25.484375 
L 43.21875 27.484375 
z
M 52.203125 31.203125 
L 52.203125 0 
L 43.21875 0 
L 43.21875 8.296875 
Q 40.140625 3.328125 35.546875 0.953125 
Q 30.953125 -1.421875 24.3125 -1.421875 
Q 15.921875 -1.421875 10.953125 3.296875 
Q 6 8.015625 6 15.921875 
Q 6 25.140625 12.171875 29.828125 
Q 18.359375 34.515625 30.609375 34.515625 
L 43.21875 34.515625 
L 43.21875 35.40625 
Q 43.21875 41.609375 39.140625 45 
Q 35.0625 48.390625 27.6875 48.390625 
Q 23 48.390625 18.546875 47.265625 
Q 14.109375 46.140625 10.015625 43.890625 
L 10.015625 52.203125 
Q 14.9375 54.109375 19.578125 55.046875 
Q 24.21875 56 28.609375 56 
Q 40.484375 56 46.34375 49.84375 
Q 52.203125 43.703125 52.203125 31.203125 
z
" id="DejaVuSans-97"/>
      <path d="M 18.3125 70.21875 
L 18.3125 54.6875 
L 36.8125 54.6875 
L 36.8125 47.703125 
L 18.3125 47.703125 
L 18.3125 18.015625 
Q 18.3125 11.328125 20.140625 9.421875 
Q 21.96875 7.515625 27.59375 7.515625 
L 36.8125 7.515625 
L 36.8125 0 
L 27.59375 0 
Q 17.1875 0 13.234375 3.875 
Q 9.28125 7.765625 9.28125 18.015625 
L 9.28125 47.703125 
L 2.6875 47.703125 
L 2.6875 54.6875 
L 9.28125 54.6875 
L 9.28125 70.21875 
z
" id="DejaVuSans-116"/>
      <path d="M 9.421875 54.6875 
L 18.40625 54.6875 
L 18.40625 0 
L 9.421875 0 
z
M 9.421875 75.984375 
L 18.40625 75.984375 
L 18.40625 64.59375 
L 9.421875 64.59375 
z
" id="DejaVuSans-105"/>
      <path d="M 30.609375 48.390625 
Q 23.390625 48.390625 19.1875 42.75 
Q 14.984375 37.109375 14.984375 27.296875 
Q 14.984375 17.484375 19.15625 11.84375 
Q 23.34375 6.203125 30.609375 6.203125 
Q 37.796875 6.203125 41.984375 11.859375 
Q 46.1875 17.53125 46.1875 27.296875 
Q 46.1875 37.015625 41.984375 42.703125 
Q 37.796875 48.390625 30.609375 48.390625 
z
M 30.609375 56 
Q 42.328125 56 49.015625 48.375 
Q 55.71875 40.765625 55.71875 27.296875 
Q 55.71875 13.875 49.015625 6.21875 
Q 42.328125 -1.421875 30.609375 -1.421875 
Q 18.84375 -1.421875 12.171875 6.21875 
Q 5.515625 13.875 5.515625 27.296875 
Q 5.515625 40.765625 12.171875 48.375 
Q 18.84375 56 30.609375 56 
z
" id="DejaVuSans-111"/>
      <path d="M 44.28125 53.078125 
L 44.28125 44.578125 
Q 40.484375 46.53125 36.375 47.5 
Q 32.28125 48.484375 27.875 48.484375 
Q 21.1875 48.484375 17.84375 46.4375 
Q 14.5 44.390625 14.5 40.28125 
Q 14.5 37.15625 16.890625 35.375 
Q 19.28125 33.59375 26.515625 31.984375 
L 29.59375 31.296875 
Q 39.15625 29.25 43.1875 25.515625 
Q 47.21875 21.78125 47.21875 15.09375 
Q 47.21875 7.46875 41.1875 3.015625 
Q 35.15625 -1.421875 24.609375 -1.421875 
Q 20.21875 -1.421875 15.453125 -0.5625 
Q 10.6875 0.296875 5.421875 2 
L 5.421875 11.28125 
Q 10.40625 8.6875 15.234375 7.390625 
Q 20.0625 6.109375 24.8125 6.109375 
Q 31.15625 6.109375 34.5625 8.28125 
Q 37.984375 10.453125 37.984375 14.40625 
Q 37.984375 18.0625 35.515625 20.015625 
Q 33.0625 21.96875 24.703125 23.78125 
L 21.578125 24.515625 
Q 13.234375 26.265625 9.515625 29.90625 
Q 5.8125 33.546875 5.8125 39.890625 
Q 5.8125 47.609375 11.28125 51.796875 
Q 16.75 56 26.8125 56 
Q 31.78125 56 36.171875 55.265625 
Q 40.578125 54.546875 44.28125 53.078125 
z
" id="DejaVuSans-115"/>
     </defs>
     <g transform="translate(205.662344 335.860562)scale(0.1 -0.1)">
      <use xlink:href="#DejaVuSans-71"/>
      <use x="77.490234" xlink:href="#DejaVuSans-101"/>
      <use x="139.013672" xlink:href="#DejaVuSans-110"/>
      <use x="202.392578" xlink:href="#DejaVuSans-101"/>
      <use x="263.916016" xlink:href="#DejaVuSans-114"/>
      <use x="305.029297" xlink:href="#DejaVuSans-97"/>
      <use x="366.308594" xlink:href="#DejaVuSans-116"/>
      <use x="405.517578" xlink:href="#DejaVuSans-105"/>
      <use x="433.300781" xlink:href="#DejaVuSans-111"/>
      <use x="494.482422" xlink:href="#DejaVuSans-110"/>
      <use x="557.861328" xlink:href="#DejaVuSans-115"/>
     </g>
    </g>
   </g>
   <g id="matplotlib.axis_2">
    <g id="ytick_1">
     <g id="line2d_10">
      <defs>
       <path d="M 0 0 
L -3.5 0 
" id="m3a3d4899a1" style="stroke:#000000;stroke-width:0.8;"/>
      </defs>
      <g>
       <use style="stroke:#000000;stroke-width:0.8;" x="57.6" xlink:href="#m3a3d4899a1" y="307.584"/>
      </g>
     </g>
     <g id="text_11">
      <!-- 0 -->
      <g transform="translate(44.2375 311.383219)scale(0.1 -0.1)">
       <use xlink:href="#DejaVuSans-48"/>
      </g>
     </g>
    </g>
    <g id="ytick_2">
     <g id="line2d_11">
      <g>
       <use style="stroke:#000000;stroke-width:0.8;" x="57.6" xlink:href="#m3a3d4899a1" y="257.497043"/>
      </g>
     </g>
     <g id="text_12">
      <!-- 50 -->
      <g transform="translate(37.875 261.296262)scale(0.1 -0.1)">
       <use xlink:href="#DejaVuSans-53"/>
       <use x="63.623047" xlink:href="#DejaVuSans-48"/>
      </g>
     </g>
    </g>
    <g id="ytick_3">
     <g id="line2d_12">
      <g>
       <use style="stroke:#000000;stroke-width:0.8;" x="57.6" xlink:href="#m3a3d4899a1" y="207.410087"/>
      </g>
     </g>
     <g id="text_13">
      <!-- 100 -->
      <g transform="translate(31.5125 211.209306)scale(0.1 -0.1)">
       <use xlink:href="#DejaVuSans-49"/>
       <use x="63.623047" xlink:href="#DejaVuSans-48"/>
       <use x="127.246094" xlink:href="#DejaVuSans-48"/>
      </g>
     </g>
    </g>
    <g id="ytick_4">
     <g id="line2d_13">
      <g>
       <use style="stroke:#000000;stroke-width:0.8;" x="57.6" xlink:href="#m3a3d4899a1" y="157.32313"/>
      </g>
     </g>
     <g id="text_14">
      <!-- 150 -->
      <g transform="translate(31.5125 161.122349)scale(0.1 -0.1)">
       <use xlink:href="#DejaVuSans-49"/>
       <use x="63.623047" xlink:href="#DejaVuSans-53"/>
       <use x="127.246094" xlink:href="#DejaVuSans-48"/>
      </g>
     </g>
    </g>
    <g id="ytick_5">
     <g id="line2d_14">
      <g>
       <use style="stroke:#000000;stroke-width:0.8;" x="57.6" xlink:href="#m3a3d4899a1" y="107.236174"/>
      </g>
     </g>
     <g id="text_15">
      <!-- 200 -->
      <g transform="translate(31.5125 111.035393)scale(0.1 -0.1)">
       <use xlink:href="#DejaVuSans-50"/>
       <use x="63.623047" xlink:href="#DejaVuSans-48"/>
       <use x="127.246094" xlink:href="#DejaVuSans-48"/>
      </g>
     </g>
    </g>
    <g id="ytick_6">
     <g id="line2d_15">
      <g>
       <use style="stroke:#000000;stroke-width:0.8;" x="57.6" xlink:href="#m3a3d4899a1" y="57.149217"/>
      </g>
     </g>
     <g id="text_16">
      <!-- 250 -->
      <g transform="translate(31.5125 60.948436)scale(0.1 -0.1)">
       <use xlink:href="#DejaVuSans-50"/>
       <use x="63.623047" xlink:href="#DejaVuSans-53"/>
       <use x="127.246094" xlink:href="#DejaVuSans-48"/>
      </g>
     </g>
    </g>
    <g id="text_17">
     <!-- Size per Species -->
     <defs>
      <path d="M 53.515625 70.515625 
L 53.515625 60.890625 
Q 47.90625 63.578125 42.921875 64.890625 
Q 37.9375 66.21875 33.296875 66.21875 
Q 25.25 66.21875 20.875 63.09375 
Q 16.5 59.96875 16.5 54.203125 
Q 16.5 49.359375 19.40625 46.890625 
Q 22.3125 44.4375 30.421875 42.921875 
L 36.375 41.703125 
Q 47.40625 39.59375 52.65625 34.296875 
Q 57.90625 29 57.90625 20.125 
Q 57.90625 9.515625 50.796875 4.046875 
Q 43.703125 -1.421875 29.984375 -1.421875 
Q 24.8125 -1.421875 18.96875 -0.25 
Q 13.140625 0.921875 6.890625 3.21875 
L 6.890625 13.375 
Q 12.890625 10.015625 18.65625 8.296875 
Q 24.421875 6.59375 29.984375 6.59375 
Q 38.421875 6.59375 43.015625 9.90625 
Q 47.609375 13.234375 47.609375 19.390625 
Q 47.609375 24.75 44.3125 27.78125 
Q 41.015625 30.8125 33.5 32.328125 
L 27.484375 33.5 
Q 16.453125 35.6875 11.515625 40.375 
Q 6.59375 45.0625 6.59375 53.421875 
Q 6.59375 63.09375 13.40625 68.65625 
Q 20.21875 74.21875 32.171875 74.21875 
Q 37.3125 74.21875 42.625 73.28125 
Q 47.953125 72.359375 53.515625 70.515625 
z
" id="DejaVuSans-83"/>
      <path d="M 5.515625 54.6875 
L 48.1875 54.6875 
L 48.1875 46.484375 
L 14.40625 7.171875 
L 48.1875 7.171875 
L 48.1875 0 
L 4.296875 0 
L 4.296875 8.203125 
L 38.09375 47.515625 
L 5.515625 47.515625 
z
" id="DejaVuSans-122"/>
      <path id="DejaVuSans-32"/>
      <path d="M 18.109375 8.203125 
L 18.109375 -20.796875 
L 9.078125 -20.796875 
L 9.078125 54.6875 
L 18.109375 54.6875 
L 18.109375 46.390625 
Q 20.953125 51.265625 25.265625 53.625 
Q 29.59375 56 35.59375 56 
Q 45.5625 56 51.78125 48.09375 
Q 58.015625 40.1875 58.015625 27.296875 
Q 58.015625 14.40625 51.78125 6.484375 
Q 45.5625 -1.421875 35.59375 -1.421875 
Q 29.59375 -1.421875 25.265625 0.953125 
Q 20.953125 3.328125 18.109375 8.203125 
z
M 48.6875 27.296875 
Q 48.6875 37.203125 44.609375 42.84375 
Q 40.53125 48.484375 33.40625 48.484375 
Q 26.265625 48.484375 22.1875 42.84375 
Q 18.109375 37.203125 18.109375 27.296875 
Q 18.109375 17.390625 22.1875 11.75 
Q 26.265625 6.109375 33.40625 6.109375 
Q 40.53125 6.109375 44.609375 11.75 
Q 48.6875 17.390625 48.6875 27.296875 
z
" id="DejaVuSans-112"/>
      <path d="M 48.78125 52.59375 
L 48.78125 44.1875 
Q 44.96875 46.296875 41.140625 47.34375 
Q 37.3125 48.390625 33.40625 48.390625 
Q 24.65625 48.390625 19.8125 42.84375 
Q 14.984375 37.3125 14.984375 27.296875 
Q 14.984375 17.28125 19.8125 11.734375 
Q 24.65625 6.203125 33.40625 6.203125 
Q 37.3125 6.203125 41.140625 7.25 
Q 44.96875 8.296875 48.78125 10.40625 
L 48.78125 2.09375 
Q 45.015625 0.34375 40.984375 -0.53125 
Q 36.96875 -1.421875 32.421875 -1.421875 
Q 20.0625 -1.421875 12.78125 6.34375 
Q 5.515625 14.109375 5.515625 27.296875 
Q 5.515625 40.671875 12.859375 48.328125 
Q 20.21875 56 33.015625 56 
Q 37.15625 56 41.109375 55.140625 
Q 45.0625 54.296875 48.78125 52.59375 
z
" id="DejaVuSans-99"/>
     </defs>
     <g transform="translate(25.432812 215.520969)rotate(-90)scale(0.1 -0.1)">
      <use xlink:href="#DejaVuSans-83"/>
      <use x="63.476562" xlink:href="#DejaVuSans-105"/>
      <use x="91.259766" xlink:href="#DejaVuSans-122"/>
      <use x="143.75" xlink:href="#DejaVuSans-101"/>
      <use x="205.273438" xlink:href="#DejaVuSans-32"/>
      <use x="237.060547" xlink:href="#DejaVuSans-112"/>
      <use x="300.537109" xlink:href="#DejaVuSans-101"/>
      <use x="362.060547" xlink:href="#DejaVuSans-114"/>
      <use x="403.173828" xlink:href="#DejaVuSans-32"/>
      <use x="434.960938" xlink:href="#DejaVuSans-83"/>
      <use x="498.4375" xlink:href="#DejaVuSans-112"/>
      <use x="561.914062" xlink:href="#DejaVuSans-101"/>
      <use x="623.4375" xlink:href="#DejaVuSans-99"/>
      <use x="678.417969" xlink:href="#DejaVuSans-105"/>
      <use x="706.201172" xlink:href="#DejaVuSans-101"/>
      <use x="767.724609" xlink:href="#DejaVuSans-115"/>
     </g>
    </g>
   </g>
   <g id="patch_3">
    <path d="M 57.6 307.584 
L 57.6 41.472 
" style="fill:none;stroke:#000000;stroke-linecap:square;stroke-linejoin:miter;stroke-width:0.8;"/>
   </g>
   <g id="patch_4">
    <path d="M 414.72 307.584 
L 414.72 41.472 
" style="fill:none;stroke:#000000;stroke-linecap:square;stroke-linejoin:miter;stroke-width:0.8;"/>
   </g>
   <g id="patch_5">
    <path d="M 57.6 307.584 
L 414.72 307.584 
" style="fill:none;stroke:#000000;stroke-linecap:square;stroke-linejoin:miter;stroke-width:0.8;"/>
   </g>
   <g id="patch_6">
    <path d="M 57.6 41.472 
L 414.72 41.472 
" style="fill:none;stroke:#000000;stroke-linecap:square;stroke-linejoin:miter;stroke-width:0.8;"/>
   </g>
   <g id="text_18">
    <!-- Speciation -->
    <g transform="translate(204.714375 35.472)scale(0.12 -0.12)">
     <use xlink:href="#DejaVuSans-83"/>
     <use x="63.476562" xlink:href="#DejaVuSans-112"/>
     <use x="126.953125" xlink:href="#DejaVuSans-101"/>
     <use x="188.476562" xlink:href="#DejaVuSans-99"/>
     <use x="243.457031" xlink:href="#DejaVuSans-105"/>
     <use x="271.240234" xlink:href="#DejaVuSans-97"/>
     <use x="332.519531" xlink:href="#DejaVuSans-116"/>
     <use x="371.728516" xlink:href="#DejaVuSans-105"/>
     <use x="399.511719" xlink:href="#DejaVuSans-111"/>
     <use x="460.693359" xlink:href="#DejaVuSans-110"/>
    </g>
   </g>
  </g>
 </g>
 <defs>
  <clipPath id="p8d91b34939">
   <rect height="266.112" width="357.12" x="57.6" y="41.472"/>
  </clipPath>
 </defs>
</svg>
