<?xml version="1.0" encoding="UTF-8" standalone="no"?>
<!DOCTYPE svg PUBLIC "-//W3C//DTD SVG 1.1//EN"
 "http://www.w3.org/Graphics/SVG/1.1/DTD/svg11.dtd">
<!-- Generated by graphviz version 2.38.0 (20140413.2041)
 -->
<!-- Title: %3 Pages: 1 -->
<svg width="397pt" height="580pt"
 viewBox="0.00 0.00 396.57 580.38" xmlns="http://www.w3.org/2000/svg" xmlns:xlink="http://www.w3.org/1999/xlink">
<g id="graph0" class="graph" transform="scale(1 1) rotate(0) translate(4 576.382)">
<title>%3</title>
<polygon fill="white" stroke="none" points="-4,4 -4,-576.382 392.57,-576.382 392.57,4 -4,4"/>
<!-- x -->
<g id="node1" class="node"><title>x</title>
<polygon fill="lightgray" stroke="black" points="86.8209,-471.136 66.8209,-471.136 66.8209,-453.136 86.8209,-453.136 86.8209,-471.136"/>
<text text-anchor="middle" x="76.8209" y="-459.936" font-family="Times New Roman,serif" font-size="9.00">x</text>
</g>
<!-- control -->
<g id="node5" class="node"><title>control</title>
<ellipse fill="lightblue" stroke="black" cx="140.821" cy="-371.688" rx="29.8983" ry="29.8983"/>
<text text-anchor="middle" x="140.821" y="-369.488" font-family="Times New Roman,serif" font-size="9.00">control</text>
</g>
<!-- x&#45;&gt;control -->
<g id="edge5" class="edge"><title>x&#45;&gt;control</title>
<path fill="none" stroke="green" stroke-width="0.954198" d="M82.7272,-452.973C90.652,-442.021 105.183,-421.939 117.729,-404.601"/>
<polygon fill="green" stroke="green" stroke-width="0.954198" points="120.664,-406.515 123.691,-396.362 114.993,-402.411 120.664,-406.515"/>
</g>
<!-- dx -->
<g id="node2" class="node"><title>dx</title>
<polygon fill="lightgray" stroke="black" points="321.321,-556.633 296.321,-556.633 296.321,-538.633 321.321,-538.633 321.321,-556.633"/>
<text text-anchor="middle" x="308.821" y="-545.433" font-family="Times New Roman,serif" font-size="9.00">dx</text>
</g>
<!-- theta -->
<g id="node3" class="node"><title>theta</title>
<polygon fill="lightgray" stroke="black" points="278.321,-556.633 243.321,-556.633 243.321,-538.633 278.321,-538.633 278.321,-556.633"/>
<text text-anchor="middle" x="260.821" y="-545.433" font-family="Times New Roman,serif" font-size="9.00">theta</text>
</g>
<!-- theta&#45;&gt;control -->
<g id="edge1" class="edge"><title>theta&#45;&gt;control</title>
<path fill="none" stroke="green" stroke-width="2.64168" d="M264.425,-538.469C272.33,-519.21 288.945,-470.108 268.821,-437.387 249.542,-406.041 209.862,-389.324 179.761,-380.793"/>
<polygon fill="green" stroke="green" stroke-width="2.64168" points="180.526,-377.375 169.964,-378.204 178.738,-384.143 180.526,-377.375"/>
</g>
<!-- 3272 -->
<g id="node8" class="node"><title>3272</title>
<ellipse fill="white" stroke="black" cx="234.821" cy="-462.136" rx="25" ry="25"/>
<text text-anchor="middle" x="234.821" y="-459.936" font-family="Times New Roman,serif" font-size="9.00">3272</text>
</g>
<!-- theta&#45;&gt;3272 -->
<g id="edge9" class="edge"><title>theta&#45;&gt;3272</title>
<path fill="none" stroke="red" stroke-width="0.399532" d="M258.328,-538.627C255.263,-528.783 249.869,-511.463 245.021,-495.894"/>
<polygon fill="red" stroke="red" stroke-width="0.399532" points="248.259,-494.519 241.944,-486.012 241.576,-496.6 248.259,-494.519"/>
</g>
<!-- dtheta -->
<g id="node4" class="node"><title>dtheta</title>
<polygon fill="lightgray" stroke="black" points="160.321,-556.633 121.321,-556.633 121.321,-538.633 160.321,-538.633 160.321,-556.633"/>
<text text-anchor="middle" x="140.821" y="-545.433" font-family="Times New Roman,serif" font-size="9.00">dtheta</text>
</g>
<!-- dtheta&#45;&gt;control -->
<g id="edge2" class="edge"><title>dtheta&#45;&gt;control</title>
<path fill="none" stroke="red" stroke-width="0.496596" stroke-dasharray="1,5" d="M139.569,-538.542C137.865,-527.08 134.904,-505.443 133.821,-486.884 132.539,-464.923 132.636,-459.354 133.821,-437.387 134.275,-428.965 135.06,-419.954 135.943,-411.413"/>
<polygon fill="red" stroke="red" stroke-width="0.496596" points="139.441,-411.622 137.055,-401.299 132.483,-410.857 139.441,-411.622"/>
</g>
<!-- 4484 -->
<g id="node7" class="node"><title>4484</title>
<ellipse fill="white" stroke="black" cx="76.8209" cy="-281.241" rx="25" ry="25"/>
<text text-anchor="middle" x="76.8209" y="-279.041" font-family="Times New Roman,serif" font-size="9.00">4484</text>
</g>
<!-- dtheta&#45;&gt;4484 -->
<g id="edge6" class="edge"><title>dtheta&#45;&gt;4484</title>
<path fill="none" stroke="red" stroke-width="0.172294" d="M121.142,-538.904C101.057,-529.822 71.0162,-512.642 57.8209,-486.884 29.2801,-431.172 48.78,-355.712 63.8801,-313.734"/>
<polygon fill="red" stroke="red" stroke-width="0.172294" points="67.1794,-314.904 67.3999,-304.312 60.6219,-312.455 67.1794,-314.904"/>
</g>
<!-- dtheta&#45;&gt;3272 -->
<g id="edge3" class="edge"><title>dtheta&#45;&gt;3272</title>
<path fill="none" stroke="red" stroke-width="0.988576" stroke-dasharray="1,5" d="M149.834,-538.627C163.323,-526.645 189.282,-503.586 208.977,-486.092"/>
<polygon fill="red" stroke="red" stroke-width="0.988576" points="211.56,-488.479 216.712,-479.221 206.912,-483.245 211.56,-488.479"/>
</g>
<!-- 6414 -->
<g id="node10" class="node"><title>6414</title>
<ellipse fill="white" stroke="black" cx="167.821" cy="-462.136" rx="25" ry="25"/>
<text text-anchor="middle" x="167.821" y="-459.936" font-family="Times New Roman,serif" font-size="9.00">6414</text>
</g>
<!-- dtheta&#45;&gt;6414 -->
<g id="edge14" class="edge"><title>dtheta&#45;&gt;6414</title>
<path fill="none" stroke="green" stroke-width="0.329298" d="M143.41,-538.627C146.593,-528.783 152.194,-511.463 157.228,-495.894"/>
<polygon fill="green" stroke="green" stroke-width="0.329298" points="160.677,-496.604 160.424,-486.012 154.016,-494.45 160.677,-496.604"/>
</g>
<!-- control&#45;&gt;4484 -->
<g id="edge16" class="edge"><title>control&#45;&gt;4484</title>
<path fill="none" stroke="red" stroke-width="0.229588" d="M123.67,-346.986C115.447,-335.622 105.542,-321.934 96.9626,-310.077"/>
<polygon fill="red" stroke="red" stroke-width="0.229588" points="99.6901,-307.876 90.9923,-301.826 94.0191,-311.979 99.6901,-307.876"/>
</g>
<!-- 5120 -->
<g id="node6" class="node"><title>5120</title>
<ellipse fill="white" stroke="black" cx="50.8209" cy="-24.7487" rx="25" ry="25"/>
<text text-anchor="middle" x="50.8209" y="-22.5487" font-family="Times New Roman,serif" font-size="9.00">5120</text>
</g>
<!-- 4484&#45;&gt;5120 -->
<g id="edge8" class="edge"><title>4484&#45;&gt;5120</title>
<path fill="none" stroke="green" stroke-width="0.289143" d="M55.4947,-268.129C39.6095,-257.771 19.1258,-241.258 9.82094,-220.492 -14.8611,-165.411 13.2358,-94.8179 33.5723,-55.5336"/>
<polygon fill="green" stroke="green" stroke-width="0.289143" points="36.9081,-56.7177 38.5385,-46.2491 30.7356,-53.4161 36.9081,-56.7177"/>
</g>
<!-- 4854 -->
<g id="node11" class="node"><title>4854</title>
<ellipse fill="white" stroke="black" cx="43.8209" cy="-195.744" rx="25" ry="25"/>
<text text-anchor="middle" x="43.8209" y="-193.544" font-family="Times New Roman,serif" font-size="9.00">4854</text>
</g>
<!-- 4484&#45;&gt;4854 -->
<g id="edge7" class="edge"><title>4484&#45;&gt;4854</title>
<path fill="none" stroke="red" stroke-width="0.153778" stroke-dasharray="1,5" d="M67.9775,-257.865C64.4265,-248.88 60.2674,-238.357 56.4108,-228.599"/>
<polygon fill="red" stroke="red" stroke-width="0.153778" points="59.6194,-227.195 52.6887,-219.181 53.1094,-229.768 59.6194,-227.195"/>
</g>
<!-- 6006 -->
<g id="node12" class="node"><title>6006</title>
<ellipse fill="white" stroke="black" cx="110.821" cy="-195.744" rx="25" ry="25"/>
<text text-anchor="middle" x="110.821" y="-193.544" font-family="Times New Roman,serif" font-size="9.00">6006</text>
</g>
<!-- 4484&#45;&gt;6006 -->
<g id="edge12" class="edge"><title>4484&#45;&gt;6006</title>
<path fill="none" stroke="green" stroke-width="0.464778" d="M85.9323,-257.865C89.6205,-248.808 93.9452,-238.187 97.9456,-228.363"/>
<polygon fill="green" stroke="green" stroke-width="0.464778" points="101.273,-229.473 101.802,-218.892 94.7894,-226.833 101.273,-229.473"/>
</g>
<!-- 5629 -->
<g id="node13" class="node"><title>5629</title>
<ellipse fill="white" stroke="black" cx="110.821" cy="-110.246" rx="25" ry="25"/>
<text text-anchor="middle" x="110.821" y="-108.046" font-family="Times New Roman,serif" font-size="9.00">5629</text>
</g>
<!-- 4484&#45;&gt;5629 -->
<g id="edge10" class="edge"><title>4484&#45;&gt;5629</title>
<path fill="none" stroke="red" stroke-width="0.341787" stroke-dasharray="1,5" d="M98.1263,-268.416C114.289,-258.116 135.297,-241.539 144.821,-220.492 156.841,-193.93 143.901,-161.914 130.671,-139.43"/>
<polygon fill="red" stroke="red" stroke-width="0.341787" points="133.505,-137.361 125.251,-130.719 127.562,-141.059 133.505,-137.361"/>
</g>
<!-- 3272&#45;&gt;control -->
<g id="edge4" class="edge"><title>3272&#45;&gt;control</title>
<path fill="none" stroke="green" stroke-width="0.104954" d="M217.14,-444.499C203.703,-431.856 184.943,-414.204 169.386,-399.566"/>
<polygon fill="green" stroke="green" stroke-width="0.104954" points="171.724,-396.96 162.043,-392.657 166.927,-402.058 171.724,-396.96"/>
</g>
<!-- 5036 -->
<g id="node9" class="node"><title>5036</title>
<ellipse fill="white" stroke="black" cx="363.821" cy="-547.633" rx="25" ry="25"/>
<text text-anchor="middle" x="363.821" y="-545.433" font-family="Times New Roman,serif" font-size="9.00">5036</text>
</g>
<!-- 6414&#45;&gt;control -->
<g id="edge15" class="edge"><title>6414&#45;&gt;control</title>
<path fill="none" stroke="green" stroke-width="0.396527" d="M160.868,-438.358C158.247,-429.773 155.192,-419.765 152.268,-410.187"/>
<polygon fill="green" stroke="green" stroke-width="0.396527" points="155.56,-408.983 149.293,-400.44 148.865,-411.027 155.56,-408.983"/>
</g>
<!-- 6006&#45;&gt;5629 -->
<g id="edge13" class="edge"><title>6006&#45;&gt;5629</title>
<path fill="none" stroke="green" stroke-width="0.107966" d="M110.821,-170.593C110.821,-162.649 110.821,-153.664 110.821,-145.134"/>
<polygon fill="green" stroke="green" stroke-width="0.107966" points="114.321,-145.054 110.821,-135.055 107.321,-145.055 114.321,-145.054"/>
</g>
<!-- 5629&#45;&gt;5120 -->
<g id="edge11" class="edge"><title>5629&#45;&gt;5120</title>
<path fill="none" stroke="red" stroke-width="0.2193" stroke-dasharray="1,5" d="M96.6018,-89.4585C88.9054,-78.7479 79.2718,-65.3416 70.8298,-53.5935"/>
<polygon fill="red" stroke="red" stroke-width="0.2193" points="73.6158,-51.4728 64.938,-45.3944 67.9313,-55.5577 73.6158,-51.4728"/>
</g>
</g>
</svg>
