<?xml version="1.0" encoding="UTF-8" standalone="no"?>
<!DOCTYPE svg PUBLIC "-//W3C//DTD SVG 1.1//EN"
 "http://www.w3.org/Graphics/SVG/1.1/DTD/svg11.dtd">
<!-- Generated by graphviz version 2.38.0 (20140413.2041)
 -->
<!-- Title: %3 Pages: 1 -->
<svg width="399pt" height="495pt"
 viewBox="0.00 0.00 399.50 494.88" xmlns="http://www.w3.org/2000/svg" xmlns:xlink="http://www.w3.org/1999/xlink">
<g id="graph0" class="graph" transform="scale(1 1) rotate(0) translate(4 490.884)">
<title>%3</title>
<polygon fill="white" stroke="none" points="-4,4 -4,-490.884 395.497,-490.884 395.497,4 -4,4"/>
<!-- x -->
<g id="node1" class="node"><title>x</title>
<polygon fill="lightgray" stroke="black" points="60.7487,-385.638 40.7487,-385.638 40.7487,-367.638 60.7487,-367.638 60.7487,-385.638"/>
<text text-anchor="middle" x="50.7487" y="-374.438" font-family="Times New Roman,serif" font-size="9.00">x</text>
</g>
<!-- control -->
<g id="node5" class="node"><title>control</title>
<ellipse fill="lightblue" stroke="black" cx="103.749" cy="-286.191" rx="29.8983" ry="29.8983"/>
<text text-anchor="middle" x="103.749" y="-283.991" font-family="Times New Roman,serif" font-size="9.00">control</text>
</g>
<!-- x&#45;&gt;control -->
<g id="edge3" class="edge"><title>x&#45;&gt;control</title>
<path fill="none" stroke="green" stroke-width="0.954198" d="M55.6399,-367.476C62.012,-356.842 73.5418,-337.601 83.7167,-320.621"/>
<polygon fill="green" stroke="green" stroke-width="0.954198" points="86.7417,-322.382 88.8795,-312.005 80.7371,-318.784 86.7417,-322.382"/>
</g>
<!-- dx -->
<g id="node2" class="node"><title>dx</title>
<polygon fill="lightgray" stroke="black" points="257.249,-471.136 232.249,-471.136 232.249,-453.136 257.249,-453.136 257.249,-471.136"/>
<text text-anchor="middle" x="244.749" y="-459.936" font-family="Times New Roman,serif" font-size="9.00">dx</text>
</g>
<!-- theta -->
<g id="node3" class="node"><title>theta</title>
<polygon fill="lightgray" stroke="black" points="214.249,-471.136 179.249,-471.136 179.249,-453.136 214.249,-453.136 214.249,-471.136"/>
<text text-anchor="middle" x="196.749" y="-459.936" font-family="Times New Roman,serif" font-size="9.00">theta</text>
</g>
<!-- theta&#45;&gt;control -->
<g id="edge1" class="edge"><title>theta&#45;&gt;control</title>
<path fill="none" stroke="green" stroke-width="2.64168" d="M200.127,-453.102C207.545,-434.126 223.184,-385.592 204.749,-351.889 191.283,-327.272 164.01,-310.644 141.195,-300.416"/>
<polygon fill="green" stroke="green" stroke-width="2.64168" points="142.318,-297.091 131.744,-296.42 139.592,-303.538 142.318,-297.091"/>
</g>
<!-- 3272 -->
<g id="node8" class="node"><title>3272</title>
<ellipse fill="white" stroke="black" cx="170.749" cy="-376.638" rx="25" ry="25"/>
<text text-anchor="middle" x="170.749" y="-374.438" font-family="Times New Roman,serif" font-size="9.00">3272</text>
</g>
<!-- theta&#45;&gt;3272 -->
<g id="edge6" class="edge"><title>theta&#45;&gt;3272</title>
<path fill="none" stroke="red" stroke-width="0.399532" d="M194.256,-453.13C191.19,-443.285 185.797,-425.965 180.949,-410.396"/>
<polygon fill="red" stroke="red" stroke-width="0.399532" points="184.187,-409.022 177.872,-400.515 177.504,-411.103 184.187,-409.022"/>
</g>
<!-- dtheta -->
<g id="node4" class="node"><title>dtheta</title>
<polygon fill="lightgray" stroke="black" points="78.2487,-471.136 39.2487,-471.136 39.2487,-453.136 78.2487,-453.136 78.2487,-471.136"/>
<text text-anchor="middle" x="58.7487" y="-459.936" font-family="Times New Roman,serif" font-size="9.00">dtheta</text>
</g>
<!-- 4484 -->
<g id="node7" class="node"><title>4484</title>
<ellipse fill="white" stroke="black" cx="57.7487" cy="-195.744" rx="25" ry="25"/>
<text text-anchor="middle" x="57.7487" y="-193.544" font-family="Times New Roman,serif" font-size="9.00">4484</text>
</g>
<!-- dtheta&#45;&gt;4484 -->
<g id="edge4" class="edge"><title>dtheta&#45;&gt;4484</title>
<path fill="none" stroke="red" stroke-width="0.172294" d="M53.7228,-453.016C47.1477,-441.868 35.9684,-420.972 31.7487,-401.387 18.7796,-341.193 34.9578,-269.548 46.9824,-228.983"/>
<polygon fill="red" stroke="red" stroke-width="0.172294" points="50.346,-229.952 49.9297,-219.366 43.6532,-227.901 50.346,-229.952"/>
</g>
<!-- 6414 -->
<g id="node10" class="node"><title>6414</title>
<ellipse fill="white" stroke="black" cx="103.749" cy="-376.638" rx="25" ry="25"/>
<text text-anchor="middle" x="103.749" y="-374.438" font-family="Times New Roman,serif" font-size="9.00">6414</text>
</g>
<!-- dtheta&#45;&gt;6414 -->
<g id="edge9" class="edge"><title>dtheta&#45;&gt;6414</title>
<path fill="none" stroke="green" stroke-width="0.329298" d="M63.0635,-453.13C68.6538,-442.757 78.7176,-424.083 87.437,-407.904"/>
<polygon fill="green" stroke="green" stroke-width="0.329298" points="90.7083,-409.212 92.3715,-398.749 84.5462,-405.891 90.7083,-409.212"/>
</g>
<!-- control&#45;&gt;4484 -->
<g id="edge11" class="edge"><title>control&#45;&gt;4484</title>
<path fill="none" stroke="red" stroke-width="0.229588" d="M90.4436,-259.608C85.1488,-249.428 79.0149,-237.634 73.5003,-227.03"/>
<polygon fill="red" stroke="red" stroke-width="0.229588" points="76.5695,-225.346 68.8501,-218.089 70.3592,-228.576 76.5695,-225.346"/>
</g>
<!-- 5120 -->
<g id="node6" class="node"><title>5120</title>
<ellipse fill="white" stroke="black" cx="24.7487" cy="-110.246" rx="25" ry="25"/>
<text text-anchor="middle" x="24.7487" y="-108.046" font-family="Times New Roman,serif" font-size="9.00">5120</text>
</g>
<!-- 4484&#45;&gt;5120 -->
<g id="edge5" class="edge"><title>4484&#45;&gt;5120</title>
<path fill="none" stroke="green" stroke-width="0.289143" d="M48.9053,-172.368C45.3543,-163.383 41.1952,-152.86 37.3386,-143.102"/>
<polygon fill="green" stroke="green" stroke-width="0.289143" points="40.5472,-141.697 33.6165,-133.684 34.0372,-144.27 40.5472,-141.697"/>
</g>
<!-- 6006 -->
<g id="node12" class="node"><title>6006</title>
<ellipse fill="white" stroke="black" cx="91.7487" cy="-110.246" rx="25" ry="25"/>
<text text-anchor="middle" x="91.7487" y="-108.046" font-family="Times New Roman,serif" font-size="9.00">6006</text>
</g>
<!-- 4484&#45;&gt;6006 -->
<g id="edge7" class="edge"><title>4484&#45;&gt;6006</title>
<path fill="none" stroke="green" stroke-width="0.464778" d="M66.8601,-172.368C70.5483,-163.31 74.873,-152.69 78.8734,-142.866"/>
<polygon fill="green" stroke="green" stroke-width="0.464778" points="82.2003,-143.976 82.7301,-133.394 75.7172,-141.336 82.2003,-143.976"/>
</g>
<!-- 3272&#45;&gt;control -->
<g id="edge2" class="edge"><title>3272&#45;&gt;control</title>
<path fill="none" stroke="green" stroke-width="0.104954" d="M156.211,-356.446C147.813,-345.36 137.044,-331.145 127.451,-318.481"/>
<polygon fill="green" stroke="green" stroke-width="0.104954" points="130.182,-316.289 121.354,-310.431 124.602,-320.516 130.182,-316.289"/>
</g>
<!-- 5036 -->
<g id="node9" class="node"><title>5036</title>
<ellipse fill="white" stroke="black" cx="299.749" cy="-462.136" rx="25" ry="25"/>
<text text-anchor="middle" x="299.749" y="-459.936" font-family="Times New Roman,serif" font-size="9.00">5036</text>
</g>
<!-- 6414&#45;&gt;control -->
<g id="edge10" class="edge"><title>6414&#45;&gt;control</title>
<path fill="none" stroke="green" stroke-width="0.396527" d="M103.749,-351.47C103.749,-343.688 103.749,-334.855 103.749,-326.283"/>
<polygon fill="green" stroke="green" stroke-width="0.396527" points="107.249,-326.045 103.749,-316.045 100.249,-326.045 107.249,-326.045"/>
</g>
<!-- 4854 -->
<g id="node11" class="node"><title>4854</title>
<ellipse fill="white" stroke="black" cx="366.749" cy="-462.136" rx="25" ry="25"/>
<text text-anchor="middle" x="366.749" y="-459.936" font-family="Times New Roman,serif" font-size="9.00">4854</text>
</g>
<!-- 5629 -->
<g id="node13" class="node"><title>5629</title>
<ellipse fill="white" stroke="black" cx="91.7487" cy="-24.7487" rx="25" ry="25"/>
<text text-anchor="middle" x="91.7487" y="-22.5487" font-family="Times New Roman,serif" font-size="9.00">5629</text>
</g>
<!-- 6006&#45;&gt;5629 -->
<g id="edge8" class="edge"><title>6006&#45;&gt;5629</title>
<path fill="none" stroke="green" stroke-width="0.107966" d="M91.7487,-85.0953C91.7487,-77.1512 91.7487,-68.1667 91.7487,-59.6364"/>
<polygon fill="green" stroke="green" stroke-width="0.107966" points="95.2488,-59.557 91.7487,-49.557 88.2488,-59.5571 95.2488,-59.557"/>
</g>
</g>
</svg>
