<?xml version="1.0" encoding="UTF-8" standalone="no"?>
<!DOCTYPE svg PUBLIC "-//W3C//DTD SVG 1.1//EN"
 "http://www.w3.org/Graphics/SVG/1.1/DTD/svg11.dtd">
<!-- Generated by graphviz version 2.38.0 (20140413.2041)
 -->
<!-- Title: %3 Pages: 1 -->
<svg width="124pt" height="222pt"
 viewBox="0.00 0.00 124.50 222.45" xmlns="http://www.w3.org/2000/svg" xmlns:xlink="http://www.w3.org/1999/xlink">
<g id="graph0" class="graph" transform="scale(1 1) rotate(0) translate(4 218.451)">
<title>%3</title>
<polygon fill="white" stroke="none" points="-4,4 -4,-218.451 120.497,-218.451 120.497,4 -4,4"/>
<!-- A -->
<g id="node1" class="node"><title>A</title>
<polygon fill="lightgray" stroke="black" points="42.2487,-214.451 19.2487,-214.451 19.2487,-196.451 42.2487,-196.451 42.2487,-214.451"/>
<text text-anchor="middle" x="30.7487" y="-203.251" font-family="Times New Roman,serif" font-size="9.00">A</text>
</g>
<!-- 1914 -->
<g id="node4" class="node"><title>1914</title>
<ellipse fill="white" stroke="black" cx="24.7487" cy="-135.702" rx="25" ry="25"/>
<text text-anchor="middle" x="24.7487" y="-133.502" font-family="Times New Roman,serif" font-size="9.00">1914</text>
</g>
<!-- A&#45;&gt;1914 -->
<g id="edge6" class="edge"><title>A&#45;&gt;1914</title>
<path fill="none" stroke="red" stroke-width="0.303044" d="M30.0369,-196.413C29.4563,-189.858 28.5943,-180.123 27.7338,-170.408"/>
<polygon fill="red" stroke="red" stroke-width="0.303044" points="31.2182,-170.076 26.8496,-160.424 24.2455,-170.694 31.2182,-170.076"/>
</g>
<!-- 1550 -->
<g id="node5" class="node"><title>1550</title>
<ellipse fill="white" stroke="black" cx="91.7487" cy="-135.702" rx="25" ry="25"/>
<text text-anchor="middle" x="91.7487" y="-133.502" font-family="Times New Roman,serif" font-size="9.00">1550</text>
</g>
<!-- A&#45;&gt;1550 -->
<g id="edge1" class="edge"><title>A&#45;&gt;1550</title>
<path fill="none" stroke="green" stroke-width="0.765354" d="M37.9858,-196.413C45.5452,-188.017 57.7985,-174.408 68.6993,-162.302"/>
<polygon fill="green" stroke="green" stroke-width="0.765354" points="71.5142,-164.406 75.6045,-154.632 66.3122,-159.722 71.5142,-164.406"/>
</g>
<!-- B -->
<g id="node2" class="node"><title>B</title>
<polygon fill="lightgray" stroke="black" points="96.2487,-214.451 73.2487,-214.451 73.2487,-196.451 96.2487,-196.451 96.2487,-214.451"/>
<text text-anchor="middle" x="84.7487" y="-203.251" font-family="Times New Roman,serif" font-size="9.00">B</text>
</g>
<!-- B&#45;&gt;1914 -->
<g id="edge4" class="edge"><title>B&#45;&gt;1914</title>
<path fill="none" stroke="green" stroke-width="0.838803" d="M77.6303,-196.413C70.2458,-188.075 58.3073,-174.595 47.6408,-162.551"/>
<polygon fill="green" stroke="green" stroke-width="0.838803" points="50.1259,-160.078 40.8757,-154.912 44.8855,-164.719 50.1259,-160.078"/>
</g>
<!-- B&#45;&gt;1550 -->
<g id="edge3" class="edge"><title>B&#45;&gt;1550</title>
<path fill="none" stroke="red" stroke-width="0.690579" d="M85.5792,-196.413C86.2566,-189.858 87.2623,-180.123 88.2661,-170.408"/>
<polygon fill="red" stroke="red" stroke-width="0.690579" points="91.7513,-170.731 89.2977,-160.424 84.7884,-170.011 91.7513,-170.731"/>
</g>
<!-- A XOR B -->
<g id="node3" class="node"><title>A XOR B</title>
<ellipse fill="lightblue" stroke="black" cx="57.7487" cy="-37.4767" rx="37.4533" ry="37.4533"/>
<text text-anchor="middle" x="57.7487" y="-35.2767" font-family="Times New Roman,serif" font-size="9.00">A XOR B</text>
</g>
<!-- 1914&#45;&gt;A XOR B -->
<g id="edge5" class="edge"><title>1914&#45;&gt;A XOR B</title>
<path fill="none" stroke="green" stroke-width="0.681842" d="M32.5693,-111.898C35.5736,-103.138 39.1145,-92.8126 42.5769,-82.7164"/>
<polygon fill="green" stroke="green" stroke-width="0.681842" points="45.9191,-83.7599 45.8525,-73.1652 39.2977,-81.489 45.9191,-83.7599"/>
</g>
<!-- 1550&#45;&gt;A XOR B -->
<g id="edge2" class="edge"><title>1550&#45;&gt;A XOR B</title>
<path fill="none" stroke="green" stroke-width="1.82606" d="M83.6912,-111.898C80.5959,-103.138 76.9476,-92.8126 73.3803,-82.7164"/>
<polygon fill="green" stroke="green" stroke-width="1.82606" points="76.6371,-81.4279 70.0055,-73.1652 70.037,-83.76 76.6371,-81.4279"/>
</g>
</g>
</svg>
