<?xml version="1.0" encoding="UTF-8" standalone="no"?>
<!DOCTYPE svg PUBLIC "-//W3C//DTD SVG 1.1//EN"
 "http://www.w3.org/Graphics/SVG/1.1/DTD/svg11.dtd">
<!-- Generated by graphviz version 2.38.0 (20140413.2041)
 -->
<!-- Title: %3 Pages: 1 -->
<svg width="203pt" height="393pt"
 viewBox="0.00 0.00 203.33 393.45" xmlns="http://www.w3.org/2000/svg" xmlns:xlink="http://www.w3.org/1999/xlink">
<g id="graph0" class="graph" transform="scale(1 1) rotate(0) translate(4 389.446)">
<title>%3</title>
<polygon fill="white" stroke="none" points="-4,4 -4,-389.446 199.33,-389.446 199.33,4 -4,4"/>
<!-- A -->
<g id="node1" class="node"><title>A</title>
<polygon fill="lightgray" stroke="black" points="23,-315.697 0,-315.697 0,-297.697 23,-297.697 23,-315.697"/>
<text text-anchor="middle" x="11.5" y="-304.497" font-family="Times New Roman,serif" font-size="9.00">A</text>
</g>
<!-- A XOR B -->
<g id="node3" class="node"><title>A XOR B</title>
<ellipse fill="lightblue" stroke="black" cx="90.5" cy="-122.974" rx="37.4533" ry="37.4533"/>
<text text-anchor="middle" x="90.5" y="-120.774" font-family="Times New Roman,serif" font-size="9.00">A XOR B</text>
</g>
<!-- A&#45;&gt;A XOR B -->
<g id="edge7" class="edge"><title>A&#45;&gt;A XOR B</title>
<path fill="none" stroke="red" stroke-width="0.357746" d="M10.7205,-297.568C9.26593,-278.792 7.58978,-231.347 23.5,-196.451 30.682,-180.699 42.6305,-166.091 54.4648,-154.179"/>
<polygon fill="red" stroke="red" stroke-width="0.357746" points="57.01,-156.587 61.7748,-147.124 52.1488,-151.55 57.01,-156.587"/>
</g>
<!-- 273 -->
<g id="node5" class="node"><title>273</title>
<ellipse fill="white" stroke="black" cx="53.5" cy="-221.2" rx="21.4286" ry="21.4286"/>
<text text-anchor="middle" x="53.5" y="-219" font-family="Times New Roman,serif" font-size="9.00">273</text>
</g>
<!-- A&#45;&gt;273 -->
<g id="edge1" class="edge"><title>A&#45;&gt;273</title>
<path fill="none" stroke="green" stroke-width="1.1546" d="M15.5271,-297.691C21.0194,-286.772 31.1379,-266.656 39.5495,-249.934"/>
<polygon fill="green" stroke="green" stroke-width="1.1546" points="42.89,-251.081 44.2569,-240.575 36.6365,-247.936 42.89,-251.081"/>
</g>
<!-- B -->
<g id="node2" class="node"><title>B</title>
<polygon fill="lightgray" stroke="black" points="140,-385.446 117,-385.446 117,-367.446 140,-367.446 140,-385.446"/>
<text text-anchor="middle" x="128.5" y="-374.246" font-family="Times New Roman,serif" font-size="9.00">B</text>
</g>
<!-- B&#45;&gt;A XOR B -->
<g id="edge4" class="edge"><title>B&#45;&gt;A XOR B</title>
<path fill="none" stroke="red" stroke-width="0.348792" d="M127.187,-367.34C125.763,-358.514 123.434,-343.983 121.5,-331.446 112.96,-276.081 103.491,-212.347 97.2923,-170.288"/>
<polygon fill="red" stroke="red" stroke-width="0.348792" points="100.748,-169.727 95.8281,-160.344 93.8222,-170.747 100.748,-169.727"/>
</g>
<!-- B&#45;&gt;273 -->
<g id="edge3" class="edge"><title>B&#45;&gt;273</title>
<path fill="none" stroke="green" stroke-width="0.90778" d="M118.99,-367.248C109.985,-359.019 96.6604,-345.569 88.5,-331.446 74.0706,-306.472 64.766,-274.793 59.4056,-251.987"/>
<polygon fill="green" stroke="green" stroke-width="0.90778" points="62.8128,-251.185 57.2161,-242.189 55.9813,-252.711 62.8128,-251.185"/>
</g>
<!-- 1778 -->
<g id="node6" class="node"><title>1778</title>
<ellipse fill="white" stroke="black" cx="155.5" cy="-306.697" rx="25" ry="25"/>
<text text-anchor="middle" x="155.5" y="-304.497" font-family="Times New Roman,serif" font-size="9.00">1778</text>
</g>
<!-- B&#45;&gt;1778 -->
<g id="edge9" class="edge"><title>B&#45;&gt;1778</title>
<path fill="none" stroke="green" stroke-width="0.206701" d="M131.703,-367.408C134.505,-360.377 138.764,-349.69 142.909,-339.291"/>
<polygon fill="green" stroke="green" stroke-width="0.206701" points="146.187,-340.52 146.638,-329.935 139.684,-337.928 146.187,-340.52"/>
</g>
<!-- 1461 -->
<g id="node7" class="node"><title>1461</title>
<ellipse fill="white" stroke="black" cx="155.5" cy="-221.2" rx="25" ry="25"/>
<text text-anchor="middle" x="155.5" y="-219" font-family="Times New Roman,serif" font-size="9.00">1461</text>
</g>
<!-- B&#45;&gt;1461 -->
<g id="edge8" class="edge"><title>B&#45;&gt;1461</title>
<path fill="none" stroke="green" stroke-width="0.237226" stroke-dasharray="1,5" d="M140.081,-371.02C154.689,-364.73 179.15,-351.672 189.5,-331.446 202.92,-305.219 189.378,-272.714 175.611,-250.007"/>
<polygon fill="green" stroke="green" stroke-width="0.237226" points="178.518,-248.056 170.179,-241.52 172.622,-251.83 178.518,-248.056"/>
</g>
<!-- 1193 -->
<g id="node4" class="node"><title>1193</title>
<ellipse fill="white" stroke="black" cx="122.5" cy="-24.7487" rx="25" ry="25"/>
<text text-anchor="middle" x="122.5" y="-22.5487" font-family="Times New Roman,serif" font-size="9.00">1193</text>
</g>
<!-- A XOR B&#45;&gt;1193 -->
<g id="edge6" class="edge"><title>A XOR B&#45;&gt;1193</title>
<path fill="none" stroke="green" stroke-width="0.494262" d="M102.053,-87.2346C105.208,-77.7465 108.614,-67.5046 111.724,-58.1523"/>
<polygon fill="green" stroke="green" stroke-width="0.494262" points="115.122,-59.0245 114.957,-48.431 108.48,-56.8155 115.122,-59.0245"/>
</g>
<!-- 273&#45;&gt;A XOR B -->
<g id="edge2" class="edge"><title>273&#45;&gt;A XOR B</title>
<path fill="none" stroke="green" stroke-width="0.908346" d="M60.81,-201.188C64.5324,-191.508 69.223,-179.309 73.7698,-167.484"/>
<polygon fill="green" stroke="green" stroke-width="0.908346" points="77.0418,-168.727 77.364,-158.137 70.5082,-166.214 77.0418,-168.727"/>
</g>
<!-- 1778&#45;&gt;1461 -->
<g id="edge10" class="edge"><title>1778&#45;&gt;1461</title>
<path fill="none" stroke="green" stroke-width="0.33234" d="M155.5,-281.546C155.5,-273.602 155.5,-264.617 155.5,-256.087"/>
<polygon fill="green" stroke="green" stroke-width="0.33234" points="159,-256.008 155.5,-246.008 152,-256.008 159,-256.008"/>
</g>
<!-- 1461&#45;&gt;A XOR B -->
<g id="edge11" class="edge"><title>1461&#45;&gt;A XOR B</title>
<path fill="none" stroke="red" stroke-width="0.513113" d="M142.032,-200.262C134.781,-189.527 125.578,-175.903 116.962,-163.148"/>
<polygon fill="red" stroke="red" stroke-width="0.513113" points="119.62,-160.83 111.122,-154.503 113.82,-164.749 119.62,-160.83"/>
</g>
<!-- 1461&#45;&gt;1193 -->
<g id="edge5" class="edge"><title>1461&#45;&gt;1193</title>
<path fill="none" stroke="red" stroke-width="0.291888" stroke-dasharray="1,5" d="M152.782,-196.248C149.564,-169.23 143.717,-124.032 136.5,-85.4975 134.865,-76.7665 132.81,-67.3851 130.782,-58.703"/>
<polygon fill="red" stroke="red" stroke-width="0.291888" points="134.17,-57.8245 128.44,-48.913 127.362,-59.4529 134.17,-57.8245"/>
</g>
</g>
</svg>
