<?xml version="1.0" encoding="UTF-8" standalone="no"?>
<!DOCTYPE svg PUBLIC "-//W3C//DTD SVG 1.1//EN"
 "http://www.w3.org/Graphics/SVG/1.1/DTD/svg11.dtd">
<!-- Generated by graphviz version 2.38.0 (20140413.2041)
 -->
<!-- Title: %3 Pages: 1 -->
<svg width="301pt" height="146pt"
 viewBox="0.00 0.00 301.21 145.82" xmlns="http://www.w3.org/2000/svg" xmlns:xlink="http://www.w3.org/1999/xlink">
<g id="graph0" class="graph" transform="scale(1 1) rotate(0) translate(4 141.823)">
<title>%3</title>
<polygon fill="white" stroke="none" points="-4,4 -4,-141.823 297.213,-141.823 297.213,4 -4,4"/>
<!-- x -->
<g id="node1" class="node"><title>x</title>
<polygon fill="lightgray" stroke="black" points="20,-125.61 0,-125.61 0,-107.61 20,-107.61 20,-125.61"/>
<text text-anchor="middle" x="10" y="-114.41" font-family="Times New Roman,serif" font-size="9.00">x</text>
</g>
<!-- dx -->
<g id="node2" class="node"><title>dx</title>
<polygon fill="lightgray" stroke="black" points="63.5,-125.61 38.5,-125.61 38.5,-107.61 63.5,-107.61 63.5,-125.61"/>
<text text-anchor="middle" x="51" y="-114.41" font-family="Times New Roman,serif" font-size="9.00">dx</text>
</g>
<!-- control -->
<g id="node5" class="node"><title>control</title>
<ellipse fill="lightblue" stroke="black" cx="96" cy="-29.6985" rx="29.8983" ry="29.8983"/>
<text text-anchor="middle" x="96" y="-27.4985" font-family="Times New Roman,serif" font-size="9.00">control</text>
</g>
<!-- dx&#45;&gt;control -->
<g id="edge3" class="edge"><title>dx&#45;&gt;control</title>
<path fill="none" stroke="green" stroke-width="0.265486" d="M55.3148,-107.468C60.5005,-97.6833 69.5357,-80.6346 77.7764,-65.0852"/>
<polygon fill="green" stroke="green" stroke-width="0.265486" points="80.9112,-66.6442 82.5014,-56.1694 74.7261,-63.3663 80.9112,-66.6442"/>
</g>
<!-- theta -->
<g id="node3" class="node"><title>theta</title>
<polygon fill="lightgray" stroke="black" points="177.5,-125.61 142.5,-125.61 142.5,-107.61 177.5,-107.61 177.5,-125.61"/>
<text text-anchor="middle" x="160" y="-114.41" font-family="Times New Roman,serif" font-size="9.00">theta</text>
</g>
<!-- theta&#45;&gt;control -->
<g id="edge1" class="edge"><title>theta&#45;&gt;control</title>
<path fill="none" stroke="green" stroke-width="0.516885" d="M153.863,-107.468C146.031,-97.0763 132.023,-78.4912 119.751,-62.2105"/>
<polygon fill="green" stroke="green" stroke-width="0.516885" points="122.349,-59.8414 113.535,-53.9624 116.759,-64.0548 122.349,-59.8414"/>
</g>
<!-- 1307 -->
<g id="node7" class="node"><title>1307</title>
<ellipse fill="white" stroke="black" cx="168" cy="-29.6985" rx="25" ry="25"/>
<text text-anchor="middle" x="168" y="-27.4985" font-family="Times New Roman,serif" font-size="9.00">1307</text>
</g>
<!-- theta&#45;&gt;1307 -->
<g id="edge4" class="edge"><title>theta&#45;&gt;1307</title>
<path fill="none" stroke="green" stroke-width="0.521673" d="M160.767,-107.468C161.697,-97.5938 163.325,-80.3221 164.8,-64.6589"/>
<polygon fill="green" stroke="green" stroke-width="0.521673" points="168.286,-64.9763 165.739,-54.6921 161.317,-64.3196 168.286,-64.9763"/>
</g>
<!-- dtheta -->
<g id="node4" class="node"><title>dtheta</title>
<polygon fill="lightgray" stroke="black" points="120.5,-125.61 81.5,-125.61 81.5,-107.61 120.5,-107.61 120.5,-125.61"/>
<text text-anchor="middle" x="101" y="-114.41" font-family="Times New Roman,serif" font-size="9.00">dtheta</text>
</g>
<!-- dtheta&#45;&gt;control -->
<g id="edge2" class="edge"><title>dtheta&#45;&gt;control</title>
<path fill="none" stroke="green" stroke-width="0.650294" d="M100.521,-107.468C100.001,-98.6504 99.1347,-83.9334 98.2984,-69.7307"/>
<polygon fill="green" stroke="green" stroke-width="0.650294" points="101.782,-69.3485 97.7002,-59.5716 94.7942,-69.7601 101.782,-69.3485"/>
</g>
<!-- 90 -->
<g id="node6" class="node"><title>90</title>
<ellipse fill="white" stroke="black" cx="214" cy="-116.61" rx="18.2703" ry="18.2703"/>
<text text-anchor="middle" x="214" y="-114.41" font-family="Times New Roman,serif" font-size="9.00">90</text>
</g>
<!-- 820 -->
<g id="node8" class="node"><title>820</title>
<ellipse fill="white" stroke="black" cx="272" cy="-116.61" rx="21.4286" ry="21.4286"/>
<text text-anchor="middle" x="272" y="-114.41" font-family="Times New Roman,serif" font-size="9.00">820</text>
</g>
</g>
</svg>
