<?xml version="1.0" encoding="UTF-8" standalone="no"?>
<!DOCTYPE svg PUBLIC "-//W3C//DTD SVG 1.1//EN"
 "http://www.w3.org/Graphics/SVG/1.1/DTD/svg11.dtd">
<!-- Generated by graphviz version 2.38.0 (20140413.2041)
 -->
<!-- Title: %3 Pages: 1 -->
<svg width="106pt" height="215pt"
 viewBox="0.00 0.00 105.60 215.38" xmlns="http://www.w3.org/2000/svg" xmlns:xlink="http://www.w3.org/1999/xlink">
<g id="graph0" class="graph" transform="scale(1 1) rotate(0) translate(4 211.38)">
<title>%3</title>
<polygon fill="white" stroke="none" points="-4,4 -4,-211.38 101.598,-211.38 101.598,4 -4,4"/>
<!-- A -->
<g id="node1" class="node"><title>A</title>
<polygon fill="lightgray" stroke="black" points="33.8848,-207.38 10.8848,-207.38 10.8848,-189.38 33.8848,-189.38 33.8848,-207.38"/>
<text text-anchor="middle" x="22.3848" y="-196.18" font-family="Times New Roman,serif" font-size="9.00">A</text>
</g>
<!-- 32 -->
<g id="node4" class="node"><title>32</title>
<ellipse fill="white" stroke="black" cx="18.3848" cy="-132.167" rx="18.2703" ry="18.2703"/>
<text text-anchor="middle" x="18.3848" y="-129.967" font-family="Times New Roman,serif" font-size="9.00">32</text>
</g>
<!-- A&#45;&gt;32 -->
<g id="edge3" class="edge"><title>A&#45;&gt;32</title>
<path fill="none" stroke="red" stroke-width="0.481629" d="M21.8782,-189.247C21.4319,-182.084 20.7553,-171.221 20.1159,-160.957"/>
<polygon fill="red" stroke="red" stroke-width="0.481629" points="23.5894,-160.422 19.4744,-150.659 16.603,-160.857 23.5894,-160.422"/>
</g>
<!-- 463 -->
<g id="node5" class="node"><title>463</title>
<ellipse fill="white" stroke="black" cx="76.3848" cy="-132.167" rx="21.4286" ry="21.4286"/>
<text text-anchor="middle" x="76.3848" y="-129.967" font-family="Times New Roman,serif" font-size="9.00">463</text>
</g>
<!-- A&#45;&gt;463 -->
<g id="edge4" class="edge"><title>A&#45;&gt;463</title>
<path fill="none" stroke="red" stroke-width="0.768971" d="M29.2239,-189.247C36.0751,-181.1 46.9499,-168.169 56.5311,-156.775"/>
<polygon fill="red" stroke="red" stroke-width="0.768971" points="59.4455,-158.748 63.203,-148.841 54.088,-154.242 59.4455,-158.748"/>
</g>
<!-- B -->
<g id="node2" class="node"><title>B</title>
<polygon fill="lightgray" stroke="black" points="82.8848,-207.38 59.8848,-207.38 59.8848,-189.38 82.8848,-189.38 82.8848,-207.38"/>
<text text-anchor="middle" x="71.3848" y="-196.18" font-family="Times New Roman,serif" font-size="9.00">B</text>
</g>
<!-- B&#45;&gt;32 -->
<g id="edge1" class="edge"><title>B&#45;&gt;32</title>
<path fill="none" stroke="green" stroke-width="0.603335" d="M64.6723,-189.247C57.5206,-180.582 45.9018,-166.505 36.0945,-154.623"/>
<polygon fill="green" stroke="green" stroke-width="0.603335" points="38.7362,-152.325 29.6713,-146.841 33.3376,-156.781 38.7362,-152.325"/>
</g>
<!-- B&#45;&gt;463 -->
<g id="edge6" class="edge"><title>B&#45;&gt;463</title>
<path fill="none" stroke="green" stroke-width="0.745679" d="M72.018,-189.247C72.5314,-182.655 73.2886,-172.929 74.029,-163.421"/>
<polygon fill="green" stroke="green" stroke-width="0.745679" points="77.5264,-163.589 74.8134,-153.348 70.5475,-163.046 77.5264,-163.589"/>
</g>
<!-- A XOR B -->
<g id="node3" class="node"><title>A XOR B</title>
<ellipse fill="lightblue" stroke="black" cx="47.3848" cy="-37.4767" rx="37.4533" ry="37.4533"/>
<text text-anchor="middle" x="47.3848" y="-35.2767" font-family="Times New Roman,serif" font-size="9.00">A XOR B</text>
</g>
<!-- 32&#45;&gt;A XOR B -->
<g id="edge2" class="edge"><title>32&#45;&gt;A XOR B</title>
<path fill="none" stroke="red" stroke-width="0.440714" d="M23.7038,-114.166C26.4609,-105.354 29.9702,-94.1372 33.4373,-83.0555"/>
<polygon fill="red" stroke="red" stroke-width="0.440714" points="36.8077,-84.0044 36.4534,-73.4155 30.127,-81.9142 36.8077,-84.0044"/>
</g>
<!-- 463&#45;&gt;A XOR B -->
<g id="edge5" class="edge"><title>463&#45;&gt;A XOR B</title>
<path fill="none" stroke="green" stroke-width="0.501816" d="M70.2346,-111.509C67.6409,-103.219 64.5065,-93.2011 61.4016,-83.2774"/>
<polygon fill="green" stroke="green" stroke-width="0.501816" points="64.6541,-81.9514 58.3278,-73.4527 57.9735,-84.0416 64.6541,-81.9514"/>
</g>
</g>
</svg>
