<?xml version="1.0" encoding="UTF-8" standalone="no"?>
<!DOCTYPE svg PUBLIC "-//W3C//DTD SVG 1.1//EN"
 "http://www.w3.org/Graphics/SVG/1.1/DTD/svg11.dtd">
<!-- Generated by graphviz version 2.38.0 (20140413.2041)
 -->
<!-- Title: %3 Pages: 1 -->
<svg width="127pt" height="215pt"
 viewBox="0.00 0.00 126.69 215.38" xmlns="http://www.w3.org/2000/svg" xmlns:xlink="http://www.w3.org/1999/xlink">
<g id="graph0" class="graph" transform="scale(1 1) rotate(0) translate(4 211.38)">
<title>%3</title>
<polygon fill="white" stroke="none" points="-4,4 -4,-211.38 122.69,-211.38 122.69,4 -4,4"/>
<!-- A -->
<g id="node1" class="node"><title>A</title>
<polygon fill="lightgray" stroke="black" points="66.7132,-207.38 43.7132,-207.38 43.7132,-189.38 66.7132,-189.38 66.7132,-207.38"/>
<text text-anchor="middle" x="55.2132" y="-196.18" font-family="Times New Roman,serif" font-size="9.00">A</text>
</g>
<!-- 107 -->
<g id="node4" class="node"><title>107</title>
<ellipse fill="white" stroke="black" cx="81.2132" cy="-132.167" rx="21.4286" ry="21.4286"/>
<text text-anchor="middle" x="81.2132" y="-129.967" font-family="Times New Roman,serif" font-size="9.00">107</text>
</g>
<!-- A&#45;&gt;107 -->
<g id="edge1" class="edge"><title>A&#45;&gt;107</title>
<path fill="none" stroke="green" stroke-width="0.731017" d="M58.5061,-189.247C61.3641,-182.189 65.6764,-171.538 69.7779,-161.409"/>
<polygon fill="green" stroke="green" stroke-width="0.731017" points="73.0824,-162.573 73.5913,-151.991 66.594,-159.946 73.0824,-162.573"/>
</g>
<!-- 806 -->
<g id="node5" class="node"><title>806</title>
<ellipse fill="white" stroke="black" cx="21.2132" cy="-132.167" rx="21.4286" ry="21.4286"/>
<text text-anchor="middle" x="21.2132" y="-129.967" font-family="Times New Roman,serif" font-size="9.00">806</text>
</g>
<!-- A&#45;&gt;806 -->
<g id="edge6" class="edge"><title>A&#45;&gt;806</title>
<path fill="none" stroke="green" stroke-width="0.533894" d="M50.9071,-189.247C47.0097,-181.886 41.0442,-170.62 35.48,-160.111"/>
<polygon fill="green" stroke="green" stroke-width="0.533894" points="38.5281,-158.388 30.7555,-151.188 32.3418,-161.664 38.5281,-158.388"/>
</g>
<!-- B -->
<g id="node2" class="node"><title>B</title>
<polygon fill="lightgray" stroke="black" points="116.713,-207.38 93.7132,-207.38 93.7132,-189.38 116.713,-189.38 116.713,-207.38"/>
<text text-anchor="middle" x="105.213" y="-196.18" font-family="Times New Roman,serif" font-size="9.00">B</text>
</g>
<!-- A XOR B -->
<g id="node3" class="node"><title>A XOR B</title>
<ellipse fill="lightblue" stroke="black" cx="81.2132" cy="-37.4767" rx="37.4533" ry="37.4533"/>
<text text-anchor="middle" x="81.2132" y="-35.2767" font-family="Times New Roman,serif" font-size="9.00">A XOR B</text>
</g>
<!-- B&#45;&gt;A XOR B -->
<g id="edge5" class="edge"><title>B&#45;&gt;A XOR B</title>
<path fill="none" stroke="red" stroke-width="0.362409" d="M107.206,-189.186C110.653,-173.73 116.844,-139.277 111.213,-110.953 109.202,-100.836 105.754,-90.3597 101.896,-80.6236"/>
<polygon fill="red" stroke="red" stroke-width="0.362409" points="105.031,-79.0467 97.9397,-71.1746 98.5738,-81.7505 105.031,-79.0467"/>
</g>
<!-- B&#45;&gt;107 -->
<g id="edge3" class="edge"><title>B&#45;&gt;107</title>
<path fill="none" stroke="green" stroke-width="0.846342" d="M102.174,-189.247C99.5545,-182.24 95.6124,-171.692 91.8512,-161.629"/>
<polygon fill="green" stroke="green" stroke-width="0.846342" points="95.1291,-160.402 88.3495,-152.26 88.5721,-162.853 95.1291,-160.402"/>
</g>
<!-- 107&#45;&gt;A XOR B -->
<g id="edge2" class="edge"><title>107&#45;&gt;A XOR B</title>
<path fill="none" stroke="green" stroke-width="0.812447" d="M81.2132,-110.596C81.2132,-103 81.2132,-94.0512 81.2132,-85.0886"/>
<polygon fill="green" stroke="green" stroke-width="0.812447" points="84.7133,-85.0353 81.2132,-75.0353 77.7133,-85.0353 84.7133,-85.0353"/>
</g>
<!-- 806&#45;&gt;A XOR B -->
<g id="edge4" class="edge"><title>806&#45;&gt;A XOR B</title>
<path fill="none" stroke="red" stroke-width="0.25899" d="M32.4987,-113.732C39.0631,-103.591 47.6179,-90.3757 55.7232,-77.8544"/>
<polygon fill="red" stroke="red" stroke-width="0.25899" points="58.7368,-79.6397 61.2328,-69.3431 52.8605,-75.8358 58.7368,-79.6397"/>
</g>
</g>
</svg>
