<?xml version="1.0" encoding="UTF-8" standalone="no"?>
<!DOCTYPE svg PUBLIC "-//W3C//DTD SVG 1.1//EN"
 "http://www.w3.org/Graphics/SVG/1.1/DTD/svg11.dtd">
<!-- Generated by graphviz version 2.38.0 (20140413.2041)
 -->
<!-- Title: %3 Pages: 1 -->
<svg width="234pt" height="308pt"
 viewBox="0.00 0.00 234.25 307.95" xmlns="http://www.w3.org/2000/svg" xmlns:xlink="http://www.w3.org/1999/xlink">
<g id="graph0" class="graph" transform="scale(1 1) rotate(0) translate(4 303.948)">
<title>%3</title>
<polygon fill="white" stroke="none" points="-4,4 -4,-303.948 230.249,-303.948 230.249,4 -4,4"/>
<!-- A -->
<g id="node1" class="node"><title>A</title>
<polygon fill="lightgray" stroke="black" points="23,-230.2 0,-230.2 0,-212.2 23,-212.2 23,-230.2"/>
<text text-anchor="middle" x="11.5" y="-219" font-family="Times New Roman,serif" font-size="9.00">A</text>
</g>
<!-- A XOR B -->
<g id="node3" class="node"><title>A XOR B</title>
<ellipse fill="lightblue" stroke="black" cx="110.5" cy="-37.4767" rx="37.4533" ry="37.4533"/>
<text text-anchor="middle" x="110.5" y="-35.2767" font-family="Times New Roman,serif" font-size="9.00">A XOR B</text>
</g>
<!-- A&#45;&gt;A XOR B -->
<g id="edge6" class="edge"><title>A&#45;&gt;A XOR B</title>
<path fill="none" stroke="red" stroke-width="0.25727" d="M10.4112,-211.917C8.30596,-192.819 5.35567,-144.741 23.5,-110.953 34.1303,-91.1578 52.6106,-74.5913 69.8124,-62.3164"/>
<polygon fill="red" stroke="red" stroke-width="0.25727" points="71.8349,-65.1735 78.1142,-56.64 67.8839,-59.3951 71.8349,-65.1735"/>
</g>
<!-- 1112 -->
<g id="node5" class="node"><title>1112</title>
<ellipse fill="white" stroke="black" cx="57.5" cy="-135.702" rx="25" ry="25"/>
<text text-anchor="middle" x="57.5" y="-133.502" font-family="Times New Roman,serif" font-size="9.00">1112</text>
</g>
<!-- A&#45;&gt;1112 -->
<g id="edge1" class="edge"><title>A&#45;&gt;1112</title>
<path fill="none" stroke="green" stroke-width="0.552913" d="M15.9107,-212.193C21.6252,-201.821 31.9127,-183.147 40.8258,-166.968"/>
<polygon fill="green" stroke="green" stroke-width="0.552913" points="44.1102,-168.26 45.87,-157.812 37.979,-164.882 44.1102,-168.26"/>
</g>
<!-- B -->
<g id="node2" class="node"><title>B</title>
<polygon fill="lightgray" stroke="black" points="122,-299.948 99,-299.948 99,-281.948 122,-281.948 122,-299.948"/>
<text text-anchor="middle" x="110.5" y="-288.748" font-family="Times New Roman,serif" font-size="9.00">B</text>
</g>
<!-- B&#45;&gt;A XOR B -->
<g id="edge7" class="edge"><title>B&#45;&gt;A XOR B</title>
<path fill="none" stroke="red" stroke-width="0.224751" d="M110.5,-281.866C110.5,-252.144 110.5,-147.416 110.5,-85.4414"/>
<polygon fill="red" stroke="red" stroke-width="0.224751" points="114,-85.1374 110.5,-75.1374 107,-85.1374 114,-85.1374"/>
</g>
<!-- B&#45;&gt;1112 -->
<g id="edge3" class="edge"><title>B&#45;&gt;1112</title>
<path fill="none" stroke="green" stroke-width="0.436644" d="M107.65,-281.709C100.418,-260.797 81.0425,-204.774 68.6012,-168.801"/>
<polygon fill="green" stroke="green" stroke-width="0.436644" points="71.8682,-167.538 65.2919,-159.232 65.2527,-169.826 71.8682,-167.538"/>
</g>
<!-- 1236 -->
<g id="node6" class="node"><title>1236</title>
<ellipse fill="white" stroke="black" cx="163.5" cy="-221.2" rx="25" ry="25"/>
<text text-anchor="middle" x="163.5" y="-219" font-family="Times New Roman,serif" font-size="9.00">1236</text>
</g>
<!-- B&#45;&gt;1236 -->
<g id="edge4" class="edge"><title>B&#45;&gt;1236</title>
<path fill="none" stroke="red" stroke-width="0.333931" d="M116.788,-281.911C123.115,-273.823 133.227,-260.897 142.427,-249.136"/>
<polygon fill="red" stroke="red" stroke-width="0.333931" points="145.188,-251.287 148.593,-241.254 139.675,-246.974 145.188,-251.287"/>
</g>
<!-- 1625 -->
<g id="node4" class="node"><title>1625</title>
<ellipse fill="white" stroke="black" cx="201.5" cy="-135.702" rx="25" ry="25"/>
<text text-anchor="middle" x="201.5" y="-133.502" font-family="Times New Roman,serif" font-size="9.00">1625</text>
</g>
<!-- 1625&#45;&gt;A XOR B -->
<g id="edge9" class="edge"><title>1625&#45;&gt;A XOR B</title>
<path fill="none" stroke="red" stroke-width="1.2739" d="M184.809,-117.053C173.187,-104.763 157.303,-87.9677 143.205,-73.0592"/>
<polygon fill="red" stroke="red" stroke-width="1.2739" points="145.44,-70.3295 136.026,-65.4688 140.354,-75.1393 145.44,-70.3295"/>
</g>
<!-- 1112&#45;&gt;A XOR B -->
<g id="edge2" class="edge"><title>1112&#45;&gt;A XOR B</title>
<path fill="none" stroke="green" stroke-width="0.984266" d="M69.2624,-113.347C74.7008,-103.473 81.3534,-91.3944 87.7147,-79.8451"/>
<polygon fill="green" stroke="green" stroke-width="0.984266" points="90.9663,-81.1962 92.7251,-70.7483 84.8348,-77.819 90.9663,-81.1962"/>
</g>
<!-- 1236&#45;&gt;A XOR B -->
<g id="edge5" class="edge"><title>1236&#45;&gt;A XOR B</title>
<path fill="none" stroke="red" stroke-width="1.48163" stroke-dasharray="1,5" d="M156.788,-197.184C148.487,-168.725 134.17,-119.634 123.651,-83.5667"/>
<polygon fill="red" stroke="red" stroke-width="1.48163" points="126.953,-82.3873 120.793,-73.7672 120.233,-84.3472 126.953,-82.3873"/>
</g>
<!-- 1236&#45;&gt;1625 -->
<g id="edge8" class="edge"><title>1236&#45;&gt;1625</title>
<path fill="none" stroke="green" stroke-width="0.353684" d="M173.484,-198.262C177.717,-188.961 182.727,-177.953 187.331,-167.836"/>
<polygon fill="green" stroke="green" stroke-width="0.353684" points="190.626,-169.045 191.583,-158.494 184.255,-166.145 190.626,-169.045"/>
</g>
</g>
</svg>
