<?xml version="1.0" encoding="UTF-8" standalone="no"?>
<!DOCTYPE svg PUBLIC "-//W3C//DTD SVG 1.1//EN"
 "http://www.w3.org/Graphics/SVG/1.1/DTD/svg11.dtd">
<!-- Generated by graphviz version 2.38.0 (20140413.2041)
 -->
<!-- Title: %3 Pages: 1 -->
<svg width="120pt" height="294pt"
 viewBox="0.00 0.00 119.77 293.81" xmlns="http://www.w3.org/2000/svg" xmlns:xlink="http://www.w3.org/1999/xlink">
<g id="graph0" class="graph" transform="scale(1 1) rotate(0) translate(4 289.806)">
<title>%3</title>
<polygon fill="white" stroke="none" points="-4,4 -4,-289.806 115.774,-289.806 115.774,4 -4,4"/>
<!-- A -->
<g id="node1" class="node"><title>A</title>
<polygon fill="lightgray" stroke="black" points="37.9767,-285.806 14.9767,-285.806 14.9767,-267.806 37.9767,-267.806 37.9767,-285.806"/>
<text text-anchor="middle" x="26.4767" y="-274.606" font-family="Times New Roman,serif" font-size="9.00">A</text>
</g>
<!-- A XOR B -->
<g id="node3" class="node"><title>A XOR B</title>
<ellipse fill="lightblue" stroke="black" cx="37.4767" cy="-37.4767" rx="37.4533" ry="37.4533"/>
<text text-anchor="middle" x="37.4767" y="-35.2767" font-family="Times New Roman,serif" font-size="9.00">A XOR B</text>
</g>
<!-- A&#45;&gt;A XOR B -->
<g id="edge1" class="edge"><title>A&#45;&gt;A XOR B</title>
<path fill="none" stroke="red" stroke-width="0.37109" stroke-dasharray="1,5" d="M23.7142,-267.499C16.0229,-243.21 -4.31912,-170.293 7.47666,-110.953 9.48791,-100.836 12.9356,-90.3597 16.7935,-80.6236"/>
<polygon fill="red" stroke="red" stroke-width="0.37109" points="20.1161,-81.7505 20.7502,-71.1746 13.6593,-79.0467 20.1161,-81.7505"/>
</g>
<!-- 810 -->
<g id="node4" class="node"><title>810</title>
<ellipse fill="white" stroke="black" cx="37.4767" cy="-132.167" rx="21.4286" ry="21.4286"/>
<text text-anchor="middle" x="37.4767" y="-129.967" font-family="Times New Roman,serif" font-size="9.00">810</text>
</g>
<!-- A&#45;&gt;810 -->
<g id="edge5" class="edge"><title>A&#45;&gt;810</title>
<path fill="none" stroke="green" stroke-width="0.164288" d="M27.0996,-267.729C28.617,-248.052 32.5679,-196.819 35.1334,-163.552"/>
<polygon fill="green" stroke="green" stroke-width="0.164288" points="38.6335,-163.684 35.9129,-153.445 31.6542,-163.146 38.6335,-163.684"/>
</g>
<!-- 630 -->
<g id="node5" class="node"><title>630</title>
<ellipse fill="white" stroke="black" cx="75.4767" cy="-210.593" rx="21.4286" ry="21.4286"/>
<text text-anchor="middle" x="75.4767" y="-208.393" font-family="Times New Roman,serif" font-size="9.00">630</text>
</g>
<!-- A&#45;&gt;630 -->
<g id="edge4" class="edge"><title>A&#45;&gt;630</title>
<path fill="none" stroke="red" stroke-width="0.888118" d="M32.6825,-267.673C38.7158,-259.767 48.1879,-247.354 56.6885,-236.214"/>
<polygon fill="red" stroke="red" stroke-width="0.888118" points="59.6426,-238.113 62.9265,-228.04 54.0777,-233.866 59.6426,-238.113"/>
</g>
<!-- B -->
<g id="node2" class="node"><title>B</title>
<polygon fill="lightgray" stroke="black" points="110.977,-285.806 87.9767,-285.806 87.9767,-267.806 110.977,-267.806 110.977,-285.806"/>
<text text-anchor="middle" x="99.4767" y="-274.606" font-family="Times New Roman,serif" font-size="9.00">B</text>
</g>
<!-- B&#45;&gt;810 -->
<g id="edge8" class="edge"><title>B&#45;&gt;810</title>
<path fill="none" stroke="red" stroke-width="0.183749" d="M102.549,-267.699C108.051,-251.8 117.905,-215.779 105.477,-189.38 97.1022,-171.591 80.0301,-157.509 65.0879,-147.888"/>
<polygon fill="red" stroke="red" stroke-width="0.183749" points="66.5234,-144.666 56.1562,-142.481 62.8983,-150.654 66.5234,-144.666"/>
</g>
<!-- B&#45;&gt;630 -->
<g id="edge2" class="edge"><title>B&#45;&gt;630</title>
<path fill="none" stroke="green" stroke-width="0.55791" d="M96.437,-267.673C93.818,-260.666 89.8759,-250.119 86.1146,-240.055"/>
<polygon fill="green" stroke="green" stroke-width="0.55791" points="89.3925,-238.828 82.613,-230.687 82.8356,-241.279 89.3925,-238.828"/>
</g>
<!-- 810&#45;&gt;A XOR B -->
<g id="edge6" class="edge"><title>810&#45;&gt;A XOR B</title>
<path fill="none" stroke="green" stroke-width="0.923677" d="M37.4767,-110.596C37.4767,-103 37.4767,-94.0512 37.4767,-85.0886"/>
<polygon fill="green" stroke="green" stroke-width="0.923677" points="40.9768,-85.0353 37.4767,-75.0353 33.9768,-85.0353 40.9768,-85.0353"/>
</g>
<!-- 630&#45;&gt;A XOR B -->
<g id="edge3" class="edge"><title>630&#45;&gt;A XOR B</title>
<path fill="none" stroke="green" stroke-width="1.66108" d="M75.6604,-189.278C75.417,-169.129 73.8824,-137.51 67.4767,-110.953 65.0578,-100.925 61.4437,-90.486 57.5535,-80.7569"/>
<polygon fill="green" stroke="green" stroke-width="1.66108" points="60.6897,-79.1841 53.6054,-71.3061 54.2306,-81.8824 60.6897,-79.1841"/>
</g>
<!-- 630&#45;&gt;810 -->
<g id="edge7" class="edge"><title>630&#45;&gt;810</title>
<path fill="none" stroke="green" stroke-width="0.268995" d="M66.2779,-191.092C61.7503,-181.986 56.2002,-170.824 51.1847,-160.736"/>
<polygon fill="green" stroke="green" stroke-width="0.268995" points="54.1769,-158.893 46.5907,-151.497 47.9089,-162.009 54.1769,-158.893"/>
</g>
</g>
</svg>
