<?xml version="1.0" encoding="UTF-8" standalone="no"?>
<!DOCTYPE svg PUBLIC "-//W3C//DTD SVG 1.1//EN"
 "http://www.w3.org/Graphics/SVG/1.1/DTD/svg11.dtd">
<!-- Generated by graphviz version 2.38.0 (20140413.2041)
 -->
<!-- Title: %3 Pages: 1 -->
<svg width="302pt" height="292pt"
 viewBox="0.00 0.00 302.25 292.39" xmlns="http://www.w3.org/2000/svg" xmlns:xlink="http://www.w3.org/1999/xlink">
<g id="graph0" class="graph" transform="scale(1 1) rotate(0) translate(4 288.392)">
<title>%3</title>
<polygon fill="white" stroke="none" points="-4,4 -4,-288.392 298.249,-288.392 298.249,4 -4,4"/>
<!-- x -->
<g id="node1" class="node"><title>x</title>
<polygon fill="lightgray" stroke="black" points="87.7487,-284.392 67.7487,-284.392 67.7487,-266.392 87.7487,-266.392 87.7487,-284.392"/>
<text text-anchor="middle" x="77.7487" y="-273.192" font-family="Times New Roman,serif" font-size="9.00">x</text>
</g>
<!-- 1505 -->
<g id="node6" class="node"><title>1505</title>
<ellipse fill="white" stroke="black" cx="24.7487" cy="-205.643" rx="25" ry="25"/>
<text text-anchor="middle" x="24.7487" y="-203.443" font-family="Times New Roman,serif" font-size="9.00">1505</text>
</g>
<!-- x&#45;&gt;1505 -->
<g id="edge7" class="edge"><title>x&#45;&gt;1505</title>
<path fill="none" stroke="green" stroke-width="0.270056" d="M71.4608,-266.354C65.1336,-258.266 55.0216,-245.34 45.8214,-233.58"/>
<polygon fill="green" stroke="green" stroke-width="0.270056" points="48.5738,-231.418 39.6554,-225.698 43.0604,-235.731 48.5738,-231.418"/>
</g>
<!-- 1395 -->
<g id="node7" class="node"><title>1395</title>
<ellipse fill="white" stroke="black" cx="77.7487" cy="-120.146" rx="25" ry="25"/>
<text text-anchor="middle" x="77.7487" y="-117.946" font-family="Times New Roman,serif" font-size="9.00">1395</text>
</g>
<!-- x&#45;&gt;1395 -->
<g id="edge5" class="edge"><title>x&#45;&gt;1395</title>
<path fill="none" stroke="green" stroke-width="0.366191" d="M77.7487,-266.153C77.7487,-245.613 77.7487,-191.201 77.7487,-155.184"/>
<polygon fill="green" stroke="green" stroke-width="0.366191" points="81.2488,-155.106 77.7487,-145.106 74.2488,-155.106 81.2488,-155.106"/>
</g>
<!-- 1013 -->
<g id="node8" class="node"><title>1013</title>
<ellipse fill="white" stroke="black" cx="130.749" cy="-205.643" rx="25" ry="25"/>
<text text-anchor="middle" x="130.749" y="-203.443" font-family="Times New Roman,serif" font-size="9.00">1013</text>
</g>
<!-- x&#45;&gt;1013 -->
<g id="edge3" class="edge"><title>x&#45;&gt;1013</title>
<path fill="none" stroke="red" stroke-width="0.398785" d="M84.0367,-266.354C90.3639,-258.266 100.476,-245.34 109.676,-233.58"/>
<polygon fill="red" stroke="red" stroke-width="0.398785" points="112.437,-235.731 115.842,-225.698 106.924,-231.418 112.437,-235.731"/>
</g>
<!-- dx -->
<g id="node2" class="node"><title>dx</title>
<polygon fill="lightgray" stroke="black" points="184.249,-129.146 159.249,-129.146 159.249,-111.146 184.249,-111.146 184.249,-129.146"/>
<text text-anchor="middle" x="171.749" y="-117.946" font-family="Times New Roman,serif" font-size="9.00">dx</text>
</g>
<!-- control -->
<g id="node5" class="node"><title>control</title>
<ellipse fill="lightblue" stroke="black" cx="171.749" cy="-29.6985" rx="29.8983" ry="29.8983"/>
<text text-anchor="middle" x="171.749" y="-27.4985" font-family="Times New Roman,serif" font-size="9.00">control</text>
</g>
<!-- dx&#45;&gt;control -->
<g id="edge9" class="edge"><title>dx&#45;&gt;control</title>
<path fill="none" stroke="green" stroke-width="0.304322" d="M171.749,-110.983C171.749,-101.441 171.749,-84.9687 171.749,-69.4183"/>
<polygon fill="green" stroke="green" stroke-width="0.304322" points="175.249,-69.4147 171.749,-59.4148 168.249,-69.4148 175.249,-69.4147"/>
</g>
<!-- theta -->
<g id="node3" class="node"><title>theta</title>
<polygon fill="lightgray" stroke="black" points="237.249,-129.146 202.249,-129.146 202.249,-111.146 237.249,-111.146 237.249,-129.146"/>
<text text-anchor="middle" x="219.749" y="-117.946" font-family="Times New Roman,serif" font-size="9.00">theta</text>
</g>
<!-- theta&#45;&gt;control -->
<g id="edge1" class="edge"><title>theta&#45;&gt;control</title>
<path fill="none" stroke="green" stroke-width="0.503219" d="M215.319,-110.983C209.679,-100.591 199.579,-81.9791 190.522,-65.2903"/>
<polygon fill="green" stroke="green" stroke-width="0.503219" points="193.478,-63.4008 185.632,-56.2811 187.326,-66.7397 193.478,-63.4008"/>
</g>
<!-- dtheta -->
<g id="node4" class="node"><title>dtheta</title>
<polygon fill="lightgray" stroke="black" points="294.249,-129.146 255.249,-129.146 255.249,-111.146 294.249,-111.146 294.249,-129.146"/>
<text text-anchor="middle" x="274.749" y="-117.946" font-family="Times New Roman,serif" font-size="9.00">dtheta</text>
</g>
<!-- dtheta&#45;&gt;control -->
<g id="edge2" class="edge"><title>dtheta&#45;&gt;control</title>
<path fill="none" stroke="green" stroke-width="0.628236" d="M265.243,-110.983C250.872,-98.6429 223.002,-74.7106 201.414,-56.1726"/>
<polygon fill="green" stroke="green" stroke-width="0.628236" points="203.649,-53.4778 193.782,-49.6184 199.088,-58.7885 203.649,-53.4778"/>
</g>
<!-- 1505&#45;&gt;1395 -->
<g id="edge8" class="edge"><title>1505&#45;&gt;1395</title>
<path fill="none" stroke="red" stroke-width="0.396144" d="M37.5786,-184.431C44.1054,-174.148 52.1558,-161.465 59.3317,-150.16"/>
<polygon fill="red" stroke="red" stroke-width="0.396144" points="62.4492,-151.78 64.8534,-141.461 56.5393,-148.028 62.4492,-151.78"/>
</g>
<!-- 1395&#45;&gt;control -->
<g id="edge6" class="edge"><title>1395&#45;&gt;control</title>
<path fill="none" stroke="red" stroke-width="0.368288" d="M95.4294,-102.509C108.866,-89.8663 127.627,-72.2143 143.184,-57.5757"/>
<polygon fill="red" stroke="red" stroke-width="0.368288" points="145.642,-60.0684 150.527,-50.6667 140.846,-54.9704 145.642,-60.0684"/>
</g>
<!-- 1013&#45;&gt;control -->
<g id="edge4" class="edge"><title>1013&#45;&gt;control</title>
<path fill="none" stroke="red" stroke-width="0.2362" d="M134.147,-181.007C137.566,-158.748 143.381,-124.56 150.749,-95.397 153.064,-86.232 155.985,-76.4729 158.906,-67.3872"/>
<polygon fill="red" stroke="red" stroke-width="0.2362" points="162.242,-68.4457 162.047,-57.8526 155.594,-66.2553 162.242,-68.4457"/>
</g>
</g>
</svg>
