<?xml version="1.0" encoding="utf-8" standalone="no"?>
<!DOCTYPE svg PUBLIC "-//W3C//DTD SVG 1.1//EN"
  "http://www.w3.org/Graphics/SVG/1.1/DTD/svg11.dtd">
<!-- Created with matplotlib (https://matplotlib.org/) -->
<svg height="345.6pt" version="1.1" viewBox="0 0 460.8 345.6" width="460.8pt" xmlns="http://www.w3.org/2000/svg" xmlns:xlink="http://www.w3.org/1999/xlink">
 <defs>
  <style type="text/css">
*{stroke-linecap:butt;stroke-linejoin:round;}
  </style>
 </defs>
 <g id="figure_1">
  <g id="patch_1">
   <path d="M 0 345.6 
L 460.8 345.6 
L 460.8 0 
L 0 0 
z
" style="fill:#ffffff;"/>
  </g>
  <g id="axes_1">
   <g id="patch_2">
    <path d="M 57.6 307.584 
L 414.72 307.584 
L 414.72 41.472 
L 57.6 41.472 
z
" style="fill:#ffffff;"/>
   </g>
   <g id="PolyCollection_1">
    <path clip-path="url(#p0b63cb825a)" d="M 73.832727 197.82652 
L 73.832727 307.584 
L 83.108571 307.584 
L 92.384416 307.584 
L 101.66026 307.584 
L 110.936104 307.584 
L 120.211948 307.584 
L 129.487792 307.584 
L 138.763636 307.584 
L 148.039481 307.584 
L 157.315325 307.584 
L 166.591169 307.584 
L 175.867013 307.584 
L 185.142857 307.584 
L 194.418701 307.584 
L 203.694545 307.584 
L 212.97039 307.584 
L 222.246234 307.584 
L 231.522078 307.584 
L 240.797922 307.584 
L 250.073766 307.584 
L 259.34961 307.584 
L 268.625455 307.584 
L 277.901299 307.584 
L 287.177143 307.584 
L 296.452987 307.584 
L 305.728831 307.584 
L 315.004675 307.584 
L 324.280519 307.584 
L 333.556364 307.584 
L 342.832208 307.584 
L 352.108052 307.584 
L 361.383896 307.584 
L 370.65974 307.584 
L 379.935584 307.584 
L 389.211429 307.584 
L 398.487273 307.584 
L 398.487273 300.599433 
L 398.487273 300.599433 
L 389.211429 296.608252 
L 379.935584 278.647937 
L 370.65974 257.694236 
L 361.383896 278.647937 
L 352.108052 288.62589 
L 342.832208 286.630299 
L 333.556364 301.597228 
L 324.280519 300.599433 
L 315.004675 301.597228 
L 305.728831 289.623685 
L 296.452987 292.617071 
L 287.177143 291.619276 
L 277.901299 291.619276 
L 268.625455 291.619276 
L 259.34961 296.608252 
L 250.073766 298.603843 
L 240.797922 292.617071 
L 231.522078 251.707465 
L 222.246234 278.647937 
L 212.97039 268.669984 
L 203.694545 263.681008 
L 194.418701 299.601638 
L 185.142857 298.603843 
L 175.867013 292.617071 
L 166.591169 290.62148 
L 157.315325 292.617071 
L 148.039481 290.62148 
L 138.763636 292.617071 
L 129.487792 287.628094 
L 120.211948 287.628094 
L 110.936104 293.614866 
L 101.66026 298.603843 
L 92.384416 296.608252 
L 83.108571 303.592819 
L 73.832727 197.82652 
z
" style="fill:#1f77b4;"/>
   </g>
   <g id="PolyCollection_2">
    <path clip-path="url(#p0b63cb825a)" d="M 73.832727 176.872819 
L 73.832727 197.82652 
L 83.108571 303.592819 
L 92.384416 296.608252 
L 101.66026 298.603843 
L 110.936104 293.614866 
L 120.211948 287.628094 
L 129.487792 287.628094 
L 138.763636 292.617071 
L 148.039481 290.62148 
L 157.315325 292.617071 
L 166.591169 290.62148 
L 175.867013 292.617071 
L 185.142857 298.603843 
L 194.418701 299.601638 
L 203.694545 263.681008 
L 212.97039 268.669984 
L 222.246234 278.647937 
L 231.522078 251.707465 
L 240.797922 292.617071 
L 250.073766 298.603843 
L 259.34961 296.608252 
L 268.625455 291.619276 
L 277.901299 291.619276 
L 287.177143 291.619276 
L 296.452987 292.617071 
L 305.728831 289.623685 
L 315.004675 301.597228 
L 324.280519 300.599433 
L 333.556364 301.597228 
L 342.832208 286.630299 
L 352.108052 288.62589 
L 361.383896 278.647937 
L 370.65974 257.694236 
L 379.935584 278.647937 
L 389.211429 296.608252 
L 398.487273 300.599433 
L 398.487273 281.641323 
L 398.487273 281.641323 
L 389.211429 283.636913 
L 379.935584 265.676598 
L 370.65974 243.725102 
L 361.383896 265.676598 
L 352.108052 276.652346 
L 342.832208 272.661165 
L 333.556364 291.619276 
L 324.280519 293.614866 
L 315.004675 295.610457 
L 305.728831 283.636913 
L 296.452987 286.630299 
L 287.177143 280.643528 
L 277.901299 278.647937 
L 268.625455 278.647937 
L 259.34961 281.641323 
L 250.073766 281.641323 
L 240.797922 280.643528 
L 231.522078 239.733921 
L 222.246234 266.674394 
L 212.97039 257.694236 
L 203.694545 246.718488 
L 194.418701 273.658961 
L 185.142857 283.636913 
L 175.867013 275.654551 
L 166.591169 272.661165 
L 157.315325 278.647937 
L 148.039481 277.650142 
L 138.763636 288.62589 
L 129.487792 256.696441 
L 120.211948 254.70085 
L 110.936104 272.661165 
L 101.66026 249.711874 
L 92.384416 268.669984 
L 83.108571 267.672189 
L 73.832727 176.872819 
z
" style="fill:#ff7f0e;"/>
   </g>
   <g id="PolyCollection_3">
    <path clip-path="url(#p0b63cb825a)" d="M 73.832727 134.965417 
L 73.832727 176.872819 
L 83.108571 267.672189 
L 92.384416 268.669984 
L 101.66026 249.711874 
L 110.936104 272.661165 
L 120.211948 254.70085 
L 129.487792 256.696441 
L 138.763636 288.62589 
L 148.039481 277.650142 
L 157.315325 278.647937 
L 166.591169 272.661165 
L 175.867013 275.654551 
L 185.142857 283.636913 
L 194.418701 273.658961 
L 203.694545 246.718488 
L 212.97039 257.694236 
L 222.246234 266.674394 
L 231.522078 239.733921 
L 240.797922 280.643528 
L 250.073766 281.641323 
L 259.34961 281.641323 
L 268.625455 278.647937 
L 277.901299 278.647937 
L 287.177143 280.643528 
L 296.452987 286.630299 
L 305.728831 283.636913 
L 315.004675 295.610457 
L 324.280519 293.614866 
L 333.556364 291.619276 
L 342.832208 272.661165 
L 352.108052 276.652346 
L 361.383896 265.676598 
L 370.65974 243.725102 
L 379.935584 265.676598 
L 389.211429 283.636913 
L 398.487273 281.641323 
L 398.487273 281.641323 
L 398.487273 281.641323 
L 389.211429 283.636913 
L 379.935584 265.676598 
L 370.65974 243.725102 
L 361.383896 265.676598 
L 352.108052 276.652346 
L 342.832208 259.689827 
L 333.556364 283.636913 
L 324.280519 277.650142 
L 315.004675 285.632504 
L 305.728831 279.645732 
L 296.452987 271.66337 
L 287.177143 269.66778 
L 277.901299 270.665575 
L 268.625455 269.66778 
L 259.34961 265.676598 
L 250.073766 266.674394 
L 240.797922 261.685417 
L 231.522078 231.751559 
L 222.246234 260.687622 
L 212.97039 244.722898 
L 203.694545 239.733921 
L 194.418701 258.692031 
L 185.142857 250.709669 
L 175.867013 251.707465 
L 166.591169 234.744945 
L 157.315325 246.718488 
L 148.039481 243.725102 
L 138.763636 283.636913 
L 129.487792 241.729512 
L 120.211948 236.740535 
L 110.936104 261.685417 
L 101.66026 238.736126 
L 92.384416 236.740535 
L 83.108571 233.74715 
L 73.832727 134.965417 
z
" style="fill:#2ca02c;"/>
   </g>
   <g id="PolyCollection_4">
    <path clip-path="url(#p0b63cb825a)" d="M 73.832727 133.967622 
L 73.832727 134.965417 
L 83.108571 233.74715 
L 92.384416 236.740535 
L 101.66026 238.736126 
L 110.936104 261.685417 
L 120.211948 236.740535 
L 129.487792 241.729512 
L 138.763636 283.636913 
L 148.039481 243.725102 
L 157.315325 246.718488 
L 166.591169 234.744945 
L 175.867013 251.707465 
L 185.142857 250.709669 
L 194.418701 258.692031 
L 203.694545 239.733921 
L 212.97039 244.722898 
L 222.246234 260.687622 
L 231.522078 231.751559 
L 240.797922 261.685417 
L 250.073766 266.674394 
L 259.34961 265.676598 
L 268.625455 269.66778 
L 277.901299 270.665575 
L 287.177143 269.66778 
L 296.452987 271.66337 
L 305.728831 279.645732 
L 315.004675 285.632504 
L 324.280519 277.650142 
L 333.556364 283.636913 
L 342.832208 259.689827 
L 352.108052 276.652346 
L 361.383896 265.676598 
L 370.65974 243.725102 
L 379.935584 265.676598 
L 389.211429 283.636913 
L 398.487273 281.641323 
L 398.487273 281.641323 
L 398.487273 281.641323 
L 389.211429 283.636913 
L 379.935584 265.676598 
L 370.65974 243.725102 
L 361.383896 265.676598 
L 352.108052 276.652346 
L 342.832208 259.689827 
L 333.556364 283.636913 
L 324.280519 277.650142 
L 315.004675 285.632504 
L 305.728831 279.645732 
L 296.452987 271.66337 
L 287.177143 267.672189 
L 277.901299 267.672189 
L 268.625455 267.672189 
L 259.34961 263.681008 
L 250.073766 263.681008 
L 240.797922 259.689827 
L 231.522078 229.755969 
L 222.246234 258.692031 
L 212.97039 241.729512 
L 203.694545 237.738331 
L 194.418701 256.696441 
L 185.142857 248.714079 
L 175.867013 248.714079 
L 166.591169 231.751559 
L 157.315325 244.722898 
L 148.039481 240.731717 
L 138.763636 278.647937 
L 129.487792 236.740535 
L 120.211948 230.753764 
L 110.936104 254.70085 
L 101.66026 233.74715 
L 92.384416 230.753764 
L 83.108571 231.751559 
L 73.832727 133.967622 
z
" style="fill:#d62728;"/>
   </g>
   <g id="PolyCollection_5">
    <path clip-path="url(#p0b63cb825a)" d="M 73.832727 129.976441 
L 73.832727 133.967622 
L 83.108571 231.751559 
L 92.384416 230.753764 
L 101.66026 233.74715 
L 110.936104 254.70085 
L 120.211948 230.753764 
L 129.487792 236.740535 
L 138.763636 278.647937 
L 148.039481 240.731717 
L 157.315325 244.722898 
L 166.591169 231.751559 
L 175.867013 248.714079 
L 185.142857 248.714079 
L 194.418701 256.696441 
L 203.694545 237.738331 
L 212.97039 241.729512 
L 222.246234 258.692031 
L 231.522078 229.755969 
L 240.797922 259.689827 
L 250.073766 263.681008 
L 259.34961 263.681008 
L 268.625455 267.672189 
L 277.901299 267.672189 
L 287.177143 267.672189 
L 296.452987 271.66337 
L 305.728831 279.645732 
L 315.004675 285.632504 
L 324.280519 277.650142 
L 333.556364 283.636913 
L 342.832208 259.689827 
L 352.108052 276.652346 
L 361.383896 265.676598 
L 370.65974 243.725102 
L 379.935584 265.676598 
L 389.211429 283.636913 
L 398.487273 281.641323 
L 398.487273 265.676598 
L 398.487273 265.676598 
L 389.211429 279.645732 
L 379.935584 254.70085 
L 370.65974 230.753764 
L 361.383896 256.696441 
L 352.108052 267.672189 
L 342.832208 234.744945 
L 333.556364 230.753764 
L 324.280519 253.703055 
L 315.004675 257.694236 
L 305.728831 257.694236 
L 296.452987 237.738331 
L 287.177143 243.725102 
L 277.901299 249.711874 
L 268.625455 253.703055 
L 259.34961 246.718488 
L 250.073766 249.711874 
L 240.797922 244.722898 
L 231.522078 216.78463 
L 222.246234 234.744945 
L 212.97039 219.778016 
L 203.694545 200.819906 
L 194.418701 250.709669 
L 185.142857 239.733921 
L 175.867013 241.729512 
L 166.591169 215.786835 
L 157.315325 221.773606 
L 148.039481 228.758173 
L 138.763636 275.654551 
L 129.487792 221.773606 
L 120.211948 226.762583 
L 110.936104 249.711874 
L 101.66026 231.751559 
L 92.384416 226.762583 
L 83.108571 229.755969 
L 73.832727 129.976441 
z
" style="fill:#9467bd;"/>
   </g>
   <g id="PolyCollection_6">
    <path clip-path="url(#p0b63cb825a)" d="M 73.832727 124.987465 
L 73.832727 129.976441 
L 83.108571 229.755969 
L 92.384416 226.762583 
L 101.66026 231.751559 
L 110.936104 249.711874 
L 120.211948 226.762583 
L 129.487792 221.773606 
L 138.763636 275.654551 
L 148.039481 228.758173 
L 157.315325 221.773606 
L 166.591169 215.786835 
L 175.867013 241.729512 
L 185.142857 239.733921 
L 194.418701 250.709669 
L 203.694545 200.819906 
L 212.97039 219.778016 
L 222.246234 234.744945 
L 231.522078 216.78463 
L 240.797922 244.722898 
L 250.073766 249.711874 
L 259.34961 246.718488 
L 268.625455 253.703055 
L 277.901299 249.711874 
L 287.177143 243.725102 
L 296.452987 237.738331 
L 305.728831 257.694236 
L 315.004675 257.694236 
L 324.280519 253.703055 
L 333.556364 230.753764 
L 342.832208 234.744945 
L 352.108052 267.672189 
L 361.383896 256.696441 
L 370.65974 230.753764 
L 379.935584 254.70085 
L 389.211429 279.645732 
L 398.487273 265.676598 
L 398.487273 255.698646 
L 398.487273 255.698646 
L 389.211429 270.665575 
L 379.935584 242.727307 
L 370.65974 215.786835 
L 361.383896 243.725102 
L 352.108052 253.703055 
L 342.832208 223.769197 
L 333.556364 218.78022 
L 324.280519 243.725102 
L 315.004675 247.716283 
L 305.728831 248.714079 
L 296.452987 226.762583 
L 287.177143 233.74715 
L 277.901299 240.731717 
L 268.625455 243.725102 
L 259.34961 236.740535 
L 250.073766 240.731717 
L 240.797922 232.749354 
L 231.522078 209.800063 
L 222.246234 227.760378 
L 212.97039 210.797858 
L 203.694545 190.841953 
L 194.418701 235.74274 
L 185.142857 228.758173 
L 175.867013 227.760378 
L 166.591169 197.82652 
L 157.315325 212.793449 
L 148.039481 222.771402 
L 138.763636 268.669984 
L 129.487792 212.793449 
L 120.211948 219.778016 
L 110.936104 238.736126 
L 101.66026 218.78022 
L 92.384416 218.78022 
L 83.108571 225.764787 
L 73.832727 124.987465 
z
" style="fill:#8c564b;"/>
   </g>
   <g id="PolyCollection_7">
    <path clip-path="url(#p0b63cb825a)" d="M 73.832727 123.989669 
L 73.832727 124.987465 
L 83.108571 225.764787 
L 92.384416 218.78022 
L 101.66026 218.78022 
L 110.936104 238.736126 
L 120.211948 219.778016 
L 129.487792 212.793449 
L 138.763636 268.669984 
L 148.039481 222.771402 
L 157.315325 212.793449 
L 166.591169 197.82652 
L 175.867013 227.760378 
L 185.142857 228.758173 
L 194.418701 235.74274 
L 203.694545 190.841953 
L 212.97039 210.797858 
L 222.246234 227.760378 
L 231.522078 209.800063 
L 240.797922 232.749354 
L 250.073766 240.731717 
L 259.34961 236.740535 
L 268.625455 243.725102 
L 277.901299 240.731717 
L 287.177143 233.74715 
L 296.452987 226.762583 
L 305.728831 248.714079 
L 315.004675 247.716283 
L 324.280519 243.725102 
L 333.556364 218.78022 
L 342.832208 223.769197 
L 352.108052 253.703055 
L 361.383896 243.725102 
L 370.65974 215.786835 
L 379.935584 242.727307 
L 389.211429 270.665575 
L 398.487273 255.698646 
L 398.487273 255.698646 
L 398.487273 255.698646 
L 389.211429 270.665575 
L 379.935584 242.727307 
L 370.65974 215.786835 
L 361.383896 243.725102 
L 352.108052 253.703055 
L 342.832208 223.769197 
L 333.556364 218.78022 
L 324.280519 237.738331 
L 315.004675 223.769197 
L 305.728831 236.740535 
L 296.452987 217.782425 
L 287.177143 205.808882 
L 277.901299 217.782425 
L 268.625455 220.775811 
L 259.34961 206.806677 
L 250.073766 208.802268 
L 240.797922 224.766992 
L 231.522078 184.855181 
L 222.246234 210.797858 
L 212.97039 189.844157 
L 203.694545 174.877228 
L 194.418701 216.78463 
L 185.142857 213.791244 
L 175.867013 206.806677 
L 166.591169 177.870614 
L 157.315325 197.82652 
L 148.039481 194.833134 
L 138.763636 256.696441 
L 129.487792 202.815496 
L 120.211948 205.808882 
L 110.936104 228.758173 
L 101.66026 207.804472 
L 92.384416 208.802268 
L 83.108571 219.778016 
L 73.832727 123.989669 
z
" style="fill:#e377c2;"/>
   </g>
   <g id="PolyCollection_8">
    <path clip-path="url(#p0b63cb825a)" d="M 73.832727 88.069039 
L 73.832727 123.989669 
L 83.108571 219.778016 
L 92.384416 208.802268 
L 101.66026 207.804472 
L 110.936104 228.758173 
L 120.211948 205.808882 
L 129.487792 202.815496 
L 138.763636 256.696441 
L 148.039481 194.833134 
L 157.315325 197.82652 
L 166.591169 177.870614 
L 175.867013 206.806677 
L 185.142857 213.791244 
L 194.418701 216.78463 
L 203.694545 174.877228 
L 212.97039 189.844157 
L 222.246234 210.797858 
L 231.522078 184.855181 
L 240.797922 224.766992 
L 250.073766 208.802268 
L 259.34961 206.806677 
L 268.625455 220.775811 
L 277.901299 217.782425 
L 287.177143 205.808882 
L 296.452987 217.782425 
L 305.728831 236.740535 
L 315.004675 223.769197 
L 324.280519 237.738331 
L 333.556364 218.78022 
L 342.832208 223.769197 
L 352.108052 253.703055 
L 361.383896 243.725102 
L 370.65974 215.786835 
L 379.935584 242.727307 
L 389.211429 270.665575 
L 398.487273 255.698646 
L 398.487273 246.718488 
L 398.487273 246.718488 
L 389.211429 189.844157 
L 379.935584 197.82652 
L 370.65974 194.833134 
L 361.383896 218.78022 
L 352.108052 232.749354 
L 342.832208 201.817701 
L 333.556364 189.844157 
L 324.280519 224.766992 
L 315.004675 214.789039 
L 305.728831 224.766992 
L 296.452987 208.802268 
L 287.177143 189.844157 
L 277.901299 205.808882 
L 268.625455 201.817701 
L 259.34961 200.819906 
L 250.073766 200.819906 
L 240.797922 215.786835 
L 231.522078 171.883843 
L 222.246234 200.819906 
L 212.97039 177.870614 
L 203.694545 165.897071 
L 194.418701 204.811087 
L 185.142857 205.808882 
L 175.867013 193.835339 
L 166.591169 166.894866 
L 157.315325 187.848567 
L 148.039481 144.94337 
L 138.763636 233.74715 
L 129.487792 180.864 
L 120.211948 183.857386 
L 110.936104 193.835339 
L 101.66026 196.828724 
L 92.384416 197.82652 
L 83.108571 195.830929 
L 73.832727 88.069039 
z
" style="fill:#7f7f7f;"/>
   </g>
   <g id="PolyCollection_9">
    <path clip-path="url(#p0b63cb825a)" d="M 73.832727 85.075654 
L 73.832727 88.069039 
L 83.108571 195.830929 
L 92.384416 197.82652 
L 101.66026 196.828724 
L 110.936104 193.835339 
L 120.211948 183.857386 
L 129.487792 180.864 
L 138.763636 233.74715 
L 148.039481 144.94337 
L 157.315325 187.848567 
L 166.591169 166.894866 
L 175.867013 193.835339 
L 185.142857 205.808882 
L 194.418701 204.811087 
L 203.694545 165.897071 
L 212.97039 177.870614 
L 222.246234 200.819906 
L 231.522078 171.883843 
L 240.797922 215.786835 
L 250.073766 200.819906 
L 259.34961 200.819906 
L 268.625455 201.817701 
L 277.901299 205.808882 
L 287.177143 189.844157 
L 296.452987 208.802268 
L 305.728831 224.766992 
L 315.004675 214.789039 
L 324.280519 224.766992 
L 333.556364 189.844157 
L 342.832208 201.817701 
L 352.108052 232.749354 
L 361.383896 218.78022 
L 370.65974 194.833134 
L 379.935584 197.82652 
L 389.211429 189.844157 
L 398.487273 246.718488 
L 398.487273 234.744945 
L 398.487273 234.744945 
L 389.211429 183.857386 
L 379.935584 189.844157 
L 370.65974 182.859591 
L 361.383896 213.791244 
L 352.108052 215.786835 
L 342.832208 188.846362 
L 333.556364 178.868409 
L 324.280519 201.817701 
L 315.004675 205.808882 
L 305.728831 197.82652 
L 296.452987 180.864 
L 287.177143 178.868409 
L 277.901299 185.852976 
L 268.625455 182.859591 
L 259.34961 180.864 
L 250.073766 183.857386 
L 240.797922 194.833134 
L 231.522078 153.923528 
L 222.246234 182.859591 
L 212.97039 168.890457 
L 203.694545 161.90589 
L 194.418701 171.883843 
L 185.142857 199.82211 
L 175.867013 174.877228 
L 166.591169 160.908094 
L 157.315325 184.855181 
L 148.039481 141.949984 
L 138.763636 231.751559 
L 129.487792 177.870614 
L 120.211948 179.866205 
L 110.936104 187.848567 
L 101.66026 191.839748 
L 92.384416 193.835339 
L 83.108571 192.837543 
L 73.832727 85.075654 
z
" style="fill:#bcbd22;"/>
   </g>
   <g id="PolyCollection_10">
    <path clip-path="url(#p0b63cb825a)" d="M 73.832727 82.082268 
L 73.832727 85.075654 
L 83.108571 192.837543 
L 92.384416 193.835339 
L 101.66026 191.839748 
L 110.936104 187.848567 
L 120.211948 179.866205 
L 129.487792 177.870614 
L 138.763636 231.751559 
L 148.039481 141.949984 
L 157.315325 184.855181 
L 166.591169 160.908094 
L 175.867013 174.877228 
L 185.142857 199.82211 
L 194.418701 171.883843 
L 203.694545 161.90589 
L 212.97039 168.890457 
L 222.246234 182.859591 
L 231.522078 153.923528 
L 240.797922 194.833134 
L 250.073766 183.857386 
L 259.34961 180.864 
L 268.625455 182.859591 
L 277.901299 185.852976 
L 287.177143 178.868409 
L 296.452987 180.864 
L 305.728831 197.82652 
L 315.004675 205.808882 
L 324.280519 201.817701 
L 333.556364 178.868409 
L 342.832208 188.846362 
L 352.108052 215.786835 
L 361.383896 213.791244 
L 370.65974 182.859591 
L 379.935584 189.844157 
L 389.211429 183.857386 
L 398.487273 234.744945 
L 398.487273 225.764787 
L 398.487273 225.764787 
L 389.211429 175.875024 
L 379.935584 169.888252 
L 370.65974 155.919118 
L 361.383896 199.82211 
L 352.108052 186.850772 
L 342.832208 173.879433 
L 333.556364 164.899276 
L 324.280519 185.852976 
L 315.004675 173.879433 
L 305.728831 173.879433 
L 296.452987 173.879433 
L 287.177143 173.879433 
L 277.901299 166.894866 
L 268.625455 170.886047 
L 259.34961 166.894866 
L 250.073766 174.877228 
L 240.797922 183.857386 
L 231.522078 148.934551 
L 222.246234 180.864 
L 212.97039 165.897071 
L 203.694545 158.912504 
L 194.418701 165.897071 
L 185.142857 195.830929 
L 175.867013 171.883843 
L 166.591169 156.916913 
L 157.315325 181.861795 
L 148.039481 138.956598 
L 138.763636 225.764787 
L 129.487792 170.886047 
L 120.211948 173.879433 
L 110.936104 180.864 
L 101.66026 183.857386 
L 92.384416 184.855181 
L 83.108571 185.852976 
L 73.832727 82.082268 
z
" style="fill:#17becf;"/>
   </g>
   <g id="PolyCollection_11">
    <path clip-path="url(#p0b63cb825a)" d="M 73.832727 81.084472 
L 73.832727 82.082268 
L 83.108571 185.852976 
L 92.384416 184.855181 
L 101.66026 183.857386 
L 110.936104 180.864 
L 120.211948 173.879433 
L 129.487792 170.886047 
L 138.763636 225.764787 
L 148.039481 138.956598 
L 157.315325 181.861795 
L 166.591169 156.916913 
L 175.867013 171.883843 
L 185.142857 195.830929 
L 194.418701 165.897071 
L 203.694545 158.912504 
L 212.97039 165.897071 
L 222.246234 180.864 
L 231.522078 148.934551 
L 240.797922 183.857386 
L 250.073766 174.877228 
L 259.34961 166.894866 
L 268.625455 170.886047 
L 277.901299 166.894866 
L 287.177143 173.879433 
L 296.452987 173.879433 
L 305.728831 173.879433 
L 315.004675 173.879433 
L 324.280519 185.852976 
L 333.556364 164.899276 
L 342.832208 173.879433 
L 352.108052 186.850772 
L 361.383896 199.82211 
L 370.65974 155.919118 
L 379.935584 169.888252 
L 389.211429 175.875024 
L 398.487273 225.764787 
L 398.487273 225.764787 
L 398.487273 225.764787 
L 389.211429 175.875024 
L 379.935584 169.888252 
L 370.65974 155.919118 
L 361.383896 183.857386 
L 352.108052 158.912504 
L 342.832208 164.899276 
L 333.556364 156.916913 
L 324.280519 166.894866 
L 315.004675 162.903685 
L 305.728831 158.912504 
L 296.452987 156.916913 
L 287.177143 155.919118 
L 277.901299 144.94337 
L 268.625455 154.921323 
L 259.34961 148.934551 
L 250.073766 164.899276 
L 240.797922 173.879433 
L 231.522078 141.949984 
L 222.246234 163.90148 
L 212.97039 149.932346 
L 203.694545 144.94337 
L 194.418701 154.921323 
L 185.142857 160.908094 
L 175.867013 161.90589 
L 166.591169 155.919118 
L 157.315325 177.870614 
L 148.039481 134.965417 
L 138.763636 222.771402 
L 129.487792 167.892661 
L 120.211948 169.888252 
L 110.936104 175.875024 
L 101.66026 179.866205 
L 92.384416 180.864 
L 83.108571 178.868409 
L 73.832727 81.084472 
z
" style="fill:#1f77b4;"/>
   </g>
   <g id="PolyCollection_12">
    <path clip-path="url(#p0b63cb825a)" d="M 73.832727 74.099906 
L 73.832727 81.084472 
L 83.108571 178.868409 
L 92.384416 180.864 
L 101.66026 179.866205 
L 110.936104 175.875024 
L 120.211948 169.888252 
L 129.487792 167.892661 
L 138.763636 222.771402 
L 148.039481 134.965417 
L 157.315325 177.870614 
L 166.591169 155.919118 
L 175.867013 161.90589 
L 185.142857 160.908094 
L 194.418701 154.921323 
L 203.694545 144.94337 
L 212.97039 149.932346 
L 222.246234 163.90148 
L 231.522078 141.949984 
L 240.797922 173.879433 
L 250.073766 164.899276 
L 259.34961 148.934551 
L 268.625455 154.921323 
L 277.901299 144.94337 
L 287.177143 155.919118 
L 296.452987 156.916913 
L 305.728831 158.912504 
L 315.004675 162.903685 
L 324.280519 166.894866 
L 333.556364 156.916913 
L 342.832208 164.899276 
L 352.108052 158.912504 
L 361.383896 183.857386 
L 370.65974 155.919118 
L 379.935584 169.888252 
L 389.211429 175.875024 
L 398.487273 225.764787 
L 398.487273 219.778016 
L 398.487273 219.778016 
L 389.211429 171.883843 
L 379.935584 157.914709 
L 370.65974 142.94778 
L 361.383896 178.868409 
L 352.108052 152.925732 
L 342.832208 148.934551 
L 333.556364 133.967622 
L 324.280519 143.945575 
L 315.004675 146.938961 
L 305.728831 148.934551 
L 296.452987 151.927937 
L 287.177143 147.936756 
L 277.901299 135.963213 
L 268.625455 147.936756 
L 259.34961 140.952189 
L 250.073766 150.930142 
L 240.797922 152.925732 
L 231.522078 119.998488 
L 222.246234 136.961008 
L 212.97039 135.963213 
L 203.694545 139.954394 
L 194.418701 138.956598 
L 185.142857 125.98526 
L 175.867013 146.938961 
L 166.591169 129.976441 
L 157.315325 134.965417 
L 148.039481 119.000693 
L 138.763636 198.824315 
L 129.487792 125.98526 
L 120.211948 113.013921 
L 110.936104 124.987465 
L 101.66026 119.998488 
L 92.384416 121.994079 
L 83.108571 115.009512 
L 73.832727 74.099906 
z
" style="fill:#ff7f0e;"/>
   </g>
   <g id="PolyCollection_13">
    <path clip-path="url(#p0b63cb825a)" d="M 73.832727 70.108724 
L 73.832727 74.099906 
L 83.108571 115.009512 
L 92.384416 121.994079 
L 101.66026 119.998488 
L 110.936104 124.987465 
L 120.211948 113.013921 
L 129.487792 125.98526 
L 138.763636 198.824315 
L 148.039481 119.000693 
L 157.315325 134.965417 
L 166.591169 129.976441 
L 175.867013 146.938961 
L 185.142857 125.98526 
L 194.418701 138.956598 
L 203.694545 139.954394 
L 212.97039 135.963213 
L 222.246234 136.961008 
L 231.522078 119.998488 
L 240.797922 152.925732 
L 250.073766 150.930142 
L 259.34961 140.952189 
L 268.625455 147.936756 
L 277.901299 135.963213 
L 287.177143 147.936756 
L 296.452987 151.927937 
L 305.728831 148.934551 
L 315.004675 146.938961 
L 324.280519 143.945575 
L 333.556364 133.967622 
L 342.832208 148.934551 
L 352.108052 152.925732 
L 361.383896 178.868409 
L 370.65974 142.94778 
L 379.935584 157.914709 
L 389.211429 171.883843 
L 398.487273 219.778016 
L 398.487273 219.778016 
L 398.487273 219.778016 
L 389.211429 171.883843 
L 379.935584 157.914709 
L 370.65974 142.94778 
L 361.383896 178.868409 
L 352.108052 152.925732 
L 342.832208 148.934551 
L 333.556364 133.967622 
L 324.280519 138.956598 
L 315.004675 138.956598 
L 305.728831 140.952189 
L 296.452987 135.963213 
L 287.177143 139.954394 
L 277.901299 127.98085 
L 268.625455 138.956598 
L 259.34961 137.958803 
L 250.073766 146.938961 
L 240.797922 147.936756 
L 231.522078 105.031559 
L 222.246234 131.972031 
L 212.97039 130.974236 
L 203.694545 120.996283 
L 194.418701 100.042583 
L 185.142857 105.031559 
L 175.867013 116.007307 
L 166.591169 113.013921 
L 157.315325 123.989669 
L 148.039481 110.020535 
L 138.763636 136.961008 
L 129.487792 116.007307 
L 120.211948 107.02715 
L 110.936104 121.994079 
L 101.66026 116.007307 
L 92.384416 117.005102 
L 83.108571 111.018331 
L 73.832727 70.108724 
z
" style="fill:#2ca02c;"/>
   </g>
   <g id="PolyCollection_14">
    <path clip-path="url(#p0b63cb825a)" d="M 73.832727 67.115339 
L 73.832727 70.108724 
L 83.108571 111.018331 
L 92.384416 117.005102 
L 101.66026 116.007307 
L 110.936104 121.994079 
L 120.211948 107.02715 
L 129.487792 116.007307 
L 138.763636 136.961008 
L 148.039481 110.020535 
L 157.315325 123.989669 
L 166.591169 113.013921 
L 175.867013 116.007307 
L 185.142857 105.031559 
L 194.418701 100.042583 
L 203.694545 120.996283 
L 212.97039 130.974236 
L 222.246234 131.972031 
L 231.522078 105.031559 
L 240.797922 147.936756 
L 250.073766 146.938961 
L 259.34961 137.958803 
L 268.625455 138.956598 
L 277.901299 127.98085 
L 287.177143 139.954394 
L 296.452987 135.963213 
L 305.728831 140.952189 
L 315.004675 138.956598 
L 324.280519 138.956598 
L 333.556364 133.967622 
L 342.832208 148.934551 
L 352.108052 152.925732 
L 361.383896 178.868409 
L 370.65974 142.94778 
L 379.935584 157.914709 
L 389.211429 171.883843 
L 398.487273 219.778016 
L 398.487273 215.786835 
L 398.487273 215.786835 
L 389.211429 168.890457 
L 379.935584 155.919118 
L 370.65974 139.954394 
L 361.383896 176.872819 
L 352.108052 150.930142 
L 342.832208 145.941165 
L 333.556364 131.972031 
L 324.280519 136.961008 
L 315.004675 135.963213 
L 305.728831 138.956598 
L 296.452987 133.967622 
L 287.177143 137.958803 
L 277.901299 125.98526 
L 268.625455 136.961008 
L 259.34961 134.965417 
L 250.073766 144.94337 
L 240.797922 144.94337 
L 231.522078 103.035969 
L 222.246234 128.978646 
L 212.97039 128.978646 
L 203.694545 119.000693 
L 194.418701 97.049197 
L 185.142857 103.035969 
L 175.867013 114.011717 
L 166.591169 111.018331 
L 157.315325 121.994079 
L 148.039481 108.024945 
L 138.763636 133.967622 
L 129.487792 112.016126 
L 120.211948 104.033764 
L 110.936104 118.002898 
L 101.66026 114.011717 
L 92.384416 115.009512 
L 83.108571 108.024945 
L 73.832727 67.115339 
z
" style="fill:#d62728;"/>
   </g>
   <g id="PolyCollection_15">
    <path clip-path="url(#p0b63cb825a)" d="M 73.832727 66.117543 
L 73.832727 67.115339 
L 83.108571 108.024945 
L 92.384416 115.009512 
L 101.66026 114.011717 
L 110.936104 118.002898 
L 120.211948 104.033764 
L 129.487792 112.016126 
L 138.763636 133.967622 
L 148.039481 108.024945 
L 157.315325 121.994079 
L 166.591169 111.018331 
L 175.867013 114.011717 
L 185.142857 103.035969 
L 194.418701 97.049197 
L 203.694545 119.000693 
L 212.97039 128.978646 
L 222.246234 128.978646 
L 231.522078 103.035969 
L 240.797922 144.94337 
L 250.073766 144.94337 
L 259.34961 134.965417 
L 268.625455 136.961008 
L 277.901299 125.98526 
L 287.177143 137.958803 
L 296.452987 133.967622 
L 305.728831 138.956598 
L 315.004675 135.963213 
L 324.280519 136.961008 
L 333.556364 131.972031 
L 342.832208 145.941165 
L 352.108052 150.930142 
L 361.383896 176.872819 
L 370.65974 139.954394 
L 379.935584 155.919118 
L 389.211429 168.890457 
L 398.487273 215.786835 
L 398.487273 199.82211 
L 398.487273 199.82211 
L 389.211429 157.914709 
L 379.935584 141.949984 
L 370.65974 127.98085 
L 361.383896 170.886047 
L 352.108052 134.965417 
L 342.832208 131.972031 
L 333.556364 119.000693 
L 324.280519 127.98085 
L 315.004675 124.987465 
L 305.728831 128.978646 
L 296.452987 126.983055 
L 287.177143 132.969827 
L 277.901299 122.991874 
L 268.625455 132.969827 
L 259.34961 130.974236 
L 250.073766 140.952189 
L 240.797922 138.956598 
L 231.522078 99.044787 
L 222.246234 123.989669 
L 212.97039 124.987465 
L 203.694545 116.007307 
L 194.418701 93.058016 
L 185.142857 99.044787 
L 175.867013 111.018331 
L 166.591169 108.024945 
L 157.315325 119.000693 
L 148.039481 105.031559 
L 138.763636 130.974236 
L 129.487792 108.024945 
L 120.211948 100.042583 
L 110.936104 112.016126 
L 101.66026 107.02715 
L 92.384416 108.024945 
L 83.108571 103.035969 
L 73.832727 66.117543 
z
" style="fill:#9467bd;"/>
   </g>
   <g id="PolyCollection_16">
    <path clip-path="url(#p0b63cb825a)" d="M 73.832727 65.119748 
L 73.832727 66.117543 
L 83.108571 103.035969 
L 92.384416 108.024945 
L 101.66026 107.02715 
L 110.936104 112.016126 
L 120.211948 100.042583 
L 129.487792 108.024945 
L 138.763636 130.974236 
L 148.039481 105.031559 
L 157.315325 119.000693 
L 166.591169 108.024945 
L 175.867013 111.018331 
L 185.142857 99.044787 
L 194.418701 93.058016 
L 203.694545 116.007307 
L 212.97039 124.987465 
L 222.246234 123.989669 
L 231.522078 99.044787 
L 240.797922 138.956598 
L 250.073766 140.952189 
L 259.34961 130.974236 
L 268.625455 132.969827 
L 277.901299 122.991874 
L 287.177143 132.969827 
L 296.452987 126.983055 
L 305.728831 128.978646 
L 315.004675 124.987465 
L 324.280519 127.98085 
L 333.556364 119.000693 
L 342.832208 131.972031 
L 352.108052 134.965417 
L 361.383896 170.886047 
L 370.65974 127.98085 
L 379.935584 141.949984 
L 389.211429 157.914709 
L 398.487273 199.82211 
L 398.487273 199.82211 
L 398.487273 199.82211 
L 389.211429 157.914709 
L 379.935584 141.949984 
L 370.65974 127.98085 
L 361.383896 170.886047 
L 352.108052 134.965417 
L 342.832208 131.972031 
L 333.556364 119.000693 
L 324.280519 127.98085 
L 315.004675 124.987465 
L 305.728831 128.978646 
L 296.452987 126.983055 
L 287.177143 132.969827 
L 277.901299 122.991874 
L 268.625455 128.978646 
L 259.34961 125.98526 
L 250.073766 135.963213 
L 240.797922 132.969827 
L 231.522078 94.055811 
L 222.246234 119.000693 
L 212.97039 120.996283 
L 203.694545 110.020535 
L 194.418701 88.069039 
L 185.142857 95.053606 
L 175.867013 107.02715 
L 166.591169 103.035969 
L 157.315325 113.013921 
L 148.039481 100.042583 
L 138.763636 127.98085 
L 129.487792 102.038173 
L 120.211948 94.055811 
L 110.936104 104.033764 
L 101.66026 98.046992 
L 92.384416 99.044787 
L 83.108571 98.046992 
L 73.832727 65.119748 
z
" style="fill:#8c564b;"/>
   </g>
   <g id="PolyCollection_17">
    <path clip-path="url(#p0b63cb825a)" d="M 73.832727 64.121953 
L 73.832727 65.119748 
L 83.108571 98.046992 
L 92.384416 99.044787 
L 101.66026 98.046992 
L 110.936104 104.033764 
L 120.211948 94.055811 
L 129.487792 102.038173 
L 138.763636 127.98085 
L 148.039481 100.042583 
L 157.315325 113.013921 
L 166.591169 103.035969 
L 175.867013 107.02715 
L 185.142857 95.053606 
L 194.418701 88.069039 
L 203.694545 110.020535 
L 212.97039 120.996283 
L 222.246234 119.000693 
L 231.522078 94.055811 
L 240.797922 132.969827 
L 250.073766 135.963213 
L 259.34961 125.98526 
L 268.625455 128.978646 
L 277.901299 122.991874 
L 287.177143 132.969827 
L 296.452987 126.983055 
L 305.728831 128.978646 
L 315.004675 124.987465 
L 324.280519 127.98085 
L 333.556364 119.000693 
L 342.832208 131.972031 
L 352.108052 134.965417 
L 361.383896 170.886047 
L 370.65974 127.98085 
L 379.935584 141.949984 
L 389.211429 157.914709 
L 398.487273 199.82211 
L 398.487273 192.837543 
L 398.487273 192.837543 
L 389.211429 149.932346 
L 379.935584 131.972031 
L 370.65974 116.007307 
L 361.383896 159.910299 
L 352.108052 126.983055 
L 342.832208 123.989669 
L 333.556364 113.013921 
L 324.280519 119.000693 
L 315.004675 115.009512 
L 305.728831 121.994079 
L 296.452987 119.998488 
L 287.177143 123.989669 
L 277.901299 114.011717 
L 268.625455 118.002898 
L 259.34961 117.005102 
L 250.073766 124.987465 
L 240.797922 123.989669 
L 231.522078 88.069039 
L 222.246234 111.018331 
L 212.97039 112.016126 
L 203.694545 101.040378 
L 194.418701 78.091087 
L 185.142857 82.082268 
L 175.867013 97.049197 
L 166.591169 96.051402 
L 157.315325 104.033764 
L 148.039481 87.071244 
L 138.763636 114.011717 
L 129.487792 86.073449 
L 120.211948 83.080063 
L 110.936104 94.055811 
L 101.66026 91.062425 
L 92.384416 92.06022 
L 83.108571 91.062425 
L 73.832727 64.121953 
z
" style="fill:#e377c2;"/>
   </g>
   <g id="PolyCollection_18">
    <path clip-path="url(#p0b63cb825a)" d="M 73.832727 63.124157 
L 73.832727 64.121953 
L 83.108571 91.062425 
L 92.384416 92.06022 
L 101.66026 91.062425 
L 110.936104 94.055811 
L 120.211948 83.080063 
L 129.487792 86.073449 
L 138.763636 114.011717 
L 148.039481 87.071244 
L 157.315325 104.033764 
L 166.591169 96.051402 
L 175.867013 97.049197 
L 185.142857 82.082268 
L 194.418701 78.091087 
L 203.694545 101.040378 
L 212.97039 112.016126 
L 222.246234 111.018331 
L 231.522078 88.069039 
L 240.797922 123.989669 
L 250.073766 124.987465 
L 259.34961 117.005102 
L 268.625455 118.002898 
L 277.901299 114.011717 
L 287.177143 123.989669 
L 296.452987 119.998488 
L 305.728831 121.994079 
L 315.004675 115.009512 
L 324.280519 119.000693 
L 333.556364 113.013921 
L 342.832208 123.989669 
L 352.108052 126.983055 
L 361.383896 159.910299 
L 370.65974 116.007307 
L 379.935584 131.972031 
L 389.211429 149.932346 
L 398.487273 192.837543 
L 398.487273 192.837543 
L 398.487273 192.837543 
L 389.211429 149.932346 
L 379.935584 131.972031 
L 370.65974 116.007307 
L 361.383896 159.910299 
L 352.108052 126.983055 
L 342.832208 123.989669 
L 333.556364 113.013921 
L 324.280519 117.005102 
L 315.004675 113.013921 
L 305.728831 119.998488 
L 296.452987 118.002898 
L 287.177143 120.996283 
L 277.901299 112.016126 
L 268.625455 116.007307 
L 259.34961 115.009512 
L 250.073766 122.991874 
L 240.797922 120.996283 
L 231.522078 86.073449 
L 222.246234 109.02274 
L 212.97039 109.02274 
L 203.694545 99.044787 
L 194.418701 77.093291 
L 185.142857 79.088882 
L 175.867013 95.053606 
L 166.591169 93.058016 
L 157.315325 100.042583 
L 148.039481 84.077858 
L 138.763636 110.020535 
L 129.487792 83.080063 
L 120.211948 80.086677 
L 110.936104 89.066835 
L 101.66026 86.073449 
L 92.384416 88.069039 
L 83.108571 89.066835 
L 73.832727 63.124157 
z
" style="fill:#7f7f7f;"/>
   </g>
   <g id="PolyCollection_19">
    <path clip-path="url(#p0b63cb825a)" d="M 73.832727 62.126362 
L 73.832727 63.124157 
L 83.108571 89.066835 
L 92.384416 88.069039 
L 101.66026 86.073449 
L 110.936104 89.066835 
L 120.211948 80.086677 
L 129.487792 83.080063 
L 138.763636 110.020535 
L 148.039481 84.077858 
L 157.315325 100.042583 
L 166.591169 93.058016 
L 175.867013 95.053606 
L 185.142857 79.088882 
L 194.418701 77.093291 
L 203.694545 99.044787 
L 212.97039 109.02274 
L 222.246234 109.02274 
L 231.522078 86.073449 
L 240.797922 120.996283 
L 250.073766 122.991874 
L 259.34961 115.009512 
L 268.625455 116.007307 
L 277.901299 112.016126 
L 287.177143 120.996283 
L 296.452987 118.002898 
L 305.728831 119.998488 
L 315.004675 113.013921 
L 324.280519 117.005102 
L 333.556364 113.013921 
L 342.832208 123.989669 
L 352.108052 126.983055 
L 361.383896 159.910299 
L 370.65974 116.007307 
L 379.935584 131.972031 
L 389.211429 149.932346 
L 398.487273 192.837543 
L 398.487273 112.016126 
L 398.487273 112.016126 
L 389.211429 136.961008 
L 379.935584 115.009512 
L 370.65974 107.02715 
L 361.383896 149.932346 
L 352.108052 119.998488 
L 342.832208 113.013921 
L 333.556364 107.02715 
L 324.280519 111.018331 
L 315.004675 105.031559 
L 305.728831 110.020535 
L 296.452987 108.024945 
L 287.177143 110.020535 
L 277.901299 105.031559 
L 268.625455 108.024945 
L 259.34961 114.011717 
L 250.073766 116.007307 
L 240.797922 98.046992 
L 231.522078 81.084472 
L 222.246234 93.058016 
L 212.97039 85.075654 
L 203.694545 96.051402 
L 194.418701 71.10652 
L 185.142857 68.113134 
L 175.867013 72.104315 
L 166.591169 73.10211 
L 157.315325 73.10211 
L 148.039481 76.095496 
L 138.763636 74.099906 
L 129.487792 78.091087 
L 120.211948 76.095496 
L 110.936104 85.075654 
L 101.66026 80.086677 
L 92.384416 82.082268 
L 83.108571 85.075654 
L 73.832727 62.126362 
z
" style="fill:#bcbd22;"/>
   </g>
   <g id="PolyCollection_20">
    <path clip-path="url(#p0b63cb825a)" d="M 73.832727 61.128567 
L 73.832727 62.126362 
L 83.108571 85.075654 
L 92.384416 82.082268 
L 101.66026 80.086677 
L 110.936104 85.075654 
L 120.211948 76.095496 
L 129.487792 78.091087 
L 138.763636 74.099906 
L 148.039481 76.095496 
L 157.315325 73.10211 
L 166.591169 73.10211 
L 175.867013 72.104315 
L 185.142857 68.113134 
L 194.418701 71.10652 
L 203.694545 96.051402 
L 212.97039 85.075654 
L 222.246234 93.058016 
L 231.522078 81.084472 
L 240.797922 98.046992 
L 250.073766 116.007307 
L 259.34961 114.011717 
L 268.625455 108.024945 
L 277.901299 105.031559 
L 287.177143 110.020535 
L 296.452987 108.024945 
L 305.728831 110.020535 
L 315.004675 105.031559 
L 324.280519 111.018331 
L 333.556364 107.02715 
L 342.832208 113.013921 
L 352.108052 119.998488 
L 361.383896 149.932346 
L 370.65974 107.02715 
L 379.935584 115.009512 
L 389.211429 136.961008 
L 398.487273 112.016126 
L 398.487273 105.031559 
L 398.487273 105.031559 
L 389.211429 104.033764 
L 379.935584 105.031559 
L 370.65974 96.051402 
L 361.383896 136.961008 
L 352.108052 105.031559 
L 342.832208 100.042583 
L 333.556364 98.046992 
L 324.280519 101.040378 
L 315.004675 93.058016 
L 305.728831 98.046992 
L 296.452987 100.042583 
L 287.177143 100.042583 
L 277.901299 94.055811 
L 268.625455 96.051402 
L 259.34961 103.035969 
L 250.073766 106.029354 
L 240.797922 86.073449 
L 231.522078 72.104315 
L 222.246234 85.075654 
L 212.97039 76.095496 
L 203.694545 89.066835 
L 194.418701 65.119748 
L 185.142857 62.126362 
L 175.867013 68.113134 
L 166.591169 66.117543 
L 157.315325 65.119748 
L 148.039481 67.115339 
L 138.763636 66.117543 
L 129.487792 67.115339 
L 120.211948 67.115339 
L 110.936104 75.097701 
L 101.66026 67.115339 
L 92.384416 73.10211 
L 83.108571 70.108724 
L 73.832727 61.128567 
z
" style="fill:#17becf;"/>
   </g>
   <g id="PolyCollection_21">
    <path clip-path="url(#p0b63cb825a)" d="M 73.832727 60.130772 
L 73.832727 61.128567 
L 83.108571 70.108724 
L 92.384416 73.10211 
L 101.66026 67.115339 
L 110.936104 75.097701 
L 120.211948 67.115339 
L 129.487792 67.115339 
L 138.763636 66.117543 
L 148.039481 67.115339 
L 157.315325 65.119748 
L 166.591169 66.117543 
L 175.867013 68.113134 
L 185.142857 62.126362 
L 194.418701 65.119748 
L 203.694545 89.066835 
L 212.97039 76.095496 
L 222.246234 85.075654 
L 231.522078 72.104315 
L 240.797922 86.073449 
L 250.073766 106.029354 
L 259.34961 103.035969 
L 268.625455 96.051402 
L 277.901299 94.055811 
L 287.177143 100.042583 
L 296.452987 100.042583 
L 305.728831 98.046992 
L 315.004675 93.058016 
L 324.280519 101.040378 
L 333.556364 98.046992 
L 342.832208 100.042583 
L 352.108052 105.031559 
L 361.383896 136.961008 
L 370.65974 96.051402 
L 379.935584 105.031559 
L 389.211429 104.033764 
L 398.487273 105.031559 
L 398.487273 102.038173 
L 398.487273 102.038173 
L 389.211429 98.046992 
L 379.935584 88.069039 
L 370.65974 85.075654 
L 361.383896 83.080063 
L 352.108052 93.058016 
L 342.832208 85.075654 
L 333.556364 91.062425 
L 324.280519 90.06463 
L 315.004675 83.080063 
L 305.728831 85.075654 
L 296.452987 86.073449 
L 287.177143 84.077858 
L 277.901299 79.088882 
L 268.625455 83.080063 
L 259.34961 93.058016 
L 250.073766 91.062425 
L 240.797922 72.104315 
L 231.522078 60.130772 
L 222.246234 64.121953 
L 212.97039 61.128567 
L 203.694545 63.124157 
L 194.418701 60.130772 
L 185.142857 60.130772 
L 175.867013 65.119748 
L 166.591169 62.126362 
L 157.315325 62.126362 
L 148.039481 63.124157 
L 138.763636 63.124157 
L 129.487792 64.121953 
L 120.211948 62.126362 
L 110.936104 71.10652 
L 101.66026 65.119748 
L 92.384416 69.110929 
L 83.108571 66.117543 
L 73.832727 60.130772 
z
" style="fill:#1f77b4;"/>
   </g>
   <g id="PolyCollection_22">
    <path clip-path="url(#p0b63cb825a)" d="M 73.832727 59.132976 
L 73.832727 60.130772 
L 83.108571 66.117543 
L 92.384416 69.110929 
L 101.66026 65.119748 
L 110.936104 71.10652 
L 120.211948 62.126362 
L 129.487792 64.121953 
L 138.763636 63.124157 
L 148.039481 63.124157 
L 157.315325 62.126362 
L 166.591169 62.126362 
L 175.867013 65.119748 
L 185.142857 60.130772 
L 194.418701 60.130772 
L 203.694545 63.124157 
L 212.97039 61.128567 
L 222.246234 64.121953 
L 231.522078 60.130772 
L 240.797922 72.104315 
L 250.073766 91.062425 
L 259.34961 93.058016 
L 268.625455 83.080063 
L 277.901299 79.088882 
L 287.177143 84.077858 
L 296.452987 86.073449 
L 305.728831 85.075654 
L 315.004675 83.080063 
L 324.280519 90.06463 
L 333.556364 91.062425 
L 342.832208 85.075654 
L 352.108052 93.058016 
L 361.383896 83.080063 
L 370.65974 85.075654 
L 379.935584 88.069039 
L 389.211429 98.046992 
L 398.487273 102.038173 
L 398.487273 102.038173 
L 398.487273 102.038173 
L 389.211429 98.046992 
L 379.935584 88.069039 
L 370.65974 85.075654 
L 361.383896 83.080063 
L 352.108052 91.062425 
L 342.832208 83.080063 
L 333.556364 88.069039 
L 324.280519 88.069039 
L 315.004675 81.084472 
L 305.728831 84.077858 
L 296.452987 83.080063 
L 287.177143 82.082268 
L 277.901299 76.095496 
L 268.625455 81.084472 
L 259.34961 90.06463 
L 250.073766 89.066835 
L 240.797922 70.108724 
L 231.522078 58.135181 
L 222.246234 61.128567 
L 212.97039 59.132976 
L 203.694545 61.128567 
L 194.418701 58.135181 
L 185.142857 58.135181 
L 175.867013 62.126362 
L 166.591169 59.132976 
L 157.315325 58.135181 
L 148.039481 60.130772 
L 138.763636 61.128567 
L 129.487792 62.126362 
L 120.211948 60.130772 
L 110.936104 64.121953 
L 101.66026 61.128567 
L 92.384416 64.121953 
L 83.108571 64.121953 
L 73.832727 59.132976 
z
" style="fill:#ff7f0e;"/>
   </g>
   <g id="PolyCollection_23">
    <path clip-path="url(#p0b63cb825a)" d="M 73.832727 58.135181 
L 73.832727 59.132976 
L 83.108571 64.121953 
L 92.384416 64.121953 
L 101.66026 61.128567 
L 110.936104 64.121953 
L 120.211948 60.130772 
L 129.487792 62.126362 
L 138.763636 61.128567 
L 148.039481 60.130772 
L 157.315325 58.135181 
L 166.591169 59.132976 
L 175.867013 62.126362 
L 185.142857 58.135181 
L 194.418701 58.135181 
L 203.694545 61.128567 
L 212.97039 59.132976 
L 222.246234 61.128567 
L 231.522078 58.135181 
L 240.797922 70.108724 
L 250.073766 89.066835 
L 259.34961 90.06463 
L 268.625455 81.084472 
L 277.901299 76.095496 
L 287.177143 82.082268 
L 296.452987 83.080063 
L 305.728831 84.077858 
L 315.004675 81.084472 
L 324.280519 88.069039 
L 333.556364 88.069039 
L 342.832208 83.080063 
L 352.108052 91.062425 
L 361.383896 83.080063 
L 370.65974 85.075654 
L 379.935584 88.069039 
L 389.211429 98.046992 
L 398.487273 102.038173 
L 398.487273 102.038173 
L 398.487273 102.038173 
L 389.211429 98.046992 
L 379.935584 88.069039 
L 370.65974 85.075654 
L 361.383896 81.084472 
L 352.108052 89.066835 
L 342.832208 80.086677 
L 333.556364 86.073449 
L 324.280519 86.073449 
L 315.004675 78.091087 
L 305.728831 82.082268 
L 296.452987 81.084472 
L 287.177143 80.086677 
L 277.901299 74.099906 
L 268.625455 79.088882 
L 259.34961 88.069039 
L 250.073766 86.073449 
L 240.797922 68.113134 
L 231.522078 55.141795 
L 222.246234 57.137386 
L 212.97039 56.139591 
L 203.694545 57.137386 
L 194.418701 55.141795 
L 185.142857 56.139591 
L 175.867013 59.132976 
L 166.591169 57.137386 
L 157.315325 56.139591 
L 148.039481 57.137386 
L 138.763636 57.137386 
L 129.487792 59.132976 
L 120.211948 58.135181 
L 110.936104 60.130772 
L 101.66026 58.135181 
L 92.384416 58.135181 
L 83.108571 59.132976 
L 73.832727 58.135181 
z
" style="fill:#2ca02c;"/>
   </g>
   <g id="PolyCollection_24">
    <path clip-path="url(#p0b63cb825a)" d="M 73.832727 58.135181 
L 73.832727 58.135181 
L 83.108571 59.132976 
L 92.384416 58.135181 
L 101.66026 58.135181 
L 110.936104 60.130772 
L 120.211948 58.135181 
L 129.487792 59.132976 
L 138.763636 57.137386 
L 148.039481 57.137386 
L 157.315325 56.139591 
L 166.591169 57.137386 
L 175.867013 59.132976 
L 185.142857 56.139591 
L 194.418701 55.141795 
L 203.694545 57.137386 
L 212.97039 56.139591 
L 222.246234 57.137386 
L 231.522078 55.141795 
L 240.797922 68.113134 
L 250.073766 86.073449 
L 259.34961 88.069039 
L 268.625455 79.088882 
L 277.901299 74.099906 
L 287.177143 80.086677 
L 296.452987 81.084472 
L 305.728831 82.082268 
L 315.004675 78.091087 
L 324.280519 86.073449 
L 333.556364 86.073449 
L 342.832208 80.086677 
L 352.108052 89.066835 
L 361.383896 81.084472 
L 370.65974 85.075654 
L 379.935584 88.069039 
L 389.211429 98.046992 
L 398.487273 102.038173 
L 398.487273 59.132976 
L 398.487273 59.132976 
L 389.211429 60.130772 
L 379.935584 60.130772 
L 370.65974 58.135181 
L 361.383896 59.132976 
L 352.108052 62.126362 
L 342.832208 56.139591 
L 333.556364 61.128567 
L 324.280519 56.139591 
L 315.004675 54.144 
L 305.728831 55.141795 
L 296.452987 54.144 
L 287.177143 56.139591 
L 277.901299 55.141795 
L 268.625455 56.139591 
L 259.34961 57.137386 
L 250.073766 58.135181 
L 240.797922 55.141795 
L 231.522078 55.141795 
L 222.246234 57.137386 
L 212.97039 56.139591 
L 203.694545 57.137386 
L 194.418701 55.141795 
L 185.142857 56.139591 
L 175.867013 59.132976 
L 166.591169 57.137386 
L 157.315325 56.139591 
L 148.039481 57.137386 
L 138.763636 57.137386 
L 129.487792 59.132976 
L 120.211948 58.135181 
L 110.936104 60.130772 
L 101.66026 58.135181 
L 92.384416 58.135181 
L 83.108571 59.132976 
L 73.832727 58.135181 
z
" style="fill:#d62728;"/>
   </g>
   <g id="matplotlib.axis_1">
    <g id="xtick_1">
     <g id="line2d_1">
      <defs>
       <path d="M 0 0 
L 0 3.5 
" id="m87864740af" style="stroke:#000000;stroke-width:0.8;"/>
      </defs>
      <g>
       <use style="stroke:#000000;stroke-width:0.8;" x="73.832727" xlink:href="#m87864740af" y="307.584"/>
      </g>
     </g>
     <g id="text_1">
      <!-- 0 -->
      <defs>
       <path d="M 31.78125 66.40625 
Q 24.171875 66.40625 20.328125 58.90625 
Q 16.5 51.421875 16.5 36.375 
Q 16.5 21.390625 20.328125 13.890625 
Q 24.171875 6.390625 31.78125 6.390625 
Q 39.453125 6.390625 43.28125 13.890625 
Q 47.125 21.390625 47.125 36.375 
Q 47.125 51.421875 43.28125 58.90625 
Q 39.453125 66.40625 31.78125 66.40625 
z
M 31.78125 74.21875 
Q 44.046875 74.21875 50.515625 64.515625 
Q 56.984375 54.828125 56.984375 36.375 
Q 56.984375 17.96875 50.515625 8.265625 
Q 44.046875 -1.421875 31.78125 -1.421875 
Q 19.53125 -1.421875 13.0625 8.265625 
Q 6.59375 17.96875 6.59375 36.375 
Q 6.59375 54.828125 13.0625 64.515625 
Q 19.53125 74.21875 31.78125 74.21875 
z
" id="DejaVuSans-48"/>
      </defs>
      <g transform="translate(70.651477 322.182437)scale(0.1 -0.1)">
       <use xlink:href="#DejaVuSans-48"/>
      </g>
     </g>
    </g>
    <g id="xtick_2">
     <g id="line2d_2">
      <g>
       <use style="stroke:#000000;stroke-width:0.8;" x="120.211948" xlink:href="#m87864740af" y="307.584"/>
      </g>
     </g>
     <g id="text_2">
      <!-- 5 -->
      <defs>
       <path d="M 10.796875 72.90625 
L 49.515625 72.90625 
L 49.515625 64.59375 
L 19.828125 64.59375 
L 19.828125 46.734375 
Q 21.96875 47.46875 24.109375 47.828125 
Q 26.265625 48.1875 28.421875 48.1875 
Q 40.625 48.1875 47.75 41.5 
Q 54.890625 34.8125 54.890625 23.390625 
Q 54.890625 11.625 47.5625 5.09375 
Q 40.234375 -1.421875 26.90625 -1.421875 
Q 22.3125 -1.421875 17.546875 -0.640625 
Q 12.796875 0.140625 7.71875 1.703125 
L 7.71875 11.625 
Q 12.109375 9.234375 16.796875 8.0625 
Q 21.484375 6.890625 26.703125 6.890625 
Q 35.15625 6.890625 40.078125 11.328125 
Q 45.015625 15.765625 45.015625 23.390625 
Q 45.015625 31 40.078125 35.4375 
Q 35.15625 39.890625 26.703125 39.890625 
Q 22.75 39.890625 18.8125 39.015625 
Q 14.890625 38.140625 10.796875 36.28125 
z
" id="DejaVuSans-53"/>
      </defs>
      <g transform="translate(117.030698 322.182437)scale(0.1 -0.1)">
       <use xlink:href="#DejaVuSans-53"/>
      </g>
     </g>
    </g>
    <g id="xtick_3">
     <g id="line2d_3">
      <g>
       <use style="stroke:#000000;stroke-width:0.8;" x="166.591169" xlink:href="#m87864740af" y="307.584"/>
      </g>
     </g>
     <g id="text_3">
      <!-- 10 -->
      <defs>
       <path d="M 12.40625 8.296875 
L 28.515625 8.296875 
L 28.515625 63.921875 
L 10.984375 60.40625 
L 10.984375 69.390625 
L 28.421875 72.90625 
L 38.28125 72.90625 
L 38.28125 8.296875 
L 54.390625 8.296875 
L 54.390625 0 
L 12.40625 0 
z
" id="DejaVuSans-49"/>
      </defs>
      <g transform="translate(160.228669 322.182437)scale(0.1 -0.1)">
       <use xlink:href="#DejaVuSans-49"/>
       <use x="63.623047" xlink:href="#DejaVuSans-48"/>
      </g>
     </g>
    </g>
    <g id="xtick_4">
     <g id="line2d_4">
      <g>
       <use style="stroke:#000000;stroke-width:0.8;" x="212.97039" xlink:href="#m87864740af" y="307.584"/>
      </g>
     </g>
     <g id="text_4">
      <!-- 15 -->
      <g transform="translate(206.60789 322.182437)scale(0.1 -0.1)">
       <use xlink:href="#DejaVuSans-49"/>
       <use x="63.623047" xlink:href="#DejaVuSans-53"/>
      </g>
     </g>
    </g>
    <g id="xtick_5">
     <g id="line2d_5">
      <g>
       <use style="stroke:#000000;stroke-width:0.8;" x="259.34961" xlink:href="#m87864740af" y="307.584"/>
      </g>
     </g>
     <g id="text_5">
      <!-- 20 -->
      <defs>
       <path d="M 19.1875 8.296875 
L 53.609375 8.296875 
L 53.609375 0 
L 7.328125 0 
L 7.328125 8.296875 
Q 12.9375 14.109375 22.625 23.890625 
Q 32.328125 33.6875 34.8125 36.53125 
Q 39.546875 41.84375 41.421875 45.53125 
Q 43.3125 49.21875 43.3125 52.78125 
Q 43.3125 58.59375 39.234375 62.25 
Q 35.15625 65.921875 28.609375 65.921875 
Q 23.96875 65.921875 18.8125 64.3125 
Q 13.671875 62.703125 7.8125 59.421875 
L 7.8125 69.390625 
Q 13.765625 71.78125 18.9375 73 
Q 24.125 74.21875 28.421875 74.21875 
Q 39.75 74.21875 46.484375 68.546875 
Q 53.21875 62.890625 53.21875 53.421875 
Q 53.21875 48.921875 51.53125 44.890625 
Q 49.859375 40.875 45.40625 35.40625 
Q 44.1875 33.984375 37.640625 27.21875 
Q 31.109375 20.453125 19.1875 8.296875 
z
" id="DejaVuSans-50"/>
      </defs>
      <g transform="translate(252.98711 322.182437)scale(0.1 -0.1)">
       <use xlink:href="#DejaVuSans-50"/>
       <use x="63.623047" xlink:href="#DejaVuSans-48"/>
      </g>
     </g>
    </g>
    <g id="xtick_6">
     <g id="line2d_6">
      <g>
       <use style="stroke:#000000;stroke-width:0.8;" x="305.728831" xlink:href="#m87864740af" y="307.584"/>
      </g>
     </g>
     <g id="text_6">
      <!-- 25 -->
      <g transform="translate(299.366331 322.182437)scale(0.1 -0.1)">
       <use xlink:href="#DejaVuSans-50"/>
       <use x="63.623047" xlink:href="#DejaVuSans-53"/>
      </g>
     </g>
    </g>
    <g id="xtick_7">
     <g id="line2d_7">
      <g>
       <use style="stroke:#000000;stroke-width:0.8;" x="352.108052" xlink:href="#m87864740af" y="307.584"/>
      </g>
     </g>
     <g id="text_7">
      <!-- 30 -->
      <defs>
       <path d="M 40.578125 39.3125 
Q 47.65625 37.796875 51.625 33 
Q 55.609375 28.21875 55.609375 21.1875 
Q 55.609375 10.40625 48.1875 4.484375 
Q 40.765625 -1.421875 27.09375 -1.421875 
Q 22.515625 -1.421875 17.65625 -0.515625 
Q 12.796875 0.390625 7.625 2.203125 
L 7.625 11.71875 
Q 11.71875 9.328125 16.59375 8.109375 
Q 21.484375 6.890625 26.8125 6.890625 
Q 36.078125 6.890625 40.9375 10.546875 
Q 45.796875 14.203125 45.796875 21.1875 
Q 45.796875 27.640625 41.28125 31.265625 
Q 36.765625 34.90625 28.71875 34.90625 
L 20.21875 34.90625 
L 20.21875 43.015625 
L 29.109375 43.015625 
Q 36.375 43.015625 40.234375 45.921875 
Q 44.09375 48.828125 44.09375 54.296875 
Q 44.09375 59.90625 40.109375 62.90625 
Q 36.140625 65.921875 28.71875 65.921875 
Q 24.65625 65.921875 20.015625 65.03125 
Q 15.375 64.15625 9.8125 62.3125 
L 9.8125 71.09375 
Q 15.4375 72.65625 20.34375 73.4375 
Q 25.25 74.21875 29.59375 74.21875 
Q 40.828125 74.21875 47.359375 69.109375 
Q 53.90625 64.015625 53.90625 55.328125 
Q 53.90625 49.265625 50.4375 45.09375 
Q 46.96875 40.921875 40.578125 39.3125 
z
" id="DejaVuSans-51"/>
      </defs>
      <g transform="translate(345.745552 322.182437)scale(0.1 -0.1)">
       <use xlink:href="#DejaVuSans-51"/>
       <use x="63.623047" xlink:href="#DejaVuSans-48"/>
      </g>
     </g>
    </g>
    <g id="xtick_8">
     <g id="line2d_8">
      <g>
       <use style="stroke:#000000;stroke-width:0.8;" x="398.487273" xlink:href="#m87864740af" y="307.584"/>
      </g>
     </g>
     <g id="text_8">
      <!-- 35 -->
      <g transform="translate(392.124773 322.182437)scale(0.1 -0.1)">
       <use xlink:href="#DejaVuSans-51"/>
       <use x="63.623047" xlink:href="#DejaVuSans-53"/>
      </g>
     </g>
    </g>
    <g id="text_9">
     <!-- Generations -->
     <defs>
      <path d="M 59.515625 10.40625 
L 59.515625 29.984375 
L 43.40625 29.984375 
L 43.40625 38.09375 
L 69.28125 38.09375 
L 69.28125 6.78125 
Q 63.578125 2.734375 56.6875 0.65625 
Q 49.8125 -1.421875 42 -1.421875 
Q 24.90625 -1.421875 15.25 8.5625 
Q 5.609375 18.5625 5.609375 36.375 
Q 5.609375 54.25 15.25 64.234375 
Q 24.90625 74.21875 42 74.21875 
Q 49.125 74.21875 55.546875 72.453125 
Q 61.96875 70.703125 67.390625 67.28125 
L 67.390625 56.78125 
Q 61.921875 61.421875 55.765625 63.765625 
Q 49.609375 66.109375 42.828125 66.109375 
Q 29.4375 66.109375 22.71875 58.640625 
Q 16.015625 51.171875 16.015625 36.375 
Q 16.015625 21.625 22.71875 14.15625 
Q 29.4375 6.6875 42.828125 6.6875 
Q 48.046875 6.6875 52.140625 7.59375 
Q 56.25 8.5 59.515625 10.40625 
z
" id="DejaVuSans-71"/>
      <path d="M 56.203125 29.59375 
L 56.203125 25.203125 
L 14.890625 25.203125 
Q 15.484375 15.921875 20.484375 11.0625 
Q 25.484375 6.203125 34.421875 6.203125 
Q 39.59375 6.203125 44.453125 7.46875 
Q 49.3125 8.734375 54.109375 11.28125 
L 54.109375 2.78125 
Q 49.265625 0.734375 44.1875 -0.34375 
Q 39.109375 -1.421875 33.890625 -1.421875 
Q 20.796875 -1.421875 13.15625 6.1875 
Q 5.515625 13.8125 5.515625 26.8125 
Q 5.515625 40.234375 12.765625 48.109375 
Q 20.015625 56 32.328125 56 
Q 43.359375 56 49.78125 48.890625 
Q 56.203125 41.796875 56.203125 29.59375 
z
M 47.21875 32.234375 
Q 47.125 39.59375 43.09375 43.984375 
Q 39.0625 48.390625 32.421875 48.390625 
Q 24.90625 48.390625 20.390625 44.140625 
Q 15.875 39.890625 15.1875 32.171875 
z
" id="DejaVuSans-101"/>
      <path d="M 54.890625 33.015625 
L 54.890625 0 
L 45.90625 0 
L 45.90625 32.71875 
Q 45.90625 40.484375 42.875 44.328125 
Q 39.84375 48.1875 33.796875 48.1875 
Q 26.515625 48.1875 22.3125 43.546875 
Q 18.109375 38.921875 18.109375 30.90625 
L 18.109375 0 
L 9.078125 0 
L 9.078125 54.6875 
L 18.109375 54.6875 
L 18.109375 46.1875 
Q 21.34375 51.125 25.703125 53.5625 
Q 30.078125 56 35.796875 56 
Q 45.21875 56 50.046875 50.171875 
Q 54.890625 44.34375 54.890625 33.015625 
z
" id="DejaVuSans-110"/>
      <path d="M 41.109375 46.296875 
Q 39.59375 47.171875 37.8125 47.578125 
Q 36.03125 48 33.890625 48 
Q 26.265625 48 22.1875 43.046875 
Q 18.109375 38.09375 18.109375 28.8125 
L 18.109375 0 
L 9.078125 0 
L 9.078125 54.6875 
L 18.109375 54.6875 
L 18.109375 46.1875 
Q 20.953125 51.171875 25.484375 53.578125 
Q 30.03125 56 36.53125 56 
Q 37.453125 56 38.578125 55.875 
Q 39.703125 55.765625 41.0625 55.515625 
z
" id="DejaVuSans-114"/>
      <path d="M 34.28125 27.484375 
Q 23.390625 27.484375 19.1875 25 
Q 14.984375 22.515625 14.984375 16.5 
Q 14.984375 11.71875 18.140625 8.90625 
Q 21.296875 6.109375 26.703125 6.109375 
Q 34.1875 6.109375 38.703125 11.40625 
Q 43.21875 16.703125 43.21875 25.484375 
L 43.21875 27.484375 
z
M 52.203125 31.203125 
L 52.203125 0 
L 43.21875 0 
L 43.21875 8.296875 
Q 40.140625 3.328125 35.546875 0.953125 
Q 30.953125 -1.421875 24.3125 -1.421875 
Q 15.921875 -1.421875 10.953125 3.296875 
Q 6 8.015625 6 15.921875 
Q 6 25.140625 12.171875 29.828125 
Q 18.359375 34.515625 30.609375 34.515625 
L 43.21875 34.515625 
L 43.21875 35.40625 
Q 43.21875 41.609375 39.140625 45 
Q 35.0625 48.390625 27.6875 48.390625 
Q 23 48.390625 18.546875 47.265625 
Q 14.109375 46.140625 10.015625 43.890625 
L 10.015625 52.203125 
Q 14.9375 54.109375 19.578125 55.046875 
Q 24.21875 56 28.609375 56 
Q 40.484375 56 46.34375 49.84375 
Q 52.203125 43.703125 52.203125 31.203125 
z
" id="DejaVuSans-97"/>
      <path d="M 18.3125 70.21875 
L 18.3125 54.6875 
L 36.8125 54.6875 
L 36.8125 47.703125 
L 18.3125 47.703125 
L 18.3125 18.015625 
Q 18.3125 11.328125 20.140625 9.421875 
Q 21.96875 7.515625 27.59375 7.515625 
L 36.8125 7.515625 
L 36.8125 0 
L 27.59375 0 
Q 17.1875 0 13.234375 3.875 
Q 9.28125 7.765625 9.28125 18.015625 
L 9.28125 47.703125 
L 2.6875 47.703125 
L 2.6875 54.6875 
L 9.28125 54.6875 
L 9.28125 70.21875 
z
" id="DejaVuSans-116"/>
      <path d="M 9.421875 54.6875 
L 18.40625 54.6875 
L 18.40625 0 
L 9.421875 0 
z
M 9.421875 75.984375 
L 18.40625 75.984375 
L 18.40625 64.59375 
L 9.421875 64.59375 
z
" id="DejaVuSans-105"/>
      <path d="M 30.609375 48.390625 
Q 23.390625 48.390625 19.1875 42.75 
Q 14.984375 37.109375 14.984375 27.296875 
Q 14.984375 17.484375 19.15625 11.84375 
Q 23.34375 6.203125 30.609375 6.203125 
Q 37.796875 6.203125 41.984375 11.859375 
Q 46.1875 17.53125 46.1875 27.296875 
Q 46.1875 37.015625 41.984375 42.703125 
Q 37.796875 48.390625 30.609375 48.390625 
z
M 30.609375 56 
Q 42.328125 56 49.015625 48.375 
Q 55.71875 40.765625 55.71875 27.296875 
Q 55.71875 13.875 49.015625 6.21875 
Q 42.328125 -1.421875 30.609375 -1.421875 
Q 18.84375 -1.421875 12.171875 6.21875 
Q 5.515625 13.875 5.515625 27.296875 
Q 5.515625 40.765625 12.171875 48.375 
Q 18.84375 56 30.609375 56 
z
" id="DejaVuSans-111"/>
      <path d="M 44.28125 53.078125 
L 44.28125 44.578125 
Q 40.484375 46.53125 36.375 47.5 
Q 32.28125 48.484375 27.875 48.484375 
Q 21.1875 48.484375 17.84375 46.4375 
Q 14.5 44.390625 14.5 40.28125 
Q 14.5 37.15625 16.890625 35.375 
Q 19.28125 33.59375 26.515625 31.984375 
L 29.59375 31.296875 
Q 39.15625 29.25 43.1875 25.515625 
Q 47.21875 21.78125 47.21875 15.09375 
Q 47.21875 7.46875 41.1875 3.015625 
Q 35.15625 -1.421875 24.609375 -1.421875 
Q 20.21875 -1.421875 15.453125 -0.5625 
Q 10.6875 0.296875 5.421875 2 
L 5.421875 11.28125 
Q 10.40625 8.6875 15.234375 7.390625 
Q 20.0625 6.109375 24.8125 6.109375 
Q 31.15625 6.109375 34.5625 8.28125 
Q 37.984375 10.453125 37.984375 14.40625 
Q 37.984375 18.0625 35.515625 20.015625 
Q 33.0625 21.96875 24.703125 23.78125 
L 21.578125 24.515625 
Q 13.234375 26.265625 9.515625 29.90625 
Q 5.8125 33.546875 5.8125 39.890625 
Q 5.8125 47.609375 11.28125 51.796875 
Q 16.75 56 26.8125 56 
Q 31.78125 56 36.171875 55.265625 
Q 40.578125 54.546875 44.28125 53.078125 
z
" id="DejaVuSans-115"/>
     </defs>
     <g transform="translate(205.662344 335.860562)scale(0.1 -0.1)">
      <use xlink:href="#DejaVuSans-71"/>
      <use x="77.490234" xlink:href="#DejaVuSans-101"/>
      <use x="139.013672" xlink:href="#DejaVuSans-110"/>
      <use x="202.392578" xlink:href="#DejaVuSans-101"/>
      <use x="263.916016" xlink:href="#DejaVuSans-114"/>
      <use x="305.029297" xlink:href="#DejaVuSans-97"/>
      <use x="366.308594" xlink:href="#DejaVuSans-116"/>
      <use x="405.517578" xlink:href="#DejaVuSans-105"/>
      <use x="433.300781" xlink:href="#DejaVuSans-111"/>
      <use x="494.482422" xlink:href="#DejaVuSans-110"/>
      <use x="557.861328" xlink:href="#DejaVuSans-115"/>
     </g>
    </g>
   </g>
   <g id="matplotlib.axis_2">
    <g id="ytick_1">
     <g id="line2d_9">
      <defs>
       <path d="M 0 0 
L -3.5 0 
" id="m9a615f7fcb" style="stroke:#000000;stroke-width:0.8;"/>
      </defs>
      <g>
       <use style="stroke:#000000;stroke-width:0.8;" x="57.6" xlink:href="#m9a615f7fcb" y="307.584"/>
      </g>
     </g>
     <g id="text_10">
      <!-- 0 -->
      <g transform="translate(44.2375 311.383219)scale(0.1 -0.1)">
       <use xlink:href="#DejaVuSans-48"/>
      </g>
     </g>
    </g>
    <g id="ytick_2">
     <g id="line2d_10">
      <g>
       <use style="stroke:#000000;stroke-width:0.8;" x="57.6" xlink:href="#m9a615f7fcb" y="257.694236"/>
      </g>
     </g>
     <g id="text_11">
      <!-- 50 -->
      <g transform="translate(37.875 261.493455)scale(0.1 -0.1)">
       <use xlink:href="#DejaVuSans-53"/>
       <use x="63.623047" xlink:href="#DejaVuSans-48"/>
      </g>
     </g>
    </g>
    <g id="ytick_3">
     <g id="line2d_11">
      <g>
       <use style="stroke:#000000;stroke-width:0.8;" x="57.6" xlink:href="#m9a615f7fcb" y="207.804472"/>
      </g>
     </g>
     <g id="text_12">
      <!-- 100 -->
      <g transform="translate(31.5125 211.603691)scale(0.1 -0.1)">
       <use xlink:href="#DejaVuSans-49"/>
       <use x="63.623047" xlink:href="#DejaVuSans-48"/>
       <use x="127.246094" xlink:href="#DejaVuSans-48"/>
      </g>
     </g>
    </g>
    <g id="ytick_4">
     <g id="line2d_12">
      <g>
       <use style="stroke:#000000;stroke-width:0.8;" x="57.6" xlink:href="#m9a615f7fcb" y="157.914709"/>
      </g>
     </g>
     <g id="text_13">
      <!-- 150 -->
      <g transform="translate(31.5125 161.713927)scale(0.1 -0.1)">
       <use xlink:href="#DejaVuSans-49"/>
       <use x="63.623047" xlink:href="#DejaVuSans-53"/>
       <use x="127.246094" xlink:href="#DejaVuSans-48"/>
      </g>
     </g>
    </g>
    <g id="ytick_5">
     <g id="line2d_13">
      <g>
       <use style="stroke:#000000;stroke-width:0.8;" x="57.6" xlink:href="#m9a615f7fcb" y="108.024945"/>
      </g>
     </g>
     <g id="text_14">
      <!-- 200 -->
      <g transform="translate(31.5125 111.824164)scale(0.1 -0.1)">
       <use xlink:href="#DejaVuSans-50"/>
       <use x="63.623047" xlink:href="#DejaVuSans-48"/>
       <use x="127.246094" xlink:href="#DejaVuSans-48"/>
      </g>
     </g>
    </g>
    <g id="ytick_6">
     <g id="line2d_14">
      <g>
       <use style="stroke:#000000;stroke-width:0.8;" x="57.6" xlink:href="#m9a615f7fcb" y="58.135181"/>
      </g>
     </g>
     <g id="text_15">
      <!-- 250 -->
      <g transform="translate(31.5125 61.9344)scale(0.1 -0.1)">
       <use xlink:href="#DejaVuSans-50"/>
       <use x="63.623047" xlink:href="#DejaVuSans-53"/>
       <use x="127.246094" xlink:href="#DejaVuSans-48"/>
      </g>
     </g>
    </g>
    <g id="text_16">
     <!-- Size per Species -->
     <defs>
      <path d="M 53.515625 70.515625 
L 53.515625 60.890625 
Q 47.90625 63.578125 42.921875 64.890625 
Q 37.9375 66.21875 33.296875 66.21875 
Q 25.25 66.21875 20.875 63.09375 
Q 16.5 59.96875 16.5 54.203125 
Q 16.5 49.359375 19.40625 46.890625 
Q 22.3125 44.4375 30.421875 42.921875 
L 36.375 41.703125 
Q 47.40625 39.59375 52.65625 34.296875 
Q 57.90625 29 57.90625 20.125 
Q 57.90625 9.515625 50.796875 4.046875 
Q 43.703125 -1.421875 29.984375 -1.421875 
Q 24.8125 -1.421875 18.96875 -0.25 
Q 13.140625 0.921875 6.890625 3.21875 
L 6.890625 13.375 
Q 12.890625 10.015625 18.65625 8.296875 
Q 24.421875 6.59375 29.984375 6.59375 
Q 38.421875 6.59375 43.015625 9.90625 
Q 47.609375 13.234375 47.609375 19.390625 
Q 47.609375 24.75 44.3125 27.78125 
Q 41.015625 30.8125 33.5 32.328125 
L 27.484375 33.5 
Q 16.453125 35.6875 11.515625 40.375 
Q 6.59375 45.0625 6.59375 53.421875 
Q 6.59375 63.09375 13.40625 68.65625 
Q 20.21875 74.21875 32.171875 74.21875 
Q 37.3125 74.21875 42.625 73.28125 
Q 47.953125 72.359375 53.515625 70.515625 
z
" id="DejaVuSans-83"/>
      <path d="M 5.515625 54.6875 
L 48.1875 54.6875 
L 48.1875 46.484375 
L 14.40625 7.171875 
L 48.1875 7.171875 
L 48.1875 0 
L 4.296875 0 
L 4.296875 8.203125 
L 38.09375 47.515625 
L 5.515625 47.515625 
z
" id="DejaVuSans-122"/>
      <path id="DejaVuSans-32"/>
      <path d="M 18.109375 8.203125 
L 18.109375 -20.796875 
L 9.078125 -20.796875 
L 9.078125 54.6875 
L 18.109375 54.6875 
L 18.109375 46.390625 
Q 20.953125 51.265625 25.265625 53.625 
Q 29.59375 56 35.59375 56 
Q 45.5625 56 51.78125 48.09375 
Q 58.015625 40.1875 58.015625 27.296875 
Q 58.015625 14.40625 51.78125 6.484375 
Q 45.5625 -1.421875 35.59375 -1.421875 
Q 29.59375 -1.421875 25.265625 0.953125 
Q 20.953125 3.328125 18.109375 8.203125 
z
M 48.6875 27.296875 
Q 48.6875 37.203125 44.609375 42.84375 
Q 40.53125 48.484375 33.40625 48.484375 
Q 26.265625 48.484375 22.1875 42.84375 
Q 18.109375 37.203125 18.109375 27.296875 
Q 18.109375 17.390625 22.1875 11.75 
Q 26.265625 6.109375 33.40625 6.109375 
Q 40.53125 6.109375 44.609375 11.75 
Q 48.6875 17.390625 48.6875 27.296875 
z
" id="DejaVuSans-112"/>
      <path d="M 48.78125 52.59375 
L 48.78125 44.1875 
Q 44.96875 46.296875 41.140625 47.34375 
Q 37.3125 48.390625 33.40625 48.390625 
Q 24.65625 48.390625 19.8125 42.84375 
Q 14.984375 37.3125 14.984375 27.296875 
Q 14.984375 17.28125 19.8125 11.734375 
Q 24.65625 6.203125 33.40625 6.203125 
Q 37.3125 6.203125 41.140625 7.25 
Q 44.96875 8.296875 48.78125 10.40625 
L 48.78125 2.09375 
Q 45.015625 0.34375 40.984375 -0.53125 
Q 36.96875 -1.421875 32.421875 -1.421875 
Q 20.0625 -1.421875 12.78125 6.34375 
Q 5.515625 14.109375 5.515625 27.296875 
Q 5.515625 40.671875 12.859375 48.328125 
Q 20.21875 56 33.015625 56 
Q 37.15625 56 41.109375 55.140625 
Q 45.0625 54.296875 48.78125 52.59375 
z
" id="DejaVuSans-99"/>
     </defs>
     <g transform="translate(25.432812 215.520969)rotate(-90)scale(0.1 -0.1)">
      <use xlink:href="#DejaVuSans-83"/>
      <use x="63.476562" xlink:href="#DejaVuSans-105"/>
      <use x="91.259766" xlink:href="#DejaVuSans-122"/>
      <use x="143.75" xlink:href="#DejaVuSans-101"/>
      <use x="205.273438" xlink:href="#DejaVuSans-32"/>
      <use x="237.060547" xlink:href="#DejaVuSans-112"/>
      <use x="300.537109" xlink:href="#DejaVuSans-101"/>
      <use x="362.060547" xlink:href="#DejaVuSans-114"/>
      <use x="403.173828" xlink:href="#DejaVuSans-32"/>
      <use x="434.960938" xlink:href="#DejaVuSans-83"/>
      <use x="498.4375" xlink:href="#DejaVuSans-112"/>
      <use x="561.914062" xlink:href="#DejaVuSans-101"/>
      <use x="623.4375" xlink:href="#DejaVuSans-99"/>
      <use x="678.417969" xlink:href="#DejaVuSans-105"/>
      <use x="706.201172" xlink:href="#DejaVuSans-101"/>
      <use x="767.724609" xlink:href="#DejaVuSans-115"/>
     </g>
    </g>
   </g>
   <g id="patch_3">
    <path d="M 57.6 307.584 
L 57.6 41.472 
" style="fill:none;stroke:#000000;stroke-linecap:square;stroke-linejoin:miter;stroke-width:0.8;"/>
   </g>
   <g id="patch_4">
    <path d="M 414.72 307.584 
L 414.72 41.472 
" style="fill:none;stroke:#000000;stroke-linecap:square;stroke-linejoin:miter;stroke-width:0.8;"/>
   </g>
   <g id="patch_5">
    <path d="M 57.6 307.584 
L 414.72 307.584 
" style="fill:none;stroke:#000000;stroke-linecap:square;stroke-linejoin:miter;stroke-width:0.8;"/>
   </g>
   <g id="patch_6">
    <path d="M 57.6 41.472 
L 414.72 41.472 
" style="fill:none;stroke:#000000;stroke-linecap:square;stroke-linejoin:miter;stroke-width:0.8;"/>
   </g>
   <g id="text_17">
    <!-- Speciation -->
    <g transform="translate(204.714375 35.472)scale(0.12 -0.12)">
     <use xlink:href="#DejaVuSans-83"/>
     <use x="63.476562" xlink:href="#DejaVuSans-112"/>
     <use x="126.953125" xlink:href="#DejaVuSans-101"/>
     <use x="188.476562" xlink:href="#DejaVuSans-99"/>
     <use x="243.457031" xlink:href="#DejaVuSans-105"/>
     <use x="271.240234" xlink:href="#DejaVuSans-97"/>
     <use x="332.519531" xlink:href="#DejaVuSans-116"/>
     <use x="371.728516" xlink:href="#DejaVuSans-105"/>
     <use x="399.511719" xlink:href="#DejaVuSans-111"/>
     <use x="460.693359" xlink:href="#DejaVuSans-110"/>
    </g>
   </g>
  </g>
 </g>
 <defs>
  <clipPath id="p0b63cb825a">
   <rect height="266.112" width="357.12" x="57.6" y="41.472"/>
  </clipPath>
 </defs>
</svg>
