<?xml version="1.0" encoding="UTF-8" standalone="no"?>
<!DOCTYPE svg PUBLIC "-//W3C//DTD SVG 1.1//EN"
 "http://www.w3.org/Graphics/SVG/1.1/DTD/svg11.dtd">
<!-- Generated by graphviz version 2.38.0 (20140413.2041)
 -->
<!-- Title: %3 Pages: 1 -->
<svg width="172pt" height="294pt"
 viewBox="0.00 0.00 172.01 293.81" xmlns="http://www.w3.org/2000/svg" xmlns:xlink="http://www.w3.org/1999/xlink">
<g id="graph0" class="graph" transform="scale(1 1) rotate(0) translate(4 289.806)">
<title>%3</title>
<polygon fill="white" stroke="none" points="-4,4 -4,-289.806 168.008,-289.806 168.008,4 -4,4"/>
<!-- A -->
<g id="node1" class="node"><title>A</title>
<polygon fill="lightgray" stroke="black" points="28.0079,-285.806 5.00793,-285.806 5.00793,-267.806 28.0079,-267.806 28.0079,-285.806"/>
<text text-anchor="middle" x="16.5079" y="-274.606" font-family="Times New Roman,serif" font-size="9.00">A</text>
</g>
<!-- A XOR B -->
<g id="node3" class="node"><title>A XOR B</title>
<ellipse fill="lightblue" stroke="black" cx="41.5079" cy="-37.4767" rx="37.4533" ry="37.4533"/>
<text text-anchor="middle" x="41.5079" y="-35.2767" font-family="Times New Roman,serif" font-size="9.00">A XOR B</text>
</g>
<!-- A&#45;&gt;A XOR B -->
<g id="edge1" class="edge"><title>A&#45;&gt;A XOR B</title>
<path fill="none" stroke="green" stroke-width="0.297393" d="M13.531,-267.508C10.5637,-258.762 6.21049,-244.52 4.50793,-231.806 -2.63343,-178.48 -1.31954,-163.204 11.5079,-110.953 13.943,-101.034 17.5262,-90.7065 21.3758,-81.0607"/>
<polygon fill="green" stroke="green" stroke-width="0.297393" points="24.6678,-82.2598 25.2815,-71.6828 18.2058,-79.5685 24.6678,-82.2598"/>
</g>
<!-- 154 -->
<g id="node4" class="node"><title>154</title>
<ellipse fill="white" stroke="black" cx="41.5079" cy="-132.167" rx="21.4286" ry="21.4286"/>
<text text-anchor="middle" x="41.5079" y="-129.967" font-family="Times New Roman,serif" font-size="9.00">154</text>
</g>
<!-- A&#45;&gt;154 -->
<g id="edge5" class="edge"><title>A&#45;&gt;154</title>
<path fill="none" stroke="green" stroke-width="0.253095" stroke-dasharray="1,5" d="M14.4137,-267.551C10.8191,-251.992 4.50528,-217.374 11.5079,-189.38 14.1655,-178.756 19.2541,-167.942 24.4961,-158.674"/>
<polygon fill="green" stroke="green" stroke-width="0.253095" points="27.5648,-160.362 29.7049,-149.986 21.5611,-156.763 27.5648,-160.362"/>
</g>
<!-- 718 -->
<g id="node5" class="node"><title>718</title>
<ellipse fill="white" stroke="black" cx="41.5079" cy="-210.593" rx="21.4286" ry="21.4286"/>
<text text-anchor="middle" x="41.5079" y="-208.393" font-family="Times New Roman,serif" font-size="9.00">718</text>
</g>
<!-- A&#45;&gt;718 -->
<g id="edge7" class="edge"><title>A&#45;&gt;718</title>
<path fill="none" stroke="green" stroke-width="0.301318" d="M19.6742,-267.673C22.4024,-260.666 26.5087,-250.119 30.4267,-240.055"/>
<polygon fill="green" stroke="green" stroke-width="0.301318" points="33.7077,-241.275 34.0743,-230.687 27.1847,-238.735 33.7077,-241.275"/>
</g>
<!-- 680 -->
<g id="node6" class="node"><title>680</title>
<ellipse fill="white" stroke="black" cx="101.508" cy="-210.593" rx="21.4286" ry="21.4286"/>
<text text-anchor="middle" x="101.508" y="-208.393" font-family="Times New Roman,serif" font-size="9.00">680</text>
</g>
<!-- A&#45;&gt;680 -->
<g id="edge6" class="edge"><title>A&#45;&gt;680</title>
<path fill="none" stroke="green" stroke-width="0.377108" d="M27.2732,-267.673C39.6747,-258.305 60.452,-242.609 76.8763,-230.201"/>
<polygon fill="green" stroke="green" stroke-width="0.377108" points="79.1316,-232.884 85.0009,-224.063 74.9121,-227.298 79.1316,-232.884"/>
</g>
<!-- B -->
<g id="node2" class="node"><title>B</title>
<polygon fill="lightgray" stroke="black" points="164.008,-219.593 141.008,-219.593 141.008,-201.593 164.008,-201.593 164.008,-219.593"/>
<text text-anchor="middle" x="152.508" y="-208.393" font-family="Times New Roman,serif" font-size="9.00">B</text>
</g>
<!-- B&#45;&gt;A XOR B -->
<g id="edge2" class="edge"><title>B&#45;&gt;A XOR B</title>
<path fill="none" stroke="green" stroke-width="0.283806" d="M147.154,-201.34C132.953,-179.447 93.6025,-118.785 67.1455,-77.9992"/>
<polygon fill="green" stroke="green" stroke-width="0.283806" points="69.9234,-75.8502 61.5449,-69.3654 64.0507,-79.6597 69.9234,-75.8502"/>
</g>
<!-- B&#45;&gt;154 -->
<g id="edge3" class="edge"><title>B&#45;&gt;154</title>
<path fill="none" stroke="green" stroke-width="0.303768" d="M144.689,-201.308C140.883,-197.478 136.137,-192.989 131.508,-189.38 111.499,-173.777 86.9694,-158.692 68.5748,-148.084"/>
<polygon fill="green" stroke="green" stroke-width="0.303768" points="70.2512,-145.011 59.8284,-143.109 66.7907,-151.095 70.2512,-145.011"/>
</g>
<!-- 154&#45;&gt;A XOR B -->
<g id="edge4" class="edge"><title>154&#45;&gt;A XOR B</title>
<path fill="none" stroke="red" stroke-width="0.531007" d="M41.5079,-110.596C41.5079,-103 41.5079,-94.0512 41.5079,-85.0886"/>
<polygon fill="red" stroke="red" stroke-width="0.531007" points="45.008,-85.0353 41.5079,-75.0353 38.008,-85.0353 45.008,-85.0353"/>
</g>
<!-- 718&#45;&gt;154 -->
<g id="edge8" class="edge"><title>718&#45;&gt;154</title>
<path fill="none" stroke="green" stroke-width="0.380894" d="M41.5079,-189.112C41.5079,-181.253 41.5079,-172.109 41.5079,-163.519"/>
<polygon fill="green" stroke="green" stroke-width="0.380894" points="45.008,-163.439 41.5079,-153.439 38.008,-163.439 45.008,-163.439"/>
</g>
</g>
</svg>
