<?xml version="1.0" encoding="UTF-8" standalone="no"?>
<!DOCTYPE svg PUBLIC "-//W3C//DTD SVG 1.1//EN"
 "http://www.w3.org/Graphics/SVG/1.1/DTD/svg11.dtd">
<!-- Generated by graphviz version 2.38.0 (20140413.2041)
 -->
<!-- Title: %3 Pages: 1 -->
<svg width="188pt" height="200pt"
 viewBox="0.00 0.00 187.50 199.82" xmlns="http://www.w3.org/2000/svg" xmlns:xlink="http://www.w3.org/1999/xlink">
<g id="graph0" class="graph" transform="scale(1 1) rotate(0) translate(4 195.823)">
<title>%3</title>
<polygon fill="white" stroke="none" points="-4,4 -4,-195.823 183.5,-195.823 183.5,4 -4,4"/>
<!-- x -->
<g id="node1" class="node"><title>x</title>
<polygon fill="lightgray" stroke="black" points="20,-191.823 0,-191.823 0,-173.823 20,-173.823 20,-191.823"/>
<text text-anchor="middle" x="10" y="-180.623" font-family="Times New Roman,serif" font-size="9.00">x</text>
</g>
<!-- control -->
<g id="node5" class="node"><title>control</title>
<ellipse fill="lightblue" stroke="black" cx="84" cy="-29.6985" rx="29.8983" ry="29.8983"/>
<text text-anchor="middle" x="84" y="-27.4985" font-family="Times New Roman,serif" font-size="9.00">control</text>
</g>
<!-- x&#45;&gt;control -->
<g id="edge3" class="edge"><title>x&#45;&gt;control</title>
<path fill="none" stroke="red" stroke-width="0.254257" d="M10.336,-173.76C11.277,-157.939 14.816,-122.048 28,-95.397 34.7847,-81.6822 45.1751,-68.5301 55.1715,-57.708"/>
<polygon fill="red" stroke="red" stroke-width="0.254257" points="57.9185,-59.9007 62.3236,-50.265 52.8711,-55.0505 57.9185,-59.9007"/>
</g>
<!-- 402 -->
<g id="node6" class="node"><title>402</title>
<ellipse fill="white" stroke="black" cx="58" cy="-116.61" rx="21.4286" ry="21.4286"/>
<text text-anchor="middle" x="58" y="-114.41" font-family="Times New Roman,serif" font-size="9.00">402</text>
</g>
<!-- x&#45;&gt;402 -->
<g id="edge4" class="edge"><title>x&#45;&gt;402</title>
<path fill="none" stroke="red" stroke-width="0.19561" d="M16.0792,-173.691C21.9894,-165.784 31.2682,-153.371 39.5953,-142.232"/>
<polygon fill="red" stroke="red" stroke-width="0.19561" points="42.5221,-144.162 45.706,-134.057 36.9154,-139.971 42.5221,-144.162"/>
</g>
<!-- dx -->
<g id="node2" class="node"><title>dx</title>
<polygon fill="lightgray" stroke="black" points="122.5,-125.61 97.5,-125.61 97.5,-107.61 122.5,-107.61 122.5,-125.61"/>
<text text-anchor="middle" x="110" y="-114.41" font-family="Times New Roman,serif" font-size="9.00">dx</text>
</g>
<!-- dx&#45;&gt;control -->
<g id="edge6" class="edge"><title>dx&#45;&gt;control</title>
<path fill="none" stroke="green" stroke-width="0.351145" d="M107.507,-107.468C104.719,-98.3624 100.004,-82.9659 95.5262,-68.3412"/>
<polygon fill="green" stroke="green" stroke-width="0.351145" points="98.7648,-66.9635 92.4903,-58.4265 92.0716,-69.013 98.7648,-66.9635"/>
</g>
<!-- theta -->
<g id="node3" class="node"><title>theta</title>
<polygon fill="lightgray" stroke="black" points="75.5,-191.823 40.5,-191.823 40.5,-173.823 75.5,-173.823 75.5,-191.823"/>
<text text-anchor="middle" x="58" y="-180.623" font-family="Times New Roman,serif" font-size="9.00">theta</text>
</g>
<!-- theta&#45;&gt;402 -->
<g id="edge5" class="edge"><title>theta&#45;&gt;402</title>
<path fill="none" stroke="red" stroke-width="0.539949" d="M58,-173.691C58,-167.148 58,-157.519 58,-148.079"/>
<polygon fill="red" stroke="red" stroke-width="0.539949" points="61.5001,-148.065 58,-138.066 54.5001,-148.066 61.5001,-148.065"/>
</g>
<!-- dtheta -->
<g id="node4" class="node"><title>dtheta</title>
<polygon fill="lightgray" stroke="black" points="179.5,-125.61 140.5,-125.61 140.5,-107.61 179.5,-107.61 179.5,-125.61"/>
<text text-anchor="middle" x="160" y="-114.41" font-family="Times New Roman,serif" font-size="9.00">dtheta</text>
</g>
<!-- dtheta&#45;&gt;control -->
<g id="edge1" class="edge"><title>dtheta&#45;&gt;control</title>
<path fill="none" stroke="green" stroke-width="0.856041" d="M152.713,-107.468C142.983,-96.5976 125.229,-76.7618 110.205,-59.9766"/>
<polygon fill="green" stroke="green" stroke-width="0.856041" points="112.811,-57.6393 103.533,-52.5223 107.595,-62.3078 112.811,-57.6393"/>
</g>
<!-- 402&#45;&gt;control -->
<g id="edge2" class="edge"><title>402&#45;&gt;control</title>
<path fill="none" stroke="red" stroke-width="0.894797" d="M64.0303,-95.9163C66.5688,-87.626 69.6107,-77.6917 72.5459,-68.1056"/>
<polygon fill="red" stroke="red" stroke-width="0.894797" points="75.9593,-68.9121 75.5406,-58.3256 69.2661,-66.8626 75.9593,-68.9121"/>
</g>
</g>
</svg>
