<?xml version="1.0" encoding="UTF-8" standalone="no"?>
<!DOCTYPE svg PUBLIC "-//W3C//DTD SVG 1.1//EN"
 "http://www.w3.org/Graphics/SVG/1.1/DTD/svg11.dtd">
<!-- Generated by graphviz version 2.38.0 (20140413.2041)
 -->
<!-- Title: %3 Pages: 1 -->
<svg width="182pt" height="121pt"
 viewBox="0.00 0.00 181.75 121.40" xmlns="http://www.w3.org/2000/svg" xmlns:xlink="http://www.w3.org/1999/xlink">
<g id="graph0" class="graph" transform="scale(1 1) rotate(0) translate(4 117.397)">
<title>%3</title>
<polygon fill="white" stroke="none" points="-4,4 -4,-117.397 177.749,-117.397 177.749,4 -4,4"/>
<!-- x -->
<g id="node1" class="node"><title>x</title>
<polygon fill="lightgray" stroke="black" points="20,-113.397 0,-113.397 0,-95.397 20,-95.397 20,-113.397"/>
<text text-anchor="middle" x="10" y="-102.197" font-family="Times New Roman,serif" font-size="9.00">x</text>
</g>
<!-- control -->
<g id="node5" class="node"><title>control</title>
<ellipse fill="lightblue" stroke="black" cx="71" cy="-29.6985" rx="29.8983" ry="29.8983"/>
<text text-anchor="middle" x="71" y="-27.4985" font-family="Times New Roman,serif" font-size="9.00">control</text>
</g>
<!-- x&#45;&gt;control -->
<g id="edge2" class="edge"><title>x&#45;&gt;control</title>
<path fill="none" stroke="green" stroke-width="0.206409" stroke-dasharray="1,5" d="M16.7611,-95.3392C23.7333,-87.0299 35.0367,-73.5587 45.5249,-61.0591"/>
<polygon fill="green" stroke="green" stroke-width="0.206409" points="48.4991,-62.9597 52.2458,-53.0494 43.1367,-58.4602 48.4991,-62.9597"/>
</g>
<!-- dx -->
<g id="node2" class="node"><title>dx</title>
<polygon fill="lightgray" stroke="black" points="120.5,-113.397 95.5,-113.397 95.5,-95.397 120.5,-95.397 120.5,-113.397"/>
<text text-anchor="middle" x="108" y="-102.197" font-family="Times New Roman,serif" font-size="9.00">dx</text>
</g>
<!-- dx&#45;&gt;control -->
<g id="edge3" class="edge"><title>dx&#45;&gt;control</title>
<path fill="none" stroke="green" stroke-width="0.423165" d="M103.899,-95.3392C100.195,-88.061 94.4749,-76.8225 88.8372,-65.7454"/>
<polygon fill="green" stroke="green" stroke-width="0.423165" points="91.8221,-63.8937 84.1669,-56.5692 85.5836,-67.0689 91.8221,-63.8937"/>
</g>
<!-- 1507 -->
<g id="node6" class="node"><title>1507</title>
<ellipse fill="white" stroke="black" cx="149" cy="-29.6985" rx="25" ry="25"/>
<text text-anchor="middle" x="149" y="-27.4985" font-family="Times New Roman,serif" font-size="9.00">1507</text>
</g>
<!-- dx&#45;&gt;1507 -->
<g id="edge6" class="edge"><title>dx&#45;&gt;1507</title>
<path fill="none" stroke="red" stroke-width="0.373084" d="M112.544,-95.3392C117.276,-86.9502 124.974,-73.2998 132.08,-60.6997"/>
<polygon fill="red" stroke="red" stroke-width="0.373084" points="135.235,-62.2303 137.099,-51.8007 129.138,-58.7916 135.235,-62.2303"/>
</g>
<!-- theta -->
<g id="node3" class="node"><title>theta</title>
<polygon fill="lightgray" stroke="black" points="173.5,-113.397 138.5,-113.397 138.5,-95.397 173.5,-95.397 173.5,-113.397"/>
<text text-anchor="middle" x="156" y="-102.197" font-family="Times New Roman,serif" font-size="9.00">theta</text>
</g>
<!-- theta&#45;&gt;control -->
<g id="edge4" class="edge"><title>theta&#45;&gt;control</title>
<path fill="none" stroke="green" stroke-width="0.225431" d="M146.579,-95.3392C135.584,-85.9353 116.858,-69.9199 100.798,-56.1838"/>
<polygon fill="green" stroke="green" stroke-width="0.225431" points="103.048,-53.5026 93.1732,-49.6627 98.4979,-58.8223 103.048,-53.5026"/>
</g>
<!-- theta&#45;&gt;1507 -->
<g id="edge5" class="edge"><title>theta&#45;&gt;1507</title>
<path fill="none" stroke="green" stroke-width="0.210408" stroke-dasharray="1,5" d="M155.224,-95.3392C154.505,-87.8669 153.383,-76.2203 152.289,-64.8597"/>
<polygon fill="green" stroke="green" stroke-width="0.210408" points="155.747,-64.2533 151.305,-54.6349 148.779,-64.9243 155.747,-64.2533"/>
</g>
<!-- dtheta -->
<g id="node4" class="node"><title>dtheta</title>
<polygon fill="lightgray" stroke="black" points="77.5,-113.397 38.5,-113.397 38.5,-95.397 77.5,-95.397 77.5,-113.397"/>
<text text-anchor="middle" x="58" y="-102.197" font-family="Times New Roman,serif" font-size="9.00">dtheta</text>
</g>
<!-- dtheta&#45;&gt;control -->
<g id="edge1" class="edge"><title>dtheta&#45;&gt;control</title>
<path fill="none" stroke="green" stroke-width="0.858879" d="M59.4409,-95.3392C60.611,-88.7957 62.3535,-79.0512 64.1329,-69.1009"/>
<polygon fill="green" stroke="green" stroke-width="0.858879" points="67.5896,-69.6529 65.9046,-59.1929 60.6989,-68.4206 67.5896,-69.6529"/>
</g>
</g>
</svg>
