<?xml version="1.0" encoding="utf-8" standalone="no"?>
<!DOCTYPE svg PUBLIC "-//W3C//DTD SVG 1.1//EN"
  "http://www.w3.org/Graphics/SVG/1.1/DTD/svg11.dtd">
<!-- Created with matplotlib (https://matplotlib.org/) -->
<svg height="345.6pt" version="1.1" viewBox="0 0 460.8 345.6" width="460.8pt" xmlns="http://www.w3.org/2000/svg" xmlns:xlink="http://www.w3.org/1999/xlink">
 <defs>
  <style type="text/css">
*{stroke-linecap:butt;stroke-linejoin:round;}
  </style>
 </defs>
 <g id="figure_1">
  <g id="patch_1">
   <path d="M 0 345.6 
L 460.8 345.6 
L 460.8 0 
L 0 0 
z
" style="fill:#ffffff;"/>
  </g>
  <g id="axes_1">
   <g id="patch_2">
    <path d="M 57.6 307.584 
L 414.72 307.584 
L 414.72 41.472 
L 57.6 41.472 
z
" style="fill:#ffffff;"/>
   </g>
   <g id="PolyCollection_1">
    <path clip-path="url(#pec0925e01f)" d="M 73.832727 254.70085 
L 73.832727 307.584 
L 82.157203 307.584 
L 90.481678 307.584 
L 98.806154 307.584 
L 107.130629 307.584 
L 115.455105 307.584 
L 123.77958 307.584 
L 132.104056 307.584 
L 140.428531 307.584 
L 148.753007 307.584 
L 157.077483 307.584 
L 165.401958 307.584 
L 173.726434 307.584 
L 182.050909 307.584 
L 190.375385 307.584 
L 198.69986 307.584 
L 207.024336 307.584 
L 215.348811 307.584 
L 223.673287 307.584 
L 231.997762 307.584 
L 240.322238 307.584 
L 248.646713 307.584 
L 256.971189 307.584 
L 265.295664 307.584 
L 273.62014 307.584 
L 281.944615 307.584 
L 290.269091 307.584 
L 298.593566 307.584 
L 306.918042 307.584 
L 315.242517 307.584 
L 323.566993 307.584 
L 331.891469 307.584 
L 340.215944 307.584 
L 348.54042 307.584 
L 356.864895 307.584 
L 365.189371 307.584 
L 373.513846 307.584 
L 381.838322 307.584 
L 390.162797 307.584 
L 398.487273 307.584 
L 398.487273 277.650142 
L 398.487273 277.650142 
L 390.162797 306.586205 
L 381.838322 268.669984 
L 373.513846 265.676598 
L 365.189371 279.645732 
L 356.864895 271.66337 
L 348.54042 265.676598 
L 340.215944 281.641323 
L 331.891469 281.641323 
L 323.566993 270.665575 
L 315.242517 287.628094 
L 306.918042 292.617071 
L 298.593566 282.639118 
L 290.269091 243.725102 
L 281.944615 261.685417 
L 273.62014 289.623685 
L 265.295664 287.628094 
L 256.971189 295.610457 
L 248.646713 290.62148 
L 240.322238 280.643528 
L 231.997762 280.643528 
L 223.673287 293.614866 
L 215.348811 263.681008 
L 207.024336 268.669984 
L 198.69986 290.62148 
L 190.375385 298.603843 
L 182.050909 295.610457 
L 173.726434 291.619276 
L 165.401958 290.62148 
L 157.077483 299.601638 
L 148.753007 251.707465 
L 140.428531 264.678803 
L 132.104056 246.718488 
L 123.77958 261.685417 
L 115.455105 271.66337 
L 107.130629 236.740535 
L 98.806154 274.656756 
L 90.481678 292.617071 
L 82.157203 289.623685 
L 73.832727 254.70085 
z
" style="fill:#1f77b4;"/>
   </g>
   <g id="PolyCollection_2">
    <path clip-path="url(#pec0925e01f)" d="M 73.832727 205.808882 
L 73.832727 254.70085 
L 82.157203 289.623685 
L 90.481678 292.617071 
L 98.806154 274.656756 
L 107.130629 236.740535 
L 115.455105 271.66337 
L 123.77958 261.685417 
L 132.104056 246.718488 
L 140.428531 264.678803 
L 148.753007 251.707465 
L 157.077483 299.601638 
L 165.401958 290.62148 
L 173.726434 291.619276 
L 182.050909 295.610457 
L 190.375385 298.603843 
L 198.69986 290.62148 
L 207.024336 268.669984 
L 215.348811 263.681008 
L 223.673287 293.614866 
L 231.997762 280.643528 
L 240.322238 280.643528 
L 248.646713 290.62148 
L 256.971189 295.610457 
L 265.295664 287.628094 
L 273.62014 289.623685 
L 281.944615 261.685417 
L 290.269091 243.725102 
L 298.593566 282.639118 
L 306.918042 292.617071 
L 315.242517 287.628094 
L 323.566993 270.665575 
L 331.891469 281.641323 
L 340.215944 281.641323 
L 348.54042 265.676598 
L 356.864895 271.66337 
L 365.189371 279.645732 
L 373.513846 265.676598 
L 381.838322 268.669984 
L 390.162797 306.586205 
L 398.487273 277.650142 
L 398.487273 236.740535 
L 398.487273 236.740535 
L 390.162797 267.672189 
L 381.838322 227.760378 
L 373.513846 252.70526 
L 365.189371 240.731717 
L 356.864895 243.725102 
L 348.54042 227.760378 
L 340.215944 252.70526 
L 331.891469 259.689827 
L 323.566993 254.70085 
L 315.242517 266.674394 
L 306.918042 271.66337 
L 298.593566 257.694236 
L 290.269091 221.773606 
L 281.944615 244.722898 
L 273.62014 274.656756 
L 265.295664 258.692031 
L 256.971189 278.647937 
L 248.646713 275.654551 
L 240.322238 263.681008 
L 231.997762 247.716283 
L 223.673287 266.674394 
L 215.348811 244.722898 
L 207.024336 262.683213 
L 198.69986 283.636913 
L 190.375385 289.623685 
L 182.050909 287.628094 
L 173.726434 272.661165 
L 165.401958 271.66337 
L 157.077483 287.628094 
L 148.753007 247.716283 
L 140.428531 256.696441 
L 132.104056 233.74715 
L 123.77958 202.815496 
L 115.455105 191.839748 
L 107.130629 229.755969 
L 98.806154 252.70526 
L 90.481678 271.66337 
L 82.157203 260.687622 
L 73.832727 205.808882 
z
" style="fill:#ff7f0e;"/>
   </g>
   <g id="PolyCollection_3">
    <path clip-path="url(#pec0925e01f)" d="M 73.832727 181.861795 
L 73.832727 205.808882 
L 82.157203 260.687622 
L 90.481678 271.66337 
L 98.806154 252.70526 
L 107.130629 229.755969 
L 115.455105 191.839748 
L 123.77958 202.815496 
L 132.104056 233.74715 
L 140.428531 256.696441 
L 148.753007 247.716283 
L 157.077483 287.628094 
L 165.401958 271.66337 
L 173.726434 272.661165 
L 182.050909 287.628094 
L 190.375385 289.623685 
L 198.69986 283.636913 
L 207.024336 262.683213 
L 215.348811 244.722898 
L 223.673287 266.674394 
L 231.997762 247.716283 
L 240.322238 263.681008 
L 248.646713 275.654551 
L 256.971189 278.647937 
L 265.295664 258.692031 
L 273.62014 274.656756 
L 281.944615 244.722898 
L 290.269091 221.773606 
L 298.593566 257.694236 
L 306.918042 271.66337 
L 315.242517 266.674394 
L 323.566993 254.70085 
L 331.891469 259.689827 
L 340.215944 252.70526 
L 348.54042 227.760378 
L 356.864895 243.725102 
L 365.189371 240.731717 
L 373.513846 252.70526 
L 381.838322 227.760378 
L 390.162797 267.672189 
L 398.487273 236.740535 
L 398.487273 228.758173 
L 398.487273 228.758173 
L 390.162797 241.729512 
L 381.838322 209.800063 
L 373.513846 244.722898 
L 365.189371 210.797858 
L 356.864895 230.753764 
L 348.54042 215.786835 
L 340.215944 243.725102 
L 331.891469 249.711874 
L 323.566993 247.716283 
L 315.242517 261.685417 
L 306.918042 257.694236 
L 298.593566 245.720693 
L 290.269091 209.800063 
L 281.944615 237.738331 
L 273.62014 232.749354 
L 265.295664 244.722898 
L 256.971189 266.674394 
L 248.646713 270.665575 
L 240.322238 258.692031 
L 231.997762 240.731717 
L 223.673287 261.685417 
L 215.348811 228.758173 
L 207.024336 220.775811 
L 198.69986 262.683213 
L 190.375385 273.658961 
L 182.050909 266.674394 
L 173.726434 250.709669 
L 165.401958 247.716283 
L 157.077483 258.692031 
L 148.753007 227.760378 
L 140.428531 236.740535 
L 132.104056 211.795654 
L 123.77958 175.875024 
L 115.455105 175.875024 
L 107.130629 207.804472 
L 98.806154 232.749354 
L 90.481678 253.703055 
L 82.157203 242.727307 
L 73.832727 181.861795 
z
" style="fill:#2ca02c;"/>
   </g>
   <g id="PolyCollection_4">
    <path clip-path="url(#pec0925e01f)" d="M 73.832727 176.872819 
L 73.832727 181.861795 
L 82.157203 242.727307 
L 90.481678 253.703055 
L 98.806154 232.749354 
L 107.130629 207.804472 
L 115.455105 175.875024 
L 123.77958 175.875024 
L 132.104056 211.795654 
L 140.428531 236.740535 
L 148.753007 227.760378 
L 157.077483 258.692031 
L 165.401958 247.716283 
L 173.726434 250.709669 
L 182.050909 266.674394 
L 190.375385 273.658961 
L 198.69986 262.683213 
L 207.024336 220.775811 
L 215.348811 228.758173 
L 223.673287 261.685417 
L 231.997762 240.731717 
L 240.322238 258.692031 
L 248.646713 270.665575 
L 256.971189 266.674394 
L 265.295664 244.722898 
L 273.62014 232.749354 
L 281.944615 237.738331 
L 290.269091 209.800063 
L 298.593566 245.720693 
L 306.918042 257.694236 
L 315.242517 261.685417 
L 323.566993 247.716283 
L 331.891469 249.711874 
L 340.215944 243.725102 
L 348.54042 215.786835 
L 356.864895 230.753764 
L 365.189371 210.797858 
L 373.513846 244.722898 
L 381.838322 209.800063 
L 390.162797 241.729512 
L 398.487273 228.758173 
L 398.487273 221.773606 
L 398.487273 221.773606 
L 390.162797 234.744945 
L 381.838322 198.824315 
L 373.513846 230.753764 
L 365.189371 199.82211 
L 356.864895 215.786835 
L 348.54042 198.824315 
L 340.215944 223.769197 
L 331.891469 239.733921 
L 323.566993 227.760378 
L 315.242517 229.755969 
L 306.918042 230.753764 
L 298.593566 229.755969 
L 290.269091 184.855181 
L 281.944615 186.850772 
L 273.62014 212.793449 
L 265.295664 235.74274 
L 256.971189 230.753764 
L 248.646713 255.698646 
L 240.322238 238.736126 
L 231.997762 216.78463 
L 223.673287 232.749354 
L 215.348811 191.839748 
L 207.024336 214.789039 
L 198.69986 245.720693 
L 190.375385 257.694236 
L 182.050909 250.709669 
L 173.726434 246.718488 
L 165.401958 242.727307 
L 157.077483 253.703055 
L 148.753007 222.771402 
L 140.428531 230.753764 
L 132.104056 206.806677 
L 123.77958 172.881638 
L 115.455105 171.883843 
L 107.130629 201.817701 
L 98.806154 227.760378 
L 90.481678 249.711874 
L 82.157203 239.733921 
L 73.832727 176.872819 
z
" style="fill:#d62728;"/>
   </g>
   <g id="PolyCollection_5">
    <path clip-path="url(#pec0925e01f)" d="M 73.832727 175.875024 
L 73.832727 176.872819 
L 82.157203 239.733921 
L 90.481678 249.711874 
L 98.806154 227.760378 
L 107.130629 201.817701 
L 115.455105 171.883843 
L 123.77958 172.881638 
L 132.104056 206.806677 
L 140.428531 230.753764 
L 148.753007 222.771402 
L 157.077483 253.703055 
L 165.401958 242.727307 
L 173.726434 246.718488 
L 182.050909 250.709669 
L 190.375385 257.694236 
L 198.69986 245.720693 
L 207.024336 214.789039 
L 215.348811 191.839748 
L 223.673287 232.749354 
L 231.997762 216.78463 
L 240.322238 238.736126 
L 248.646713 255.698646 
L 256.971189 230.753764 
L 265.295664 235.74274 
L 273.62014 212.793449 
L 281.944615 186.850772 
L 290.269091 184.855181 
L 298.593566 229.755969 
L 306.918042 230.753764 
L 315.242517 229.755969 
L 323.566993 227.760378 
L 331.891469 239.733921 
L 340.215944 223.769197 
L 348.54042 198.824315 
L 356.864895 215.786835 
L 365.189371 199.82211 
L 373.513846 230.753764 
L 381.838322 198.824315 
L 390.162797 234.744945 
L 398.487273 221.773606 
L 398.487273 221.773606 
L 398.487273 221.773606 
L 390.162797 234.744945 
L 381.838322 198.824315 
L 373.513846 230.753764 
L 365.189371 199.82211 
L 356.864895 215.786835 
L 348.54042 198.824315 
L 340.215944 223.769197 
L 331.891469 239.733921 
L 323.566993 225.764787 
L 315.242517 226.762583 
L 306.918042 226.762583 
L 298.593566 226.762583 
L 290.269091 182.859591 
L 281.944615 183.857386 
L 273.62014 210.797858 
L 265.295664 233.74715 
L 256.971189 227.760378 
L 248.646713 252.70526 
L 240.322238 234.744945 
L 231.997762 213.791244 
L 223.673287 228.758173 
L 215.348811 188.846362 
L 207.024336 211.795654 
L 198.69986 243.725102 
L 190.375385 254.70085 
L 182.050909 245.720693 
L 173.726434 242.727307 
L 165.401958 237.738331 
L 157.077483 249.711874 
L 148.753007 217.782425 
L 140.428531 226.762583 
L 132.104056 199.82211 
L 123.77958 166.894866 
L 115.455105 165.897071 
L 107.130629 196.828724 
L 98.806154 223.769197 
L 90.481678 245.720693 
L 82.157203 237.738331 
L 73.832727 175.875024 
z
" style="fill:#9467bd;"/>
   </g>
   <g id="PolyCollection_6">
    <path clip-path="url(#pec0925e01f)" d="M 73.832727 144.94337 
L 73.832727 175.875024 
L 82.157203 237.738331 
L 90.481678 245.720693 
L 98.806154 223.769197 
L 107.130629 196.828724 
L 115.455105 165.897071 
L 123.77958 166.894866 
L 132.104056 199.82211 
L 140.428531 226.762583 
L 148.753007 217.782425 
L 157.077483 249.711874 
L 165.401958 237.738331 
L 173.726434 242.727307 
L 182.050909 245.720693 
L 190.375385 254.70085 
L 198.69986 243.725102 
L 207.024336 211.795654 
L 215.348811 188.846362 
L 223.673287 228.758173 
L 231.997762 213.791244 
L 240.322238 234.744945 
L 248.646713 252.70526 
L 256.971189 227.760378 
L 265.295664 233.74715 
L 273.62014 210.797858 
L 281.944615 183.857386 
L 290.269091 182.859591 
L 298.593566 226.762583 
L 306.918042 226.762583 
L 315.242517 226.762583 
L 323.566993 225.764787 
L 331.891469 239.733921 
L 340.215944 223.769197 
L 348.54042 198.824315 
L 356.864895 215.786835 
L 365.189371 199.82211 
L 373.513846 230.753764 
L 381.838322 198.824315 
L 390.162797 234.744945 
L 398.487273 221.773606 
L 398.487273 221.773606 
L 398.487273 221.773606 
L 390.162797 234.744945 
L 381.838322 198.824315 
L 373.513846 230.753764 
L 365.189371 199.82211 
L 356.864895 215.786835 
L 348.54042 182.859591 
L 340.215944 215.786835 
L 331.891469 228.758173 
L 323.566993 214.789039 
L 315.242517 221.773606 
L 306.918042 211.795654 
L 298.593566 217.782425 
L 290.269091 172.881638 
L 281.944615 177.870614 
L 273.62014 199.82211 
L 265.295664 231.751559 
L 256.971189 223.769197 
L 248.646713 244.722898 
L 240.322238 220.775811 
L 231.997762 200.819906 
L 223.673287 212.793449 
L 215.348811 182.859591 
L 207.024336 197.82652 
L 198.69986 213.791244 
L 190.375385 217.782425 
L 182.050909 213.791244 
L 173.726434 203.813291 
L 165.401958 209.800063 
L 157.077483 193.835339 
L 148.753007 165.897071 
L 140.428531 195.830929 
L 132.104056 176.872819 
L 123.77958 153.923528 
L 115.455105 122.991874 
L 107.130629 146.938961 
L 98.806154 167.892661 
L 90.481678 156.916913 
L 82.157203 184.855181 
L 73.832727 144.94337 
z
" style="fill:#8c564b;"/>
   </g>
   <g id="PolyCollection_7">
    <path clip-path="url(#pec0925e01f)" d="M 73.832727 143.945575 
L 73.832727 144.94337 
L 82.157203 184.855181 
L 90.481678 156.916913 
L 98.806154 167.892661 
L 107.130629 146.938961 
L 115.455105 122.991874 
L 123.77958 153.923528 
L 132.104056 176.872819 
L 140.428531 195.830929 
L 148.753007 165.897071 
L 157.077483 193.835339 
L 165.401958 209.800063 
L 173.726434 203.813291 
L 182.050909 213.791244 
L 190.375385 217.782425 
L 198.69986 213.791244 
L 207.024336 197.82652 
L 215.348811 182.859591 
L 223.673287 212.793449 
L 231.997762 200.819906 
L 240.322238 220.775811 
L 248.646713 244.722898 
L 256.971189 223.769197 
L 265.295664 231.751559 
L 273.62014 199.82211 
L 281.944615 177.870614 
L 290.269091 172.881638 
L 298.593566 217.782425 
L 306.918042 211.795654 
L 315.242517 221.773606 
L 323.566993 214.789039 
L 331.891469 228.758173 
L 340.215944 215.786835 
L 348.54042 182.859591 
L 356.864895 215.786835 
L 365.189371 199.82211 
L 373.513846 230.753764 
L 381.838322 198.824315 
L 390.162797 234.744945 
L 398.487273 221.773606 
L 398.487273 196.828724 
L 398.487273 196.828724 
L 390.162797 198.824315 
L 381.838322 171.883843 
L 373.513846 209.800063 
L 365.189371 193.835339 
L 356.864895 210.797858 
L 348.54042 179.866205 
L 340.215944 211.795654 
L 331.891469 223.769197 
L 323.566993 208.802268 
L 315.242517 216.78463 
L 306.918042 207.804472 
L 298.593566 211.795654 
L 290.269091 167.892661 
L 281.944615 173.879433 
L 273.62014 196.828724 
L 265.295664 228.758173 
L 256.971189 219.778016 
L 248.646713 239.733921 
L 240.322238 214.789039 
L 231.997762 195.830929 
L 223.673287 208.802268 
L 215.348811 177.870614 
L 207.024336 191.839748 
L 198.69986 206.806677 
L 190.375385 209.800063 
L 182.050909 207.804472 
L 173.726434 196.828724 
L 165.401958 203.813291 
L 157.077483 186.850772 
L 148.753007 159.910299 
L 140.428531 190.841953 
L 132.104056 173.879433 
L 123.77958 150.930142 
L 115.455105 119.000693 
L 107.130629 141.949984 
L 98.806154 162.903685 
L 90.481678 148.934551 
L 82.157203 181.861795 
L 73.832727 143.945575 
z
" style="fill:#e377c2;"/>
   </g>
   <g id="PolyCollection_8">
    <path clip-path="url(#pec0925e01f)" d="M 73.832727 91.062425 
L 73.832727 143.945575 
L 82.157203 181.861795 
L 90.481678 148.934551 
L 98.806154 162.903685 
L 107.130629 141.949984 
L 115.455105 119.000693 
L 123.77958 150.930142 
L 132.104056 173.879433 
L 140.428531 190.841953 
L 148.753007 159.910299 
L 157.077483 186.850772 
L 165.401958 203.813291 
L 173.726434 196.828724 
L 182.050909 207.804472 
L 190.375385 209.800063 
L 198.69986 206.806677 
L 207.024336 191.839748 
L 215.348811 177.870614 
L 223.673287 208.802268 
L 231.997762 195.830929 
L 240.322238 214.789039 
L 248.646713 239.733921 
L 256.971189 219.778016 
L 265.295664 228.758173 
L 273.62014 196.828724 
L 281.944615 173.879433 
L 290.269091 167.892661 
L 298.593566 211.795654 
L 306.918042 207.804472 
L 315.242517 216.78463 
L 323.566993 208.802268 
L 331.891469 223.769197 
L 340.215944 211.795654 
L 348.54042 179.866205 
L 356.864895 210.797858 
L 365.189371 193.835339 
L 373.513846 209.800063 
L 381.838322 171.883843 
L 390.162797 198.824315 
L 398.487273 196.828724 
L 398.487273 161.90589 
L 398.487273 161.90589 
L 390.162797 177.870614 
L 381.838322 144.94337 
L 373.513846 176.872819 
L 365.189371 168.890457 
L 356.864895 183.857386 
L 348.54042 155.919118 
L 340.215944 191.839748 
L 331.891469 207.804472 
L 323.566993 194.833134 
L 315.242517 199.82211 
L 306.918042 189.844157 
L 298.593566 200.819906 
L 290.269091 156.916913 
L 281.944615 153.923528 
L 273.62014 178.868409 
L 265.295664 207.804472 
L 256.971189 193.835339 
L 248.646713 232.749354 
L 240.322238 189.844157 
L 231.997762 180.864 
L 223.673287 197.82652 
L 215.348811 166.894866 
L 207.024336 177.870614 
L 198.69986 186.850772 
L 190.375385 193.835339 
L 182.050909 194.833134 
L 173.726434 182.859591 
L 165.401958 191.839748 
L 157.077483 176.872819 
L 148.753007 148.934551 
L 140.428531 180.864 
L 132.104056 162.903685 
L 123.77958 140.952189 
L 115.455105 113.013921 
L 107.130629 134.965417 
L 98.806154 154.921323 
L 90.481678 141.949984 
L 82.157203 173.879433 
L 73.832727 91.062425 
z
" style="fill:#7f7f7f;"/>
   </g>
   <g id="PolyCollection_9">
    <path clip-path="url(#pec0925e01f)" d="M 73.832727 90.06463 
L 73.832727 91.062425 
L 82.157203 173.879433 
L 90.481678 141.949984 
L 98.806154 154.921323 
L 107.130629 134.965417 
L 115.455105 113.013921 
L 123.77958 140.952189 
L 132.104056 162.903685 
L 140.428531 180.864 
L 148.753007 148.934551 
L 157.077483 176.872819 
L 165.401958 191.839748 
L 173.726434 182.859591 
L 182.050909 194.833134 
L 190.375385 193.835339 
L 198.69986 186.850772 
L 207.024336 177.870614 
L 215.348811 166.894866 
L 223.673287 197.82652 
L 231.997762 180.864 
L 240.322238 189.844157 
L 248.646713 232.749354 
L 256.971189 193.835339 
L 265.295664 207.804472 
L 273.62014 178.868409 
L 281.944615 153.923528 
L 290.269091 156.916913 
L 298.593566 200.819906 
L 306.918042 189.844157 
L 315.242517 199.82211 
L 323.566993 194.833134 
L 331.891469 207.804472 
L 340.215944 191.839748 
L 348.54042 155.919118 
L 356.864895 183.857386 
L 365.189371 168.890457 
L 373.513846 176.872819 
L 381.838322 144.94337 
L 390.162797 177.870614 
L 398.487273 161.90589 
L 398.487273 139.954394 
L 398.487273 139.954394 
L 390.162797 140.952189 
L 381.838322 125.98526 
L 373.513846 160.908094 
L 365.189371 152.925732 
L 356.864895 167.892661 
L 348.54042 149.932346 
L 340.215944 185.852976 
L 331.891469 194.833134 
L 323.566993 185.852976 
L 315.242517 183.857386 
L 306.918042 185.852976 
L 298.593566 197.82652 
L 290.269091 154.921323 
L 281.944615 151.927937 
L 273.62014 175.875024 
L 265.295664 205.808882 
L 256.971189 192.837543 
L 248.646713 229.755969 
L 240.322238 186.850772 
L 231.997762 178.868409 
L 223.673287 195.830929 
L 215.348811 163.90148 
L 207.024336 173.879433 
L 198.69986 182.859591 
L 190.375385 189.844157 
L 182.050909 191.839748 
L 173.726434 177.870614 
L 165.401958 187.848567 
L 157.077483 171.883843 
L 148.753007 144.94337 
L 140.428531 177.870614 
L 132.104056 158.912504 
L 123.77958 137.958803 
L 115.455105 110.020535 
L 107.130629 130.974236 
L 98.806154 148.934551 
L 90.481678 136.961008 
L 82.157203 167.892661 
L 73.832727 90.06463 
z
" style="fill:#bcbd22;"/>
   </g>
   <g id="PolyCollection_10">
    <path clip-path="url(#pec0925e01f)" d="M 73.832727 80.086677 
L 73.832727 90.06463 
L 82.157203 167.892661 
L 90.481678 136.961008 
L 98.806154 148.934551 
L 107.130629 130.974236 
L 115.455105 110.020535 
L 123.77958 137.958803 
L 132.104056 158.912504 
L 140.428531 177.870614 
L 148.753007 144.94337 
L 157.077483 171.883843 
L 165.401958 187.848567 
L 173.726434 177.870614 
L 182.050909 191.839748 
L 190.375385 189.844157 
L 198.69986 182.859591 
L 207.024336 173.879433 
L 215.348811 163.90148 
L 223.673287 195.830929 
L 231.997762 178.868409 
L 240.322238 186.850772 
L 248.646713 229.755969 
L 256.971189 192.837543 
L 265.295664 205.808882 
L 273.62014 175.875024 
L 281.944615 151.927937 
L 290.269091 154.921323 
L 298.593566 197.82652 
L 306.918042 185.852976 
L 315.242517 183.857386 
L 323.566993 185.852976 
L 331.891469 194.833134 
L 340.215944 185.852976 
L 348.54042 149.932346 
L 356.864895 167.892661 
L 365.189371 152.925732 
L 373.513846 160.908094 
L 381.838322 125.98526 
L 390.162797 140.952189 
L 398.487273 139.954394 
L 398.487273 139.954394 
L 398.487273 139.954394 
L 390.162797 127.98085 
L 381.838322 120.996283 
L 373.513846 141.949984 
L 365.189371 138.956598 
L 356.864895 149.932346 
L 348.54042 140.952189 
L 340.215944 171.883843 
L 331.891469 183.857386 
L 323.566993 175.875024 
L 315.242517 172.881638 
L 306.918042 175.875024 
L 298.593566 184.855181 
L 290.269091 138.956598 
L 281.944615 135.963213 
L 273.62014 165.897071 
L 265.295664 170.886047 
L 256.971189 174.877228 
L 248.646713 194.833134 
L 240.322238 174.877228 
L 231.997762 163.90148 
L 223.673287 159.910299 
L 215.348811 150.930142 
L 207.024336 151.927937 
L 198.69986 148.934551 
L 190.375385 150.930142 
L 182.050909 165.897071 
L 173.726434 160.908094 
L 165.401958 179.866205 
L 157.077483 162.903685 
L 148.753007 133.967622 
L 140.428531 166.894866 
L 132.104056 135.963213 
L 123.77958 115.009512 
L 115.455105 102.038173 
L 107.130629 101.040378 
L 98.806154 120.996283 
L 90.481678 114.011717 
L 82.157203 156.916913 
L 73.832727 80.086677 
z
" style="fill:#17becf;"/>
   </g>
   <g id="PolyCollection_11">
    <path clip-path="url(#pec0925e01f)" d="M 73.832727 79.088882 
L 73.832727 80.086677 
L 82.157203 156.916913 
L 90.481678 114.011717 
L 98.806154 120.996283 
L 107.130629 101.040378 
L 115.455105 102.038173 
L 123.77958 115.009512 
L 132.104056 135.963213 
L 140.428531 166.894866 
L 148.753007 133.967622 
L 157.077483 162.903685 
L 165.401958 179.866205 
L 173.726434 160.908094 
L 182.050909 165.897071 
L 190.375385 150.930142 
L 198.69986 148.934551 
L 207.024336 151.927937 
L 215.348811 150.930142 
L 223.673287 159.910299 
L 231.997762 163.90148 
L 240.322238 174.877228 
L 248.646713 194.833134 
L 256.971189 174.877228 
L 265.295664 170.886047 
L 273.62014 165.897071 
L 281.944615 135.963213 
L 290.269091 138.956598 
L 298.593566 184.855181 
L 306.918042 175.875024 
L 315.242517 172.881638 
L 323.566993 175.875024 
L 331.891469 183.857386 
L 340.215944 171.883843 
L 348.54042 140.952189 
L 356.864895 149.932346 
L 365.189371 138.956598 
L 373.513846 141.949984 
L 381.838322 120.996283 
L 390.162797 127.98085 
L 398.487273 139.954394 
L 398.487273 139.954394 
L 398.487273 139.954394 
L 390.162797 127.98085 
L 381.838322 120.996283 
L 373.513846 141.949984 
L 365.189371 138.956598 
L 356.864895 149.932346 
L 348.54042 140.952189 
L 340.215944 171.883843 
L 331.891469 183.857386 
L 323.566993 175.875024 
L 315.242517 172.881638 
L 306.918042 175.875024 
L 298.593566 184.855181 
L 290.269091 138.956598 
L 281.944615 132.969827 
L 273.62014 163.90148 
L 265.295664 168.890457 
L 256.971189 171.883843 
L 248.646713 191.839748 
L 240.322238 172.881638 
L 231.997762 161.90589 
L 223.673287 156.916913 
L 215.348811 148.934551 
L 207.024336 148.934551 
L 198.69986 146.938961 
L 190.375385 148.934551 
L 182.050909 162.903685 
L 173.726434 158.912504 
L 165.401958 177.870614 
L 157.077483 159.910299 
L 148.753007 131.972031 
L 140.428531 162.903685 
L 132.104056 129.976441 
L 123.77958 109.02274 
L 115.455105 98.046992 
L 107.130629 98.046992 
L 98.806154 116.007307 
L 90.481678 110.020535 
L 82.157203 154.921323 
L 73.832727 79.088882 
z
" style="fill:#1f77b4;"/>
   </g>
   <g id="PolyCollection_12">
    <path clip-path="url(#pec0925e01f)" d="M 73.832727 78.091087 
L 73.832727 79.088882 
L 82.157203 154.921323 
L 90.481678 110.020535 
L 98.806154 116.007307 
L 107.130629 98.046992 
L 115.455105 98.046992 
L 123.77958 109.02274 
L 132.104056 129.976441 
L 140.428531 162.903685 
L 148.753007 131.972031 
L 157.077483 159.910299 
L 165.401958 177.870614 
L 173.726434 158.912504 
L 182.050909 162.903685 
L 190.375385 148.934551 
L 198.69986 146.938961 
L 207.024336 148.934551 
L 215.348811 148.934551 
L 223.673287 156.916913 
L 231.997762 161.90589 
L 240.322238 172.881638 
L 248.646713 191.839748 
L 256.971189 171.883843 
L 265.295664 168.890457 
L 273.62014 163.90148 
L 281.944615 132.969827 
L 290.269091 138.956598 
L 298.593566 184.855181 
L 306.918042 175.875024 
L 315.242517 172.881638 
L 323.566993 175.875024 
L 331.891469 183.857386 
L 340.215944 171.883843 
L 348.54042 140.952189 
L 356.864895 149.932346 
L 365.189371 138.956598 
L 373.513846 141.949984 
L 381.838322 120.996283 
L 390.162797 127.98085 
L 398.487273 139.954394 
L 398.487273 139.954394 
L 398.487273 139.954394 
L 390.162797 127.98085 
L 381.838322 120.996283 
L 373.513846 141.949984 
L 365.189371 138.956598 
L 356.864895 149.932346 
L 348.54042 140.952189 
L 340.215944 171.883843 
L 331.891469 183.857386 
L 323.566993 175.875024 
L 315.242517 172.881638 
L 306.918042 175.875024 
L 298.593566 184.855181 
L 290.269091 138.956598 
L 281.944615 132.969827 
L 273.62014 163.90148 
L 265.295664 168.890457 
L 256.971189 171.883843 
L 248.646713 191.839748 
L 240.322238 169.888252 
L 231.997762 159.910299 
L 223.673287 153.923528 
L 215.348811 146.938961 
L 207.024336 144.94337 
L 198.69986 143.945575 
L 190.375385 146.938961 
L 182.050909 159.910299 
L 173.726434 156.916913 
L 165.401958 174.877228 
L 157.077483 157.914709 
L 148.753007 128.978646 
L 140.428531 159.910299 
L 132.104056 125.98526 
L 123.77958 104.033764 
L 115.455105 94.055811 
L 107.130629 95.053606 
L 98.806154 114.011717 
L 90.481678 105.031559 
L 82.157203 145.941165 
L 73.832727 78.091087 
z
" style="fill:#ff7f0e;"/>
   </g>
   <g id="PolyCollection_13">
    <path clip-path="url(#pec0925e01f)" d="M 73.832727 77.093291 
L 73.832727 78.091087 
L 82.157203 145.941165 
L 90.481678 105.031559 
L 98.806154 114.011717 
L 107.130629 95.053606 
L 115.455105 94.055811 
L 123.77958 104.033764 
L 132.104056 125.98526 
L 140.428531 159.910299 
L 148.753007 128.978646 
L 157.077483 157.914709 
L 165.401958 174.877228 
L 173.726434 156.916913 
L 182.050909 159.910299 
L 190.375385 146.938961 
L 198.69986 143.945575 
L 207.024336 144.94337 
L 215.348811 146.938961 
L 223.673287 153.923528 
L 231.997762 159.910299 
L 240.322238 169.888252 
L 248.646713 191.839748 
L 256.971189 171.883843 
L 265.295664 168.890457 
L 273.62014 163.90148 
L 281.944615 132.969827 
L 290.269091 138.956598 
L 298.593566 184.855181 
L 306.918042 175.875024 
L 315.242517 172.881638 
L 323.566993 175.875024 
L 331.891469 183.857386 
L 340.215944 171.883843 
L 348.54042 140.952189 
L 356.864895 149.932346 
L 365.189371 138.956598 
L 373.513846 141.949984 
L 381.838322 120.996283 
L 390.162797 127.98085 
L 398.487273 139.954394 
L 398.487273 139.954394 
L 398.487273 139.954394 
L 390.162797 127.98085 
L 381.838322 120.996283 
L 373.513846 141.949984 
L 365.189371 135.963213 
L 356.864895 147.936756 
L 348.54042 138.956598 
L 340.215944 169.888252 
L 331.891469 181.861795 
L 323.566993 172.881638 
L 315.242517 170.886047 
L 306.918042 172.881638 
L 298.593566 182.859591 
L 290.269091 135.963213 
L 281.944615 130.974236 
L 273.62014 160.908094 
L 265.295664 164.899276 
L 256.971189 168.890457 
L 248.646713 189.844157 
L 240.322238 166.894866 
L 231.997762 155.919118 
L 223.673287 150.930142 
L 215.348811 142.94778 
L 207.024336 139.954394 
L 198.69986 140.952189 
L 190.375385 142.94778 
L 182.050909 154.921323 
L 173.726434 152.925732 
L 165.401958 171.883843 
L 157.077483 153.923528 
L 148.753007 123.989669 
L 140.428531 153.923528 
L 132.104056 120.996283 
L 123.77958 100.042583 
L 115.455105 89.066835 
L 107.130629 91.062425 
L 98.806154 111.018331 
L 90.481678 101.040378 
L 82.157203 141.949984 
L 73.832727 77.093291 
z
" style="fill:#2ca02c;"/>
   </g>
   <g id="PolyCollection_14">
    <path clip-path="url(#pec0925e01f)" d="M 73.832727 76.095496 
L 73.832727 77.093291 
L 82.157203 141.949984 
L 90.481678 101.040378 
L 98.806154 111.018331 
L 107.130629 91.062425 
L 115.455105 89.066835 
L 123.77958 100.042583 
L 132.104056 120.996283 
L 140.428531 153.923528 
L 148.753007 123.989669 
L 157.077483 153.923528 
L 165.401958 171.883843 
L 173.726434 152.925732 
L 182.050909 154.921323 
L 190.375385 142.94778 
L 198.69986 140.952189 
L 207.024336 139.954394 
L 215.348811 142.94778 
L 223.673287 150.930142 
L 231.997762 155.919118 
L 240.322238 166.894866 
L 248.646713 189.844157 
L 256.971189 168.890457 
L 265.295664 164.899276 
L 273.62014 160.908094 
L 281.944615 130.974236 
L 290.269091 135.963213 
L 298.593566 182.859591 
L 306.918042 172.881638 
L 315.242517 170.886047 
L 323.566993 172.881638 
L 331.891469 181.861795 
L 340.215944 169.888252 
L 348.54042 138.956598 
L 356.864895 147.936756 
L 365.189371 135.963213 
L 373.513846 141.949984 
L 381.838322 120.996283 
L 390.162797 127.98085 
L 398.487273 139.954394 
L 398.487273 118.002898 
L 398.487273 118.002898 
L 390.162797 114.011717 
L 381.838322 102.038173 
L 373.513846 115.009512 
L 365.189371 110.020535 
L 356.864895 121.994079 
L 348.54042 115.009512 
L 340.215944 146.938961 
L 331.891469 157.914709 
L 323.566993 151.927937 
L 315.242517 145.941165 
L 306.918042 131.972031 
L 298.593566 123.989669 
L 290.269091 129.976441 
L 281.944615 121.994079 
L 273.62014 153.923528 
L 265.295664 158.912504 
L 256.971189 160.908094 
L 248.646713 183.857386 
L 240.322238 161.90589 
L 231.997762 149.932346 
L 223.673287 146.938961 
L 215.348811 138.956598 
L 207.024336 130.974236 
L 198.69986 133.967622 
L 190.375385 134.965417 
L 182.050909 147.936756 
L 173.726434 146.938961 
L 165.401958 164.899276 
L 157.077483 148.934551 
L 148.753007 119.000693 
L 140.428531 146.938961 
L 132.104056 113.013921 
L 123.77958 93.058016 
L 115.455105 81.084472 
L 107.130629 83.080063 
L 98.806154 103.035969 
L 90.481678 92.06022 
L 82.157203 130.974236 
L 73.832727 76.095496 
z
" style="fill:#d62728;"/>
   </g>
   <g id="PolyCollection_15">
    <path clip-path="url(#pec0925e01f)" d="M 73.832727 75.097701 
L 73.832727 76.095496 
L 82.157203 130.974236 
L 90.481678 92.06022 
L 98.806154 103.035969 
L 107.130629 83.080063 
L 115.455105 81.084472 
L 123.77958 93.058016 
L 132.104056 113.013921 
L 140.428531 146.938961 
L 148.753007 119.000693 
L 157.077483 148.934551 
L 165.401958 164.899276 
L 173.726434 146.938961 
L 182.050909 147.936756 
L 190.375385 134.965417 
L 198.69986 133.967622 
L 207.024336 130.974236 
L 215.348811 138.956598 
L 223.673287 146.938961 
L 231.997762 149.932346 
L 240.322238 161.90589 
L 248.646713 183.857386 
L 256.971189 160.908094 
L 265.295664 158.912504 
L 273.62014 153.923528 
L 281.944615 121.994079 
L 290.269091 129.976441 
L 298.593566 123.989669 
L 306.918042 131.972031 
L 315.242517 145.941165 
L 323.566993 151.927937 
L 331.891469 157.914709 
L 340.215944 146.938961 
L 348.54042 115.009512 
L 356.864895 121.994079 
L 365.189371 110.020535 
L 373.513846 115.009512 
L 381.838322 102.038173 
L 390.162797 114.011717 
L 398.487273 118.002898 
L 398.487273 101.040378 
L 398.487273 101.040378 
L 390.162797 100.042583 
L 381.838322 88.069039 
L 373.513846 98.046992 
L 365.189371 92.06022 
L 356.864895 103.035969 
L 348.54042 99.044787 
L 340.215944 124.987465 
L 331.891469 136.961008 
L 323.566993 127.98085 
L 315.242517 133.967622 
L 306.918042 117.005102 
L 298.593566 110.020535 
L 290.269091 112.016126 
L 281.944615 108.024945 
L 273.62014 140.952189 
L 265.295664 139.954394 
L 256.971189 142.94778 
L 248.646713 166.894866 
L 240.322238 144.94337 
L 231.997762 134.965417 
L 223.673287 132.969827 
L 215.348811 130.974236 
L 207.024336 124.987465 
L 198.69986 130.974236 
L 190.375385 130.974236 
L 182.050909 144.94337 
L 173.726434 144.94337 
L 165.401958 161.90589 
L 157.077483 146.938961 
L 148.753007 117.005102 
L 140.428531 142.94778 
L 132.104056 109.02274 
L 123.77958 90.06463 
L 115.455105 75.097701 
L 107.130629 79.088882 
L 98.806154 96.051402 
L 90.481678 86.073449 
L 82.157203 121.994079 
L 73.832727 75.097701 
z
" style="fill:#9467bd;"/>
   </g>
   <g id="PolyCollection_16">
    <path clip-path="url(#pec0925e01f)" d="M 73.832727 69.110929 
L 73.832727 75.097701 
L 82.157203 121.994079 
L 90.481678 86.073449 
L 98.806154 96.051402 
L 107.130629 79.088882 
L 115.455105 75.097701 
L 123.77958 90.06463 
L 132.104056 109.02274 
L 140.428531 142.94778 
L 148.753007 117.005102 
L 157.077483 146.938961 
L 165.401958 161.90589 
L 173.726434 144.94337 
L 182.050909 144.94337 
L 190.375385 130.974236 
L 198.69986 130.974236 
L 207.024336 124.987465 
L 215.348811 130.974236 
L 223.673287 132.969827 
L 231.997762 134.965417 
L 240.322238 144.94337 
L 248.646713 166.894866 
L 256.971189 142.94778 
L 265.295664 139.954394 
L 273.62014 140.952189 
L 281.944615 108.024945 
L 290.269091 112.016126 
L 298.593566 110.020535 
L 306.918042 117.005102 
L 315.242517 133.967622 
L 323.566993 127.98085 
L 331.891469 136.961008 
L 340.215944 124.987465 
L 348.54042 99.044787 
L 356.864895 103.035969 
L 365.189371 92.06022 
L 373.513846 98.046992 
L 381.838322 88.069039 
L 390.162797 100.042583 
L 398.487273 101.040378 
L 398.487273 86.073449 
L 398.487273 86.073449 
L 390.162797 85.075654 
L 381.838322 80.086677 
L 373.513846 87.071244 
L 365.189371 86.073449 
L 356.864895 87.071244 
L 348.54042 86.073449 
L 340.215944 105.031559 
L 331.891469 99.044787 
L 323.566993 107.02715 
L 315.242517 102.038173 
L 306.918042 100.042583 
L 298.593566 94.055811 
L 290.269091 100.042583 
L 281.944615 82.082268 
L 273.62014 109.02274 
L 265.295664 117.005102 
L 256.971189 120.996283 
L 248.646713 140.952189 
L 240.322238 128.978646 
L 231.997762 125.98526 
L 223.673287 93.058016 
L 215.348811 78.091087 
L 207.024336 81.084472 
L 198.69986 95.053606 
L 190.375385 124.987465 
L 182.050909 128.978646 
L 173.726434 125.98526 
L 165.401958 152.925732 
L 157.077483 131.972031 
L 148.753007 113.013921 
L 140.428531 123.989669 
L 132.104056 95.053606 
L 123.77958 71.10652 
L 115.455105 65.119748 
L 107.130629 71.10652 
L 98.806154 78.091087 
L 90.481678 81.084472 
L 82.157203 103.035969 
L 73.832727 69.110929 
z
" style="fill:#8c564b;"/>
   </g>
   <g id="PolyCollection_17">
    <path clip-path="url(#pec0925e01f)" d="M 73.832727 60.130772 
L 73.832727 69.110929 
L 82.157203 103.035969 
L 90.481678 81.084472 
L 98.806154 78.091087 
L 107.130629 71.10652 
L 115.455105 65.119748 
L 123.77958 71.10652 
L 132.104056 95.053606 
L 140.428531 123.989669 
L 148.753007 113.013921 
L 157.077483 131.972031 
L 165.401958 152.925732 
L 173.726434 125.98526 
L 182.050909 128.978646 
L 190.375385 124.987465 
L 198.69986 95.053606 
L 207.024336 81.084472 
L 215.348811 78.091087 
L 223.673287 93.058016 
L 231.997762 125.98526 
L 240.322238 128.978646 
L 248.646713 140.952189 
L 256.971189 120.996283 
L 265.295664 117.005102 
L 273.62014 109.02274 
L 281.944615 82.082268 
L 290.269091 100.042583 
L 298.593566 94.055811 
L 306.918042 100.042583 
L 315.242517 102.038173 
L 323.566993 107.02715 
L 331.891469 99.044787 
L 340.215944 105.031559 
L 348.54042 86.073449 
L 356.864895 87.071244 
L 365.189371 86.073449 
L 373.513846 87.071244 
L 381.838322 80.086677 
L 390.162797 85.075654 
L 398.487273 86.073449 
L 398.487273 86.073449 
L 398.487273 86.073449 
L 390.162797 85.075654 
L 381.838322 80.086677 
L 373.513846 87.071244 
L 365.189371 86.073449 
L 356.864895 87.071244 
L 348.54042 86.073449 
L 340.215944 93.058016 
L 331.891469 86.073449 
L 323.566993 78.091087 
L 315.242517 83.080063 
L 306.918042 84.077858 
L 298.593566 81.084472 
L 290.269091 72.104315 
L 281.944615 74.099906 
L 273.62014 64.121953 
L 265.295664 91.062425 
L 256.971189 102.038173 
L 248.646713 90.06463 
L 240.322238 95.053606 
L 231.997762 67.115339 
L 223.673287 62.126362 
L 215.348811 64.121953 
L 207.024336 63.124157 
L 198.69986 63.124157 
L 190.375385 61.128567 
L 182.050909 63.124157 
L 173.726434 68.113134 
L 165.401958 69.110929 
L 157.077483 63.124157 
L 148.753007 63.124157 
L 140.428531 66.117543 
L 132.104056 62.126362 
L 123.77958 64.121953 
L 115.455105 63.124157 
L 107.130629 64.121953 
L 98.806154 67.115339 
L 90.481678 66.117543 
L 82.157203 70.108724 
L 73.832727 60.130772 
z
" style="fill:#e377c2;"/>
   </g>
   <g id="PolyCollection_18">
    <path clip-path="url(#pec0925e01f)" d="M 73.832727 59.132976 
L 73.832727 60.130772 
L 82.157203 70.108724 
L 90.481678 66.117543 
L 98.806154 67.115339 
L 107.130629 64.121953 
L 115.455105 63.124157 
L 123.77958 64.121953 
L 132.104056 62.126362 
L 140.428531 66.117543 
L 148.753007 63.124157 
L 157.077483 63.124157 
L 165.401958 69.110929 
L 173.726434 68.113134 
L 182.050909 63.124157 
L 190.375385 61.128567 
L 198.69986 63.124157 
L 207.024336 63.124157 
L 215.348811 64.121953 
L 223.673287 62.126362 
L 231.997762 67.115339 
L 240.322238 95.053606 
L 248.646713 90.06463 
L 256.971189 102.038173 
L 265.295664 91.062425 
L 273.62014 64.121953 
L 281.944615 74.099906 
L 290.269091 72.104315 
L 298.593566 81.084472 
L 306.918042 84.077858 
L 315.242517 83.080063 
L 323.566993 78.091087 
L 331.891469 86.073449 
L 340.215944 93.058016 
L 348.54042 86.073449 
L 356.864895 87.071244 
L 365.189371 86.073449 
L 373.513846 87.071244 
L 381.838322 80.086677 
L 390.162797 85.075654 
L 398.487273 86.073449 
L 398.487273 77.093291 
L 398.487273 77.093291 
L 390.162797 79.088882 
L 381.838322 66.117543 
L 373.513846 73.10211 
L 365.189371 65.119748 
L 356.864895 66.117543 
L 348.54042 75.097701 
L 340.215944 71.10652 
L 331.891469 71.10652 
L 323.566993 65.119748 
L 315.242517 75.097701 
L 306.918042 78.091087 
L 298.593566 77.093291 
L 290.269091 68.113134 
L 281.944615 68.113134 
L 273.62014 61.128567 
L 265.295664 87.071244 
L 256.971189 99.044787 
L 248.646713 88.069039 
L 240.322238 93.058016 
L 231.997762 62.126362 
L 223.673287 59.132976 
L 215.348811 59.132976 
L 207.024336 59.132976 
L 198.69986 61.128567 
L 190.375385 59.132976 
L 182.050909 62.126362 
L 173.726434 65.119748 
L 165.401958 64.121953 
L 157.077483 59.132976 
L 148.753007 61.128567 
L 140.428531 63.124157 
L 132.104056 61.128567 
L 123.77958 62.126362 
L 115.455105 60.130772 
L 107.130629 61.128567 
L 98.806154 62.126362 
L 90.481678 63.124157 
L 82.157203 63.124157 
L 73.832727 59.132976 
z
" style="fill:#7f7f7f;"/>
   </g>
   <g id="PolyCollection_19">
    <path clip-path="url(#pec0925e01f)" d="M 73.832727 58.135181 
L 73.832727 59.132976 
L 82.157203 63.124157 
L 90.481678 63.124157 
L 98.806154 62.126362 
L 107.130629 61.128567 
L 115.455105 60.130772 
L 123.77958 62.126362 
L 132.104056 61.128567 
L 140.428531 63.124157 
L 148.753007 61.128567 
L 157.077483 59.132976 
L 165.401958 64.121953 
L 173.726434 65.119748 
L 182.050909 62.126362 
L 190.375385 59.132976 
L 198.69986 61.128567 
L 207.024336 59.132976 
L 215.348811 59.132976 
L 223.673287 59.132976 
L 231.997762 62.126362 
L 240.322238 93.058016 
L 248.646713 88.069039 
L 256.971189 99.044787 
L 265.295664 87.071244 
L 273.62014 61.128567 
L 281.944615 68.113134 
L 290.269091 68.113134 
L 298.593566 77.093291 
L 306.918042 78.091087 
L 315.242517 75.097701 
L 323.566993 65.119748 
L 331.891469 71.10652 
L 340.215944 71.10652 
L 348.54042 75.097701 
L 356.864895 66.117543 
L 365.189371 65.119748 
L 373.513846 73.10211 
L 381.838322 66.117543 
L 390.162797 79.088882 
L 398.487273 77.093291 
L 398.487273 57.137386 
L 398.487273 57.137386 
L 390.162797 57.137386 
L 381.838322 57.137386 
L 373.513846 58.135181 
L 365.189371 57.137386 
L 356.864895 58.135181 
L 348.54042 60.130772 
L 340.215944 57.137386 
L 331.891469 60.130772 
L 323.566993 54.144 
L 315.242517 58.135181 
L 306.918042 56.139591 
L 298.593566 57.137386 
L 290.269091 57.137386 
L 281.944615 57.137386 
L 273.62014 58.135181 
L 265.295664 61.128567 
L 256.971189 60.130772 
L 248.646713 60.130772 
L 240.322238 57.137386 
L 231.997762 59.132976 
L 223.673287 57.137386 
L 215.348811 57.137386 
L 207.024336 56.139591 
L 198.69986 57.137386 
L 190.375385 56.139591 
L 182.050909 58.135181 
L 173.726434 60.130772 
L 165.401958 60.130772 
L 157.077483 56.139591 
L 148.753007 58.135181 
L 140.428531 58.135181 
L 132.104056 57.137386 
L 123.77958 56.139591 
L 115.455105 57.137386 
L 107.130629 57.137386 
L 98.806154 58.135181 
L 90.481678 58.135181 
L 82.157203 57.137386 
L 73.832727 58.135181 
z
" style="fill:#bcbd22;"/>
   </g>
   <g id="matplotlib.axis_1">
    <g id="xtick_1">
     <g id="line2d_1">
      <defs>
       <path d="M 0 0 
L 0 3.5 
" id="m08a2de6d00" style="stroke:#000000;stroke-width:0.8;"/>
      </defs>
      <g>
       <use style="stroke:#000000;stroke-width:0.8;" x="73.832727" xlink:href="#m08a2de6d00" y="307.584"/>
      </g>
     </g>
     <g id="text_1">
      <!-- 0 -->
      <defs>
       <path d="M 31.78125 66.40625 
Q 24.171875 66.40625 20.328125 58.90625 
Q 16.5 51.421875 16.5 36.375 
Q 16.5 21.390625 20.328125 13.890625 
Q 24.171875 6.390625 31.78125 6.390625 
Q 39.453125 6.390625 43.28125 13.890625 
Q 47.125 21.390625 47.125 36.375 
Q 47.125 51.421875 43.28125 58.90625 
Q 39.453125 66.40625 31.78125 66.40625 
z
M 31.78125 74.21875 
Q 44.046875 74.21875 50.515625 64.515625 
Q 56.984375 54.828125 56.984375 36.375 
Q 56.984375 17.96875 50.515625 8.265625 
Q 44.046875 -1.421875 31.78125 -1.421875 
Q 19.53125 -1.421875 13.0625 8.265625 
Q 6.59375 17.96875 6.59375 36.375 
Q 6.59375 54.828125 13.0625 64.515625 
Q 19.53125 74.21875 31.78125 74.21875 
z
" id="DejaVuSans-48"/>
      </defs>
      <g transform="translate(70.651477 322.182437)scale(0.1 -0.1)">
       <use xlink:href="#DejaVuSans-48"/>
      </g>
     </g>
    </g>
    <g id="xtick_2">
     <g id="line2d_2">
      <g>
       <use style="stroke:#000000;stroke-width:0.8;" x="115.455105" xlink:href="#m08a2de6d00" y="307.584"/>
      </g>
     </g>
     <g id="text_2">
      <!-- 5 -->
      <defs>
       <path d="M 10.796875 72.90625 
L 49.515625 72.90625 
L 49.515625 64.59375 
L 19.828125 64.59375 
L 19.828125 46.734375 
Q 21.96875 47.46875 24.109375 47.828125 
Q 26.265625 48.1875 28.421875 48.1875 
Q 40.625 48.1875 47.75 41.5 
Q 54.890625 34.8125 54.890625 23.390625 
Q 54.890625 11.625 47.5625 5.09375 
Q 40.234375 -1.421875 26.90625 -1.421875 
Q 22.3125 -1.421875 17.546875 -0.640625 
Q 12.796875 0.140625 7.71875 1.703125 
L 7.71875 11.625 
Q 12.109375 9.234375 16.796875 8.0625 
Q 21.484375 6.890625 26.703125 6.890625 
Q 35.15625 6.890625 40.078125 11.328125 
Q 45.015625 15.765625 45.015625 23.390625 
Q 45.015625 31 40.078125 35.4375 
Q 35.15625 39.890625 26.703125 39.890625 
Q 22.75 39.890625 18.8125 39.015625 
Q 14.890625 38.140625 10.796875 36.28125 
z
" id="DejaVuSans-53"/>
      </defs>
      <g transform="translate(112.273855 322.182437)scale(0.1 -0.1)">
       <use xlink:href="#DejaVuSans-53"/>
      </g>
     </g>
    </g>
    <g id="xtick_3">
     <g id="line2d_3">
      <g>
       <use style="stroke:#000000;stroke-width:0.8;" x="157.077483" xlink:href="#m08a2de6d00" y="307.584"/>
      </g>
     </g>
     <g id="text_3">
      <!-- 10 -->
      <defs>
       <path d="M 12.40625 8.296875 
L 28.515625 8.296875 
L 28.515625 63.921875 
L 10.984375 60.40625 
L 10.984375 69.390625 
L 28.421875 72.90625 
L 38.28125 72.90625 
L 38.28125 8.296875 
L 54.390625 8.296875 
L 54.390625 0 
L 12.40625 0 
z
" id="DejaVuSans-49"/>
      </defs>
      <g transform="translate(150.714983 322.182437)scale(0.1 -0.1)">
       <use xlink:href="#DejaVuSans-49"/>
       <use x="63.623047" xlink:href="#DejaVuSans-48"/>
      </g>
     </g>
    </g>
    <g id="xtick_4">
     <g id="line2d_4">
      <g>
       <use style="stroke:#000000;stroke-width:0.8;" x="198.69986" xlink:href="#m08a2de6d00" y="307.584"/>
      </g>
     </g>
     <g id="text_4">
      <!-- 15 -->
      <g transform="translate(192.33736 322.182437)scale(0.1 -0.1)">
       <use xlink:href="#DejaVuSans-49"/>
       <use x="63.623047" xlink:href="#DejaVuSans-53"/>
      </g>
     </g>
    </g>
    <g id="xtick_5">
     <g id="line2d_5">
      <g>
       <use style="stroke:#000000;stroke-width:0.8;" x="240.322238" xlink:href="#m08a2de6d00" y="307.584"/>
      </g>
     </g>
     <g id="text_5">
      <!-- 20 -->
      <defs>
       <path d="M 19.1875 8.296875 
L 53.609375 8.296875 
L 53.609375 0 
L 7.328125 0 
L 7.328125 8.296875 
Q 12.9375 14.109375 22.625 23.890625 
Q 32.328125 33.6875 34.8125 36.53125 
Q 39.546875 41.84375 41.421875 45.53125 
Q 43.3125 49.21875 43.3125 52.78125 
Q 43.3125 58.59375 39.234375 62.25 
Q 35.15625 65.921875 28.609375 65.921875 
Q 23.96875 65.921875 18.8125 64.3125 
Q 13.671875 62.703125 7.8125 59.421875 
L 7.8125 69.390625 
Q 13.765625 71.78125 18.9375 73 
Q 24.125 74.21875 28.421875 74.21875 
Q 39.75 74.21875 46.484375 68.546875 
Q 53.21875 62.890625 53.21875 53.421875 
Q 53.21875 48.921875 51.53125 44.890625 
Q 49.859375 40.875 45.40625 35.40625 
Q 44.1875 33.984375 37.640625 27.21875 
Q 31.109375 20.453125 19.1875 8.296875 
z
" id="DejaVuSans-50"/>
      </defs>
      <g transform="translate(233.959738 322.182437)scale(0.1 -0.1)">
       <use xlink:href="#DejaVuSans-50"/>
       <use x="63.623047" xlink:href="#DejaVuSans-48"/>
      </g>
     </g>
    </g>
    <g id="xtick_6">
     <g id="line2d_6">
      <g>
       <use style="stroke:#000000;stroke-width:0.8;" x="281.944615" xlink:href="#m08a2de6d00" y="307.584"/>
      </g>
     </g>
     <g id="text_6">
      <!-- 25 -->
      <g transform="translate(275.582115 322.182437)scale(0.1 -0.1)">
       <use xlink:href="#DejaVuSans-50"/>
       <use x="63.623047" xlink:href="#DejaVuSans-53"/>
      </g>
     </g>
    </g>
    <g id="xtick_7">
     <g id="line2d_7">
      <g>
       <use style="stroke:#000000;stroke-width:0.8;" x="323.566993" xlink:href="#m08a2de6d00" y="307.584"/>
      </g>
     </g>
     <g id="text_7">
      <!-- 30 -->
      <defs>
       <path d="M 40.578125 39.3125 
Q 47.65625 37.796875 51.625 33 
Q 55.609375 28.21875 55.609375 21.1875 
Q 55.609375 10.40625 48.1875 4.484375 
Q 40.765625 -1.421875 27.09375 -1.421875 
Q 22.515625 -1.421875 17.65625 -0.515625 
Q 12.796875 0.390625 7.625 2.203125 
L 7.625 11.71875 
Q 11.71875 9.328125 16.59375 8.109375 
Q 21.484375 6.890625 26.8125 6.890625 
Q 36.078125 6.890625 40.9375 10.546875 
Q 45.796875 14.203125 45.796875 21.1875 
Q 45.796875 27.640625 41.28125 31.265625 
Q 36.765625 34.90625 28.71875 34.90625 
L 20.21875 34.90625 
L 20.21875 43.015625 
L 29.109375 43.015625 
Q 36.375 43.015625 40.234375 45.921875 
Q 44.09375 48.828125 44.09375 54.296875 
Q 44.09375 59.90625 40.109375 62.90625 
Q 36.140625 65.921875 28.71875 65.921875 
Q 24.65625 65.921875 20.015625 65.03125 
Q 15.375 64.15625 9.8125 62.3125 
L 9.8125 71.09375 
Q 15.4375 72.65625 20.34375 73.4375 
Q 25.25 74.21875 29.59375 74.21875 
Q 40.828125 74.21875 47.359375 69.109375 
Q 53.90625 64.015625 53.90625 55.328125 
Q 53.90625 49.265625 50.4375 45.09375 
Q 46.96875 40.921875 40.578125 39.3125 
z
" id="DejaVuSans-51"/>
      </defs>
      <g transform="translate(317.204493 322.182437)scale(0.1 -0.1)">
       <use xlink:href="#DejaVuSans-51"/>
       <use x="63.623047" xlink:href="#DejaVuSans-48"/>
      </g>
     </g>
    </g>
    <g id="xtick_8">
     <g id="line2d_8">
      <g>
       <use style="stroke:#000000;stroke-width:0.8;" x="365.189371" xlink:href="#m08a2de6d00" y="307.584"/>
      </g>
     </g>
     <g id="text_8">
      <!-- 35 -->
      <g transform="translate(358.826871 322.182437)scale(0.1 -0.1)">
       <use xlink:href="#DejaVuSans-51"/>
       <use x="63.623047" xlink:href="#DejaVuSans-53"/>
      </g>
     </g>
    </g>
    <g id="xtick_9">
     <g id="line2d_9">
      <g>
       <use style="stroke:#000000;stroke-width:0.8;" x="406.811748" xlink:href="#m08a2de6d00" y="307.584"/>
      </g>
     </g>
     <g id="text_9">
      <!-- 40 -->
      <defs>
       <path d="M 37.796875 64.3125 
L 12.890625 25.390625 
L 37.796875 25.390625 
z
M 35.203125 72.90625 
L 47.609375 72.90625 
L 47.609375 25.390625 
L 58.015625 25.390625 
L 58.015625 17.1875 
L 47.609375 17.1875 
L 47.609375 0 
L 37.796875 0 
L 37.796875 17.1875 
L 4.890625 17.1875 
L 4.890625 26.703125 
z
" id="DejaVuSans-52"/>
      </defs>
      <g transform="translate(400.449248 322.182437)scale(0.1 -0.1)">
       <use xlink:href="#DejaVuSans-52"/>
       <use x="63.623047" xlink:href="#DejaVuSans-48"/>
      </g>
     </g>
    </g>
    <g id="text_10">
     <!-- Generations -->
     <defs>
      <path d="M 59.515625 10.40625 
L 59.515625 29.984375 
L 43.40625 29.984375 
L 43.40625 38.09375 
L 69.28125 38.09375 
L 69.28125 6.78125 
Q 63.578125 2.734375 56.6875 0.65625 
Q 49.8125 -1.421875 42 -1.421875 
Q 24.90625 -1.421875 15.25 8.5625 
Q 5.609375 18.5625 5.609375 36.375 
Q 5.609375 54.25 15.25 64.234375 
Q 24.90625 74.21875 42 74.21875 
Q 49.125 74.21875 55.546875 72.453125 
Q 61.96875 70.703125 67.390625 67.28125 
L 67.390625 56.78125 
Q 61.921875 61.421875 55.765625 63.765625 
Q 49.609375 66.109375 42.828125 66.109375 
Q 29.4375 66.109375 22.71875 58.640625 
Q 16.015625 51.171875 16.015625 36.375 
Q 16.015625 21.625 22.71875 14.15625 
Q 29.4375 6.6875 42.828125 6.6875 
Q 48.046875 6.6875 52.140625 7.59375 
Q 56.25 8.5 59.515625 10.40625 
z
" id="DejaVuSans-71"/>
      <path d="M 56.203125 29.59375 
L 56.203125 25.203125 
L 14.890625 25.203125 
Q 15.484375 15.921875 20.484375 11.0625 
Q 25.484375 6.203125 34.421875 6.203125 
Q 39.59375 6.203125 44.453125 7.46875 
Q 49.3125 8.734375 54.109375 11.28125 
L 54.109375 2.78125 
Q 49.265625 0.734375 44.1875 -0.34375 
Q 39.109375 -1.421875 33.890625 -1.421875 
Q 20.796875 -1.421875 13.15625 6.1875 
Q 5.515625 13.8125 5.515625 26.8125 
Q 5.515625 40.234375 12.765625 48.109375 
Q 20.015625 56 32.328125 56 
Q 43.359375 56 49.78125 48.890625 
Q 56.203125 41.796875 56.203125 29.59375 
z
M 47.21875 32.234375 
Q 47.125 39.59375 43.09375 43.984375 
Q 39.0625 48.390625 32.421875 48.390625 
Q 24.90625 48.390625 20.390625 44.140625 
Q 15.875 39.890625 15.1875 32.171875 
z
" id="DejaVuSans-101"/>
      <path d="M 54.890625 33.015625 
L 54.890625 0 
L 45.90625 0 
L 45.90625 32.71875 
Q 45.90625 40.484375 42.875 44.328125 
Q 39.84375 48.1875 33.796875 48.1875 
Q 26.515625 48.1875 22.3125 43.546875 
Q 18.109375 38.921875 18.109375 30.90625 
L 18.109375 0 
L 9.078125 0 
L 9.078125 54.6875 
L 18.109375 54.6875 
L 18.109375 46.1875 
Q 21.34375 51.125 25.703125 53.5625 
Q 30.078125 56 35.796875 56 
Q 45.21875 56 50.046875 50.171875 
Q 54.890625 44.34375 54.890625 33.015625 
z
" id="DejaVuSans-110"/>
      <path d="M 41.109375 46.296875 
Q 39.59375 47.171875 37.8125 47.578125 
Q 36.03125 48 33.890625 48 
Q 26.265625 48 22.1875 43.046875 
Q 18.109375 38.09375 18.109375 28.8125 
L 18.109375 0 
L 9.078125 0 
L 9.078125 54.6875 
L 18.109375 54.6875 
L 18.109375 46.1875 
Q 20.953125 51.171875 25.484375 53.578125 
Q 30.03125 56 36.53125 56 
Q 37.453125 56 38.578125 55.875 
Q 39.703125 55.765625 41.0625 55.515625 
z
" id="DejaVuSans-114"/>
      <path d="M 34.28125 27.484375 
Q 23.390625 27.484375 19.1875 25 
Q 14.984375 22.515625 14.984375 16.5 
Q 14.984375 11.71875 18.140625 8.90625 
Q 21.296875 6.109375 26.703125 6.109375 
Q 34.1875 6.109375 38.703125 11.40625 
Q 43.21875 16.703125 43.21875 25.484375 
L 43.21875 27.484375 
z
M 52.203125 31.203125 
L 52.203125 0 
L 43.21875 0 
L 43.21875 8.296875 
Q 40.140625 3.328125 35.546875 0.953125 
Q 30.953125 -1.421875 24.3125 -1.421875 
Q 15.921875 -1.421875 10.953125 3.296875 
Q 6 8.015625 6 15.921875 
Q 6 25.140625 12.171875 29.828125 
Q 18.359375 34.515625 30.609375 34.515625 
L 43.21875 34.515625 
L 43.21875 35.40625 
Q 43.21875 41.609375 39.140625 45 
Q 35.0625 48.390625 27.6875 48.390625 
Q 23 48.390625 18.546875 47.265625 
Q 14.109375 46.140625 10.015625 43.890625 
L 10.015625 52.203125 
Q 14.9375 54.109375 19.578125 55.046875 
Q 24.21875 56 28.609375 56 
Q 40.484375 56 46.34375 49.84375 
Q 52.203125 43.703125 52.203125 31.203125 
z
" id="DejaVuSans-97"/>
      <path d="M 18.3125 70.21875 
L 18.3125 54.6875 
L 36.8125 54.6875 
L 36.8125 47.703125 
L 18.3125 47.703125 
L 18.3125 18.015625 
Q 18.3125 11.328125 20.140625 9.421875 
Q 21.96875 7.515625 27.59375 7.515625 
L 36.8125 7.515625 
L 36.8125 0 
L 27.59375 0 
Q 17.1875 0 13.234375 3.875 
Q 9.28125 7.765625 9.28125 18.015625 
L 9.28125 47.703125 
L 2.6875 47.703125 
L 2.6875 54.6875 
L 9.28125 54.6875 
L 9.28125 70.21875 
z
" id="DejaVuSans-116"/>
      <path d="M 9.421875 54.6875 
L 18.40625 54.6875 
L 18.40625 0 
L 9.421875 0 
z
M 9.421875 75.984375 
L 18.40625 75.984375 
L 18.40625 64.59375 
L 9.421875 64.59375 
z
" id="DejaVuSans-105"/>
      <path d="M 30.609375 48.390625 
Q 23.390625 48.390625 19.1875 42.75 
Q 14.984375 37.109375 14.984375 27.296875 
Q 14.984375 17.484375 19.15625 11.84375 
Q 23.34375 6.203125 30.609375 6.203125 
Q 37.796875 6.203125 41.984375 11.859375 
Q 46.1875 17.53125 46.1875 27.296875 
Q 46.1875 37.015625 41.984375 42.703125 
Q 37.796875 48.390625 30.609375 48.390625 
z
M 30.609375 56 
Q 42.328125 56 49.015625 48.375 
Q 55.71875 40.765625 55.71875 27.296875 
Q 55.71875 13.875 49.015625 6.21875 
Q 42.328125 -1.421875 30.609375 -1.421875 
Q 18.84375 -1.421875 12.171875 6.21875 
Q 5.515625 13.875 5.515625 27.296875 
Q 5.515625 40.765625 12.171875 48.375 
Q 18.84375 56 30.609375 56 
z
" id="DejaVuSans-111"/>
      <path d="M 44.28125 53.078125 
L 44.28125 44.578125 
Q 40.484375 46.53125 36.375 47.5 
Q 32.28125 48.484375 27.875 48.484375 
Q 21.1875 48.484375 17.84375 46.4375 
Q 14.5 44.390625 14.5 40.28125 
Q 14.5 37.15625 16.890625 35.375 
Q 19.28125 33.59375 26.515625 31.984375 
L 29.59375 31.296875 
Q 39.15625 29.25 43.1875 25.515625 
Q 47.21875 21.78125 47.21875 15.09375 
Q 47.21875 7.46875 41.1875 3.015625 
Q 35.15625 -1.421875 24.609375 -1.421875 
Q 20.21875 -1.421875 15.453125 -0.5625 
Q 10.6875 0.296875 5.421875 2 
L 5.421875 11.28125 
Q 10.40625 8.6875 15.234375 7.390625 
Q 20.0625 6.109375 24.8125 6.109375 
Q 31.15625 6.109375 34.5625 8.28125 
Q 37.984375 10.453125 37.984375 14.40625 
Q 37.984375 18.0625 35.515625 20.015625 
Q 33.0625 21.96875 24.703125 23.78125 
L 21.578125 24.515625 
Q 13.234375 26.265625 9.515625 29.90625 
Q 5.8125 33.546875 5.8125 39.890625 
Q 5.8125 47.609375 11.28125 51.796875 
Q 16.75 56 26.8125 56 
Q 31.78125 56 36.171875 55.265625 
Q 40.578125 54.546875 44.28125 53.078125 
z
" id="DejaVuSans-115"/>
     </defs>
     <g transform="translate(205.662344 335.860562)scale(0.1 -0.1)">
      <use xlink:href="#DejaVuSans-71"/>
      <use x="77.490234" xlink:href="#DejaVuSans-101"/>
      <use x="139.013672" xlink:href="#DejaVuSans-110"/>
      <use x="202.392578" xlink:href="#DejaVuSans-101"/>
      <use x="263.916016" xlink:href="#DejaVuSans-114"/>
      <use x="305.029297" xlink:href="#DejaVuSans-97"/>
      <use x="366.308594" xlink:href="#DejaVuSans-116"/>
      <use x="405.517578" xlink:href="#DejaVuSans-105"/>
      <use x="433.300781" xlink:href="#DejaVuSans-111"/>
      <use x="494.482422" xlink:href="#DejaVuSans-110"/>
      <use x="557.861328" xlink:href="#DejaVuSans-115"/>
     </g>
    </g>
   </g>
   <g id="matplotlib.axis_2">
    <g id="ytick_1">
     <g id="line2d_10">
      <defs>
       <path d="M 0 0 
L -3.5 0 
" id="m4d082bbe17" style="stroke:#000000;stroke-width:0.8;"/>
      </defs>
      <g>
       <use style="stroke:#000000;stroke-width:0.8;" x="57.6" xlink:href="#m4d082bbe17" y="307.584"/>
      </g>
     </g>
     <g id="text_11">
      <!-- 0 -->
      <g transform="translate(44.2375 311.383219)scale(0.1 -0.1)">
       <use xlink:href="#DejaVuSans-48"/>
      </g>
     </g>
    </g>
    <g id="ytick_2">
     <g id="line2d_11">
      <g>
       <use style="stroke:#000000;stroke-width:0.8;" x="57.6" xlink:href="#m4d082bbe17" y="257.694236"/>
      </g>
     </g>
     <g id="text_12">
      <!-- 50 -->
      <g transform="translate(37.875 261.493455)scale(0.1 -0.1)">
       <use xlink:href="#DejaVuSans-53"/>
       <use x="63.623047" xlink:href="#DejaVuSans-48"/>
      </g>
     </g>
    </g>
    <g id="ytick_3">
     <g id="line2d_12">
      <g>
       <use style="stroke:#000000;stroke-width:0.8;" x="57.6" xlink:href="#m4d082bbe17" y="207.804472"/>
      </g>
     </g>
     <g id="text_13">
      <!-- 100 -->
      <g transform="translate(31.5125 211.603691)scale(0.1 -0.1)">
       <use xlink:href="#DejaVuSans-49"/>
       <use x="63.623047" xlink:href="#DejaVuSans-48"/>
       <use x="127.246094" xlink:href="#DejaVuSans-48"/>
      </g>
     </g>
    </g>
    <g id="ytick_4">
     <g id="line2d_13">
      <g>
       <use style="stroke:#000000;stroke-width:0.8;" x="57.6" xlink:href="#m4d082bbe17" y="157.914709"/>
      </g>
     </g>
     <g id="text_14">
      <!-- 150 -->
      <g transform="translate(31.5125 161.713927)scale(0.1 -0.1)">
       <use xlink:href="#DejaVuSans-49"/>
       <use x="63.623047" xlink:href="#DejaVuSans-53"/>
       <use x="127.246094" xlink:href="#DejaVuSans-48"/>
      </g>
     </g>
    </g>
    <g id="ytick_5">
     <g id="line2d_14">
      <g>
       <use style="stroke:#000000;stroke-width:0.8;" x="57.6" xlink:href="#m4d082bbe17" y="108.024945"/>
      </g>
     </g>
     <g id="text_15">
      <!-- 200 -->
      <g transform="translate(31.5125 111.824164)scale(0.1 -0.1)">
       <use xlink:href="#DejaVuSans-50"/>
       <use x="63.623047" xlink:href="#DejaVuSans-48"/>
       <use x="127.246094" xlink:href="#DejaVuSans-48"/>
      </g>
     </g>
    </g>
    <g id="ytick_6">
     <g id="line2d_15">
      <g>
       <use style="stroke:#000000;stroke-width:0.8;" x="57.6" xlink:href="#m4d082bbe17" y="58.135181"/>
      </g>
     </g>
     <g id="text_16">
      <!-- 250 -->
      <g transform="translate(31.5125 61.9344)scale(0.1 -0.1)">
       <use xlink:href="#DejaVuSans-50"/>
       <use x="63.623047" xlink:href="#DejaVuSans-53"/>
       <use x="127.246094" xlink:href="#DejaVuSans-48"/>
      </g>
     </g>
    </g>
    <g id="text_17">
     <!-- Size per Species -->
     <defs>
      <path d="M 53.515625 70.515625 
L 53.515625 60.890625 
Q 47.90625 63.578125 42.921875 64.890625 
Q 37.9375 66.21875 33.296875 66.21875 
Q 25.25 66.21875 20.875 63.09375 
Q 16.5 59.96875 16.5 54.203125 
Q 16.5 49.359375 19.40625 46.890625 
Q 22.3125 44.4375 30.421875 42.921875 
L 36.375 41.703125 
Q 47.40625 39.59375 52.65625 34.296875 
Q 57.90625 29 57.90625 20.125 
Q 57.90625 9.515625 50.796875 4.046875 
Q 43.703125 -1.421875 29.984375 -1.421875 
Q 24.8125 -1.421875 18.96875 -0.25 
Q 13.140625 0.921875 6.890625 3.21875 
L 6.890625 13.375 
Q 12.890625 10.015625 18.65625 8.296875 
Q 24.421875 6.59375 29.984375 6.59375 
Q 38.421875 6.59375 43.015625 9.90625 
Q 47.609375 13.234375 47.609375 19.390625 
Q 47.609375 24.75 44.3125 27.78125 
Q 41.015625 30.8125 33.5 32.328125 
L 27.484375 33.5 
Q 16.453125 35.6875 11.515625 40.375 
Q 6.59375 45.0625 6.59375 53.421875 
Q 6.59375 63.09375 13.40625 68.65625 
Q 20.21875 74.21875 32.171875 74.21875 
Q 37.3125 74.21875 42.625 73.28125 
Q 47.953125 72.359375 53.515625 70.515625 
z
" id="DejaVuSans-83"/>
      <path d="M 5.515625 54.6875 
L 48.1875 54.6875 
L 48.1875 46.484375 
L 14.40625 7.171875 
L 48.1875 7.171875 
L 48.1875 0 
L 4.296875 0 
L 4.296875 8.203125 
L 38.09375 47.515625 
L 5.515625 47.515625 
z
" id="DejaVuSans-122"/>
      <path id="DejaVuSans-32"/>
      <path d="M 18.109375 8.203125 
L 18.109375 -20.796875 
L 9.078125 -20.796875 
L 9.078125 54.6875 
L 18.109375 54.6875 
L 18.109375 46.390625 
Q 20.953125 51.265625 25.265625 53.625 
Q 29.59375 56 35.59375 56 
Q 45.5625 56 51.78125 48.09375 
Q 58.015625 40.1875 58.015625 27.296875 
Q 58.015625 14.40625 51.78125 6.484375 
Q 45.5625 -1.421875 35.59375 -1.421875 
Q 29.59375 -1.421875 25.265625 0.953125 
Q 20.953125 3.328125 18.109375 8.203125 
z
M 48.6875 27.296875 
Q 48.6875 37.203125 44.609375 42.84375 
Q 40.53125 48.484375 33.40625 48.484375 
Q 26.265625 48.484375 22.1875 42.84375 
Q 18.109375 37.203125 18.109375 27.296875 
Q 18.109375 17.390625 22.1875 11.75 
Q 26.265625 6.109375 33.40625 6.109375 
Q 40.53125 6.109375 44.609375 11.75 
Q 48.6875 17.390625 48.6875 27.296875 
z
" id="DejaVuSans-112"/>
      <path d="M 48.78125 52.59375 
L 48.78125 44.1875 
Q 44.96875 46.296875 41.140625 47.34375 
Q 37.3125 48.390625 33.40625 48.390625 
Q 24.65625 48.390625 19.8125 42.84375 
Q 14.984375 37.3125 14.984375 27.296875 
Q 14.984375 17.28125 19.8125 11.734375 
Q 24.65625 6.203125 33.40625 6.203125 
Q 37.3125 6.203125 41.140625 7.25 
Q 44.96875 8.296875 48.78125 10.40625 
L 48.78125 2.09375 
Q 45.015625 0.34375 40.984375 -0.53125 
Q 36.96875 -1.421875 32.421875 -1.421875 
Q 20.0625 -1.421875 12.78125 6.34375 
Q 5.515625 14.109375 5.515625 27.296875 
Q 5.515625 40.671875 12.859375 48.328125 
Q 20.21875 56 33.015625 56 
Q 37.15625 56 41.109375 55.140625 
Q 45.0625 54.296875 48.78125 52.59375 
z
" id="DejaVuSans-99"/>
     </defs>
     <g transform="translate(25.432812 215.520969)rotate(-90)scale(0.1 -0.1)">
      <use xlink:href="#DejaVuSans-83"/>
      <use x="63.476562" xlink:href="#DejaVuSans-105"/>
      <use x="91.259766" xlink:href="#DejaVuSans-122"/>
      <use x="143.75" xlink:href="#DejaVuSans-101"/>
      <use x="205.273438" xlink:href="#DejaVuSans-32"/>
      <use x="237.060547" xlink:href="#DejaVuSans-112"/>
      <use x="300.537109" xlink:href="#DejaVuSans-101"/>
      <use x="362.060547" xlink:href="#DejaVuSans-114"/>
      <use x="403.173828" xlink:href="#DejaVuSans-32"/>
      <use x="434.960938" xlink:href="#DejaVuSans-83"/>
      <use x="498.4375" xlink:href="#DejaVuSans-112"/>
      <use x="561.914062" xlink:href="#DejaVuSans-101"/>
      <use x="623.4375" xlink:href="#DejaVuSans-99"/>
      <use x="678.417969" xlink:href="#DejaVuSans-105"/>
      <use x="706.201172" xlink:href="#DejaVuSans-101"/>
      <use x="767.724609" xlink:href="#DejaVuSans-115"/>
     </g>
    </g>
   </g>
   <g id="patch_3">
    <path d="M 57.6 307.584 
L 57.6 41.472 
" style="fill:none;stroke:#000000;stroke-linecap:square;stroke-linejoin:miter;stroke-width:0.8;"/>
   </g>
   <g id="patch_4">
    <path d="M 414.72 307.584 
L 414.72 41.472 
" style="fill:none;stroke:#000000;stroke-linecap:square;stroke-linejoin:miter;stroke-width:0.8;"/>
   </g>
   <g id="patch_5">
    <path d="M 57.6 307.584 
L 414.72 307.584 
" style="fill:none;stroke:#000000;stroke-linecap:square;stroke-linejoin:miter;stroke-width:0.8;"/>
   </g>
   <g id="patch_6">
    <path d="M 57.6 41.472 
L 414.72 41.472 
" style="fill:none;stroke:#000000;stroke-linecap:square;stroke-linejoin:miter;stroke-width:0.8;"/>
   </g>
   <g id="text_18">
    <!-- Speciation -->
    <g transform="translate(204.714375 35.472)scale(0.12 -0.12)">
     <use xlink:href="#DejaVuSans-83"/>
     <use x="63.476562" xlink:href="#DejaVuSans-112"/>
     <use x="126.953125" xlink:href="#DejaVuSans-101"/>
     <use x="188.476562" xlink:href="#DejaVuSans-99"/>
     <use x="243.457031" xlink:href="#DejaVuSans-105"/>
     <use x="271.240234" xlink:href="#DejaVuSans-97"/>
     <use x="332.519531" xlink:href="#DejaVuSans-116"/>
     <use x="371.728516" xlink:href="#DejaVuSans-105"/>
     <use x="399.511719" xlink:href="#DejaVuSans-111"/>
     <use x="460.693359" xlink:href="#DejaVuSans-110"/>
    </g>
   </g>
  </g>
 </g>
 <defs>
  <clipPath id="pec0925e01f">
   <rect height="266.112" width="357.12" x="57.6" y="41.472"/>
  </clipPath>
 </defs>
</svg>
