<?xml version="1.0" encoding="UTF-8" standalone="no"?>
<!DOCTYPE svg PUBLIC "-//W3C//DTD SVG 1.1//EN"
 "http://www.w3.org/Graphics/SVG/1.1/DTD/svg11.dtd">
<!-- Generated by graphviz version 2.38.0 (20140413.2041)
 -->
<!-- Title: %3 Pages: 1 -->
<svg width="189pt" height="121pt"
 viewBox="0.00 0.00 188.75 121.40" xmlns="http://www.w3.org/2000/svg" xmlns:xlink="http://www.w3.org/1999/xlink">
<g id="graph0" class="graph" transform="scale(1 1) rotate(0) translate(4 117.397)">
<title>%3</title>
<polygon fill="white" stroke="none" points="-4,4 -4,-117.397 184.749,-117.397 184.749,4 -4,4"/>
<!-- x -->
<g id="node1" class="node"><title>x</title>
<polygon fill="lightgray" stroke="black" points="20,-113.397 0,-113.397 0,-95.397 20,-95.397 20,-113.397"/>
<text text-anchor="middle" x="10" y="-102.197" font-family="Times New Roman,serif" font-size="9.00">x</text>
</g>
<!-- control -->
<g id="node5" class="node"><title>control</title>
<ellipse fill="lightblue" stroke="black" cx="67" cy="-29.6985" rx="29.8983" ry="29.8983"/>
<text text-anchor="middle" x="67" y="-27.4985" font-family="Times New Roman,serif" font-size="9.00">control</text>
</g>
<!-- x&#45;&gt;control -->
<g id="edge4" class="edge"><title>x&#45;&gt;control</title>
<path fill="none" stroke="green" stroke-width="0.380768" d="M16.3178,-95.3392C22.7376,-87.1512 33.0874,-73.951 42.7657,-61.6072"/>
<polygon fill="green" stroke="green" stroke-width="0.380768" points="45.5649,-63.7096 48.9807,-53.6805 40.0562,-59.3904 45.5649,-63.7096"/>
</g>
<!-- dx -->
<g id="node2" class="node"><title>dx</title>
<polygon fill="lightgray" stroke="black" points="63.5,-113.397 38.5,-113.397 38.5,-95.397 63.5,-95.397 63.5,-113.397"/>
<text text-anchor="middle" x="51" y="-102.197" font-family="Times New Roman,serif" font-size="9.00">dx</text>
</g>
<!-- dx&#45;&gt;control -->
<g id="edge2" class="edge"><title>dx&#45;&gt;control</title>
<path fill="none" stroke="green" stroke-width="0.561739" d="M52.7734,-95.3392C54.2257,-88.7403 56.3946,-78.8858 58.6038,-68.8479"/>
<polygon fill="green" stroke="green" stroke-width="0.561739" points="62.0701,-69.3811 60.8015,-58.8625 55.2338,-67.8765 62.0701,-69.3811"/>
</g>
<!-- theta -->
<g id="node3" class="node"><title>theta</title>
<polygon fill="lightgray" stroke="black" points="173.5,-113.397 138.5,-113.397 138.5,-95.397 173.5,-95.397 173.5,-113.397"/>
<text text-anchor="middle" x="156" y="-102.197" font-family="Times New Roman,serif" font-size="9.00">theta</text>
</g>
<!-- theta&#45;&gt;control -->
<g id="edge3" class="edge"><title>theta&#45;&gt;control</title>
<path fill="none" stroke="green" stroke-width="0.75176" d="M146.135,-95.3392C134.545,-85.8718 114.751,-69.7032 97.8596,-55.9057"/>
<polygon fill="green" stroke="green" stroke-width="0.75176" points="99.8081,-52.9781 89.8493,-49.3626 95.3798,-58.3994 99.8081,-52.9781"/>
</g>
<!-- 1417 -->
<g id="node6" class="node"><title>1417</title>
<ellipse fill="none" stroke="black" cx="156" cy="-29.6985" rx="25" ry="25"/>
<text text-anchor="middle" x="156" y="-27.4985" font-family="Times New Roman,serif" font-size="9.00">1417</text>
</g>
<!-- theta&#45;&gt;1417 -->
<g id="edge5" class="edge"><title>theta&#45;&gt;1417</title>
<path fill="none" stroke="green" stroke-width="0.390674" d="M156,-95.3392C156,-87.8669 156,-76.2203 156,-64.8597"/>
<polygon fill="green" stroke="green" stroke-width="0.390674" points="159.5,-64.6348 156,-54.6349 152.5,-64.6349 159.5,-64.6348"/>
</g>
<!-- dtheta -->
<g id="node4" class="node"><title>dtheta</title>
<polygon fill="lightgray" stroke="black" points="120.5,-113.397 81.5,-113.397 81.5,-95.397 120.5,-95.397 120.5,-113.397"/>
<text text-anchor="middle" x="101" y="-102.197" font-family="Times New Roman,serif" font-size="9.00">dtheta</text>
</g>
<!-- dtheta&#45;&gt;control -->
<g id="edge1" class="edge"><title>dtheta&#45;&gt;control</title>
<path fill="none" stroke="green" stroke-width="1.14876" d="M97.2315,-95.3392C93.8546,-88.1188 88.6548,-77.0006 83.5143,-66.0092"/>
<polygon fill="green" stroke="green" stroke-width="1.14876" points="86.6584,-64.4701 79.2515,-56.8945 80.3176,-67.4356 86.6584,-64.4701"/>
</g>
</g>
</svg>
