<?xml version="1.0" encoding="UTF-8" standalone="no"?>
<!DOCTYPE svg PUBLIC "-//W3C//DTD SVG 1.1//EN"
 "http://www.w3.org/Graphics/SVG/1.1/DTD/svg11.dtd">
<!-- Generated by graphviz version 2.38.0 (20140413.2041)
 -->
<!-- Title: %3 Pages: 1 -->
<svg width="204pt" height="121pt"
 viewBox="0.00 0.00 204.21 121.40" xmlns="http://www.w3.org/2000/svg" xmlns:xlink="http://www.w3.org/1999/xlink">
<g id="graph0" class="graph" transform="scale(1 1) rotate(0) translate(4 117.397)">
<title>%3</title>
<polygon fill="white" stroke="none" points="-4,4 -4,-117.397 200.213,-117.397 200.213,4 -4,4"/>
<!-- x -->
<g id="node1" class="node"><title>x</title>
<polygon fill="lightgray" stroke="black" points="20,-113.397 0,-113.397 0,-95.397 20,-95.397 20,-113.397"/>
<text text-anchor="middle" x="10" y="-102.197" font-family="Times New Roman,serif" font-size="9.00">x</text>
</g>
<!-- dx -->
<g id="node2" class="node"><title>dx</title>
<polygon fill="lightgray" stroke="black" points="178.5,-113.397 153.5,-113.397 153.5,-95.397 178.5,-95.397 178.5,-113.397"/>
<text text-anchor="middle" x="166" y="-102.197" font-family="Times New Roman,serif" font-size="9.00">dx</text>
</g>
<!-- control -->
<g id="node5" class="node"><title>control</title>
<ellipse fill="lightblue" stroke="black" cx="106" cy="-29.6985" rx="29.8983" ry="29.8983"/>
<text text-anchor="middle" x="106" y="-27.4985" font-family="Times New Roman,serif" font-size="9.00">control</text>
</g>
<!-- dx&#45;&gt;control -->
<g id="edge3" class="edge"><title>dx&#45;&gt;control</title>
<path fill="none" stroke="green" stroke-width="0.123014" d="M159.35,-95.3392C152.492,-87.0299 141.374,-73.5587 131.057,-61.0591"/>
<polygon fill="green" stroke="green" stroke-width="0.123014" points="133.512,-58.534 124.447,-53.0494 128.113,-62.9898 133.512,-58.534"/>
</g>
<!-- 422 -->
<g id="node6" class="node"><title>422</title>
<ellipse fill="none" stroke="black" cx="175" cy="-29.6985" rx="21.4286" ry="21.4286"/>
<text text-anchor="middle" x="175" y="-27.4985" font-family="Times New Roman,serif" font-size="9.00">422</text>
</g>
<!-- dx&#45;&gt;422 -->
<g id="edge4" class="edge"><title>dx&#45;&gt;422</title>
<path fill="none" stroke="green" stroke-width="0.3" d="M166.998,-95.3392C168.027,-87.0213 169.697,-73.5306 171.246,-61.02"/>
<polygon fill="green" stroke="green" stroke-width="0.3" points="174.747,-61.2309 172.502,-50.8766 167.8,-60.3708 174.747,-61.2309"/>
</g>
<!-- theta -->
<g id="node3" class="node"><title>theta</title>
<polygon fill="lightgray" stroke="black" points="73.5,-113.397 38.5,-113.397 38.5,-95.397 73.5,-95.397 73.5,-113.397"/>
<text text-anchor="middle" x="56" y="-102.197" font-family="Times New Roman,serif" font-size="9.00">theta</text>
</g>
<!-- theta&#45;&gt;control -->
<g id="edge2" class="edge"><title>theta&#45;&gt;control</title>
<path fill="none" stroke="green" stroke-width="0.187061" d="M61.5419,-95.3392C66.9434,-87.4857 75.5162,-75.021 83.6989,-63.1236"/>
<polygon fill="green" stroke="green" stroke-width="0.187061" points="86.7542,-64.8577 89.5372,-54.6349 80.9866,-60.8909 86.7542,-64.8577"/>
</g>
<!-- dtheta -->
<g id="node4" class="node"><title>dtheta</title>
<polygon fill="lightgray" stroke="black" points="130.5,-113.397 91.5,-113.397 91.5,-95.397 130.5,-95.397 130.5,-113.397"/>
<text text-anchor="middle" x="111" y="-102.197" font-family="Times New Roman,serif" font-size="9.00">dtheta</text>
</g>
<!-- dtheta&#45;&gt;control -->
<g id="edge1" class="edge"><title>dtheta&#45;&gt;control</title>
<path fill="none" stroke="green" stroke-width="0.145435" d="M110.446,-95.3392C110.004,-88.9188 109.351,-79.4165 108.68,-69.6619"/>
<polygon fill="green" stroke="green" stroke-width="0.145435" points="112.161,-69.2601 107.983,-59.5238 105.177,-69.7405 112.161,-69.2601"/>
</g>
</g>
</svg>
