<?xml version="1.0" encoding="utf-8" standalone="no"?>
<!DOCTYPE svg PUBLIC "-//W3C//DTD SVG 1.1//EN"
  "http://www.w3.org/Graphics/SVG/1.1/DTD/svg11.dtd">
<!-- Created with matplotlib (https://matplotlib.org/) -->
<svg height="345.6pt" version="1.1" viewBox="0 0 460.8 345.6" width="460.8pt" xmlns="http://www.w3.org/2000/svg" xmlns:xlink="http://www.w3.org/1999/xlink">
 <defs>
  <style type="text/css">
*{stroke-linecap:butt;stroke-linejoin:round;}
  </style>
 </defs>
 <g id="figure_1">
  <g id="patch_1">
   <path d="M 0 345.6 
L 460.8 345.6 
L 460.8 0 
L 0 0 
z
" style="fill:#ffffff;"/>
  </g>
  <g id="axes_1">
   <g id="patch_2">
    <path d="M 57.6 307.584 
L 414.72 307.584 
L 414.72 41.472 
L 57.6 41.472 
z
" style="fill:#ffffff;"/>
   </g>
   <g id="PolyCollection_1">
    <path clip-path="url(#paf8f012e3d)" d="M 73.832727 268.669984 
L 73.832727 307.584 
L 81.562597 307.584 
L 89.292468 307.584 
L 97.022338 307.584 
L 104.752208 307.584 
L 112.482078 307.584 
L 120.211948 307.584 
L 127.941818 307.584 
L 135.671688 307.584 
L 143.401558 307.584 
L 151.131429 307.584 
L 158.861299 307.584 
L 166.591169 307.584 
L 174.321039 307.584 
L 182.050909 307.584 
L 189.780779 307.584 
L 197.510649 307.584 
L 205.240519 307.584 
L 212.97039 307.584 
L 220.70026 307.584 
L 228.43013 307.584 
L 236.16 307.584 
L 243.88987 307.584 
L 251.61974 307.584 
L 259.34961 307.584 
L 267.079481 307.584 
L 274.809351 307.584 
L 282.539221 307.584 
L 290.269091 307.584 
L 297.998961 307.584 
L 305.728831 307.584 
L 313.458701 307.584 
L 321.188571 307.584 
L 328.918442 307.584 
L 336.648312 307.584 
L 344.378182 307.584 
L 352.108052 307.584 
L 359.837922 307.584 
L 367.567792 307.584 
L 375.297662 307.584 
L 383.027532 307.584 
L 390.757403 307.584 
L 398.487273 307.584 
L 398.487273 307.584 
L 398.487273 307.584 
L 390.757403 307.584 
L 383.027532 307.584 
L 375.297662 307.584 
L 367.567792 307.584 
L 359.837922 307.584 
L 352.108052 292.617071 
L 344.378182 298.603843 
L 336.648312 301.597228 
L 328.918442 289.623685 
L 321.188571 294.612661 
L 313.458701 294.612661 
L 305.728831 294.612661 
L 297.998961 296.608252 
L 290.269091 299.601638 
L 282.539221 299.601638 
L 274.809351 295.610457 
L 267.079481 298.603843 
L 259.34961 296.608252 
L 251.61974 274.656756 
L 243.88987 271.66337 
L 236.16 287.628094 
L 228.43013 286.630299 
L 220.70026 291.619276 
L 212.97039 277.650142 
L 205.240519 281.641323 
L 197.510649 267.672189 
L 189.780779 299.601638 
L 182.050909 294.612661 
L 174.321039 279.645732 
L 166.591169 283.636913 
L 158.861299 269.66778 
L 151.131429 264.678803 
L 143.401558 248.714079 
L 135.671688 266.674394 
L 127.941818 303.592819 
L 120.211948 269.66778 
L 112.482078 293.614866 
L 104.752208 286.630299 
L 97.022338 273.658961 
L 89.292468 275.654551 
L 81.562597 278.647937 
L 73.832727 268.669984 
z
" style="fill:#1f77b4;"/>
   </g>
   <g id="PolyCollection_2">
    <path clip-path="url(#paf8f012e3d)" d="M 73.832727 210.797858 
L 73.832727 268.669984 
L 81.562597 278.647937 
L 89.292468 275.654551 
L 97.022338 273.658961 
L 104.752208 286.630299 
L 112.482078 293.614866 
L 120.211948 269.66778 
L 127.941818 303.592819 
L 135.671688 266.674394 
L 143.401558 248.714079 
L 151.131429 264.678803 
L 158.861299 269.66778 
L 166.591169 283.636913 
L 174.321039 279.645732 
L 182.050909 294.612661 
L 189.780779 299.601638 
L 197.510649 267.672189 
L 205.240519 281.641323 
L 212.97039 277.650142 
L 220.70026 291.619276 
L 228.43013 286.630299 
L 236.16 287.628094 
L 243.88987 271.66337 
L 251.61974 274.656756 
L 259.34961 296.608252 
L 267.079481 298.603843 
L 274.809351 295.610457 
L 282.539221 299.601638 
L 290.269091 299.601638 
L 297.998961 296.608252 
L 305.728831 294.612661 
L 313.458701 294.612661 
L 321.188571 294.612661 
L 328.918442 289.623685 
L 336.648312 301.597228 
L 344.378182 298.603843 
L 352.108052 292.617071 
L 359.837922 307.584 
L 367.567792 307.584 
L 375.297662 307.584 
L 383.027532 307.584 
L 390.757403 307.584 
L 398.487273 307.584 
L 398.487273 307.584 
L 398.487273 307.584 
L 390.757403 307.584 
L 383.027532 307.584 
L 375.297662 302.595024 
L 367.567792 291.619276 
L 359.837922 285.632504 
L 352.108052 277.650142 
L 344.378182 285.632504 
L 336.648312 290.62148 
L 328.918442 272.661165 
L 321.188571 281.641323 
L 313.458701 280.643528 
L 305.728831 279.645732 
L 297.998961 293.614866 
L 290.269091 282.639118 
L 282.539221 291.619276 
L 274.809351 282.639118 
L 267.079481 273.658961 
L 259.34961 282.639118 
L 251.61974 265.676598 
L 243.88987 263.681008 
L 236.16 279.645732 
L 228.43013 278.647937 
L 220.70026 280.643528 
L 212.97039 240.731717 
L 205.240519 273.658961 
L 197.510649 260.687622 
L 189.780779 290.62148 
L 182.050909 285.632504 
L 174.321039 259.689827 
L 166.591169 262.683213 
L 158.861299 258.692031 
L 151.131429 256.696441 
L 143.401558 244.722898 
L 135.671688 244.722898 
L 127.941818 277.650142 
L 120.211948 233.74715 
L 112.482078 262.683213 
L 104.752208 258.692031 
L 97.022338 241.729512 
L 89.292468 261.685417 
L 81.562597 252.70526 
L 73.832727 210.797858 
z
" style="fill:#ff7f0e;"/>
   </g>
   <g id="PolyCollection_3">
    <path clip-path="url(#paf8f012e3d)" d="M 73.832727 189.844157 
L 73.832727 210.797858 
L 81.562597 252.70526 
L 89.292468 261.685417 
L 97.022338 241.729512 
L 104.752208 258.692031 
L 112.482078 262.683213 
L 120.211948 233.74715 
L 127.941818 277.650142 
L 135.671688 244.722898 
L 143.401558 244.722898 
L 151.131429 256.696441 
L 158.861299 258.692031 
L 166.591169 262.683213 
L 174.321039 259.689827 
L 182.050909 285.632504 
L 189.780779 290.62148 
L 197.510649 260.687622 
L 205.240519 273.658961 
L 212.97039 240.731717 
L 220.70026 280.643528 
L 228.43013 278.647937 
L 236.16 279.645732 
L 243.88987 263.681008 
L 251.61974 265.676598 
L 259.34961 282.639118 
L 267.079481 273.658961 
L 274.809351 282.639118 
L 282.539221 291.619276 
L 290.269091 282.639118 
L 297.998961 293.614866 
L 305.728831 279.645732 
L 313.458701 280.643528 
L 321.188571 281.641323 
L 328.918442 272.661165 
L 336.648312 290.62148 
L 344.378182 285.632504 
L 352.108052 277.650142 
L 359.837922 285.632504 
L 367.567792 291.619276 
L 375.297662 302.595024 
L 383.027532 307.584 
L 390.757403 307.584 
L 398.487273 307.584 
L 398.487273 307.584 
L 398.487273 307.584 
L 390.757403 307.584 
L 383.027532 277.650142 
L 375.297662 276.652346 
L 367.567792 259.689827 
L 359.837922 255.698646 
L 352.108052 269.66778 
L 344.378182 272.661165 
L 336.648312 273.658961 
L 328.918442 254.70085 
L 321.188571 276.652346 
L 313.458701 266.674394 
L 305.728831 270.665575 
L 297.998961 278.647937 
L 290.269091 267.672189 
L 282.539221 266.674394 
L 274.809351 269.66778 
L 267.079481 257.694236 
L 259.34961 271.66337 
L 251.61974 257.694236 
L 243.88987 211.795654 
L 236.16 225.764787 
L 228.43013 261.685417 
L 220.70026 263.681008 
L 212.97039 237.738331 
L 205.240519 216.78463 
L 197.510649 225.764787 
L 189.780779 273.658961 
L 182.050909 268.669984 
L 174.321039 241.729512 
L 166.591169 245.720693 
L 158.861299 241.729512 
L 151.131429 244.722898 
L 143.401558 234.744945 
L 135.671688 239.733921 
L 127.941818 273.658961 
L 120.211948 229.755969 
L 112.482078 252.70526 
L 104.752208 246.718488 
L 97.022338 228.758173 
L 89.292468 244.722898 
L 81.562597 228.758173 
L 73.832727 189.844157 
z
" style="fill:#2ca02c;"/>
   </g>
   <g id="PolyCollection_4">
    <path clip-path="url(#paf8f012e3d)" d="M 73.832727 188.846362 
L 73.832727 189.844157 
L 81.562597 228.758173 
L 89.292468 244.722898 
L 97.022338 228.758173 
L 104.752208 246.718488 
L 112.482078 252.70526 
L 120.211948 229.755969 
L 127.941818 273.658961 
L 135.671688 239.733921 
L 143.401558 234.744945 
L 151.131429 244.722898 
L 158.861299 241.729512 
L 166.591169 245.720693 
L 174.321039 241.729512 
L 182.050909 268.669984 
L 189.780779 273.658961 
L 197.510649 225.764787 
L 205.240519 216.78463 
L 212.97039 237.738331 
L 220.70026 263.681008 
L 228.43013 261.685417 
L 236.16 225.764787 
L 243.88987 211.795654 
L 251.61974 257.694236 
L 259.34961 271.66337 
L 267.079481 257.694236 
L 274.809351 269.66778 
L 282.539221 266.674394 
L 290.269091 267.672189 
L 297.998961 278.647937 
L 305.728831 270.665575 
L 313.458701 266.674394 
L 321.188571 276.652346 
L 328.918442 254.70085 
L 336.648312 273.658961 
L 344.378182 272.661165 
L 352.108052 269.66778 
L 359.837922 255.698646 
L 367.567792 259.689827 
L 375.297662 276.652346 
L 383.027532 277.650142 
L 390.757403 307.584 
L 398.487273 307.584 
L 398.487273 307.584 
L 398.487273 307.584 
L 390.757403 307.584 
L 383.027532 277.650142 
L 375.297662 276.652346 
L 367.567792 259.689827 
L 359.837922 255.698646 
L 352.108052 269.66778 
L 344.378182 272.661165 
L 336.648312 273.658961 
L 328.918442 254.70085 
L 321.188571 276.652346 
L 313.458701 258.692031 
L 305.728831 263.681008 
L 297.998961 268.669984 
L 290.269091 259.689827 
L 282.539221 258.692031 
L 274.809351 262.683213 
L 267.079481 253.703055 
L 259.34961 269.66778 
L 251.61974 249.711874 
L 243.88987 195.830929 
L 236.16 205.808882 
L 228.43013 239.733921 
L 220.70026 245.720693 
L 212.97039 225.764787 
L 205.240519 206.806677 
L 197.510649 207.804472 
L 189.780779 259.689827 
L 182.050909 249.711874 
L 174.321039 222.771402 
L 166.591169 236.740535 
L 158.861299 225.764787 
L 151.131429 235.74274 
L 143.401558 228.758173 
L 135.671688 233.74715 
L 127.941818 265.676598 
L 120.211948 222.771402 
L 112.482078 248.714079 
L 104.752208 242.727307 
L 97.022338 223.769197 
L 89.292468 237.738331 
L 81.562597 223.769197 
L 73.832727 188.846362 
z
" style="fill:#d62728;"/>
   </g>
   <g id="PolyCollection_5">
    <path clip-path="url(#paf8f012e3d)" d="M 73.832727 139.954394 
L 73.832727 188.846362 
L 81.562597 223.769197 
L 89.292468 237.738331 
L 97.022338 223.769197 
L 104.752208 242.727307 
L 112.482078 248.714079 
L 120.211948 222.771402 
L 127.941818 265.676598 
L 135.671688 233.74715 
L 143.401558 228.758173 
L 151.131429 235.74274 
L 158.861299 225.764787 
L 166.591169 236.740535 
L 174.321039 222.771402 
L 182.050909 249.711874 
L 189.780779 259.689827 
L 197.510649 207.804472 
L 205.240519 206.806677 
L 212.97039 225.764787 
L 220.70026 245.720693 
L 228.43013 239.733921 
L 236.16 205.808882 
L 243.88987 195.830929 
L 251.61974 249.711874 
L 259.34961 269.66778 
L 267.079481 253.703055 
L 274.809351 262.683213 
L 282.539221 258.692031 
L 290.269091 259.689827 
L 297.998961 268.669984 
L 305.728831 263.681008 
L 313.458701 258.692031 
L 321.188571 276.652346 
L 328.918442 254.70085 
L 336.648312 273.658961 
L 344.378182 272.661165 
L 352.108052 269.66778 
L 359.837922 255.698646 
L 367.567792 259.689827 
L 375.297662 276.652346 
L 383.027532 277.650142 
L 390.757403 307.584 
L 398.487273 307.584 
L 398.487273 307.584 
L 398.487273 307.584 
L 390.757403 307.584 
L 383.027532 277.650142 
L 375.297662 276.652346 
L 367.567792 259.689827 
L 359.837922 255.698646 
L 352.108052 269.66778 
L 344.378182 272.661165 
L 336.648312 273.658961 
L 328.918442 254.70085 
L 321.188571 276.652346 
L 313.458701 251.707465 
L 305.728831 245.720693 
L 297.998961 236.740535 
L 290.269091 246.718488 
L 282.539221 250.709669 
L 274.809351 250.709669 
L 267.079481 239.733921 
L 259.34961 266.674394 
L 251.61974 242.727307 
L 243.88987 187.848567 
L 236.16 194.833134 
L 228.43013 226.762583 
L 220.70026 230.753764 
L 212.97039 214.789039 
L 205.240519 199.82211 
L 197.510649 195.830929 
L 189.780779 248.714079 
L 182.050909 223.769197 
L 174.321039 206.806677 
L 166.591169 209.800063 
L 158.861299 194.833134 
L 151.131429 195.830929 
L 143.401558 213.791244 
L 135.671688 217.782425 
L 127.941818 244.722898 
L 120.211948 194.833134 
L 112.482078 215.786835 
L 104.752208 218.78022 
L 97.022338 208.802268 
L 89.292468 221.773606 
L 81.562597 213.791244 
L 73.832727 139.954394 
z
" style="fill:#9467bd;"/>
   </g>
   <g id="PolyCollection_6">
    <path clip-path="url(#paf8f012e3d)" d="M 73.832727 136.961008 
L 73.832727 139.954394 
L 81.562597 213.791244 
L 89.292468 221.773606 
L 97.022338 208.802268 
L 104.752208 218.78022 
L 112.482078 215.786835 
L 120.211948 194.833134 
L 127.941818 244.722898 
L 135.671688 217.782425 
L 143.401558 213.791244 
L 151.131429 195.830929 
L 158.861299 194.833134 
L 166.591169 209.800063 
L 174.321039 206.806677 
L 182.050909 223.769197 
L 189.780779 248.714079 
L 197.510649 195.830929 
L 205.240519 199.82211 
L 212.97039 214.789039 
L 220.70026 230.753764 
L 228.43013 226.762583 
L 236.16 194.833134 
L 243.88987 187.848567 
L 251.61974 242.727307 
L 259.34961 266.674394 
L 267.079481 239.733921 
L 274.809351 250.709669 
L 282.539221 250.709669 
L 290.269091 246.718488 
L 297.998961 236.740535 
L 305.728831 245.720693 
L 313.458701 251.707465 
L 321.188571 276.652346 
L 328.918442 254.70085 
L 336.648312 273.658961 
L 344.378182 272.661165 
L 352.108052 269.66778 
L 359.837922 255.698646 
L 367.567792 259.689827 
L 375.297662 276.652346 
L 383.027532 277.650142 
L 390.757403 307.584 
L 398.487273 307.584 
L 398.487273 290.62148 
L 398.487273 290.62148 
L 390.757403 298.603843 
L 383.027532 265.676598 
L 375.297662 259.689827 
L 367.567792 244.722898 
L 359.837922 238.736126 
L 352.108052 251.707465 
L 344.378182 251.707465 
L 336.648312 254.70085 
L 328.918442 242.727307 
L 321.188571 255.698646 
L 313.458701 224.766992 
L 305.728831 226.762583 
L 297.998961 225.764787 
L 290.269091 236.740535 
L 282.539221 226.762583 
L 274.809351 209.800063 
L 267.079481 227.760378 
L 259.34961 265.676598 
L 251.61974 236.740535 
L 243.88987 185.852976 
L 236.16 193.835339 
L 228.43013 225.764787 
L 220.70026 218.78022 
L 212.97039 213.791244 
L 205.240519 196.828724 
L 197.510649 194.833134 
L 189.780779 246.718488 
L 182.050909 220.775811 
L 174.321039 203.813291 
L 166.591169 207.804472 
L 158.861299 191.839748 
L 151.131429 193.835339 
L 143.401558 212.793449 
L 135.671688 197.82652 
L 127.941818 230.753764 
L 120.211948 179.866205 
L 112.482078 191.839748 
L 104.752208 179.866205 
L 97.022338 180.864 
L 89.292468 210.797858 
L 81.562597 201.817701 
L 73.832727 136.961008 
z
" style="fill:#8c564b;"/>
   </g>
   <g id="PolyCollection_7">
    <path clip-path="url(#paf8f012e3d)" d="M 73.832727 109.02274 
L 73.832727 136.961008 
L 81.562597 201.817701 
L 89.292468 210.797858 
L 97.022338 180.864 
L 104.752208 179.866205 
L 112.482078 191.839748 
L 120.211948 179.866205 
L 127.941818 230.753764 
L 135.671688 197.82652 
L 143.401558 212.793449 
L 151.131429 193.835339 
L 158.861299 191.839748 
L 166.591169 207.804472 
L 174.321039 203.813291 
L 182.050909 220.775811 
L 189.780779 246.718488 
L 197.510649 194.833134 
L 205.240519 196.828724 
L 212.97039 213.791244 
L 220.70026 218.78022 
L 228.43013 225.764787 
L 236.16 193.835339 
L 243.88987 185.852976 
L 251.61974 236.740535 
L 259.34961 265.676598 
L 267.079481 227.760378 
L 274.809351 209.800063 
L 282.539221 226.762583 
L 290.269091 236.740535 
L 297.998961 225.764787 
L 305.728831 226.762583 
L 313.458701 224.766992 
L 321.188571 255.698646 
L 328.918442 242.727307 
L 336.648312 254.70085 
L 344.378182 251.707465 
L 352.108052 251.707465 
L 359.837922 238.736126 
L 367.567792 244.722898 
L 375.297662 259.689827 
L 383.027532 265.676598 
L 390.757403 298.603843 
L 398.487273 290.62148 
L 398.487273 248.714079 
L 398.487273 248.714079 
L 390.757403 277.650142 
L 383.027532 247.716283 
L 375.297662 250.709669 
L 367.567792 216.78463 
L 359.837922 232.749354 
L 352.108052 234.744945 
L 344.378182 233.74715 
L 336.648312 220.775811 
L 328.918442 208.802268 
L 321.188571 229.755969 
L 313.458701 211.795654 
L 305.728831 201.817701 
L 297.998961 216.78463 
L 290.269091 225.764787 
L 282.539221 212.793449 
L 274.809351 197.82652 
L 267.079481 216.78463 
L 259.34961 257.694236 
L 251.61974 225.764787 
L 243.88987 180.864 
L 236.16 186.850772 
L 228.43013 198.824315 
L 220.70026 196.828724 
L 212.97039 203.813291 
L 205.240519 190.841953 
L 197.510649 185.852976 
L 189.780779 241.729512 
L 182.050909 215.786835 
L 174.321039 192.837543 
L 166.591169 198.824315 
L 158.861299 173.879433 
L 151.131429 179.866205 
L 143.401558 204.811087 
L 135.671688 176.872819 
L 127.941818 184.855181 
L 120.211948 157.914709 
L 112.482078 186.850772 
L 104.752208 174.877228 
L 97.022338 173.879433 
L 89.292468 186.850772 
L 81.562597 177.870614 
L 73.832727 109.02274 
z
" style="fill:#e377c2;"/>
   </g>
   <g id="PolyCollection_8">
    <path clip-path="url(#paf8f012e3d)" d="M 73.832727 108.024945 
L 73.832727 109.02274 
L 81.562597 177.870614 
L 89.292468 186.850772 
L 97.022338 173.879433 
L 104.752208 174.877228 
L 112.482078 186.850772 
L 120.211948 157.914709 
L 127.941818 184.855181 
L 135.671688 176.872819 
L 143.401558 204.811087 
L 151.131429 179.866205 
L 158.861299 173.879433 
L 166.591169 198.824315 
L 174.321039 192.837543 
L 182.050909 215.786835 
L 189.780779 241.729512 
L 197.510649 185.852976 
L 205.240519 190.841953 
L 212.97039 203.813291 
L 220.70026 196.828724 
L 228.43013 198.824315 
L 236.16 186.850772 
L 243.88987 180.864 
L 251.61974 225.764787 
L 259.34961 257.694236 
L 267.079481 216.78463 
L 274.809351 197.82652 
L 282.539221 212.793449 
L 290.269091 225.764787 
L 297.998961 216.78463 
L 305.728831 201.817701 
L 313.458701 211.795654 
L 321.188571 229.755969 
L 328.918442 208.802268 
L 336.648312 220.775811 
L 344.378182 233.74715 
L 352.108052 234.744945 
L 359.837922 232.749354 
L 367.567792 216.78463 
L 375.297662 250.709669 
L 383.027532 247.716283 
L 390.757403 277.650142 
L 398.487273 248.714079 
L 398.487273 238.736126 
L 398.487273 238.736126 
L 390.757403 253.703055 
L 383.027532 222.771402 
L 375.297662 233.74715 
L 367.567792 201.817701 
L 359.837922 220.775811 
L 352.108052 219.778016 
L 344.378182 214.789039 
L 336.648312 209.800063 
L 328.918442 188.846362 
L 321.188571 205.808882 
L 313.458701 187.848567 
L 305.728831 183.857386 
L 297.998961 194.833134 
L 290.269091 191.839748 
L 282.539221 208.802268 
L 274.809351 196.828724 
L 267.079481 215.786835 
L 259.34961 252.70526 
L 251.61974 223.769197 
L 243.88987 177.870614 
L 236.16 184.855181 
L 228.43013 196.828724 
L 220.70026 194.833134 
L 212.97039 201.817701 
L 205.240519 187.848567 
L 197.510649 183.857386 
L 189.780779 239.733921 
L 182.050909 212.793449 
L 174.321039 190.841953 
L 166.591169 195.830929 
L 158.861299 171.883843 
L 151.131429 176.872819 
L 143.401558 202.815496 
L 135.671688 174.877228 
L 127.941818 182.859591 
L 120.211948 155.919118 
L 112.482078 183.857386 
L 104.752208 171.883843 
L 97.022338 169.888252 
L 89.292468 181.861795 
L 81.562597 171.883843 
L 73.832727 108.024945 
z
" style="fill:#7f7f7f;"/>
   </g>
   <g id="PolyCollection_9">
    <path clip-path="url(#paf8f012e3d)" d="M 73.832727 107.02715 
L 73.832727 108.024945 
L 81.562597 171.883843 
L 89.292468 181.861795 
L 97.022338 169.888252 
L 104.752208 171.883843 
L 112.482078 183.857386 
L 120.211948 155.919118 
L 127.941818 182.859591 
L 135.671688 174.877228 
L 143.401558 202.815496 
L 151.131429 176.872819 
L 158.861299 171.883843 
L 166.591169 195.830929 
L 174.321039 190.841953 
L 182.050909 212.793449 
L 189.780779 239.733921 
L 197.510649 183.857386 
L 205.240519 187.848567 
L 212.97039 201.817701 
L 220.70026 194.833134 
L 228.43013 196.828724 
L 236.16 184.855181 
L 243.88987 177.870614 
L 251.61974 223.769197 
L 259.34961 252.70526 
L 267.079481 215.786835 
L 274.809351 196.828724 
L 282.539221 208.802268 
L 290.269091 191.839748 
L 297.998961 194.833134 
L 305.728831 183.857386 
L 313.458701 187.848567 
L 321.188571 205.808882 
L 328.918442 188.846362 
L 336.648312 209.800063 
L 344.378182 214.789039 
L 352.108052 219.778016 
L 359.837922 220.775811 
L 367.567792 201.817701 
L 375.297662 233.74715 
L 383.027532 222.771402 
L 390.757403 253.703055 
L 398.487273 238.736126 
L 398.487273 235.74274 
L 398.487273 235.74274 
L 390.757403 243.725102 
L 383.027532 190.841953 
L 375.297662 196.828724 
L 367.567792 190.841953 
L 359.837922 206.806677 
L 352.108052 207.804472 
L 344.378182 205.808882 
L 336.648312 197.82652 
L 328.918442 176.872819 
L 321.188571 194.833134 
L 313.458701 177.870614 
L 305.728831 177.870614 
L 297.998961 186.850772 
L 290.269091 183.857386 
L 282.539221 197.82652 
L 274.809351 186.850772 
L 267.079481 205.808882 
L 259.34961 244.722898 
L 251.61974 215.786835 
L 243.88987 166.894866 
L 236.16 177.870614 
L 228.43013 185.852976 
L 220.70026 185.852976 
L 212.97039 191.839748 
L 205.240519 176.872819 
L 197.510649 174.877228 
L 189.780779 229.755969 
L 182.050909 203.813291 
L 174.321039 182.859591 
L 166.591169 184.855181 
L 158.861299 160.908094 
L 151.131429 162.903685 
L 143.401558 187.848567 
L 135.671688 160.908094 
L 127.941818 169.888252 
L 120.211948 149.932346 
L 112.482078 175.875024 
L 104.752208 162.903685 
L 97.022338 161.90589 
L 89.292468 170.886047 
L 81.562597 169.888252 
L 73.832727 107.02715 
z
" style="fill:#bcbd22;"/>
   </g>
   <g id="PolyCollection_10">
    <path clip-path="url(#paf8f012e3d)" d="M 73.832727 106.029354 
L 73.832727 107.02715 
L 81.562597 169.888252 
L 89.292468 170.886047 
L 97.022338 161.90589 
L 104.752208 162.903685 
L 112.482078 175.875024 
L 120.211948 149.932346 
L 127.941818 169.888252 
L 135.671688 160.908094 
L 143.401558 187.848567 
L 151.131429 162.903685 
L 158.861299 160.908094 
L 166.591169 184.855181 
L 174.321039 182.859591 
L 182.050909 203.813291 
L 189.780779 229.755969 
L 197.510649 174.877228 
L 205.240519 176.872819 
L 212.97039 191.839748 
L 220.70026 185.852976 
L 228.43013 185.852976 
L 236.16 177.870614 
L 243.88987 166.894866 
L 251.61974 215.786835 
L 259.34961 244.722898 
L 267.079481 205.808882 
L 274.809351 186.850772 
L 282.539221 197.82652 
L 290.269091 183.857386 
L 297.998961 186.850772 
L 305.728831 177.870614 
L 313.458701 177.870614 
L 321.188571 194.833134 
L 328.918442 176.872819 
L 336.648312 197.82652 
L 344.378182 205.808882 
L 352.108052 207.804472 
L 359.837922 206.806677 
L 367.567792 190.841953 
L 375.297662 196.828724 
L 383.027532 190.841953 
L 390.757403 243.725102 
L 398.487273 235.74274 
L 398.487273 235.74274 
L 398.487273 235.74274 
L 390.757403 243.725102 
L 383.027532 190.841953 
L 375.297662 191.839748 
L 367.567792 182.859591 
L 359.837922 201.817701 
L 352.108052 203.813291 
L 344.378182 200.819906 
L 336.648312 194.833134 
L 328.918442 174.877228 
L 321.188571 191.839748 
L 313.458701 173.879433 
L 305.728831 173.879433 
L 297.998961 180.864 
L 290.269091 179.866205 
L 282.539221 192.837543 
L 274.809351 179.866205 
L 267.079481 199.82211 
L 259.34961 240.731717 
L 251.61974 211.795654 
L 243.88987 161.90589 
L 236.16 173.879433 
L 228.43013 179.866205 
L 220.70026 180.864 
L 212.97039 186.850772 
L 205.240519 171.883843 
L 197.510649 169.888252 
L 189.780779 226.762583 
L 182.050909 199.82211 
L 174.321039 179.866205 
L 166.591169 180.864 
L 158.861299 157.914709 
L 151.131429 160.908094 
L 143.401558 185.852976 
L 135.671688 157.914709 
L 127.941818 165.897071 
L 120.211948 146.938961 
L 112.482078 171.883843 
L 104.752208 159.910299 
L 97.022338 157.914709 
L 89.292468 164.899276 
L 81.562597 163.90148 
L 73.832727 106.029354 
z
" style="fill:#17becf;"/>
   </g>
   <g id="PolyCollection_11">
    <path clip-path="url(#paf8f012e3d)" d="M 73.832727 103.035969 
L 73.832727 106.029354 
L 81.562597 163.90148 
L 89.292468 164.899276 
L 97.022338 157.914709 
L 104.752208 159.910299 
L 112.482078 171.883843 
L 120.211948 146.938961 
L 127.941818 165.897071 
L 135.671688 157.914709 
L 143.401558 185.852976 
L 151.131429 160.908094 
L 158.861299 157.914709 
L 166.591169 180.864 
L 174.321039 179.866205 
L 182.050909 199.82211 
L 189.780779 226.762583 
L 197.510649 169.888252 
L 205.240519 171.883843 
L 212.97039 186.850772 
L 220.70026 180.864 
L 228.43013 179.866205 
L 236.16 173.879433 
L 243.88987 161.90589 
L 251.61974 211.795654 
L 259.34961 240.731717 
L 267.079481 199.82211 
L 274.809351 179.866205 
L 282.539221 192.837543 
L 290.269091 179.866205 
L 297.998961 180.864 
L 305.728831 173.879433 
L 313.458701 173.879433 
L 321.188571 191.839748 
L 328.918442 174.877228 
L 336.648312 194.833134 
L 344.378182 200.819906 
L 352.108052 203.813291 
L 359.837922 201.817701 
L 367.567792 182.859591 
L 375.297662 191.839748 
L 383.027532 190.841953 
L 390.757403 243.725102 
L 398.487273 235.74274 
L 398.487273 228.758173 
L 398.487273 228.758173 
L 390.757403 231.751559 
L 383.027532 173.879433 
L 375.297662 176.872819 
L 367.567792 167.892661 
L 359.837922 195.830929 
L 352.108052 195.830929 
L 344.378182 189.844157 
L 336.648312 177.870614 
L 328.918442 167.892661 
L 321.188571 183.857386 
L 313.458701 172.881638 
L 305.728831 167.892661 
L 297.998961 164.899276 
L 290.269091 176.872819 
L 282.539221 182.859591 
L 274.809351 171.883843 
L 267.079481 195.830929 
L 259.34961 228.758173 
L 251.61974 198.824315 
L 243.88987 148.934551 
L 236.16 167.892661 
L 228.43013 168.890457 
L 220.70026 168.890457 
L 212.97039 176.872819 
L 205.240519 156.916913 
L 197.510649 160.908094 
L 189.780779 186.850772 
L 182.050909 191.839748 
L 174.321039 170.886047 
L 166.591169 166.894866 
L 158.861299 140.952189 
L 151.131429 151.927937 
L 143.401558 153.923528 
L 135.671688 147.936756 
L 127.941818 139.954394 
L 120.211948 119.998488 
L 112.482078 152.925732 
L 104.752208 145.941165 
L 97.022338 149.932346 
L 89.292468 155.919118 
L 81.562597 150.930142 
L 73.832727 103.035969 
z
" style="fill:#1f77b4;"/>
   </g>
   <g id="PolyCollection_12">
    <path clip-path="url(#paf8f012e3d)" d="M 73.832727 92.06022 
L 73.832727 103.035969 
L 81.562597 150.930142 
L 89.292468 155.919118 
L 97.022338 149.932346 
L 104.752208 145.941165 
L 112.482078 152.925732 
L 120.211948 119.998488 
L 127.941818 139.954394 
L 135.671688 147.936756 
L 143.401558 153.923528 
L 151.131429 151.927937 
L 158.861299 140.952189 
L 166.591169 166.894866 
L 174.321039 170.886047 
L 182.050909 191.839748 
L 189.780779 186.850772 
L 197.510649 160.908094 
L 205.240519 156.916913 
L 212.97039 176.872819 
L 220.70026 168.890457 
L 228.43013 168.890457 
L 236.16 167.892661 
L 243.88987 148.934551 
L 251.61974 198.824315 
L 259.34961 228.758173 
L 267.079481 195.830929 
L 274.809351 171.883843 
L 282.539221 182.859591 
L 290.269091 176.872819 
L 297.998961 164.899276 
L 305.728831 167.892661 
L 313.458701 172.881638 
L 321.188571 183.857386 
L 328.918442 167.892661 
L 336.648312 177.870614 
L 344.378182 189.844157 
L 352.108052 195.830929 
L 359.837922 195.830929 
L 367.567792 167.892661 
L 375.297662 176.872819 
L 383.027532 173.879433 
L 390.757403 231.751559 
L 398.487273 228.758173 
L 398.487273 221.773606 
L 398.487273 221.773606 
L 390.757403 222.771402 
L 383.027532 164.899276 
L 375.297662 168.890457 
L 367.567792 159.910299 
L 359.837922 185.852976 
L 352.108052 186.850772 
L 344.378182 181.861795 
L 336.648312 165.897071 
L 328.918442 154.921323 
L 321.188571 172.881638 
L 313.458701 165.897071 
L 305.728831 161.90589 
L 297.998961 157.914709 
L 290.269091 166.894866 
L 282.539221 173.879433 
L 274.809351 164.899276 
L 267.079481 183.857386 
L 259.34961 215.786835 
L 251.61974 188.846362 
L 243.88987 141.949984 
L 236.16 161.90589 
L 228.43013 160.908094 
L 220.70026 160.908094 
L 212.97039 167.892661 
L 205.240519 147.936756 
L 197.510649 150.930142 
L 189.780779 179.866205 
L 182.050909 182.859591 
L 174.321039 163.90148 
L 166.591169 158.912504 
L 158.861299 128.978646 
L 151.131429 139.954394 
L 143.401558 139.954394 
L 135.671688 134.965417 
L 127.941818 124.987465 
L 120.211948 110.020535 
L 112.482078 141.949984 
L 104.752208 134.965417 
L 97.022338 132.969827 
L 89.292468 144.94337 
L 81.562597 146.938961 
L 73.832727 92.06022 
z
" style="fill:#ff7f0e;"/>
   </g>
   <g id="PolyCollection_13">
    <path clip-path="url(#paf8f012e3d)" d="M 73.832727 82.082268 
L 73.832727 92.06022 
L 81.562597 146.938961 
L 89.292468 144.94337 
L 97.022338 132.969827 
L 104.752208 134.965417 
L 112.482078 141.949984 
L 120.211948 110.020535 
L 127.941818 124.987465 
L 135.671688 134.965417 
L 143.401558 139.954394 
L 151.131429 139.954394 
L 158.861299 128.978646 
L 166.591169 158.912504 
L 174.321039 163.90148 
L 182.050909 182.859591 
L 189.780779 179.866205 
L 197.510649 150.930142 
L 205.240519 147.936756 
L 212.97039 167.892661 
L 220.70026 160.908094 
L 228.43013 160.908094 
L 236.16 161.90589 
L 243.88987 141.949984 
L 251.61974 188.846362 
L 259.34961 215.786835 
L 267.079481 183.857386 
L 274.809351 164.899276 
L 282.539221 173.879433 
L 290.269091 166.894866 
L 297.998961 157.914709 
L 305.728831 161.90589 
L 313.458701 165.897071 
L 321.188571 172.881638 
L 328.918442 154.921323 
L 336.648312 165.897071 
L 344.378182 181.861795 
L 352.108052 186.850772 
L 359.837922 185.852976 
L 367.567792 159.910299 
L 375.297662 168.890457 
L 383.027532 164.899276 
L 390.757403 222.771402 
L 398.487273 221.773606 
L 398.487273 214.789039 
L 398.487273 214.789039 
L 390.757403 211.795654 
L 383.027532 154.921323 
L 375.297662 151.927937 
L 367.567792 152.925732 
L 359.837922 171.883843 
L 352.108052 161.90589 
L 344.378182 154.921323 
L 336.648312 147.936756 
L 328.918442 147.936756 
L 321.188571 144.94337 
L 313.458701 134.965417 
L 305.728831 141.949984 
L 297.998961 143.945575 
L 290.269091 157.914709 
L 282.539221 166.894866 
L 274.809351 142.94778 
L 267.079481 162.903685 
L 259.34961 198.824315 
L 251.61974 167.892661 
L 243.88987 129.976441 
L 236.16 151.927937 
L 228.43013 158.912504 
L 220.70026 156.916913 
L 212.97039 150.930142 
L 205.240519 128.978646 
L 197.510649 144.94337 
L 189.780779 174.877228 
L 182.050909 177.870614 
L 174.321039 134.965417 
L 166.591169 150.930142 
L 158.861299 123.989669 
L 151.131429 135.963213 
L 143.401558 136.961008 
L 135.671688 132.969827 
L 127.941818 111.018331 
L 120.211948 106.029354 
L 112.482078 138.956598 
L 104.752208 116.007307 
L 97.022338 119.000693 
L 89.292468 128.978646 
L 81.562597 125.98526 
L 73.832727 82.082268 
z
" style="fill:#2ca02c;"/>
   </g>
   <g id="PolyCollection_14">
    <path clip-path="url(#paf8f012e3d)" d="M 73.832727 75.097701 
L 73.832727 82.082268 
L 81.562597 125.98526 
L 89.292468 128.978646 
L 97.022338 119.000693 
L 104.752208 116.007307 
L 112.482078 138.956598 
L 120.211948 106.029354 
L 127.941818 111.018331 
L 135.671688 132.969827 
L 143.401558 136.961008 
L 151.131429 135.963213 
L 158.861299 123.989669 
L 166.591169 150.930142 
L 174.321039 134.965417 
L 182.050909 177.870614 
L 189.780779 174.877228 
L 197.510649 144.94337 
L 205.240519 128.978646 
L 212.97039 150.930142 
L 220.70026 156.916913 
L 228.43013 158.912504 
L 236.16 151.927937 
L 243.88987 129.976441 
L 251.61974 167.892661 
L 259.34961 198.824315 
L 267.079481 162.903685 
L 274.809351 142.94778 
L 282.539221 166.894866 
L 290.269091 157.914709 
L 297.998961 143.945575 
L 305.728831 141.949984 
L 313.458701 134.965417 
L 321.188571 144.94337 
L 328.918442 147.936756 
L 336.648312 147.936756 
L 344.378182 154.921323 
L 352.108052 161.90589 
L 359.837922 171.883843 
L 367.567792 152.925732 
L 375.297662 151.927937 
L 383.027532 154.921323 
L 390.757403 211.795654 
L 398.487273 214.789039 
L 398.487273 214.789039 
L 398.487273 214.789039 
L 390.757403 211.795654 
L 383.027532 154.921323 
L 375.297662 151.927937 
L 367.567792 152.925732 
L 359.837922 171.883843 
L 352.108052 161.90589 
L 344.378182 154.921323 
L 336.648312 147.936756 
L 328.918442 147.936756 
L 321.188571 144.94337 
L 313.458701 134.965417 
L 305.728831 141.949984 
L 297.998961 135.963213 
L 290.269091 144.94337 
L 282.539221 134.965417 
L 274.809351 133.967622 
L 267.079481 150.930142 
L 259.34961 178.868409 
L 251.61974 149.932346 
L 243.88987 124.987465 
L 236.16 144.94337 
L 228.43013 151.927937 
L 220.70026 148.934551 
L 212.97039 136.961008 
L 205.240519 116.007307 
L 197.510649 130.974236 
L 189.780779 169.888252 
L 182.050909 167.892661 
L 174.321039 122.991874 
L 166.591169 135.963213 
L 158.861299 118.002898 
L 151.131429 126.983055 
L 143.401558 123.989669 
L 135.671688 102.038173 
L 127.941818 96.051402 
L 120.211948 100.042583 
L 112.482078 122.991874 
L 104.752208 101.040378 
L 97.022338 112.016126 
L 89.292468 121.994079 
L 81.562597 106.029354 
L 73.832727 75.097701 
z
" style="fill:#d62728;"/>
   </g>
   <g id="PolyCollection_15">
    <path clip-path="url(#paf8f012e3d)" d="M 73.832727 74.099906 
L 73.832727 75.097701 
L 81.562597 106.029354 
L 89.292468 121.994079 
L 97.022338 112.016126 
L 104.752208 101.040378 
L 112.482078 122.991874 
L 120.211948 100.042583 
L 127.941818 96.051402 
L 135.671688 102.038173 
L 143.401558 123.989669 
L 151.131429 126.983055 
L 158.861299 118.002898 
L 166.591169 135.963213 
L 174.321039 122.991874 
L 182.050909 167.892661 
L 189.780779 169.888252 
L 197.510649 130.974236 
L 205.240519 116.007307 
L 212.97039 136.961008 
L 220.70026 148.934551 
L 228.43013 151.927937 
L 236.16 144.94337 
L 243.88987 124.987465 
L 251.61974 149.932346 
L 259.34961 178.868409 
L 267.079481 150.930142 
L 274.809351 133.967622 
L 282.539221 134.965417 
L 290.269091 144.94337 
L 297.998961 135.963213 
L 305.728831 141.949984 
L 313.458701 134.965417 
L 321.188571 144.94337 
L 328.918442 147.936756 
L 336.648312 147.936756 
L 344.378182 154.921323 
L 352.108052 161.90589 
L 359.837922 171.883843 
L 367.567792 152.925732 
L 375.297662 151.927937 
L 383.027532 154.921323 
L 390.757403 211.795654 
L 398.487273 214.789039 
L 398.487273 185.852976 
L 398.487273 185.852976 
L 390.757403 184.855181 
L 383.027532 126.983055 
L 375.297662 128.978646 
L 367.567792 138.956598 
L 359.837922 151.927937 
L 352.108052 136.961008 
L 344.378182 126.983055 
L 336.648312 119.998488 
L 328.918442 124.987465 
L 321.188571 129.976441 
L 313.458701 119.000693 
L 305.728831 119.000693 
L 297.998961 115.009512 
L 290.269091 112.016126 
L 282.539221 114.011717 
L 274.809351 112.016126 
L 267.079481 108.024945 
L 259.34961 126.983055 
L 251.61974 105.031559 
L 243.88987 98.046992 
L 236.16 111.018331 
L 228.43013 132.969827 
L 220.70026 128.978646 
L 212.97039 126.983055 
L 205.240519 105.031559 
L 197.510649 119.000693 
L 189.780779 159.910299 
L 182.050909 160.908094 
L 174.321039 118.002898 
L 166.591169 131.972031 
L 158.861299 115.009512 
L 151.131429 122.991874 
L 143.401558 120.996283 
L 135.671688 98.046992 
L 127.941818 93.058016 
L 120.211948 96.051402 
L 112.482078 119.998488 
L 104.752208 99.044787 
L 97.022338 107.02715 
L 89.292468 117.005102 
L 81.562597 101.040378 
L 73.832727 74.099906 
z
" style="fill:#9467bd;"/>
   </g>
   <g id="PolyCollection_16">
    <path clip-path="url(#paf8f012e3d)" d="M 73.832727 70.108724 
L 73.832727 74.099906 
L 81.562597 101.040378 
L 89.292468 117.005102 
L 97.022338 107.02715 
L 104.752208 99.044787 
L 112.482078 119.998488 
L 120.211948 96.051402 
L 127.941818 93.058016 
L 135.671688 98.046992 
L 143.401558 120.996283 
L 151.131429 122.991874 
L 158.861299 115.009512 
L 166.591169 131.972031 
L 174.321039 118.002898 
L 182.050909 160.908094 
L 189.780779 159.910299 
L 197.510649 119.000693 
L 205.240519 105.031559 
L 212.97039 126.983055 
L 220.70026 128.978646 
L 228.43013 132.969827 
L 236.16 111.018331 
L 243.88987 98.046992 
L 251.61974 105.031559 
L 259.34961 126.983055 
L 267.079481 108.024945 
L 274.809351 112.016126 
L 282.539221 114.011717 
L 290.269091 112.016126 
L 297.998961 115.009512 
L 305.728831 119.000693 
L 313.458701 119.000693 
L 321.188571 129.976441 
L 328.918442 124.987465 
L 336.648312 119.998488 
L 344.378182 126.983055 
L 352.108052 136.961008 
L 359.837922 151.927937 
L 367.567792 138.956598 
L 375.297662 128.978646 
L 383.027532 126.983055 
L 390.757403 184.855181 
L 398.487273 185.852976 
L 398.487273 185.852976 
L 398.487273 185.852976 
L 390.757403 184.855181 
L 383.027532 126.983055 
L 375.297662 128.978646 
L 367.567792 138.956598 
L 359.837922 151.927937 
L 352.108052 136.961008 
L 344.378182 126.983055 
L 336.648312 119.998488 
L 328.918442 107.02715 
L 321.188571 121.994079 
L 313.458701 113.013921 
L 305.728831 114.011717 
L 297.998961 100.042583 
L 290.269091 105.031559 
L 282.539221 101.040378 
L 274.809351 93.058016 
L 267.079481 99.044787 
L 259.34961 116.007307 
L 251.61974 89.066835 
L 243.88987 93.058016 
L 236.16 103.035969 
L 228.43013 127.98085 
L 220.70026 98.046992 
L 212.97039 103.035969 
L 205.240519 82.082268 
L 197.510649 92.06022 
L 189.780779 151.927937 
L 182.050909 115.009512 
L 174.321039 91.062425 
L 166.591169 94.055811 
L 158.861299 107.02715 
L 151.131429 119.000693 
L 143.401558 89.066835 
L 135.671688 85.075654 
L 127.941818 87.071244 
L 120.211948 88.069039 
L 112.482078 97.049197 
L 104.752208 92.06022 
L 97.022338 103.035969 
L 89.292468 115.009512 
L 81.562597 81.084472 
L 73.832727 70.108724 
z
" style="fill:#8c564b;"/>
   </g>
   <g id="PolyCollection_17">
    <path clip-path="url(#paf8f012e3d)" d="M 73.832727 69.110929 
L 73.832727 70.108724 
L 81.562597 81.084472 
L 89.292468 115.009512 
L 97.022338 103.035969 
L 104.752208 92.06022 
L 112.482078 97.049197 
L 120.211948 88.069039 
L 127.941818 87.071244 
L 135.671688 85.075654 
L 143.401558 89.066835 
L 151.131429 119.000693 
L 158.861299 107.02715 
L 166.591169 94.055811 
L 174.321039 91.062425 
L 182.050909 115.009512 
L 189.780779 151.927937 
L 197.510649 92.06022 
L 205.240519 82.082268 
L 212.97039 103.035969 
L 220.70026 98.046992 
L 228.43013 127.98085 
L 236.16 103.035969 
L 243.88987 93.058016 
L 251.61974 89.066835 
L 259.34961 116.007307 
L 267.079481 99.044787 
L 274.809351 93.058016 
L 282.539221 101.040378 
L 290.269091 105.031559 
L 297.998961 100.042583 
L 305.728831 114.011717 
L 313.458701 113.013921 
L 321.188571 121.994079 
L 328.918442 107.02715 
L 336.648312 119.998488 
L 344.378182 126.983055 
L 352.108052 136.961008 
L 359.837922 151.927937 
L 367.567792 138.956598 
L 375.297662 128.978646 
L 383.027532 126.983055 
L 390.757403 184.855181 
L 398.487273 185.852976 
L 398.487273 164.899276 
L 398.487273 164.899276 
L 390.757403 167.892661 
L 383.027532 104.033764 
L 375.297662 99.044787 
L 367.567792 107.02715 
L 359.837922 122.991874 
L 352.108052 110.020535 
L 344.378182 107.02715 
L 336.648312 90.06463 
L 328.918442 82.082268 
L 321.188571 95.053606 
L 313.458701 88.069039 
L 305.728831 90.06463 
L 297.998961 77.093291 
L 290.269091 91.062425 
L 282.539221 94.055811 
L 274.809351 89.066835 
L 267.079481 97.049197 
L 259.34961 113.013921 
L 251.61974 88.069039 
L 243.88987 89.066835 
L 236.16 99.044787 
L 228.43013 125.98526 
L 220.70026 95.053606 
L 212.97039 101.040378 
L 205.240519 81.084472 
L 197.510649 89.066835 
L 189.780779 149.932346 
L 182.050909 113.013921 
L 174.321039 88.069039 
L 166.591169 92.06022 
L 158.861299 104.033764 
L 151.131429 117.005102 
L 143.401558 86.073449 
L 135.671688 83.080063 
L 127.941818 84.077858 
L 120.211948 84.077858 
L 112.482078 92.06022 
L 104.752208 88.069039 
L 97.022338 100.042583 
L 89.292468 111.018331 
L 81.562597 76.095496 
L 73.832727 69.110929 
z
" style="fill:#e377c2;"/>
   </g>
   <g id="PolyCollection_18">
    <path clip-path="url(#paf8f012e3d)" d="M 73.832727 63.124157 
L 73.832727 69.110929 
L 81.562597 76.095496 
L 89.292468 111.018331 
L 97.022338 100.042583 
L 104.752208 88.069039 
L 112.482078 92.06022 
L 120.211948 84.077858 
L 127.941818 84.077858 
L 135.671688 83.080063 
L 143.401558 86.073449 
L 151.131429 117.005102 
L 158.861299 104.033764 
L 166.591169 92.06022 
L 174.321039 88.069039 
L 182.050909 113.013921 
L 189.780779 149.932346 
L 197.510649 89.066835 
L 205.240519 81.084472 
L 212.97039 101.040378 
L 220.70026 95.053606 
L 228.43013 125.98526 
L 236.16 99.044787 
L 243.88987 89.066835 
L 251.61974 88.069039 
L 259.34961 113.013921 
L 267.079481 97.049197 
L 274.809351 89.066835 
L 282.539221 94.055811 
L 290.269091 91.062425 
L 297.998961 77.093291 
L 305.728831 90.06463 
L 313.458701 88.069039 
L 321.188571 95.053606 
L 328.918442 82.082268 
L 336.648312 90.06463 
L 344.378182 107.02715 
L 352.108052 110.020535 
L 359.837922 122.991874 
L 367.567792 107.02715 
L 375.297662 99.044787 
L 383.027532 104.033764 
L 390.757403 167.892661 
L 398.487273 164.899276 
L 398.487273 164.899276 
L 398.487273 164.899276 
L 390.757403 167.892661 
L 383.027532 104.033764 
L 375.297662 99.044787 
L 367.567792 107.02715 
L 359.837922 122.991874 
L 352.108052 110.020535 
L 344.378182 107.02715 
L 336.648312 90.06463 
L 328.918442 82.082268 
L 321.188571 95.053606 
L 313.458701 88.069039 
L 305.728831 90.06463 
L 297.998961 77.093291 
L 290.269091 91.062425 
L 282.539221 94.055811 
L 274.809351 89.066835 
L 267.079481 96.051402 
L 259.34961 99.044787 
L 251.61974 87.071244 
L 243.88987 82.082268 
L 236.16 96.051402 
L 228.43013 99.044787 
L 220.70026 93.058016 
L 212.97039 94.055811 
L 205.240519 78.091087 
L 197.510649 88.069039 
L 189.780779 115.009512 
L 182.050909 77.093291 
L 174.321039 73.10211 
L 166.591169 73.10211 
L 158.861299 78.091087 
L 151.131429 83.080063 
L 143.401558 77.093291 
L 135.671688 79.088882 
L 127.941818 80.086677 
L 120.211948 80.086677 
L 112.482078 75.097701 
L 104.752208 78.091087 
L 97.022338 83.080063 
L 89.292468 79.088882 
L 81.562597 72.104315 
L 73.832727 63.124157 
z
" style="fill:#7f7f7f;"/>
   </g>
   <g id="PolyCollection_19">
    <path clip-path="url(#paf8f012e3d)" d="M 73.832727 62.126362 
L 73.832727 63.124157 
L 81.562597 72.104315 
L 89.292468 79.088882 
L 97.022338 83.080063 
L 104.752208 78.091087 
L 112.482078 75.097701 
L 120.211948 80.086677 
L 127.941818 80.086677 
L 135.671688 79.088882 
L 143.401558 77.093291 
L 151.131429 83.080063 
L 158.861299 78.091087 
L 166.591169 73.10211 
L 174.321039 73.10211 
L 182.050909 77.093291 
L 189.780779 115.009512 
L 197.510649 88.069039 
L 205.240519 78.091087 
L 212.97039 94.055811 
L 220.70026 93.058016 
L 228.43013 99.044787 
L 236.16 96.051402 
L 243.88987 82.082268 
L 251.61974 87.071244 
L 259.34961 99.044787 
L 267.079481 96.051402 
L 274.809351 89.066835 
L 282.539221 94.055811 
L 290.269091 91.062425 
L 297.998961 77.093291 
L 305.728831 90.06463 
L 313.458701 88.069039 
L 321.188571 95.053606 
L 328.918442 82.082268 
L 336.648312 90.06463 
L 344.378182 107.02715 
L 352.108052 110.020535 
L 359.837922 122.991874 
L 367.567792 107.02715 
L 375.297662 99.044787 
L 383.027532 104.033764 
L 390.757403 167.892661 
L 398.487273 164.899276 
L 398.487273 164.899276 
L 398.487273 164.899276 
L 390.757403 167.892661 
L 383.027532 104.033764 
L 375.297662 99.044787 
L 367.567792 107.02715 
L 359.837922 122.991874 
L 352.108052 110.020535 
L 344.378182 107.02715 
L 336.648312 90.06463 
L 328.918442 82.082268 
L 321.188571 95.053606 
L 313.458701 88.069039 
L 305.728831 90.06463 
L 297.998961 77.093291 
L 290.269091 91.062425 
L 282.539221 94.055811 
L 274.809351 86.073449 
L 267.079481 94.055811 
L 259.34961 97.049197 
L 251.61974 85.075654 
L 243.88987 79.088882 
L 236.16 94.055811 
L 228.43013 96.051402 
L 220.70026 91.062425 
L 212.97039 92.06022 
L 205.240519 75.097701 
L 197.510649 86.073449 
L 189.780779 113.013921 
L 182.050909 75.097701 
L 174.321039 70.108724 
L 166.591169 69.110929 
L 158.861299 75.097701 
L 151.131429 81.084472 
L 143.401558 75.097701 
L 135.671688 76.095496 
L 127.941818 78.091087 
L 120.211948 77.093291 
L 112.482078 73.10211 
L 104.752208 75.097701 
L 97.022338 79.088882 
L 89.292468 74.099906 
L 81.562597 68.113134 
L 73.832727 62.126362 
z
" style="fill:#bcbd22;"/>
   </g>
   <g id="PolyCollection_20">
    <path clip-path="url(#paf8f012e3d)" d="M 73.832727 61.128567 
L 73.832727 62.126362 
L 81.562597 68.113134 
L 89.292468 74.099906 
L 97.022338 79.088882 
L 104.752208 75.097701 
L 112.482078 73.10211 
L 120.211948 77.093291 
L 127.941818 78.091087 
L 135.671688 76.095496 
L 143.401558 75.097701 
L 151.131429 81.084472 
L 158.861299 75.097701 
L 166.591169 69.110929 
L 174.321039 70.108724 
L 182.050909 75.097701 
L 189.780779 113.013921 
L 197.510649 86.073449 
L 205.240519 75.097701 
L 212.97039 92.06022 
L 220.70026 91.062425 
L 228.43013 96.051402 
L 236.16 94.055811 
L 243.88987 79.088882 
L 251.61974 85.075654 
L 259.34961 97.049197 
L 267.079481 94.055811 
L 274.809351 86.073449 
L 282.539221 94.055811 
L 290.269091 91.062425 
L 297.998961 77.093291 
L 305.728831 90.06463 
L 313.458701 88.069039 
L 321.188571 95.053606 
L 328.918442 82.082268 
L 336.648312 90.06463 
L 344.378182 107.02715 
L 352.108052 110.020535 
L 359.837922 122.991874 
L 367.567792 107.02715 
L 375.297662 99.044787 
L 383.027532 104.033764 
L 390.757403 167.892661 
L 398.487273 164.899276 
L 398.487273 164.899276 
L 398.487273 164.899276 
L 390.757403 167.892661 
L 383.027532 104.033764 
L 375.297662 99.044787 
L 367.567792 107.02715 
L 359.837922 122.991874 
L 352.108052 110.020535 
L 344.378182 107.02715 
L 336.648312 90.06463 
L 328.918442 82.082268 
L 321.188571 95.053606 
L 313.458701 88.069039 
L 305.728831 90.06463 
L 297.998961 77.093291 
L 290.269091 91.062425 
L 282.539221 94.055811 
L 274.809351 86.073449 
L 267.079481 94.055811 
L 259.34961 97.049197 
L 251.61974 85.075654 
L 243.88987 79.088882 
L 236.16 92.06022 
L 228.43013 94.055811 
L 220.70026 88.069039 
L 212.97039 90.06463 
L 205.240519 73.10211 
L 197.510649 84.077858 
L 189.780779 110.020535 
L 182.050909 73.10211 
L 174.321039 68.113134 
L 166.591169 67.115339 
L 158.861299 73.10211 
L 151.131429 79.088882 
L 143.401558 72.104315 
L 135.671688 72.104315 
L 127.941818 76.095496 
L 120.211948 73.10211 
L 112.482078 70.108724 
L 104.752208 73.10211 
L 97.022338 75.097701 
L 89.292468 68.113134 
L 81.562597 65.119748 
L 73.832727 61.128567 
z
" style="fill:#17becf;"/>
   </g>
   <g id="PolyCollection_21">
    <path clip-path="url(#paf8f012e3d)" d="M 73.832727 60.130772 
L 73.832727 61.128567 
L 81.562597 65.119748 
L 89.292468 68.113134 
L 97.022338 75.097701 
L 104.752208 73.10211 
L 112.482078 70.108724 
L 120.211948 73.10211 
L 127.941818 76.095496 
L 135.671688 72.104315 
L 143.401558 72.104315 
L 151.131429 79.088882 
L 158.861299 73.10211 
L 166.591169 67.115339 
L 174.321039 68.113134 
L 182.050909 73.10211 
L 189.780779 110.020535 
L 197.510649 84.077858 
L 205.240519 73.10211 
L 212.97039 90.06463 
L 220.70026 88.069039 
L 228.43013 94.055811 
L 236.16 92.06022 
L 243.88987 79.088882 
L 251.61974 85.075654 
L 259.34961 97.049197 
L 267.079481 94.055811 
L 274.809351 86.073449 
L 282.539221 94.055811 
L 290.269091 91.062425 
L 297.998961 77.093291 
L 305.728831 90.06463 
L 313.458701 88.069039 
L 321.188571 95.053606 
L 328.918442 82.082268 
L 336.648312 90.06463 
L 344.378182 107.02715 
L 352.108052 110.020535 
L 359.837922 122.991874 
L 367.567792 107.02715 
L 375.297662 99.044787 
L 383.027532 104.033764 
L 390.757403 167.892661 
L 398.487273 164.899276 
L 398.487273 133.967622 
L 398.487273 133.967622 
L 390.757403 133.967622 
L 383.027532 87.071244 
L 375.297662 87.071244 
L 367.567792 91.062425 
L 359.837922 103.035969 
L 352.108052 89.066835 
L 344.378182 80.086677 
L 336.648312 74.099906 
L 328.918442 72.104315 
L 321.188571 77.093291 
L 313.458701 72.104315 
L 305.728831 76.095496 
L 297.998961 74.099906 
L 290.269091 71.10652 
L 282.539221 68.113134 
L 274.809351 71.10652 
L 267.079481 82.082268 
L 259.34961 84.077858 
L 251.61974 74.099906 
L 243.88987 69.110929 
L 236.16 86.073449 
L 228.43013 71.10652 
L 220.70026 71.10652 
L 212.97039 71.10652 
L 205.240519 70.108724 
L 197.510649 68.113134 
L 189.780779 73.10211 
L 182.050909 69.110929 
L 174.321039 65.119748 
L 166.591169 65.119748 
L 158.861299 71.10652 
L 151.131429 76.095496 
L 143.401558 68.113134 
L 135.671688 69.110929 
L 127.941818 72.104315 
L 120.211948 69.110929 
L 112.482078 67.115339 
L 104.752208 69.110929 
L 97.022338 70.108724 
L 89.292468 65.119748 
L 81.562597 63.124157 
L 73.832727 60.130772 
z
" style="fill:#1f77b4;"/>
   </g>
   <g id="PolyCollection_22">
    <path clip-path="url(#paf8f012e3d)" d="M 73.832727 59.132976 
L 73.832727 60.130772 
L 81.562597 63.124157 
L 89.292468 65.119748 
L 97.022338 70.108724 
L 104.752208 69.110929 
L 112.482078 67.115339 
L 120.211948 69.110929 
L 127.941818 72.104315 
L 135.671688 69.110929 
L 143.401558 68.113134 
L 151.131429 76.095496 
L 158.861299 71.10652 
L 166.591169 65.119748 
L 174.321039 65.119748 
L 182.050909 69.110929 
L 189.780779 73.10211 
L 197.510649 68.113134 
L 205.240519 70.108724 
L 212.97039 71.10652 
L 220.70026 71.10652 
L 228.43013 71.10652 
L 236.16 86.073449 
L 243.88987 69.110929 
L 251.61974 74.099906 
L 259.34961 84.077858 
L 267.079481 82.082268 
L 274.809351 71.10652 
L 282.539221 68.113134 
L 290.269091 71.10652 
L 297.998961 74.099906 
L 305.728831 76.095496 
L 313.458701 72.104315 
L 321.188571 77.093291 
L 328.918442 72.104315 
L 336.648312 74.099906 
L 344.378182 80.086677 
L 352.108052 89.066835 
L 359.837922 103.035969 
L 367.567792 91.062425 
L 375.297662 87.071244 
L 383.027532 87.071244 
L 390.757403 133.967622 
L 398.487273 133.967622 
L 398.487273 133.967622 
L 398.487273 133.967622 
L 390.757403 133.967622 
L 383.027532 87.071244 
L 375.297662 87.071244 
L 367.567792 91.062425 
L 359.837922 103.035969 
L 352.108052 89.066835 
L 344.378182 80.086677 
L 336.648312 74.099906 
L 328.918442 72.104315 
L 321.188571 77.093291 
L 313.458701 72.104315 
L 305.728831 76.095496 
L 297.998961 74.099906 
L 290.269091 71.10652 
L 282.539221 68.113134 
L 274.809351 68.113134 
L 267.079481 80.086677 
L 259.34961 82.082268 
L 251.61974 72.104315 
L 243.88987 67.115339 
L 236.16 84.077858 
L 228.43013 69.110929 
L 220.70026 69.110929 
L 212.97039 69.110929 
L 205.240519 68.113134 
L 197.510649 66.117543 
L 189.780779 70.108724 
L 182.050909 67.115339 
L 174.321039 62.126362 
L 166.591169 63.124157 
L 158.861299 68.113134 
L 151.131429 74.099906 
L 143.401558 66.117543 
L 135.671688 66.117543 
L 127.941818 70.108724 
L 120.211948 67.115339 
L 112.482078 64.121953 
L 104.752208 65.119748 
L 97.022338 64.121953 
L 89.292468 60.130772 
L 81.562597 59.132976 
L 73.832727 59.132976 
z
" style="fill:#ff7f0e;"/>
   </g>
   <g id="PolyCollection_23">
    <path clip-path="url(#paf8f012e3d)" d="M 73.832727 58.135181 
L 73.832727 59.132976 
L 81.562597 59.132976 
L 89.292468 60.130772 
L 97.022338 64.121953 
L 104.752208 65.119748 
L 112.482078 64.121953 
L 120.211948 67.115339 
L 127.941818 70.108724 
L 135.671688 66.117543 
L 143.401558 66.117543 
L 151.131429 74.099906 
L 158.861299 68.113134 
L 166.591169 63.124157 
L 174.321039 62.126362 
L 182.050909 67.115339 
L 189.780779 70.108724 
L 197.510649 66.117543 
L 205.240519 68.113134 
L 212.97039 69.110929 
L 220.70026 69.110929 
L 228.43013 69.110929 
L 236.16 84.077858 
L 243.88987 67.115339 
L 251.61974 72.104315 
L 259.34961 82.082268 
L 267.079481 80.086677 
L 274.809351 68.113134 
L 282.539221 68.113134 
L 290.269091 71.10652 
L 297.998961 74.099906 
L 305.728831 76.095496 
L 313.458701 72.104315 
L 321.188571 77.093291 
L 328.918442 72.104315 
L 336.648312 74.099906 
L 344.378182 80.086677 
L 352.108052 89.066835 
L 359.837922 103.035969 
L 367.567792 91.062425 
L 375.297662 87.071244 
L 383.027532 87.071244 
L 390.757403 133.967622 
L 398.487273 133.967622 
L 398.487273 97.049197 
L 398.487273 97.049197 
L 390.757403 106.029354 
L 383.027532 72.104315 
L 375.297662 73.10211 
L 367.567792 74.099906 
L 359.837922 78.091087 
L 352.108052 73.10211 
L 344.378182 61.128567 
L 336.648312 56.139591 
L 328.918442 59.132976 
L 321.188571 60.130772 
L 313.458701 59.132976 
L 305.728831 62.126362 
L 297.998961 57.137386 
L 290.269091 58.135181 
L 282.539221 59.132976 
L 274.809351 56.139591 
L 267.079481 58.135181 
L 259.34961 54.144 
L 251.61974 58.135181 
L 243.88987 60.130772 
L 236.16 59.132976 
L 228.43013 59.132976 
L 220.70026 57.137386 
L 212.97039 59.132976 
L 205.240519 56.139591 
L 197.510649 57.137386 
L 189.780779 59.132976 
L 182.050909 58.135181 
L 174.321039 54.144 
L 166.591169 55.141795 
L 158.861299 59.132976 
L 151.131429 61.128567 
L 143.401558 60.130772 
L 135.671688 59.132976 
L 127.941818 62.126362 
L 120.211948 61.128567 
L 112.482078 62.126362 
L 104.752208 62.126362 
L 97.022338 58.135181 
L 89.292468 55.141795 
L 81.562597 55.141795 
L 73.832727 58.135181 
z
" style="fill:#2ca02c;"/>
   </g>
   <g id="PolyCollection_24">
    <path clip-path="url(#paf8f012e3d)" d="M 73.832727 58.135181 
L 73.832727 58.135181 
L 81.562597 55.141795 
L 89.292468 55.141795 
L 97.022338 58.135181 
L 104.752208 62.126362 
L 112.482078 62.126362 
L 120.211948 61.128567 
L 127.941818 62.126362 
L 135.671688 59.132976 
L 143.401558 60.130772 
L 151.131429 61.128567 
L 158.861299 59.132976 
L 166.591169 55.141795 
L 174.321039 54.144 
L 182.050909 58.135181 
L 189.780779 59.132976 
L 197.510649 57.137386 
L 205.240519 56.139591 
L 212.97039 59.132976 
L 220.70026 57.137386 
L 228.43013 59.132976 
L 236.16 59.132976 
L 243.88987 60.130772 
L 251.61974 58.135181 
L 259.34961 54.144 
L 267.079481 58.135181 
L 274.809351 56.139591 
L 282.539221 59.132976 
L 290.269091 58.135181 
L 297.998961 57.137386 
L 305.728831 62.126362 
L 313.458701 59.132976 
L 321.188571 60.130772 
L 328.918442 59.132976 
L 336.648312 56.139591 
L 344.378182 61.128567 
L 352.108052 73.10211 
L 359.837922 78.091087 
L 367.567792 74.099906 
L 375.297662 73.10211 
L 383.027532 72.104315 
L 390.757403 106.029354 
L 398.487273 97.049197 
L 398.487273 58.135181 
L 398.487273 58.135181 
L 390.757403 58.135181 
L 383.027532 58.135181 
L 375.297662 60.130772 
L 367.567792 58.135181 
L 359.837922 61.128567 
L 352.108052 57.137386 
L 344.378182 57.137386 
L 336.648312 56.139591 
L 328.918442 59.132976 
L 321.188571 60.130772 
L 313.458701 59.132976 
L 305.728831 62.126362 
L 297.998961 57.137386 
L 290.269091 58.135181 
L 282.539221 59.132976 
L 274.809351 56.139591 
L 267.079481 58.135181 
L 259.34961 54.144 
L 251.61974 58.135181 
L 243.88987 60.130772 
L 236.16 59.132976 
L 228.43013 59.132976 
L 220.70026 57.137386 
L 212.97039 59.132976 
L 205.240519 56.139591 
L 197.510649 57.137386 
L 189.780779 59.132976 
L 182.050909 58.135181 
L 174.321039 54.144 
L 166.591169 55.141795 
L 158.861299 59.132976 
L 151.131429 61.128567 
L 143.401558 60.130772 
L 135.671688 59.132976 
L 127.941818 62.126362 
L 120.211948 61.128567 
L 112.482078 62.126362 
L 104.752208 62.126362 
L 97.022338 58.135181 
L 89.292468 55.141795 
L 81.562597 55.141795 
L 73.832727 58.135181 
z
" style="fill:#d62728;"/>
   </g>
   <g id="matplotlib.axis_1">
    <g id="xtick_1">
     <g id="line2d_1">
      <defs>
       <path d="M 0 0 
L 0 3.5 
" id="m42a3229db3" style="stroke:#000000;stroke-width:0.8;"/>
      </defs>
      <g>
       <use style="stroke:#000000;stroke-width:0.8;" x="73.832727" xlink:href="#m42a3229db3" y="307.584"/>
      </g>
     </g>
     <g id="text_1">
      <!-- 0 -->
      <defs>
       <path d="M 31.78125 66.40625 
Q 24.171875 66.40625 20.328125 58.90625 
Q 16.5 51.421875 16.5 36.375 
Q 16.5 21.390625 20.328125 13.890625 
Q 24.171875 6.390625 31.78125 6.390625 
Q 39.453125 6.390625 43.28125 13.890625 
Q 47.125 21.390625 47.125 36.375 
Q 47.125 51.421875 43.28125 58.90625 
Q 39.453125 66.40625 31.78125 66.40625 
z
M 31.78125 74.21875 
Q 44.046875 74.21875 50.515625 64.515625 
Q 56.984375 54.828125 56.984375 36.375 
Q 56.984375 17.96875 50.515625 8.265625 
Q 44.046875 -1.421875 31.78125 -1.421875 
Q 19.53125 -1.421875 13.0625 8.265625 
Q 6.59375 17.96875 6.59375 36.375 
Q 6.59375 54.828125 13.0625 64.515625 
Q 19.53125 74.21875 31.78125 74.21875 
z
" id="DejaVuSans-48"/>
      </defs>
      <g transform="translate(70.651477 322.182437)scale(0.1 -0.1)">
       <use xlink:href="#DejaVuSans-48"/>
      </g>
     </g>
    </g>
    <g id="xtick_2">
     <g id="line2d_2">
      <g>
       <use style="stroke:#000000;stroke-width:0.8;" x="151.131429" xlink:href="#m42a3229db3" y="307.584"/>
      </g>
     </g>
     <g id="text_2">
      <!-- 10 -->
      <defs>
       <path d="M 12.40625 8.296875 
L 28.515625 8.296875 
L 28.515625 63.921875 
L 10.984375 60.40625 
L 10.984375 69.390625 
L 28.421875 72.90625 
L 38.28125 72.90625 
L 38.28125 8.296875 
L 54.390625 8.296875 
L 54.390625 0 
L 12.40625 0 
z
" id="DejaVuSans-49"/>
      </defs>
      <g transform="translate(144.768929 322.182437)scale(0.1 -0.1)">
       <use xlink:href="#DejaVuSans-49"/>
       <use x="63.623047" xlink:href="#DejaVuSans-48"/>
      </g>
     </g>
    </g>
    <g id="xtick_3">
     <g id="line2d_3">
      <g>
       <use style="stroke:#000000;stroke-width:0.8;" x="228.43013" xlink:href="#m42a3229db3" y="307.584"/>
      </g>
     </g>
     <g id="text_3">
      <!-- 20 -->
      <defs>
       <path d="M 19.1875 8.296875 
L 53.609375 8.296875 
L 53.609375 0 
L 7.328125 0 
L 7.328125 8.296875 
Q 12.9375 14.109375 22.625 23.890625 
Q 32.328125 33.6875 34.8125 36.53125 
Q 39.546875 41.84375 41.421875 45.53125 
Q 43.3125 49.21875 43.3125 52.78125 
Q 43.3125 58.59375 39.234375 62.25 
Q 35.15625 65.921875 28.609375 65.921875 
Q 23.96875 65.921875 18.8125 64.3125 
Q 13.671875 62.703125 7.8125 59.421875 
L 7.8125 69.390625 
Q 13.765625 71.78125 18.9375 73 
Q 24.125 74.21875 28.421875 74.21875 
Q 39.75 74.21875 46.484375 68.546875 
Q 53.21875 62.890625 53.21875 53.421875 
Q 53.21875 48.921875 51.53125 44.890625 
Q 49.859375 40.875 45.40625 35.40625 
Q 44.1875 33.984375 37.640625 27.21875 
Q 31.109375 20.453125 19.1875 8.296875 
z
" id="DejaVuSans-50"/>
      </defs>
      <g transform="translate(222.06763 322.182437)scale(0.1 -0.1)">
       <use xlink:href="#DejaVuSans-50"/>
       <use x="63.623047" xlink:href="#DejaVuSans-48"/>
      </g>
     </g>
    </g>
    <g id="xtick_4">
     <g id="line2d_4">
      <g>
       <use style="stroke:#000000;stroke-width:0.8;" x="305.728831" xlink:href="#m42a3229db3" y="307.584"/>
      </g>
     </g>
     <g id="text_4">
      <!-- 30 -->
      <defs>
       <path d="M 40.578125 39.3125 
Q 47.65625 37.796875 51.625 33 
Q 55.609375 28.21875 55.609375 21.1875 
Q 55.609375 10.40625 48.1875 4.484375 
Q 40.765625 -1.421875 27.09375 -1.421875 
Q 22.515625 -1.421875 17.65625 -0.515625 
Q 12.796875 0.390625 7.625 2.203125 
L 7.625 11.71875 
Q 11.71875 9.328125 16.59375 8.109375 
Q 21.484375 6.890625 26.8125 6.890625 
Q 36.078125 6.890625 40.9375 10.546875 
Q 45.796875 14.203125 45.796875 21.1875 
Q 45.796875 27.640625 41.28125 31.265625 
Q 36.765625 34.90625 28.71875 34.90625 
L 20.21875 34.90625 
L 20.21875 43.015625 
L 29.109375 43.015625 
Q 36.375 43.015625 40.234375 45.921875 
Q 44.09375 48.828125 44.09375 54.296875 
Q 44.09375 59.90625 40.109375 62.90625 
Q 36.140625 65.921875 28.71875 65.921875 
Q 24.65625 65.921875 20.015625 65.03125 
Q 15.375 64.15625 9.8125 62.3125 
L 9.8125 71.09375 
Q 15.4375 72.65625 20.34375 73.4375 
Q 25.25 74.21875 29.59375 74.21875 
Q 40.828125 74.21875 47.359375 69.109375 
Q 53.90625 64.015625 53.90625 55.328125 
Q 53.90625 49.265625 50.4375 45.09375 
Q 46.96875 40.921875 40.578125 39.3125 
z
" id="DejaVuSans-51"/>
      </defs>
      <g transform="translate(299.366331 322.182437)scale(0.1 -0.1)">
       <use xlink:href="#DejaVuSans-51"/>
       <use x="63.623047" xlink:href="#DejaVuSans-48"/>
      </g>
     </g>
    </g>
    <g id="xtick_5">
     <g id="line2d_5">
      <g>
       <use style="stroke:#000000;stroke-width:0.8;" x="383.027532" xlink:href="#m42a3229db3" y="307.584"/>
      </g>
     </g>
     <g id="text_5">
      <!-- 40 -->
      <defs>
       <path d="M 37.796875 64.3125 
L 12.890625 25.390625 
L 37.796875 25.390625 
z
M 35.203125 72.90625 
L 47.609375 72.90625 
L 47.609375 25.390625 
L 58.015625 25.390625 
L 58.015625 17.1875 
L 47.609375 17.1875 
L 47.609375 0 
L 37.796875 0 
L 37.796875 17.1875 
L 4.890625 17.1875 
L 4.890625 26.703125 
z
" id="DejaVuSans-52"/>
      </defs>
      <g transform="translate(376.665032 322.182437)scale(0.1 -0.1)">
       <use xlink:href="#DejaVuSans-52"/>
       <use x="63.623047" xlink:href="#DejaVuSans-48"/>
      </g>
     </g>
    </g>
    <g id="text_6">
     <!-- Generations -->
     <defs>
      <path d="M 59.515625 10.40625 
L 59.515625 29.984375 
L 43.40625 29.984375 
L 43.40625 38.09375 
L 69.28125 38.09375 
L 69.28125 6.78125 
Q 63.578125 2.734375 56.6875 0.65625 
Q 49.8125 -1.421875 42 -1.421875 
Q 24.90625 -1.421875 15.25 8.5625 
Q 5.609375 18.5625 5.609375 36.375 
Q 5.609375 54.25 15.25 64.234375 
Q 24.90625 74.21875 42 74.21875 
Q 49.125 74.21875 55.546875 72.453125 
Q 61.96875 70.703125 67.390625 67.28125 
L 67.390625 56.78125 
Q 61.921875 61.421875 55.765625 63.765625 
Q 49.609375 66.109375 42.828125 66.109375 
Q 29.4375 66.109375 22.71875 58.640625 
Q 16.015625 51.171875 16.015625 36.375 
Q 16.015625 21.625 22.71875 14.15625 
Q 29.4375 6.6875 42.828125 6.6875 
Q 48.046875 6.6875 52.140625 7.59375 
Q 56.25 8.5 59.515625 10.40625 
z
" id="DejaVuSans-71"/>
      <path d="M 56.203125 29.59375 
L 56.203125 25.203125 
L 14.890625 25.203125 
Q 15.484375 15.921875 20.484375 11.0625 
Q 25.484375 6.203125 34.421875 6.203125 
Q 39.59375 6.203125 44.453125 7.46875 
Q 49.3125 8.734375 54.109375 11.28125 
L 54.109375 2.78125 
Q 49.265625 0.734375 44.1875 -0.34375 
Q 39.109375 -1.421875 33.890625 -1.421875 
Q 20.796875 -1.421875 13.15625 6.1875 
Q 5.515625 13.8125 5.515625 26.8125 
Q 5.515625 40.234375 12.765625 48.109375 
Q 20.015625 56 32.328125 56 
Q 43.359375 56 49.78125 48.890625 
Q 56.203125 41.796875 56.203125 29.59375 
z
M 47.21875 32.234375 
Q 47.125 39.59375 43.09375 43.984375 
Q 39.0625 48.390625 32.421875 48.390625 
Q 24.90625 48.390625 20.390625 44.140625 
Q 15.875 39.890625 15.1875 32.171875 
z
" id="DejaVuSans-101"/>
      <path d="M 54.890625 33.015625 
L 54.890625 0 
L 45.90625 0 
L 45.90625 32.71875 
Q 45.90625 40.484375 42.875 44.328125 
Q 39.84375 48.1875 33.796875 48.1875 
Q 26.515625 48.1875 22.3125 43.546875 
Q 18.109375 38.921875 18.109375 30.90625 
L 18.109375 0 
L 9.078125 0 
L 9.078125 54.6875 
L 18.109375 54.6875 
L 18.109375 46.1875 
Q 21.34375 51.125 25.703125 53.5625 
Q 30.078125 56 35.796875 56 
Q 45.21875 56 50.046875 50.171875 
Q 54.890625 44.34375 54.890625 33.015625 
z
" id="DejaVuSans-110"/>
      <path d="M 41.109375 46.296875 
Q 39.59375 47.171875 37.8125 47.578125 
Q 36.03125 48 33.890625 48 
Q 26.265625 48 22.1875 43.046875 
Q 18.109375 38.09375 18.109375 28.8125 
L 18.109375 0 
L 9.078125 0 
L 9.078125 54.6875 
L 18.109375 54.6875 
L 18.109375 46.1875 
Q 20.953125 51.171875 25.484375 53.578125 
Q 30.03125 56 36.53125 56 
Q 37.453125 56 38.578125 55.875 
Q 39.703125 55.765625 41.0625 55.515625 
z
" id="DejaVuSans-114"/>
      <path d="M 34.28125 27.484375 
Q 23.390625 27.484375 19.1875 25 
Q 14.984375 22.515625 14.984375 16.5 
Q 14.984375 11.71875 18.140625 8.90625 
Q 21.296875 6.109375 26.703125 6.109375 
Q 34.1875 6.109375 38.703125 11.40625 
Q 43.21875 16.703125 43.21875 25.484375 
L 43.21875 27.484375 
z
M 52.203125 31.203125 
L 52.203125 0 
L 43.21875 0 
L 43.21875 8.296875 
Q 40.140625 3.328125 35.546875 0.953125 
Q 30.953125 -1.421875 24.3125 -1.421875 
Q 15.921875 -1.421875 10.953125 3.296875 
Q 6 8.015625 6 15.921875 
Q 6 25.140625 12.171875 29.828125 
Q 18.359375 34.515625 30.609375 34.515625 
L 43.21875 34.515625 
L 43.21875 35.40625 
Q 43.21875 41.609375 39.140625 45 
Q 35.0625 48.390625 27.6875 48.390625 
Q 23 48.390625 18.546875 47.265625 
Q 14.109375 46.140625 10.015625 43.890625 
L 10.015625 52.203125 
Q 14.9375 54.109375 19.578125 55.046875 
Q 24.21875 56 28.609375 56 
Q 40.484375 56 46.34375 49.84375 
Q 52.203125 43.703125 52.203125 31.203125 
z
" id="DejaVuSans-97"/>
      <path d="M 18.3125 70.21875 
L 18.3125 54.6875 
L 36.8125 54.6875 
L 36.8125 47.703125 
L 18.3125 47.703125 
L 18.3125 18.015625 
Q 18.3125 11.328125 20.140625 9.421875 
Q 21.96875 7.515625 27.59375 7.515625 
L 36.8125 7.515625 
L 36.8125 0 
L 27.59375 0 
Q 17.1875 0 13.234375 3.875 
Q 9.28125 7.765625 9.28125 18.015625 
L 9.28125 47.703125 
L 2.6875 47.703125 
L 2.6875 54.6875 
L 9.28125 54.6875 
L 9.28125 70.21875 
z
" id="DejaVuSans-116"/>
      <path d="M 9.421875 54.6875 
L 18.40625 54.6875 
L 18.40625 0 
L 9.421875 0 
z
M 9.421875 75.984375 
L 18.40625 75.984375 
L 18.40625 64.59375 
L 9.421875 64.59375 
z
" id="DejaVuSans-105"/>
      <path d="M 30.609375 48.390625 
Q 23.390625 48.390625 19.1875 42.75 
Q 14.984375 37.109375 14.984375 27.296875 
Q 14.984375 17.484375 19.15625 11.84375 
Q 23.34375 6.203125 30.609375 6.203125 
Q 37.796875 6.203125 41.984375 11.859375 
Q 46.1875 17.53125 46.1875 27.296875 
Q 46.1875 37.015625 41.984375 42.703125 
Q 37.796875 48.390625 30.609375 48.390625 
z
M 30.609375 56 
Q 42.328125 56 49.015625 48.375 
Q 55.71875 40.765625 55.71875 27.296875 
Q 55.71875 13.875 49.015625 6.21875 
Q 42.328125 -1.421875 30.609375 -1.421875 
Q 18.84375 -1.421875 12.171875 6.21875 
Q 5.515625 13.875 5.515625 27.296875 
Q 5.515625 40.765625 12.171875 48.375 
Q 18.84375 56 30.609375 56 
z
" id="DejaVuSans-111"/>
      <path d="M 44.28125 53.078125 
L 44.28125 44.578125 
Q 40.484375 46.53125 36.375 47.5 
Q 32.28125 48.484375 27.875 48.484375 
Q 21.1875 48.484375 17.84375 46.4375 
Q 14.5 44.390625 14.5 40.28125 
Q 14.5 37.15625 16.890625 35.375 
Q 19.28125 33.59375 26.515625 31.984375 
L 29.59375 31.296875 
Q 39.15625 29.25 43.1875 25.515625 
Q 47.21875 21.78125 47.21875 15.09375 
Q 47.21875 7.46875 41.1875 3.015625 
Q 35.15625 -1.421875 24.609375 -1.421875 
Q 20.21875 -1.421875 15.453125 -0.5625 
Q 10.6875 0.296875 5.421875 2 
L 5.421875 11.28125 
Q 10.40625 8.6875 15.234375 7.390625 
Q 20.0625 6.109375 24.8125 6.109375 
Q 31.15625 6.109375 34.5625 8.28125 
Q 37.984375 10.453125 37.984375 14.40625 
Q 37.984375 18.0625 35.515625 20.015625 
Q 33.0625 21.96875 24.703125 23.78125 
L 21.578125 24.515625 
Q 13.234375 26.265625 9.515625 29.90625 
Q 5.8125 33.546875 5.8125 39.890625 
Q 5.8125 47.609375 11.28125 51.796875 
Q 16.75 56 26.8125 56 
Q 31.78125 56 36.171875 55.265625 
Q 40.578125 54.546875 44.28125 53.078125 
z
" id="DejaVuSans-115"/>
     </defs>
     <g transform="translate(205.662344 335.860562)scale(0.1 -0.1)">
      <use xlink:href="#DejaVuSans-71"/>
      <use x="77.490234" xlink:href="#DejaVuSans-101"/>
      <use x="139.013672" xlink:href="#DejaVuSans-110"/>
      <use x="202.392578" xlink:href="#DejaVuSans-101"/>
      <use x="263.916016" xlink:href="#DejaVuSans-114"/>
      <use x="305.029297" xlink:href="#DejaVuSans-97"/>
      <use x="366.308594" xlink:href="#DejaVuSans-116"/>
      <use x="405.517578" xlink:href="#DejaVuSans-105"/>
      <use x="433.300781" xlink:href="#DejaVuSans-111"/>
      <use x="494.482422" xlink:href="#DejaVuSans-110"/>
      <use x="557.861328" xlink:href="#DejaVuSans-115"/>
     </g>
    </g>
   </g>
   <g id="matplotlib.axis_2">
    <g id="ytick_1">
     <g id="line2d_6">
      <defs>
       <path d="M 0 0 
L -3.5 0 
" id="m996e498ef1" style="stroke:#000000;stroke-width:0.8;"/>
      </defs>
      <g>
       <use style="stroke:#000000;stroke-width:0.8;" x="57.6" xlink:href="#m996e498ef1" y="307.584"/>
      </g>
     </g>
     <g id="text_7">
      <!-- 0 -->
      <g transform="translate(44.2375 311.383219)scale(0.1 -0.1)">
       <use xlink:href="#DejaVuSans-48"/>
      </g>
     </g>
    </g>
    <g id="ytick_2">
     <g id="line2d_7">
      <g>
       <use style="stroke:#000000;stroke-width:0.8;" x="57.6" xlink:href="#m996e498ef1" y="257.694236"/>
      </g>
     </g>
     <g id="text_8">
      <!-- 50 -->
      <defs>
       <path d="M 10.796875 72.90625 
L 49.515625 72.90625 
L 49.515625 64.59375 
L 19.828125 64.59375 
L 19.828125 46.734375 
Q 21.96875 47.46875 24.109375 47.828125 
Q 26.265625 48.1875 28.421875 48.1875 
Q 40.625 48.1875 47.75 41.5 
Q 54.890625 34.8125 54.890625 23.390625 
Q 54.890625 11.625 47.5625 5.09375 
Q 40.234375 -1.421875 26.90625 -1.421875 
Q 22.3125 -1.421875 17.546875 -0.640625 
Q 12.796875 0.140625 7.71875 1.703125 
L 7.71875 11.625 
Q 12.109375 9.234375 16.796875 8.0625 
Q 21.484375 6.890625 26.703125 6.890625 
Q 35.15625 6.890625 40.078125 11.328125 
Q 45.015625 15.765625 45.015625 23.390625 
Q 45.015625 31 40.078125 35.4375 
Q 35.15625 39.890625 26.703125 39.890625 
Q 22.75 39.890625 18.8125 39.015625 
Q 14.890625 38.140625 10.796875 36.28125 
z
" id="DejaVuSans-53"/>
      </defs>
      <g transform="translate(37.875 261.493455)scale(0.1 -0.1)">
       <use xlink:href="#DejaVuSans-53"/>
       <use x="63.623047" xlink:href="#DejaVuSans-48"/>
      </g>
     </g>
    </g>
    <g id="ytick_3">
     <g id="line2d_8">
      <g>
       <use style="stroke:#000000;stroke-width:0.8;" x="57.6" xlink:href="#m996e498ef1" y="207.804472"/>
      </g>
     </g>
     <g id="text_9">
      <!-- 100 -->
      <g transform="translate(31.5125 211.603691)scale(0.1 -0.1)">
       <use xlink:href="#DejaVuSans-49"/>
       <use x="63.623047" xlink:href="#DejaVuSans-48"/>
       <use x="127.246094" xlink:href="#DejaVuSans-48"/>
      </g>
     </g>
    </g>
    <g id="ytick_4">
     <g id="line2d_9">
      <g>
       <use style="stroke:#000000;stroke-width:0.8;" x="57.6" xlink:href="#m996e498ef1" y="157.914709"/>
      </g>
     </g>
     <g id="text_10">
      <!-- 150 -->
      <g transform="translate(31.5125 161.713927)scale(0.1 -0.1)">
       <use xlink:href="#DejaVuSans-49"/>
       <use x="63.623047" xlink:href="#DejaVuSans-53"/>
       <use x="127.246094" xlink:href="#DejaVuSans-48"/>
      </g>
     </g>
    </g>
    <g id="ytick_5">
     <g id="line2d_10">
      <g>
       <use style="stroke:#000000;stroke-width:0.8;" x="57.6" xlink:href="#m996e498ef1" y="108.024945"/>
      </g>
     </g>
     <g id="text_11">
      <!-- 200 -->
      <g transform="translate(31.5125 111.824164)scale(0.1 -0.1)">
       <use xlink:href="#DejaVuSans-50"/>
       <use x="63.623047" xlink:href="#DejaVuSans-48"/>
       <use x="127.246094" xlink:href="#DejaVuSans-48"/>
      </g>
     </g>
    </g>
    <g id="ytick_6">
     <g id="line2d_11">
      <g>
       <use style="stroke:#000000;stroke-width:0.8;" x="57.6" xlink:href="#m996e498ef1" y="58.135181"/>
      </g>
     </g>
     <g id="text_12">
      <!-- 250 -->
      <g transform="translate(31.5125 61.9344)scale(0.1 -0.1)">
       <use xlink:href="#DejaVuSans-50"/>
       <use x="63.623047" xlink:href="#DejaVuSans-53"/>
       <use x="127.246094" xlink:href="#DejaVuSans-48"/>
      </g>
     </g>
    </g>
    <g id="text_13">
     <!-- Size per Species -->
     <defs>
      <path d="M 53.515625 70.515625 
L 53.515625 60.890625 
Q 47.90625 63.578125 42.921875 64.890625 
Q 37.9375 66.21875 33.296875 66.21875 
Q 25.25 66.21875 20.875 63.09375 
Q 16.5 59.96875 16.5 54.203125 
Q 16.5 49.359375 19.40625 46.890625 
Q 22.3125 44.4375 30.421875 42.921875 
L 36.375 41.703125 
Q 47.40625 39.59375 52.65625 34.296875 
Q 57.90625 29 57.90625 20.125 
Q 57.90625 9.515625 50.796875 4.046875 
Q 43.703125 -1.421875 29.984375 -1.421875 
Q 24.8125 -1.421875 18.96875 -0.25 
Q 13.140625 0.921875 6.890625 3.21875 
L 6.890625 13.375 
Q 12.890625 10.015625 18.65625 8.296875 
Q 24.421875 6.59375 29.984375 6.59375 
Q 38.421875 6.59375 43.015625 9.90625 
Q 47.609375 13.234375 47.609375 19.390625 
Q 47.609375 24.75 44.3125 27.78125 
Q 41.015625 30.8125 33.5 32.328125 
L 27.484375 33.5 
Q 16.453125 35.6875 11.515625 40.375 
Q 6.59375 45.0625 6.59375 53.421875 
Q 6.59375 63.09375 13.40625 68.65625 
Q 20.21875 74.21875 32.171875 74.21875 
Q 37.3125 74.21875 42.625 73.28125 
Q 47.953125 72.359375 53.515625 70.515625 
z
" id="DejaVuSans-83"/>
      <path d="M 5.515625 54.6875 
L 48.1875 54.6875 
L 48.1875 46.484375 
L 14.40625 7.171875 
L 48.1875 7.171875 
L 48.1875 0 
L 4.296875 0 
L 4.296875 8.203125 
L 38.09375 47.515625 
L 5.515625 47.515625 
z
" id="DejaVuSans-122"/>
      <path id="DejaVuSans-32"/>
      <path d="M 18.109375 8.203125 
L 18.109375 -20.796875 
L 9.078125 -20.796875 
L 9.078125 54.6875 
L 18.109375 54.6875 
L 18.109375 46.390625 
Q 20.953125 51.265625 25.265625 53.625 
Q 29.59375 56 35.59375 56 
Q 45.5625 56 51.78125 48.09375 
Q 58.015625 40.1875 58.015625 27.296875 
Q 58.015625 14.40625 51.78125 6.484375 
Q 45.5625 -1.421875 35.59375 -1.421875 
Q 29.59375 -1.421875 25.265625 0.953125 
Q 20.953125 3.328125 18.109375 8.203125 
z
M 48.6875 27.296875 
Q 48.6875 37.203125 44.609375 42.84375 
Q 40.53125 48.484375 33.40625 48.484375 
Q 26.265625 48.484375 22.1875 42.84375 
Q 18.109375 37.203125 18.109375 27.296875 
Q 18.109375 17.390625 22.1875 11.75 
Q 26.265625 6.109375 33.40625 6.109375 
Q 40.53125 6.109375 44.609375 11.75 
Q 48.6875 17.390625 48.6875 27.296875 
z
" id="DejaVuSans-112"/>
      <path d="M 48.78125 52.59375 
L 48.78125 44.1875 
Q 44.96875 46.296875 41.140625 47.34375 
Q 37.3125 48.390625 33.40625 48.390625 
Q 24.65625 48.390625 19.8125 42.84375 
Q 14.984375 37.3125 14.984375 27.296875 
Q 14.984375 17.28125 19.8125 11.734375 
Q 24.65625 6.203125 33.40625 6.203125 
Q 37.3125 6.203125 41.140625 7.25 
Q 44.96875 8.296875 48.78125 10.40625 
L 48.78125 2.09375 
Q 45.015625 0.34375 40.984375 -0.53125 
Q 36.96875 -1.421875 32.421875 -1.421875 
Q 20.0625 -1.421875 12.78125 6.34375 
Q 5.515625 14.109375 5.515625 27.296875 
Q 5.515625 40.671875 12.859375 48.328125 
Q 20.21875 56 33.015625 56 
Q 37.15625 56 41.109375 55.140625 
Q 45.0625 54.296875 48.78125 52.59375 
z
" id="DejaVuSans-99"/>
     </defs>
     <g transform="translate(25.432812 215.520969)rotate(-90)scale(0.1 -0.1)">
      <use xlink:href="#DejaVuSans-83"/>
      <use x="63.476562" xlink:href="#DejaVuSans-105"/>
      <use x="91.259766" xlink:href="#DejaVuSans-122"/>
      <use x="143.75" xlink:href="#DejaVuSans-101"/>
      <use x="205.273438" xlink:href="#DejaVuSans-32"/>
      <use x="237.060547" xlink:href="#DejaVuSans-112"/>
      <use x="300.537109" xlink:href="#DejaVuSans-101"/>
      <use x="362.060547" xlink:href="#DejaVuSans-114"/>
      <use x="403.173828" xlink:href="#DejaVuSans-32"/>
      <use x="434.960938" xlink:href="#DejaVuSans-83"/>
      <use x="498.4375" xlink:href="#DejaVuSans-112"/>
      <use x="561.914062" xlink:href="#DejaVuSans-101"/>
      <use x="623.4375" xlink:href="#DejaVuSans-99"/>
      <use x="678.417969" xlink:href="#DejaVuSans-105"/>
      <use x="706.201172" xlink:href="#DejaVuSans-101"/>
      <use x="767.724609" xlink:href="#DejaVuSans-115"/>
     </g>
    </g>
   </g>
   <g id="patch_3">
    <path d="M 57.6 307.584 
L 57.6 41.472 
" style="fill:none;stroke:#000000;stroke-linecap:square;stroke-linejoin:miter;stroke-width:0.8;"/>
   </g>
   <g id="patch_4">
    <path d="M 414.72 307.584 
L 414.72 41.472 
" style="fill:none;stroke:#000000;stroke-linecap:square;stroke-linejoin:miter;stroke-width:0.8;"/>
   </g>
   <g id="patch_5">
    <path d="M 57.6 307.584 
L 414.72 307.584 
" style="fill:none;stroke:#000000;stroke-linecap:square;stroke-linejoin:miter;stroke-width:0.8;"/>
   </g>
   <g id="patch_6">
    <path d="M 57.6 41.472 
L 414.72 41.472 
" style="fill:none;stroke:#000000;stroke-linecap:square;stroke-linejoin:miter;stroke-width:0.8;"/>
   </g>
   <g id="text_14">
    <!-- Speciation -->
    <g transform="translate(204.714375 35.472)scale(0.12 -0.12)">
     <use xlink:href="#DejaVuSans-83"/>
     <use x="63.476562" xlink:href="#DejaVuSans-112"/>
     <use x="126.953125" xlink:href="#DejaVuSans-101"/>
     <use x="188.476562" xlink:href="#DejaVuSans-99"/>
     <use x="243.457031" xlink:href="#DejaVuSans-105"/>
     <use x="271.240234" xlink:href="#DejaVuSans-97"/>
     <use x="332.519531" xlink:href="#DejaVuSans-116"/>
     <use x="371.728516" xlink:href="#DejaVuSans-105"/>
     <use x="399.511719" xlink:href="#DejaVuSans-111"/>
     <use x="460.693359" xlink:href="#DejaVuSans-110"/>
    </g>
   </g>
  </g>
 </g>
 <defs>
  <clipPath id="paf8f012e3d">
   <rect height="266.112" width="357.12" x="57.6" y="41.472"/>
  </clipPath>
 </defs>
</svg>
