<?xml version="1.0" encoding="utf-8" standalone="no"?>
<!DOCTYPE svg PUBLIC "-//W3C//DTD SVG 1.1//EN"
  "http://www.w3.org/Graphics/SVG/1.1/DTD/svg11.dtd">
<!-- Created with matplotlib (https://matplotlib.org/) -->
<svg height="345.6pt" version="1.1" viewBox="0 0 460.8 345.6" width="460.8pt" xmlns="http://www.w3.org/2000/svg" xmlns:xlink="http://www.w3.org/1999/xlink">
 <defs>
  <style type="text/css">
*{stroke-linecap:butt;stroke-linejoin:round;}
  </style>
 </defs>
 <g id="figure_1">
  <g id="patch_1">
   <path d="M 0 345.6 
L 460.8 345.6 
L 460.8 0 
L 0 0 
z
" style="fill:#ffffff;"/>
  </g>
  <g id="axes_1">
   <g id="patch_2">
    <path d="M 57.6 307.584 
L 414.72 307.584 
L 414.72 41.472 
L 57.6 41.472 
z
" style="fill:#ffffff;"/>
   </g>
   <g id="PolyCollection_1">
    <path clip-path="url(#pf7d40275be)" d="M 73.832727 224.439652 
L 73.832727 307.584 
L 81.21124 307.584 
L 88.589752 307.584 
L 95.968264 307.584 
L 103.346777 307.584 
L 110.725289 307.584 
L 118.103802 307.584 
L 125.482314 307.584 
L 132.860826 307.584 
L 140.239339 307.584 
L 147.617851 307.584 
L 154.996364 307.584 
L 162.374876 307.584 
L 169.753388 307.584 
L 177.131901 307.584 
L 184.510413 307.584 
L 191.888926 307.584 
L 199.267438 307.584 
L 206.64595 307.584 
L 214.024463 307.584 
L 221.402975 307.584 
L 228.781488 307.584 
L 236.16 307.584 
L 243.538512 307.584 
L 250.917025 307.584 
L 258.295537 307.584 
L 265.67405 307.584 
L 273.052562 307.584 
L 280.431074 307.584 
L 287.809587 307.584 
L 295.188099 307.584 
L 302.566612 307.584 
L 309.945124 307.584 
L 317.323636 307.584 
L 324.702149 307.584 
L 332.080661 307.584 
L 339.459174 307.584 
L 346.837686 307.584 
L 354.216198 307.584 
L 361.594711 307.584 
L 368.973223 307.584 
L 376.351736 307.584 
L 383.730248 307.584 
L 391.10876 307.584 
L 398.487273 307.584 
L 398.487273 307.584 
L 398.487273 307.584 
L 391.10876 307.584 
L 383.730248 307.584 
L 376.351736 307.584 
L 368.973223 307.584 
L 361.594711 307.584 
L 354.216198 307.584 
L 346.837686 307.584 
L 339.459174 307.584 
L 332.080661 307.584 
L 324.702149 307.584 
L 317.323636 307.584 
L 309.945124 307.584 
L 302.566612 307.584 
L 295.188099 298.568348 
L 287.809587 291.556174 
L 280.431074 290.554435 
L 273.052562 289.552696 
L 265.67405 296.56487 
L 258.295537 294.561391 
L 250.917025 291.556174 
L 243.538512 292.557913 
L 236.16 292.557913 
L 228.781488 296.56487 
L 221.402975 293.559652 
L 214.024463 292.557913 
L 206.64595 290.554435 
L 199.267438 295.56313 
L 191.888926 292.557913 
L 184.510413 294.561391 
L 177.131901 294.561391 
L 169.753388 294.561391 
L 162.374876 294.561391 
L 154.996364 293.559652 
L 147.617851 295.56313 
L 140.239339 299.570087 
L 132.860826 300.571826 
L 125.482314 301.573565 
L 118.103802 302.575304 
L 110.725289 304.578783 
L 103.346777 302.575304 
L 95.968264 297.566609 
L 88.589752 294.561391 
L 81.21124 305.580522 
L 73.832727 224.439652 
z
" style="fill:#1f77b4;"/>
   </g>
   <g id="PolyCollection_2">
    <path clip-path="url(#pf7d40275be)" d="M 73.832727 223.437913 
L 73.832727 224.439652 
L 81.21124 305.580522 
L 88.589752 294.561391 
L 95.968264 297.566609 
L 103.346777 302.575304 
L 110.725289 304.578783 
L 118.103802 302.575304 
L 125.482314 301.573565 
L 132.860826 300.571826 
L 140.239339 299.570087 
L 147.617851 295.56313 
L 154.996364 293.559652 
L 162.374876 294.561391 
L 169.753388 294.561391 
L 177.131901 294.561391 
L 184.510413 294.561391 
L 191.888926 292.557913 
L 199.267438 295.56313 
L 206.64595 290.554435 
L 214.024463 292.557913 
L 221.402975 293.559652 
L 228.781488 296.56487 
L 236.16 292.557913 
L 243.538512 292.557913 
L 250.917025 291.556174 
L 258.295537 294.561391 
L 265.67405 296.56487 
L 273.052562 289.552696 
L 280.431074 290.554435 
L 287.809587 291.556174 
L 295.188099 298.568348 
L 302.566612 307.584 
L 309.945124 307.584 
L 317.323636 307.584 
L 324.702149 307.584 
L 332.080661 307.584 
L 339.459174 307.584 
L 346.837686 307.584 
L 354.216198 307.584 
L 361.594711 307.584 
L 368.973223 307.584 
L 376.351736 307.584 
L 383.730248 307.584 
L 391.10876 307.584 
L 398.487273 307.584 
L 398.487273 305.580522 
L 398.487273 305.580522 
L 391.10876 304.578783 
L 383.730248 303.577043 
L 376.351736 304.578783 
L 368.973223 302.575304 
L 361.594711 303.577043 
L 354.216198 304.578783 
L 346.837686 305.580522 
L 339.459174 304.578783 
L 332.080661 305.580522 
L 324.702149 304.578783 
L 317.323636 305.580522 
L 309.945124 305.580522 
L 302.566612 305.580522 
L 295.188099 295.56313 
L 287.809587 289.552696 
L 280.431074 288.550957 
L 273.052562 286.547478 
L 265.67405 294.561391 
L 258.295537 291.556174 
L 250.917025 289.552696 
L 243.538512 290.554435 
L 236.16 289.552696 
L 228.781488 294.561391 
L 221.402975 291.556174 
L 214.024463 289.552696 
L 206.64595 288.550957 
L 199.267438 292.557913 
L 191.888926 290.554435 
L 184.510413 292.557913 
L 177.131901 291.556174 
L 169.753388 292.557913 
L 162.374876 291.556174 
L 154.996364 291.556174 
L 147.617851 292.557913 
L 140.239339 297.566609 
L 132.860826 297.566609 
L 125.482314 298.568348 
L 118.103802 300.571826 
L 110.725289 301.573565 
L 103.346777 300.571826 
L 95.968264 293.559652 
L 88.589752 288.550957 
L 81.21124 299.570087 
L 73.832727 223.437913 
z
" style="fill:#ff7f0e;"/>
   </g>
   <g id="PolyCollection_3">
    <path clip-path="url(#pf7d40275be)" d="M 73.832727 210.415304 
L 73.832727 223.437913 
L 81.21124 299.570087 
L 88.589752 288.550957 
L 95.968264 293.559652 
L 103.346777 300.571826 
L 110.725289 301.573565 
L 118.103802 300.571826 
L 125.482314 298.568348 
L 132.860826 297.566609 
L 140.239339 297.566609 
L 147.617851 292.557913 
L 154.996364 291.556174 
L 162.374876 291.556174 
L 169.753388 292.557913 
L 177.131901 291.556174 
L 184.510413 292.557913 
L 191.888926 290.554435 
L 199.267438 292.557913 
L 206.64595 288.550957 
L 214.024463 289.552696 
L 221.402975 291.556174 
L 228.781488 294.561391 
L 236.16 289.552696 
L 243.538512 290.554435 
L 250.917025 289.552696 
L 258.295537 291.556174 
L 265.67405 294.561391 
L 273.052562 286.547478 
L 280.431074 288.550957 
L 287.809587 289.552696 
L 295.188099 295.56313 
L 302.566612 305.580522 
L 309.945124 305.580522 
L 317.323636 305.580522 
L 324.702149 304.578783 
L 332.080661 305.580522 
L 339.459174 304.578783 
L 346.837686 305.580522 
L 354.216198 304.578783 
L 361.594711 303.577043 
L 368.973223 302.575304 
L 376.351736 304.578783 
L 383.730248 303.577043 
L 391.10876 304.578783 
L 398.487273 305.580522 
L 398.487273 292.557913 
L 398.487273 292.557913 
L 391.10876 281.538783 
L 383.730248 282.540522 
L 376.351736 272.52313 
L 368.973223 284.544 
L 361.594711 276.530087 
L 354.216198 280.537043 
L 346.837686 272.52313 
L 339.459174 274.526609 
L 332.080661 286.547478 
L 324.702149 289.552696 
L 317.323636 268.516174 
L 309.945124 289.552696 
L 302.566612 271.521391 
L 295.188099 267.514435 
L 287.809587 259.500522 
L 280.431074 264.509217 
L 273.052562 269.517913 
L 265.67405 276.530087 
L 258.295537 283.542261 
L 250.917025 278.533565 
L 243.538512 278.533565 
L 236.16 277.531826 
L 228.781488 281.538783 
L 221.402975 282.540522 
L 214.024463 255.493565 
L 206.64595 267.514435 
L 199.267438 279.535304 
L 191.888926 282.540522 
L 184.510413 272.52313 
L 177.131901 259.500522 
L 169.753388 265.510957 
L 162.374876 283.542261 
L 154.996364 267.514435 
L 147.617851 271.521391 
L 140.239339 282.540522 
L 132.860826 288.550957 
L 125.482314 277.531826 
L 118.103802 278.533565 
L 110.725289 287.549217 
L 103.346777 282.540522 
L 95.968264 275.528348 
L 88.589752 281.538783 
L 81.21124 275.528348 
L 73.832727 210.415304 
z
" style="fill:#2ca02c;"/>
   </g>
   <g id="PolyCollection_4">
    <path clip-path="url(#pf7d40275be)" d="M 73.832727 170.345739 
L 73.832727 210.415304 
L 81.21124 275.528348 
L 88.589752 281.538783 
L 95.968264 275.528348 
L 103.346777 282.540522 
L 110.725289 287.549217 
L 118.103802 278.533565 
L 125.482314 277.531826 
L 132.860826 288.550957 
L 140.239339 282.540522 
L 147.617851 271.521391 
L 154.996364 267.514435 
L 162.374876 283.542261 
L 169.753388 265.510957 
L 177.131901 259.500522 
L 184.510413 272.52313 
L 191.888926 282.540522 
L 199.267438 279.535304 
L 206.64595 267.514435 
L 214.024463 255.493565 
L 221.402975 282.540522 
L 228.781488 281.538783 
L 236.16 277.531826 
L 243.538512 278.533565 
L 250.917025 278.533565 
L 258.295537 283.542261 
L 265.67405 276.530087 
L 273.052562 269.517913 
L 280.431074 264.509217 
L 287.809587 259.500522 
L 295.188099 267.514435 
L 302.566612 271.521391 
L 309.945124 289.552696 
L 317.323636 268.516174 
L 324.702149 289.552696 
L 332.080661 286.547478 
L 339.459174 274.526609 
L 346.837686 272.52313 
L 354.216198 280.537043 
L 361.594711 276.530087 
L 368.973223 284.544 
L 376.351736 272.52313 
L 383.730248 282.540522 
L 391.10876 281.538783 
L 398.487273 292.557913 
L 398.487273 292.557913 
L 398.487273 292.557913 
L 391.10876 281.538783 
L 383.730248 282.540522 
L 376.351736 272.52313 
L 368.973223 284.544 
L 361.594711 276.530087 
L 354.216198 280.537043 
L 346.837686 272.52313 
L 339.459174 274.526609 
L 332.080661 286.547478 
L 324.702149 289.552696 
L 317.323636 268.516174 
L 309.945124 289.552696 
L 302.566612 271.521391 
L 295.188099 267.514435 
L 287.809587 259.500522 
L 280.431074 264.509217 
L 273.052562 269.517913 
L 265.67405 262.505739 
L 258.295537 266.512696 
L 250.917025 241.469217 
L 243.538512 235.458783 
L 236.16 273.52487 
L 228.781488 263.507478 
L 221.402975 268.516174 
L 214.024463 238.464 
L 206.64595 243.472696 
L 199.267438 265.510957 
L 191.888926 276.530087 
L 184.510413 256.495304 
L 177.131901 244.474435 
L 169.753388 248.481391 
L 162.374876 272.52313 
L 154.996364 263.507478 
L 147.617851 248.481391 
L 140.239339 261.504 
L 132.860826 278.533565 
L 125.482314 258.498783 
L 118.103802 226.44313 
L 110.725289 208.411826 
L 103.346777 248.481391 
L 95.968264 260.502261 
L 88.589752 256.495304 
L 81.21124 237.462261 
L 73.832727 170.345739 
z
" style="fill:#d62728;"/>
   </g>
   <g id="PolyCollection_5">
    <path clip-path="url(#pf7d40275be)" d="M 73.832727 167.340522 
L 73.832727 170.345739 
L 81.21124 237.462261 
L 88.589752 256.495304 
L 95.968264 260.502261 
L 103.346777 248.481391 
L 110.725289 208.411826 
L 118.103802 226.44313 
L 125.482314 258.498783 
L 132.860826 278.533565 
L 140.239339 261.504 
L 147.617851 248.481391 
L 154.996364 263.507478 
L 162.374876 272.52313 
L 169.753388 248.481391 
L 177.131901 244.474435 
L 184.510413 256.495304 
L 191.888926 276.530087 
L 199.267438 265.510957 
L 206.64595 243.472696 
L 214.024463 238.464 
L 221.402975 268.516174 
L 228.781488 263.507478 
L 236.16 273.52487 
L 243.538512 235.458783 
L 250.917025 241.469217 
L 258.295537 266.512696 
L 265.67405 262.505739 
L 273.052562 269.517913 
L 280.431074 264.509217 
L 287.809587 259.500522 
L 295.188099 267.514435 
L 302.566612 271.521391 
L 309.945124 289.552696 
L 317.323636 268.516174 
L 324.702149 289.552696 
L 332.080661 286.547478 
L 339.459174 274.526609 
L 346.837686 272.52313 
L 354.216198 280.537043 
L 361.594711 276.530087 
L 368.973223 284.544 
L 376.351736 272.52313 
L 383.730248 282.540522 
L 391.10876 281.538783 
L 398.487273 292.557913 
L 398.487273 259.500522 
L 398.487273 259.500522 
L 391.10876 246.477913 
L 383.730248 236.460522 
L 376.351736 220.432696 
L 368.973223 230.450087 
L 361.594711 198.394435 
L 354.216198 225.441391 
L 346.837686 218.429217 
L 339.459174 210.415304 
L 332.080661 228.446609 
L 324.702149 227.44487 
L 317.323636 199.396174 
L 309.945124 227.44487 
L 302.566612 210.415304 
L 295.188099 214.422261 
L 287.809587 220.432696 
L 280.431074 217.427478 
L 273.052562 231.451826 
L 265.67405 236.460522 
L 258.295537 247.479652 
L 250.917025 205.406609 
L 243.538512 225.441391 
L 236.16 239.465739 
L 228.781488 243.472696 
L 221.402975 245.476174 
L 214.024463 220.432696 
L 206.64595 207.410087 
L 199.267438 228.446609 
L 191.888926 242.470957 
L 184.510413 215.424 
L 177.131901 206.408348 
L 169.753388 213.420522 
L 162.374876 225.441391 
L 154.996364 216.425739 
L 147.617851 199.396174 
L 140.239339 205.406609 
L 132.860826 232.453565 
L 125.482314 240.467478 
L 118.103802 195.389217 
L 110.725289 176.356174 
L 103.346777 237.462261 
L 95.968264 245.476174 
L 88.589752 250.48487 
L 81.21124 233.455304 
L 73.832727 167.340522 
z
" style="fill:#9467bd;"/>
   </g>
   <g id="PolyCollection_6">
    <path clip-path="url(#pf7d40275be)" d="M 73.832727 146.304 
L 73.832727 167.340522 
L 81.21124 233.455304 
L 88.589752 250.48487 
L 95.968264 245.476174 
L 103.346777 237.462261 
L 110.725289 176.356174 
L 118.103802 195.389217 
L 125.482314 240.467478 
L 132.860826 232.453565 
L 140.239339 205.406609 
L 147.617851 199.396174 
L 154.996364 216.425739 
L 162.374876 225.441391 
L 169.753388 213.420522 
L 177.131901 206.408348 
L 184.510413 215.424 
L 191.888926 242.470957 
L 199.267438 228.446609 
L 206.64595 207.410087 
L 214.024463 220.432696 
L 221.402975 245.476174 
L 228.781488 243.472696 
L 236.16 239.465739 
L 243.538512 225.441391 
L 250.917025 205.406609 
L 258.295537 247.479652 
L 265.67405 236.460522 
L 273.052562 231.451826 
L 280.431074 217.427478 
L 287.809587 220.432696 
L 295.188099 214.422261 
L 302.566612 210.415304 
L 309.945124 227.44487 
L 317.323636 199.396174 
L 324.702149 227.44487 
L 332.080661 228.446609 
L 339.459174 210.415304 
L 346.837686 218.429217 
L 354.216198 225.441391 
L 361.594711 198.394435 
L 368.973223 230.450087 
L 376.351736 220.432696 
L 383.730248 236.460522 
L 391.10876 246.477913 
L 398.487273 259.500522 
L 398.487273 259.500522 
L 398.487273 259.500522 
L 391.10876 246.477913 
L 383.730248 236.460522 
L 376.351736 220.432696 
L 368.973223 230.450087 
L 361.594711 198.394435 
L 354.216198 225.441391 
L 346.837686 218.429217 
L 339.459174 210.415304 
L 332.080661 228.446609 
L 324.702149 227.44487 
L 317.323636 199.396174 
L 309.945124 227.44487 
L 302.566612 210.415304 
L 295.188099 214.422261 
L 287.809587 220.432696 
L 280.431074 200.397913 
L 273.052562 210.415304 
L 265.67405 218.429217 
L 258.295537 233.455304 
L 250.917025 185.371826 
L 243.538512 206.408348 
L 236.16 221.434435 
L 228.781488 241.469217 
L 221.402975 221.434435 
L 214.024463 213.420522 
L 206.64595 191.382261 
L 199.267438 205.406609 
L 191.888926 220.432696 
L 184.510413 197.392696 
L 177.131901 192.384 
L 169.753388 197.392696 
L 162.374876 203.40313 
L 154.996364 200.397913 
L 147.617851 188.377043 
L 140.239339 181.36487 
L 132.860826 196.390957 
L 125.482314 223.437913 
L 118.103802 174.352696 
L 110.725289 160.328348 
L 103.346777 196.390957 
L 95.968264 204.40487 
L 88.589752 208.411826 
L 81.21124 224.439652 
L 73.832727 146.304 
z
" style="fill:#8c564b;"/>
   </g>
   <g id="PolyCollection_7">
    <path clip-path="url(#pf7d40275be)" d="M 73.832727 137.288348 
L 73.832727 146.304 
L 81.21124 224.439652 
L 88.589752 208.411826 
L 95.968264 204.40487 
L 103.346777 196.390957 
L 110.725289 160.328348 
L 118.103802 174.352696 
L 125.482314 223.437913 
L 132.860826 196.390957 
L 140.239339 181.36487 
L 147.617851 188.377043 
L 154.996364 200.397913 
L 162.374876 203.40313 
L 169.753388 197.392696 
L 177.131901 192.384 
L 184.510413 197.392696 
L 191.888926 220.432696 
L 199.267438 205.406609 
L 206.64595 191.382261 
L 214.024463 213.420522 
L 221.402975 221.434435 
L 228.781488 241.469217 
L 236.16 221.434435 
L 243.538512 206.408348 
L 250.917025 185.371826 
L 258.295537 233.455304 
L 265.67405 218.429217 
L 273.052562 210.415304 
L 280.431074 200.397913 
L 287.809587 220.432696 
L 295.188099 214.422261 
L 302.566612 210.415304 
L 309.945124 227.44487 
L 317.323636 199.396174 
L 324.702149 227.44487 
L 332.080661 228.446609 
L 339.459174 210.415304 
L 346.837686 218.429217 
L 354.216198 225.441391 
L 361.594711 198.394435 
L 368.973223 230.450087 
L 376.351736 220.432696 
L 383.730248 236.460522 
L 391.10876 246.477913 
L 398.487273 259.500522 
L 398.487273 240.467478 
L 398.487273 240.467478 
L 391.10876 235.458783 
L 383.730248 223.437913 
L 376.351736 207.410087 
L 368.973223 220.432696 
L 361.594711 186.373565 
L 354.216198 209.413565 
L 346.837686 201.399652 
L 339.459174 194.387478 
L 332.080661 210.415304 
L 324.702149 208.411826 
L 317.323636 183.368348 
L 309.945124 214.422261 
L 302.566612 196.390957 
L 295.188099 203.40313 
L 287.809587 208.411826 
L 280.431074 195.389217 
L 273.052562 208.411826 
L 265.67405 208.411826 
L 258.295537 221.434435 
L 250.917025 181.36487 
L 243.538512 204.40487 
L 236.16 218.429217 
L 228.781488 239.465739 
L 221.402975 218.429217 
L 214.024463 211.417043 
L 206.64595 188.377043 
L 199.267438 200.397913 
L 191.888926 217.427478 
L 184.510413 195.389217 
L 177.131901 190.380522 
L 169.753388 194.387478 
L 162.374876 199.396174 
L 154.996364 195.389217 
L 147.617851 185.371826 
L 140.239339 179.361391 
L 132.860826 194.387478 
L 125.482314 222.436174 
L 118.103802 171.347478 
L 110.725289 157.32313 
L 103.346777 192.384 
L 95.968264 201.399652 
L 88.589752 205.406609 
L 81.21124 222.436174 
L 73.832727 137.288348 
z
" style="fill:#e377c2;"/>
   </g>
   <g id="PolyCollection_8">
    <path clip-path="url(#pf7d40275be)" d="M 73.832727 133.281391 
L 73.832727 137.288348 
L 81.21124 222.436174 
L 88.589752 205.406609 
L 95.968264 201.399652 
L 103.346777 192.384 
L 110.725289 157.32313 
L 118.103802 171.347478 
L 125.482314 222.436174 
L 132.860826 194.387478 
L 140.239339 179.361391 
L 147.617851 185.371826 
L 154.996364 195.389217 
L 162.374876 199.396174 
L 169.753388 194.387478 
L 177.131901 190.380522 
L 184.510413 195.389217 
L 191.888926 217.427478 
L 199.267438 200.397913 
L 206.64595 188.377043 
L 214.024463 211.417043 
L 221.402975 218.429217 
L 228.781488 239.465739 
L 236.16 218.429217 
L 243.538512 204.40487 
L 250.917025 181.36487 
L 258.295537 221.434435 
L 265.67405 208.411826 
L 273.052562 208.411826 
L 280.431074 195.389217 
L 287.809587 208.411826 
L 295.188099 203.40313 
L 302.566612 196.390957 
L 309.945124 214.422261 
L 317.323636 183.368348 
L 324.702149 208.411826 
L 332.080661 210.415304 
L 339.459174 194.387478 
L 346.837686 201.399652 
L 354.216198 209.413565 
L 361.594711 186.373565 
L 368.973223 220.432696 
L 376.351736 207.410087 
L 383.730248 223.437913 
L 391.10876 235.458783 
L 398.487273 240.467478 
L 398.487273 218.429217 
L 398.487273 218.429217 
L 391.10876 222.436174 
L 383.730248 192.384 
L 376.351736 193.385739 
L 368.973223 193.385739 
L 361.594711 165.337043 
L 354.216198 183.368348 
L 346.837686 178.359652 
L 339.459174 168.342261 
L 332.080661 192.384 
L 324.702149 167.340522 
L 317.323636 159.326609 
L 309.945124 172.349217 
L 302.566612 163.333565 
L 295.188099 173.350957 
L 287.809587 164.335304 
L 280.431074 170.345739 
L 273.052562 179.361391 
L 265.67405 189.378783 
L 258.295537 210.415304 
L 250.917025 169.344 
L 243.538512 192.384 
L 236.16 160.328348 
L 228.781488 167.340522 
L 221.402975 176.356174 
L 214.024463 193.385739 
L 206.64595 165.337043 
L 199.267438 177.357913 
L 191.888926 185.371826 
L 184.510413 178.359652 
L 177.131901 174.352696 
L 169.753388 178.359652 
L 162.374876 179.361391 
L 154.996364 177.357913 
L 147.617851 165.337043 
L 140.239339 152.314435 
L 132.860826 172.349217 
L 125.482314 195.389217 
L 118.103802 144.300522 
L 110.725289 135.28487 
L 103.346777 183.368348 
L 95.968264 185.371826 
L 88.589752 183.368348 
L 81.21124 204.40487 
L 73.832727 133.281391 
z
" style="fill:#7f7f7f;"/>
   </g>
   <g id="PolyCollection_9">
    <path clip-path="url(#pf7d40275be)" d="M 73.832727 91.208348 
L 73.832727 133.281391 
L 81.21124 204.40487 
L 88.589752 183.368348 
L 95.968264 185.371826 
L 103.346777 183.368348 
L 110.725289 135.28487 
L 118.103802 144.300522 
L 125.482314 195.389217 
L 132.860826 172.349217 
L 140.239339 152.314435 
L 147.617851 165.337043 
L 154.996364 177.357913 
L 162.374876 179.361391 
L 169.753388 178.359652 
L 177.131901 174.352696 
L 184.510413 178.359652 
L 191.888926 185.371826 
L 199.267438 177.357913 
L 206.64595 165.337043 
L 214.024463 193.385739 
L 221.402975 176.356174 
L 228.781488 167.340522 
L 236.16 160.328348 
L 243.538512 192.384 
L 250.917025 169.344 
L 258.295537 210.415304 
L 265.67405 189.378783 
L 273.052562 179.361391 
L 280.431074 170.345739 
L 287.809587 164.335304 
L 295.188099 173.350957 
L 302.566612 163.333565 
L 309.945124 172.349217 
L 317.323636 159.326609 
L 324.702149 167.340522 
L 332.080661 192.384 
L 339.459174 168.342261 
L 346.837686 178.359652 
L 354.216198 183.368348 
L 361.594711 165.337043 
L 368.973223 193.385739 
L 376.351736 193.385739 
L 383.730248 192.384 
L 391.10876 222.436174 
L 398.487273 218.429217 
L 398.487273 218.429217 
L 398.487273 218.429217 
L 391.10876 222.436174 
L 383.730248 192.384 
L 376.351736 193.385739 
L 368.973223 193.385739 
L 361.594711 165.337043 
L 354.216198 183.368348 
L 346.837686 178.359652 
L 339.459174 168.342261 
L 332.080661 192.384 
L 324.702149 167.340522 
L 317.323636 159.326609 
L 309.945124 172.349217 
L 302.566612 163.333565 
L 295.188099 173.350957 
L 287.809587 164.335304 
L 280.431074 170.345739 
L 273.052562 179.361391 
L 265.67405 189.378783 
L 258.295537 210.415304 
L 250.917025 161.330087 
L 243.538512 156.321391 
L 236.16 140.293565 
L 228.781488 147.305739 
L 221.402975 162.331826 
L 214.024463 161.330087 
L 206.64595 143.298783 
L 199.267438 149.309217 
L 191.888926 168.342261 
L 184.510413 156.321391 
L 177.131901 155.319652 
L 169.753388 153.316174 
L 162.374876 152.314435 
L 154.996364 151.312696 
L 147.617851 143.298783 
L 140.239339 138.290087 
L 132.860826 157.32313 
L 125.482314 131.277913 
L 118.103802 124.265739 
L 110.725289 119.257043 
L 103.346777 160.328348 
L 95.968264 166.338783 
L 88.589752 171.347478 
L 81.21124 177.357913 
L 73.832727 91.208348 
z
" style="fill:#bcbd22;"/>
   </g>
   <g id="PolyCollection_10">
    <path clip-path="url(#pf7d40275be)" d="M 73.832727 90.206609 
L 73.832727 91.208348 
L 81.21124 177.357913 
L 88.589752 171.347478 
L 95.968264 166.338783 
L 103.346777 160.328348 
L 110.725289 119.257043 
L 118.103802 124.265739 
L 125.482314 131.277913 
L 132.860826 157.32313 
L 140.239339 138.290087 
L 147.617851 143.298783 
L 154.996364 151.312696 
L 162.374876 152.314435 
L 169.753388 153.316174 
L 177.131901 155.319652 
L 184.510413 156.321391 
L 191.888926 168.342261 
L 199.267438 149.309217 
L 206.64595 143.298783 
L 214.024463 161.330087 
L 221.402975 162.331826 
L 228.781488 147.305739 
L 236.16 140.293565 
L 243.538512 156.321391 
L 250.917025 161.330087 
L 258.295537 210.415304 
L 265.67405 189.378783 
L 273.052562 179.361391 
L 280.431074 170.345739 
L 287.809587 164.335304 
L 295.188099 173.350957 
L 302.566612 163.333565 
L 309.945124 172.349217 
L 317.323636 159.326609 
L 324.702149 167.340522 
L 332.080661 192.384 
L 339.459174 168.342261 
L 346.837686 178.359652 
L 354.216198 183.368348 
L 361.594711 165.337043 
L 368.973223 193.385739 
L 376.351736 193.385739 
L 383.730248 192.384 
L 391.10876 222.436174 
L 398.487273 218.429217 
L 398.487273 218.429217 
L 398.487273 218.429217 
L 391.10876 222.436174 
L 383.730248 192.384 
L 376.351736 193.385739 
L 368.973223 193.385739 
L 361.594711 165.337043 
L 354.216198 183.368348 
L 346.837686 178.359652 
L 339.459174 168.342261 
L 332.080661 192.384 
L 324.702149 167.340522 
L 317.323636 159.326609 
L 309.945124 172.349217 
L 302.566612 163.333565 
L 295.188099 173.350957 
L 287.809587 164.335304 
L 280.431074 170.345739 
L 273.052562 179.361391 
L 265.67405 189.378783 
L 258.295537 210.415304 
L 250.917025 161.330087 
L 243.538512 156.321391 
L 236.16 138.290087 
L 228.781488 145.302261 
L 221.402975 160.328348 
L 214.024463 159.326609 
L 206.64595 140.293565 
L 199.267438 147.305739 
L 191.888926 166.338783 
L 184.510413 153.316174 
L 177.131901 153.316174 
L 169.753388 150.310957 
L 162.374876 150.310957 
L 154.996364 149.309217 
L 147.617851 140.293565 
L 140.239339 136.286609 
L 132.860826 153.316174 
L 125.482314 128.272696 
L 118.103802 121.260522 
L 110.725289 116.251826 
L 103.346777 156.321391 
L 95.968264 160.328348 
L 88.589752 167.340522 
L 81.21124 175.354435 
L 73.832727 90.206609 
z
" style="fill:#17becf;"/>
   </g>
   <g id="PolyCollection_11">
    <path clip-path="url(#pf7d40275be)" d="M 73.832727 89.20487 
L 73.832727 90.206609 
L 81.21124 175.354435 
L 88.589752 167.340522 
L 95.968264 160.328348 
L 103.346777 156.321391 
L 110.725289 116.251826 
L 118.103802 121.260522 
L 125.482314 128.272696 
L 132.860826 153.316174 
L 140.239339 136.286609 
L 147.617851 140.293565 
L 154.996364 149.309217 
L 162.374876 150.310957 
L 169.753388 150.310957 
L 177.131901 153.316174 
L 184.510413 153.316174 
L 191.888926 166.338783 
L 199.267438 147.305739 
L 206.64595 140.293565 
L 214.024463 159.326609 
L 221.402975 160.328348 
L 228.781488 145.302261 
L 236.16 138.290087 
L 243.538512 156.321391 
L 250.917025 161.330087 
L 258.295537 210.415304 
L 265.67405 189.378783 
L 273.052562 179.361391 
L 280.431074 170.345739 
L 287.809587 164.335304 
L 295.188099 173.350957 
L 302.566612 163.333565 
L 309.945124 172.349217 
L 317.323636 159.326609 
L 324.702149 167.340522 
L 332.080661 192.384 
L 339.459174 168.342261 
L 346.837686 178.359652 
L 354.216198 183.368348 
L 361.594711 165.337043 
L 368.973223 193.385739 
L 376.351736 193.385739 
L 383.730248 192.384 
L 391.10876 222.436174 
L 398.487273 218.429217 
L 398.487273 210.415304 
L 398.487273 210.415304 
L 391.10876 213.420522 
L 383.730248 184.370087 
L 376.351736 185.371826 
L 368.973223 185.371826 
L 361.594711 156.321391 
L 354.216198 174.352696 
L 346.837686 166.338783 
L 339.459174 158.32487 
L 332.080661 184.370087 
L 324.702149 157.32313 
L 317.323636 152.314435 
L 309.945124 162.331826 
L 302.566612 154.317913 
L 295.188099 166.338783 
L 287.809587 158.32487 
L 280.431074 162.331826 
L 273.052562 172.349217 
L 265.67405 182.366609 
L 258.295537 202.401391 
L 250.917025 154.317913 
L 243.538512 152.314435 
L 236.16 135.28487 
L 228.781488 142.297043 
L 221.402975 156.321391 
L 214.024463 156.321391 
L 206.64595 137.288348 
L 199.267438 144.300522 
L 191.888926 160.328348 
L 184.510413 148.307478 
L 177.131901 148.307478 
L 169.753388 147.305739 
L 162.374876 145.302261 
L 154.996364 146.304 
L 147.617851 136.286609 
L 140.239339 132.279652 
L 132.860826 150.310957 
L 125.482314 126.269217 
L 118.103802 119.257043 
L 110.725289 115.250087 
L 103.346777 153.316174 
L 95.968264 155.319652 
L 88.589752 162.331826 
L 81.21124 171.347478 
L 73.832727 89.20487 
z
" style="fill:#1f77b4;"/>
   </g>
   <g id="PolyCollection_12">
    <path clip-path="url(#pf7d40275be)" d="M 73.832727 88.20313 
L 73.832727 89.20487 
L 81.21124 171.347478 
L 88.589752 162.331826 
L 95.968264 155.319652 
L 103.346777 153.316174 
L 110.725289 115.250087 
L 118.103802 119.257043 
L 125.482314 126.269217 
L 132.860826 150.310957 
L 140.239339 132.279652 
L 147.617851 136.286609 
L 154.996364 146.304 
L 162.374876 145.302261 
L 169.753388 147.305739 
L 177.131901 148.307478 
L 184.510413 148.307478 
L 191.888926 160.328348 
L 199.267438 144.300522 
L 206.64595 137.288348 
L 214.024463 156.321391 
L 221.402975 156.321391 
L 228.781488 142.297043 
L 236.16 135.28487 
L 243.538512 152.314435 
L 250.917025 154.317913 
L 258.295537 202.401391 
L 265.67405 182.366609 
L 273.052562 172.349217 
L 280.431074 162.331826 
L 287.809587 158.32487 
L 295.188099 166.338783 
L 302.566612 154.317913 
L 309.945124 162.331826 
L 317.323636 152.314435 
L 324.702149 157.32313 
L 332.080661 184.370087 
L 339.459174 158.32487 
L 346.837686 166.338783 
L 354.216198 174.352696 
L 361.594711 156.321391 
L 368.973223 185.371826 
L 376.351736 185.371826 
L 383.730248 184.370087 
L 391.10876 213.420522 
L 398.487273 210.415304 
L 398.487273 210.415304 
L 398.487273 210.415304 
L 391.10876 213.420522 
L 383.730248 184.370087 
L 376.351736 185.371826 
L 368.973223 185.371826 
L 361.594711 156.321391 
L 354.216198 174.352696 
L 346.837686 166.338783 
L 339.459174 155.319652 
L 332.080661 180.36313 
L 324.702149 154.317913 
L 317.323636 148.307478 
L 309.945124 159.326609 
L 302.566612 152.314435 
L 295.188099 164.335304 
L 287.809587 156.321391 
L 280.431074 159.326609 
L 273.052562 170.345739 
L 265.67405 181.36487 
L 258.295537 199.396174 
L 250.917025 152.314435 
L 243.538512 150.310957 
L 236.16 132.279652 
L 228.781488 138.290087 
L 221.402975 153.316174 
L 214.024463 154.317913 
L 206.64595 133.281391 
L 199.267438 140.293565 
L 191.888926 157.32313 
L 184.510413 144.300522 
L 177.131901 145.302261 
L 169.753388 145.302261 
L 162.374876 143.298783 
L 154.996364 144.300522 
L 147.617851 133.281391 
L 140.239339 130.276174 
L 132.860826 148.307478 
L 125.482314 124.265739 
L 118.103802 117.253565 
L 110.725289 111.24313 
L 103.346777 148.307478 
L 95.968264 151.312696 
L 88.589752 156.321391 
L 81.21124 165.337043 
L 73.832727 88.20313 
z
" style="fill:#ff7f0e;"/>
   </g>
   <g id="PolyCollection_13">
    <path clip-path="url(#pf7d40275be)" d="M 73.832727 87.201391 
L 73.832727 88.20313 
L 81.21124 165.337043 
L 88.589752 156.321391 
L 95.968264 151.312696 
L 103.346777 148.307478 
L 110.725289 111.24313 
L 118.103802 117.253565 
L 125.482314 124.265739 
L 132.860826 148.307478 
L 140.239339 130.276174 
L 147.617851 133.281391 
L 154.996364 144.300522 
L 162.374876 143.298783 
L 169.753388 145.302261 
L 177.131901 145.302261 
L 184.510413 144.300522 
L 191.888926 157.32313 
L 199.267438 140.293565 
L 206.64595 133.281391 
L 214.024463 154.317913 
L 221.402975 153.316174 
L 228.781488 138.290087 
L 236.16 132.279652 
L 243.538512 150.310957 
L 250.917025 152.314435 
L 258.295537 199.396174 
L 265.67405 181.36487 
L 273.052562 170.345739 
L 280.431074 159.326609 
L 287.809587 156.321391 
L 295.188099 164.335304 
L 302.566612 152.314435 
L 309.945124 159.326609 
L 317.323636 148.307478 
L 324.702149 154.317913 
L 332.080661 180.36313 
L 339.459174 155.319652 
L 346.837686 166.338783 
L 354.216198 174.352696 
L 361.594711 156.321391 
L 368.973223 185.371826 
L 376.351736 185.371826 
L 383.730248 184.370087 
L 391.10876 213.420522 
L 398.487273 210.415304 
L 398.487273 187.375304 
L 398.487273 187.375304 
L 391.10876 190.380522 
L 383.730248 154.317913 
L 376.351736 161.330087 
L 368.973223 160.328348 
L 361.594711 142.297043 
L 354.216198 155.319652 
L 346.837686 157.32313 
L 339.459174 140.293565 
L 332.080661 158.32487 
L 324.702149 136.286609 
L 317.323636 130.276174 
L 309.945124 142.297043 
L 302.566612 135.28487 
L 295.188099 149.309217 
L 287.809587 144.300522 
L 280.431074 140.293565 
L 273.052562 156.321391 
L 265.67405 167.340522 
L 258.295537 190.380522 
L 250.917025 136.286609 
L 243.538512 135.28487 
L 236.16 124.265739 
L 228.781488 132.279652 
L 221.402975 146.304 
L 214.024463 140.293565 
L 206.64595 119.257043 
L 199.267438 125.267478 
L 191.888926 141.295304 
L 184.510413 132.279652 
L 177.131901 131.277913 
L 169.753388 133.281391 
L 162.374876 133.281391 
L 154.996364 132.279652 
L 147.617851 120.258783 
L 140.239339 113.246609 
L 132.860826 132.279652 
L 125.482314 108.237913 
L 118.103802 105.232696 
L 110.725289 99.222261 
L 103.346777 137.288348 
L 95.968264 142.297043 
L 88.589752 146.304 
L 81.21124 162.331826 
L 73.832727 87.201391 
z
" style="fill:#2ca02c;"/>
   </g>
   <g id="PolyCollection_14">
    <path clip-path="url(#pf7d40275be)" d="M 73.832727 70.171826 
L 73.832727 87.201391 
L 81.21124 162.331826 
L 88.589752 146.304 
L 95.968264 142.297043 
L 103.346777 137.288348 
L 110.725289 99.222261 
L 118.103802 105.232696 
L 125.482314 108.237913 
L 132.860826 132.279652 
L 140.239339 113.246609 
L 147.617851 120.258783 
L 154.996364 132.279652 
L 162.374876 133.281391 
L 169.753388 133.281391 
L 177.131901 131.277913 
L 184.510413 132.279652 
L 191.888926 141.295304 
L 199.267438 125.267478 
L 206.64595 119.257043 
L 214.024463 140.293565 
L 221.402975 146.304 
L 228.781488 132.279652 
L 236.16 124.265739 
L 243.538512 135.28487 
L 250.917025 136.286609 
L 258.295537 190.380522 
L 265.67405 167.340522 
L 273.052562 156.321391 
L 280.431074 140.293565 
L 287.809587 144.300522 
L 295.188099 149.309217 
L 302.566612 135.28487 
L 309.945124 142.297043 
L 317.323636 130.276174 
L 324.702149 136.286609 
L 332.080661 158.32487 
L 339.459174 140.293565 
L 346.837686 157.32313 
L 354.216198 155.319652 
L 361.594711 142.297043 
L 368.973223 160.328348 
L 376.351736 161.330087 
L 383.730248 154.317913 
L 391.10876 190.380522 
L 398.487273 187.375304 
L 398.487273 187.375304 
L 398.487273 187.375304 
L 391.10876 190.380522 
L 383.730248 154.317913 
L 376.351736 161.330087 
L 368.973223 160.328348 
L 361.594711 142.297043 
L 354.216198 155.319652 
L 346.837686 157.32313 
L 339.459174 140.293565 
L 332.080661 158.32487 
L 324.702149 136.286609 
L 317.323636 130.276174 
L 309.945124 142.297043 
L 302.566612 135.28487 
L 295.188099 149.309217 
L 287.809587 144.300522 
L 280.431074 140.293565 
L 273.052562 156.321391 
L 265.67405 167.340522 
L 258.295537 190.380522 
L 250.917025 136.286609 
L 243.538512 135.28487 
L 236.16 124.265739 
L 228.781488 132.279652 
L 221.402975 144.300522 
L 214.024463 137.288348 
L 206.64595 116.251826 
L 199.267438 123.264 
L 191.888926 140.293565 
L 184.510413 129.274435 
L 177.131901 128.272696 
L 169.753388 131.277913 
L 162.374876 130.276174 
L 154.996364 129.274435 
L 147.617851 118.255304 
L 140.239339 110.241391 
L 132.860826 128.272696 
L 125.482314 105.232696 
L 118.103802 100.224 
L 110.725289 95.215304 
L 103.346777 132.279652 
L 95.968264 138.290087 
L 88.589752 143.298783 
L 81.21124 160.328348 
L 73.832727 70.171826 
z
" style="fill:#d62728;"/>
   </g>
   <g id="PolyCollection_15">
    <path clip-path="url(#pf7d40275be)" d="M 73.832727 69.170087 
L 73.832727 70.171826 
L 81.21124 160.328348 
L 88.589752 143.298783 
L 95.968264 138.290087 
L 103.346777 132.279652 
L 110.725289 95.215304 
L 118.103802 100.224 
L 125.482314 105.232696 
L 132.860826 128.272696 
L 140.239339 110.241391 
L 147.617851 118.255304 
L 154.996364 129.274435 
L 162.374876 130.276174 
L 169.753388 131.277913 
L 177.131901 128.272696 
L 184.510413 129.274435 
L 191.888926 140.293565 
L 199.267438 123.264 
L 206.64595 116.251826 
L 214.024463 137.288348 
L 221.402975 144.300522 
L 228.781488 132.279652 
L 236.16 124.265739 
L 243.538512 135.28487 
L 250.917025 136.286609 
L 258.295537 190.380522 
L 265.67405 167.340522 
L 273.052562 156.321391 
L 280.431074 140.293565 
L 287.809587 144.300522 
L 295.188099 149.309217 
L 302.566612 135.28487 
L 309.945124 142.297043 
L 317.323636 130.276174 
L 324.702149 136.286609 
L 332.080661 158.32487 
L 339.459174 140.293565 
L 346.837686 157.32313 
L 354.216198 155.319652 
L 361.594711 142.297043 
L 368.973223 160.328348 
L 376.351736 161.330087 
L 383.730248 154.317913 
L 391.10876 190.380522 
L 398.487273 187.375304 
L 398.487273 187.375304 
L 398.487273 187.375304 
L 391.10876 190.380522 
L 383.730248 154.317913 
L 376.351736 161.330087 
L 368.973223 160.328348 
L 361.594711 142.297043 
L 354.216198 155.319652 
L 346.837686 157.32313 
L 339.459174 140.293565 
L 332.080661 158.32487 
L 324.702149 136.286609 
L 317.323636 130.276174 
L 309.945124 142.297043 
L 302.566612 135.28487 
L 295.188099 149.309217 
L 287.809587 144.300522 
L 280.431074 138.290087 
L 273.052562 153.316174 
L 265.67405 163.333565 
L 258.295537 187.375304 
L 250.917025 134.28313 
L 243.538512 132.279652 
L 236.16 122.262261 
L 228.781488 129.274435 
L 221.402975 140.293565 
L 214.024463 134.28313 
L 206.64595 114.248348 
L 199.267438 120.258783 
L 191.888926 136.286609 
L 184.510413 125.267478 
L 177.131901 125.267478 
L 169.753388 129.274435 
L 162.374876 128.272696 
L 154.996364 127.270957 
L 147.617851 116.251826 
L 140.239339 107.236174 
L 132.860826 125.267478 
L 125.482314 101.225739 
L 118.103802 97.218783 
L 110.725289 93.211826 
L 103.346777 129.274435 
L 95.968264 133.281391 
L 88.589752 139.291826 
L 81.21124 157.32313 
L 73.832727 69.170087 
z
" style="fill:#9467bd;"/>
   </g>
   <g id="PolyCollection_16">
    <path clip-path="url(#pf7d40275be)" d="M 73.832727 65.16313 
L 73.832727 69.170087 
L 81.21124 157.32313 
L 88.589752 139.291826 
L 95.968264 133.281391 
L 103.346777 129.274435 
L 110.725289 93.211826 
L 118.103802 97.218783 
L 125.482314 101.225739 
L 132.860826 125.267478 
L 140.239339 107.236174 
L 147.617851 116.251826 
L 154.996364 127.270957 
L 162.374876 128.272696 
L 169.753388 129.274435 
L 177.131901 125.267478 
L 184.510413 125.267478 
L 191.888926 136.286609 
L 199.267438 120.258783 
L 206.64595 114.248348 
L 214.024463 134.28313 
L 221.402975 140.293565 
L 228.781488 129.274435 
L 236.16 122.262261 
L 243.538512 132.279652 
L 250.917025 134.28313 
L 258.295537 187.375304 
L 265.67405 163.333565 
L 273.052562 153.316174 
L 280.431074 138.290087 
L 287.809587 144.300522 
L 295.188099 149.309217 
L 302.566612 135.28487 
L 309.945124 142.297043 
L 317.323636 130.276174 
L 324.702149 136.286609 
L 332.080661 158.32487 
L 339.459174 140.293565 
L 346.837686 157.32313 
L 354.216198 155.319652 
L 361.594711 142.297043 
L 368.973223 160.328348 
L 376.351736 161.330087 
L 383.730248 154.317913 
L 391.10876 190.380522 
L 398.487273 187.375304 
L 398.487273 187.375304 
L 398.487273 187.375304 
L 391.10876 190.380522 
L 383.730248 154.317913 
L 376.351736 161.330087 
L 368.973223 160.328348 
L 361.594711 142.297043 
L 354.216198 155.319652 
L 346.837686 157.32313 
L 339.459174 140.293565 
L 332.080661 158.32487 
L 324.702149 136.286609 
L 317.323636 130.276174 
L 309.945124 124.265739 
L 302.566612 121.260522 
L 295.188099 119.257043 
L 287.809587 134.28313 
L 280.431074 116.251826 
L 273.052562 121.260522 
L 265.67405 134.28313 
L 258.295537 157.32313 
L 250.917025 106.234435 
L 243.538512 100.224 
L 236.16 108.237913 
L 228.781488 116.251826 
L 221.402975 130.276174 
L 214.024463 128.272696 
L 206.64595 100.224 
L 199.267438 99.222261 
L 191.888926 107.236174 
L 184.510413 103.229217 
L 177.131901 103.229217 
L 169.753388 95.215304 
L 162.374876 90.206609 
L 154.996364 92.210087 
L 147.617851 86.199652 
L 140.239339 79.187478 
L 132.860826 83.194435 
L 125.482314 83.194435 
L 118.103802 86.199652 
L 110.725289 82.192696 
L 103.346777 82.192696 
L 95.968264 87.201391 
L 88.589752 93.211826 
L 81.21124 91.208348 
L 73.832727 65.16313 
z
" style="fill:#8c564b;"/>
   </g>
   <g id="PolyCollection_17">
    <path clip-path="url(#pf7d40275be)" d="M 73.832727 64.161391 
L 73.832727 65.16313 
L 81.21124 91.208348 
L 88.589752 93.211826 
L 95.968264 87.201391 
L 103.346777 82.192696 
L 110.725289 82.192696 
L 118.103802 86.199652 
L 125.482314 83.194435 
L 132.860826 83.194435 
L 140.239339 79.187478 
L 147.617851 86.199652 
L 154.996364 92.210087 
L 162.374876 90.206609 
L 169.753388 95.215304 
L 177.131901 103.229217 
L 184.510413 103.229217 
L 191.888926 107.236174 
L 199.267438 99.222261 
L 206.64595 100.224 
L 214.024463 128.272696 
L 221.402975 130.276174 
L 228.781488 116.251826 
L 236.16 108.237913 
L 243.538512 100.224 
L 250.917025 106.234435 
L 258.295537 157.32313 
L 265.67405 134.28313 
L 273.052562 121.260522 
L 280.431074 116.251826 
L 287.809587 134.28313 
L 295.188099 119.257043 
L 302.566612 121.260522 
L 309.945124 124.265739 
L 317.323636 130.276174 
L 324.702149 136.286609 
L 332.080661 158.32487 
L 339.459174 140.293565 
L 346.837686 157.32313 
L 354.216198 155.319652 
L 361.594711 142.297043 
L 368.973223 160.328348 
L 376.351736 161.330087 
L 383.730248 154.317913 
L 391.10876 190.380522 
L 398.487273 187.375304 
L 398.487273 187.375304 
L 398.487273 187.375304 
L 391.10876 190.380522 
L 383.730248 154.317913 
L 376.351736 161.330087 
L 368.973223 160.328348 
L 361.594711 142.297043 
L 354.216198 155.319652 
L 346.837686 157.32313 
L 339.459174 140.293565 
L 332.080661 158.32487 
L 324.702149 136.286609 
L 317.323636 130.276174 
L 309.945124 124.265739 
L 302.566612 121.260522 
L 295.188099 117.253565 
L 287.809587 131.277913 
L 280.431074 112.24487 
L 273.052562 118.255304 
L 265.67405 132.279652 
L 258.295537 154.317913 
L 250.917025 104.230957 
L 243.538512 98.220522 
L 236.16 105.232696 
L 228.781488 114.248348 
L 221.402975 127.270957 
L 214.024463 126.269217 
L 206.64595 98.220522 
L 199.267438 97.218783 
L 191.888926 104.230957 
L 184.510413 99.222261 
L 177.131901 100.224 
L 169.753388 91.208348 
L 162.374876 87.201391 
L 154.996364 90.206609 
L 147.617851 84.196174 
L 140.239339 76.182261 
L 132.860826 81.190957 
L 125.482314 81.190957 
L 118.103802 82.192696 
L 110.725289 79.187478 
L 103.346777 80.189217 
L 95.968264 83.194435 
L 88.589752 90.206609 
L 81.21124 89.20487 
L 73.832727 64.161391 
z
" style="fill:#e377c2;"/>
   </g>
   <g id="PolyCollection_18">
    <path clip-path="url(#pf7d40275be)" d="M 73.832727 62.157913 
L 73.832727 64.161391 
L 81.21124 89.20487 
L 88.589752 90.206609 
L 95.968264 83.194435 
L 103.346777 80.189217 
L 110.725289 79.187478 
L 118.103802 82.192696 
L 125.482314 81.190957 
L 132.860826 81.190957 
L 140.239339 76.182261 
L 147.617851 84.196174 
L 154.996364 90.206609 
L 162.374876 87.201391 
L 169.753388 91.208348 
L 177.131901 100.224 
L 184.510413 99.222261 
L 191.888926 104.230957 
L 199.267438 97.218783 
L 206.64595 98.220522 
L 214.024463 126.269217 
L 221.402975 127.270957 
L 228.781488 114.248348 
L 236.16 105.232696 
L 243.538512 98.220522 
L 250.917025 104.230957 
L 258.295537 154.317913 
L 265.67405 132.279652 
L 273.052562 118.255304 
L 280.431074 112.24487 
L 287.809587 131.277913 
L 295.188099 117.253565 
L 302.566612 121.260522 
L 309.945124 124.265739 
L 317.323636 130.276174 
L 324.702149 136.286609 
L 332.080661 158.32487 
L 339.459174 140.293565 
L 346.837686 157.32313 
L 354.216198 155.319652 
L 361.594711 142.297043 
L 368.973223 160.328348 
L 376.351736 161.330087 
L 383.730248 154.317913 
L 391.10876 190.380522 
L 398.487273 187.375304 
L 398.487273 151.312696 
L 398.487273 151.312696 
L 391.10876 142.297043 
L 383.730248 121.260522 
L 376.351736 114.248348 
L 368.973223 129.274435 
L 361.594711 122.262261 
L 354.216198 129.274435 
L 346.837686 124.265739 
L 339.459174 120.258783 
L 332.080661 123.264 
L 324.702149 114.248348 
L 317.323636 115.250087 
L 309.945124 105.232696 
L 302.566612 101.225739 
L 295.188099 87.201391 
L 287.809587 100.224 
L 280.431074 91.208348 
L 273.052562 93.211826 
L 265.67405 93.211826 
L 258.295537 101.225739 
L 250.917025 100.224 
L 243.538512 94.213565 
L 236.16 102.227478 
L 228.781488 111.24313 
L 221.402975 125.267478 
L 214.024463 123.264 
L 206.64595 96.217043 
L 199.267438 94.213565 
L 191.888926 100.224 
L 184.510413 96.217043 
L 177.131901 96.217043 
L 169.753388 87.201391 
L 162.374876 85.197913 
L 154.996364 85.197913 
L 147.617851 81.190957 
L 140.239339 74.178783 
L 132.860826 77.184 
L 125.482314 79.187478 
L 118.103802 81.190957 
L 110.725289 74.178783 
L 103.346777 76.182261 
L 95.968264 80.189217 
L 88.589752 86.199652 
L 81.21124 86.199652 
L 73.832727 62.157913 
z
" style="fill:#7f7f7f;"/>
   </g>
   <g id="PolyCollection_19">
    <path clip-path="url(#pf7d40275be)" d="M 73.832727 61.156174 
L 73.832727 62.157913 
L 81.21124 86.199652 
L 88.589752 86.199652 
L 95.968264 80.189217 
L 103.346777 76.182261 
L 110.725289 74.178783 
L 118.103802 81.190957 
L 125.482314 79.187478 
L 132.860826 77.184 
L 140.239339 74.178783 
L 147.617851 81.190957 
L 154.996364 85.197913 
L 162.374876 85.197913 
L 169.753388 87.201391 
L 177.131901 96.217043 
L 184.510413 96.217043 
L 191.888926 100.224 
L 199.267438 94.213565 
L 206.64595 96.217043 
L 214.024463 123.264 
L 221.402975 125.267478 
L 228.781488 111.24313 
L 236.16 102.227478 
L 243.538512 94.213565 
L 250.917025 100.224 
L 258.295537 101.225739 
L 265.67405 93.211826 
L 273.052562 93.211826 
L 280.431074 91.208348 
L 287.809587 100.224 
L 295.188099 87.201391 
L 302.566612 101.225739 
L 309.945124 105.232696 
L 317.323636 115.250087 
L 324.702149 114.248348 
L 332.080661 123.264 
L 339.459174 120.258783 
L 346.837686 124.265739 
L 354.216198 129.274435 
L 361.594711 122.262261 
L 368.973223 129.274435 
L 376.351736 114.248348 
L 383.730248 121.260522 
L 391.10876 142.297043 
L 398.487273 151.312696 
L 398.487273 141.295304 
L 398.487273 141.295304 
L 391.10876 134.28313 
L 383.730248 111.24313 
L 376.351736 94.213565 
L 368.973223 104.230957 
L 361.594711 108.237913 
L 354.216198 114.248348 
L 346.837686 109.239652 
L 339.459174 105.232696 
L 332.080661 106.234435 
L 324.702149 100.224 
L 317.323636 101.225739 
L 309.945124 94.213565 
L 302.566612 88.20313 
L 295.188099 75.180522 
L 287.809587 87.201391 
L 280.431074 81.190957 
L 273.052562 82.192696 
L 265.67405 80.189217 
L 258.295537 87.201391 
L 250.917025 86.199652 
L 243.538512 84.196174 
L 236.16 95.215304 
L 228.781488 102.227478 
L 221.402975 113.246609 
L 214.024463 110.241391 
L 206.64595 80.189217 
L 199.267438 85.197913 
L 191.888926 85.197913 
L 184.510413 82.192696 
L 177.131901 80.189217 
L 169.753388 74.178783 
L 162.374876 76.182261 
L 154.996364 78.185739 
L 147.617851 73.177043 
L 140.239339 70.171826 
L 132.860826 71.173565 
L 125.482314 72.175304 
L 118.103802 75.180522 
L 110.725289 69.170087 
L 103.346777 72.175304 
L 95.968264 74.178783 
L 88.589752 81.190957 
L 81.21124 85.197913 
L 73.832727 61.156174 
z
" style="fill:#bcbd22;"/>
   </g>
   <g id="PolyCollection_20">
    <path clip-path="url(#pf7d40275be)" d="M 73.832727 60.154435 
L 73.832727 61.156174 
L 81.21124 85.197913 
L 88.589752 81.190957 
L 95.968264 74.178783 
L 103.346777 72.175304 
L 110.725289 69.170087 
L 118.103802 75.180522 
L 125.482314 72.175304 
L 132.860826 71.173565 
L 140.239339 70.171826 
L 147.617851 73.177043 
L 154.996364 78.185739 
L 162.374876 76.182261 
L 169.753388 74.178783 
L 177.131901 80.189217 
L 184.510413 82.192696 
L 191.888926 85.197913 
L 199.267438 85.197913 
L 206.64595 80.189217 
L 214.024463 110.241391 
L 221.402975 113.246609 
L 228.781488 102.227478 
L 236.16 95.215304 
L 243.538512 84.196174 
L 250.917025 86.199652 
L 258.295537 87.201391 
L 265.67405 80.189217 
L 273.052562 82.192696 
L 280.431074 81.190957 
L 287.809587 87.201391 
L 295.188099 75.180522 
L 302.566612 88.20313 
L 309.945124 94.213565 
L 317.323636 101.225739 
L 324.702149 100.224 
L 332.080661 106.234435 
L 339.459174 105.232696 
L 346.837686 109.239652 
L 354.216198 114.248348 
L 361.594711 108.237913 
L 368.973223 104.230957 
L 376.351736 94.213565 
L 383.730248 111.24313 
L 391.10876 134.28313 
L 398.487273 141.295304 
L 398.487273 91.208348 
L 398.487273 91.208348 
L 391.10876 87.201391 
L 383.730248 72.175304 
L 376.351736 67.166609 
L 368.973223 62.157913 
L 361.594711 56.147478 
L 354.216198 56.147478 
L 346.837686 59.152696 
L 339.459174 57.149217 
L 332.080661 57.149217 
L 324.702149 56.147478 
L 317.323636 57.149217 
L 309.945124 57.149217 
L 302.566612 62.157913 
L 295.188099 62.157913 
L 287.809587 69.170087 
L 280.431074 70.171826 
L 273.052562 69.170087 
L 265.67405 69.170087 
L 258.295537 72.175304 
L 250.917025 67.166609 
L 243.538512 74.178783 
L 236.16 77.184 
L 228.781488 83.194435 
L 221.402975 72.175304 
L 214.024463 69.170087 
L 206.64595 77.184 
L 199.267438 82.192696 
L 191.888926 81.190957 
L 184.510413 80.189217 
L 177.131901 77.184 
L 169.753388 72.175304 
L 162.374876 73.177043 
L 154.996364 75.180522 
L 147.617851 69.170087 
L 140.239339 67.166609 
L 132.860826 67.166609 
L 125.482314 69.170087 
L 118.103802 71.173565 
L 110.725289 66.16487 
L 103.346777 68.168348 
L 95.968264 70.171826 
L 88.589752 76.182261 
L 81.21124 80.189217 
L 73.832727 60.154435 
z
" style="fill:#17becf;"/>
   </g>
   <g id="PolyCollection_21">
    <path clip-path="url(#pf7d40275be)" d="M 73.832727 59.152696 
L 73.832727 60.154435 
L 81.21124 80.189217 
L 88.589752 76.182261 
L 95.968264 70.171826 
L 103.346777 68.168348 
L 110.725289 66.16487 
L 118.103802 71.173565 
L 125.482314 69.170087 
L 132.860826 67.166609 
L 140.239339 67.166609 
L 147.617851 69.170087 
L 154.996364 75.180522 
L 162.374876 73.177043 
L 169.753388 72.175304 
L 177.131901 77.184 
L 184.510413 80.189217 
L 191.888926 81.190957 
L 199.267438 82.192696 
L 206.64595 77.184 
L 214.024463 69.170087 
L 221.402975 72.175304 
L 228.781488 83.194435 
L 236.16 77.184 
L 243.538512 74.178783 
L 250.917025 67.166609 
L 258.295537 72.175304 
L 265.67405 69.170087 
L 273.052562 69.170087 
L 280.431074 70.171826 
L 287.809587 69.170087 
L 295.188099 62.157913 
L 302.566612 62.157913 
L 309.945124 57.149217 
L 317.323636 57.149217 
L 324.702149 56.147478 
L 332.080661 57.149217 
L 339.459174 57.149217 
L 346.837686 59.152696 
L 354.216198 56.147478 
L 361.594711 56.147478 
L 368.973223 62.157913 
L 376.351736 67.166609 
L 383.730248 72.175304 
L 391.10876 87.201391 
L 398.487273 91.208348 
L 398.487273 91.208348 
L 398.487273 91.208348 
L 391.10876 87.201391 
L 383.730248 72.175304 
L 376.351736 67.166609 
L 368.973223 62.157913 
L 361.594711 56.147478 
L 354.216198 56.147478 
L 346.837686 59.152696 
L 339.459174 57.149217 
L 332.080661 57.149217 
L 324.702149 56.147478 
L 317.323636 57.149217 
L 309.945124 57.149217 
L 302.566612 57.149217 
L 295.188099 58.150957 
L 287.809587 58.150957 
L 280.431074 58.150957 
L 273.052562 59.152696 
L 265.67405 58.150957 
L 258.295537 59.152696 
L 250.917025 56.147478 
L 243.538512 61.156174 
L 236.16 61.156174 
L 228.781488 65.16313 
L 221.402975 60.154435 
L 214.024463 59.152696 
L 206.64595 63.159652 
L 199.267438 62.157913 
L 191.888926 61.156174 
L 184.510413 63.159652 
L 177.131901 63.159652 
L 169.753388 63.159652 
L 162.374876 61.156174 
L 154.996364 62.157913 
L 147.617851 59.152696 
L 140.239339 61.156174 
L 132.860826 60.154435 
L 125.482314 63.159652 
L 118.103802 66.16487 
L 110.725289 62.157913 
L 103.346777 63.159652 
L 95.968264 66.16487 
L 88.589752 70.171826 
L 81.21124 75.180522 
L 73.832727 59.152696 
z
" style="fill:#1f77b4;"/>
   </g>
   <g id="PolyCollection_22">
    <path clip-path="url(#pf7d40275be)" d="M 73.832727 58.150957 
L 73.832727 59.152696 
L 81.21124 75.180522 
L 88.589752 70.171826 
L 95.968264 66.16487 
L 103.346777 63.159652 
L 110.725289 62.157913 
L 118.103802 66.16487 
L 125.482314 63.159652 
L 132.860826 60.154435 
L 140.239339 61.156174 
L 147.617851 59.152696 
L 154.996364 62.157913 
L 162.374876 61.156174 
L 169.753388 63.159652 
L 177.131901 63.159652 
L 184.510413 63.159652 
L 191.888926 61.156174 
L 199.267438 62.157913 
L 206.64595 63.159652 
L 214.024463 59.152696 
L 221.402975 60.154435 
L 228.781488 65.16313 
L 236.16 61.156174 
L 243.538512 61.156174 
L 250.917025 56.147478 
L 258.295537 59.152696 
L 265.67405 58.150957 
L 273.052562 59.152696 
L 280.431074 58.150957 
L 287.809587 58.150957 
L 295.188099 58.150957 
L 302.566612 57.149217 
L 309.945124 57.149217 
L 317.323636 57.149217 
L 324.702149 56.147478 
L 332.080661 57.149217 
L 339.459174 57.149217 
L 346.837686 59.152696 
L 354.216198 56.147478 
L 361.594711 56.147478 
L 368.973223 62.157913 
L 376.351736 67.166609 
L 383.730248 72.175304 
L 391.10876 87.201391 
L 398.487273 91.208348 
L 398.487273 91.208348 
L 398.487273 91.208348 
L 391.10876 87.201391 
L 383.730248 72.175304 
L 376.351736 67.166609 
L 368.973223 62.157913 
L 361.594711 56.147478 
L 354.216198 56.147478 
L 346.837686 59.152696 
L 339.459174 57.149217 
L 332.080661 57.149217 
L 324.702149 56.147478 
L 317.323636 57.149217 
L 309.945124 57.149217 
L 302.566612 57.149217 
L 295.188099 58.150957 
L 287.809587 58.150957 
L 280.431074 58.150957 
L 273.052562 59.152696 
L 265.67405 58.150957 
L 258.295537 59.152696 
L 250.917025 56.147478 
L 243.538512 61.156174 
L 236.16 61.156174 
L 228.781488 63.159652 
L 221.402975 57.149217 
L 214.024463 57.149217 
L 206.64595 60.154435 
L 199.267438 58.150957 
L 191.888926 58.150957 
L 184.510413 59.152696 
L 177.131901 61.156174 
L 169.753388 60.154435 
L 162.374876 57.149217 
L 154.996364 59.152696 
L 147.617851 57.149217 
L 140.239339 58.150957 
L 132.860826 58.150957 
L 125.482314 60.154435 
L 118.103802 62.157913 
L 110.725289 60.154435 
L 103.346777 60.154435 
L 95.968264 61.156174 
L 88.589752 64.161391 
L 81.21124 67.166609 
L 73.832727 58.150957 
z
" style="fill:#ff7f0e;"/>
   </g>
   <g id="PolyCollection_23">
    <path clip-path="url(#pf7d40275be)" d="M 73.832727 57.149217 
L 73.832727 58.150957 
L 81.21124 67.166609 
L 88.589752 64.161391 
L 95.968264 61.156174 
L 103.346777 60.154435 
L 110.725289 60.154435 
L 118.103802 62.157913 
L 125.482314 60.154435 
L 132.860826 58.150957 
L 140.239339 58.150957 
L 147.617851 57.149217 
L 154.996364 59.152696 
L 162.374876 57.149217 
L 169.753388 60.154435 
L 177.131901 61.156174 
L 184.510413 59.152696 
L 191.888926 58.150957 
L 199.267438 58.150957 
L 206.64595 60.154435 
L 214.024463 57.149217 
L 221.402975 57.149217 
L 228.781488 63.159652 
L 236.16 61.156174 
L 243.538512 61.156174 
L 250.917025 56.147478 
L 258.295537 59.152696 
L 265.67405 58.150957 
L 273.052562 59.152696 
L 280.431074 58.150957 
L 287.809587 58.150957 
L 295.188099 58.150957 
L 302.566612 57.149217 
L 309.945124 57.149217 
L 317.323636 57.149217 
L 324.702149 56.147478 
L 332.080661 57.149217 
L 339.459174 57.149217 
L 346.837686 59.152696 
L 354.216198 56.147478 
L 361.594711 56.147478 
L 368.973223 62.157913 
L 376.351736 67.166609 
L 383.730248 72.175304 
L 391.10876 87.201391 
L 398.487273 91.208348 
L 398.487273 91.208348 
L 398.487273 91.208348 
L 391.10876 87.201391 
L 383.730248 72.175304 
L 376.351736 67.166609 
L 368.973223 62.157913 
L 361.594711 56.147478 
L 354.216198 56.147478 
L 346.837686 59.152696 
L 339.459174 57.149217 
L 332.080661 57.149217 
L 324.702149 56.147478 
L 317.323636 57.149217 
L 309.945124 57.149217 
L 302.566612 57.149217 
L 295.188099 58.150957 
L 287.809587 58.150957 
L 280.431074 58.150957 
L 273.052562 59.152696 
L 265.67405 55.145739 
L 258.295537 57.149217 
L 250.917025 54.144 
L 243.538512 59.152696 
L 236.16 59.152696 
L 228.781488 60.154435 
L 221.402975 55.145739 
L 214.024463 55.145739 
L 206.64595 58.150957 
L 199.267438 54.144 
L 191.888926 55.145739 
L 184.510413 57.149217 
L 177.131901 59.152696 
L 169.753388 57.149217 
L 162.374876 55.145739 
L 154.996364 57.149217 
L 147.617851 54.144 
L 140.239339 56.147478 
L 132.860826 55.145739 
L 125.482314 56.147478 
L 118.103802 59.152696 
L 110.725289 58.150957 
L 103.346777 57.149217 
L 95.968264 56.147478 
L 88.589752 55.145739 
L 81.21124 56.147478 
L 73.832727 57.149217 
z
" style="fill:#2ca02c;"/>
   </g>
   <g id="PolyCollection_24">
    <path clip-path="url(#pf7d40275be)" d="M 73.832727 57.149217 
L 73.832727 57.149217 
L 81.21124 56.147478 
L 88.589752 55.145739 
L 95.968264 56.147478 
L 103.346777 57.149217 
L 110.725289 58.150957 
L 118.103802 59.152696 
L 125.482314 56.147478 
L 132.860826 55.145739 
L 140.239339 56.147478 
L 147.617851 54.144 
L 154.996364 57.149217 
L 162.374876 55.145739 
L 169.753388 57.149217 
L 177.131901 59.152696 
L 184.510413 57.149217 
L 191.888926 55.145739 
L 199.267438 54.144 
L 206.64595 58.150957 
L 214.024463 55.145739 
L 221.402975 55.145739 
L 228.781488 60.154435 
L 236.16 59.152696 
L 243.538512 59.152696 
L 250.917025 54.144 
L 258.295537 57.149217 
L 265.67405 55.145739 
L 273.052562 59.152696 
L 280.431074 58.150957 
L 287.809587 58.150957 
L 295.188099 58.150957 
L 302.566612 57.149217 
L 309.945124 57.149217 
L 317.323636 57.149217 
L 324.702149 56.147478 
L 332.080661 57.149217 
L 339.459174 57.149217 
L 346.837686 59.152696 
L 354.216198 56.147478 
L 361.594711 56.147478 
L 368.973223 62.157913 
L 376.351736 67.166609 
L 383.730248 72.175304 
L 391.10876 87.201391 
L 398.487273 91.208348 
L 398.487273 56.147478 
L 398.487273 56.147478 
L 391.10876 57.149217 
L 383.730248 56.147478 
L 376.351736 55.145739 
L 368.973223 56.147478 
L 361.594711 56.147478 
L 354.216198 56.147478 
L 346.837686 59.152696 
L 339.459174 57.149217 
L 332.080661 57.149217 
L 324.702149 56.147478 
L 317.323636 57.149217 
L 309.945124 57.149217 
L 302.566612 57.149217 
L 295.188099 58.150957 
L 287.809587 58.150957 
L 280.431074 58.150957 
L 273.052562 59.152696 
L 265.67405 55.145739 
L 258.295537 57.149217 
L 250.917025 54.144 
L 243.538512 59.152696 
L 236.16 59.152696 
L 228.781488 60.154435 
L 221.402975 55.145739 
L 214.024463 55.145739 
L 206.64595 58.150957 
L 199.267438 54.144 
L 191.888926 55.145739 
L 184.510413 57.149217 
L 177.131901 59.152696 
L 169.753388 57.149217 
L 162.374876 55.145739 
L 154.996364 57.149217 
L 147.617851 54.144 
L 140.239339 56.147478 
L 132.860826 55.145739 
L 125.482314 56.147478 
L 118.103802 59.152696 
L 110.725289 58.150957 
L 103.346777 57.149217 
L 95.968264 56.147478 
L 88.589752 55.145739 
L 81.21124 56.147478 
L 73.832727 57.149217 
z
" style="fill:#d62728;"/>
   </g>
   <g id="matplotlib.axis_1">
    <g id="xtick_1">
     <g id="line2d_1">
      <defs>
       <path d="M 0 0 
L 0 3.5 
" id="m03529da0c9" style="stroke:#000000;stroke-width:0.8;"/>
      </defs>
      <g>
       <use style="stroke:#000000;stroke-width:0.8;" x="73.832727" xlink:href="#m03529da0c9" y="307.584"/>
      </g>
     </g>
     <g id="text_1">
      <!-- 0 -->
      <defs>
       <path d="M 31.78125 66.40625 
Q 24.171875 66.40625 20.328125 58.90625 
Q 16.5 51.421875 16.5 36.375 
Q 16.5 21.390625 20.328125 13.890625 
Q 24.171875 6.390625 31.78125 6.390625 
Q 39.453125 6.390625 43.28125 13.890625 
Q 47.125 21.390625 47.125 36.375 
Q 47.125 51.421875 43.28125 58.90625 
Q 39.453125 66.40625 31.78125 66.40625 
z
M 31.78125 74.21875 
Q 44.046875 74.21875 50.515625 64.515625 
Q 56.984375 54.828125 56.984375 36.375 
Q 56.984375 17.96875 50.515625 8.265625 
Q 44.046875 -1.421875 31.78125 -1.421875 
Q 19.53125 -1.421875 13.0625 8.265625 
Q 6.59375 17.96875 6.59375 36.375 
Q 6.59375 54.828125 13.0625 64.515625 
Q 19.53125 74.21875 31.78125 74.21875 
z
" id="DejaVuSans-48"/>
      </defs>
      <g transform="translate(70.651477 322.182437)scale(0.1 -0.1)">
       <use xlink:href="#DejaVuSans-48"/>
      </g>
     </g>
    </g>
    <g id="xtick_2">
     <g id="line2d_2">
      <g>
       <use style="stroke:#000000;stroke-width:0.8;" x="147.617851" xlink:href="#m03529da0c9" y="307.584"/>
      </g>
     </g>
     <g id="text_2">
      <!-- 10 -->
      <defs>
       <path d="M 12.40625 8.296875 
L 28.515625 8.296875 
L 28.515625 63.921875 
L 10.984375 60.40625 
L 10.984375 69.390625 
L 28.421875 72.90625 
L 38.28125 72.90625 
L 38.28125 8.296875 
L 54.390625 8.296875 
L 54.390625 0 
L 12.40625 0 
z
" id="DejaVuSans-49"/>
      </defs>
      <g transform="translate(141.255351 322.182437)scale(0.1 -0.1)">
       <use xlink:href="#DejaVuSans-49"/>
       <use x="63.623047" xlink:href="#DejaVuSans-48"/>
      </g>
     </g>
    </g>
    <g id="xtick_3">
     <g id="line2d_3">
      <g>
       <use style="stroke:#000000;stroke-width:0.8;" x="221.402975" xlink:href="#m03529da0c9" y="307.584"/>
      </g>
     </g>
     <g id="text_3">
      <!-- 20 -->
      <defs>
       <path d="M 19.1875 8.296875 
L 53.609375 8.296875 
L 53.609375 0 
L 7.328125 0 
L 7.328125 8.296875 
Q 12.9375 14.109375 22.625 23.890625 
Q 32.328125 33.6875 34.8125 36.53125 
Q 39.546875 41.84375 41.421875 45.53125 
Q 43.3125 49.21875 43.3125 52.78125 
Q 43.3125 58.59375 39.234375 62.25 
Q 35.15625 65.921875 28.609375 65.921875 
Q 23.96875 65.921875 18.8125 64.3125 
Q 13.671875 62.703125 7.8125 59.421875 
L 7.8125 69.390625 
Q 13.765625 71.78125 18.9375 73 
Q 24.125 74.21875 28.421875 74.21875 
Q 39.75 74.21875 46.484375 68.546875 
Q 53.21875 62.890625 53.21875 53.421875 
Q 53.21875 48.921875 51.53125 44.890625 
Q 49.859375 40.875 45.40625 35.40625 
Q 44.1875 33.984375 37.640625 27.21875 
Q 31.109375 20.453125 19.1875 8.296875 
z
" id="DejaVuSans-50"/>
      </defs>
      <g transform="translate(215.040475 322.182437)scale(0.1 -0.1)">
       <use xlink:href="#DejaVuSans-50"/>
       <use x="63.623047" xlink:href="#DejaVuSans-48"/>
      </g>
     </g>
    </g>
    <g id="xtick_4">
     <g id="line2d_4">
      <g>
       <use style="stroke:#000000;stroke-width:0.8;" x="295.188099" xlink:href="#m03529da0c9" y="307.584"/>
      </g>
     </g>
     <g id="text_4">
      <!-- 30 -->
      <defs>
       <path d="M 40.578125 39.3125 
Q 47.65625 37.796875 51.625 33 
Q 55.609375 28.21875 55.609375 21.1875 
Q 55.609375 10.40625 48.1875 4.484375 
Q 40.765625 -1.421875 27.09375 -1.421875 
Q 22.515625 -1.421875 17.65625 -0.515625 
Q 12.796875 0.390625 7.625 2.203125 
L 7.625 11.71875 
Q 11.71875 9.328125 16.59375 8.109375 
Q 21.484375 6.890625 26.8125 6.890625 
Q 36.078125 6.890625 40.9375 10.546875 
Q 45.796875 14.203125 45.796875 21.1875 
Q 45.796875 27.640625 41.28125 31.265625 
Q 36.765625 34.90625 28.71875 34.90625 
L 20.21875 34.90625 
L 20.21875 43.015625 
L 29.109375 43.015625 
Q 36.375 43.015625 40.234375 45.921875 
Q 44.09375 48.828125 44.09375 54.296875 
Q 44.09375 59.90625 40.109375 62.90625 
Q 36.140625 65.921875 28.71875 65.921875 
Q 24.65625 65.921875 20.015625 65.03125 
Q 15.375 64.15625 9.8125 62.3125 
L 9.8125 71.09375 
Q 15.4375 72.65625 20.34375 73.4375 
Q 25.25 74.21875 29.59375 74.21875 
Q 40.828125 74.21875 47.359375 69.109375 
Q 53.90625 64.015625 53.90625 55.328125 
Q 53.90625 49.265625 50.4375 45.09375 
Q 46.96875 40.921875 40.578125 39.3125 
z
" id="DejaVuSans-51"/>
      </defs>
      <g transform="translate(288.825599 322.182437)scale(0.1 -0.1)">
       <use xlink:href="#DejaVuSans-51"/>
       <use x="63.623047" xlink:href="#DejaVuSans-48"/>
      </g>
     </g>
    </g>
    <g id="xtick_5">
     <g id="line2d_5">
      <g>
       <use style="stroke:#000000;stroke-width:0.8;" x="368.973223" xlink:href="#m03529da0c9" y="307.584"/>
      </g>
     </g>
     <g id="text_5">
      <!-- 40 -->
      <defs>
       <path d="M 37.796875 64.3125 
L 12.890625 25.390625 
L 37.796875 25.390625 
z
M 35.203125 72.90625 
L 47.609375 72.90625 
L 47.609375 25.390625 
L 58.015625 25.390625 
L 58.015625 17.1875 
L 47.609375 17.1875 
L 47.609375 0 
L 37.796875 0 
L 37.796875 17.1875 
L 4.890625 17.1875 
L 4.890625 26.703125 
z
" id="DejaVuSans-52"/>
      </defs>
      <g transform="translate(362.610723 322.182437)scale(0.1 -0.1)">
       <use xlink:href="#DejaVuSans-52"/>
       <use x="63.623047" xlink:href="#DejaVuSans-48"/>
      </g>
     </g>
    </g>
    <g id="text_6">
     <!-- Generations -->
     <defs>
      <path d="M 59.515625 10.40625 
L 59.515625 29.984375 
L 43.40625 29.984375 
L 43.40625 38.09375 
L 69.28125 38.09375 
L 69.28125 6.78125 
Q 63.578125 2.734375 56.6875 0.65625 
Q 49.8125 -1.421875 42 -1.421875 
Q 24.90625 -1.421875 15.25 8.5625 
Q 5.609375 18.5625 5.609375 36.375 
Q 5.609375 54.25 15.25 64.234375 
Q 24.90625 74.21875 42 74.21875 
Q 49.125 74.21875 55.546875 72.453125 
Q 61.96875 70.703125 67.390625 67.28125 
L 67.390625 56.78125 
Q 61.921875 61.421875 55.765625 63.765625 
Q 49.609375 66.109375 42.828125 66.109375 
Q 29.4375 66.109375 22.71875 58.640625 
Q 16.015625 51.171875 16.015625 36.375 
Q 16.015625 21.625 22.71875 14.15625 
Q 29.4375 6.6875 42.828125 6.6875 
Q 48.046875 6.6875 52.140625 7.59375 
Q 56.25 8.5 59.515625 10.40625 
z
" id="DejaVuSans-71"/>
      <path d="M 56.203125 29.59375 
L 56.203125 25.203125 
L 14.890625 25.203125 
Q 15.484375 15.921875 20.484375 11.0625 
Q 25.484375 6.203125 34.421875 6.203125 
Q 39.59375 6.203125 44.453125 7.46875 
Q 49.3125 8.734375 54.109375 11.28125 
L 54.109375 2.78125 
Q 49.265625 0.734375 44.1875 -0.34375 
Q 39.109375 -1.421875 33.890625 -1.421875 
Q 20.796875 -1.421875 13.15625 6.1875 
Q 5.515625 13.8125 5.515625 26.8125 
Q 5.515625 40.234375 12.765625 48.109375 
Q 20.015625 56 32.328125 56 
Q 43.359375 56 49.78125 48.890625 
Q 56.203125 41.796875 56.203125 29.59375 
z
M 47.21875 32.234375 
Q 47.125 39.59375 43.09375 43.984375 
Q 39.0625 48.390625 32.421875 48.390625 
Q 24.90625 48.390625 20.390625 44.140625 
Q 15.875 39.890625 15.1875 32.171875 
z
" id="DejaVuSans-101"/>
      <path d="M 54.890625 33.015625 
L 54.890625 0 
L 45.90625 0 
L 45.90625 32.71875 
Q 45.90625 40.484375 42.875 44.328125 
Q 39.84375 48.1875 33.796875 48.1875 
Q 26.515625 48.1875 22.3125 43.546875 
Q 18.109375 38.921875 18.109375 30.90625 
L 18.109375 0 
L 9.078125 0 
L 9.078125 54.6875 
L 18.109375 54.6875 
L 18.109375 46.1875 
Q 21.34375 51.125 25.703125 53.5625 
Q 30.078125 56 35.796875 56 
Q 45.21875 56 50.046875 50.171875 
Q 54.890625 44.34375 54.890625 33.015625 
z
" id="DejaVuSans-110"/>
      <path d="M 41.109375 46.296875 
Q 39.59375 47.171875 37.8125 47.578125 
Q 36.03125 48 33.890625 48 
Q 26.265625 48 22.1875 43.046875 
Q 18.109375 38.09375 18.109375 28.8125 
L 18.109375 0 
L 9.078125 0 
L 9.078125 54.6875 
L 18.109375 54.6875 
L 18.109375 46.1875 
Q 20.953125 51.171875 25.484375 53.578125 
Q 30.03125 56 36.53125 56 
Q 37.453125 56 38.578125 55.875 
Q 39.703125 55.765625 41.0625 55.515625 
z
" id="DejaVuSans-114"/>
      <path d="M 34.28125 27.484375 
Q 23.390625 27.484375 19.1875 25 
Q 14.984375 22.515625 14.984375 16.5 
Q 14.984375 11.71875 18.140625 8.90625 
Q 21.296875 6.109375 26.703125 6.109375 
Q 34.1875 6.109375 38.703125 11.40625 
Q 43.21875 16.703125 43.21875 25.484375 
L 43.21875 27.484375 
z
M 52.203125 31.203125 
L 52.203125 0 
L 43.21875 0 
L 43.21875 8.296875 
Q 40.140625 3.328125 35.546875 0.953125 
Q 30.953125 -1.421875 24.3125 -1.421875 
Q 15.921875 -1.421875 10.953125 3.296875 
Q 6 8.015625 6 15.921875 
Q 6 25.140625 12.171875 29.828125 
Q 18.359375 34.515625 30.609375 34.515625 
L 43.21875 34.515625 
L 43.21875 35.40625 
Q 43.21875 41.609375 39.140625 45 
Q 35.0625 48.390625 27.6875 48.390625 
Q 23 48.390625 18.546875 47.265625 
Q 14.109375 46.140625 10.015625 43.890625 
L 10.015625 52.203125 
Q 14.9375 54.109375 19.578125 55.046875 
Q 24.21875 56 28.609375 56 
Q 40.484375 56 46.34375 49.84375 
Q 52.203125 43.703125 52.203125 31.203125 
z
" id="DejaVuSans-97"/>
      <path d="M 18.3125 70.21875 
L 18.3125 54.6875 
L 36.8125 54.6875 
L 36.8125 47.703125 
L 18.3125 47.703125 
L 18.3125 18.015625 
Q 18.3125 11.328125 20.140625 9.421875 
Q 21.96875 7.515625 27.59375 7.515625 
L 36.8125 7.515625 
L 36.8125 0 
L 27.59375 0 
Q 17.1875 0 13.234375 3.875 
Q 9.28125 7.765625 9.28125 18.015625 
L 9.28125 47.703125 
L 2.6875 47.703125 
L 2.6875 54.6875 
L 9.28125 54.6875 
L 9.28125 70.21875 
z
" id="DejaVuSans-116"/>
      <path d="M 9.421875 54.6875 
L 18.40625 54.6875 
L 18.40625 0 
L 9.421875 0 
z
M 9.421875 75.984375 
L 18.40625 75.984375 
L 18.40625 64.59375 
L 9.421875 64.59375 
z
" id="DejaVuSans-105"/>
      <path d="M 30.609375 48.390625 
Q 23.390625 48.390625 19.1875 42.75 
Q 14.984375 37.109375 14.984375 27.296875 
Q 14.984375 17.484375 19.15625 11.84375 
Q 23.34375 6.203125 30.609375 6.203125 
Q 37.796875 6.203125 41.984375 11.859375 
Q 46.1875 17.53125 46.1875 27.296875 
Q 46.1875 37.015625 41.984375 42.703125 
Q 37.796875 48.390625 30.609375 48.390625 
z
M 30.609375 56 
Q 42.328125 56 49.015625 48.375 
Q 55.71875 40.765625 55.71875 27.296875 
Q 55.71875 13.875 49.015625 6.21875 
Q 42.328125 -1.421875 30.609375 -1.421875 
Q 18.84375 -1.421875 12.171875 6.21875 
Q 5.515625 13.875 5.515625 27.296875 
Q 5.515625 40.765625 12.171875 48.375 
Q 18.84375 56 30.609375 56 
z
" id="DejaVuSans-111"/>
      <path d="M 44.28125 53.078125 
L 44.28125 44.578125 
Q 40.484375 46.53125 36.375 47.5 
Q 32.28125 48.484375 27.875 48.484375 
Q 21.1875 48.484375 17.84375 46.4375 
Q 14.5 44.390625 14.5 40.28125 
Q 14.5 37.15625 16.890625 35.375 
Q 19.28125 33.59375 26.515625 31.984375 
L 29.59375 31.296875 
Q 39.15625 29.25 43.1875 25.515625 
Q 47.21875 21.78125 47.21875 15.09375 
Q 47.21875 7.46875 41.1875 3.015625 
Q 35.15625 -1.421875 24.609375 -1.421875 
Q 20.21875 -1.421875 15.453125 -0.5625 
Q 10.6875 0.296875 5.421875 2 
L 5.421875 11.28125 
Q 10.40625 8.6875 15.234375 7.390625 
Q 20.0625 6.109375 24.8125 6.109375 
Q 31.15625 6.109375 34.5625 8.28125 
Q 37.984375 10.453125 37.984375 14.40625 
Q 37.984375 18.0625 35.515625 20.015625 
Q 33.0625 21.96875 24.703125 23.78125 
L 21.578125 24.515625 
Q 13.234375 26.265625 9.515625 29.90625 
Q 5.8125 33.546875 5.8125 39.890625 
Q 5.8125 47.609375 11.28125 51.796875 
Q 16.75 56 26.8125 56 
Q 31.78125 56 36.171875 55.265625 
Q 40.578125 54.546875 44.28125 53.078125 
z
" id="DejaVuSans-115"/>
     </defs>
     <g transform="translate(205.662344 335.860562)scale(0.1 -0.1)">
      <use xlink:href="#DejaVuSans-71"/>
      <use x="77.490234" xlink:href="#DejaVuSans-101"/>
      <use x="139.013672" xlink:href="#DejaVuSans-110"/>
      <use x="202.392578" xlink:href="#DejaVuSans-101"/>
      <use x="263.916016" xlink:href="#DejaVuSans-114"/>
      <use x="305.029297" xlink:href="#DejaVuSans-97"/>
      <use x="366.308594" xlink:href="#DejaVuSans-116"/>
      <use x="405.517578" xlink:href="#DejaVuSans-105"/>
      <use x="433.300781" xlink:href="#DejaVuSans-111"/>
      <use x="494.482422" xlink:href="#DejaVuSans-110"/>
      <use x="557.861328" xlink:href="#DejaVuSans-115"/>
     </g>
    </g>
   </g>
   <g id="matplotlib.axis_2">
    <g id="ytick_1">
     <g id="line2d_6">
      <defs>
       <path d="M 0 0 
L -3.5 0 
" id="m94153ce5d2" style="stroke:#000000;stroke-width:0.8;"/>
      </defs>
      <g>
       <use style="stroke:#000000;stroke-width:0.8;" x="57.6" xlink:href="#m94153ce5d2" y="307.584"/>
      </g>
     </g>
     <g id="text_7">
      <!-- 0 -->
      <g transform="translate(44.2375 311.383219)scale(0.1 -0.1)">
       <use xlink:href="#DejaVuSans-48"/>
      </g>
     </g>
    </g>
    <g id="ytick_2">
     <g id="line2d_7">
      <g>
       <use style="stroke:#000000;stroke-width:0.8;" x="57.6" xlink:href="#m94153ce5d2" y="257.497043"/>
      </g>
     </g>
     <g id="text_8">
      <!-- 50 -->
      <defs>
       <path d="M 10.796875 72.90625 
L 49.515625 72.90625 
L 49.515625 64.59375 
L 19.828125 64.59375 
L 19.828125 46.734375 
Q 21.96875 47.46875 24.109375 47.828125 
Q 26.265625 48.1875 28.421875 48.1875 
Q 40.625 48.1875 47.75 41.5 
Q 54.890625 34.8125 54.890625 23.390625 
Q 54.890625 11.625 47.5625 5.09375 
Q 40.234375 -1.421875 26.90625 -1.421875 
Q 22.3125 -1.421875 17.546875 -0.640625 
Q 12.796875 0.140625 7.71875 1.703125 
L 7.71875 11.625 
Q 12.109375 9.234375 16.796875 8.0625 
Q 21.484375 6.890625 26.703125 6.890625 
Q 35.15625 6.890625 40.078125 11.328125 
Q 45.015625 15.765625 45.015625 23.390625 
Q 45.015625 31 40.078125 35.4375 
Q 35.15625 39.890625 26.703125 39.890625 
Q 22.75 39.890625 18.8125 39.015625 
Q 14.890625 38.140625 10.796875 36.28125 
z
" id="DejaVuSans-53"/>
      </defs>
      <g transform="translate(37.875 261.296262)scale(0.1 -0.1)">
       <use xlink:href="#DejaVuSans-53"/>
       <use x="63.623047" xlink:href="#DejaVuSans-48"/>
      </g>
     </g>
    </g>
    <g id="ytick_3">
     <g id="line2d_8">
      <g>
       <use style="stroke:#000000;stroke-width:0.8;" x="57.6" xlink:href="#m94153ce5d2" y="207.410087"/>
      </g>
     </g>
     <g id="text_9">
      <!-- 100 -->
      <g transform="translate(31.5125 211.209306)scale(0.1 -0.1)">
       <use xlink:href="#DejaVuSans-49"/>
       <use x="63.623047" xlink:href="#DejaVuSans-48"/>
       <use x="127.246094" xlink:href="#DejaVuSans-48"/>
      </g>
     </g>
    </g>
    <g id="ytick_4">
     <g id="line2d_9">
      <g>
       <use style="stroke:#000000;stroke-width:0.8;" x="57.6" xlink:href="#m94153ce5d2" y="157.32313"/>
      </g>
     </g>
     <g id="text_10">
      <!-- 150 -->
      <g transform="translate(31.5125 161.122349)scale(0.1 -0.1)">
       <use xlink:href="#DejaVuSans-49"/>
       <use x="63.623047" xlink:href="#DejaVuSans-53"/>
       <use x="127.246094" xlink:href="#DejaVuSans-48"/>
      </g>
     </g>
    </g>
    <g id="ytick_5">
     <g id="line2d_10">
      <g>
       <use style="stroke:#000000;stroke-width:0.8;" x="57.6" xlink:href="#m94153ce5d2" y="107.236174"/>
      </g>
     </g>
     <g id="text_11">
      <!-- 200 -->
      <g transform="translate(31.5125 111.035393)scale(0.1 -0.1)">
       <use xlink:href="#DejaVuSans-50"/>
       <use x="63.623047" xlink:href="#DejaVuSans-48"/>
       <use x="127.246094" xlink:href="#DejaVuSans-48"/>
      </g>
     </g>
    </g>
    <g id="ytick_6">
     <g id="line2d_11">
      <g>
       <use style="stroke:#000000;stroke-width:0.8;" x="57.6" xlink:href="#m94153ce5d2" y="57.149217"/>
      </g>
     </g>
     <g id="text_12">
      <!-- 250 -->
      <g transform="translate(31.5125 60.948436)scale(0.1 -0.1)">
       <use xlink:href="#DejaVuSans-50"/>
       <use x="63.623047" xlink:href="#DejaVuSans-53"/>
       <use x="127.246094" xlink:href="#DejaVuSans-48"/>
      </g>
     </g>
    </g>
    <g id="text_13">
     <!-- Size per Species -->
     <defs>
      <path d="M 53.515625 70.515625 
L 53.515625 60.890625 
Q 47.90625 63.578125 42.921875 64.890625 
Q 37.9375 66.21875 33.296875 66.21875 
Q 25.25 66.21875 20.875 63.09375 
Q 16.5 59.96875 16.5 54.203125 
Q 16.5 49.359375 19.40625 46.890625 
Q 22.3125 44.4375 30.421875 42.921875 
L 36.375 41.703125 
Q 47.40625 39.59375 52.65625 34.296875 
Q 57.90625 29 57.90625 20.125 
Q 57.90625 9.515625 50.796875 4.046875 
Q 43.703125 -1.421875 29.984375 -1.421875 
Q 24.8125 -1.421875 18.96875 -0.25 
Q 13.140625 0.921875 6.890625 3.21875 
L 6.890625 13.375 
Q 12.890625 10.015625 18.65625 8.296875 
Q 24.421875 6.59375 29.984375 6.59375 
Q 38.421875 6.59375 43.015625 9.90625 
Q 47.609375 13.234375 47.609375 19.390625 
Q 47.609375 24.75 44.3125 27.78125 
Q 41.015625 30.8125 33.5 32.328125 
L 27.484375 33.5 
Q 16.453125 35.6875 11.515625 40.375 
Q 6.59375 45.0625 6.59375 53.421875 
Q 6.59375 63.09375 13.40625 68.65625 
Q 20.21875 74.21875 32.171875 74.21875 
Q 37.3125 74.21875 42.625 73.28125 
Q 47.953125 72.359375 53.515625 70.515625 
z
" id="DejaVuSans-83"/>
      <path d="M 5.515625 54.6875 
L 48.1875 54.6875 
L 48.1875 46.484375 
L 14.40625 7.171875 
L 48.1875 7.171875 
L 48.1875 0 
L 4.296875 0 
L 4.296875 8.203125 
L 38.09375 47.515625 
L 5.515625 47.515625 
z
" id="DejaVuSans-122"/>
      <path id="DejaVuSans-32"/>
      <path d="M 18.109375 8.203125 
L 18.109375 -20.796875 
L 9.078125 -20.796875 
L 9.078125 54.6875 
L 18.109375 54.6875 
L 18.109375 46.390625 
Q 20.953125 51.265625 25.265625 53.625 
Q 29.59375 56 35.59375 56 
Q 45.5625 56 51.78125 48.09375 
Q 58.015625 40.1875 58.015625 27.296875 
Q 58.015625 14.40625 51.78125 6.484375 
Q 45.5625 -1.421875 35.59375 -1.421875 
Q 29.59375 -1.421875 25.265625 0.953125 
Q 20.953125 3.328125 18.109375 8.203125 
z
M 48.6875 27.296875 
Q 48.6875 37.203125 44.609375 42.84375 
Q 40.53125 48.484375 33.40625 48.484375 
Q 26.265625 48.484375 22.1875 42.84375 
Q 18.109375 37.203125 18.109375 27.296875 
Q 18.109375 17.390625 22.1875 11.75 
Q 26.265625 6.109375 33.40625 6.109375 
Q 40.53125 6.109375 44.609375 11.75 
Q 48.6875 17.390625 48.6875 27.296875 
z
" id="DejaVuSans-112"/>
      <path d="M 48.78125 52.59375 
L 48.78125 44.1875 
Q 44.96875 46.296875 41.140625 47.34375 
Q 37.3125 48.390625 33.40625 48.390625 
Q 24.65625 48.390625 19.8125 42.84375 
Q 14.984375 37.3125 14.984375 27.296875 
Q 14.984375 17.28125 19.8125 11.734375 
Q 24.65625 6.203125 33.40625 6.203125 
Q 37.3125 6.203125 41.140625 7.25 
Q 44.96875 8.296875 48.78125 10.40625 
L 48.78125 2.09375 
Q 45.015625 0.34375 40.984375 -0.53125 
Q 36.96875 -1.421875 32.421875 -1.421875 
Q 20.0625 -1.421875 12.78125 6.34375 
Q 5.515625 14.109375 5.515625 27.296875 
Q 5.515625 40.671875 12.859375 48.328125 
Q 20.21875 56 33.015625 56 
Q 37.15625 56 41.109375 55.140625 
Q 45.0625 54.296875 48.78125 52.59375 
z
" id="DejaVuSans-99"/>
     </defs>
     <g transform="translate(25.432812 215.520969)rotate(-90)scale(0.1 -0.1)">
      <use xlink:href="#DejaVuSans-83"/>
      <use x="63.476562" xlink:href="#DejaVuSans-105"/>
      <use x="91.259766" xlink:href="#DejaVuSans-122"/>
      <use x="143.75" xlink:href="#DejaVuSans-101"/>
      <use x="205.273438" xlink:href="#DejaVuSans-32"/>
      <use x="237.060547" xlink:href="#DejaVuSans-112"/>
      <use x="300.537109" xlink:href="#DejaVuSans-101"/>
      <use x="362.060547" xlink:href="#DejaVuSans-114"/>
      <use x="403.173828" xlink:href="#DejaVuSans-32"/>
      <use x="434.960938" xlink:href="#DejaVuSans-83"/>
      <use x="498.4375" xlink:href="#DejaVuSans-112"/>
      <use x="561.914062" xlink:href="#DejaVuSans-101"/>
      <use x="623.4375" xlink:href="#DejaVuSans-99"/>
      <use x="678.417969" xlink:href="#DejaVuSans-105"/>
      <use x="706.201172" xlink:href="#DejaVuSans-101"/>
      <use x="767.724609" xlink:href="#DejaVuSans-115"/>
     </g>
    </g>
   </g>
   <g id="patch_3">
    <path d="M 57.6 307.584 
L 57.6 41.472 
" style="fill:none;stroke:#000000;stroke-linecap:square;stroke-linejoin:miter;stroke-width:0.8;"/>
   </g>
   <g id="patch_4">
    <path d="M 414.72 307.584 
L 414.72 41.472 
" style="fill:none;stroke:#000000;stroke-linecap:square;stroke-linejoin:miter;stroke-width:0.8;"/>
   </g>
   <g id="patch_5">
    <path d="M 57.6 307.584 
L 414.72 307.584 
" style="fill:none;stroke:#000000;stroke-linecap:square;stroke-linejoin:miter;stroke-width:0.8;"/>
   </g>
   <g id="patch_6">
    <path d="M 57.6 41.472 
L 414.72 41.472 
" style="fill:none;stroke:#000000;stroke-linecap:square;stroke-linejoin:miter;stroke-width:0.8;"/>
   </g>
   <g id="text_14">
    <!-- Speciation -->
    <g transform="translate(204.714375 35.472)scale(0.12 -0.12)">
     <use xlink:href="#DejaVuSans-83"/>
     <use x="63.476562" xlink:href="#DejaVuSans-112"/>
     <use x="126.953125" xlink:href="#DejaVuSans-101"/>
     <use x="188.476562" xlink:href="#DejaVuSans-99"/>
     <use x="243.457031" xlink:href="#DejaVuSans-105"/>
     <use x="271.240234" xlink:href="#DejaVuSans-97"/>
     <use x="332.519531" xlink:href="#DejaVuSans-116"/>
     <use x="371.728516" xlink:href="#DejaVuSans-105"/>
     <use x="399.511719" xlink:href="#DejaVuSans-111"/>
     <use x="460.693359" xlink:href="#DejaVuSans-110"/>
    </g>
   </g>
  </g>
 </g>
 <defs>
  <clipPath id="pf7d40275be">
   <rect height="266.112" width="357.12" x="57.6" y="41.472"/>
  </clipPath>
 </defs>
</svg>
