<?xml version="1.0" encoding="UTF-8" standalone="no"?>
<!DOCTYPE svg PUBLIC "-//W3C//DTD SVG 1.1//EN"
 "http://www.w3.org/Graphics/SVG/1.1/DTD/svg11.dtd">
<!-- Generated by graphviz version 2.38.0 (20140413.2041)
 -->
<!-- Title: %3 Pages: 1 -->
<svg width="198pt" height="194pt"
 viewBox="0.00 0.00 197.88 194.17" xmlns="http://www.w3.org/2000/svg" xmlns:xlink="http://www.w3.org/1999/xlink">
<g id="graph0" class="graph" transform="scale(1 1) rotate(0) translate(4 190.167)">
<title>%3</title>
<polygon fill="white" stroke="none" points="-4,4 -4,-190.167 193.885,-190.167 193.885,4 -4,4"/>
<!-- x -->
<g id="node1" class="node"><title>x</title>
<polygon fill="lightgray" stroke="black" points="173.5,-186.167 153.5,-186.167 153.5,-168.167 173.5,-168.167 173.5,-186.167"/>
<text text-anchor="middle" x="163.5" y="-174.967" font-family="Times New Roman,serif" font-size="9.00">x</text>
</g>
<!-- control -->
<g id="node5" class="node"><title>control</title>
<ellipse fill="lightblue" stroke="black" cx="60.5" cy="-102.468" rx="29.8983" ry="29.8983"/>
<text text-anchor="middle" x="60.5" y="-100.268" font-family="Times New Roman,serif" font-size="9.00">control</text>
</g>
<!-- x&#45;&gt;control -->
<g id="edge1" class="edge"><title>x&#45;&gt;control</title>
<path fill="none" stroke="green" stroke-width="0.197155" d="M153.454,-169.406C140.792,-160.851 118.398,-145.61 99.5,-132.167 97.1239,-130.476 94.6757,-128.717 92.2186,-126.939"/>
<polygon fill="green" stroke="green" stroke-width="0.197155" points="94.0645,-123.953 83.9217,-120.891 89.9412,-129.61 94.0645,-123.953"/>
</g>
<!-- 353 -->
<g id="node6" class="node"><title>353</title>
<ellipse fill="white" stroke="black" cx="129.5" cy="-102.468" rx="21.4286" ry="21.4286"/>
<text text-anchor="middle" x="129.5" y="-100.268" font-family="Times New Roman,serif" font-size="9.00">353</text>
</g>
<!-- x&#45;&gt;353 -->
<g id="edge7" class="edge"><title>x&#45;&gt;353</title>
<path fill="none" stroke="green" stroke-width="0.600829" d="M159.731,-168.109C155.585,-159.244 148.692,-144.503 142.533,-131.336"/>
<polygon fill="green" stroke="green" stroke-width="0.600829" points="145.636,-129.708 138.229,-122.132 139.295,-132.673 145.636,-129.708"/>
</g>
<!-- 78 -->
<g id="node7" class="node"><title>78</title>
<ellipse fill="white" stroke="black" cx="153.5" cy="-18.3848" rx="18.2703" ry="18.2703"/>
<text text-anchor="middle" x="153.5" y="-16.1848" font-family="Times New Roman,serif" font-size="9.00">78</text>
</g>
<!-- x&#45;&gt;78 -->
<g id="edge3" class="edge"><title>x&#45;&gt;78</title>
<path fill="none" stroke="green" stroke-width="0.169614" stroke-dasharray="1,5" d="M163.389,-168.111C163.105,-150.694 162.176,-108.238 159.5,-72.7696 158.859,-64.2687 157.91,-55.0324 156.956,-46.6697"/>
<polygon fill="green" stroke="green" stroke-width="0.169614" points="160.423,-46.182 155.767,-36.6651 153.472,-47.0084 160.423,-46.182"/>
</g>
<!-- dx -->
<g id="node2" class="node"><title>dx</title>
<polygon fill="lightgray" stroke="black" points="25,-186.167 0,-186.167 0,-168.167 25,-168.167 25,-186.167"/>
<text text-anchor="middle" x="12.5" y="-174.967" font-family="Times New Roman,serif" font-size="9.00">dx</text>
</g>
<!-- dx&#45;&gt;control -->
<g id="edge5" class="edge"><title>dx&#45;&gt;control</title>
<path fill="none" stroke="green" stroke-width="0.17212" d="M17.8202,-168.109C22.9663,-160.315 31.1111,-147.979 38.9123,-136.164"/>
<polygon fill="green" stroke="green" stroke-width="0.17212" points="41.8952,-137.998 44.4844,-127.725 36.0536,-134.141 41.8952,-137.998"/>
</g>
<!-- theta -->
<g id="node3" class="node"><title>theta</title>
<polygon fill="lightgray" stroke="black" points="78,-186.167 43,-186.167 43,-168.167 78,-168.167 78,-186.167"/>
<text text-anchor="middle" x="60.5" y="-174.967" font-family="Times New Roman,serif" font-size="9.00">theta</text>
</g>
<!-- theta&#45;&gt;control -->
<g id="edge6" class="edge"><title>theta&#45;&gt;control</title>
<path fill="none" stroke="green" stroke-width="0.522213" d="M60.5,-168.109C60.5,-161.688 60.5,-152.186 60.5,-142.431"/>
<polygon fill="green" stroke="green" stroke-width="0.522213" points="64.0001,-142.293 60.5,-132.293 57.0001,-142.293 64.0001,-142.293"/>
</g>
<!-- dtheta -->
<g id="node4" class="node"><title>dtheta</title>
<polygon fill="lightgray" stroke="black" points="135,-186.167 96,-186.167 96,-168.167 135,-168.167 135,-186.167"/>
<text text-anchor="middle" x="115.5" y="-174.967" font-family="Times New Roman,serif" font-size="9.00">dtheta</text>
</g>
<!-- dtheta&#45;&gt;control -->
<g id="edge2" class="edge"><title>dtheta&#45;&gt;control</title>
<path fill="none" stroke="green" stroke-width="0.347607" d="M109.404,-168.109C103.314,-160.059 93.5583,-147.164 84.3568,-135.002"/>
<polygon fill="green" stroke="green" stroke-width="0.347607" points="86.9515,-132.63 78.1269,-126.767 81.3691,-136.854 86.9515,-132.63"/>
</g>
<!-- dtheta&#45;&gt;353 -->
<g id="edge9" class="edge"><title>dtheta&#45;&gt;353</title>
<path fill="none" stroke="red" stroke-width="0.202465" d="M117.052,-168.109C118.665,-159.733 121.288,-146.113 123.711,-133.529"/>
<polygon fill="red" stroke="red" stroke-width="0.202465" points="127.219,-133.822 125.673,-123.341 120.345,-132.498 127.219,-133.822"/>
</g>
<!-- 353&#45;&gt;78 -->
<g id="edge8" class="edge"><title>353&#45;&gt;78</title>
<path fill="none" stroke="green" stroke-width="0.406096" d="M135.188,-82.0155C138.34,-71.2352 142.304,-57.6769 145.737,-45.9345"/>
<polygon fill="green" stroke="green" stroke-width="0.406096" points="149.137,-46.7787 148.584,-36.1983 142.418,-44.8142 149.137,-46.7787"/>
</g>
<!-- 78&#45;&gt;78 -->
<g id="edge4" class="edge"><title>78&#45;&gt;78</title>
<path fill="none" stroke="red" stroke-width="0.215461" d="M166.556,-31.5354C177.893,-37.5339 189.885,-33.1504 189.885,-18.3848 189.885,-8.0027 183.956,-2.75336 176.495,-2.63676"/>
<polygon fill="red" stroke="red" stroke-width="0.215461" points="175.347,0.68066 166.556,-5.23414 177.117,-6.09189 175.347,0.68066"/>
</g>
</g>
</svg>
