<?xml version="1.0" encoding="UTF-8" standalone="no"?>
<!DOCTYPE svg PUBLIC "-//W3C//DTD SVG 1.1//EN"
 "http://www.w3.org/Graphics/SVG/1.1/DTD/svg11.dtd">
<!-- Generated by graphviz version 2.38.0 (20140413.2041)
 -->
<!-- Title: %3 Pages: 1 -->
<svg width="192pt" height="194pt"
 viewBox="0.00 0.00 191.88 194.17" xmlns="http://www.w3.org/2000/svg" xmlns:xlink="http://www.w3.org/1999/xlink">
<g id="graph0" class="graph" transform="scale(1 1) rotate(0) translate(4 190.167)">
<title>%3</title>
<polygon fill="white" stroke="none" points="-4,4 -4,-190.167 187.885,-190.167 187.885,4 -4,4"/>
<!-- x -->
<g id="node1" class="node"><title>x</title>
<polygon fill="lightgray" stroke="black" points="116.5,-186.167 96.5,-186.167 96.5,-168.167 116.5,-168.167 116.5,-186.167"/>
<text text-anchor="middle" x="106.5" y="-174.967" font-family="Times New Roman,serif" font-size="9.00">x</text>
</g>
<!-- control -->
<g id="node5" class="node"><title>control</title>
<ellipse fill="lightblue" stroke="black" cx="66.5" cy="-102.468" rx="29.8983" ry="29.8983"/>
<text text-anchor="middle" x="66.5" y="-100.268" font-family="Times New Roman,serif" font-size="9.00">control</text>
</g>
<!-- x&#45;&gt;control -->
<g id="edge1" class="edge"><title>x&#45;&gt;control</title>
<path fill="none" stroke="green" stroke-width="0.197155" d="M102.066,-168.109C97.9897,-160.699 91.6547,-149.186 85.4541,-137.916"/>
<polygon fill="green" stroke="green" stroke-width="0.197155" points="88.4431,-136.088 80.5559,-129.014 82.3101,-139.463 88.4431,-136.088"/>
</g>
<!-- 353 -->
<g id="node6" class="node"><title>353</title>
<ellipse fill="white" stroke="black" cx="147.5" cy="-102.468" rx="21.4286" ry="21.4286"/>
<text text-anchor="middle" x="147.5" y="-100.268" font-family="Times New Roman,serif" font-size="9.00">353</text>
</g>
<!-- x&#45;&gt;353 -->
<g id="edge6" class="edge"><title>x&#45;&gt;353</title>
<path fill="none" stroke="green" stroke-width="0.600829" d="M111.044,-168.109C116.194,-158.977 124.86,-143.613 132.45,-130.154"/>
<polygon fill="green" stroke="green" stroke-width="0.600829" points="135.613,-131.67 137.477,-121.24 129.516,-128.231 135.613,-131.67"/>
</g>
<!-- dx -->
<g id="node2" class="node"><title>dx</title>
<polygon fill="lightgray" stroke="black" points="25,-186.167 0,-186.167 0,-168.167 25,-168.167 25,-186.167"/>
<text text-anchor="middle" x="12.5" y="-174.967" font-family="Times New Roman,serif" font-size="9.00">dx</text>
</g>
<!-- dx&#45;&gt;control -->
<g id="edge4" class="edge"><title>dx&#45;&gt;control</title>
<path fill="none" stroke="green" stroke-width="0.17212" d="M18.4853,-168.109C24.4647,-160.059 34.0427,-147.164 43.0769,-135.002"/>
<polygon fill="green" stroke="green" stroke-width="0.17212" points="46.0403,-136.882 49.1936,-126.767 40.4209,-132.708 46.0403,-136.882"/>
</g>
<!-- theta -->
<g id="node3" class="node"><title>theta</title>
<polygon fill="lightgray" stroke="black" points="78,-186.167 43,-186.167 43,-168.167 78,-168.167 78,-186.167"/>
<text text-anchor="middle" x="60.5" y="-174.967" font-family="Times New Roman,serif" font-size="9.00">theta</text>
</g>
<!-- theta&#45;&gt;control -->
<g id="edge5" class="edge"><title>theta&#45;&gt;control</title>
<path fill="none" stroke="green" stroke-width="0.522213" d="M61.165,-168.109C61.6949,-161.688 62.4792,-152.186 63.2842,-142.431"/>
<polygon fill="green" stroke="green" stroke-width="0.522213" points="66.7865,-142.547 64.121,-132.293 59.8102,-141.972 66.7865,-142.547"/>
</g>
<!-- dtheta -->
<g id="node4" class="node"><title>dtheta</title>
<polygon fill="lightgray" stroke="black" points="174,-186.167 135,-186.167 135,-168.167 174,-168.167 174,-186.167"/>
<text text-anchor="middle" x="154.5" y="-174.967" font-family="Times New Roman,serif" font-size="9.00">dtheta</text>
</g>
<!-- dtheta&#45;&gt;control -->
<g id="edge2" class="edge"><title>dtheta&#45;&gt;control</title>
<path fill="none" stroke="green" stroke-width="0.347607" d="M144.746,-168.109C133.286,-158.641 113.714,-142.473 97.0128,-128.675"/>
<polygon fill="green" stroke="green" stroke-width="0.347607" points="99.0312,-125.803 89.0925,-122.132 94.5729,-131.199 99.0312,-125.803"/>
</g>
<!-- dtheta&#45;&gt;353 -->
<g id="edge8" class="edge"><title>dtheta&#45;&gt;353</title>
<path fill="none" stroke="red" stroke-width="0.202465" d="M153.724,-168.109C152.923,-159.791 151.624,-146.3 150.42,-133.79"/>
<polygon fill="red" stroke="red" stroke-width="0.202465" points="153.885,-133.265 149.443,-123.646 146.918,-133.936 153.885,-133.265"/>
</g>
<!-- 78 -->
<g id="node7" class="node"><title>78</title>
<ellipse fill="white" stroke="black" cx="147.5" cy="-18.3848" rx="18.2703" ry="18.2703"/>
<text text-anchor="middle" x="147.5" y="-16.1848" font-family="Times New Roman,serif" font-size="9.00">78</text>
</g>
<!-- 353&#45;&gt;78 -->
<g id="edge7" class="edge"><title>353&#45;&gt;78</title>
<path fill="none" stroke="green" stroke-width="0.406096" d="M147.5,-81.1778C147.5,-70.8883 147.5,-58.2374 147.5,-47.068"/>
<polygon fill="green" stroke="green" stroke-width="0.406096" points="151,-46.9386 147.5,-36.9386 144,-46.9386 151,-46.9386"/>
</g>
<!-- 78&#45;&gt;78 -->
<g id="edge3" class="edge"><title>78&#45;&gt;78</title>
<path fill="none" stroke="red" stroke-width="0.215461" d="M160.556,-31.5354C171.893,-37.5339 183.885,-33.1504 183.885,-18.3848 183.885,-8.0027 177.956,-2.75336 170.495,-2.63676"/>
<polygon fill="red" stroke="red" stroke-width="0.215461" points="169.347,0.68066 160.556,-5.23414 171.117,-6.09189 169.347,0.68066"/>
</g>
</g>
</svg>
