<?xml version="1.0" encoding="UTF-8" standalone="no"?>
<!DOCTYPE svg PUBLIC "-//W3C//DTD SVG 1.1//EN"
 "http://www.w3.org/Graphics/SVG/1.1/DTD/svg11.dtd">
<!-- Generated by graphviz version 2.38.0 (20140413.2041)
 -->
<!-- Title: %3 Pages: 1 -->
<svg width="160pt" height="301pt"
 viewBox="0.00 0.00 159.55 300.88" xmlns="http://www.w3.org/2000/svg" xmlns:xlink="http://www.w3.org/1999/xlink">
<g id="graph0" class="graph" transform="scale(1 1) rotate(0) translate(4 296.877)">
<title>%3</title>
<polygon fill="white" stroke="none" points="-4,4 -4,-296.877 155.55,-296.877 155.55,4 -4,4"/>
<!-- A -->
<g id="node1" class="node"><title>A</title>
<polygon fill="lightgray" stroke="black" points="44.3008,-223.128 21.3008,-223.128 21.3008,-205.128 44.3008,-205.128 44.3008,-223.128"/>
<text text-anchor="middle" x="32.8008" y="-211.928" font-family="Times New Roman,serif" font-size="9.00">A</text>
</g>
<!-- A XOR B -->
<g id="node3" class="node"><title>A XOR B</title>
<ellipse fill="lightblue" stroke="black" cx="53.8008" cy="-37.4767" rx="37.4533" ry="37.4533"/>
<text text-anchor="middle" x="53.8008" y="-35.2767" font-family="Times New Roman,serif" font-size="9.00">A XOR B</text>
</g>
<!-- A&#45;&gt;A XOR B -->
<g id="edge1" class="edge"><title>A&#45;&gt;A XOR B</title>
<path fill="none" stroke="red" stroke-width="0.723216" d="M33.8137,-204.705C36.3665,-183.473 43.2148,-126.517 48.1848,-85.1836"/>
<polygon fill="red" stroke="red" stroke-width="0.723216" points="51.6852,-85.3892 49.4041,-75.0429 44.7352,-84.5535 51.6852,-85.3892"/>
</g>
<!-- 786 -->
<g id="node4" class="node"><title>786</title>
<ellipse fill="white" stroke="black" cx="78.8008" cy="-132.167" rx="21.4286" ry="21.4286"/>
<text text-anchor="middle" x="78.8008" y="-129.967" font-family="Times New Roman,serif" font-size="9.00">786</text>
</g>
<!-- A&#45;&gt;786 -->
<g id="edge3" class="edge"><title>A&#45;&gt;786</title>
<path fill="none" stroke="green" stroke-width="0.73626" d="M37.5503,-204.872C43.614,-194.332 54.401,-175.581 63.4235,-159.897"/>
<polygon fill="green" stroke="green" stroke-width="0.73626" points="66.5301,-161.516 68.4829,-151.102 60.4625,-158.025 66.5301,-161.516"/>
</g>
<!-- B -->
<g id="node2" class="node"><title>B</title>
<polygon fill="lightgray" stroke="black" points="85.3008,-292.877 62.3008,-292.877 62.3008,-274.877 85.3008,-274.877 85.3008,-292.877"/>
<text text-anchor="middle" x="73.8008" y="-281.677" font-family="Times New Roman,serif" font-size="9.00">B</text>
</g>
<!-- B&#45;&gt;A XOR B -->
<g id="edge2" class="edge"><title>B&#45;&gt;A XOR B</title>
<path fill="none" stroke="green" stroke-width="0.659547" d="M62.2915,-278.613C47.4817,-272.425 22.4015,-259.399 11.8008,-238.877 -14.5901,-187.787 9.142,-121.246 30.1897,-79.1801"/>
<polygon fill="green" stroke="green" stroke-width="0.659547" points="33.4143,-80.5638 34.8963,-70.0731 27.1957,-77.3499 33.4143,-80.5638"/>
</g>
<!-- B&#45;&gt;786 -->
<g id="edge5" class="edge"><title>B&#45;&gt;786</title>
<path fill="none" stroke="red" stroke-width="0.875602" d="M74.0696,-274.828C74.7571,-254.243 76.6077,-198.832 77.7802,-163.725"/>
<polygon fill="red" stroke="red" stroke-width="0.875602" points="81.2844,-163.654 78.1203,-153.542 74.2883,-163.42 81.2844,-163.654"/>
</g>
<!-- 1347 -->
<g id="node5" class="node"><title>1347</title>
<ellipse fill="white" stroke="black" cx="126.801" cy="-214.128" rx="25" ry="25"/>
<text text-anchor="middle" x="126.801" y="-211.928" font-family="Times New Roman,serif" font-size="9.00">1347</text>
</g>
<!-- B&#45;&gt;1347 -->
<g id="edge6" class="edge"><title>B&#45;&gt;1347</title>
<path fill="none" stroke="green" stroke-width="0.377435" d="M80.0887,-274.839C86.4159,-266.752 96.5279,-253.826 105.728,-242.065"/>
<polygon fill="green" stroke="green" stroke-width="0.377435" points="108.489,-244.216 111.894,-234.183 102.976,-239.903 108.489,-244.216"/>
</g>
<!-- 786&#45;&gt;A XOR B -->
<g id="edge4" class="edge"><title>786&#45;&gt;A XOR B</title>
<path fill="none" stroke="green" stroke-width="1.92652" d="M73.4989,-111.509C71.2845,-103.299 68.6128,-93.3936 65.9615,-83.5637"/>
<polygon fill="green" stroke="green" stroke-width="1.92652" points="69.3181,-82.568 63.3347,-73.8245 62.5596,-84.3909 69.3181,-82.568"/>
</g>
<!-- 1347&#45;&gt;A XOR B -->
<g id="edge7" class="edge"><title>1347&#45;&gt;A XOR B</title>
<path fill="none" stroke="green" stroke-width="0.501994" d="M125.76,-189.082C124.106,-167.772 119.83,-136.208 108.801,-110.953 103.001,-97.6744 94.2961,-84.6058 85.512,-73.3018"/>
<polygon fill="green" stroke="green" stroke-width="0.501994" points="88.1448,-70.991 79.1423,-65.4048 82.6963,-75.3858 88.1448,-70.991"/>
</g>
<!-- 1347&#45;&gt;786 -->
<g id="edge8" class="edge"><title>1347&#45;&gt;786</title>
<path fill="none" stroke="red" stroke-width="0.492181" d="M114.44,-192.536C108.363,-182.414 100.974,-170.104 94.5021,-159.323"/>
<polygon fill="red" stroke="red" stroke-width="0.492181" points="97.4785,-157.481 89.3309,-150.708 91.4768,-161.084 97.4785,-157.481"/>
</g>
</g>
</svg>
