<?xml version="1.0" encoding="utf-8" standalone="no"?>
<!DOCTYPE svg PUBLIC "-//W3C//DTD SVG 1.1//EN"
  "http://www.w3.org/Graphics/SVG/1.1/DTD/svg11.dtd">
<!-- Created with matplotlib (https://matplotlib.org/) -->
<svg height="345.6pt" version="1.1" viewBox="0 0 460.8 345.6" width="460.8pt" xmlns="http://www.w3.org/2000/svg" xmlns:xlink="http://www.w3.org/1999/xlink">
 <defs>
  <style type="text/css">
*{stroke-linecap:butt;stroke-linejoin:round;}
  </style>
 </defs>
 <g id="figure_1">
  <g id="patch_1">
   <path d="M 0 345.6 
L 460.8 345.6 
L 460.8 0 
L 0 0 
z
" style="fill:#ffffff;"/>
  </g>
  <g id="axes_1">
   <g id="patch_2">
    <path d="M 57.6 307.584 
L 414.72 307.584 
L 414.72 41.472 
L 57.6 41.472 
z
" style="fill:#ffffff;"/>
   </g>
   <g id="PolyCollection_1">
    <path clip-path="url(#pb6aa63426d)" d="M 73.832727 186.850772 
L 73.832727 307.584 
L 80.740271 307.584 
L 87.647814 307.584 
L 94.555358 307.584 
L 101.462901 307.584 
L 108.370445 307.584 
L 115.277988 307.584 
L 122.185532 307.584 
L 129.093075 307.584 
L 136.000619 307.584 
L 142.908162 307.584 
L 149.815706 307.584 
L 156.72325 307.584 
L 163.630793 307.584 
L 170.538337 307.584 
L 177.44588 307.584 
L 184.353424 307.584 
L 191.260967 307.584 
L 198.168511 307.584 
L 205.076054 307.584 
L 211.983598 307.584 
L 218.891141 307.584 
L 225.798685 307.584 
L 232.706228 307.584 
L 239.613772 307.584 
L 246.521315 307.584 
L 253.428859 307.584 
L 260.336402 307.584 
L 267.243946 307.584 
L 274.151489 307.584 
L 281.059033 307.584 
L 287.966576 307.584 
L 294.87412 307.584 
L 301.781663 307.584 
L 308.689207 307.584 
L 315.59675 307.584 
L 322.504294 307.584 
L 329.411838 307.584 
L 336.319381 307.584 
L 343.226925 307.584 
L 350.134468 307.584 
L 357.042012 307.584 
L 363.949555 307.584 
L 370.857099 307.584 
L 377.764642 307.584 
L 384.672186 307.584 
L 391.579729 307.584 
L 398.487273 307.584 
L 398.487273 307.584 
L 398.487273 307.584 
L 391.579729 307.584 
L 384.672186 307.584 
L 377.764642 307.584 
L 370.857099 307.584 
L 363.949555 307.584 
L 357.042012 307.584 
L 350.134468 307.584 
L 343.226925 307.584 
L 336.319381 307.584 
L 329.411838 307.584 
L 322.504294 307.584 
L 315.59675 307.584 
L 308.689207 307.584 
L 301.781663 307.584 
L 294.87412 307.584 
L 287.966576 307.584 
L 281.059033 307.584 
L 274.151489 307.584 
L 267.243946 307.584 
L 260.336402 307.584 
L 253.428859 307.584 
L 246.521315 307.584 
L 239.613772 307.584 
L 232.706228 307.584 
L 225.798685 307.584 
L 218.891141 307.584 
L 211.983598 294.612661 
L 205.076054 291.619276 
L 198.168511 289.623685 
L 191.260967 294.612661 
L 184.353424 289.623685 
L 177.44588 288.62589 
L 170.538337 294.612661 
L 163.630793 297.606047 
L 156.72325 290.62148 
L 149.815706 289.623685 
L 142.908162 284.634709 
L 136.000619 296.608252 
L 129.093075 294.612661 
L 122.185532 298.603843 
L 115.277988 298.603843 
L 108.370445 289.623685 
L 101.462901 297.606047 
L 94.555358 292.617071 
L 87.647814 293.614866 
L 80.740271 288.62589 
L 73.832727 186.850772 
z
" style="fill:#1f77b4;"/>
   </g>
   <g id="PolyCollection_2">
    <path clip-path="url(#pb6aa63426d)" d="M 73.832727 185.852976 
L 73.832727 186.850772 
L 80.740271 288.62589 
L 87.647814 293.614866 
L 94.555358 292.617071 
L 101.462901 297.606047 
L 108.370445 289.623685 
L 115.277988 298.603843 
L 122.185532 298.603843 
L 129.093075 294.612661 
L 136.000619 296.608252 
L 142.908162 284.634709 
L 149.815706 289.623685 
L 156.72325 290.62148 
L 163.630793 297.606047 
L 170.538337 294.612661 
L 177.44588 288.62589 
L 184.353424 289.623685 
L 191.260967 294.612661 
L 198.168511 289.623685 
L 205.076054 291.619276 
L 211.983598 294.612661 
L 218.891141 307.584 
L 225.798685 307.584 
L 232.706228 307.584 
L 239.613772 307.584 
L 246.521315 307.584 
L 253.428859 307.584 
L 260.336402 307.584 
L 267.243946 307.584 
L 274.151489 307.584 
L 281.059033 307.584 
L 287.966576 307.584 
L 294.87412 307.584 
L 301.781663 307.584 
L 308.689207 307.584 
L 315.59675 307.584 
L 322.504294 307.584 
L 329.411838 307.584 
L 336.319381 307.584 
L 343.226925 307.584 
L 350.134468 307.584 
L 357.042012 307.584 
L 363.949555 307.584 
L 370.857099 307.584 
L 377.764642 307.584 
L 384.672186 307.584 
L 391.579729 307.584 
L 398.487273 307.584 
L 398.487273 307.584 
L 398.487273 307.584 
L 391.579729 307.584 
L 384.672186 307.584 
L 377.764642 307.584 
L 370.857099 307.584 
L 363.949555 307.584 
L 357.042012 307.584 
L 350.134468 307.584 
L 343.226925 307.584 
L 336.319381 307.584 
L 329.411838 290.62148 
L 322.504294 296.608252 
L 315.59675 295.610457 
L 308.689207 291.619276 
L 301.781663 288.62589 
L 294.87412 297.606047 
L 287.966576 298.603843 
L 281.059033 296.608252 
L 274.151489 297.606047 
L 267.243946 298.603843 
L 260.336402 296.608252 
L 253.428859 295.610457 
L 246.521315 297.606047 
L 239.613772 295.610457 
L 232.706228 296.608252 
L 225.798685 298.603843 
L 218.891141 296.608252 
L 211.983598 285.632504 
L 205.076054 284.634709 
L 198.168511 280.643528 
L 191.260967 283.636913 
L 184.353424 280.643528 
L 177.44588 281.641323 
L 170.538337 290.62148 
L 163.630793 293.614866 
L 156.72325 288.62589 
L 149.815706 287.628094 
L 142.908162 281.641323 
L 136.000619 293.614866 
L 129.093075 291.619276 
L 122.185532 295.610457 
L 115.277988 296.608252 
L 108.370445 287.628094 
L 101.462901 294.612661 
L 94.555358 287.628094 
L 87.647814 289.623685 
L 80.740271 286.630299 
L 73.832727 185.852976 
z
" style="fill:#ff7f0e;"/>
   </g>
   <g id="PolyCollection_3">
    <path clip-path="url(#pb6aa63426d)" d="M 73.832727 182.859591 
L 73.832727 185.852976 
L 80.740271 286.630299 
L 87.647814 289.623685 
L 94.555358 287.628094 
L 101.462901 294.612661 
L 108.370445 287.628094 
L 115.277988 296.608252 
L 122.185532 295.610457 
L 129.093075 291.619276 
L 136.000619 293.614866 
L 142.908162 281.641323 
L 149.815706 287.628094 
L 156.72325 288.62589 
L 163.630793 293.614866 
L 170.538337 290.62148 
L 177.44588 281.641323 
L 184.353424 280.643528 
L 191.260967 283.636913 
L 198.168511 280.643528 
L 205.076054 284.634709 
L 211.983598 285.632504 
L 218.891141 296.608252 
L 225.798685 298.603843 
L 232.706228 296.608252 
L 239.613772 295.610457 
L 246.521315 297.606047 
L 253.428859 295.610457 
L 260.336402 296.608252 
L 267.243946 298.603843 
L 274.151489 297.606047 
L 281.059033 296.608252 
L 287.966576 298.603843 
L 294.87412 297.606047 
L 301.781663 288.62589 
L 308.689207 291.619276 
L 315.59675 295.610457 
L 322.504294 296.608252 
L 329.411838 290.62148 
L 336.319381 307.584 
L 343.226925 307.584 
L 350.134468 307.584 
L 357.042012 307.584 
L 363.949555 307.584 
L 370.857099 307.584 
L 377.764642 307.584 
L 384.672186 307.584 
L 391.579729 307.584 
L 398.487273 307.584 
L 398.487273 307.584 
L 398.487273 307.584 
L 391.579729 307.584 
L 384.672186 307.584 
L 377.764642 307.584 
L 370.857099 307.584 
L 363.949555 307.584 
L 357.042012 307.584 
L 350.134468 307.584 
L 343.226925 307.584 
L 336.319381 307.584 
L 329.411838 290.62148 
L 322.504294 296.608252 
L 315.59675 295.610457 
L 308.689207 291.619276 
L 301.781663 288.62589 
L 294.87412 256.696441 
L 287.966576 261.685417 
L 281.059033 268.669984 
L 274.151489 272.661165 
L 267.243946 275.654551 
L 260.336402 281.641323 
L 253.428859 288.62589 
L 246.521315 283.636913 
L 239.613772 278.647937 
L 232.706228 283.636913 
L 225.798685 285.632504 
L 218.891141 284.634709 
L 211.983598 264.678803 
L 205.076054 241.729512 
L 198.168511 250.709669 
L 191.260967 268.669984 
L 184.353424 255.698646 
L 177.44588 250.709669 
L 170.538337 276.652346 
L 163.630793 241.729512 
L 156.72325 237.738331 
L 149.815706 261.685417 
L 142.908162 253.703055 
L 136.000619 270.665575 
L 129.093075 267.672189 
L 122.185532 274.656756 
L 115.277988 287.628094 
L 108.370445 283.636913 
L 101.462901 289.623685 
L 94.555358 283.636913 
L 87.647814 284.634709 
L 80.740271 284.634709 
L 73.832727 182.859591 
z
" style="fill:#2ca02c;"/>
   </g>
   <g id="PolyCollection_4">
    <path clip-path="url(#pb6aa63426d)" d="M 73.832727 160.908094 
L 73.832727 182.859591 
L 80.740271 284.634709 
L 87.647814 284.634709 
L 94.555358 283.636913 
L 101.462901 289.623685 
L 108.370445 283.636913 
L 115.277988 287.628094 
L 122.185532 274.656756 
L 129.093075 267.672189 
L 136.000619 270.665575 
L 142.908162 253.703055 
L 149.815706 261.685417 
L 156.72325 237.738331 
L 163.630793 241.729512 
L 170.538337 276.652346 
L 177.44588 250.709669 
L 184.353424 255.698646 
L 191.260967 268.669984 
L 198.168511 250.709669 
L 205.076054 241.729512 
L 211.983598 264.678803 
L 218.891141 284.634709 
L 225.798685 285.632504 
L 232.706228 283.636913 
L 239.613772 278.647937 
L 246.521315 283.636913 
L 253.428859 288.62589 
L 260.336402 281.641323 
L 267.243946 275.654551 
L 274.151489 272.661165 
L 281.059033 268.669984 
L 287.966576 261.685417 
L 294.87412 256.696441 
L 301.781663 288.62589 
L 308.689207 291.619276 
L 315.59675 295.610457 
L 322.504294 296.608252 
L 329.411838 290.62148 
L 336.319381 307.584 
L 343.226925 307.584 
L 350.134468 307.584 
L 357.042012 307.584 
L 363.949555 307.584 
L 370.857099 307.584 
L 377.764642 307.584 
L 384.672186 307.584 
L 391.579729 307.584 
L 398.487273 307.584 
L 398.487273 286.630299 
L 398.487273 286.630299 
L 391.579729 299.601638 
L 384.672186 282.639118 
L 377.764642 280.643528 
L 370.857099 265.676598 
L 363.949555 289.623685 
L 357.042012 286.630299 
L 350.134468 275.654551 
L 343.226925 277.650142 
L 336.319381 284.634709 
L 329.411838 271.66337 
L 322.504294 271.66337 
L 315.59675 278.647937 
L 308.689207 274.656756 
L 301.781663 273.658961 
L 294.87412 237.738331 
L 287.966576 248.714079 
L 281.059033 258.692031 
L 274.151489 260.687622 
L 267.243946 265.676598 
L 260.336402 267.672189 
L 253.428859 271.66337 
L 246.521315 273.658961 
L 239.613772 256.696441 
L 232.706228 263.681008 
L 225.798685 266.674394 
L 218.891141 270.665575 
L 211.983598 250.709669 
L 205.076054 227.760378 
L 198.168511 236.740535 
L 191.260967 243.725102 
L 184.353424 234.744945 
L 177.44588 239.733921 
L 170.538337 258.692031 
L 163.630793 220.775811 
L 156.72325 203.813291 
L 149.815706 213.791244 
L 142.908162 217.782425 
L 136.000619 258.692031 
L 129.093075 247.716283 
L 122.185532 256.696441 
L 115.277988 231.751559 
L 108.370445 258.692031 
L 101.462901 253.703055 
L 94.555358 256.696441 
L 87.647814 256.696441 
L 80.740271 259.689827 
L 73.832727 160.908094 
z
" style="fill:#d62728;"/>
   </g>
   <g id="PolyCollection_5">
    <path clip-path="url(#pb6aa63426d)" d="M 73.832727 117.005102 
L 73.832727 160.908094 
L 80.740271 259.689827 
L 87.647814 256.696441 
L 94.555358 256.696441 
L 101.462901 253.703055 
L 108.370445 258.692031 
L 115.277988 231.751559 
L 122.185532 256.696441 
L 129.093075 247.716283 
L 136.000619 258.692031 
L 142.908162 217.782425 
L 149.815706 213.791244 
L 156.72325 203.813291 
L 163.630793 220.775811 
L 170.538337 258.692031 
L 177.44588 239.733921 
L 184.353424 234.744945 
L 191.260967 243.725102 
L 198.168511 236.740535 
L 205.076054 227.760378 
L 211.983598 250.709669 
L 218.891141 270.665575 
L 225.798685 266.674394 
L 232.706228 263.681008 
L 239.613772 256.696441 
L 246.521315 273.658961 
L 253.428859 271.66337 
L 260.336402 267.672189 
L 267.243946 265.676598 
L 274.151489 260.687622 
L 281.059033 258.692031 
L 287.966576 248.714079 
L 294.87412 237.738331 
L 301.781663 273.658961 
L 308.689207 274.656756 
L 315.59675 278.647937 
L 322.504294 271.66337 
L 329.411838 271.66337 
L 336.319381 284.634709 
L 343.226925 277.650142 
L 350.134468 275.654551 
L 357.042012 286.630299 
L 363.949555 289.623685 
L 370.857099 265.676598 
L 377.764642 280.643528 
L 384.672186 282.639118 
L 391.579729 299.601638 
L 398.487273 286.630299 
L 398.487273 275.654551 
L 398.487273 275.654551 
L 391.579729 280.643528 
L 384.672186 272.661165 
L 377.764642 272.661165 
L 370.857099 242.727307 
L 363.949555 277.650142 
L 357.042012 274.656756 
L 350.134468 263.681008 
L 343.226925 264.678803 
L 336.319381 278.647937 
L 329.411838 257.694236 
L 322.504294 255.698646 
L 315.59675 267.672189 
L 308.689207 244.722898 
L 301.781663 259.689827 
L 294.87412 221.773606 
L 287.966576 230.753764 
L 281.059033 246.718488 
L 274.151489 232.749354 
L 267.243946 254.70085 
L 260.336402 250.709669 
L 253.428859 257.694236 
L 246.521315 268.669984 
L 239.613772 245.720693 
L 232.706228 255.698646 
L 225.798685 249.711874 
L 218.891141 253.703055 
L 211.983598 237.738331 
L 205.076054 209.800063 
L 198.168511 222.771402 
L 191.260967 234.744945 
L 184.353424 227.760378 
L 177.44588 232.749354 
L 170.538337 243.725102 
L 163.630793 191.839748 
L 156.72325 172.881638 
L 149.815706 183.857386 
L 142.908162 184.855181 
L 136.000619 226.762583 
L 129.093075 232.749354 
L 122.185532 250.709669 
L 115.277988 227.760378 
L 108.370445 232.749354 
L 101.462901 237.738331 
L 94.555358 223.769197 
L 87.647814 235.74274 
L 80.740271 241.729512 
L 73.832727 117.005102 
z
" style="fill:#9467bd;"/>
   </g>
   <g id="PolyCollection_6">
    <path clip-path="url(#pb6aa63426d)" d="M 73.832727 108.024945 
L 73.832727 117.005102 
L 80.740271 241.729512 
L 87.647814 235.74274 
L 94.555358 223.769197 
L 101.462901 237.738331 
L 108.370445 232.749354 
L 115.277988 227.760378 
L 122.185532 250.709669 
L 129.093075 232.749354 
L 136.000619 226.762583 
L 142.908162 184.855181 
L 149.815706 183.857386 
L 156.72325 172.881638 
L 163.630793 191.839748 
L 170.538337 243.725102 
L 177.44588 232.749354 
L 184.353424 227.760378 
L 191.260967 234.744945 
L 198.168511 222.771402 
L 205.076054 209.800063 
L 211.983598 237.738331 
L 218.891141 253.703055 
L 225.798685 249.711874 
L 232.706228 255.698646 
L 239.613772 245.720693 
L 246.521315 268.669984 
L 253.428859 257.694236 
L 260.336402 250.709669 
L 267.243946 254.70085 
L 274.151489 232.749354 
L 281.059033 246.718488 
L 287.966576 230.753764 
L 294.87412 221.773606 
L 301.781663 259.689827 
L 308.689207 244.722898 
L 315.59675 267.672189 
L 322.504294 255.698646 
L 329.411838 257.694236 
L 336.319381 278.647937 
L 343.226925 264.678803 
L 350.134468 263.681008 
L 357.042012 274.656756 
L 363.949555 277.650142 
L 370.857099 242.727307 
L 377.764642 272.661165 
L 384.672186 272.661165 
L 391.579729 280.643528 
L 398.487273 275.654551 
L 398.487273 275.654551 
L 398.487273 275.654551 
L 391.579729 280.643528 
L 384.672186 272.661165 
L 377.764642 272.661165 
L 370.857099 242.727307 
L 363.949555 277.650142 
L 357.042012 274.656756 
L 350.134468 263.681008 
L 343.226925 264.678803 
L 336.319381 278.647937 
L 329.411838 257.694236 
L 322.504294 255.698646 
L 315.59675 267.672189 
L 308.689207 244.722898 
L 301.781663 259.689827 
L 294.87412 221.773606 
L 287.966576 230.753764 
L 281.059033 229.755969 
L 274.151489 217.782425 
L 267.243946 208.802268 
L 260.336402 202.815496 
L 253.428859 223.769197 
L 246.521315 245.720693 
L 239.613772 238.736126 
L 232.706228 243.725102 
L 225.798685 221.773606 
L 218.891141 223.769197 
L 211.983598 220.775811 
L 205.076054 181.861795 
L 198.168511 199.82211 
L 191.260967 197.82652 
L 184.353424 218.78022 
L 177.44588 218.78022 
L 170.538337 231.751559 
L 163.630793 174.877228 
L 156.72325 156.916913 
L 149.815706 175.875024 
L 142.908162 161.90589 
L 136.000619 203.813291 
L 129.093075 217.782425 
L 122.185532 209.800063 
L 115.277988 202.815496 
L 108.370445 173.879433 
L 101.462901 208.802268 
L 94.555358 208.802268 
L 87.647814 217.782425 
L 80.740271 227.760378 
L 73.832727 108.024945 
z
" style="fill:#8c564b;"/>
   </g>
   <g id="PolyCollection_7">
    <path clip-path="url(#pb6aa63426d)" d="M 73.832727 107.02715 
L 73.832727 108.024945 
L 80.740271 227.760378 
L 87.647814 217.782425 
L 94.555358 208.802268 
L 101.462901 208.802268 
L 108.370445 173.879433 
L 115.277988 202.815496 
L 122.185532 209.800063 
L 129.093075 217.782425 
L 136.000619 203.813291 
L 142.908162 161.90589 
L 149.815706 175.875024 
L 156.72325 156.916913 
L 163.630793 174.877228 
L 170.538337 231.751559 
L 177.44588 218.78022 
L 184.353424 218.78022 
L 191.260967 197.82652 
L 198.168511 199.82211 
L 205.076054 181.861795 
L 211.983598 220.775811 
L 218.891141 223.769197 
L 225.798685 221.773606 
L 232.706228 243.725102 
L 239.613772 238.736126 
L 246.521315 245.720693 
L 253.428859 223.769197 
L 260.336402 202.815496 
L 267.243946 208.802268 
L 274.151489 217.782425 
L 281.059033 229.755969 
L 287.966576 230.753764 
L 294.87412 221.773606 
L 301.781663 259.689827 
L 308.689207 244.722898 
L 315.59675 267.672189 
L 322.504294 255.698646 
L 329.411838 257.694236 
L 336.319381 278.647937 
L 343.226925 264.678803 
L 350.134468 263.681008 
L 357.042012 274.656756 
L 363.949555 277.650142 
L 370.857099 242.727307 
L 377.764642 272.661165 
L 384.672186 272.661165 
L 391.579729 280.643528 
L 398.487273 275.654551 
L 398.487273 275.654551 
L 398.487273 275.654551 
L 391.579729 280.643528 
L 384.672186 272.661165 
L 377.764642 272.661165 
L 370.857099 242.727307 
L 363.949555 277.650142 
L 357.042012 274.656756 
L 350.134468 263.681008 
L 343.226925 264.678803 
L 336.319381 278.647937 
L 329.411838 257.694236 
L 322.504294 255.698646 
L 315.59675 267.672189 
L 308.689207 244.722898 
L 301.781663 259.689827 
L 294.87412 218.78022 
L 287.966576 228.758173 
L 281.059033 227.760378 
L 274.151489 214.789039 
L 267.243946 204.811087 
L 260.336402 199.82211 
L 253.428859 221.773606 
L 246.521315 243.725102 
L 239.613772 236.740535 
L 232.706228 241.729512 
L 225.798685 219.778016 
L 218.891141 220.775811 
L 211.983598 218.78022 
L 205.076054 179.866205 
L 198.168511 196.828724 
L 191.260967 193.835339 
L 184.353424 215.786835 
L 177.44588 214.789039 
L 170.538337 226.762583 
L 163.630793 170.886047 
L 156.72325 154.921323 
L 149.815706 173.879433 
L 142.908162 158.912504 
L 136.000619 201.817701 
L 129.093075 214.789039 
L 122.185532 204.811087 
L 115.277988 198.824315 
L 108.370445 169.888252 
L 101.462901 204.811087 
L 94.555358 203.813291 
L 87.647814 212.793449 
L 80.740271 223.769197 
L 73.832727 107.02715 
z
" style="fill:#e377c2;"/>
   </g>
   <g id="PolyCollection_8">
    <path clip-path="url(#pb6aa63426d)" d="M 73.832727 91.062425 
L 73.832727 107.02715 
L 80.740271 223.769197 
L 87.647814 212.793449 
L 94.555358 203.813291 
L 101.462901 204.811087 
L 108.370445 169.888252 
L 115.277988 198.824315 
L 122.185532 204.811087 
L 129.093075 214.789039 
L 136.000619 201.817701 
L 142.908162 158.912504 
L 149.815706 173.879433 
L 156.72325 154.921323 
L 163.630793 170.886047 
L 170.538337 226.762583 
L 177.44588 214.789039 
L 184.353424 215.786835 
L 191.260967 193.835339 
L 198.168511 196.828724 
L 205.076054 179.866205 
L 211.983598 218.78022 
L 218.891141 220.775811 
L 225.798685 219.778016 
L 232.706228 241.729512 
L 239.613772 236.740535 
L 246.521315 243.725102 
L 253.428859 221.773606 
L 260.336402 199.82211 
L 267.243946 204.811087 
L 274.151489 214.789039 
L 281.059033 227.760378 
L 287.966576 228.758173 
L 294.87412 218.78022 
L 301.781663 259.689827 
L 308.689207 244.722898 
L 315.59675 267.672189 
L 322.504294 255.698646 
L 329.411838 257.694236 
L 336.319381 278.647937 
L 343.226925 264.678803 
L 350.134468 263.681008 
L 357.042012 274.656756 
L 363.949555 277.650142 
L 370.857099 242.727307 
L 377.764642 272.661165 
L 384.672186 272.661165 
L 391.579729 280.643528 
L 398.487273 275.654551 
L 398.487273 275.654551 
L 398.487273 275.654551 
L 391.579729 280.643528 
L 384.672186 272.661165 
L 377.764642 272.661165 
L 370.857099 242.727307 
L 363.949555 277.650142 
L 357.042012 274.656756 
L 350.134468 263.681008 
L 343.226925 264.678803 
L 336.319381 278.647937 
L 329.411838 237.738331 
L 322.504294 230.753764 
L 315.59675 241.729512 
L 308.689207 224.766992 
L 301.781663 248.714079 
L 294.87412 204.811087 
L 287.966576 213.791244 
L 281.059033 205.808882 
L 274.151489 201.817701 
L 267.243946 174.877228 
L 260.336402 178.868409 
L 253.428859 206.806677 
L 246.521315 214.789039 
L 239.613772 218.78022 
L 232.706228 215.786835 
L 225.798685 196.828724 
L 218.891141 197.82652 
L 211.983598 197.82652 
L 205.076054 168.890457 
L 198.168511 167.892661 
L 191.260967 166.894866 
L 184.353424 185.852976 
L 177.44588 188.846362 
L 170.538337 197.82652 
L 163.630793 165.897071 
L 156.72325 153.923528 
L 149.815706 169.888252 
L 142.908162 150.930142 
L 136.000619 183.857386 
L 129.093075 189.844157 
L 122.185532 178.868409 
L 115.277988 174.877228 
L 108.370445 151.927937 
L 101.462901 186.850772 
L 94.555358 181.861795 
L 87.647814 184.855181 
L 80.740271 163.90148 
L 73.832727 91.062425 
z
" style="fill:#7f7f7f;"/>
   </g>
   <g id="PolyCollection_9">
    <path clip-path="url(#pb6aa63426d)" d="M 73.832727 90.06463 
L 73.832727 91.062425 
L 80.740271 163.90148 
L 87.647814 184.855181 
L 94.555358 181.861795 
L 101.462901 186.850772 
L 108.370445 151.927937 
L 115.277988 174.877228 
L 122.185532 178.868409 
L 129.093075 189.844157 
L 136.000619 183.857386 
L 142.908162 150.930142 
L 149.815706 169.888252 
L 156.72325 153.923528 
L 163.630793 165.897071 
L 170.538337 197.82652 
L 177.44588 188.846362 
L 184.353424 185.852976 
L 191.260967 166.894866 
L 198.168511 167.892661 
L 205.076054 168.890457 
L 211.983598 197.82652 
L 218.891141 197.82652 
L 225.798685 196.828724 
L 232.706228 215.786835 
L 239.613772 218.78022 
L 246.521315 214.789039 
L 253.428859 206.806677 
L 260.336402 178.868409 
L 267.243946 174.877228 
L 274.151489 201.817701 
L 281.059033 205.808882 
L 287.966576 213.791244 
L 294.87412 204.811087 
L 301.781663 248.714079 
L 308.689207 224.766992 
L 315.59675 241.729512 
L 322.504294 230.753764 
L 329.411838 237.738331 
L 336.319381 278.647937 
L 343.226925 264.678803 
L 350.134468 263.681008 
L 357.042012 274.656756 
L 363.949555 277.650142 
L 370.857099 242.727307 
L 377.764642 272.661165 
L 384.672186 272.661165 
L 391.579729 280.643528 
L 398.487273 275.654551 
L 398.487273 275.654551 
L 398.487273 275.654551 
L 391.579729 280.643528 
L 384.672186 272.661165 
L 377.764642 272.661165 
L 370.857099 242.727307 
L 363.949555 277.650142 
L 357.042012 274.656756 
L 350.134468 263.681008 
L 343.226925 264.678803 
L 336.319381 278.647937 
L 329.411838 237.738331 
L 322.504294 230.753764 
L 315.59675 241.729512 
L 308.689207 224.766992 
L 301.781663 248.714079 
L 294.87412 204.811087 
L 287.966576 213.791244 
L 281.059033 205.808882 
L 274.151489 201.817701 
L 267.243946 174.877228 
L 260.336402 178.868409 
L 253.428859 203.813291 
L 246.521315 212.793449 
L 239.613772 215.786835 
L 232.706228 213.791244 
L 225.798685 194.833134 
L 218.891141 195.830929 
L 211.983598 195.830929 
L 205.076054 165.897071 
L 198.168511 165.897071 
L 191.260967 164.899276 
L 184.353424 183.857386 
L 177.44588 185.852976 
L 170.538337 193.835339 
L 163.630793 162.903685 
L 156.72325 149.932346 
L 149.815706 166.894866 
L 142.908162 146.938961 
L 136.000619 179.866205 
L 129.093075 185.852976 
L 122.185532 173.879433 
L 115.277988 170.886047 
L 108.370445 148.934551 
L 101.462901 182.859591 
L 94.555358 177.870614 
L 87.647814 182.859591 
L 80.740271 162.903685 
L 73.832727 90.06463 
z
" style="fill:#bcbd22;"/>
   </g>
   <g id="PolyCollection_10">
    <path clip-path="url(#pb6aa63426d)" d="M 73.832727 89.066835 
L 73.832727 90.06463 
L 80.740271 162.903685 
L 87.647814 182.859591 
L 94.555358 177.870614 
L 101.462901 182.859591 
L 108.370445 148.934551 
L 115.277988 170.886047 
L 122.185532 173.879433 
L 129.093075 185.852976 
L 136.000619 179.866205 
L 142.908162 146.938961 
L 149.815706 166.894866 
L 156.72325 149.932346 
L 163.630793 162.903685 
L 170.538337 193.835339 
L 177.44588 185.852976 
L 184.353424 183.857386 
L 191.260967 164.899276 
L 198.168511 165.897071 
L 205.076054 165.897071 
L 211.983598 195.830929 
L 218.891141 195.830929 
L 225.798685 194.833134 
L 232.706228 213.791244 
L 239.613772 215.786835 
L 246.521315 212.793449 
L 253.428859 203.813291 
L 260.336402 178.868409 
L 267.243946 174.877228 
L 274.151489 201.817701 
L 281.059033 205.808882 
L 287.966576 213.791244 
L 294.87412 204.811087 
L 301.781663 248.714079 
L 308.689207 224.766992 
L 315.59675 241.729512 
L 322.504294 230.753764 
L 329.411838 237.738331 
L 336.319381 278.647937 
L 343.226925 264.678803 
L 350.134468 263.681008 
L 357.042012 274.656756 
L 363.949555 277.650142 
L 370.857099 242.727307 
L 377.764642 272.661165 
L 384.672186 272.661165 
L 391.579729 280.643528 
L 398.487273 275.654551 
L 398.487273 264.678803 
L 398.487273 264.678803 
L 391.579729 270.665575 
L 384.672186 260.687622 
L 377.764642 259.689827 
L 370.857099 230.753764 
L 363.949555 263.681008 
L 357.042012 259.689827 
L 350.134468 250.709669 
L 343.226925 252.70526 
L 336.319381 263.681008 
L 329.411838 222.771402 
L 322.504294 216.78463 
L 315.59675 227.760378 
L 308.689207 211.795654 
L 301.781663 234.744945 
L 294.87412 189.844157 
L 287.966576 198.824315 
L 281.059033 192.837543 
L 274.151489 184.855181 
L 267.243946 159.910299 
L 260.336402 165.897071 
L 253.428859 189.844157 
L 246.521315 199.82211 
L 239.613772 203.813291 
L 232.706228 202.815496 
L 225.798685 184.855181 
L 218.891141 183.857386 
L 211.983598 182.859591 
L 205.076054 153.923528 
L 198.168511 153.923528 
L 191.260967 151.927937 
L 184.353424 162.903685 
L 177.44588 169.888252 
L 170.538337 178.868409 
L 163.630793 148.934551 
L 156.72325 136.961008 
L 149.815706 152.925732 
L 142.908162 134.965417 
L 136.000619 167.892661 
L 129.093075 176.872819 
L 122.185532 166.894866 
L 115.277988 164.899276 
L 108.370445 144.94337 
L 101.462901 177.870614 
L 94.555358 172.881638 
L 87.647814 176.872819 
L 80.740271 159.910299 
L 73.832727 89.066835 
z
" style="fill:#17becf;"/>
   </g>
   <g id="PolyCollection_11">
    <path clip-path="url(#pb6aa63426d)" d="M 73.832727 88.069039 
L 73.832727 89.066835 
L 80.740271 159.910299 
L 87.647814 176.872819 
L 94.555358 172.881638 
L 101.462901 177.870614 
L 108.370445 144.94337 
L 115.277988 164.899276 
L 122.185532 166.894866 
L 129.093075 176.872819 
L 136.000619 167.892661 
L 142.908162 134.965417 
L 149.815706 152.925732 
L 156.72325 136.961008 
L 163.630793 148.934551 
L 170.538337 178.868409 
L 177.44588 169.888252 
L 184.353424 162.903685 
L 191.260967 151.927937 
L 198.168511 153.923528 
L 205.076054 153.923528 
L 211.983598 182.859591 
L 218.891141 183.857386 
L 225.798685 184.855181 
L 232.706228 202.815496 
L 239.613772 203.813291 
L 246.521315 199.82211 
L 253.428859 189.844157 
L 260.336402 165.897071 
L 267.243946 159.910299 
L 274.151489 184.855181 
L 281.059033 192.837543 
L 287.966576 198.824315 
L 294.87412 189.844157 
L 301.781663 234.744945 
L 308.689207 211.795654 
L 315.59675 227.760378 
L 322.504294 216.78463 
L 329.411838 222.771402 
L 336.319381 263.681008 
L 343.226925 252.70526 
L 350.134468 250.709669 
L 357.042012 259.689827 
L 363.949555 263.681008 
L 370.857099 230.753764 
L 377.764642 259.689827 
L 384.672186 260.687622 
L 391.579729 270.665575 
L 398.487273 264.678803 
L 398.487273 241.729512 
L 398.487273 241.729512 
L 391.579729 259.689827 
L 384.672186 247.716283 
L 377.764642 200.819906 
L 370.857099 172.881638 
L 363.949555 204.811087 
L 357.042012 214.789039 
L 350.134468 176.872819 
L 343.226925 233.74715 
L 336.319381 242.727307 
L 329.411838 199.82211 
L 322.504294 192.837543 
L 315.59675 203.813291 
L 308.689207 197.82652 
L 301.781663 213.791244 
L 294.87412 174.877228 
L 287.966576 181.861795 
L 281.059033 165.897071 
L 274.151489 171.883843 
L 267.243946 144.94337 
L 260.336402 147.936756 
L 253.428859 173.879433 
L 246.521315 181.861795 
L 239.613772 190.841953 
L 232.706228 185.852976 
L 225.798685 169.888252 
L 218.891141 167.892661 
L 211.983598 170.886047 
L 205.076054 143.945575 
L 198.168511 144.94337 
L 191.260967 144.94337 
L 184.353424 156.916913 
L 177.44588 164.899276 
L 170.538337 172.881638 
L 163.630793 143.945575 
L 156.72325 132.969827 
L 149.815706 149.932346 
L 142.908162 130.974236 
L 136.000619 164.899276 
L 129.093075 172.881638 
L 122.185532 162.903685 
L 115.277988 159.910299 
L 108.370445 139.954394 
L 101.462901 173.879433 
L 94.555358 167.892661 
L 87.647814 172.881638 
L 80.740271 155.919118 
L 73.832727 88.069039 
z
" style="fill:#1f77b4;"/>
   </g>
   <g id="PolyCollection_12">
    <path clip-path="url(#pb6aa63426d)" d="M 73.832727 86.073449 
L 73.832727 88.069039 
L 80.740271 155.919118 
L 87.647814 172.881638 
L 94.555358 167.892661 
L 101.462901 173.879433 
L 108.370445 139.954394 
L 115.277988 159.910299 
L 122.185532 162.903685 
L 129.093075 172.881638 
L 136.000619 164.899276 
L 142.908162 130.974236 
L 149.815706 149.932346 
L 156.72325 132.969827 
L 163.630793 143.945575 
L 170.538337 172.881638 
L 177.44588 164.899276 
L 184.353424 156.916913 
L 191.260967 144.94337 
L 198.168511 144.94337 
L 205.076054 143.945575 
L 211.983598 170.886047 
L 218.891141 167.892661 
L 225.798685 169.888252 
L 232.706228 185.852976 
L 239.613772 190.841953 
L 246.521315 181.861795 
L 253.428859 173.879433 
L 260.336402 147.936756 
L 267.243946 144.94337 
L 274.151489 171.883843 
L 281.059033 165.897071 
L 287.966576 181.861795 
L 294.87412 174.877228 
L 301.781663 213.791244 
L 308.689207 197.82652 
L 315.59675 203.813291 
L 322.504294 192.837543 
L 329.411838 199.82211 
L 336.319381 242.727307 
L 343.226925 233.74715 
L 350.134468 176.872819 
L 357.042012 214.789039 
L 363.949555 204.811087 
L 370.857099 172.881638 
L 377.764642 200.819906 
L 384.672186 247.716283 
L 391.579729 259.689827 
L 398.487273 241.729512 
L 398.487273 214.789039 
L 398.487273 214.789039 
L 391.579729 241.729512 
L 384.672186 212.793449 
L 377.764642 170.886047 
L 370.857099 145.941165 
L 363.949555 170.886047 
L 357.042012 170.886047 
L 350.134468 148.934551 
L 343.226925 190.841953 
L 336.319381 222.771402 
L 329.411838 188.846362 
L 322.504294 186.850772 
L 315.59675 197.82652 
L 308.689207 190.841953 
L 301.781663 202.815496 
L 294.87412 165.897071 
L 287.966576 166.894866 
L 281.059033 154.921323 
L 274.151489 153.923528 
L 267.243946 136.961008 
L 260.336402 135.963213 
L 253.428859 162.903685 
L 246.521315 169.888252 
L 239.613772 176.872819 
L 232.706228 171.883843 
L 225.798685 154.921323 
L 218.891141 153.923528 
L 211.983598 156.916913 
L 205.076054 130.974236 
L 198.168511 131.972031 
L 191.260967 129.976441 
L 184.353424 145.941165 
L 177.44588 161.90589 
L 170.538337 168.890457 
L 163.630793 141.949984 
L 156.72325 129.976441 
L 149.815706 147.936756 
L 142.908162 127.98085 
L 136.000619 159.910299 
L 129.093075 169.888252 
L 122.185532 158.912504 
L 115.277988 154.921323 
L 108.370445 135.963213 
L 101.462901 169.888252 
L 94.555358 162.903685 
L 87.647814 168.890457 
L 80.740271 153.923528 
L 73.832727 86.073449 
z
" style="fill:#ff7f0e;"/>
   </g>
   <g id="PolyCollection_13">
    <path clip-path="url(#pb6aa63426d)" d="M 73.832727 75.097701 
L 73.832727 86.073449 
L 80.740271 153.923528 
L 87.647814 168.890457 
L 94.555358 162.903685 
L 101.462901 169.888252 
L 108.370445 135.963213 
L 115.277988 154.921323 
L 122.185532 158.912504 
L 129.093075 169.888252 
L 136.000619 159.910299 
L 142.908162 127.98085 
L 149.815706 147.936756 
L 156.72325 129.976441 
L 163.630793 141.949984 
L 170.538337 168.890457 
L 177.44588 161.90589 
L 184.353424 145.941165 
L 191.260967 129.976441 
L 198.168511 131.972031 
L 205.076054 130.974236 
L 211.983598 156.916913 
L 218.891141 153.923528 
L 225.798685 154.921323 
L 232.706228 171.883843 
L 239.613772 176.872819 
L 246.521315 169.888252 
L 253.428859 162.903685 
L 260.336402 135.963213 
L 267.243946 136.961008 
L 274.151489 153.923528 
L 281.059033 154.921323 
L 287.966576 166.894866 
L 294.87412 165.897071 
L 301.781663 202.815496 
L 308.689207 190.841953 
L 315.59675 197.82652 
L 322.504294 186.850772 
L 329.411838 188.846362 
L 336.319381 222.771402 
L 343.226925 190.841953 
L 350.134468 148.934551 
L 357.042012 170.886047 
L 363.949555 170.886047 
L 370.857099 145.941165 
L 377.764642 170.886047 
L 384.672186 212.793449 
L 391.579729 241.729512 
L 398.487273 214.789039 
L 398.487273 214.789039 
L 398.487273 214.789039 
L 391.579729 241.729512 
L 384.672186 212.793449 
L 377.764642 170.886047 
L 370.857099 145.941165 
L 363.949555 170.886047 
L 357.042012 170.886047 
L 350.134468 148.934551 
L 343.226925 190.841953 
L 336.319381 222.771402 
L 329.411838 188.846362 
L 322.504294 186.850772 
L 315.59675 197.82652 
L 308.689207 190.841953 
L 301.781663 202.815496 
L 294.87412 165.897071 
L 287.966576 166.894866 
L 281.059033 154.921323 
L 274.151489 153.923528 
L 267.243946 136.961008 
L 260.336402 135.963213 
L 253.428859 162.903685 
L 246.521315 169.888252 
L 239.613772 162.903685 
L 232.706228 159.910299 
L 225.798685 143.945575 
L 218.891141 142.94778 
L 211.983598 146.938961 
L 205.076054 120.996283 
L 198.168511 124.987465 
L 191.260967 107.02715 
L 184.353424 118.002898 
L 177.44588 132.969827 
L 170.538337 132.969827 
L 163.630793 111.018331 
L 156.72325 108.024945 
L 149.815706 110.020535 
L 142.908162 108.024945 
L 136.000619 120.996283 
L 129.093075 130.974236 
L 122.185532 109.02274 
L 115.277988 126.983055 
L 108.370445 104.033764 
L 101.462901 133.967622 
L 94.555358 121.994079 
L 87.647814 120.996283 
L 80.740271 122.991874 
L 73.832727 75.097701 
z
" style="fill:#2ca02c;"/>
   </g>
   <g id="PolyCollection_14">
    <path clip-path="url(#pb6aa63426d)" d="M 73.832727 71.10652 
L 73.832727 75.097701 
L 80.740271 122.991874 
L 87.647814 120.996283 
L 94.555358 121.994079 
L 101.462901 133.967622 
L 108.370445 104.033764 
L 115.277988 126.983055 
L 122.185532 109.02274 
L 129.093075 130.974236 
L 136.000619 120.996283 
L 142.908162 108.024945 
L 149.815706 110.020535 
L 156.72325 108.024945 
L 163.630793 111.018331 
L 170.538337 132.969827 
L 177.44588 132.969827 
L 184.353424 118.002898 
L 191.260967 107.02715 
L 198.168511 124.987465 
L 205.076054 120.996283 
L 211.983598 146.938961 
L 218.891141 142.94778 
L 225.798685 143.945575 
L 232.706228 159.910299 
L 239.613772 162.903685 
L 246.521315 169.888252 
L 253.428859 162.903685 
L 260.336402 135.963213 
L 267.243946 136.961008 
L 274.151489 153.923528 
L 281.059033 154.921323 
L 287.966576 166.894866 
L 294.87412 165.897071 
L 301.781663 202.815496 
L 308.689207 190.841953 
L 315.59675 197.82652 
L 322.504294 186.850772 
L 329.411838 188.846362 
L 336.319381 222.771402 
L 343.226925 190.841953 
L 350.134468 148.934551 
L 357.042012 170.886047 
L 363.949555 170.886047 
L 370.857099 145.941165 
L 377.764642 170.886047 
L 384.672186 212.793449 
L 391.579729 241.729512 
L 398.487273 214.789039 
L 398.487273 214.789039 
L 398.487273 214.789039 
L 391.579729 241.729512 
L 384.672186 212.793449 
L 377.764642 170.886047 
L 370.857099 145.941165 
L 363.949555 170.886047 
L 357.042012 170.886047 
L 350.134468 148.934551 
L 343.226925 190.841953 
L 336.319381 222.771402 
L 329.411838 188.846362 
L 322.504294 186.850772 
L 315.59675 197.82652 
L 308.689207 190.841953 
L 301.781663 202.815496 
L 294.87412 165.897071 
L 287.966576 166.894866 
L 281.059033 152.925732 
L 274.151489 151.927937 
L 267.243946 133.967622 
L 260.336402 133.967622 
L 253.428859 160.908094 
L 246.521315 167.892661 
L 239.613772 161.90589 
L 232.706228 156.916913 
L 225.798685 140.952189 
L 218.891141 140.952189 
L 211.983598 144.94337 
L 205.076054 119.000693 
L 198.168511 122.991874 
L 191.260967 104.033764 
L 184.353424 116.007307 
L 177.44588 131.972031 
L 170.538337 129.976441 
L 163.630793 108.024945 
L 156.72325 104.033764 
L 149.815706 107.02715 
L 142.908162 106.029354 
L 136.000619 117.005102 
L 129.093075 127.98085 
L 122.185532 105.031559 
L 115.277988 121.994079 
L 108.370445 100.042583 
L 101.462901 130.974236 
L 94.555358 118.002898 
L 87.647814 118.002898 
L 80.740271 119.000693 
L 73.832727 71.10652 
z
" style="fill:#d62728;"/>
   </g>
   <g id="PolyCollection_15">
    <path clip-path="url(#pb6aa63426d)" d="M 73.832727 70.108724 
L 73.832727 71.10652 
L 80.740271 119.000693 
L 87.647814 118.002898 
L 94.555358 118.002898 
L 101.462901 130.974236 
L 108.370445 100.042583 
L 115.277988 121.994079 
L 122.185532 105.031559 
L 129.093075 127.98085 
L 136.000619 117.005102 
L 142.908162 106.029354 
L 149.815706 107.02715 
L 156.72325 104.033764 
L 163.630793 108.024945 
L 170.538337 129.976441 
L 177.44588 131.972031 
L 184.353424 116.007307 
L 191.260967 104.033764 
L 198.168511 122.991874 
L 205.076054 119.000693 
L 211.983598 144.94337 
L 218.891141 140.952189 
L 225.798685 140.952189 
L 232.706228 156.916913 
L 239.613772 161.90589 
L 246.521315 167.892661 
L 253.428859 160.908094 
L 260.336402 133.967622 
L 267.243946 133.967622 
L 274.151489 151.927937 
L 281.059033 152.925732 
L 287.966576 166.894866 
L 294.87412 165.897071 
L 301.781663 202.815496 
L 308.689207 190.841953 
L 315.59675 197.82652 
L 322.504294 186.850772 
L 329.411838 188.846362 
L 336.319381 222.771402 
L 343.226925 190.841953 
L 350.134468 148.934551 
L 357.042012 170.886047 
L 363.949555 170.886047 
L 370.857099 145.941165 
L 377.764642 170.886047 
L 384.672186 212.793449 
L 391.579729 241.729512 
L 398.487273 214.789039 
L 398.487273 214.789039 
L 398.487273 214.789039 
L 391.579729 241.729512 
L 384.672186 212.793449 
L 377.764642 170.886047 
L 370.857099 145.941165 
L 363.949555 170.886047 
L 357.042012 170.886047 
L 350.134468 148.934551 
L 343.226925 190.841953 
L 336.319381 222.771402 
L 329.411838 188.846362 
L 322.504294 186.850772 
L 315.59675 197.82652 
L 308.689207 190.841953 
L 301.781663 202.815496 
L 294.87412 165.897071 
L 287.966576 166.894866 
L 281.059033 152.925732 
L 274.151489 151.927937 
L 267.243946 133.967622 
L 260.336402 133.967622 
L 253.428859 160.908094 
L 246.521315 167.892661 
L 239.613772 161.90589 
L 232.706228 156.916913 
L 225.798685 136.961008 
L 218.891141 137.958803 
L 211.983598 142.94778 
L 205.076054 117.005102 
L 198.168511 119.998488 
L 191.260967 102.038173 
L 184.353424 114.011717 
L 177.44588 129.976441 
L 170.538337 126.983055 
L 163.630793 105.031559 
L 156.72325 102.038173 
L 149.815706 104.033764 
L 142.908162 104.033764 
L 136.000619 114.011717 
L 129.093075 122.991874 
L 122.185532 101.040378 
L 115.277988 119.000693 
L 108.370445 96.051402 
L 101.462901 125.98526 
L 94.555358 113.013921 
L 87.647814 113.013921 
L 80.740271 117.005102 
L 73.832727 70.108724 
z
" style="fill:#9467bd;"/>
   </g>
   <g id="PolyCollection_16">
    <path clip-path="url(#pb6aa63426d)" d="M 73.832727 69.110929 
L 73.832727 70.108724 
L 80.740271 117.005102 
L 87.647814 113.013921 
L 94.555358 113.013921 
L 101.462901 125.98526 
L 108.370445 96.051402 
L 115.277988 119.000693 
L 122.185532 101.040378 
L 129.093075 122.991874 
L 136.000619 114.011717 
L 142.908162 104.033764 
L 149.815706 104.033764 
L 156.72325 102.038173 
L 163.630793 105.031559 
L 170.538337 126.983055 
L 177.44588 129.976441 
L 184.353424 114.011717 
L 191.260967 102.038173 
L 198.168511 119.998488 
L 205.076054 117.005102 
L 211.983598 142.94778 
L 218.891141 137.958803 
L 225.798685 136.961008 
L 232.706228 156.916913 
L 239.613772 161.90589 
L 246.521315 167.892661 
L 253.428859 160.908094 
L 260.336402 133.967622 
L 267.243946 133.967622 
L 274.151489 151.927937 
L 281.059033 152.925732 
L 287.966576 166.894866 
L 294.87412 165.897071 
L 301.781663 202.815496 
L 308.689207 190.841953 
L 315.59675 197.82652 
L 322.504294 186.850772 
L 329.411838 188.846362 
L 336.319381 222.771402 
L 343.226925 190.841953 
L 350.134468 148.934551 
L 357.042012 170.886047 
L 363.949555 170.886047 
L 370.857099 145.941165 
L 377.764642 170.886047 
L 384.672186 212.793449 
L 391.579729 241.729512 
L 398.487273 214.789039 
L 398.487273 198.824315 
L 398.487273 198.824315 
L 391.579729 231.751559 
L 384.672186 198.824315 
L 377.764642 119.998488 
L 370.857099 117.005102 
L 363.949555 142.94778 
L 357.042012 142.94778 
L 350.134468 138.956598 
L 343.226925 166.894866 
L 336.319381 194.833134 
L 329.411838 163.90148 
L 322.504294 163.90148 
L 315.59675 171.883843 
L 308.689207 160.908094 
L 301.781663 172.881638 
L 294.87412 143.945575 
L 287.966576 145.941165 
L 281.059033 133.967622 
L 274.151489 130.974236 
L 267.243946 115.009512 
L 260.336402 126.983055 
L 253.428859 147.936756 
L 246.521315 152.925732 
L 239.613772 152.925732 
L 232.706228 148.934551 
L 225.798685 130.974236 
L 218.891141 132.969827 
L 211.983598 136.961008 
L 205.076054 112.016126 
L 198.168511 117.005102 
L 191.260967 100.042583 
L 184.353424 110.020535 
L 177.44588 126.983055 
L 170.538337 121.994079 
L 163.630793 98.046992 
L 156.72325 95.053606 
L 149.815706 98.046992 
L 142.908162 97.049197 
L 136.000619 111.018331 
L 129.093075 120.996283 
L 122.185532 94.055811 
L 115.277988 114.011717 
L 108.370445 93.058016 
L 101.462901 121.994079 
L 94.555358 108.024945 
L 87.647814 110.020535 
L 80.740271 115.009512 
L 73.832727 69.110929 
z
" style="fill:#8c564b;"/>
   </g>
   <g id="PolyCollection_17">
    <path clip-path="url(#pb6aa63426d)" d="M 73.832727 65.119748 
L 73.832727 69.110929 
L 80.740271 115.009512 
L 87.647814 110.020535 
L 94.555358 108.024945 
L 101.462901 121.994079 
L 108.370445 93.058016 
L 115.277988 114.011717 
L 122.185532 94.055811 
L 129.093075 120.996283 
L 136.000619 111.018331 
L 142.908162 97.049197 
L 149.815706 98.046992 
L 156.72325 95.053606 
L 163.630793 98.046992 
L 170.538337 121.994079 
L 177.44588 126.983055 
L 184.353424 110.020535 
L 191.260967 100.042583 
L 198.168511 117.005102 
L 205.076054 112.016126 
L 211.983598 136.961008 
L 218.891141 132.969827 
L 225.798685 130.974236 
L 232.706228 148.934551 
L 239.613772 152.925732 
L 246.521315 152.925732 
L 253.428859 147.936756 
L 260.336402 126.983055 
L 267.243946 115.009512 
L 274.151489 130.974236 
L 281.059033 133.967622 
L 287.966576 145.941165 
L 294.87412 143.945575 
L 301.781663 172.881638 
L 308.689207 160.908094 
L 315.59675 171.883843 
L 322.504294 163.90148 
L 329.411838 163.90148 
L 336.319381 194.833134 
L 343.226925 166.894866 
L 350.134468 138.956598 
L 357.042012 142.94778 
L 363.949555 142.94778 
L 370.857099 117.005102 
L 377.764642 119.998488 
L 384.672186 198.824315 
L 391.579729 231.751559 
L 398.487273 198.824315 
L 398.487273 158.912504 
L 398.487273 158.912504 
L 391.579729 174.877228 
L 384.672186 155.919118 
L 377.764642 97.049197 
L 370.857099 96.051402 
L 363.949555 121.994079 
L 357.042012 133.967622 
L 350.134468 124.987465 
L 343.226925 129.976441 
L 336.319381 154.921323 
L 329.411838 145.941165 
L 322.504294 131.972031 
L 315.59675 132.969827 
L 308.689207 137.958803 
L 301.781663 155.919118 
L 294.87412 124.987465 
L 287.966576 129.976441 
L 281.059033 107.02715 
L 274.151489 111.018331 
L 267.243946 97.049197 
L 260.336402 103.035969 
L 253.428859 121.994079 
L 246.521315 132.969827 
L 239.613772 139.954394 
L 232.706228 134.965417 
L 225.798685 118.002898 
L 218.891141 122.991874 
L 211.983598 130.974236 
L 205.076054 100.042583 
L 198.168511 106.029354 
L 191.260967 92.06022 
L 184.353424 103.035969 
L 177.44588 109.02274 
L 170.538337 108.024945 
L 163.630793 92.06022 
L 156.72325 90.06463 
L 149.815706 95.053606 
L 142.908162 94.055811 
L 136.000619 107.02715 
L 129.093075 116.007307 
L 122.185532 90.06463 
L 115.277988 111.018331 
L 108.370445 88.069039 
L 101.462901 118.002898 
L 94.555358 103.035969 
L 87.647814 105.031559 
L 80.740271 111.018331 
L 73.832727 65.119748 
z
" style="fill:#e377c2;"/>
   </g>
   <g id="PolyCollection_18">
    <path clip-path="url(#pb6aa63426d)" d="M 73.832727 64.121953 
L 73.832727 65.119748 
L 80.740271 111.018331 
L 87.647814 105.031559 
L 94.555358 103.035969 
L 101.462901 118.002898 
L 108.370445 88.069039 
L 115.277988 111.018331 
L 122.185532 90.06463 
L 129.093075 116.007307 
L 136.000619 107.02715 
L 142.908162 94.055811 
L 149.815706 95.053606 
L 156.72325 90.06463 
L 163.630793 92.06022 
L 170.538337 108.024945 
L 177.44588 109.02274 
L 184.353424 103.035969 
L 191.260967 92.06022 
L 198.168511 106.029354 
L 205.076054 100.042583 
L 211.983598 130.974236 
L 218.891141 122.991874 
L 225.798685 118.002898 
L 232.706228 134.965417 
L 239.613772 139.954394 
L 246.521315 132.969827 
L 253.428859 121.994079 
L 260.336402 103.035969 
L 267.243946 97.049197 
L 274.151489 111.018331 
L 281.059033 107.02715 
L 287.966576 129.976441 
L 294.87412 124.987465 
L 301.781663 155.919118 
L 308.689207 137.958803 
L 315.59675 132.969827 
L 322.504294 131.972031 
L 329.411838 145.941165 
L 336.319381 154.921323 
L 343.226925 129.976441 
L 350.134468 124.987465 
L 357.042012 133.967622 
L 363.949555 121.994079 
L 370.857099 96.051402 
L 377.764642 97.049197 
L 384.672186 155.919118 
L 391.579729 174.877228 
L 398.487273 158.912504 
L 398.487273 150.930142 
L 398.487273 150.930142 
L 391.579729 141.949984 
L 384.672186 135.963213 
L 377.764642 87.071244 
L 370.857099 90.06463 
L 363.949555 112.016126 
L 357.042012 118.002898 
L 350.134468 119.998488 
L 343.226925 107.02715 
L 336.319381 107.02715 
L 329.411838 92.06022 
L 322.504294 98.046992 
L 315.59675 109.02274 
L 308.689207 109.02274 
L 301.781663 114.011717 
L 294.87412 99.044787 
L 287.966576 103.035969 
L 281.059033 91.062425 
L 274.151489 92.06022 
L 267.243946 87.071244 
L 260.336402 88.069039 
L 253.428859 85.075654 
L 246.521315 93.058016 
L 239.613772 100.042583 
L 232.706228 95.053606 
L 225.798685 87.071244 
L 218.891141 89.066835 
L 211.983598 91.062425 
L 205.076054 88.069039 
L 198.168511 94.055811 
L 191.260967 77.093291 
L 184.353424 90.06463 
L 177.44588 96.051402 
L 170.538337 94.055811 
L 163.630793 77.093291 
L 156.72325 79.088882 
L 149.815706 86.073449 
L 142.908162 81.084472 
L 136.000619 88.069039 
L 129.093075 100.042583 
L 122.185532 77.093291 
L 115.277988 96.051402 
L 108.370445 73.10211 
L 101.462901 105.031559 
L 94.555358 92.06022 
L 87.647814 89.066835 
L 80.740271 86.073449 
L 73.832727 64.121953 
z
" style="fill:#7f7f7f;"/>
   </g>
   <g id="PolyCollection_19">
    <path clip-path="url(#pb6aa63426d)" d="M 73.832727 60.130772 
L 73.832727 64.121953 
L 80.740271 86.073449 
L 87.647814 89.066835 
L 94.555358 92.06022 
L 101.462901 105.031559 
L 108.370445 73.10211 
L 115.277988 96.051402 
L 122.185532 77.093291 
L 129.093075 100.042583 
L 136.000619 88.069039 
L 142.908162 81.084472 
L 149.815706 86.073449 
L 156.72325 79.088882 
L 163.630793 77.093291 
L 170.538337 94.055811 
L 177.44588 96.051402 
L 184.353424 90.06463 
L 191.260967 77.093291 
L 198.168511 94.055811 
L 205.076054 88.069039 
L 211.983598 91.062425 
L 218.891141 89.066835 
L 225.798685 87.071244 
L 232.706228 95.053606 
L 239.613772 100.042583 
L 246.521315 93.058016 
L 253.428859 85.075654 
L 260.336402 88.069039 
L 267.243946 87.071244 
L 274.151489 92.06022 
L 281.059033 91.062425 
L 287.966576 103.035969 
L 294.87412 99.044787 
L 301.781663 114.011717 
L 308.689207 109.02274 
L 315.59675 109.02274 
L 322.504294 98.046992 
L 329.411838 92.06022 
L 336.319381 107.02715 
L 343.226925 107.02715 
L 350.134468 119.998488 
L 357.042012 118.002898 
L 363.949555 112.016126 
L 370.857099 90.06463 
L 377.764642 87.071244 
L 384.672186 135.963213 
L 391.579729 141.949984 
L 398.487273 150.930142 
L 398.487273 135.963213 
L 398.487273 135.963213 
L 391.579729 133.967622 
L 384.672186 124.987465 
L 377.764642 82.082268 
L 370.857099 77.093291 
L 363.949555 88.069039 
L 357.042012 97.049197 
L 350.134468 91.062425 
L 343.226925 93.058016 
L 336.319381 82.082268 
L 329.411838 77.093291 
L 322.504294 80.086677 
L 315.59675 81.084472 
L 308.689207 81.084472 
L 301.781663 82.082268 
L 294.87412 77.093291 
L 287.966576 81.084472 
L 281.059033 80.086677 
L 274.151489 75.097701 
L 267.243946 78.091087 
L 260.336402 77.093291 
L 253.428859 77.093291 
L 246.521315 83.080063 
L 239.613772 76.095496 
L 232.706228 80.086677 
L 225.798685 76.095496 
L 218.891141 76.095496 
L 211.983598 73.10211 
L 205.076054 77.093291 
L 198.168511 77.093291 
L 191.260967 73.10211 
L 184.353424 74.099906 
L 177.44588 76.095496 
L 170.538337 69.110929 
L 163.630793 70.108724 
L 156.72325 68.113134 
L 149.815706 70.108724 
L 142.908162 67.115339 
L 136.000619 69.110929 
L 129.093075 67.115339 
L 122.185532 65.119748 
L 115.277988 63.124157 
L 108.370445 65.119748 
L 101.462901 66.117543 
L 94.555358 63.124157 
L 87.647814 65.119748 
L 80.740271 66.117543 
L 73.832727 60.130772 
z
" style="fill:#bcbd22;"/>
   </g>
   <g id="PolyCollection_20">
    <path clip-path="url(#pb6aa63426d)" d="M 73.832727 59.132976 
L 73.832727 60.130772 
L 80.740271 66.117543 
L 87.647814 65.119748 
L 94.555358 63.124157 
L 101.462901 66.117543 
L 108.370445 65.119748 
L 115.277988 63.124157 
L 122.185532 65.119748 
L 129.093075 67.115339 
L 136.000619 69.110929 
L 142.908162 67.115339 
L 149.815706 70.108724 
L 156.72325 68.113134 
L 163.630793 70.108724 
L 170.538337 69.110929 
L 177.44588 76.095496 
L 184.353424 74.099906 
L 191.260967 73.10211 
L 198.168511 77.093291 
L 205.076054 77.093291 
L 211.983598 73.10211 
L 218.891141 76.095496 
L 225.798685 76.095496 
L 232.706228 80.086677 
L 239.613772 76.095496 
L 246.521315 83.080063 
L 253.428859 77.093291 
L 260.336402 77.093291 
L 267.243946 78.091087 
L 274.151489 75.097701 
L 281.059033 80.086677 
L 287.966576 81.084472 
L 294.87412 77.093291 
L 301.781663 82.082268 
L 308.689207 81.084472 
L 315.59675 81.084472 
L 322.504294 80.086677 
L 329.411838 77.093291 
L 336.319381 82.082268 
L 343.226925 93.058016 
L 350.134468 91.062425 
L 357.042012 97.049197 
L 363.949555 88.069039 
L 370.857099 77.093291 
L 377.764642 82.082268 
L 384.672186 124.987465 
L 391.579729 133.967622 
L 398.487273 135.963213 
L 398.487273 135.963213 
L 398.487273 135.963213 
L 391.579729 133.967622 
L 384.672186 124.987465 
L 377.764642 82.082268 
L 370.857099 77.093291 
L 363.949555 88.069039 
L 357.042012 94.055811 
L 350.134468 87.071244 
L 343.226925 88.069039 
L 336.319381 78.091087 
L 329.411838 72.104315 
L 322.504294 74.099906 
L 315.59675 76.095496 
L 308.689207 77.093291 
L 301.781663 77.093291 
L 294.87412 74.099906 
L 287.966576 77.093291 
L 281.059033 75.097701 
L 274.151489 69.110929 
L 267.243946 73.10211 
L 260.336402 73.10211 
L 253.428859 72.104315 
L 246.521315 79.088882 
L 239.613772 73.10211 
L 232.706228 76.095496 
L 225.798685 71.10652 
L 218.891141 72.104315 
L 211.983598 70.108724 
L 205.076054 72.104315 
L 198.168511 73.10211 
L 191.260967 70.108724 
L 184.353424 71.10652 
L 177.44588 72.104315 
L 170.538337 66.117543 
L 163.630793 68.113134 
L 156.72325 65.119748 
L 149.815706 66.117543 
L 142.908162 62.126362 
L 136.000619 63.124157 
L 129.093075 63.124157 
L 122.185532 63.124157 
L 115.277988 60.130772 
L 108.370445 61.128567 
L 101.462901 61.128567 
L 94.555358 60.130772 
L 87.647814 60.130772 
L 80.740271 61.128567 
L 73.832727 59.132976 
z
" style="fill:#17becf;"/>
   </g>
   <g id="PolyCollection_21">
    <path clip-path="url(#pb6aa63426d)" d="M 73.832727 58.135181 
L 73.832727 59.132976 
L 80.740271 61.128567 
L 87.647814 60.130772 
L 94.555358 60.130772 
L 101.462901 61.128567 
L 108.370445 61.128567 
L 115.277988 60.130772 
L 122.185532 63.124157 
L 129.093075 63.124157 
L 136.000619 63.124157 
L 142.908162 62.126362 
L 149.815706 66.117543 
L 156.72325 65.119748 
L 163.630793 68.113134 
L 170.538337 66.117543 
L 177.44588 72.104315 
L 184.353424 71.10652 
L 191.260967 70.108724 
L 198.168511 73.10211 
L 205.076054 72.104315 
L 211.983598 70.108724 
L 218.891141 72.104315 
L 225.798685 71.10652 
L 232.706228 76.095496 
L 239.613772 73.10211 
L 246.521315 79.088882 
L 253.428859 72.104315 
L 260.336402 73.10211 
L 267.243946 73.10211 
L 274.151489 69.110929 
L 281.059033 75.097701 
L 287.966576 77.093291 
L 294.87412 74.099906 
L 301.781663 77.093291 
L 308.689207 77.093291 
L 315.59675 76.095496 
L 322.504294 74.099906 
L 329.411838 72.104315 
L 336.319381 78.091087 
L 343.226925 88.069039 
L 350.134468 87.071244 
L 357.042012 94.055811 
L 363.949555 88.069039 
L 370.857099 77.093291 
L 377.764642 82.082268 
L 384.672186 124.987465 
L 391.579729 133.967622 
L 398.487273 135.963213 
L 398.487273 119.998488 
L 398.487273 119.998488 
L 391.579729 109.02274 
L 384.672186 104.033764 
L 377.764642 59.132976 
L 370.857099 59.132976 
L 363.949555 60.130772 
L 357.042012 60.130772 
L 350.134468 57.137386 
L 343.226925 58.135181 
L 336.319381 59.132976 
L 329.411838 58.135181 
L 322.504294 54.144 
L 315.59675 57.137386 
L 308.689207 57.137386 
L 301.781663 58.135181 
L 294.87412 57.137386 
L 287.966576 57.137386 
L 281.059033 60.130772 
L 274.151489 56.139591 
L 267.243946 56.139591 
L 260.336402 57.137386 
L 253.428859 55.141795 
L 246.521315 60.130772 
L 239.613772 57.137386 
L 232.706228 61.128567 
L 225.798685 59.132976 
L 218.891141 62.126362 
L 211.983598 58.135181 
L 205.076054 57.137386 
L 198.168511 59.132976 
L 191.260967 58.135181 
L 184.353424 59.132976 
L 177.44588 57.137386 
L 170.538337 55.141795 
L 163.630793 59.132976 
L 156.72325 58.135181 
L 149.815706 60.130772 
L 142.908162 58.135181 
L 136.000619 59.132976 
L 129.093075 58.135181 
L 122.185532 59.132976 
L 115.277988 59.132976 
L 108.370445 57.137386 
L 101.462901 58.135181 
L 94.555358 56.139591 
L 87.647814 57.137386 
L 80.740271 57.137386 
L 73.832727 58.135181 
z
" style="fill:#1f77b4;"/>
   </g>
   <g id="PolyCollection_22">
    <path clip-path="url(#pb6aa63426d)" d="M 73.832727 58.135181 
L 73.832727 58.135181 
L 80.740271 57.137386 
L 87.647814 57.137386 
L 94.555358 56.139591 
L 101.462901 58.135181 
L 108.370445 57.137386 
L 115.277988 59.132976 
L 122.185532 59.132976 
L 129.093075 58.135181 
L 136.000619 59.132976 
L 142.908162 58.135181 
L 149.815706 60.130772 
L 156.72325 58.135181 
L 163.630793 59.132976 
L 170.538337 55.141795 
L 177.44588 57.137386 
L 184.353424 59.132976 
L 191.260967 58.135181 
L 198.168511 59.132976 
L 205.076054 57.137386 
L 211.983598 58.135181 
L 218.891141 62.126362 
L 225.798685 59.132976 
L 232.706228 61.128567 
L 239.613772 57.137386 
L 246.521315 60.130772 
L 253.428859 55.141795 
L 260.336402 57.137386 
L 267.243946 56.139591 
L 274.151489 56.139591 
L 281.059033 60.130772 
L 287.966576 57.137386 
L 294.87412 57.137386 
L 301.781663 58.135181 
L 308.689207 57.137386 
L 315.59675 57.137386 
L 322.504294 54.144 
L 329.411838 58.135181 
L 336.319381 59.132976 
L 343.226925 58.135181 
L 350.134468 57.137386 
L 357.042012 60.130772 
L 363.949555 60.130772 
L 370.857099 59.132976 
L 377.764642 59.132976 
L 384.672186 104.033764 
L 391.579729 109.02274 
L 398.487273 119.998488 
L 398.487273 60.130772 
L 398.487273 60.130772 
L 391.579729 60.130772 
L 384.672186 59.132976 
L 377.764642 59.132976 
L 370.857099 59.132976 
L 363.949555 60.130772 
L 357.042012 60.130772 
L 350.134468 57.137386 
L 343.226925 58.135181 
L 336.319381 59.132976 
L 329.411838 58.135181 
L 322.504294 54.144 
L 315.59675 57.137386 
L 308.689207 57.137386 
L 301.781663 58.135181 
L 294.87412 57.137386 
L 287.966576 57.137386 
L 281.059033 60.130772 
L 274.151489 56.139591 
L 267.243946 56.139591 
L 260.336402 57.137386 
L 253.428859 55.141795 
L 246.521315 60.130772 
L 239.613772 57.137386 
L 232.706228 61.128567 
L 225.798685 59.132976 
L 218.891141 62.126362 
L 211.983598 58.135181 
L 205.076054 57.137386 
L 198.168511 59.132976 
L 191.260967 58.135181 
L 184.353424 59.132976 
L 177.44588 57.137386 
L 170.538337 55.141795 
L 163.630793 59.132976 
L 156.72325 58.135181 
L 149.815706 60.130772 
L 142.908162 58.135181 
L 136.000619 59.132976 
L 129.093075 58.135181 
L 122.185532 59.132976 
L 115.277988 59.132976 
L 108.370445 57.137386 
L 101.462901 58.135181 
L 94.555358 56.139591 
L 87.647814 57.137386 
L 80.740271 57.137386 
L 73.832727 58.135181 
z
" style="fill:#ff7f0e;"/>
   </g>
   <g id="matplotlib.axis_1">
    <g id="xtick_1">
     <g id="line2d_1">
      <defs>
       <path d="M 0 0 
L 0 3.5 
" id="m46744acae8" style="stroke:#000000;stroke-width:0.8;"/>
      </defs>
      <g>
       <use style="stroke:#000000;stroke-width:0.8;" x="73.832727" xlink:href="#m46744acae8" y="307.584"/>
      </g>
     </g>
     <g id="text_1">
      <!-- 0 -->
      <defs>
       <path d="M 31.78125 66.40625 
Q 24.171875 66.40625 20.328125 58.90625 
Q 16.5 51.421875 16.5 36.375 
Q 16.5 21.390625 20.328125 13.890625 
Q 24.171875 6.390625 31.78125 6.390625 
Q 39.453125 6.390625 43.28125 13.890625 
Q 47.125 21.390625 47.125 36.375 
Q 47.125 51.421875 43.28125 58.90625 
Q 39.453125 66.40625 31.78125 66.40625 
z
M 31.78125 74.21875 
Q 44.046875 74.21875 50.515625 64.515625 
Q 56.984375 54.828125 56.984375 36.375 
Q 56.984375 17.96875 50.515625 8.265625 
Q 44.046875 -1.421875 31.78125 -1.421875 
Q 19.53125 -1.421875 13.0625 8.265625 
Q 6.59375 17.96875 6.59375 36.375 
Q 6.59375 54.828125 13.0625 64.515625 
Q 19.53125 74.21875 31.78125 74.21875 
z
" id="DejaVuSans-48"/>
      </defs>
      <g transform="translate(70.651477 322.182437)scale(0.1 -0.1)">
       <use xlink:href="#DejaVuSans-48"/>
      </g>
     </g>
    </g>
    <g id="xtick_2">
     <g id="line2d_2">
      <g>
       <use style="stroke:#000000;stroke-width:0.8;" x="142.908162" xlink:href="#m46744acae8" y="307.584"/>
      </g>
     </g>
     <g id="text_2">
      <!-- 10 -->
      <defs>
       <path d="M 12.40625 8.296875 
L 28.515625 8.296875 
L 28.515625 63.921875 
L 10.984375 60.40625 
L 10.984375 69.390625 
L 28.421875 72.90625 
L 38.28125 72.90625 
L 38.28125 8.296875 
L 54.390625 8.296875 
L 54.390625 0 
L 12.40625 0 
z
" id="DejaVuSans-49"/>
      </defs>
      <g transform="translate(136.545662 322.182437)scale(0.1 -0.1)">
       <use xlink:href="#DejaVuSans-49"/>
       <use x="63.623047" xlink:href="#DejaVuSans-48"/>
      </g>
     </g>
    </g>
    <g id="xtick_3">
     <g id="line2d_3">
      <g>
       <use style="stroke:#000000;stroke-width:0.8;" x="211.983598" xlink:href="#m46744acae8" y="307.584"/>
      </g>
     </g>
     <g id="text_3">
      <!-- 20 -->
      <defs>
       <path d="M 19.1875 8.296875 
L 53.609375 8.296875 
L 53.609375 0 
L 7.328125 0 
L 7.328125 8.296875 
Q 12.9375 14.109375 22.625 23.890625 
Q 32.328125 33.6875 34.8125 36.53125 
Q 39.546875 41.84375 41.421875 45.53125 
Q 43.3125 49.21875 43.3125 52.78125 
Q 43.3125 58.59375 39.234375 62.25 
Q 35.15625 65.921875 28.609375 65.921875 
Q 23.96875 65.921875 18.8125 64.3125 
Q 13.671875 62.703125 7.8125 59.421875 
L 7.8125 69.390625 
Q 13.765625 71.78125 18.9375 73 
Q 24.125 74.21875 28.421875 74.21875 
Q 39.75 74.21875 46.484375 68.546875 
Q 53.21875 62.890625 53.21875 53.421875 
Q 53.21875 48.921875 51.53125 44.890625 
Q 49.859375 40.875 45.40625 35.40625 
Q 44.1875 33.984375 37.640625 27.21875 
Q 31.109375 20.453125 19.1875 8.296875 
z
" id="DejaVuSans-50"/>
      </defs>
      <g transform="translate(205.621098 322.182437)scale(0.1 -0.1)">
       <use xlink:href="#DejaVuSans-50"/>
       <use x="63.623047" xlink:href="#DejaVuSans-48"/>
      </g>
     </g>
    </g>
    <g id="xtick_4">
     <g id="line2d_4">
      <g>
       <use style="stroke:#000000;stroke-width:0.8;" x="281.059033" xlink:href="#m46744acae8" y="307.584"/>
      </g>
     </g>
     <g id="text_4">
      <!-- 30 -->
      <defs>
       <path d="M 40.578125 39.3125 
Q 47.65625 37.796875 51.625 33 
Q 55.609375 28.21875 55.609375 21.1875 
Q 55.609375 10.40625 48.1875 4.484375 
Q 40.765625 -1.421875 27.09375 -1.421875 
Q 22.515625 -1.421875 17.65625 -0.515625 
Q 12.796875 0.390625 7.625 2.203125 
L 7.625 11.71875 
Q 11.71875 9.328125 16.59375 8.109375 
Q 21.484375 6.890625 26.8125 6.890625 
Q 36.078125 6.890625 40.9375 10.546875 
Q 45.796875 14.203125 45.796875 21.1875 
Q 45.796875 27.640625 41.28125 31.265625 
Q 36.765625 34.90625 28.71875 34.90625 
L 20.21875 34.90625 
L 20.21875 43.015625 
L 29.109375 43.015625 
Q 36.375 43.015625 40.234375 45.921875 
Q 44.09375 48.828125 44.09375 54.296875 
Q 44.09375 59.90625 40.109375 62.90625 
Q 36.140625 65.921875 28.71875 65.921875 
Q 24.65625 65.921875 20.015625 65.03125 
Q 15.375 64.15625 9.8125 62.3125 
L 9.8125 71.09375 
Q 15.4375 72.65625 20.34375 73.4375 
Q 25.25 74.21875 29.59375 74.21875 
Q 40.828125 74.21875 47.359375 69.109375 
Q 53.90625 64.015625 53.90625 55.328125 
Q 53.90625 49.265625 50.4375 45.09375 
Q 46.96875 40.921875 40.578125 39.3125 
z
" id="DejaVuSans-51"/>
      </defs>
      <g transform="translate(274.696533 322.182437)scale(0.1 -0.1)">
       <use xlink:href="#DejaVuSans-51"/>
       <use x="63.623047" xlink:href="#DejaVuSans-48"/>
      </g>
     </g>
    </g>
    <g id="xtick_5">
     <g id="line2d_5">
      <g>
       <use style="stroke:#000000;stroke-width:0.8;" x="350.134468" xlink:href="#m46744acae8" y="307.584"/>
      </g>
     </g>
     <g id="text_5">
      <!-- 40 -->
      <defs>
       <path d="M 37.796875 64.3125 
L 12.890625 25.390625 
L 37.796875 25.390625 
z
M 35.203125 72.90625 
L 47.609375 72.90625 
L 47.609375 25.390625 
L 58.015625 25.390625 
L 58.015625 17.1875 
L 47.609375 17.1875 
L 47.609375 0 
L 37.796875 0 
L 37.796875 17.1875 
L 4.890625 17.1875 
L 4.890625 26.703125 
z
" id="DejaVuSans-52"/>
      </defs>
      <g transform="translate(343.771968 322.182437)scale(0.1 -0.1)">
       <use xlink:href="#DejaVuSans-52"/>
       <use x="63.623047" xlink:href="#DejaVuSans-48"/>
      </g>
     </g>
    </g>
    <g id="text_6">
     <!-- Generations -->
     <defs>
      <path d="M 59.515625 10.40625 
L 59.515625 29.984375 
L 43.40625 29.984375 
L 43.40625 38.09375 
L 69.28125 38.09375 
L 69.28125 6.78125 
Q 63.578125 2.734375 56.6875 0.65625 
Q 49.8125 -1.421875 42 -1.421875 
Q 24.90625 -1.421875 15.25 8.5625 
Q 5.609375 18.5625 5.609375 36.375 
Q 5.609375 54.25 15.25 64.234375 
Q 24.90625 74.21875 42 74.21875 
Q 49.125 74.21875 55.546875 72.453125 
Q 61.96875 70.703125 67.390625 67.28125 
L 67.390625 56.78125 
Q 61.921875 61.421875 55.765625 63.765625 
Q 49.609375 66.109375 42.828125 66.109375 
Q 29.4375 66.109375 22.71875 58.640625 
Q 16.015625 51.171875 16.015625 36.375 
Q 16.015625 21.625 22.71875 14.15625 
Q 29.4375 6.6875 42.828125 6.6875 
Q 48.046875 6.6875 52.140625 7.59375 
Q 56.25 8.5 59.515625 10.40625 
z
" id="DejaVuSans-71"/>
      <path d="M 56.203125 29.59375 
L 56.203125 25.203125 
L 14.890625 25.203125 
Q 15.484375 15.921875 20.484375 11.0625 
Q 25.484375 6.203125 34.421875 6.203125 
Q 39.59375 6.203125 44.453125 7.46875 
Q 49.3125 8.734375 54.109375 11.28125 
L 54.109375 2.78125 
Q 49.265625 0.734375 44.1875 -0.34375 
Q 39.109375 -1.421875 33.890625 -1.421875 
Q 20.796875 -1.421875 13.15625 6.1875 
Q 5.515625 13.8125 5.515625 26.8125 
Q 5.515625 40.234375 12.765625 48.109375 
Q 20.015625 56 32.328125 56 
Q 43.359375 56 49.78125 48.890625 
Q 56.203125 41.796875 56.203125 29.59375 
z
M 47.21875 32.234375 
Q 47.125 39.59375 43.09375 43.984375 
Q 39.0625 48.390625 32.421875 48.390625 
Q 24.90625 48.390625 20.390625 44.140625 
Q 15.875 39.890625 15.1875 32.171875 
z
" id="DejaVuSans-101"/>
      <path d="M 54.890625 33.015625 
L 54.890625 0 
L 45.90625 0 
L 45.90625 32.71875 
Q 45.90625 40.484375 42.875 44.328125 
Q 39.84375 48.1875 33.796875 48.1875 
Q 26.515625 48.1875 22.3125 43.546875 
Q 18.109375 38.921875 18.109375 30.90625 
L 18.109375 0 
L 9.078125 0 
L 9.078125 54.6875 
L 18.109375 54.6875 
L 18.109375 46.1875 
Q 21.34375 51.125 25.703125 53.5625 
Q 30.078125 56 35.796875 56 
Q 45.21875 56 50.046875 50.171875 
Q 54.890625 44.34375 54.890625 33.015625 
z
" id="DejaVuSans-110"/>
      <path d="M 41.109375 46.296875 
Q 39.59375 47.171875 37.8125 47.578125 
Q 36.03125 48 33.890625 48 
Q 26.265625 48 22.1875 43.046875 
Q 18.109375 38.09375 18.109375 28.8125 
L 18.109375 0 
L 9.078125 0 
L 9.078125 54.6875 
L 18.109375 54.6875 
L 18.109375 46.1875 
Q 20.953125 51.171875 25.484375 53.578125 
Q 30.03125 56 36.53125 56 
Q 37.453125 56 38.578125 55.875 
Q 39.703125 55.765625 41.0625 55.515625 
z
" id="DejaVuSans-114"/>
      <path d="M 34.28125 27.484375 
Q 23.390625 27.484375 19.1875 25 
Q 14.984375 22.515625 14.984375 16.5 
Q 14.984375 11.71875 18.140625 8.90625 
Q 21.296875 6.109375 26.703125 6.109375 
Q 34.1875 6.109375 38.703125 11.40625 
Q 43.21875 16.703125 43.21875 25.484375 
L 43.21875 27.484375 
z
M 52.203125 31.203125 
L 52.203125 0 
L 43.21875 0 
L 43.21875 8.296875 
Q 40.140625 3.328125 35.546875 0.953125 
Q 30.953125 -1.421875 24.3125 -1.421875 
Q 15.921875 -1.421875 10.953125 3.296875 
Q 6 8.015625 6 15.921875 
Q 6 25.140625 12.171875 29.828125 
Q 18.359375 34.515625 30.609375 34.515625 
L 43.21875 34.515625 
L 43.21875 35.40625 
Q 43.21875 41.609375 39.140625 45 
Q 35.0625 48.390625 27.6875 48.390625 
Q 23 48.390625 18.546875 47.265625 
Q 14.109375 46.140625 10.015625 43.890625 
L 10.015625 52.203125 
Q 14.9375 54.109375 19.578125 55.046875 
Q 24.21875 56 28.609375 56 
Q 40.484375 56 46.34375 49.84375 
Q 52.203125 43.703125 52.203125 31.203125 
z
" id="DejaVuSans-97"/>
      <path d="M 18.3125 70.21875 
L 18.3125 54.6875 
L 36.8125 54.6875 
L 36.8125 47.703125 
L 18.3125 47.703125 
L 18.3125 18.015625 
Q 18.3125 11.328125 20.140625 9.421875 
Q 21.96875 7.515625 27.59375 7.515625 
L 36.8125 7.515625 
L 36.8125 0 
L 27.59375 0 
Q 17.1875 0 13.234375 3.875 
Q 9.28125 7.765625 9.28125 18.015625 
L 9.28125 47.703125 
L 2.6875 47.703125 
L 2.6875 54.6875 
L 9.28125 54.6875 
L 9.28125 70.21875 
z
" id="DejaVuSans-116"/>
      <path d="M 9.421875 54.6875 
L 18.40625 54.6875 
L 18.40625 0 
L 9.421875 0 
z
M 9.421875 75.984375 
L 18.40625 75.984375 
L 18.40625 64.59375 
L 9.421875 64.59375 
z
" id="DejaVuSans-105"/>
      <path d="M 30.609375 48.390625 
Q 23.390625 48.390625 19.1875 42.75 
Q 14.984375 37.109375 14.984375 27.296875 
Q 14.984375 17.484375 19.15625 11.84375 
Q 23.34375 6.203125 30.609375 6.203125 
Q 37.796875 6.203125 41.984375 11.859375 
Q 46.1875 17.53125 46.1875 27.296875 
Q 46.1875 37.015625 41.984375 42.703125 
Q 37.796875 48.390625 30.609375 48.390625 
z
M 30.609375 56 
Q 42.328125 56 49.015625 48.375 
Q 55.71875 40.765625 55.71875 27.296875 
Q 55.71875 13.875 49.015625 6.21875 
Q 42.328125 -1.421875 30.609375 -1.421875 
Q 18.84375 -1.421875 12.171875 6.21875 
Q 5.515625 13.875 5.515625 27.296875 
Q 5.515625 40.765625 12.171875 48.375 
Q 18.84375 56 30.609375 56 
z
" id="DejaVuSans-111"/>
      <path d="M 44.28125 53.078125 
L 44.28125 44.578125 
Q 40.484375 46.53125 36.375 47.5 
Q 32.28125 48.484375 27.875 48.484375 
Q 21.1875 48.484375 17.84375 46.4375 
Q 14.5 44.390625 14.5 40.28125 
Q 14.5 37.15625 16.890625 35.375 
Q 19.28125 33.59375 26.515625 31.984375 
L 29.59375 31.296875 
Q 39.15625 29.25 43.1875 25.515625 
Q 47.21875 21.78125 47.21875 15.09375 
Q 47.21875 7.46875 41.1875 3.015625 
Q 35.15625 -1.421875 24.609375 -1.421875 
Q 20.21875 -1.421875 15.453125 -0.5625 
Q 10.6875 0.296875 5.421875 2 
L 5.421875 11.28125 
Q 10.40625 8.6875 15.234375 7.390625 
Q 20.0625 6.109375 24.8125 6.109375 
Q 31.15625 6.109375 34.5625 8.28125 
Q 37.984375 10.453125 37.984375 14.40625 
Q 37.984375 18.0625 35.515625 20.015625 
Q 33.0625 21.96875 24.703125 23.78125 
L 21.578125 24.515625 
Q 13.234375 26.265625 9.515625 29.90625 
Q 5.8125 33.546875 5.8125 39.890625 
Q 5.8125 47.609375 11.28125 51.796875 
Q 16.75 56 26.8125 56 
Q 31.78125 56 36.171875 55.265625 
Q 40.578125 54.546875 44.28125 53.078125 
z
" id="DejaVuSans-115"/>
     </defs>
     <g transform="translate(205.662344 335.860562)scale(0.1 -0.1)">
      <use xlink:href="#DejaVuSans-71"/>
      <use x="77.490234" xlink:href="#DejaVuSans-101"/>
      <use x="139.013672" xlink:href="#DejaVuSans-110"/>
      <use x="202.392578" xlink:href="#DejaVuSans-101"/>
      <use x="263.916016" xlink:href="#DejaVuSans-114"/>
      <use x="305.029297" xlink:href="#DejaVuSans-97"/>
      <use x="366.308594" xlink:href="#DejaVuSans-116"/>
      <use x="405.517578" xlink:href="#DejaVuSans-105"/>
      <use x="433.300781" xlink:href="#DejaVuSans-111"/>
      <use x="494.482422" xlink:href="#DejaVuSans-110"/>
      <use x="557.861328" xlink:href="#DejaVuSans-115"/>
     </g>
    </g>
   </g>
   <g id="matplotlib.axis_2">
    <g id="ytick_1">
     <g id="line2d_6">
      <defs>
       <path d="M 0 0 
L -3.5 0 
" id="ma9cf1082c0" style="stroke:#000000;stroke-width:0.8;"/>
      </defs>
      <g>
       <use style="stroke:#000000;stroke-width:0.8;" x="57.6" xlink:href="#ma9cf1082c0" y="307.584"/>
      </g>
     </g>
     <g id="text_7">
      <!-- 0 -->
      <g transform="translate(44.2375 311.383219)scale(0.1 -0.1)">
       <use xlink:href="#DejaVuSans-48"/>
      </g>
     </g>
    </g>
    <g id="ytick_2">
     <g id="line2d_7">
      <g>
       <use style="stroke:#000000;stroke-width:0.8;" x="57.6" xlink:href="#ma9cf1082c0" y="257.694236"/>
      </g>
     </g>
     <g id="text_8">
      <!-- 50 -->
      <defs>
       <path d="M 10.796875 72.90625 
L 49.515625 72.90625 
L 49.515625 64.59375 
L 19.828125 64.59375 
L 19.828125 46.734375 
Q 21.96875 47.46875 24.109375 47.828125 
Q 26.265625 48.1875 28.421875 48.1875 
Q 40.625 48.1875 47.75 41.5 
Q 54.890625 34.8125 54.890625 23.390625 
Q 54.890625 11.625 47.5625 5.09375 
Q 40.234375 -1.421875 26.90625 -1.421875 
Q 22.3125 -1.421875 17.546875 -0.640625 
Q 12.796875 0.140625 7.71875 1.703125 
L 7.71875 11.625 
Q 12.109375 9.234375 16.796875 8.0625 
Q 21.484375 6.890625 26.703125 6.890625 
Q 35.15625 6.890625 40.078125 11.328125 
Q 45.015625 15.765625 45.015625 23.390625 
Q 45.015625 31 40.078125 35.4375 
Q 35.15625 39.890625 26.703125 39.890625 
Q 22.75 39.890625 18.8125 39.015625 
Q 14.890625 38.140625 10.796875 36.28125 
z
" id="DejaVuSans-53"/>
      </defs>
      <g transform="translate(37.875 261.493455)scale(0.1 -0.1)">
       <use xlink:href="#DejaVuSans-53"/>
       <use x="63.623047" xlink:href="#DejaVuSans-48"/>
      </g>
     </g>
    </g>
    <g id="ytick_3">
     <g id="line2d_8">
      <g>
       <use style="stroke:#000000;stroke-width:0.8;" x="57.6" xlink:href="#ma9cf1082c0" y="207.804472"/>
      </g>
     </g>
     <g id="text_9">
      <!-- 100 -->
      <g transform="translate(31.5125 211.603691)scale(0.1 -0.1)">
       <use xlink:href="#DejaVuSans-49"/>
       <use x="63.623047" xlink:href="#DejaVuSans-48"/>
       <use x="127.246094" xlink:href="#DejaVuSans-48"/>
      </g>
     </g>
    </g>
    <g id="ytick_4">
     <g id="line2d_9">
      <g>
       <use style="stroke:#000000;stroke-width:0.8;" x="57.6" xlink:href="#ma9cf1082c0" y="157.914709"/>
      </g>
     </g>
     <g id="text_10">
      <!-- 150 -->
      <g transform="translate(31.5125 161.713927)scale(0.1 -0.1)">
       <use xlink:href="#DejaVuSans-49"/>
       <use x="63.623047" xlink:href="#DejaVuSans-53"/>
       <use x="127.246094" xlink:href="#DejaVuSans-48"/>
      </g>
     </g>
    </g>
    <g id="ytick_5">
     <g id="line2d_10">
      <g>
       <use style="stroke:#000000;stroke-width:0.8;" x="57.6" xlink:href="#ma9cf1082c0" y="108.024945"/>
      </g>
     </g>
     <g id="text_11">
      <!-- 200 -->
      <g transform="translate(31.5125 111.824164)scale(0.1 -0.1)">
       <use xlink:href="#DejaVuSans-50"/>
       <use x="63.623047" xlink:href="#DejaVuSans-48"/>
       <use x="127.246094" xlink:href="#DejaVuSans-48"/>
      </g>
     </g>
    </g>
    <g id="ytick_6">
     <g id="line2d_11">
      <g>
       <use style="stroke:#000000;stroke-width:0.8;" x="57.6" xlink:href="#ma9cf1082c0" y="58.135181"/>
      </g>
     </g>
     <g id="text_12">
      <!-- 250 -->
      <g transform="translate(31.5125 61.9344)scale(0.1 -0.1)">
       <use xlink:href="#DejaVuSans-50"/>
       <use x="63.623047" xlink:href="#DejaVuSans-53"/>
       <use x="127.246094" xlink:href="#DejaVuSans-48"/>
      </g>
     </g>
    </g>
    <g id="text_13">
     <!-- Size per Species -->
     <defs>
      <path d="M 53.515625 70.515625 
L 53.515625 60.890625 
Q 47.90625 63.578125 42.921875 64.890625 
Q 37.9375 66.21875 33.296875 66.21875 
Q 25.25 66.21875 20.875 63.09375 
Q 16.5 59.96875 16.5 54.203125 
Q 16.5 49.359375 19.40625 46.890625 
Q 22.3125 44.4375 30.421875 42.921875 
L 36.375 41.703125 
Q 47.40625 39.59375 52.65625 34.296875 
Q 57.90625 29 57.90625 20.125 
Q 57.90625 9.515625 50.796875 4.046875 
Q 43.703125 -1.421875 29.984375 -1.421875 
Q 24.8125 -1.421875 18.96875 -0.25 
Q 13.140625 0.921875 6.890625 3.21875 
L 6.890625 13.375 
Q 12.890625 10.015625 18.65625 8.296875 
Q 24.421875 6.59375 29.984375 6.59375 
Q 38.421875 6.59375 43.015625 9.90625 
Q 47.609375 13.234375 47.609375 19.390625 
Q 47.609375 24.75 44.3125 27.78125 
Q 41.015625 30.8125 33.5 32.328125 
L 27.484375 33.5 
Q 16.453125 35.6875 11.515625 40.375 
Q 6.59375 45.0625 6.59375 53.421875 
Q 6.59375 63.09375 13.40625 68.65625 
Q 20.21875 74.21875 32.171875 74.21875 
Q 37.3125 74.21875 42.625 73.28125 
Q 47.953125 72.359375 53.515625 70.515625 
z
" id="DejaVuSans-83"/>
      <path d="M 5.515625 54.6875 
L 48.1875 54.6875 
L 48.1875 46.484375 
L 14.40625 7.171875 
L 48.1875 7.171875 
L 48.1875 0 
L 4.296875 0 
L 4.296875 8.203125 
L 38.09375 47.515625 
L 5.515625 47.515625 
z
" id="DejaVuSans-122"/>
      <path id="DejaVuSans-32"/>
      <path d="M 18.109375 8.203125 
L 18.109375 -20.796875 
L 9.078125 -20.796875 
L 9.078125 54.6875 
L 18.109375 54.6875 
L 18.109375 46.390625 
Q 20.953125 51.265625 25.265625 53.625 
Q 29.59375 56 35.59375 56 
Q 45.5625 56 51.78125 48.09375 
Q 58.015625 40.1875 58.015625 27.296875 
Q 58.015625 14.40625 51.78125 6.484375 
Q 45.5625 -1.421875 35.59375 -1.421875 
Q 29.59375 -1.421875 25.265625 0.953125 
Q 20.953125 3.328125 18.109375 8.203125 
z
M 48.6875 27.296875 
Q 48.6875 37.203125 44.609375 42.84375 
Q 40.53125 48.484375 33.40625 48.484375 
Q 26.265625 48.484375 22.1875 42.84375 
Q 18.109375 37.203125 18.109375 27.296875 
Q 18.109375 17.390625 22.1875 11.75 
Q 26.265625 6.109375 33.40625 6.109375 
Q 40.53125 6.109375 44.609375 11.75 
Q 48.6875 17.390625 48.6875 27.296875 
z
" id="DejaVuSans-112"/>
      <path d="M 48.78125 52.59375 
L 48.78125 44.1875 
Q 44.96875 46.296875 41.140625 47.34375 
Q 37.3125 48.390625 33.40625 48.390625 
Q 24.65625 48.390625 19.8125 42.84375 
Q 14.984375 37.3125 14.984375 27.296875 
Q 14.984375 17.28125 19.8125 11.734375 
Q 24.65625 6.203125 33.40625 6.203125 
Q 37.3125 6.203125 41.140625 7.25 
Q 44.96875 8.296875 48.78125 10.40625 
L 48.78125 2.09375 
Q 45.015625 0.34375 40.984375 -0.53125 
Q 36.96875 -1.421875 32.421875 -1.421875 
Q 20.0625 -1.421875 12.78125 6.34375 
Q 5.515625 14.109375 5.515625 27.296875 
Q 5.515625 40.671875 12.859375 48.328125 
Q 20.21875 56 33.015625 56 
Q 37.15625 56 41.109375 55.140625 
Q 45.0625 54.296875 48.78125 52.59375 
z
" id="DejaVuSans-99"/>
     </defs>
     <g transform="translate(25.432812 215.520969)rotate(-90)scale(0.1 -0.1)">
      <use xlink:href="#DejaVuSans-83"/>
      <use x="63.476562" xlink:href="#DejaVuSans-105"/>
      <use x="91.259766" xlink:href="#DejaVuSans-122"/>
      <use x="143.75" xlink:href="#DejaVuSans-101"/>
      <use x="205.273438" xlink:href="#DejaVuSans-32"/>
      <use x="237.060547" xlink:href="#DejaVuSans-112"/>
      <use x="300.537109" xlink:href="#DejaVuSans-101"/>
      <use x="362.060547" xlink:href="#DejaVuSans-114"/>
      <use x="403.173828" xlink:href="#DejaVuSans-32"/>
      <use x="434.960938" xlink:href="#DejaVuSans-83"/>
      <use x="498.4375" xlink:href="#DejaVuSans-112"/>
      <use x="561.914062" xlink:href="#DejaVuSans-101"/>
      <use x="623.4375" xlink:href="#DejaVuSans-99"/>
      <use x="678.417969" xlink:href="#DejaVuSans-105"/>
      <use x="706.201172" xlink:href="#DejaVuSans-101"/>
      <use x="767.724609" xlink:href="#DejaVuSans-115"/>
     </g>
    </g>
   </g>
   <g id="patch_3">
    <path d="M 57.6 307.584 
L 57.6 41.472 
" style="fill:none;stroke:#000000;stroke-linecap:square;stroke-linejoin:miter;stroke-width:0.8;"/>
   </g>
   <g id="patch_4">
    <path d="M 414.72 307.584 
L 414.72 41.472 
" style="fill:none;stroke:#000000;stroke-linecap:square;stroke-linejoin:miter;stroke-width:0.8;"/>
   </g>
   <g id="patch_5">
    <path d="M 57.6 307.584 
L 414.72 307.584 
" style="fill:none;stroke:#000000;stroke-linecap:square;stroke-linejoin:miter;stroke-width:0.8;"/>
   </g>
   <g id="patch_6">
    <path d="M 57.6 41.472 
L 414.72 41.472 
" style="fill:none;stroke:#000000;stroke-linecap:square;stroke-linejoin:miter;stroke-width:0.8;"/>
   </g>
   <g id="text_14">
    <!-- Speciation -->
    <g transform="translate(204.714375 35.472)scale(0.12 -0.12)">
     <use xlink:href="#DejaVuSans-83"/>
     <use x="63.476562" xlink:href="#DejaVuSans-112"/>
     <use x="126.953125" xlink:href="#DejaVuSans-101"/>
     <use x="188.476562" xlink:href="#DejaVuSans-99"/>
     <use x="243.457031" xlink:href="#DejaVuSans-105"/>
     <use x="271.240234" xlink:href="#DejaVuSans-97"/>
     <use x="332.519531" xlink:href="#DejaVuSans-116"/>
     <use x="371.728516" xlink:href="#DejaVuSans-105"/>
     <use x="399.511719" xlink:href="#DejaVuSans-111"/>
     <use x="460.693359" xlink:href="#DejaVuSans-110"/>
    </g>
   </g>
  </g>
 </g>
 <defs>
  <clipPath id="pb6aa63426d">
   <rect height="266.112" width="357.12" x="57.6" y="41.472"/>
  </clipPath>
 </defs>
</svg>
