<?xml version="1.0" encoding="UTF-8" standalone="no"?>
<!DOCTYPE svg PUBLIC "-//W3C//DTD SVG 1.1//EN"
 "http://www.w3.org/Graphics/SVG/1.1/DTD/svg11.dtd">
<!-- Generated by graphviz version 2.38.0 (20140413.2041)
 -->
<!-- Title: %3 Pages: 1 -->
<svg width="182pt" height="121pt"
 viewBox="0.00 0.00 181.50 121.40" xmlns="http://www.w3.org/2000/svg" xmlns:xlink="http://www.w3.org/1999/xlink">
<g id="graph0" class="graph" transform="scale(1 1) rotate(0) translate(4 117.397)">
<title>%3</title>
<polygon fill="white" stroke="none" points="-4,4 -4,-117.397 177.5,-117.397 177.5,4 -4,4"/>
<!-- x -->
<g id="node1" class="node"><title>x</title>
<polygon fill="lightgray" stroke="black" points="20,-113.397 0,-113.397 0,-95.397 20,-95.397 20,-113.397"/>
<text text-anchor="middle" x="10" y="-102.197" font-family="Times New Roman,serif" font-size="9.00">x</text>
</g>
<!-- dx -->
<g id="node2" class="node"><title>dx</title>
<polygon fill="lightgray" stroke="black" points="63.5,-113.397 38.5,-113.397 38.5,-95.397 63.5,-95.397 63.5,-113.397"/>
<text text-anchor="middle" x="51" y="-102.197" font-family="Times New Roman,serif" font-size="9.00">dx</text>
</g>
<!-- control -->
<g id="node5" class="node"><title>control</title>
<ellipse fill="lightblue" stroke="black" cx="99" cy="-29.6985" rx="29.8983" ry="29.8983"/>
<text text-anchor="middle" x="99" y="-27.4985" font-family="Times New Roman,serif" font-size="9.00">control</text>
</g>
<!-- dx&#45;&gt;control -->
<g id="edge3" class="edge"><title>dx&#45;&gt;control</title>
<path fill="none" stroke="green" stroke-width="0.649933" d="M56.3202,-95.3392C61.4663,-87.5452 69.6111,-75.2096 77.4123,-63.3941"/>
<polygon fill="green" stroke="green" stroke-width="0.649933" points="80.3952,-65.2286 82.9844,-54.955 74.5536,-61.3716 80.3952,-65.2286"/>
</g>
<!-- theta -->
<g id="node3" class="node"><title>theta</title>
<polygon fill="lightgray" stroke="black" points="116.5,-113.397 81.5,-113.397 81.5,-95.397 116.5,-95.397 116.5,-113.397"/>
<text text-anchor="middle" x="99" y="-102.197" font-family="Times New Roman,serif" font-size="9.00">theta</text>
</g>
<!-- theta&#45;&gt;control -->
<g id="edge1" class="edge"><title>theta&#45;&gt;control</title>
<path fill="none" stroke="green" stroke-width="0.761507" d="M99,-95.3392C99,-88.9188 99,-79.4165 99,-69.6619"/>
<polygon fill="green" stroke="green" stroke-width="0.761507" points="102.5,-69.5238 99,-59.5238 95.5001,-69.5239 102.5,-69.5238"/>
</g>
<!-- dtheta -->
<g id="node4" class="node"><title>dtheta</title>
<polygon fill="lightgray" stroke="black" points="173.5,-113.397 134.5,-113.397 134.5,-95.397 173.5,-95.397 173.5,-113.397"/>
<text text-anchor="middle" x="154" y="-102.197" font-family="Times New Roman,serif" font-size="9.00">dtheta</text>
</g>
<!-- dtheta&#45;&gt;control -->
<g id="edge2" class="edge"><title>dtheta&#45;&gt;control</title>
<path fill="none" stroke="green" stroke-width="0.941873" d="M147.904,-95.3392C141.814,-87.2893 132.058,-74.3947 122.857,-62.2322"/>
<polygon fill="green" stroke="green" stroke-width="0.941873" points="125.452,-59.8608 116.627,-53.9976 119.869,-64.0842 125.452,-59.8608"/>
</g>
</g>
</svg>
