<?xml version="1.0" encoding="UTF-8" standalone="no"?>
<!DOCTYPE svg PUBLIC "-//W3C//DTD SVG 1.1//EN"
 "http://www.w3.org/Graphics/SVG/1.1/DTD/svg11.dtd">
<!-- Generated by graphviz version 2.38.0 (20140413.2041)
 -->
<!-- Title: %3 Pages: 1 -->
<svg width="165pt" height="278pt"
 viewBox="0.00 0.00 164.50 278.25" xmlns="http://www.w3.org/2000/svg" xmlns:xlink="http://www.w3.org/1999/xlink">
<g id="graph0" class="graph" transform="scale(1 1) rotate(0) translate(4 274.25)">
<title>%3</title>
<polygon fill="white" stroke="none" points="-4,4 -4,-274.25 160.5,-274.25 160.5,4 -4,4"/>
<!-- x -->
<g id="node1" class="node"><title>x</title>
<polygon fill="lightgray" stroke="black" points="20,-270.25 0,-270.25 0,-252.25 20,-252.25 20,-270.25"/>
<text text-anchor="middle" x="10" y="-259.05" font-family="Times New Roman,serif" font-size="9.00">x</text>
</g>
<!-- 161 -->
<g id="node6" class="node"><title>161</title>
<ellipse fill="white" stroke="black" cx="35" cy="-116.61" rx="21.4286" ry="21.4286"/>
<text text-anchor="middle" x="35" y="-114.41" font-family="Times New Roman,serif" font-size="9.00">161</text>
</g>
<!-- x&#45;&gt;161 -->
<g id="edge3" class="edge"><title>x&#45;&gt;161</title>
<path fill="none" stroke="green" stroke-width="0.197427" stroke-dasharray="1,5" d="M7.90575,-251.995C4.31118,-236.435 -2.00265,-201.818 5,-173.823 7.65756,-163.199 12.7462,-152.385 17.9882,-143.118"/>
<polygon fill="green" stroke="green" stroke-width="0.197427" points="21.0569,-144.806 23.197,-134.429 15.0532,-141.206 21.0569,-144.806"/>
</g>
<!-- 757 -->
<g id="node7" class="node"><title>757</title>
<ellipse fill="white" stroke="black" cx="35" cy="-195.037" rx="21.4286" ry="21.4286"/>
<text text-anchor="middle" x="35" y="-192.837" font-family="Times New Roman,serif" font-size="9.00">757</text>
</g>
<!-- x&#45;&gt;757 -->
<g id="edge6" class="edge"><title>x&#45;&gt;757</title>
<path fill="none" stroke="green" stroke-width="0.3" d="M13.1663,-252.117C15.8945,-245.11 20.0008,-234.562 23.9188,-224.499"/>
<polygon fill="green" stroke="green" stroke-width="0.3" points="27.1998,-225.719 27.5663,-215.13 20.6767,-223.179 27.1998,-225.719"/>
</g>
<!-- dx -->
<g id="node2" class="node"><title>dx</title>
<polygon fill="lightgray" stroke="black" points="99.5,-125.61 74.5,-125.61 74.5,-107.61 99.5,-107.61 99.5,-125.61"/>
<text text-anchor="middle" x="87" y="-114.41" font-family="Times New Roman,serif" font-size="9.00">dx</text>
</g>
<!-- control -->
<g id="node5" class="node"><title>control</title>
<ellipse fill="lightblue" stroke="black" cx="87" cy="-29.6985" rx="29.8983" ry="29.8983"/>
<text text-anchor="middle" x="87" y="-27.4985" font-family="Times New Roman,serif" font-size="9.00">control</text>
</g>
<!-- dx&#45;&gt;control -->
<g id="edge2" class="edge"><title>dx&#45;&gt;control</title>
<path fill="none" stroke="green" stroke-width="0.374612" d="M87,-107.468C87,-98.6504 87,-83.9334 87,-69.7307"/>
<polygon fill="green" stroke="green" stroke-width="0.374612" points="90.5001,-69.5716 87,-59.5716 83.5001,-69.5716 90.5001,-69.5716"/>
</g>
<!-- theta -->
<g id="node3" class="node"><title>theta</title>
<polygon fill="lightgray" stroke="black" points="109.5,-204.037 74.5,-204.037 74.5,-186.037 109.5,-186.037 109.5,-204.037"/>
<text text-anchor="middle" x="92" y="-192.837" font-family="Times New Roman,serif" font-size="9.00">theta</text>
</g>
<!-- theta&#45;&gt;161 -->
<g id="edge4" class="edge"><title>theta&#45;&gt;161</title>
<path fill="none" stroke="red" stroke-width="0.420953" d="M85.9,-185.858C78.2175,-175.557 64.6687,-157.39 53.4804,-142.389"/>
<polygon fill="red" stroke="red" stroke-width="0.420953" points="56.0121,-139.929 47.2279,-134.006 50.4008,-144.114 56.0121,-139.929"/>
</g>
<!-- dtheta -->
<g id="node4" class="node"><title>dtheta</title>
<polygon fill="lightgray" stroke="black" points="156.5,-125.61 117.5,-125.61 117.5,-107.61 156.5,-107.61 156.5,-125.61"/>
<text text-anchor="middle" x="137" y="-114.41" font-family="Times New Roman,serif" font-size="9.00">dtheta</text>
</g>
<!-- dtheta&#45;&gt;control -->
<g id="edge1" class="edge"><title>dtheta&#45;&gt;control</title>
<path fill="none" stroke="green" stroke-width="0.648685" d="M132.206,-107.468C126.403,-97.6139 116.262,-80.3924 107.054,-64.7546"/>
<polygon fill="green" stroke="green" stroke-width="0.648685" points="109.87,-62.639 101.78,-55.7979 103.838,-66.1909 109.87,-62.639"/>
</g>
<!-- 161&#45;&gt;control -->
<g id="edge5" class="edge"><title>161&#45;&gt;control</title>
<path fill="none" stroke="red" stroke-width="0.810429" d="M45.7744,-98.0164C51.7957,-88.1842 59.499,-75.6053 66.6135,-63.9879"/>
<polygon fill="red" stroke="red" stroke-width="0.810429" points="69.6638,-65.7087 71.9016,-55.3529 63.6943,-62.0529 69.6638,-65.7087"/>
</g>
<!-- 757&#45;&gt;161 -->
<g id="edge7" class="edge"><title>757&#45;&gt;161</title>
<path fill="none" stroke="red" stroke-width="0.285462" d="M35,-173.556C35,-165.697 35,-156.553 35,-147.962"/>
<polygon fill="red" stroke="red" stroke-width="0.285462" points="38.5001,-147.883 35,-137.883 31.5001,-147.883 38.5001,-147.883"/>
</g>
</g>
</svg>
