<?xml version="1.0" encoding="UTF-8" standalone="no"?>
<!DOCTYPE svg PUBLIC "-//W3C//DTD SVG 1.1//EN"
 "http://www.w3.org/Graphics/SVG/1.1/DTD/svg11.dtd">
<!-- Generated by graphviz version 2.38.0 (20140413.2041)
 -->
<!-- Title: %3 Pages: 1 -->
<svg width="179pt" height="278pt"
 viewBox="0.00 0.00 178.71 278.25" xmlns="http://www.w3.org/2000/svg" xmlns:xlink="http://www.w3.org/1999/xlink">
<g id="graph0" class="graph" transform="scale(1 1) rotate(0) translate(4 274.25)">
<title>%3</title>
<polygon fill="white" stroke="none" points="-4,4 -4,-274.25 174.713,-274.25 174.713,4 -4,4"/>
<!-- x -->
<g id="node1" class="node"><title>x</title>
<polygon fill="lightgray" stroke="black" points="31.2132,-270.25 11.2132,-270.25 11.2132,-252.25 31.2132,-252.25 31.2132,-270.25"/>
<text text-anchor="middle" x="21.2132" y="-259.05" font-family="Times New Roman,serif" font-size="9.00">x</text>
</g>
<!-- 757 -->
<g id="node7" class="node"><title>757</title>
<ellipse fill="white" stroke="black" cx="21.2132" cy="-195.037" rx="21.4286" ry="21.4286"/>
<text text-anchor="middle" x="21.2132" y="-192.837" font-family="Times New Roman,serif" font-size="9.00">757</text>
</g>
<!-- x&#45;&gt;757 -->
<g id="edge5" class="edge"><title>x&#45;&gt;757</title>
<path fill="none" stroke="green" stroke-width="0.3" d="M21.2132,-252.117C21.2132,-245.574 21.2132,-235.945 21.2132,-226.506"/>
<polygon fill="green" stroke="green" stroke-width="0.3" points="24.7133,-226.492 21.2132,-216.492 17.7133,-226.492 24.7133,-226.492"/>
</g>
<!-- dx -->
<g id="node2" class="node"><title>dx</title>
<polygon fill="lightgray" stroke="black" points="113.713,-125.61 88.7132,-125.61 88.7132,-107.61 113.713,-107.61 113.713,-125.61"/>
<text text-anchor="middle" x="101.213" y="-114.41" font-family="Times New Roman,serif" font-size="9.00">dx</text>
</g>
<!-- control -->
<g id="node5" class="node"><title>control</title>
<ellipse fill="lightblue" stroke="black" cx="101.213" cy="-29.6985" rx="29.8983" ry="29.8983"/>
<text text-anchor="middle" x="101.213" y="-27.4985" font-family="Times New Roman,serif" font-size="9.00">control</text>
</g>
<!-- dx&#45;&gt;control -->
<g id="edge2" class="edge"><title>dx&#45;&gt;control</title>
<path fill="none" stroke="green" stroke-width="0.374612" d="M101.213,-107.468C101.213,-98.6504 101.213,-83.9334 101.213,-69.7307"/>
<polygon fill="green" stroke="green" stroke-width="0.374612" points="104.713,-69.5716 101.213,-59.5716 97.7133,-69.5716 104.713,-69.5716"/>
</g>
<!-- theta -->
<g id="node3" class="node"><title>theta</title>
<polygon fill="lightgray" stroke="black" points="95.7132,-204.037 60.7132,-204.037 60.7132,-186.037 95.7132,-186.037 95.7132,-204.037"/>
<text text-anchor="middle" x="78.2132" y="-192.837" font-family="Times New Roman,serif" font-size="9.00">theta</text>
</g>
<!-- 161 -->
<g id="node6" class="node"><title>161</title>
<ellipse fill="white" stroke="black" cx="49.2132" cy="-116.61" rx="21.4286" ry="21.4286"/>
<text text-anchor="middle" x="49.2132" y="-114.41" font-family="Times New Roman,serif" font-size="9.00">161</text>
</g>
<!-- theta&#45;&gt;161 -->
<g id="edge3" class="edge"><title>theta&#45;&gt;161</title>
<path fill="none" stroke="red" stroke-width="0.420953" d="M75.1097,-185.858C71.5243,-176.409 65.4277,-160.342 60.0502,-146.17"/>
<polygon fill="red" stroke="red" stroke-width="0.420953" points="63.3021,-144.874 56.482,-136.766 56.7574,-147.358 63.3021,-144.874"/>
</g>
<!-- dtheta -->
<g id="node4" class="node"><title>dtheta</title>
<polygon fill="lightgray" stroke="black" points="170.713,-125.61 131.713,-125.61 131.713,-107.61 170.713,-107.61 170.713,-125.61"/>
<text text-anchor="middle" x="151.213" y="-114.41" font-family="Times New Roman,serif" font-size="9.00">dtheta</text>
</g>
<!-- dtheta&#45;&gt;control -->
<g id="edge1" class="edge"><title>dtheta&#45;&gt;control</title>
<path fill="none" stroke="green" stroke-width="0.648685" d="M146.419,-107.468C140.616,-97.6139 130.475,-80.3924 121.267,-64.7546"/>
<polygon fill="green" stroke="green" stroke-width="0.648685" points="124.083,-62.639 115.993,-55.7979 118.051,-66.1909 124.083,-62.639"/>
</g>
<!-- 161&#45;&gt;control -->
<g id="edge4" class="edge"><title>161&#45;&gt;control</title>
<path fill="none" stroke="red" stroke-width="0.810429" d="M59.9876,-98.0164C66.0089,-88.1842 73.7122,-75.6053 80.8267,-63.9879"/>
<polygon fill="red" stroke="red" stroke-width="0.810429" points="83.877,-65.7087 86.1148,-55.3529 77.9075,-62.0529 83.877,-65.7087"/>
</g>
<!-- 757&#45;&gt;161 -->
<g id="edge6" class="edge"><title>757&#45;&gt;161</title>
<path fill="none" stroke="red" stroke-width="0.285462" d="M28.2788,-174.751C31.4291,-166.152 35.2061,-155.843 38.6793,-146.363"/>
<polygon fill="red" stroke="red" stroke-width="0.285462" points="41.9962,-147.483 42.1499,-136.89 35.4234,-145.075 41.9962,-147.483"/>
</g>
</g>
</svg>
