<?xml version="1.0" encoding="utf-8" standalone="no"?>
<!DOCTYPE svg PUBLIC "-//W3C//DTD SVG 1.1//EN"
  "http://www.w3.org/Graphics/SVG/1.1/DTD/svg11.dtd">
<!-- Created with matplotlib (https://matplotlib.org/) -->
<svg height="345.6pt" version="1.1" viewBox="0 0 460.8 345.6" width="460.8pt" xmlns="http://www.w3.org/2000/svg" xmlns:xlink="http://www.w3.org/1999/xlink">
 <defs>
  <style type="text/css">
*{stroke-linecap:butt;stroke-linejoin:round;}
  </style>
 </defs>
 <g id="figure_1">
  <g id="patch_1">
   <path d="M 0 345.6 
L 460.8 345.6 
L 460.8 0 
L 0 0 
z
" style="fill:#ffffff;"/>
  </g>
  <g id="axes_1">
   <g id="patch_2">
    <path d="M 57.6 307.584 
L 414.72 307.584 
L 414.72 41.472 
L 57.6 41.472 
z
" style="fill:#ffffff;"/>
   </g>
   <g id="PolyCollection_1">
    <path clip-path="url(#p509da060cf)" d="M 73.832727 268.669984 
L 73.832727 307.584 
L 85.85697 307.584 
L 97.881212 307.584 
L 109.905455 307.584 
L 121.929697 307.584 
L 133.953939 307.584 
L 145.978182 307.584 
L 158.002424 307.584 
L 170.026667 307.584 
L 182.050909 307.584 
L 194.075152 307.584 
L 206.099394 307.584 
L 218.123636 307.584 
L 230.147879 307.584 
L 242.172121 307.584 
L 254.196364 307.584 
L 266.220606 307.584 
L 278.244848 307.584 
L 290.269091 307.584 
L 302.293333 307.584 
L 314.317576 307.584 
L 326.341818 307.584 
L 338.366061 307.584 
L 350.390303 307.584 
L 362.414545 307.584 
L 374.438788 307.584 
L 386.46303 307.584 
L 398.487273 307.584 
L 398.487273 276.652346 
L 398.487273 276.652346 
L 386.46303 274.656756 
L 374.438788 290.62148 
L 362.414545 270.665575 
L 350.390303 282.639118 
L 338.366061 257.694236 
L 326.341818 271.66337 
L 314.317576 282.639118 
L 302.293333 284.634709 
L 290.269091 278.647937 
L 278.244848 284.634709 
L 266.220606 293.614866 
L 254.196364 298.603843 
L 242.172121 284.634709 
L 230.147879 293.614866 
L 218.123636 291.619276 
L 206.099394 288.62589 
L 194.075152 285.632504 
L 182.050909 284.634709 
L 170.026667 299.601638 
L 158.002424 287.628094 
L 145.978182 287.628094 
L 133.953939 291.619276 
L 121.929697 290.62148 
L 109.905455 287.628094 
L 97.881212 294.612661 
L 85.85697 293.614866 
L 73.832727 268.669984 
z
" style="fill:#1f77b4;"/>
   </g>
   <g id="PolyCollection_2">
    <path clip-path="url(#p509da060cf)" d="M 73.832727 201.817701 
L 73.832727 268.669984 
L 85.85697 293.614866 
L 97.881212 294.612661 
L 109.905455 287.628094 
L 121.929697 290.62148 
L 133.953939 291.619276 
L 145.978182 287.628094 
L 158.002424 287.628094 
L 170.026667 299.601638 
L 182.050909 284.634709 
L 194.075152 285.632504 
L 206.099394 288.62589 
L 218.123636 291.619276 
L 230.147879 293.614866 
L 242.172121 284.634709 
L 254.196364 298.603843 
L 266.220606 293.614866 
L 278.244848 284.634709 
L 290.269091 278.647937 
L 302.293333 284.634709 
L 314.317576 282.639118 
L 326.341818 271.66337 
L 338.366061 257.694236 
L 350.390303 282.639118 
L 362.414545 270.665575 
L 374.438788 290.62148 
L 386.46303 274.656756 
L 398.487273 276.652346 
L 398.487273 270.665575 
L 398.487273 270.665575 
L 386.46303 267.672189 
L 374.438788 273.658961 
L 362.414545 252.70526 
L 350.390303 266.674394 
L 338.366061 239.733921 
L 326.341818 243.725102 
L 314.317576 265.676598 
L 302.293333 271.66337 
L 290.269091 267.672189 
L 278.244848 265.676598 
L 266.220606 244.722898 
L 254.196364 258.692031 
L 242.172121 248.714079 
L 230.147879 267.672189 
L 218.123636 273.658961 
L 206.099394 269.66778 
L 194.075152 263.681008 
L 182.050909 261.685417 
L 170.026667 283.636913 
L 158.002424 273.658961 
L 145.978182 268.669984 
L 133.953939 268.669984 
L 121.929697 262.683213 
L 109.905455 251.707465 
L 97.881212 258.692031 
L 85.85697 269.66778 
L 73.832727 201.817701 
z
" style="fill:#ff7f0e;"/>
   </g>
   <g id="PolyCollection_3">
    <path clip-path="url(#p509da060cf)" d="M 73.832727 200.819906 
L 73.832727 201.817701 
L 85.85697 269.66778 
L 97.881212 258.692031 
L 109.905455 251.707465 
L 121.929697 262.683213 
L 133.953939 268.669984 
L 145.978182 268.669984 
L 158.002424 273.658961 
L 170.026667 283.636913 
L 182.050909 261.685417 
L 194.075152 263.681008 
L 206.099394 269.66778 
L 218.123636 273.658961 
L 230.147879 267.672189 
L 242.172121 248.714079 
L 254.196364 258.692031 
L 266.220606 244.722898 
L 278.244848 265.676598 
L 290.269091 267.672189 
L 302.293333 271.66337 
L 314.317576 265.676598 
L 326.341818 243.725102 
L 338.366061 239.733921 
L 350.390303 266.674394 
L 362.414545 252.70526 
L 374.438788 273.658961 
L 386.46303 267.672189 
L 398.487273 270.665575 
L 398.487273 268.669984 
L 398.487273 268.669984 
L 386.46303 264.678803 
L 374.438788 271.66337 
L 362.414545 250.709669 
L 350.390303 264.678803 
L 338.366061 237.738331 
L 326.341818 241.729512 
L 314.317576 263.681008 
L 302.293333 267.672189 
L 290.269091 264.678803 
L 278.244848 261.685417 
L 266.220606 241.729512 
L 254.196364 256.696441 
L 242.172121 246.718488 
L 230.147879 265.676598 
L 218.123636 270.665575 
L 206.099394 267.672189 
L 194.075152 260.687622 
L 182.050909 259.689827 
L 170.026667 280.643528 
L 158.002424 270.665575 
L 145.978182 266.674394 
L 133.953939 263.681008 
L 121.929697 258.692031 
L 109.905455 245.720693 
L 97.881212 251.707465 
L 85.85697 266.674394 
L 73.832727 200.819906 
z
" style="fill:#2ca02c;"/>
   </g>
   <g id="PolyCollection_4">
    <path clip-path="url(#p509da060cf)" d="M 73.832727 176.872819 
L 73.832727 200.819906 
L 85.85697 266.674394 
L 97.881212 251.707465 
L 109.905455 245.720693 
L 121.929697 258.692031 
L 133.953939 263.681008 
L 145.978182 266.674394 
L 158.002424 270.665575 
L 170.026667 280.643528 
L 182.050909 259.689827 
L 194.075152 260.687622 
L 206.099394 267.672189 
L 218.123636 270.665575 
L 230.147879 265.676598 
L 242.172121 246.718488 
L 254.196364 256.696441 
L 266.220606 241.729512 
L 278.244848 261.685417 
L 290.269091 264.678803 
L 302.293333 267.672189 
L 314.317576 263.681008 
L 326.341818 241.729512 
L 338.366061 237.738331 
L 350.390303 264.678803 
L 362.414545 250.709669 
L 374.438788 271.66337 
L 386.46303 264.678803 
L 398.487273 268.669984 
L 398.487273 243.725102 
L 398.487273 243.725102 
L 386.46303 246.718488 
L 374.438788 246.718488 
L 362.414545 226.762583 
L 350.390303 245.720693 
L 338.366061 216.78463 
L 326.341818 228.758173 
L 314.317576 233.74715 
L 302.293333 252.70526 
L 290.269091 257.694236 
L 278.244848 236.740535 
L 266.220606 227.760378 
L 254.196364 241.729512 
L 242.172121 225.764787 
L 230.147879 242.727307 
L 218.123636 249.711874 
L 206.099394 245.720693 
L 194.075152 246.718488 
L 182.050909 255.698646 
L 170.026667 254.70085 
L 158.002424 251.707465 
L 145.978182 256.696441 
L 133.953939 258.692031 
L 121.929697 252.70526 
L 109.905455 237.738331 
L 97.881212 240.731717 
L 85.85697 258.692031 
L 73.832727 176.872819 
z
" style="fill:#d62728;"/>
   </g>
   <g id="PolyCollection_5">
    <path clip-path="url(#p509da060cf)" d="M 73.832727 147.936756 
L 73.832727 176.872819 
L 85.85697 258.692031 
L 97.881212 240.731717 
L 109.905455 237.738331 
L 121.929697 252.70526 
L 133.953939 258.692031 
L 145.978182 256.696441 
L 158.002424 251.707465 
L 170.026667 254.70085 
L 182.050909 255.698646 
L 194.075152 246.718488 
L 206.099394 245.720693 
L 218.123636 249.711874 
L 230.147879 242.727307 
L 242.172121 225.764787 
L 254.196364 241.729512 
L 266.220606 227.760378 
L 278.244848 236.740535 
L 290.269091 257.694236 
L 302.293333 252.70526 
L 314.317576 233.74715 
L 326.341818 228.758173 
L 338.366061 216.78463 
L 350.390303 245.720693 
L 362.414545 226.762583 
L 374.438788 246.718488 
L 386.46303 246.718488 
L 398.487273 243.725102 
L 398.487273 236.740535 
L 398.487273 236.740535 
L 386.46303 220.775811 
L 374.438788 234.744945 
L 362.414545 211.795654 
L 350.390303 232.749354 
L 338.366061 213.791244 
L 326.341818 214.789039 
L 314.317576 220.775811 
L 302.293333 242.727307 
L 290.269091 248.714079 
L 278.244848 223.769197 
L 266.220606 210.797858 
L 254.196364 227.760378 
L 242.172121 213.791244 
L 230.147879 234.744945 
L 218.123636 235.74274 
L 206.099394 229.755969 
L 194.075152 228.758173 
L 182.050909 240.731717 
L 170.026667 235.74274 
L 158.002424 234.744945 
L 145.978182 240.731717 
L 133.953939 249.711874 
L 121.929697 233.74715 
L 109.905455 224.766992 
L 97.881212 231.751559 
L 85.85697 243.725102 
L 73.832727 147.936756 
z
" style="fill:#9467bd;"/>
   </g>
   <g id="PolyCollection_6">
    <path clip-path="url(#p509da060cf)" d="M 73.832727 123.989669 
L 73.832727 147.936756 
L 85.85697 243.725102 
L 97.881212 231.751559 
L 109.905455 224.766992 
L 121.929697 233.74715 
L 133.953939 249.711874 
L 145.978182 240.731717 
L 158.002424 234.744945 
L 170.026667 235.74274 
L 182.050909 240.731717 
L 194.075152 228.758173 
L 206.099394 229.755969 
L 218.123636 235.74274 
L 230.147879 234.744945 
L 242.172121 213.791244 
L 254.196364 227.760378 
L 266.220606 210.797858 
L 278.244848 223.769197 
L 290.269091 248.714079 
L 302.293333 242.727307 
L 314.317576 220.775811 
L 326.341818 214.789039 
L 338.366061 213.791244 
L 350.390303 232.749354 
L 362.414545 211.795654 
L 374.438788 234.744945 
L 386.46303 220.775811 
L 398.487273 236.740535 
L 398.487273 236.740535 
L 398.487273 236.740535 
L 386.46303 220.775811 
L 374.438788 234.744945 
L 362.414545 211.795654 
L 350.390303 230.753764 
L 338.366061 202.815496 
L 326.341818 211.795654 
L 314.317576 195.830929 
L 302.293333 223.769197 
L 290.269091 234.744945 
L 278.244848 217.782425 
L 266.220606 203.813291 
L 254.196364 223.769197 
L 242.172121 197.82652 
L 230.147879 221.773606 
L 218.123636 220.775811 
L 206.099394 218.78022 
L 194.075152 216.78463 
L 182.050909 231.751559 
L 170.026667 225.764787 
L 158.002424 221.773606 
L 145.978182 203.813291 
L 133.953939 223.769197 
L 121.929697 209.800063 
L 109.905455 198.824315 
L 97.881212 212.793449 
L 85.85697 212.793449 
L 73.832727 123.989669 
z
" style="fill:#8c564b;"/>
   </g>
   <g id="PolyCollection_7">
    <path clip-path="url(#p509da060cf)" d="M 73.832727 122.991874 
L 73.832727 123.989669 
L 85.85697 212.793449 
L 97.881212 212.793449 
L 109.905455 198.824315 
L 121.929697 209.800063 
L 133.953939 223.769197 
L 145.978182 203.813291 
L 158.002424 221.773606 
L 170.026667 225.764787 
L 182.050909 231.751559 
L 194.075152 216.78463 
L 206.099394 218.78022 
L 218.123636 220.775811 
L 230.147879 221.773606 
L 242.172121 197.82652 
L 254.196364 223.769197 
L 266.220606 203.813291 
L 278.244848 217.782425 
L 290.269091 234.744945 
L 302.293333 223.769197 
L 314.317576 195.830929 
L 326.341818 211.795654 
L 338.366061 202.815496 
L 350.390303 230.753764 
L 362.414545 211.795654 
L 374.438788 234.744945 
L 386.46303 220.775811 
L 398.487273 236.740535 
L 398.487273 230.753764 
L 398.487273 230.753764 
L 386.46303 211.795654 
L 374.438788 224.766992 
L 362.414545 200.819906 
L 350.390303 221.773606 
L 338.366061 191.839748 
L 326.341818 204.811087 
L 314.317576 185.852976 
L 302.293333 214.789039 
L 290.269091 224.766992 
L 278.244848 209.800063 
L 266.220606 193.835339 
L 254.196364 212.793449 
L 242.172121 185.852976 
L 230.147879 210.797858 
L 218.123636 212.793449 
L 206.099394 207.804472 
L 194.075152 205.808882 
L 182.050909 219.778016 
L 170.026667 213.791244 
L 158.002424 210.797858 
L 145.978182 189.844157 
L 133.953939 211.795654 
L 121.929697 192.837543 
L 109.905455 182.859591 
L 97.881212 201.817701 
L 85.85697 200.819906 
L 73.832727 122.991874 
z
" style="fill:#e377c2;"/>
   </g>
   <g id="PolyCollection_8">
    <path clip-path="url(#p509da060cf)" d="M 73.832727 111.018331 
L 73.832727 122.991874 
L 85.85697 200.819906 
L 97.881212 201.817701 
L 109.905455 182.859591 
L 121.929697 192.837543 
L 133.953939 211.795654 
L 145.978182 189.844157 
L 158.002424 210.797858 
L 170.026667 213.791244 
L 182.050909 219.778016 
L 194.075152 205.808882 
L 206.099394 207.804472 
L 218.123636 212.793449 
L 230.147879 210.797858 
L 242.172121 185.852976 
L 254.196364 212.793449 
L 266.220606 193.835339 
L 278.244848 209.800063 
L 290.269091 224.766992 
L 302.293333 214.789039 
L 314.317576 185.852976 
L 326.341818 204.811087 
L 338.366061 191.839748 
L 350.390303 221.773606 
L 362.414545 200.819906 
L 374.438788 224.766992 
L 386.46303 211.795654 
L 398.487273 230.753764 
L 398.487273 213.791244 
L 398.487273 213.791244 
L 386.46303 196.828724 
L 374.438788 207.804472 
L 362.414545 195.830929 
L 350.390303 216.78463 
L 338.366061 189.844157 
L 326.341818 194.833134 
L 314.317576 180.864 
L 302.293333 209.800063 
L 290.269091 218.78022 
L 278.244848 198.824315 
L 266.220606 184.855181 
L 254.196364 186.850772 
L 242.172121 180.864 
L 230.147879 198.824315 
L 218.123636 192.837543 
L 206.099394 197.82652 
L 194.075152 196.828724 
L 182.050909 199.82211 
L 170.026667 203.813291 
L 158.002424 201.817701 
L 145.978182 181.861795 
L 133.953939 204.811087 
L 121.929697 181.861795 
L 109.905455 173.879433 
L 97.881212 190.841953 
L 85.85697 189.844157 
L 73.832727 111.018331 
z
" style="fill:#7f7f7f;"/>
   </g>
   <g id="PolyCollection_9">
    <path clip-path="url(#p509da060cf)" d="M 73.832727 103.035969 
L 73.832727 111.018331 
L 85.85697 189.844157 
L 97.881212 190.841953 
L 109.905455 173.879433 
L 121.929697 181.861795 
L 133.953939 204.811087 
L 145.978182 181.861795 
L 158.002424 201.817701 
L 170.026667 203.813291 
L 182.050909 199.82211 
L 194.075152 196.828724 
L 206.099394 197.82652 
L 218.123636 192.837543 
L 230.147879 198.824315 
L 242.172121 180.864 
L 254.196364 186.850772 
L 266.220606 184.855181 
L 278.244848 198.824315 
L 290.269091 218.78022 
L 302.293333 209.800063 
L 314.317576 180.864 
L 326.341818 194.833134 
L 338.366061 189.844157 
L 350.390303 216.78463 
L 362.414545 195.830929 
L 374.438788 207.804472 
L 386.46303 196.828724 
L 398.487273 213.791244 
L 398.487273 209.800063 
L 398.487273 209.800063 
L 386.46303 189.844157 
L 374.438788 198.824315 
L 362.414545 183.857386 
L 350.390303 205.808882 
L 338.366061 183.857386 
L 326.341818 188.846362 
L 314.317576 170.886047 
L 302.293333 197.82652 
L 290.269091 208.802268 
L 278.244848 187.848567 
L 266.220606 170.886047 
L 254.196364 168.890457 
L 242.172121 161.90589 
L 230.147879 184.855181 
L 218.123636 179.866205 
L 206.099394 183.857386 
L 194.075152 188.846362 
L 182.050909 186.850772 
L 170.026667 193.835339 
L 158.002424 191.839748 
L 145.978182 178.868409 
L 133.953939 199.82211 
L 121.929697 177.870614 
L 109.905455 168.890457 
L 97.881212 184.855181 
L 85.85697 184.855181 
L 73.832727 103.035969 
z
" style="fill:#bcbd22;"/>
   </g>
   <g id="PolyCollection_10">
    <path clip-path="url(#p509da060cf)" d="M 73.832727 102.038173 
L 73.832727 103.035969 
L 85.85697 184.855181 
L 97.881212 184.855181 
L 109.905455 168.890457 
L 121.929697 177.870614 
L 133.953939 199.82211 
L 145.978182 178.868409 
L 158.002424 191.839748 
L 170.026667 193.835339 
L 182.050909 186.850772 
L 194.075152 188.846362 
L 206.099394 183.857386 
L 218.123636 179.866205 
L 230.147879 184.855181 
L 242.172121 161.90589 
L 254.196364 168.890457 
L 266.220606 170.886047 
L 278.244848 187.848567 
L 290.269091 208.802268 
L 302.293333 197.82652 
L 314.317576 170.886047 
L 326.341818 188.846362 
L 338.366061 183.857386 
L 350.390303 205.808882 
L 362.414545 183.857386 
L 374.438788 198.824315 
L 386.46303 189.844157 
L 398.487273 209.800063 
L 398.487273 209.800063 
L 398.487273 209.800063 
L 386.46303 189.844157 
L 374.438788 198.824315 
L 362.414545 183.857386 
L 350.390303 203.813291 
L 338.366061 181.861795 
L 326.341818 185.852976 
L 314.317576 168.890457 
L 302.293333 194.833134 
L 290.269091 206.806677 
L 278.244848 184.855181 
L 266.220606 168.890457 
L 254.196364 166.894866 
L 242.172121 160.908094 
L 230.147879 182.859591 
L 218.123636 176.872819 
L 206.099394 181.861795 
L 194.075152 185.852976 
L 182.050909 184.855181 
L 170.026667 190.841953 
L 158.002424 189.844157 
L 145.978182 175.875024 
L 133.953939 195.830929 
L 121.929697 173.879433 
L 109.905455 164.899276 
L 97.881212 180.864 
L 85.85697 182.859591 
L 73.832727 102.038173 
z
" style="fill:#17becf;"/>
   </g>
   <g id="PolyCollection_11">
    <path clip-path="url(#p509da060cf)" d="M 73.832727 93.058016 
L 73.832727 102.038173 
L 85.85697 182.859591 
L 97.881212 180.864 
L 109.905455 164.899276 
L 121.929697 173.879433 
L 133.953939 195.830929 
L 145.978182 175.875024 
L 158.002424 189.844157 
L 170.026667 190.841953 
L 182.050909 184.855181 
L 194.075152 185.852976 
L 206.099394 181.861795 
L 218.123636 176.872819 
L 230.147879 182.859591 
L 242.172121 160.908094 
L 254.196364 166.894866 
L 266.220606 168.890457 
L 278.244848 184.855181 
L 290.269091 206.806677 
L 302.293333 194.833134 
L 314.317576 168.890457 
L 326.341818 185.852976 
L 338.366061 181.861795 
L 350.390303 203.813291 
L 362.414545 183.857386 
L 374.438788 198.824315 
L 386.46303 189.844157 
L 398.487273 209.800063 
L 398.487273 191.839748 
L 398.487273 191.839748 
L 386.46303 169.888252 
L 374.438788 177.870614 
L 362.414545 168.890457 
L 350.390303 192.837543 
L 338.366061 174.877228 
L 326.341818 147.936756 
L 314.317576 150.930142 
L 302.293333 172.881638 
L 290.269091 184.855181 
L 278.244848 166.894866 
L 266.220606 158.912504 
L 254.196364 158.912504 
L 242.172121 153.923528 
L 230.147879 172.881638 
L 218.123636 169.888252 
L 206.099394 167.892661 
L 194.075152 172.881638 
L 182.050909 151.927937 
L 170.026667 141.949984 
L 158.002424 159.910299 
L 145.978182 156.916913 
L 133.953939 181.861795 
L 121.929697 162.903685 
L 109.905455 154.921323 
L 97.881212 160.908094 
L 85.85697 158.912504 
L 73.832727 93.058016 
z
" style="fill:#1f77b4;"/>
   </g>
   <g id="PolyCollection_12">
    <path clip-path="url(#p509da060cf)" d="M 73.832727 92.06022 
L 73.832727 93.058016 
L 85.85697 158.912504 
L 97.881212 160.908094 
L 109.905455 154.921323 
L 121.929697 162.903685 
L 133.953939 181.861795 
L 145.978182 156.916913 
L 158.002424 159.910299 
L 170.026667 141.949984 
L 182.050909 151.927937 
L 194.075152 172.881638 
L 206.099394 167.892661 
L 218.123636 169.888252 
L 230.147879 172.881638 
L 242.172121 153.923528 
L 254.196364 158.912504 
L 266.220606 158.912504 
L 278.244848 166.894866 
L 290.269091 184.855181 
L 302.293333 172.881638 
L 314.317576 150.930142 
L 326.341818 147.936756 
L 338.366061 174.877228 
L 350.390303 192.837543 
L 362.414545 168.890457 
L 374.438788 177.870614 
L 386.46303 169.888252 
L 398.487273 191.839748 
L 398.487273 188.846362 
L 398.487273 188.846362 
L 386.46303 164.899276 
L 374.438788 173.879433 
L 362.414545 165.897071 
L 350.390303 188.846362 
L 338.366061 171.883843 
L 326.341818 144.94337 
L 314.317576 148.934551 
L 302.293333 168.890457 
L 290.269091 180.864 
L 278.244848 161.90589 
L 266.220606 154.921323 
L 254.196364 153.923528 
L 242.172121 150.930142 
L 230.147879 170.886047 
L 218.123636 166.894866 
L 206.099394 163.90148 
L 194.075152 169.888252 
L 182.050909 147.936756 
L 170.026667 136.961008 
L 158.002424 154.921323 
L 145.978182 152.925732 
L 133.953939 178.868409 
L 121.929697 157.914709 
L 109.905455 148.934551 
L 97.881212 153.923528 
L 85.85697 150.930142 
L 73.832727 92.06022 
z
" style="fill:#ff7f0e;"/>
   </g>
   <g id="PolyCollection_13">
    <path clip-path="url(#p509da060cf)" d="M 73.832727 90.06463 
L 73.832727 92.06022 
L 85.85697 150.930142 
L 97.881212 153.923528 
L 109.905455 148.934551 
L 121.929697 157.914709 
L 133.953939 178.868409 
L 145.978182 152.925732 
L 158.002424 154.921323 
L 170.026667 136.961008 
L 182.050909 147.936756 
L 194.075152 169.888252 
L 206.099394 163.90148 
L 218.123636 166.894866 
L 230.147879 170.886047 
L 242.172121 150.930142 
L 254.196364 153.923528 
L 266.220606 154.921323 
L 278.244848 161.90589 
L 290.269091 180.864 
L 302.293333 168.890457 
L 314.317576 148.934551 
L 326.341818 144.94337 
L 338.366061 171.883843 
L 350.390303 188.846362 
L 362.414545 165.897071 
L 374.438788 173.879433 
L 386.46303 164.899276 
L 398.487273 188.846362 
L 398.487273 177.870614 
L 398.487273 177.870614 
L 386.46303 156.916913 
L 374.438788 164.899276 
L 362.414545 160.908094 
L 350.390303 183.857386 
L 338.366061 164.899276 
L 326.341818 141.949984 
L 314.317576 139.954394 
L 302.293333 154.921323 
L 290.269091 143.945575 
L 278.244848 149.932346 
L 266.220606 123.989669 
L 254.196364 141.949984 
L 242.172121 139.954394 
L 230.147879 158.912504 
L 218.123636 154.921323 
L 206.099394 152.925732 
L 194.075152 158.912504 
L 182.050909 139.954394 
L 170.026667 129.976441 
L 158.002424 148.934551 
L 145.978182 146.938961 
L 133.953939 174.877228 
L 121.929697 153.923528 
L 109.905455 145.941165 
L 97.881212 150.930142 
L 85.85697 147.936756 
L 73.832727 90.06463 
z
" style="fill:#2ca02c;"/>
   </g>
   <g id="PolyCollection_14">
    <path clip-path="url(#p509da060cf)" d="M 73.832727 87.071244 
L 73.832727 90.06463 
L 85.85697 147.936756 
L 97.881212 150.930142 
L 109.905455 145.941165 
L 121.929697 153.923528 
L 133.953939 174.877228 
L 145.978182 146.938961 
L 158.002424 148.934551 
L 170.026667 129.976441 
L 182.050909 139.954394 
L 194.075152 158.912504 
L 206.099394 152.925732 
L 218.123636 154.921323 
L 230.147879 158.912504 
L 242.172121 139.954394 
L 254.196364 141.949984 
L 266.220606 123.989669 
L 278.244848 149.932346 
L 290.269091 143.945575 
L 302.293333 154.921323 
L 314.317576 139.954394 
L 326.341818 141.949984 
L 338.366061 164.899276 
L 350.390303 183.857386 
L 362.414545 160.908094 
L 374.438788 164.899276 
L 386.46303 156.916913 
L 398.487273 177.870614 
L 398.487273 152.925732 
L 398.487273 152.925732 
L 386.46303 137.958803 
L 374.438788 126.983055 
L 362.414545 135.963213 
L 350.390303 128.978646 
L 338.366061 143.945575 
L 326.341818 129.976441 
L 314.317576 115.009512 
L 302.293333 109.02274 
L 290.269091 118.002898 
L 278.244848 123.989669 
L 266.220606 107.02715 
L 254.196364 107.02715 
L 242.172121 121.994079 
L 230.147879 131.972031 
L 218.123636 122.991874 
L 206.099394 135.963213 
L 194.075152 139.954394 
L 182.050909 121.994079 
L 170.026667 123.989669 
L 158.002424 135.963213 
L 145.978182 139.954394 
L 133.953939 150.930142 
L 121.929697 119.000693 
L 109.905455 109.02274 
L 97.881212 129.976441 
L 85.85697 115.009512 
L 73.832727 87.071244 
z
" style="fill:#d62728;"/>
   </g>
   <g id="PolyCollection_15">
    <path clip-path="url(#p509da060cf)" d="M 73.832727 82.082268 
L 73.832727 87.071244 
L 85.85697 115.009512 
L 97.881212 129.976441 
L 109.905455 109.02274 
L 121.929697 119.000693 
L 133.953939 150.930142 
L 145.978182 139.954394 
L 158.002424 135.963213 
L 170.026667 123.989669 
L 182.050909 121.994079 
L 194.075152 139.954394 
L 206.099394 135.963213 
L 218.123636 122.991874 
L 230.147879 131.972031 
L 242.172121 121.994079 
L 254.196364 107.02715 
L 266.220606 107.02715 
L 278.244848 123.989669 
L 290.269091 118.002898 
L 302.293333 109.02274 
L 314.317576 115.009512 
L 326.341818 129.976441 
L 338.366061 143.945575 
L 350.390303 128.978646 
L 362.414545 135.963213 
L 374.438788 126.983055 
L 386.46303 137.958803 
L 398.487273 152.925732 
L 398.487273 152.925732 
L 398.487273 152.925732 
L 386.46303 137.958803 
L 374.438788 124.987465 
L 362.414545 133.967622 
L 350.390303 126.983055 
L 338.366061 140.952189 
L 326.341818 125.98526 
L 314.317576 112.016126 
L 302.293333 107.02715 
L 290.269091 115.009512 
L 278.244848 121.994079 
L 266.220606 104.033764 
L 254.196364 105.031559 
L 242.172121 120.996283 
L 230.147879 127.98085 
L 218.123636 119.000693 
L 206.099394 132.969827 
L 194.075152 137.958803 
L 182.050909 119.000693 
L 170.026667 119.000693 
L 158.002424 131.972031 
L 145.978182 136.961008 
L 133.953939 147.936756 
L 121.929697 117.005102 
L 109.905455 107.02715 
L 97.881212 126.983055 
L 85.85697 113.013921 
L 73.832727 82.082268 
z
" style="fill:#9467bd;"/>
   </g>
   <g id="PolyCollection_16">
    <path clip-path="url(#p509da060cf)" d="M 73.832727 78.091087 
L 73.832727 82.082268 
L 85.85697 113.013921 
L 97.881212 126.983055 
L 109.905455 107.02715 
L 121.929697 117.005102 
L 133.953939 147.936756 
L 145.978182 136.961008 
L 158.002424 131.972031 
L 170.026667 119.000693 
L 182.050909 119.000693 
L 194.075152 137.958803 
L 206.099394 132.969827 
L 218.123636 119.000693 
L 230.147879 127.98085 
L 242.172121 120.996283 
L 254.196364 105.031559 
L 266.220606 104.033764 
L 278.244848 121.994079 
L 290.269091 115.009512 
L 302.293333 107.02715 
L 314.317576 112.016126 
L 326.341818 125.98526 
L 338.366061 140.952189 
L 350.390303 126.983055 
L 362.414545 133.967622 
L 374.438788 124.987465 
L 386.46303 137.958803 
L 398.487273 152.925732 
L 398.487273 152.925732 
L 398.487273 152.925732 
L 386.46303 131.972031 
L 374.438788 117.005102 
L 362.414545 123.989669 
L 350.390303 119.998488 
L 338.366061 113.013921 
L 326.341818 121.994079 
L 314.317576 102.038173 
L 302.293333 101.040378 
L 290.269091 100.042583 
L 278.244848 91.062425 
L 266.220606 90.06463 
L 254.196364 77.093291 
L 242.172121 111.018331 
L 230.147879 103.035969 
L 218.123636 98.046992 
L 206.099394 109.02274 
L 194.075152 118.002898 
L 182.050909 109.02274 
L 170.026667 94.055811 
L 158.002424 102.038173 
L 145.978182 102.038173 
L 133.953939 112.016126 
L 121.929697 101.040378 
L 109.905455 99.044787 
L 97.881212 100.042583 
L 85.85697 95.053606 
L 73.832727 78.091087 
z
" style="fill:#8c564b;"/>
   </g>
   <g id="PolyCollection_17">
    <path clip-path="url(#p509da060cf)" d="M 73.832727 66.117543 
L 73.832727 78.091087 
L 85.85697 95.053606 
L 97.881212 100.042583 
L 109.905455 99.044787 
L 121.929697 101.040378 
L 133.953939 112.016126 
L 145.978182 102.038173 
L 158.002424 102.038173 
L 170.026667 94.055811 
L 182.050909 109.02274 
L 194.075152 118.002898 
L 206.099394 109.02274 
L 218.123636 98.046992 
L 230.147879 103.035969 
L 242.172121 111.018331 
L 254.196364 77.093291 
L 266.220606 90.06463 
L 278.244848 91.062425 
L 290.269091 100.042583 
L 302.293333 101.040378 
L 314.317576 102.038173 
L 326.341818 121.994079 
L 338.366061 113.013921 
L 350.390303 119.998488 
L 362.414545 123.989669 
L 374.438788 117.005102 
L 386.46303 131.972031 
L 398.487273 152.925732 
L 398.487273 123.989669 
L 398.487273 123.989669 
L 386.46303 108.024945 
L 374.438788 97.049197 
L 362.414545 91.062425 
L 350.390303 93.058016 
L 338.366061 75.097701 
L 326.341818 87.071244 
L 314.317576 85.075654 
L 302.293333 86.073449 
L 290.269091 78.091087 
L 278.244848 75.097701 
L 266.220606 80.086677 
L 254.196364 66.117543 
L 242.172121 87.071244 
L 230.147879 83.080063 
L 218.123636 74.099906 
L 206.099394 81.084472 
L 194.075152 82.082268 
L 182.050909 86.073449 
L 170.026667 76.095496 
L 158.002424 69.110929 
L 145.978182 69.110929 
L 133.953939 77.093291 
L 121.929697 83.080063 
L 109.905455 82.082268 
L 97.881212 87.071244 
L 85.85697 80.086677 
L 73.832727 66.117543 
z
" style="fill:#e377c2;"/>
   </g>
   <g id="PolyCollection_18">
    <path clip-path="url(#p509da060cf)" d="M 73.832727 65.119748 
L 73.832727 66.117543 
L 85.85697 80.086677 
L 97.881212 87.071244 
L 109.905455 82.082268 
L 121.929697 83.080063 
L 133.953939 77.093291 
L 145.978182 69.110929 
L 158.002424 69.110929 
L 170.026667 76.095496 
L 182.050909 86.073449 
L 194.075152 82.082268 
L 206.099394 81.084472 
L 218.123636 74.099906 
L 230.147879 83.080063 
L 242.172121 87.071244 
L 254.196364 66.117543 
L 266.220606 80.086677 
L 278.244848 75.097701 
L 290.269091 78.091087 
L 302.293333 86.073449 
L 314.317576 85.075654 
L 326.341818 87.071244 
L 338.366061 75.097701 
L 350.390303 93.058016 
L 362.414545 91.062425 
L 374.438788 97.049197 
L 386.46303 108.024945 
L 398.487273 123.989669 
L 398.487273 100.042583 
L 398.487273 100.042583 
L 386.46303 84.077858 
L 374.438788 76.095496 
L 362.414545 73.10211 
L 350.390303 77.093291 
L 338.366061 61.128567 
L 326.341818 77.093291 
L 314.317576 77.093291 
L 302.293333 80.086677 
L 290.269091 72.104315 
L 278.244848 70.108724 
L 266.220606 76.095496 
L 254.196364 63.124157 
L 242.172121 82.082268 
L 230.147879 79.088882 
L 218.123636 71.10652 
L 206.099394 76.095496 
L 194.075152 77.093291 
L 182.050909 82.082268 
L 170.026667 72.104315 
L 158.002424 65.119748 
L 145.978182 66.117543 
L 133.953939 73.10211 
L 121.929697 80.086677 
L 109.905455 78.091087 
L 97.881212 82.082268 
L 85.85697 78.091087 
L 73.832727 65.119748 
z
" style="fill:#7f7f7f;"/>
   </g>
   <g id="PolyCollection_19">
    <path clip-path="url(#p509da060cf)" d="M 73.832727 60.130772 
L 73.832727 65.119748 
L 85.85697 78.091087 
L 97.881212 82.082268 
L 109.905455 78.091087 
L 121.929697 80.086677 
L 133.953939 73.10211 
L 145.978182 66.117543 
L 158.002424 65.119748 
L 170.026667 72.104315 
L 182.050909 82.082268 
L 194.075152 77.093291 
L 206.099394 76.095496 
L 218.123636 71.10652 
L 230.147879 79.088882 
L 242.172121 82.082268 
L 254.196364 63.124157 
L 266.220606 76.095496 
L 278.244848 70.108724 
L 290.269091 72.104315 
L 302.293333 80.086677 
L 314.317576 77.093291 
L 326.341818 77.093291 
L 338.366061 61.128567 
L 350.390303 77.093291 
L 362.414545 73.10211 
L 374.438788 76.095496 
L 386.46303 84.077858 
L 398.487273 100.042583 
L 398.487273 65.119748 
L 398.487273 65.119748 
L 386.46303 59.132976 
L 374.438788 63.124157 
L 362.414545 63.124157 
L 350.390303 63.124157 
L 338.366061 60.130772 
L 326.341818 62.126362 
L 314.317576 64.121953 
L 302.293333 63.124157 
L 290.269091 63.124157 
L 278.244848 62.126362 
L 266.220606 63.124157 
L 254.196364 60.130772 
L 242.172121 63.124157 
L 230.147879 62.126362 
L 218.123636 61.128567 
L 206.099394 62.126362 
L 194.075152 64.121953 
L 182.050909 69.110929 
L 170.026667 63.124157 
L 158.002424 63.124157 
L 145.978182 62.126362 
L 133.953939 63.124157 
L 121.929697 67.115339 
L 109.905455 65.119748 
L 97.881212 66.117543 
L 85.85697 66.117543 
L 73.832727 60.130772 
z
" style="fill:#bcbd22;"/>
   </g>
   <g id="PolyCollection_20">
    <path clip-path="url(#p509da060cf)" d="M 73.832727 59.132976 
L 73.832727 60.130772 
L 85.85697 66.117543 
L 97.881212 66.117543 
L 109.905455 65.119748 
L 121.929697 67.115339 
L 133.953939 63.124157 
L 145.978182 62.126362 
L 158.002424 63.124157 
L 170.026667 63.124157 
L 182.050909 69.110929 
L 194.075152 64.121953 
L 206.099394 62.126362 
L 218.123636 61.128567 
L 230.147879 62.126362 
L 242.172121 63.124157 
L 254.196364 60.130772 
L 266.220606 63.124157 
L 278.244848 62.126362 
L 290.269091 63.124157 
L 302.293333 63.124157 
L 314.317576 64.121953 
L 326.341818 62.126362 
L 338.366061 60.130772 
L 350.390303 63.124157 
L 362.414545 63.124157 
L 374.438788 63.124157 
L 386.46303 59.132976 
L 398.487273 65.119748 
L 398.487273 61.128567 
L 398.487273 61.128567 
L 386.46303 56.139591 
L 374.438788 61.128567 
L 362.414545 61.128567 
L 350.390303 60.130772 
L 338.366061 58.135181 
L 326.341818 59.132976 
L 314.317576 60.130772 
L 302.293333 60.130772 
L 290.269091 60.130772 
L 278.244848 58.135181 
L 266.220606 58.135181 
L 254.196364 56.139591 
L 242.172121 60.130772 
L 230.147879 60.130772 
L 218.123636 58.135181 
L 206.099394 57.137386 
L 194.075152 58.135181 
L 182.050909 62.126362 
L 170.026667 58.135181 
L 158.002424 58.135181 
L 145.978182 58.135181 
L 133.953939 58.135181 
L 121.929697 61.128567 
L 109.905455 58.135181 
L 97.881212 60.130772 
L 85.85697 60.130772 
L 73.832727 59.132976 
z
" style="fill:#17becf;"/>
   </g>
   <g id="PolyCollection_21">
    <path clip-path="url(#p509da060cf)" d="M 73.832727 58.135181 
L 73.832727 59.132976 
L 85.85697 60.130772 
L 97.881212 60.130772 
L 109.905455 58.135181 
L 121.929697 61.128567 
L 133.953939 58.135181 
L 145.978182 58.135181 
L 158.002424 58.135181 
L 170.026667 58.135181 
L 182.050909 62.126362 
L 194.075152 58.135181 
L 206.099394 57.137386 
L 218.123636 58.135181 
L 230.147879 60.130772 
L 242.172121 60.130772 
L 254.196364 56.139591 
L 266.220606 58.135181 
L 278.244848 58.135181 
L 290.269091 60.130772 
L 302.293333 60.130772 
L 314.317576 60.130772 
L 326.341818 59.132976 
L 338.366061 58.135181 
L 350.390303 60.130772 
L 362.414545 61.128567 
L 374.438788 61.128567 
L 386.46303 56.139591 
L 398.487273 61.128567 
L 398.487273 58.135181 
L 398.487273 58.135181 
L 386.46303 54.144 
L 374.438788 58.135181 
L 362.414545 59.132976 
L 350.390303 58.135181 
L 338.366061 55.141795 
L 326.341818 57.137386 
L 314.317576 57.137386 
L 302.293333 58.135181 
L 290.269091 57.137386 
L 278.244848 56.139591 
L 266.220606 55.141795 
L 254.196364 54.144 
L 242.172121 57.137386 
L 230.147879 58.135181 
L 218.123636 55.141795 
L 206.099394 55.141795 
L 194.075152 56.139591 
L 182.050909 60.130772 
L 170.026667 55.141795 
L 158.002424 56.139591 
L 145.978182 56.139591 
L 133.953939 55.141795 
L 121.929697 57.137386 
L 109.905455 55.141795 
L 97.881212 57.137386 
L 85.85697 58.135181 
L 73.832727 58.135181 
z
" style="fill:#1f77b4;"/>
   </g>
   <g id="matplotlib.axis_1">
    <g id="xtick_1">
     <g id="line2d_1">
      <defs>
       <path d="M 0 0 
L 0 3.5 
" id="m3241a38509" style="stroke:#000000;stroke-width:0.8;"/>
      </defs>
      <g>
       <use style="stroke:#000000;stroke-width:0.8;" x="73.832727" xlink:href="#m3241a38509" y="307.584"/>
      </g>
     </g>
     <g id="text_1">
      <!-- 0 -->
      <defs>
       <path d="M 31.78125 66.40625 
Q 24.171875 66.40625 20.328125 58.90625 
Q 16.5 51.421875 16.5 36.375 
Q 16.5 21.390625 20.328125 13.890625 
Q 24.171875 6.390625 31.78125 6.390625 
Q 39.453125 6.390625 43.28125 13.890625 
Q 47.125 21.390625 47.125 36.375 
Q 47.125 51.421875 43.28125 58.90625 
Q 39.453125 66.40625 31.78125 66.40625 
z
M 31.78125 74.21875 
Q 44.046875 74.21875 50.515625 64.515625 
Q 56.984375 54.828125 56.984375 36.375 
Q 56.984375 17.96875 50.515625 8.265625 
Q 44.046875 -1.421875 31.78125 -1.421875 
Q 19.53125 -1.421875 13.0625 8.265625 
Q 6.59375 17.96875 6.59375 36.375 
Q 6.59375 54.828125 13.0625 64.515625 
Q 19.53125 74.21875 31.78125 74.21875 
z
" id="DejaVuSans-48"/>
      </defs>
      <g transform="translate(70.651477 322.182437)scale(0.1 -0.1)">
       <use xlink:href="#DejaVuSans-48"/>
      </g>
     </g>
    </g>
    <g id="xtick_2">
     <g id="line2d_2">
      <g>
       <use style="stroke:#000000;stroke-width:0.8;" x="133.953939" xlink:href="#m3241a38509" y="307.584"/>
      </g>
     </g>
     <g id="text_2">
      <!-- 5 -->
      <defs>
       <path d="M 10.796875 72.90625 
L 49.515625 72.90625 
L 49.515625 64.59375 
L 19.828125 64.59375 
L 19.828125 46.734375 
Q 21.96875 47.46875 24.109375 47.828125 
Q 26.265625 48.1875 28.421875 48.1875 
Q 40.625 48.1875 47.75 41.5 
Q 54.890625 34.8125 54.890625 23.390625 
Q 54.890625 11.625 47.5625 5.09375 
Q 40.234375 -1.421875 26.90625 -1.421875 
Q 22.3125 -1.421875 17.546875 -0.640625 
Q 12.796875 0.140625 7.71875 1.703125 
L 7.71875 11.625 
Q 12.109375 9.234375 16.796875 8.0625 
Q 21.484375 6.890625 26.703125 6.890625 
Q 35.15625 6.890625 40.078125 11.328125 
Q 45.015625 15.765625 45.015625 23.390625 
Q 45.015625 31 40.078125 35.4375 
Q 35.15625 39.890625 26.703125 39.890625 
Q 22.75 39.890625 18.8125 39.015625 
Q 14.890625 38.140625 10.796875 36.28125 
z
" id="DejaVuSans-53"/>
      </defs>
      <g transform="translate(130.772689 322.182437)scale(0.1 -0.1)">
       <use xlink:href="#DejaVuSans-53"/>
      </g>
     </g>
    </g>
    <g id="xtick_3">
     <g id="line2d_3">
      <g>
       <use style="stroke:#000000;stroke-width:0.8;" x="194.075152" xlink:href="#m3241a38509" y="307.584"/>
      </g>
     </g>
     <g id="text_3">
      <!-- 10 -->
      <defs>
       <path d="M 12.40625 8.296875 
L 28.515625 8.296875 
L 28.515625 63.921875 
L 10.984375 60.40625 
L 10.984375 69.390625 
L 28.421875 72.90625 
L 38.28125 72.90625 
L 38.28125 8.296875 
L 54.390625 8.296875 
L 54.390625 0 
L 12.40625 0 
z
" id="DejaVuSans-49"/>
      </defs>
      <g transform="translate(187.712652 322.182437)scale(0.1 -0.1)">
       <use xlink:href="#DejaVuSans-49"/>
       <use x="63.623047" xlink:href="#DejaVuSans-48"/>
      </g>
     </g>
    </g>
    <g id="xtick_4">
     <g id="line2d_4">
      <g>
       <use style="stroke:#000000;stroke-width:0.8;" x="254.196364" xlink:href="#m3241a38509" y="307.584"/>
      </g>
     </g>
     <g id="text_4">
      <!-- 15 -->
      <g transform="translate(247.833864 322.182437)scale(0.1 -0.1)">
       <use xlink:href="#DejaVuSans-49"/>
       <use x="63.623047" xlink:href="#DejaVuSans-53"/>
      </g>
     </g>
    </g>
    <g id="xtick_5">
     <g id="line2d_5">
      <g>
       <use style="stroke:#000000;stroke-width:0.8;" x="314.317576" xlink:href="#m3241a38509" y="307.584"/>
      </g>
     </g>
     <g id="text_5">
      <!-- 20 -->
      <defs>
       <path d="M 19.1875 8.296875 
L 53.609375 8.296875 
L 53.609375 0 
L 7.328125 0 
L 7.328125 8.296875 
Q 12.9375 14.109375 22.625 23.890625 
Q 32.328125 33.6875 34.8125 36.53125 
Q 39.546875 41.84375 41.421875 45.53125 
Q 43.3125 49.21875 43.3125 52.78125 
Q 43.3125 58.59375 39.234375 62.25 
Q 35.15625 65.921875 28.609375 65.921875 
Q 23.96875 65.921875 18.8125 64.3125 
Q 13.671875 62.703125 7.8125 59.421875 
L 7.8125 69.390625 
Q 13.765625 71.78125 18.9375 73 
Q 24.125 74.21875 28.421875 74.21875 
Q 39.75 74.21875 46.484375 68.546875 
Q 53.21875 62.890625 53.21875 53.421875 
Q 53.21875 48.921875 51.53125 44.890625 
Q 49.859375 40.875 45.40625 35.40625 
Q 44.1875 33.984375 37.640625 27.21875 
Q 31.109375 20.453125 19.1875 8.296875 
z
" id="DejaVuSans-50"/>
      </defs>
      <g transform="translate(307.955076 322.182437)scale(0.1 -0.1)">
       <use xlink:href="#DejaVuSans-50"/>
       <use x="63.623047" xlink:href="#DejaVuSans-48"/>
      </g>
     </g>
    </g>
    <g id="xtick_6">
     <g id="line2d_6">
      <g>
       <use style="stroke:#000000;stroke-width:0.8;" x="374.438788" xlink:href="#m3241a38509" y="307.584"/>
      </g>
     </g>
     <g id="text_6">
      <!-- 25 -->
      <g transform="translate(368.076288 322.182437)scale(0.1 -0.1)">
       <use xlink:href="#DejaVuSans-50"/>
       <use x="63.623047" xlink:href="#DejaVuSans-53"/>
      </g>
     </g>
    </g>
    <g id="text_7">
     <!-- Generations -->
     <defs>
      <path d="M 59.515625 10.40625 
L 59.515625 29.984375 
L 43.40625 29.984375 
L 43.40625 38.09375 
L 69.28125 38.09375 
L 69.28125 6.78125 
Q 63.578125 2.734375 56.6875 0.65625 
Q 49.8125 -1.421875 42 -1.421875 
Q 24.90625 -1.421875 15.25 8.5625 
Q 5.609375 18.5625 5.609375 36.375 
Q 5.609375 54.25 15.25 64.234375 
Q 24.90625 74.21875 42 74.21875 
Q 49.125 74.21875 55.546875 72.453125 
Q 61.96875 70.703125 67.390625 67.28125 
L 67.390625 56.78125 
Q 61.921875 61.421875 55.765625 63.765625 
Q 49.609375 66.109375 42.828125 66.109375 
Q 29.4375 66.109375 22.71875 58.640625 
Q 16.015625 51.171875 16.015625 36.375 
Q 16.015625 21.625 22.71875 14.15625 
Q 29.4375 6.6875 42.828125 6.6875 
Q 48.046875 6.6875 52.140625 7.59375 
Q 56.25 8.5 59.515625 10.40625 
z
" id="DejaVuSans-71"/>
      <path d="M 56.203125 29.59375 
L 56.203125 25.203125 
L 14.890625 25.203125 
Q 15.484375 15.921875 20.484375 11.0625 
Q 25.484375 6.203125 34.421875 6.203125 
Q 39.59375 6.203125 44.453125 7.46875 
Q 49.3125 8.734375 54.109375 11.28125 
L 54.109375 2.78125 
Q 49.265625 0.734375 44.1875 -0.34375 
Q 39.109375 -1.421875 33.890625 -1.421875 
Q 20.796875 -1.421875 13.15625 6.1875 
Q 5.515625 13.8125 5.515625 26.8125 
Q 5.515625 40.234375 12.765625 48.109375 
Q 20.015625 56 32.328125 56 
Q 43.359375 56 49.78125 48.890625 
Q 56.203125 41.796875 56.203125 29.59375 
z
M 47.21875 32.234375 
Q 47.125 39.59375 43.09375 43.984375 
Q 39.0625 48.390625 32.421875 48.390625 
Q 24.90625 48.390625 20.390625 44.140625 
Q 15.875 39.890625 15.1875 32.171875 
z
" id="DejaVuSans-101"/>
      <path d="M 54.890625 33.015625 
L 54.890625 0 
L 45.90625 0 
L 45.90625 32.71875 
Q 45.90625 40.484375 42.875 44.328125 
Q 39.84375 48.1875 33.796875 48.1875 
Q 26.515625 48.1875 22.3125 43.546875 
Q 18.109375 38.921875 18.109375 30.90625 
L 18.109375 0 
L 9.078125 0 
L 9.078125 54.6875 
L 18.109375 54.6875 
L 18.109375 46.1875 
Q 21.34375 51.125 25.703125 53.5625 
Q 30.078125 56 35.796875 56 
Q 45.21875 56 50.046875 50.171875 
Q 54.890625 44.34375 54.890625 33.015625 
z
" id="DejaVuSans-110"/>
      <path d="M 41.109375 46.296875 
Q 39.59375 47.171875 37.8125 47.578125 
Q 36.03125 48 33.890625 48 
Q 26.265625 48 22.1875 43.046875 
Q 18.109375 38.09375 18.109375 28.8125 
L 18.109375 0 
L 9.078125 0 
L 9.078125 54.6875 
L 18.109375 54.6875 
L 18.109375 46.1875 
Q 20.953125 51.171875 25.484375 53.578125 
Q 30.03125 56 36.53125 56 
Q 37.453125 56 38.578125 55.875 
Q 39.703125 55.765625 41.0625 55.515625 
z
" id="DejaVuSans-114"/>
      <path d="M 34.28125 27.484375 
Q 23.390625 27.484375 19.1875 25 
Q 14.984375 22.515625 14.984375 16.5 
Q 14.984375 11.71875 18.140625 8.90625 
Q 21.296875 6.109375 26.703125 6.109375 
Q 34.1875 6.109375 38.703125 11.40625 
Q 43.21875 16.703125 43.21875 25.484375 
L 43.21875 27.484375 
z
M 52.203125 31.203125 
L 52.203125 0 
L 43.21875 0 
L 43.21875 8.296875 
Q 40.140625 3.328125 35.546875 0.953125 
Q 30.953125 -1.421875 24.3125 -1.421875 
Q 15.921875 -1.421875 10.953125 3.296875 
Q 6 8.015625 6 15.921875 
Q 6 25.140625 12.171875 29.828125 
Q 18.359375 34.515625 30.609375 34.515625 
L 43.21875 34.515625 
L 43.21875 35.40625 
Q 43.21875 41.609375 39.140625 45 
Q 35.0625 48.390625 27.6875 48.390625 
Q 23 48.390625 18.546875 47.265625 
Q 14.109375 46.140625 10.015625 43.890625 
L 10.015625 52.203125 
Q 14.9375 54.109375 19.578125 55.046875 
Q 24.21875 56 28.609375 56 
Q 40.484375 56 46.34375 49.84375 
Q 52.203125 43.703125 52.203125 31.203125 
z
" id="DejaVuSans-97"/>
      <path d="M 18.3125 70.21875 
L 18.3125 54.6875 
L 36.8125 54.6875 
L 36.8125 47.703125 
L 18.3125 47.703125 
L 18.3125 18.015625 
Q 18.3125 11.328125 20.140625 9.421875 
Q 21.96875 7.515625 27.59375 7.515625 
L 36.8125 7.515625 
L 36.8125 0 
L 27.59375 0 
Q 17.1875 0 13.234375 3.875 
Q 9.28125 7.765625 9.28125 18.015625 
L 9.28125 47.703125 
L 2.6875 47.703125 
L 2.6875 54.6875 
L 9.28125 54.6875 
L 9.28125 70.21875 
z
" id="DejaVuSans-116"/>
      <path d="M 9.421875 54.6875 
L 18.40625 54.6875 
L 18.40625 0 
L 9.421875 0 
z
M 9.421875 75.984375 
L 18.40625 75.984375 
L 18.40625 64.59375 
L 9.421875 64.59375 
z
" id="DejaVuSans-105"/>
      <path d="M 30.609375 48.390625 
Q 23.390625 48.390625 19.1875 42.75 
Q 14.984375 37.109375 14.984375 27.296875 
Q 14.984375 17.484375 19.15625 11.84375 
Q 23.34375 6.203125 30.609375 6.203125 
Q 37.796875 6.203125 41.984375 11.859375 
Q 46.1875 17.53125 46.1875 27.296875 
Q 46.1875 37.015625 41.984375 42.703125 
Q 37.796875 48.390625 30.609375 48.390625 
z
M 30.609375 56 
Q 42.328125 56 49.015625 48.375 
Q 55.71875 40.765625 55.71875 27.296875 
Q 55.71875 13.875 49.015625 6.21875 
Q 42.328125 -1.421875 30.609375 -1.421875 
Q 18.84375 -1.421875 12.171875 6.21875 
Q 5.515625 13.875 5.515625 27.296875 
Q 5.515625 40.765625 12.171875 48.375 
Q 18.84375 56 30.609375 56 
z
" id="DejaVuSans-111"/>
      <path d="M 44.28125 53.078125 
L 44.28125 44.578125 
Q 40.484375 46.53125 36.375 47.5 
Q 32.28125 48.484375 27.875 48.484375 
Q 21.1875 48.484375 17.84375 46.4375 
Q 14.5 44.390625 14.5 40.28125 
Q 14.5 37.15625 16.890625 35.375 
Q 19.28125 33.59375 26.515625 31.984375 
L 29.59375 31.296875 
Q 39.15625 29.25 43.1875 25.515625 
Q 47.21875 21.78125 47.21875 15.09375 
Q 47.21875 7.46875 41.1875 3.015625 
Q 35.15625 -1.421875 24.609375 -1.421875 
Q 20.21875 -1.421875 15.453125 -0.5625 
Q 10.6875 0.296875 5.421875 2 
L 5.421875 11.28125 
Q 10.40625 8.6875 15.234375 7.390625 
Q 20.0625 6.109375 24.8125 6.109375 
Q 31.15625 6.109375 34.5625 8.28125 
Q 37.984375 10.453125 37.984375 14.40625 
Q 37.984375 18.0625 35.515625 20.015625 
Q 33.0625 21.96875 24.703125 23.78125 
L 21.578125 24.515625 
Q 13.234375 26.265625 9.515625 29.90625 
Q 5.8125 33.546875 5.8125 39.890625 
Q 5.8125 47.609375 11.28125 51.796875 
Q 16.75 56 26.8125 56 
Q 31.78125 56 36.171875 55.265625 
Q 40.578125 54.546875 44.28125 53.078125 
z
" id="DejaVuSans-115"/>
     </defs>
     <g transform="translate(205.662344 335.860562)scale(0.1 -0.1)">
      <use xlink:href="#DejaVuSans-71"/>
      <use x="77.490234" xlink:href="#DejaVuSans-101"/>
      <use x="139.013672" xlink:href="#DejaVuSans-110"/>
      <use x="202.392578" xlink:href="#DejaVuSans-101"/>
      <use x="263.916016" xlink:href="#DejaVuSans-114"/>
      <use x="305.029297" xlink:href="#DejaVuSans-97"/>
      <use x="366.308594" xlink:href="#DejaVuSans-116"/>
      <use x="405.517578" xlink:href="#DejaVuSans-105"/>
      <use x="433.300781" xlink:href="#DejaVuSans-111"/>
      <use x="494.482422" xlink:href="#DejaVuSans-110"/>
      <use x="557.861328" xlink:href="#DejaVuSans-115"/>
     </g>
    </g>
   </g>
   <g id="matplotlib.axis_2">
    <g id="ytick_1">
     <g id="line2d_7">
      <defs>
       <path d="M 0 0 
L -3.5 0 
" id="m1363fdcb24" style="stroke:#000000;stroke-width:0.8;"/>
      </defs>
      <g>
       <use style="stroke:#000000;stroke-width:0.8;" x="57.6" xlink:href="#m1363fdcb24" y="307.584"/>
      </g>
     </g>
     <g id="text_8">
      <!-- 0 -->
      <g transform="translate(44.2375 311.383219)scale(0.1 -0.1)">
       <use xlink:href="#DejaVuSans-48"/>
      </g>
     </g>
    </g>
    <g id="ytick_2">
     <g id="line2d_8">
      <g>
       <use style="stroke:#000000;stroke-width:0.8;" x="57.6" xlink:href="#m1363fdcb24" y="257.694236"/>
      </g>
     </g>
     <g id="text_9">
      <!-- 50 -->
      <g transform="translate(37.875 261.493455)scale(0.1 -0.1)">
       <use xlink:href="#DejaVuSans-53"/>
       <use x="63.623047" xlink:href="#DejaVuSans-48"/>
      </g>
     </g>
    </g>
    <g id="ytick_3">
     <g id="line2d_9">
      <g>
       <use style="stroke:#000000;stroke-width:0.8;" x="57.6" xlink:href="#m1363fdcb24" y="207.804472"/>
      </g>
     </g>
     <g id="text_10">
      <!-- 100 -->
      <g transform="translate(31.5125 211.603691)scale(0.1 -0.1)">
       <use xlink:href="#DejaVuSans-49"/>
       <use x="63.623047" xlink:href="#DejaVuSans-48"/>
       <use x="127.246094" xlink:href="#DejaVuSans-48"/>
      </g>
     </g>
    </g>
    <g id="ytick_4">
     <g id="line2d_10">
      <g>
       <use style="stroke:#000000;stroke-width:0.8;" x="57.6" xlink:href="#m1363fdcb24" y="157.914709"/>
      </g>
     </g>
     <g id="text_11">
      <!-- 150 -->
      <g transform="translate(31.5125 161.713927)scale(0.1 -0.1)">
       <use xlink:href="#DejaVuSans-49"/>
       <use x="63.623047" xlink:href="#DejaVuSans-53"/>
       <use x="127.246094" xlink:href="#DejaVuSans-48"/>
      </g>
     </g>
    </g>
    <g id="ytick_5">
     <g id="line2d_11">
      <g>
       <use style="stroke:#000000;stroke-width:0.8;" x="57.6" xlink:href="#m1363fdcb24" y="108.024945"/>
      </g>
     </g>
     <g id="text_12">
      <!-- 200 -->
      <g transform="translate(31.5125 111.824164)scale(0.1 -0.1)">
       <use xlink:href="#DejaVuSans-50"/>
       <use x="63.623047" xlink:href="#DejaVuSans-48"/>
       <use x="127.246094" xlink:href="#DejaVuSans-48"/>
      </g>
     </g>
    </g>
    <g id="ytick_6">
     <g id="line2d_12">
      <g>
       <use style="stroke:#000000;stroke-width:0.8;" x="57.6" xlink:href="#m1363fdcb24" y="58.135181"/>
      </g>
     </g>
     <g id="text_13">
      <!-- 250 -->
      <g transform="translate(31.5125 61.9344)scale(0.1 -0.1)">
       <use xlink:href="#DejaVuSans-50"/>
       <use x="63.623047" xlink:href="#DejaVuSans-53"/>
       <use x="127.246094" xlink:href="#DejaVuSans-48"/>
      </g>
     </g>
    </g>
    <g id="text_14">
     <!-- Size per Species -->
     <defs>
      <path d="M 53.515625 70.515625 
L 53.515625 60.890625 
Q 47.90625 63.578125 42.921875 64.890625 
Q 37.9375 66.21875 33.296875 66.21875 
Q 25.25 66.21875 20.875 63.09375 
Q 16.5 59.96875 16.5 54.203125 
Q 16.5 49.359375 19.40625 46.890625 
Q 22.3125 44.4375 30.421875 42.921875 
L 36.375 41.703125 
Q 47.40625 39.59375 52.65625 34.296875 
Q 57.90625 29 57.90625 20.125 
Q 57.90625 9.515625 50.796875 4.046875 
Q 43.703125 -1.421875 29.984375 -1.421875 
Q 24.8125 -1.421875 18.96875 -0.25 
Q 13.140625 0.921875 6.890625 3.21875 
L 6.890625 13.375 
Q 12.890625 10.015625 18.65625 8.296875 
Q 24.421875 6.59375 29.984375 6.59375 
Q 38.421875 6.59375 43.015625 9.90625 
Q 47.609375 13.234375 47.609375 19.390625 
Q 47.609375 24.75 44.3125 27.78125 
Q 41.015625 30.8125 33.5 32.328125 
L 27.484375 33.5 
Q 16.453125 35.6875 11.515625 40.375 
Q 6.59375 45.0625 6.59375 53.421875 
Q 6.59375 63.09375 13.40625 68.65625 
Q 20.21875 74.21875 32.171875 74.21875 
Q 37.3125 74.21875 42.625 73.28125 
Q 47.953125 72.359375 53.515625 70.515625 
z
" id="DejaVuSans-83"/>
      <path d="M 5.515625 54.6875 
L 48.1875 54.6875 
L 48.1875 46.484375 
L 14.40625 7.171875 
L 48.1875 7.171875 
L 48.1875 0 
L 4.296875 0 
L 4.296875 8.203125 
L 38.09375 47.515625 
L 5.515625 47.515625 
z
" id="DejaVuSans-122"/>
      <path id="DejaVuSans-32"/>
      <path d="M 18.109375 8.203125 
L 18.109375 -20.796875 
L 9.078125 -20.796875 
L 9.078125 54.6875 
L 18.109375 54.6875 
L 18.109375 46.390625 
Q 20.953125 51.265625 25.265625 53.625 
Q 29.59375 56 35.59375 56 
Q 45.5625 56 51.78125 48.09375 
Q 58.015625 40.1875 58.015625 27.296875 
Q 58.015625 14.40625 51.78125 6.484375 
Q 45.5625 -1.421875 35.59375 -1.421875 
Q 29.59375 -1.421875 25.265625 0.953125 
Q 20.953125 3.328125 18.109375 8.203125 
z
M 48.6875 27.296875 
Q 48.6875 37.203125 44.609375 42.84375 
Q 40.53125 48.484375 33.40625 48.484375 
Q 26.265625 48.484375 22.1875 42.84375 
Q 18.109375 37.203125 18.109375 27.296875 
Q 18.109375 17.390625 22.1875 11.75 
Q 26.265625 6.109375 33.40625 6.109375 
Q 40.53125 6.109375 44.609375 11.75 
Q 48.6875 17.390625 48.6875 27.296875 
z
" id="DejaVuSans-112"/>
      <path d="M 48.78125 52.59375 
L 48.78125 44.1875 
Q 44.96875 46.296875 41.140625 47.34375 
Q 37.3125 48.390625 33.40625 48.390625 
Q 24.65625 48.390625 19.8125 42.84375 
Q 14.984375 37.3125 14.984375 27.296875 
Q 14.984375 17.28125 19.8125 11.734375 
Q 24.65625 6.203125 33.40625 6.203125 
Q 37.3125 6.203125 41.140625 7.25 
Q 44.96875 8.296875 48.78125 10.40625 
L 48.78125 2.09375 
Q 45.015625 0.34375 40.984375 -0.53125 
Q 36.96875 -1.421875 32.421875 -1.421875 
Q 20.0625 -1.421875 12.78125 6.34375 
Q 5.515625 14.109375 5.515625 27.296875 
Q 5.515625 40.671875 12.859375 48.328125 
Q 20.21875 56 33.015625 56 
Q 37.15625 56 41.109375 55.140625 
Q 45.0625 54.296875 48.78125 52.59375 
z
" id="DejaVuSans-99"/>
     </defs>
     <g transform="translate(25.432812 215.520969)rotate(-90)scale(0.1 -0.1)">
      <use xlink:href="#DejaVuSans-83"/>
      <use x="63.476562" xlink:href="#DejaVuSans-105"/>
      <use x="91.259766" xlink:href="#DejaVuSans-122"/>
      <use x="143.75" xlink:href="#DejaVuSans-101"/>
      <use x="205.273438" xlink:href="#DejaVuSans-32"/>
      <use x="237.060547" xlink:href="#DejaVuSans-112"/>
      <use x="300.537109" xlink:href="#DejaVuSans-101"/>
      <use x="362.060547" xlink:href="#DejaVuSans-114"/>
      <use x="403.173828" xlink:href="#DejaVuSans-32"/>
      <use x="434.960938" xlink:href="#DejaVuSans-83"/>
      <use x="498.4375" xlink:href="#DejaVuSans-112"/>
      <use x="561.914062" xlink:href="#DejaVuSans-101"/>
      <use x="623.4375" xlink:href="#DejaVuSans-99"/>
      <use x="678.417969" xlink:href="#DejaVuSans-105"/>
      <use x="706.201172" xlink:href="#DejaVuSans-101"/>
      <use x="767.724609" xlink:href="#DejaVuSans-115"/>
     </g>
    </g>
   </g>
   <g id="patch_3">
    <path d="M 57.6 307.584 
L 57.6 41.472 
" style="fill:none;stroke:#000000;stroke-linecap:square;stroke-linejoin:miter;stroke-width:0.8;"/>
   </g>
   <g id="patch_4">
    <path d="M 414.72 307.584 
L 414.72 41.472 
" style="fill:none;stroke:#000000;stroke-linecap:square;stroke-linejoin:miter;stroke-width:0.8;"/>
   </g>
   <g id="patch_5">
    <path d="M 57.6 307.584 
L 414.72 307.584 
" style="fill:none;stroke:#000000;stroke-linecap:square;stroke-linejoin:miter;stroke-width:0.8;"/>
   </g>
   <g id="patch_6">
    <path d="M 57.6 41.472 
L 414.72 41.472 
" style="fill:none;stroke:#000000;stroke-linecap:square;stroke-linejoin:miter;stroke-width:0.8;"/>
   </g>
   <g id="text_15">
    <!-- Speciation -->
    <g transform="translate(204.714375 35.472)scale(0.12 -0.12)">
     <use xlink:href="#DejaVuSans-83"/>
     <use x="63.476562" xlink:href="#DejaVuSans-112"/>
     <use x="126.953125" xlink:href="#DejaVuSans-101"/>
     <use x="188.476562" xlink:href="#DejaVuSans-99"/>
     <use x="243.457031" xlink:href="#DejaVuSans-105"/>
     <use x="271.240234" xlink:href="#DejaVuSans-97"/>
     <use x="332.519531" xlink:href="#DejaVuSans-116"/>
     <use x="371.728516" xlink:href="#DejaVuSans-105"/>
     <use x="399.511719" xlink:href="#DejaVuSans-111"/>
     <use x="460.693359" xlink:href="#DejaVuSans-110"/>
    </g>
   </g>
  </g>
 </g>
 <defs>
  <clipPath id="p509da060cf">
   <rect height="266.112" width="357.12" x="57.6" y="41.472"/>
  </clipPath>
 </defs>
</svg>
