<?xml version="1.0" encoding="UTF-8" standalone="no"?>
<!DOCTYPE svg PUBLIC "-//W3C//DTD SVG 1.1//EN"
 "http://www.w3.org/Graphics/SVG/1.1/DTD/svg11.dtd">
<!-- Generated by graphviz version 2.38.0 (20140413.2041)
 -->
<!-- Title: %3 Pages: 1 -->
<svg width="284pt" height="292pt"
 viewBox="0.00 0.00 284.09 292.39" xmlns="http://www.w3.org/2000/svg" xmlns:xlink="http://www.w3.org/1999/xlink">
<g id="graph0" class="graph" transform="scale(1 1) rotate(0) translate(4 288.392)">
<title>%3</title>
<polygon fill="white" stroke="none" points="-4,4 -4,-288.392 280.09,-288.392 280.09,4 -4,4"/>
<!-- x -->
<g id="node1" class="node"><title>x</title>
<polygon fill="lightgray" stroke="black" points="25.5903,-214.643 5.59029,-214.643 5.59029,-196.643 25.5903,-196.643 25.5903,-214.643"/>
<text text-anchor="middle" x="15.5903" y="-203.443" font-family="Times New Roman,serif" font-size="9.00">x</text>
</g>
<!-- control -->
<g id="node5" class="node"><title>control</title>
<ellipse fill="lightblue" stroke="black" cx="114.59" cy="-29.6985" rx="29.8983" ry="29.8983"/>
<text text-anchor="middle" x="114.59" y="-27.4985" font-family="Times New Roman,serif" font-size="9.00">control</text>
</g>
<!-- x&#45;&gt;control -->
<g id="edge2" class="edge"><title>x&#45;&gt;control</title>
<path fill="none" stroke="green" stroke-width="0.195861" d="M12.4049,-196.583C5.43388,-177.549 -9.11698,-128.897 9.59029,-95.397 23.8119,-69.9292 52.6318,-53.2453 76.4856,-43.2085"/>
<polygon fill="green" stroke="green" stroke-width="0.195861" points="78.0045,-46.3715 86.0112,-39.433 75.4252,-39.864 78.0045,-46.3715"/>
</g>
<!-- 982 -->
<g id="node8" class="node"><title>982</title>
<ellipse fill="white" stroke="black" cx="39.5903" cy="-120.146" rx="21.4286" ry="21.4286"/>
<text text-anchor="middle" x="39.5903" y="-117.946" font-family="Times New Roman,serif" font-size="9.00">982</text>
</g>
<!-- x&#45;&gt;982 -->
<g id="edge5" class="edge"><title>x&#45;&gt;982</title>
<path fill="none" stroke="green" stroke-width="0.184679" d="M17.8915,-196.637C20.9229,-186.091 26.4206,-166.964 31.1234,-150.602"/>
<polygon fill="green" stroke="green" stroke-width="0.184679" points="34.521,-151.452 33.9197,-140.874 27.7934,-149.518 34.521,-151.452"/>
</g>
<!-- dx -->
<g id="node2" class="node"><title>dx</title>
<polygon fill="lightgray" stroke="black" points="154.09,-284.392 129.09,-284.392 129.09,-266.392 154.09,-266.392 154.09,-284.392"/>
<text text-anchor="middle" x="141.59" y="-273.192" font-family="Times New Roman,serif" font-size="9.00">dx</text>
</g>
<!-- dx&#45;&gt;control -->
<g id="edge4" class="edge"><title>dx&#45;&gt;control</title>
<path fill="none" stroke="green" stroke-width="0.295801" d="M132.624,-266.331C124.314,-258.204 112.518,-244.827 107.59,-230.392 89.2011,-176.519 97.2626,-109.663 105.421,-68.6016"/>
<polygon fill="green" stroke="green" stroke-width="0.295801" points="108.862,-69.2462 107.481,-58.7417 102.01,-67.8144 108.862,-69.2462"/>
</g>
<!-- 1354 -->
<g id="node6" class="node"><title>1354</title>
<ellipse fill="white" stroke="black" cx="141.59" cy="-205.643" rx="25" ry="25"/>
<text text-anchor="middle" x="141.59" y="-203.443" font-family="Times New Roman,serif" font-size="9.00">1354</text>
</g>
<!-- dx&#45;&gt;1354 -->
<g id="edge9" class="edge"><title>dx&#45;&gt;1354</title>
<path fill="none" stroke="green" stroke-width="0.339085" d="M141.59,-266.354C141.59,-259.919 141.59,-250.421 141.59,-240.885"/>
<polygon fill="green" stroke="green" stroke-width="0.339085" points="145.09,-240.664 141.59,-230.664 138.09,-240.664 145.09,-240.664"/>
</g>
<!-- 1323 -->
<g id="node7" class="node"><title>1323</title>
<ellipse fill="white" stroke="black" cx="141.59" cy="-120.146" rx="25" ry="25"/>
<text text-anchor="middle" x="141.59" y="-117.946" font-family="Times New Roman,serif" font-size="9.00">1323</text>
</g>
<!-- dx&#45;&gt;1323 -->
<g id="edge7" class="edge"><title>dx&#45;&gt;1323</title>
<path fill="none" stroke="green" stroke-width="0.102571" stroke-dasharray="1,5" d="M150.557,-266.331C158.866,-258.204 170.663,-244.827 175.59,-230.392 182.697,-209.573 181.218,-202.161 175.59,-180.894 172.675,-169.878 167.205,-158.767 161.49,-149.165"/>
<polygon fill="green" stroke="green" stroke-width="0.102571" points="164.306,-147.067 156.013,-140.474 158.384,-150.8 164.306,-147.067"/>
</g>
<!-- theta -->
<g id="node3" class="node"><title>theta</title>
<polygon fill="lightgray" stroke="black" points="219.09,-129.146 184.09,-129.146 184.09,-111.146 219.09,-111.146 219.09,-129.146"/>
<text text-anchor="middle" x="201.59" y="-117.946" font-family="Times New Roman,serif" font-size="9.00">theta</text>
</g>
<!-- theta&#45;&gt;control -->
<g id="edge3" class="edge"><title>theta&#45;&gt;control</title>
<path fill="none" stroke="green" stroke-width="0.609654" d="M193.561,-110.983C182.004,-99.2336 160.11,-76.9751 142.301,-58.8699"/>
<polygon fill="green" stroke="green" stroke-width="0.609654" points="144.468,-56.0823 134.96,-51.4075 139.478,-60.9911 144.468,-56.0823"/>
</g>
<!-- dtheta -->
<g id="node4" class="node"><title>dtheta</title>
<polygon fill="lightgray" stroke="black" points="276.09,-129.146 237.09,-129.146 237.09,-111.146 276.09,-111.146 276.09,-129.146"/>
<text text-anchor="middle" x="256.59" y="-117.946" font-family="Times New Roman,serif" font-size="9.00">dtheta</text>
</g>
<!-- dtheta&#45;&gt;control -->
<g id="edge1" class="edge"><title>dtheta&#45;&gt;control</title>
<path fill="none" stroke="green" stroke-width="0.404836" d="M247.607,-110.776C242.279,-106.007 235.279,-100.07 228.59,-95.397 203.34,-77.7562 172.923,-60.6835 149.86,-48.5095"/>
<polygon fill="green" stroke="green" stroke-width="0.404836" points="151.264,-45.2939 140.78,-43.7678 148.024,-51.499 151.264,-45.2939"/>
</g>
<!-- 1354&#45;&gt;1323 -->
<g id="edge10" class="edge"><title>1354&#45;&gt;1323</title>
<path fill="none" stroke="red" stroke-width="0.110246" d="M141.59,-180.492C141.59,-172.548 141.59,-163.564 141.59,-155.033"/>
<polygon fill="red" stroke="red" stroke-width="0.110246" points="145.09,-154.954 141.59,-144.954 138.09,-154.954 145.09,-154.954"/>
</g>
<!-- 1323&#45;&gt;control -->
<g id="edge8" class="edge"><title>1323&#45;&gt;control</title>
<path fill="none" stroke="red" stroke-width="0.149894" d="M134.637,-96.3683C132.016,-87.783 128.961,-77.7748 126.037,-68.1975"/>
<polygon fill="red" stroke="red" stroke-width="0.149894" points="129.329,-66.9929 123.062,-58.4505 122.634,-69.0367 129.329,-66.9929"/>
</g>
<!-- 982&#45;&gt;control -->
<g id="edge6" class="edge"><title>982&#45;&gt;control</title>
<path fill="none" stroke="red" stroke-width="0.645974" d="M52.9988,-103.333C63.0241,-91.5103 77.0331,-74.9895 89.1581,-60.6906"/>
<polygon fill="red" stroke="red" stroke-width="0.645974" points="91.8651,-62.9099 95.6631,-53.0192 86.5261,-58.3827 91.8651,-62.9099"/>
</g>
</g>
</svg>
